<svg width="976" height="472" viewBox="0 0 976 472" fill="none" xmlns="http://www.w3.org/2000/svg">
<mask id="mask0_206_1285" style="mask-type:alpha" maskUnits="userSpaceOnUse" x="170" y="0" width="248" height="472">
<rect x="170" width="248" height="472" fill="url(#paint0_linear_206_1285)"/>
</mask>
<g mask="url(#mask0_206_1285)">
<mask id="path-2-inside-1_206_1285" fill="white">
<path d="M170 0H418V484.793H170V0Z"/>
</mask>
<path d="M170 0H418V484.793H170V0Z" fill="#FDFCFD"/>
<path d="M418 0H417V484.793H418H419V0H418ZM170 484.793H171V0H170H169V484.793H170Z" fill="#E4E2E4" mask="url(#path-2-inside-1_206_1285)"/>
<mask id="path-4-inside-2_206_1285" fill="white">
<path d="M170 20H418V49H170V20Z"/>
</mask>
<path d="M170 20V21H418V20V19H170V20ZM418 49V48H170V49V50H418V49Z" fill="#E4E2E4" mask="url(#path-4-inside-2_206_1285)"/>
<path d="M195.333 36.8334C193.583 36.8334 192.417 35.6667 190.667 35.6667C189.806 35.6668 188.975 35.9841 188.333 36.5581M187.167 28.6667L198.833 40.3334M188.333 40.3334V29.8334M190.466 28.6667H190.667C192.417 28.6667 193.583 29.8334 194.944 29.8334C195.722 29.8334 196.318 29.6779 196.733 29.3667C196.82 29.3017 196.923 29.2622 197.031 29.2524C197.139 29.2427 197.247 29.2632 197.344 29.3117C197.441 29.3601 197.523 29.4346 197.58 29.5267C197.636 29.6189 197.667 29.7251 197.667 29.8334V35.8692" stroke="#6F6E77" stroke-width="0.833333" stroke-linecap="round" stroke-linejoin="round"/>
<path d="M210.655 29.8182V40H209.119V29.8182H210.655ZM215.974 43.0227C215.368 43.0227 214.846 42.9432 214.408 42.7841C213.974 42.625 213.62 42.4145 213.344 42.1527C213.069 41.8909 212.864 41.6042 212.728 41.2926L214.006 40.7656C214.095 40.9115 214.214 41.0656 214.364 41.228C214.516 41.3937 214.722 41.5346 214.98 41.6506C215.242 41.7666 215.578 41.8246 215.989 41.8246C216.553 41.8246 217.018 41.687 217.386 41.4119C217.754 41.1402 217.938 40.706 217.938 40.1094V38.608H217.844C217.754 38.7704 217.625 38.951 217.456 39.1499C217.29 39.3487 217.062 39.5211 216.77 39.6669C216.478 39.8127 216.099 39.8857 215.631 39.8857C215.028 39.8857 214.485 39.7448 214.001 39.4631C213.52 39.178 213.139 38.7588 212.857 38.2053C212.579 37.6484 212.44 36.964 212.44 36.152C212.44 35.34 212.577 34.6439 212.852 34.0639C213.131 33.4839 213.512 33.0398 213.996 32.7315C214.48 32.42 215.028 32.2642 215.641 32.2642C216.115 32.2642 216.498 32.3438 216.79 32.5028C217.081 32.6586 217.308 32.8409 217.471 33.0497C217.637 33.2585 217.764 33.4425 217.854 33.6016H217.963V32.3636H219.42V40.169C219.42 40.8253 219.267 41.3639 218.962 41.7848C218.657 42.2057 218.245 42.5173 217.724 42.7195C217.207 42.9216 216.624 43.0227 215.974 43.0227ZM215.96 38.6527C216.387 38.6527 216.748 38.5533 217.043 38.3544C217.342 38.1522 217.567 37.8639 217.719 37.4893C217.875 37.1115 217.953 36.6591 217.953 36.1321C217.953 35.6184 217.877 35.166 217.724 34.7749C217.572 34.3838 217.348 34.0788 217.053 33.8601C216.758 33.638 216.394 33.527 215.96 33.527C215.512 33.527 215.139 33.643 214.841 33.875C214.543 34.1037 214.317 34.4152 214.165 34.8097C214.016 35.2041 213.941 35.6449 213.941 36.1321C213.941 36.6326 214.017 37.0717 214.17 37.4496C214.322 37.8274 214.548 38.1224 214.846 38.3345C215.147 38.5466 215.519 38.6527 215.96 38.6527ZM222.9 35.4659V40H221.413V32.3636H222.84V33.6065H222.935C223.11 33.2022 223.385 32.8774 223.76 32.6321C224.138 32.3868 224.613 32.2642 225.187 32.2642C225.707 32.2642 226.163 32.3736 226.554 32.5923C226.945 32.8078 227.248 33.1293 227.464 33.5568C227.679 33.9844 227.787 34.513 227.787 35.1428V40H226.3V35.3217C226.3 34.7682 226.156 34.3357 225.868 34.0241C225.58 33.7093 225.183 33.5518 224.68 33.5518C224.335 33.5518 224.028 33.6264 223.76 33.7756C223.495 33.9247 223.284 34.1435 223.129 34.4318C222.976 34.7169 222.9 35.0616 222.9 35.4659ZM232.997 40.1541C232.281 40.1541 231.656 39.9901 231.123 39.6619C230.589 39.3338 230.175 38.8748 229.88 38.2848C229.585 37.6948 229.438 37.0054 229.438 36.2166C229.438 35.4245 229.585 34.7318 229.88 34.1385C230.175 33.5452 230.589 33.0845 231.123 32.7564C231.656 32.4283 232.281 32.2642 232.997 32.2642C233.713 32.2642 234.338 32.4283 234.871 32.7564C235.405 33.0845 235.819 33.5452 236.114 34.1385C236.409 34.7318 236.557 35.4245 236.557 36.2166C236.557 37.0054 236.409 37.6948 236.114 38.2848C235.819 38.8748 235.405 39.3338 234.871 39.6619C234.338 39.9901 233.713 40.1541 232.997 40.1541ZM233.002 38.9062C233.466 38.9062 233.851 38.7836 234.156 38.5384C234.46 38.2931 234.686 37.9666 234.832 37.5589C234.981 37.1513 235.055 36.7022 235.055 36.2116C235.055 35.7244 234.981 35.277 234.832 34.8693C234.686 34.4583 234.46 34.1286 234.156 33.88C233.851 33.6314 233.466 33.5071 233.002 33.5071C232.535 33.5071 232.147 33.6314 231.839 33.88C231.534 34.1286 231.307 34.4583 231.158 34.8693C231.012 35.277 230.939 35.7244 230.939 36.2116C230.939 36.7022 231.012 37.1513 231.158 37.5589C231.307 37.9666 231.534 38.2931 231.839 38.5384C232.147 38.7836 232.535 38.9062 233.002 38.9062ZM238.216 40V32.3636H239.653V33.5767H239.732C239.872 33.1657 240.117 32.8426 240.468 32.6072C240.823 32.3686 241.224 32.2493 241.671 32.2493C241.764 32.2493 241.874 32.2526 241.999 32.2592C242.129 32.2659 242.23 32.2741 242.303 32.2841V33.706C242.243 33.6894 242.137 33.6712 241.985 33.6513C241.832 33.6281 241.68 33.6165 241.527 33.6165C241.176 33.6165 240.863 33.6911 240.588 33.8402C240.316 33.986 240.1 34.1899 239.941 34.4517C239.782 34.7102 239.703 35.0052 239.703 35.3366V40H238.216ZM246.607 40.1541C245.855 40.1541 245.207 39.9934 244.663 39.6719C244.123 39.3471 243.705 38.8913 243.41 38.3047C243.118 37.7147 242.973 37.0237 242.973 36.2315C242.973 35.4493 243.118 34.7599 243.41 34.1634C243.705 33.5668 244.116 33.1011 244.643 32.7663C245.173 32.4316 245.793 32.2642 246.502 32.2642C246.933 32.2642 247.351 32.3355 247.755 32.478C248.16 32.6205 248.523 32.8442 248.844 33.1491C249.166 33.4541 249.419 33.8501 249.605 34.3374C249.79 34.8213 249.883 35.4096 249.883 36.1023V36.6293H243.813V35.5156H248.426C248.426 35.1245 248.347 34.7782 248.188 34.4766C248.029 34.1716 247.805 33.9313 247.517 33.7557C247.232 33.58 246.897 33.4922 246.512 33.4922C246.095 33.4922 245.73 33.5949 245.419 33.8004C245.11 34.0026 244.872 34.2678 244.703 34.5959C244.537 34.9207 244.454 35.2737 244.454 35.6548V36.5249C244.454 37.0353 244.544 37.4695 244.723 37.8274C244.905 38.1854 245.158 38.4588 245.483 38.6477C245.808 38.8333 246.188 38.9261 246.622 38.9261C246.904 38.9261 247.16 38.8864 247.392 38.8068C247.624 38.724 247.825 38.6013 247.994 38.4389C248.163 38.2765 248.292 38.076 248.382 37.8374L249.789 38.0909C249.676 38.5052 249.474 38.8681 249.182 39.1797C248.894 39.4879 248.531 39.7282 248.093 39.9006C247.659 40.0696 247.164 40.1541 246.607 40.1541ZM254.391 40.1491C253.775 40.1491 253.224 39.9917 252.741 39.6768C252.26 39.3587 251.882 38.9062 251.607 38.3196C251.335 37.7296 251.199 37.022 251.199 36.1967C251.199 35.3714 251.337 34.6655 251.612 34.0788C251.89 33.4922 252.272 33.0431 252.756 32.7315C253.239 32.42 253.788 32.2642 254.401 32.2642C254.875 32.2642 255.256 32.3438 255.545 32.5028C255.836 32.6586 256.062 32.8409 256.221 33.0497C256.383 33.2585 256.509 33.4425 256.599 33.6016H256.688V29.8182H258.175V40H256.723V38.8118H256.599C256.509 38.9742 256.38 39.1598 256.211 39.3686C256.045 39.5774 255.816 39.7597 255.525 39.9155C255.233 40.0713 254.855 40.1491 254.391 40.1491ZM254.719 38.8814C255.147 38.8814 255.508 38.7687 255.803 38.5433C256.101 38.3146 256.327 37.9981 256.479 37.5938C256.635 37.1894 256.713 36.7187 256.713 36.1818C256.713 35.6515 256.637 35.1875 256.484 34.7898C256.332 34.392 256.108 34.0821 255.813 33.8601C255.518 33.638 255.153 33.527 254.719 33.527C254.272 33.527 253.899 33.643 253.601 33.875C253.302 34.107 253.077 34.4235 252.925 34.8246C252.775 35.2256 252.701 35.678 252.701 36.1818C252.701 36.6922 252.777 37.1513 252.93 37.5589C253.082 37.9666 253.307 38.2898 253.606 38.5284C253.907 38.7637 254.278 38.8814 254.719 38.8814Z" fill="#1A1523"/>
<rect x="186.442" y="63.442" width="215.116" height="136.348" rx="6.63043" fill="#FDFCFD"/>
<rect x="186.442" y="63.442" width="215.116" height="136.348" rx="6.63043" stroke="#AA99EC" stroke-width="0.884058"/>
<path d="M216 102.811C214.895 102.811 214 103.707 214 104.811V109.774C214 110.879 214.895 111.774 216 111.774H279.368C280.473 111.774 281.368 110.879 281.368 109.774V104.811C281.368 103.707 280.473 102.811 279.368 102.811H216ZM214 127.7C214 128.804 214.895 129.7 216 129.7H279.368C280.473 129.7 281.368 128.804 281.368 127.7V122.737C281.368 121.632 280.473 120.737 279.368 120.737H216C214.895 120.737 214 121.632 214 122.737V127.7Z" fill="#C8C7CB"/>
<path d="M371.348 165.551H296.652C295.188 165.551 294 164.364 294 162.899V141.315C294 139.85 295.188 138.663 296.652 138.663H371.348C372.813 138.663 374 139.85 374 141.315V162.899C374 164.364 372.813 165.551 371.348 165.551Z" fill="#C8C7CB"/>
<path d="M214 79.145C214 78.0404 214.895 77.145 216 77.145H372C373.104 77.145 374 78.0405 374 79.145V95.1076C374 96.2122 373.104 97.1076 372 97.1076H216C214.895 97.1076 214 96.2122 214 95.1076V79.145Z" fill="#AA99EC"/>
<path d="M296.652 102.811C295.188 102.811 294 103.999 294 105.463V127.047C294 128.512 295.188 129.7 296.652 129.7H371.348C372.813 129.7 374 128.512 374 127.047V105.463C374 103.999 372.813 102.811 371.348 102.811H296.652ZM294 162.899C294 164.363 295.188 165.551 296.652 165.551H371.348C372.813 165.551 374 164.363 374 162.899V141.315C374 139.85 372.813 138.662 371.348 138.662H296.652C295.188 138.662 294 139.85 294 141.315V162.899Z" fill="#C8C7CB"/>
<path d="M295.982 102.783C294.878 102.783 293.982 103.678 293.982 104.783V163.551C293.982 164.655 294.878 165.551 295.982 165.551H371.982C373.087 165.551 373.982 164.655 373.982 163.551V104.783C373.982 103.678 373.087 102.783 371.982 102.783H295.982Z" fill="#C8C7CB"/>
<circle cx="362.5" cy="86.8914" r="4.5" fill="#E54D2E"/>
<path d="M201.144 193.023V182.523H202.596V183.761H202.72C202.806 183.602 202.931 183.418 203.093 183.209C203.256 183 203.481 182.818 203.769 182.662C204.058 182.503 204.439 182.424 204.913 182.424C205.529 182.424 206.079 182.579 206.563 182.891C207.047 183.203 207.427 183.652 207.702 184.238C207.98 184.825 208.119 185.531 208.119 186.356C208.119 187.181 207.982 187.889 207.707 188.479C207.432 189.066 207.054 189.518 206.573 189.836C206.093 190.151 205.544 190.309 204.928 190.309C204.464 190.309 204.084 190.231 203.789 190.075C203.498 189.919 203.269 189.737 203.103 189.528C202.937 189.319 202.81 189.134 202.72 188.971H202.631V193.023H201.144ZM202.601 186.341C202.601 186.878 202.679 187.349 202.835 187.753C202.99 188.158 203.216 188.474 203.511 188.703C203.806 188.928 204.167 189.041 204.595 189.041C205.039 189.041 205.41 188.923 205.708 188.688C206.007 188.449 206.232 188.126 206.384 187.718C206.54 187.311 206.618 186.852 206.618 186.341C206.618 185.837 206.542 185.385 206.389 184.984C206.24 184.583 206.015 184.266 205.713 184.034C205.415 183.802 205.042 183.686 204.595 183.686C204.164 183.686 203.799 183.797 203.501 184.02C203.206 184.242 202.982 184.551 202.83 184.949C202.677 185.347 202.601 185.811 202.601 186.341ZM209.785 190.159V182.523H211.222V183.736H211.301C211.44 183.325 211.686 183.002 212.037 182.767C212.392 182.528 212.793 182.409 213.24 182.409C213.333 182.409 213.442 182.412 213.568 182.419C213.698 182.425 213.799 182.434 213.872 182.444V183.865C213.812 183.849 213.706 183.831 213.553 183.811C213.401 183.788 213.248 183.776 213.096 183.776C212.745 183.776 212.431 183.85 212.156 184C211.885 184.145 211.669 184.349 211.51 184.611C211.351 184.87 211.271 185.165 211.271 185.496V190.159H209.785ZM218.101 190.314C217.385 190.314 216.76 190.149 216.227 189.821C215.693 189.493 215.279 189.034 214.984 188.444C214.689 187.854 214.542 187.165 214.542 186.376C214.542 185.584 214.689 184.891 214.984 184.298C215.279 183.705 215.693 183.244 216.227 182.916C216.76 182.588 217.385 182.424 218.101 182.424C218.817 182.424 219.442 182.588 219.975 182.916C220.509 183.244 220.923 183.705 221.218 184.298C221.513 184.891 221.661 185.584 221.661 186.376C221.661 187.165 221.513 187.854 221.218 188.444C220.923 189.034 220.509 189.493 219.975 189.821C219.442 190.149 218.817 190.314 218.101 190.314ZM218.106 189.066C218.57 189.066 218.955 188.943 219.26 188.698C219.564 188.453 219.79 188.126 219.936 187.718C220.085 187.311 220.159 186.862 220.159 186.371C220.159 185.884 220.085 185.436 219.936 185.029C219.79 184.618 219.564 184.288 219.26 184.039C218.955 183.791 218.57 183.667 218.106 183.667C217.639 183.667 217.251 183.791 216.943 184.039C216.638 184.288 216.411 184.618 216.262 185.029C216.116 185.436 216.043 185.884 216.043 186.371C216.043 186.862 216.116 187.311 216.262 187.718C216.411 188.126 216.638 188.453 216.943 188.698C217.251 188.943 217.639 189.066 218.106 189.066ZM226.179 190.309C225.562 190.309 225.012 190.151 224.528 189.836C224.048 189.518 223.67 189.066 223.395 188.479C223.123 187.889 222.987 187.181 222.987 186.356C222.987 185.531 223.125 184.825 223.4 184.238C223.678 183.652 224.059 183.203 224.543 182.891C225.027 182.579 225.576 182.424 226.189 182.424C226.663 182.424 227.044 182.503 227.332 182.662C227.624 182.818 227.849 183 228.008 183.209C228.171 183.418 228.297 183.602 228.386 183.761H228.476V179.978H229.962V190.159H228.51V188.971H228.386C228.297 189.134 228.167 189.319 227.998 189.528C227.833 189.737 227.604 189.919 227.312 190.075C227.021 190.231 226.643 190.309 226.179 190.309ZM226.507 189.041C226.934 189.041 227.296 188.928 227.591 188.703C227.889 188.474 228.114 188.158 228.267 187.753C228.423 187.349 228.5 186.878 228.5 186.341C228.5 185.811 228.424 185.347 228.272 184.949C228.119 184.551 227.896 184.242 227.601 184.02C227.306 183.797 226.941 183.686 226.507 183.686C226.059 183.686 225.687 183.802 225.388 184.034C225.09 184.266 224.865 184.583 224.712 184.984C224.563 185.385 224.488 185.837 224.488 186.341C224.488 186.852 224.565 187.311 224.717 187.718C224.87 188.126 225.095 188.449 225.393 188.688C225.695 188.923 226.066 189.041 226.507 189.041ZM236.921 186.993V182.523H238.413V190.159H236.951V188.837H236.871C236.696 189.245 236.414 189.584 236.026 189.856C235.642 190.125 235.163 190.259 234.589 190.259C234.099 190.259 233.665 190.151 233.287 189.936C232.912 189.717 232.617 189.394 232.402 188.966C232.19 188.539 232.084 188.01 232.084 187.38V182.523H233.57V187.201C233.57 187.722 233.714 188.136 234.003 188.444C234.291 188.752 234.666 188.907 235.126 188.907C235.405 188.907 235.682 188.837 235.957 188.698C236.235 188.559 236.465 188.348 236.648 188.066C236.833 187.785 236.924 187.427 236.921 186.993ZM243.627 190.314C242.887 190.314 242.251 190.146 241.717 189.811C241.187 189.473 240.779 189.008 240.494 188.414C240.209 187.821 240.067 187.142 240.067 186.376C240.067 185.6 240.213 184.916 240.504 184.323C240.796 183.726 241.207 183.261 241.737 182.926C242.268 182.591 242.892 182.424 243.612 182.424C244.192 182.424 244.709 182.531 245.163 182.747C245.617 182.959 245.983 183.257 246.261 183.642C246.543 184.026 246.711 184.475 246.764 184.989H245.317C245.237 184.631 245.055 184.323 244.77 184.064C244.488 183.806 244.11 183.676 243.636 183.676C243.222 183.676 242.859 183.786 242.548 184.005C242.239 184.22 241.999 184.528 241.827 184.929C241.654 185.327 241.568 185.798 241.568 186.341C241.568 186.898 241.653 187.379 241.822 187.783C241.991 188.187 242.23 188.501 242.538 188.723C242.849 188.945 243.216 189.056 243.636 189.056C243.918 189.056 244.173 189.004 244.402 188.902C244.634 188.796 244.828 188.645 244.984 188.449C245.143 188.254 245.254 188.018 245.317 187.743H246.764C246.711 188.237 246.55 188.678 246.281 189.066C246.013 189.453 245.653 189.758 245.203 189.98C244.755 190.203 244.23 190.314 243.627 190.314ZM251.918 182.523V183.716H247.747V182.523H251.918ZM248.865 180.694H250.352V187.917C250.352 188.206 250.395 188.423 250.481 188.569C250.567 188.711 250.678 188.809 250.814 188.862C250.953 188.912 251.104 188.936 251.267 188.936C251.386 188.936 251.49 188.928 251.58 188.912C251.669 188.895 251.739 188.882 251.789 188.872L252.057 190.1C251.971 190.133 251.848 190.166 251.689 190.199C251.53 190.236 251.331 190.256 251.093 190.259C250.702 190.265 250.337 190.196 249.999 190.05C249.661 189.904 249.387 189.679 249.179 189.374C248.97 189.069 248.865 188.686 248.865 188.225V180.694ZM259.162 184.387L257.814 184.626C257.758 184.454 257.668 184.29 257.546 184.134C257.426 183.978 257.264 183.85 257.059 183.751C256.853 183.652 256.596 183.602 256.288 183.602C255.867 183.602 255.516 183.696 255.234 183.885C254.952 184.071 254.811 184.311 254.811 184.606C254.811 184.861 254.906 185.067 255.095 185.223C255.284 185.378 255.589 185.506 256.01 185.605L257.223 185.884C257.925 186.046 258.449 186.296 258.794 186.635C259.138 186.973 259.311 187.412 259.311 187.952C259.311 188.409 259.178 188.817 258.913 189.175C258.651 189.53 258.285 189.808 257.814 190.01C257.347 190.212 256.805 190.314 256.189 190.314C255.333 190.314 254.636 190.131 254.095 189.767C253.555 189.399 253.224 188.877 253.101 188.201L254.538 187.982C254.627 188.356 254.811 188.64 255.09 188.832C255.368 189.021 255.731 189.115 256.179 189.115C256.666 189.115 257.055 189.014 257.347 188.812C257.639 188.607 257.784 188.356 257.784 188.061C257.784 187.823 257.695 187.622 257.516 187.46C257.34 187.297 257.07 187.175 256.706 187.092L255.413 186.809C254.7 186.646 254.173 186.388 253.832 186.033C253.494 185.678 253.325 185.229 253.325 184.686C253.325 184.235 253.451 183.841 253.703 183.502C253.955 183.164 254.303 182.901 254.747 182.712C255.191 182.52 255.7 182.424 256.273 182.424C257.098 182.424 257.748 182.603 258.222 182.961C258.696 183.315 259.009 183.791 259.162 184.387ZM264.823 179.5L261.542 191.691H260.214L263.496 179.5H264.823ZM268.944 190.309C268.328 190.309 267.778 190.151 267.294 189.836C266.813 189.518 266.435 189.066 266.16 188.479C265.889 187.889 265.753 187.181 265.753 186.356C265.753 185.531 265.89 184.825 266.165 184.238C266.444 183.652 266.825 183.203 267.309 182.891C267.793 182.579 268.341 182.424 268.954 182.424C269.428 182.424 269.809 182.503 270.098 182.662C270.389 182.818 270.615 183 270.774 183.209C270.936 183.418 271.062 183.602 271.152 183.761H271.241V179.978H272.728V190.159H271.276V188.971H271.152C271.062 189.134 270.933 189.319 270.764 189.528C270.598 189.737 270.37 189.919 270.078 190.075C269.786 190.231 269.408 190.309 268.944 190.309ZM269.273 189.041C269.7 189.041 270.061 188.928 270.356 188.703C270.655 188.474 270.88 188.158 271.032 187.753C271.188 187.349 271.266 186.878 271.266 186.341C271.266 185.811 271.19 185.347 271.037 184.949C270.885 184.551 270.661 184.242 270.366 184.02C270.071 183.797 269.707 183.686 269.273 183.686C268.825 183.686 268.452 183.802 268.154 184.034C267.856 184.266 267.63 184.583 267.478 184.984C267.329 185.385 267.254 185.837 267.254 186.341C267.254 186.852 267.33 187.311 267.483 187.718C267.635 188.126 267.861 188.449 268.159 188.688C268.46 188.923 268.832 189.041 269.273 189.041ZM278.141 190.314C277.388 190.314 276.74 190.153 276.197 189.831C275.656 189.506 275.239 189.051 274.944 188.464C274.652 187.874 274.506 187.183 274.506 186.391C274.506 185.609 274.652 184.919 274.944 184.323C275.239 183.726 275.65 183.261 276.177 182.926C276.707 182.591 277.327 182.424 278.036 182.424C278.467 182.424 278.885 182.495 279.289 182.637C279.693 182.78 280.056 183.004 280.378 183.309C280.699 183.613 280.953 184.01 281.138 184.497C281.324 184.981 281.417 185.569 281.417 186.262V186.789H275.347V185.675H279.96C279.96 185.284 279.881 184.938 279.722 184.636C279.562 184.331 279.339 184.091 279.05 183.915C278.765 183.739 278.431 183.652 278.046 183.652C277.629 183.652 277.264 183.754 276.952 183.96C276.644 184.162 276.405 184.427 276.236 184.755C276.071 185.08 275.988 185.433 275.988 185.814V186.684C275.988 187.195 276.077 187.629 276.256 187.987C276.439 188.345 276.692 188.618 277.017 188.807C277.342 188.993 277.721 189.086 278.155 189.086C278.437 189.086 278.694 189.046 278.926 188.966C279.158 188.883 279.359 188.761 279.528 188.598C279.697 188.436 279.826 188.235 279.915 187.997L281.322 188.25C281.21 188.665 281.008 189.028 280.716 189.339C280.428 189.647 280.065 189.888 279.627 190.06C279.193 190.229 278.697 190.314 278.141 190.314ZM286.631 182.523V183.716H282.46V182.523H286.631ZM283.578 180.694H285.065V187.917C285.065 188.206 285.108 188.423 285.194 188.569C285.28 188.711 285.391 188.809 285.527 188.862C285.666 188.912 285.817 188.936 285.98 188.936C286.099 188.936 286.203 188.928 286.293 188.912C286.382 188.895 286.452 188.882 286.502 188.872L286.77 190.1C286.684 190.133 286.561 190.166 286.402 190.199C286.243 190.236 286.044 190.256 285.806 190.259C285.414 190.265 285.05 190.196 284.712 190.05C284.374 189.904 284.1 189.679 283.891 189.374C283.683 189.069 283.578 188.686 283.578 188.225V180.694ZM290.497 190.328C290.014 190.328 289.576 190.239 289.185 190.06C288.794 189.878 288.484 189.614 288.255 189.27C288.03 188.925 287.917 188.502 287.917 188.002C287.917 187.571 288 187.216 288.166 186.938C288.332 186.659 288.555 186.439 288.837 186.277C289.119 186.114 289.434 185.992 289.782 185.909C290.13 185.826 290.484 185.763 290.845 185.72C291.303 185.667 291.674 185.624 291.959 185.591C292.244 185.554 292.451 185.496 292.581 185.417C292.71 185.337 292.774 185.208 292.774 185.029V184.994C292.774 184.56 292.652 184.223 292.407 183.985C292.165 183.746 291.803 183.627 291.323 183.627C290.822 183.627 290.428 183.738 290.14 183.96C289.854 184.179 289.657 184.422 289.548 184.691L288.151 184.372C288.317 183.908 288.559 183.534 288.877 183.249C289.198 182.961 289.568 182.752 289.985 182.622C290.403 182.49 290.842 182.424 291.303 182.424C291.608 182.424 291.931 182.46 292.272 182.533C292.617 182.603 292.939 182.732 293.237 182.921C293.538 183.11 293.785 183.38 293.978 183.731C294.17 184.079 294.266 184.532 294.266 185.088V190.159H292.814V189.115H292.755C292.658 189.308 292.514 189.497 292.322 189.682C292.13 189.868 291.883 190.022 291.581 190.145C291.28 190.267 290.918 190.328 290.497 190.328ZM290.821 189.135C291.232 189.135 291.583 189.054 291.875 188.892C292.17 188.729 292.393 188.517 292.546 188.255C292.702 187.99 292.779 187.707 292.779 187.405V186.421C292.726 186.474 292.624 186.524 292.471 186.57C292.322 186.613 292.151 186.651 291.959 186.684C291.767 186.714 291.58 186.742 291.397 186.769C291.215 186.792 291.063 186.812 290.94 186.828C290.652 186.865 290.388 186.926 290.149 187.012C289.914 187.099 289.725 187.223 289.583 187.385C289.443 187.544 289.374 187.756 289.374 188.022C289.374 188.39 289.51 188.668 289.782 188.857C290.053 189.042 290.4 189.135 290.821 189.135ZM296.246 190.159V182.523H297.732V190.159H296.246ZM296.997 181.345C296.738 181.345 296.516 181.259 296.33 181.086C296.148 180.911 296.057 180.702 296.057 180.46C296.057 180.215 296.148 180.006 296.33 179.833C296.516 179.658 296.738 179.57 296.997 179.57C297.255 179.57 297.476 179.658 297.658 179.833C297.843 180.006 297.936 180.215 297.936 180.46C297.936 180.702 297.843 180.911 297.658 181.086C297.476 181.259 297.255 181.345 296.997 181.345ZM301.219 179.978V190.159H299.732V179.978H301.219Z" fill="#1A1523"/>
<rect x="186.442" y="214.674" width="215.116" height="147.942" rx="6.63043" fill="#FDFCFD"/>
<rect x="186.442" y="214.674" width="215.116" height="147.942" rx="6.63043" stroke="#AA99EC" stroke-width="0.884058"/>
<path d="M216 257.409C214.895 257.409 214 258.305 214 259.409V265.547C214 266.652 214.895 267.547 216 267.547H279.368C280.473 267.547 281.368 266.652 281.368 265.547V259.409C281.368 258.305 280.473 257.409 279.368 257.409H216ZM214 285.824C214 286.928 214.895 287.824 216 287.824H279.368C280.473 287.824 281.368 286.928 281.368 285.824V279.686C281.368 278.581 280.473 277.686 279.368 277.686H216C214.895 277.686 214 278.581 214 279.686V285.824ZM214 306.1C214 307.205 214.895 308.1 216 308.1H279.368C280.473 308.1 281.368 307.205 281.368 306.1V299.962C281.368 298.858 280.473 297.962 279.368 297.962H216C214.895 297.962 214 298.858 214 299.962V306.1ZM214 326.377C214 327.481 214.895 328.377 216 328.377H279.368C280.473 328.377 281.368 327.481 281.368 326.377V320.239C281.368 319.134 280.473 318.239 279.368 318.239H216C214.895 318.239 214 319.134 214 320.239V326.377Z" fill="#C8C7CB"/>
<path d="M214 230.377C214 229.272 214.895 228.377 216 228.377H372C373.104 228.377 374 229.272 374 230.377V248.958C374 250.062 373.104 250.958 372 250.958H216C214.895 250.958 214 250.062 214 248.958V230.377Z" fill="#AA99EC"/>
<circle cx="362.5" cy="237.891" r="4.5" fill="#E54D2E"/>
<path d="M296 257.409C294.896 257.409 294 258.305 294 259.409V285.824C294 286.928 294.896 287.824 296 287.824H372C373.105 287.824 374 286.928 374 285.824V259.409C374 258.305 373.105 257.409 372 257.409H296ZM294 326.377C294 327.481 294.896 328.377 296 328.377H372C373.105 328.377 374 327.481 374 326.377V299.962C374 298.858 373.105 297.962 372 297.962H296C294.896 297.962 294 298.858 294 299.962V326.377Z" fill="#C8C7CB"/>
<path d="M297 257.409C295.343 257.409 294 258.752 294 260.409V284.824C294 286.481 295.343 287.824 297 287.824H371C372.657 287.824 374 286.481 374 284.824V260.409C374 258.752 372.657 257.409 371 257.409H297Z" fill="#C8C7CB"/>
<path d="M201.144 355.849V345.349H202.596V346.587H202.72C202.806 346.428 202.931 346.244 203.093 346.035C203.256 345.827 203.481 345.644 203.769 345.488C204.058 345.329 204.439 345.25 204.913 345.25C205.529 345.25 206.079 345.406 206.563 345.717C207.047 346.029 207.427 346.478 207.702 347.064C207.98 347.651 208.119 348.357 208.119 349.182C208.119 350.008 207.982 350.715 207.707 351.305C207.432 351.892 207.054 352.344 206.573 352.662C206.093 352.977 205.544 353.135 204.928 353.135C204.464 353.135 204.084 353.057 203.789 352.901C203.498 352.745 203.269 352.563 203.103 352.354C202.937 352.145 202.81 351.96 202.72 351.797H202.631V355.849H201.144ZM202.601 349.167C202.601 349.704 202.679 350.175 202.835 350.579C202.99 350.984 203.216 351.3 203.511 351.529C203.806 351.754 204.167 351.867 204.595 351.867C205.039 351.867 205.41 351.749 205.708 351.514C206.007 351.275 206.232 350.952 206.384 350.545C206.54 350.137 206.618 349.678 206.618 349.167C206.618 348.664 206.542 348.211 206.389 347.81C206.24 347.409 206.015 347.093 205.713 346.861C205.415 346.629 205.042 346.513 204.595 346.513C204.164 346.513 203.799 346.624 203.501 346.846C203.206 347.068 202.982 347.378 202.83 347.775C202.677 348.173 202.601 348.637 202.601 349.167ZM209.785 352.986V345.349H211.222V346.562H211.301C211.44 346.151 211.686 345.828 212.037 345.593C212.392 345.354 212.793 345.235 213.24 345.235C213.333 345.235 213.442 345.238 213.568 345.245C213.698 345.251 213.799 345.26 213.872 345.27V346.692C213.812 346.675 213.706 346.657 213.553 346.637C213.401 346.614 213.248 346.602 213.096 346.602C212.745 346.602 212.431 346.677 212.156 346.826C211.885 346.972 211.669 347.175 211.51 347.437C211.351 347.696 211.271 347.991 211.271 348.322V352.986H209.785ZM218.101 353.14C217.385 353.14 216.76 352.976 216.227 352.648C215.693 352.319 215.279 351.86 214.984 351.27C214.689 350.68 214.542 349.991 214.542 349.202C214.542 348.41 214.689 347.717 214.984 347.124C215.279 346.531 215.693 346.07 216.227 345.742C216.76 345.414 217.385 345.25 218.101 345.25C218.817 345.25 219.442 345.414 219.975 345.742C220.509 346.07 220.923 346.531 221.218 347.124C221.513 347.717 221.661 348.41 221.661 349.202C221.661 349.991 221.513 350.68 221.218 351.27C220.923 351.86 220.509 352.319 219.975 352.648C219.442 352.976 218.817 353.14 218.101 353.14ZM218.106 351.892C218.57 351.892 218.955 351.769 219.26 351.524C219.564 351.279 219.79 350.952 219.936 350.545C220.085 350.137 220.159 349.688 220.159 349.197C220.159 348.71 220.085 348.263 219.936 347.855C219.79 347.444 219.564 347.114 219.26 346.866C218.955 346.617 218.57 346.493 218.106 346.493C217.639 346.493 217.251 346.617 216.943 346.866C216.638 347.114 216.411 347.444 216.262 347.855C216.116 348.263 216.043 348.71 216.043 349.197C216.043 349.688 216.116 350.137 216.262 350.545C216.411 350.952 216.638 351.279 216.943 351.524C217.251 351.769 217.639 351.892 218.106 351.892ZM226.179 353.135C225.562 353.135 225.012 352.977 224.528 352.662C224.048 352.344 223.67 351.892 223.395 351.305C223.123 350.715 222.987 350.008 222.987 349.182C222.987 348.357 223.125 347.651 223.4 347.064C223.678 346.478 224.059 346.029 224.543 345.717C225.027 345.406 225.576 345.25 226.189 345.25C226.663 345.25 227.044 345.329 227.332 345.488C227.624 345.644 227.849 345.827 228.008 346.035C228.171 346.244 228.297 346.428 228.386 346.587H228.476V342.804H229.962V352.986H228.51V351.797H228.386C228.297 351.96 228.167 352.145 227.998 352.354C227.833 352.563 227.604 352.745 227.312 352.901C227.021 353.057 226.643 353.135 226.179 353.135ZM226.507 351.867C226.934 351.867 227.296 351.754 227.591 351.529C227.889 351.3 228.114 350.984 228.267 350.579C228.423 350.175 228.5 349.704 228.5 349.167C228.5 348.637 228.424 348.173 228.272 347.775C228.119 347.378 227.896 347.068 227.601 346.846C227.306 346.624 226.941 346.513 226.507 346.513C226.059 346.513 225.687 346.629 225.388 346.861C225.09 347.093 224.865 347.409 224.712 347.81C224.563 348.211 224.488 348.664 224.488 349.167C224.488 349.678 224.565 350.137 224.717 350.545C224.87 350.952 225.095 351.275 225.393 351.514C225.695 351.749 226.066 351.867 226.507 351.867ZM236.921 349.819V345.349H238.413V352.986H236.951V351.663H236.871C236.696 352.071 236.414 352.411 236.026 352.682C235.642 352.951 235.163 353.085 234.589 353.085C234.099 353.085 233.665 352.977 233.287 352.762C232.912 352.543 232.617 352.22 232.402 351.792C232.19 351.365 232.084 350.836 232.084 350.206V345.349H233.57V350.027C233.57 350.548 233.714 350.962 234.003 351.27C234.291 351.579 234.666 351.733 235.126 351.733C235.405 351.733 235.682 351.663 235.957 351.524C236.235 351.385 236.465 351.174 236.648 350.893C236.833 350.611 236.924 350.253 236.921 349.819ZM243.627 353.14C242.887 353.14 242.251 352.972 241.717 352.638C241.187 352.3 240.779 351.834 240.494 351.241C240.209 350.647 240.067 349.968 240.067 349.202C240.067 348.427 240.213 347.742 240.504 347.149C240.796 346.552 241.207 346.087 241.737 345.752C242.268 345.417 242.892 345.25 243.612 345.25C244.192 345.25 244.709 345.358 245.163 345.573C245.617 345.785 245.983 346.083 246.261 346.468C246.543 346.852 246.711 347.301 246.764 347.815H245.317C245.237 347.457 245.055 347.149 244.77 346.89C244.488 346.632 244.11 346.503 243.636 346.503C243.222 346.503 242.859 346.612 242.548 346.831C242.239 347.046 241.999 347.354 241.827 347.755C241.654 348.153 241.568 348.624 241.568 349.167C241.568 349.724 241.653 350.205 241.822 350.609C241.991 351.014 242.23 351.327 242.538 351.549C242.849 351.771 243.216 351.882 243.636 351.882C243.918 351.882 244.173 351.831 244.402 351.728C244.634 351.622 244.828 351.471 244.984 351.275C245.143 351.08 245.254 350.844 245.317 350.569H246.764C246.711 351.063 246.55 351.504 246.281 351.892C246.013 352.28 245.653 352.585 245.203 352.807C244.755 353.029 244.23 353.14 243.627 353.14ZM251.918 345.349V346.542H247.747V345.349H251.918ZM248.865 343.52H250.352V350.743C250.352 351.032 250.395 351.249 250.481 351.395C250.567 351.537 250.678 351.635 250.814 351.688C250.953 351.738 251.104 351.763 251.267 351.763C251.386 351.763 251.49 351.754 251.58 351.738C251.669 351.721 251.739 351.708 251.789 351.698L252.057 352.926C251.971 352.959 251.848 352.992 251.689 353.025C251.53 353.062 251.331 353.082 251.093 353.085C250.702 353.092 250.337 353.022 249.999 352.876C249.661 352.73 249.387 352.505 249.179 352.2C248.97 351.895 248.865 351.512 248.865 351.052V343.52ZM259.162 347.214L257.814 347.452C257.758 347.28 257.668 347.116 257.546 346.96C257.426 346.804 257.264 346.677 257.059 346.577C256.853 346.478 256.596 346.428 256.288 346.428C255.867 346.428 255.516 346.523 255.234 346.711C254.952 346.897 254.811 347.137 254.811 347.432C254.811 347.688 254.906 347.893 255.095 348.049C255.284 348.205 255.589 348.332 256.01 348.432L257.223 348.71C257.925 348.872 258.449 349.123 258.794 349.461C259.138 349.799 259.311 350.238 259.311 350.778C259.311 351.236 259.178 351.643 258.913 352.001C258.651 352.356 258.285 352.634 257.814 352.836C257.347 353.039 256.805 353.14 256.189 353.14C255.333 353.14 254.636 352.957 254.095 352.593C253.555 352.225 253.224 351.703 253.101 351.027L254.538 350.808C254.627 351.183 254.811 351.466 255.09 351.658C255.368 351.847 255.731 351.942 256.179 351.942C256.666 351.942 257.055 351.84 257.347 351.638C257.639 351.433 257.784 351.183 257.784 350.888C257.784 350.649 257.695 350.448 257.516 350.286C257.34 350.124 257.07 350.001 256.706 349.918L255.413 349.635C254.7 349.472 254.173 349.214 253.832 348.859C253.494 348.505 253.325 348.055 253.325 347.512C253.325 347.061 253.451 346.667 253.703 346.329C253.955 345.991 254.303 345.727 254.747 345.538C255.191 345.346 255.7 345.25 256.273 345.25C257.098 345.25 257.748 345.429 258.222 345.787C258.696 346.141 259.009 346.617 259.162 347.214ZM264.823 342.327L261.542 354.517H260.214L263.496 342.327H264.823ZM267.572 342.804V352.986H266.086V342.804H267.572ZM269.572 352.986V345.349H271.059V352.986H269.572ZM270.323 344.171C270.064 344.171 269.842 344.085 269.657 343.912C269.474 343.737 269.383 343.528 269.383 343.286C269.383 343.041 269.474 342.832 269.657 342.66C269.842 342.484 270.064 342.396 270.323 342.396C270.581 342.396 270.802 342.484 270.984 342.66C271.17 342.832 271.262 343.041 271.262 343.286C271.262 343.528 271.17 343.737 270.984 343.912C270.802 344.085 270.581 344.171 270.323 344.171ZM278.781 347.214L277.433 347.452C277.377 347.28 277.288 347.116 277.165 346.96C277.046 346.804 276.883 346.677 276.678 346.577C276.472 346.478 276.215 346.428 275.907 346.428C275.486 346.428 275.135 346.523 274.853 346.711C274.571 346.897 274.431 347.137 274.431 347.432C274.431 347.688 274.525 347.893 274.714 348.049C274.903 348.205 275.208 348.332 275.629 348.432L276.842 348.71C277.544 348.872 278.068 349.123 278.413 349.461C278.757 349.799 278.93 350.238 278.93 350.778C278.93 351.236 278.797 351.643 278.532 352.001C278.27 352.356 277.904 352.634 277.433 352.836C276.966 353.039 276.424 353.14 275.808 353.14C274.953 353.14 274.255 352.957 273.715 352.593C273.174 352.225 272.843 351.703 272.72 351.027L274.157 350.808C274.247 351.183 274.431 351.466 274.709 351.658C274.987 351.847 275.35 351.942 275.798 351.942C276.285 351.942 276.674 351.84 276.966 351.638C277.258 351.433 277.404 351.183 277.404 350.888C277.404 350.649 277.314 350.448 277.135 350.286C276.959 350.124 276.689 350.001 276.325 349.918L275.032 349.635C274.319 349.472 273.793 349.214 273.451 348.859C273.113 348.505 272.944 348.055 272.944 347.512C272.944 347.061 273.07 346.667 273.322 346.329C273.574 345.991 273.922 345.727 274.366 345.538C274.81 345.346 275.319 345.25 275.892 345.25C276.717 345.25 277.367 345.429 277.841 345.787C278.315 346.141 278.628 346.617 278.781 347.214ZM284.129 345.349V346.542H279.958V345.349H284.129ZM281.076 343.52H282.563V350.743C282.563 351.032 282.606 351.249 282.692 351.395C282.778 351.537 282.889 351.635 283.025 351.688C283.164 351.738 283.315 351.763 283.478 351.763C283.597 351.763 283.701 351.754 283.791 351.738C283.88 351.721 283.95 351.708 284 351.698L284.268 352.926C284.182 352.959 284.059 352.992 283.9 353.025C283.741 353.062 283.542 353.082 283.304 353.085C282.912 353.092 282.548 353.022 282.21 352.876C281.872 352.73 281.598 352.505 281.39 352.2C281.181 351.895 281.076 351.512 281.076 351.052V343.52Z" fill="#1A1523"/>
<rect x="186.442" y="377.5" width="215.116" height="147.942" rx="6.63043" fill="#FDFCFD"/>
<rect x="186.442" y="377.5" width="215.116" height="147.942" rx="6.63043" stroke="#AA99EC" stroke-width="0.884058"/>
<path d="M216 420.235C214.895 420.235 214 421.131 214 422.235V428.374C214 429.478 214.895 430.374 216 430.374H279.368C280.473 430.374 281.368 429.478 281.368 428.374V422.235C281.368 421.131 280.473 420.235 279.368 420.235H216ZM214 448.65C214 449.755 214.895 450.65 216 450.65H279.368C280.473 450.65 281.368 449.755 281.368 448.65V442.512C281.368 441.407 280.473 440.512 279.368 440.512H216C214.895 440.512 214 441.407 214 442.512V448.65ZM214 468.927C214 470.031 214.895 470.927 216 470.927H279.368C280.473 470.927 281.368 470.031 281.368 468.927V462.788C281.368 461.684 280.473 460.788 279.368 460.788H216C214.895 460.788 214 461.684 214 462.788V468.927ZM214 489.203C214 490.308 214.895 491.203 216 491.203H279.368C280.473 491.203 281.368 490.308 281.368 489.203V483.065C281.368 481.96 280.473 481.065 279.368 481.065H216C214.895 481.065 214 481.96 214 483.065V489.203Z" fill="#C8C7CB"/>
<path d="M214 393.203C214 392.099 214.895 391.203 216 391.203H372C373.104 391.203 374 392.099 374 393.203V411.784C374 412.888 373.104 413.784 372 413.784H216C214.895 413.784 214 412.888 214 411.784V393.203Z" fill="#AA99EC"/>
<circle cx="362.5" cy="400.892" r="4.5" fill="#E54D2E"/>
<path d="M296 420.235C294.896 420.235 294 421.131 294 422.235V448.65C294 449.755 294.896 450.65 296 450.65H372C373.105 450.65 374 449.755 374 448.65V422.235C374 421.131 373.105 420.235 372 420.235H296ZM294 489.203C294 490.308 294.896 491.203 296 491.203H372C373.105 491.203 374 490.308 374 489.203V462.788C374 461.684 373.105 460.788 372 460.788H296C294.896 460.788 294 461.684 294 462.788V489.203Z" fill="#C8C7CB"/>
<path d="M297 420.235C295.343 420.235 294 421.578 294 423.235V447.65C294 449.307 295.343 450.65 297 450.65H371C372.657 450.65 374 449.307 374 447.65V423.235C374 421.578 372.657 420.235 371 420.235H297Z" fill="#C8C7CB"/>
</g>
<rect x="596.5" y="216.5" width="182" height="39" rx="3.5" fill="#FDFCFD"/>
<rect x="596.5" y="216.5" width="182" height="39" rx="3.5" stroke="#E4E2E4"/>
<path d="M628 240C625 240 623 238 620 238C618.524 238.001 617.1 238.545 616 239.528M614 226L634 246M616 246V228M619.656 226H620C623 226 625 228 627.333 228C628.666 228 629.689 227.734 630.4 227.2C630.549 227.089 630.725 227.021 630.91 227.005C631.095 226.988 631.281 227.023 631.447 227.106C631.613 227.189 631.753 227.317 631.851 227.475C631.948 227.633 632 227.815 632 228V238.347" stroke="#6F6E77" stroke-linecap="round" stroke-linejoin="round"/>
<path d="M647.034 229.864V241.5H645.278V229.864H647.034ZM653.114 244.955C652.42 244.955 651.824 244.864 651.324 244.682C650.828 244.5 650.422 244.259 650.108 243.96C649.794 243.661 649.559 243.333 649.403 242.977L650.864 242.375C650.966 242.542 651.102 242.718 651.273 242.903C651.447 243.093 651.682 243.254 651.977 243.386C652.277 243.519 652.661 243.585 653.131 243.585C653.775 243.585 654.307 243.428 654.727 243.114C655.148 242.803 655.358 242.307 655.358 241.625V239.909H655.25C655.148 240.095 655 240.301 654.807 240.528C654.617 240.756 654.356 240.953 654.023 241.119C653.689 241.286 653.256 241.369 652.722 241.369C652.032 241.369 651.411 241.208 650.858 240.886C650.309 240.561 649.873 240.081 649.551 239.449C649.233 238.812 649.074 238.03 649.074 237.102C649.074 236.174 649.231 235.379 649.545 234.716C649.864 234.053 650.299 233.545 650.852 233.193C651.405 232.837 652.032 232.659 652.733 232.659C653.275 232.659 653.712 232.75 654.045 232.932C654.379 233.11 654.638 233.318 654.824 233.557C655.013 233.795 655.159 234.006 655.261 234.188H655.386V232.773H657.051V241.693C657.051 242.443 656.877 243.059 656.528 243.54C656.18 244.021 655.708 244.377 655.114 244.608C654.523 244.839 653.856 244.955 653.114 244.955ZM653.097 239.96C653.585 239.96 653.998 239.847 654.335 239.619C654.676 239.388 654.934 239.059 655.108 238.631C655.286 238.199 655.375 237.682 655.375 237.08C655.375 236.492 655.288 235.975 655.114 235.528C654.939 235.081 654.684 234.733 654.347 234.483C654.009 234.229 653.593 234.102 653.097 234.102C652.585 234.102 652.159 234.235 651.818 234.5C651.477 234.761 651.22 235.117 651.045 235.568C650.875 236.019 650.79 236.523 650.79 237.08C650.79 237.652 650.877 238.153 651.051 238.585C651.225 239.017 651.483 239.354 651.824 239.597C652.169 239.839 652.593 239.96 653.097 239.96ZM661.028 236.318V241.5H659.33V232.773H660.96V234.193H661.068C661.269 233.731 661.583 233.36 662.011 233.08C662.443 232.799 662.987 232.659 663.642 232.659C664.237 232.659 664.758 232.784 665.205 233.034C665.652 233.28 665.998 233.648 666.244 234.136C666.491 234.625 666.614 235.229 666.614 235.949V241.5H664.915V236.153C664.915 235.521 664.75 235.027 664.42 234.67C664.091 234.311 663.638 234.131 663.062 234.131C662.669 234.131 662.318 234.216 662.011 234.386C661.708 234.557 661.468 234.807 661.29 235.136C661.116 235.462 661.028 235.856 661.028 236.318ZM672.568 241.676C671.75 241.676 671.036 241.489 670.426 241.114C669.816 240.739 669.343 240.214 669.006 239.54C668.669 238.866 668.5 238.078 668.5 237.176C668.5 236.271 668.669 235.479 669.006 234.801C669.343 234.123 669.816 233.597 670.426 233.222C671.036 232.847 671.75 232.659 672.568 232.659C673.386 232.659 674.1 232.847 674.71 233.222C675.32 233.597 675.794 234.123 676.131 234.801C676.468 235.479 676.636 236.271 676.636 237.176C676.636 238.078 676.468 238.866 676.131 239.54C675.794 240.214 675.32 240.739 674.71 241.114C674.1 241.489 673.386 241.676 672.568 241.676ZM672.574 240.25C673.104 240.25 673.544 240.11 673.892 239.83C674.241 239.549 674.498 239.176 674.665 238.71C674.835 238.244 674.92 237.731 674.92 237.17C674.92 236.614 674.835 236.102 674.665 235.636C674.498 235.167 674.241 234.79 673.892 234.506C673.544 234.222 673.104 234.08 672.574 234.08C672.04 234.08 671.597 234.222 671.244 234.506C670.896 234.79 670.636 235.167 670.466 235.636C670.299 236.102 670.216 236.614 670.216 237.17C670.216 237.731 670.299 238.244 670.466 238.71C670.636 239.176 670.896 239.549 671.244 239.83C671.597 240.11 672.04 240.25 672.574 240.25ZM678.533 241.5V232.773H680.175V234.159H680.266C680.425 233.689 680.705 233.32 681.107 233.051C681.512 232.778 681.97 232.642 682.482 232.642C682.588 232.642 682.713 232.646 682.857 232.653C683.004 232.661 683.12 232.67 683.203 232.682V234.307C683.135 234.288 683.014 234.267 682.839 234.244C682.665 234.218 682.491 234.205 682.317 234.205C681.915 234.205 681.557 234.29 681.243 234.46C680.932 234.627 680.686 234.86 680.504 235.159C680.322 235.455 680.232 235.792 680.232 236.17V241.5H678.533ZM688.122 241.676C687.262 241.676 686.522 241.492 685.901 241.125C685.283 240.754 684.806 240.233 684.469 239.562C684.135 238.888 683.969 238.098 683.969 237.193C683.969 236.299 684.135 235.511 684.469 234.83C684.806 234.148 685.276 233.616 685.878 233.233C686.484 232.85 687.192 232.659 688.003 232.659C688.495 232.659 688.973 232.741 689.435 232.903C689.897 233.066 690.312 233.322 690.679 233.67C691.046 234.019 691.336 234.472 691.548 235.028C691.76 235.581 691.866 236.254 691.866 237.045V237.648H684.929V236.375H690.202C690.202 235.928 690.111 235.532 689.929 235.188C689.747 234.839 689.491 234.564 689.162 234.364C688.836 234.163 688.454 234.062 688.014 234.062C687.537 234.062 687.12 234.18 686.764 234.415C686.412 234.646 686.139 234.949 685.946 235.324C685.757 235.695 685.662 236.098 685.662 236.534V237.528C685.662 238.112 685.764 238.608 685.969 239.017C686.177 239.426 686.467 239.739 686.838 239.955C687.209 240.167 687.643 240.273 688.139 240.273C688.461 240.273 688.755 240.227 689.02 240.136C689.285 240.042 689.514 239.902 689.707 239.716C689.901 239.53 690.048 239.301 690.151 239.028L691.759 239.318C691.63 239.792 691.399 240.206 691.065 240.562C690.736 240.915 690.321 241.189 689.821 241.386C689.325 241.58 688.759 241.676 688.122 241.676ZM701.662 241.676C700.817 241.676 700.09 241.485 699.48 241.102C698.874 240.716 698.408 240.184 698.082 239.506C697.757 238.828 697.594 238.051 697.594 237.176C697.594 236.29 697.76 235.508 698.094 234.83C698.427 234.148 698.897 233.616 699.503 233.233C700.109 232.85 700.823 232.659 701.645 232.659C702.308 232.659 702.899 232.782 703.418 233.028C703.937 233.271 704.355 233.612 704.673 234.051C704.995 234.491 705.187 235.004 705.247 235.591H703.594C703.503 235.182 703.295 234.83 702.969 234.534C702.647 234.239 702.215 234.091 701.673 234.091C701.2 234.091 700.785 234.216 700.429 234.466C700.077 234.712 699.802 235.064 699.605 235.523C699.408 235.977 699.31 236.515 699.31 237.136C699.31 237.773 699.406 238.322 699.599 238.784C699.793 239.246 700.065 239.604 700.418 239.858C700.774 240.112 701.192 240.239 701.673 240.239C701.995 240.239 702.287 240.18 702.548 240.062C702.813 239.941 703.035 239.769 703.213 239.545C703.395 239.322 703.522 239.053 703.594 238.739H705.247C705.187 239.303 705.003 239.807 704.696 240.25C704.389 240.693 703.978 241.042 703.463 241.295C702.952 241.549 702.351 241.676 701.662 241.676ZM708.763 236.318V241.5H707.064V229.864H708.74V234.193H708.848C709.053 233.723 709.365 233.35 709.786 233.074C710.206 232.797 710.755 232.659 711.433 232.659C712.032 232.659 712.554 232.782 713.001 233.028C713.452 233.275 713.801 233.642 714.047 234.131C714.297 234.616 714.422 235.222 714.422 235.949V241.5H712.723V236.153C712.723 235.513 712.558 235.017 712.229 234.665C711.899 234.309 711.441 234.131 710.854 234.131C710.452 234.131 710.092 234.216 709.774 234.386C709.46 234.557 709.212 234.807 709.03 235.136C708.852 235.462 708.763 235.856 708.763 236.318ZM719.229 241.693C718.676 241.693 718.176 241.591 717.729 241.386C717.282 241.178 716.928 240.877 716.666 240.483C716.409 240.089 716.28 239.606 716.28 239.034C716.28 238.542 716.375 238.136 716.564 237.818C716.753 237.5 717.009 237.248 717.331 237.062C717.653 236.877 718.013 236.737 718.411 236.642C718.808 236.547 719.214 236.475 719.626 236.426C720.149 236.366 720.573 236.316 720.899 236.278C721.225 236.237 721.462 236.17 721.609 236.08C721.757 235.989 721.831 235.841 721.831 235.636V235.597C721.831 235.1 721.691 234.716 721.411 234.443C721.134 234.17 720.721 234.034 720.172 234.034C719.6 234.034 719.149 234.161 718.82 234.415C718.494 234.665 718.268 234.943 718.143 235.25L716.547 234.886C716.736 234.356 717.013 233.928 717.376 233.602C717.744 233.273 718.166 233.034 718.643 232.886C719.121 232.735 719.623 232.659 720.149 232.659C720.498 232.659 720.867 232.701 721.257 232.784C721.651 232.864 722.018 233.011 722.359 233.227C722.704 233.443 722.986 233.752 723.206 234.153C723.426 234.551 723.536 235.068 723.536 235.705V241.5H721.876V240.307H721.808C721.698 240.527 721.534 240.742 721.314 240.955C721.094 241.167 720.812 241.343 720.467 241.483C720.123 241.623 719.71 241.693 719.229 241.693ZM719.598 240.33C720.068 240.33 720.469 240.237 720.803 240.051C721.14 239.866 721.395 239.623 721.57 239.324C721.748 239.021 721.837 238.697 721.837 238.352V237.227C721.776 237.288 721.659 237.345 721.484 237.398C721.314 237.447 721.119 237.491 720.899 237.528C720.679 237.562 720.465 237.595 720.257 237.625C720.049 237.652 719.875 237.674 719.734 237.693C719.405 237.735 719.104 237.805 718.831 237.903C718.562 238.002 718.346 238.144 718.183 238.33C718.024 238.511 717.945 238.754 717.945 239.057C717.945 239.477 718.1 239.795 718.411 240.011C718.721 240.223 719.117 240.33 719.598 240.33ZM727.497 236.318V241.5H725.798V232.773H727.429V234.193H727.537C727.738 233.731 728.052 233.36 728.48 233.08C728.912 232.799 729.455 232.659 730.111 232.659C730.705 232.659 731.226 232.784 731.673 233.034C732.12 233.28 732.467 233.648 732.713 234.136C732.959 234.625 733.082 235.229 733.082 235.949V241.5H731.384V236.153C731.384 235.521 731.219 235.027 730.889 234.67C730.56 234.311 730.107 234.131 729.531 234.131C729.137 234.131 728.787 234.216 728.48 234.386C728.177 234.557 727.937 234.807 727.759 235.136C727.584 235.462 727.497 235.856 727.497 236.318ZM739.02 244.955C738.327 244.955 737.73 244.864 737.23 244.682C736.734 244.5 736.329 244.259 736.014 243.96C735.7 243.661 735.465 243.333 735.31 242.977L736.77 242.375C736.872 242.542 737.009 242.718 737.179 242.903C737.353 243.093 737.588 243.254 737.884 243.386C738.183 243.519 738.567 243.585 739.037 243.585C739.681 243.585 740.213 243.428 740.634 243.114C741.054 242.803 741.264 242.307 741.264 241.625V239.909H741.156C741.054 240.095 740.906 240.301 740.713 240.528C740.524 240.756 740.262 240.953 739.929 241.119C739.596 241.286 739.162 241.369 738.628 241.369C737.938 241.369 737.317 241.208 736.764 240.886C736.215 240.561 735.779 240.081 735.457 239.449C735.139 238.812 734.98 238.03 734.98 237.102C734.98 236.174 735.137 235.379 735.452 234.716C735.77 234.053 736.205 233.545 736.759 233.193C737.312 232.837 737.938 232.659 738.639 232.659C739.181 232.659 739.618 232.75 739.952 232.932C740.285 233.11 740.545 233.318 740.73 233.557C740.92 233.795 741.065 234.006 741.168 234.188H741.293V232.773H742.957V241.693C742.957 242.443 742.783 243.059 742.435 243.54C742.086 244.021 741.615 244.377 741.02 244.608C740.429 244.839 739.762 244.955 739.02 244.955ZM739.003 239.96C739.491 239.96 739.904 239.847 740.241 239.619C740.582 239.388 740.84 239.059 741.014 238.631C741.192 238.199 741.281 237.682 741.281 237.08C741.281 236.492 741.194 235.975 741.02 235.528C740.846 235.081 740.59 234.733 740.253 234.483C739.916 234.229 739.499 234.102 739.003 234.102C738.491 234.102 738.065 234.235 737.724 234.5C737.384 234.761 737.126 235.117 736.952 235.568C736.781 236.019 736.696 236.523 736.696 237.08C736.696 237.652 736.783 238.153 736.957 238.585C737.132 239.017 737.389 239.354 737.73 239.597C738.075 239.839 738.499 239.96 739.003 239.96ZM748.997 241.676C748.137 241.676 747.397 241.492 746.776 241.125C746.158 240.754 745.681 240.233 745.344 239.562C745.01 238.888 744.844 238.098 744.844 237.193C744.844 236.299 745.01 235.511 745.344 234.83C745.681 234.148 746.151 233.616 746.753 233.233C747.359 232.85 748.067 232.659 748.878 232.659C749.37 232.659 749.848 232.741 750.31 232.903C750.772 233.066 751.187 233.322 751.554 233.67C751.921 234.019 752.211 234.472 752.423 235.028C752.635 235.581 752.741 236.254 752.741 237.045V237.648H745.804V236.375H751.077C751.077 235.928 750.986 235.532 750.804 235.188C750.622 234.839 750.366 234.564 750.037 234.364C749.711 234.163 749.329 234.062 748.889 234.062C748.412 234.062 747.995 234.18 747.639 234.415C747.287 234.646 747.014 234.949 746.821 235.324C746.632 235.695 746.537 236.098 746.537 236.534V237.528C746.537 238.112 746.639 238.608 746.844 239.017C747.052 239.426 747.342 239.739 747.713 239.955C748.084 240.167 748.518 240.273 749.014 240.273C749.336 240.273 749.63 240.227 749.895 240.136C750.16 240.042 750.389 239.902 750.582 239.716C750.776 239.53 750.923 239.301 751.026 239.028L752.634 239.318C752.505 239.792 752.274 240.206 751.94 240.562C751.611 240.915 751.196 241.189 750.696 241.386C750.2 241.58 749.634 241.676 748.997 241.676ZM761.166 234.903L759.626 235.176C759.562 234.979 759.46 234.792 759.32 234.614C759.183 234.436 758.998 234.29 758.763 234.176C758.528 234.062 758.234 234.006 757.882 234.006C757.401 234.006 757 234.114 756.678 234.33C756.356 234.542 756.195 234.816 756.195 235.153C756.195 235.445 756.303 235.68 756.518 235.858C756.734 236.036 757.083 236.182 757.564 236.295L758.95 236.614C759.753 236.799 760.352 237.085 760.746 237.472C761.14 237.858 761.337 238.36 761.337 238.977C761.337 239.5 761.185 239.966 760.882 240.375C760.583 240.78 760.164 241.098 759.626 241.33C759.092 241.561 758.473 241.676 757.768 241.676C756.791 241.676 755.994 241.468 755.376 241.051C754.759 240.631 754.38 240.034 754.24 239.261L755.882 239.011C755.984 239.439 756.195 239.763 756.513 239.983C756.831 240.199 757.246 240.307 757.757 240.307C758.314 240.307 758.759 240.191 759.092 239.96C759.426 239.725 759.592 239.439 759.592 239.102C759.592 238.83 759.49 238.6 759.286 238.415C759.085 238.229 758.776 238.089 758.359 237.994L756.882 237.67C756.068 237.485 755.465 237.189 755.075 236.784C754.689 236.379 754.496 235.866 754.496 235.244C754.496 234.729 754.64 234.278 754.928 233.892C755.215 233.506 755.613 233.205 756.121 232.989C756.628 232.769 757.21 232.659 757.865 232.659C758.808 232.659 759.551 232.864 760.092 233.273C760.634 233.678 760.992 234.222 761.166 234.903Z" fill="#1A1523"/>
<path d="M690 35.5H690.5V35H690V35.5ZM419 35.5L424 38.3868V32.6132L419 35.5ZM421.989 35.5V36H423.982V35.5V35H421.989V35.5ZM425.974 35.5V36H427.967V35.5V35H425.974V35.5ZM429.96 35.5V36H431.952V35.5V35H429.96V35.5ZM433.945 35.5V36H435.938V35.5V35H433.945V35.5ZM437.93 35.5V36H439.923V35.5V35H437.93V35.5ZM441.915 35.5V36H443.908V35.5V35H441.915V35.5ZM445.901 35.5V36H447.893V35.5V35H445.901V35.5ZM449.886 35.5V36H451.879V35.5V35H449.886V35.5ZM453.871 35.5V36H455.864V35.5V35H453.871V35.5ZM457.857 35.5V36H459.849V35.5V35H457.857V35.5ZM461.842 35.5V36H463.835V35.5V35H461.842V35.5ZM465.827 35.5V36H467.82V35.5V35H465.827V35.5ZM469.812 35.5V36H471.805V35.5V35H469.812V35.5ZM473.798 35.5V36H475.79V35.5V35H473.798V35.5ZM477.783 35.5V36H479.776V35.5V35H477.783V35.5ZM481.768 35.5V36H483.761V35.5V35H481.768V35.5ZM485.754 35.5V36H487.746V35.5V35H485.754V35.5ZM489.739 35.5V36H491.732V35.5V35H489.739V35.5ZM493.724 35.5V36H495.717V35.5V35H493.724V35.5ZM497.71 35.5V36H499.702V35.5V35H497.71V35.5ZM501.695 35.5V36H503.687V35.5V35H501.695V35.5ZM505.68 35.5V36H507.673V35.5V35H505.68V35.5ZM509.665 35.5V36H511.658V35.5V35H509.665V35.5ZM513.651 35.5V36H515.643V35.5V35H513.651V35.5ZM517.636 35.5V36H519.629V35.5V35H517.636V35.5ZM521.621 35.5V36H523.614V35.5V35H521.621V35.5ZM525.607 35.5V36H527.599V35.5V35H525.607V35.5ZM529.592 35.5V36H531.584V35.5V35H529.592V35.5ZM533.577 35.5V36H535.57V35.5V35H533.577V35.5ZM537.562 35.5V36H539.555V35.5V35H537.562V35.5ZM541.548 35.5V36H543.54V35.5V35H541.548V35.5ZM545.533 35.5V36H547.526V35.5V35H545.533V35.5ZM549.518 35.5V36H551.511V35.5V35H549.518V35.5ZM553.504 35.5V36H555.496V35.5V35H553.504V35.5ZM557.489 35.5V36H559.482V35.5V35H557.489V35.5ZM561.474 35.5V36H563.467V35.5V35H561.474V35.5ZM565.459 35.5V36H567.452V35.5V35H565.459V35.5ZM569.445 35.5V36H571.437V35.5V35H569.445V35.5ZM573.43 35.5V36H575.423V35.5V35H573.43V35.5ZM577.415 35.5V36H579.408V35.5V35H577.415V35.5ZM581.401 35.5V36H583.393V35.5V35H581.401V35.5ZM585.386 35.5V36H587.379V35.5V35H585.386V35.5ZM589.371 35.5V36H591.364V35.5V35H589.371V35.5ZM593.356 35.5V36H595.349V35.5V35H593.356V35.5ZM597.342 35.5V36H599.334V35.5V35H597.342V35.5ZM601.327 35.5V36H603.32V35.5V35H601.327V35.5ZM605.312 35.5V36H607.305V35.5V35H605.312V35.5ZM609.298 35.5V36H611.29V35.5V35H609.298V35.5ZM613.283 35.5V36H615.276V35.5V35H613.283V35.5ZM617.268 35.5V36H619.261V35.5V35H617.268V35.5ZM621.254 35.5V36H623.246V35.5V35H621.254V35.5ZM625.239 35.5V36H627.231V35.5V35H625.239V35.5ZM629.224 35.5V36H631.217V35.5V35H629.224V35.5ZM633.209 35.5V36H635.202V35.5V35H633.209V35.5ZM637.195 35.5V36H639.187V35.5V35H637.195V35.5ZM641.18 35.5V36H643.173V35.5V35H641.18V35.5ZM645.165 35.5V36H647.158V35.5V35H645.165V35.5ZM649.151 35.5V36H651.143V35.5V35H649.151V35.5ZM653.136 35.5V36H655.128V35.5V35H653.136V35.5ZM657.121 35.5V36H659.114V35.5V35H657.121V35.5ZM661.106 35.5V36H663.099V35.5V35H661.106V35.5ZM665.092 35.5V36H667.084V35.5V35H665.092V35.5ZM669.077 35.5V36H671.07V35.5V35H669.077V35.5ZM673.062 35.5V36H675.055V35.5V35H673.062V35.5ZM677.048 35.5V36H679.04V35.5V35H677.048V35.5ZM681.033 35.5V36H683.026V35.5V35H681.033V35.5ZM685.018 35.5V36H687.011V35.5V35H685.018V35.5ZM689.003 35.5V36H690V35.5V35H689.003V35.5ZM690 35.5H689.5V36.5028H690H690.5V35.5H690ZM690 38.5083H689.5V40.5139H690H690.5V38.5083H690ZM690 42.5194H689.5V44.525H690H690.5V42.5194H690ZM690 46.5306H689.5V48.5361H690H690.5V46.5306H690ZM690 50.5417H689.5V52.5472H690H690.5V50.5417H690ZM690 54.5528H689.5V56.5583H690H690.5V54.5528H690ZM690 58.5639H689.5V60.5694H690H690.5V58.5639H690ZM690 62.575H689.5V64.5806H690H690.5V62.575H690ZM690 66.5861H689.5V68.5917H690H690.5V66.5861H690ZM690 70.5972H689.5V72.6028H690H690.5V70.5972H690ZM690 74.6083H689.5V76.6139H690H690.5V74.6083H690ZM690 78.6194H689.5V80.625H690H690.5V78.6194H690ZM690 82.6306H689.5V84.6361H690H690.5V82.6306H690ZM690 86.6417H689.5V88.6472H690H690.5V86.6417H690ZM690 90.6528H689.5V92.6583H690H690.5V90.6528H690ZM690 94.6639H689.5V96.6694H690H690.5V94.6639H690ZM690 98.675H689.5V100.681H690H690.5V98.675H690ZM690 102.686H689.5V104.692H690H690.5V102.686H690ZM690 106.697H689.5V108.703H690H690.5V106.697H690ZM690 110.708H689.5V112.714H690H690.5V110.708H690ZM690 114.719H689.5V116.725H690H690.5V114.719H690ZM690 118.731H689.5V120.736H690H690.5V118.731H690ZM690 122.742H689.5V124.747H690H690.5V122.742H690ZM690 126.753H689.5V128.758H690H690.5V126.753H690ZM690 130.764H689.5V132.769H690H690.5V130.764H690ZM690 134.775H689.5V136.781H690H690.5V134.775H690ZM690 138.786H689.5V140.792H690H690.5V138.786H690ZM690 142.797H689.5V144.803H690H690.5V142.797H690ZM690 146.808H689.5V148.814H690H690.5V146.808H690ZM690 150.819H689.5V152.825H690H690.5V150.819H690ZM690 154.831H689.5V156.836H690H690.5V154.831H690ZM690 158.842H689.5V160.847H690H690.5V158.842H690ZM690 162.853H689.5V164.858H690H690.5V162.853H690ZM690 166.864H689.5V168.869H690H690.5V166.864H690ZM690 170.875H689.5V172.88H690H690.5V170.875H690ZM690 174.886H689.5V176.892H690H690.5V174.886H690ZM690 178.897H689.5V180.903H690H690.5V178.897H690ZM690 182.908H689.5V184.914H690H690.5V182.908H690ZM690 186.919H689.5V188.925H690H690.5V186.919H690ZM690 190.93H689.5V192.936H690H690.5V190.93H690ZM690 194.942H689.5V196.947H690H690.5V194.942H690ZM690 198.953H689.5V200.958H690H690.5V198.953H690ZM690 202.964H689.5V204.969H690H690.5V202.964H690ZM690 206.975H689.5V208.98H690H690.5V206.975H690ZM690 210.986H689.5V212.992H690H690.5V210.986H690ZM690 214.997H689.5V216H690H690.5V214.997H690Z" fill="#6E56CF"/>
<defs>
<linearGradient id="paint0_linear_206_1285" x1="294" y1="0" x2="294" y2="472" gradientUnits="userSpaceOnUse">
<stop stop-color="white"/>
<stop offset="0.653846" stop-color="white"/>
<stop offset="0.971154" stop-opacity="0"/>
</linearGradient>
</defs>
</svg>
