<svg height="800" preserveAspectRatio="xMidYMid" viewBox="0 -205.5 512 512" width="800" xmlns="http://www.w3.org/2000/svg"><path d="m392.072653 34.3171282c9.89986 0 17.349519 5.4505921 17.349519 17.317296v23.7274406h-9.898666l.291207-5.7394126c-2.944298 4.3048578-6.862471 6.5999068-12.939636 6.5999068-8.135907 0-14.806229-3.7296038-14.806229-12.7236177 0-8.3292495 6.864858-11.9586014 16.178723-12.0564662h11.275935c0-6.4125315-2.941912-9.0906854-8.233772-9.0906854-4.260699 0-7.097585 1.4381352-9.21958 3.2665362l-7.151292-4.0291655-.100251-.0990583c.063254-.0716084.124121-.1467972.186182-.2124382 3.607869-4.0924196 8.485594-6.9603357 17.06786-6.9603357zm7.450853 26.9760746v-3.1567366h-10.588494c-4.314406 0-7.158453 1.5324196-7.158453 5.0758415 0 3.4419767 2.746182 5.2572498 7.843506 5.2572498 5.785958.0011931 9.903441-2.7748256 9.903441-7.1763547zm104.550639 1.7054732 7.925855 4.4671702c-3.897883 5.294247-10.248354 8.7565128-17.437837 8.7565128-11.857156 0-21.464615-9.3830863-21.464615-20.9550024 0-11.5695291 9.607459-20.9514219 21.464615-20.9514219 7.179935 0 13.510117 3.4479441 17.412774 8.7230956l-7.927049 4.4695571c-2.380533-2.755304-5.844494-4.3351803-9.485725-4.3263403-6.826666 0-12.381091 5.4207552-12.381091 12.0839161 0 6.6619673 5.554425 12.086303 12.381091 12.086303 3.655391.0123767 7.132295-1.5790597 9.511982-4.3537902zm-347.781669 0 7.925855 4.4671702c-3.897883 5.294247-10.248354 8.7565128-17.437837 8.7565128-11.857156 0-21.465809-9.3830863-21.465809-20.9550024 0-11.5695291 9.60746-20.9514219 21.465809-20.9514219 7.178741 0 13.510117 3.4479441 17.412774 8.7230956l-7.927049 4.4695571c-2.380533-2.755304-5.844494-4.3351803-9.485725-4.3263403-6.826666 0-12.381091 5.4207552-12.381091 12.0839161 0 6.6619673 5.554425 12.086303 12.381091 12.086303 3.655461.0127 7.132495-1.5787954 9.511982-4.3537902zm144.942545-27.8198601h9.901054l-.19573 6.8887272c2.747375-5.0698741 6.961529-7.7504149 12.25697-7.7504149 5.978107 0 9.90344 2.7712448 12.058853 7.6525501 3.234312-4.7822471 8.135907-7.6525501 14.115207-7.6525501 9.704131 0 15.486508 6.3158601 15.486508 16.5498928v24.4936503h-9.897473v-23.5352913c0-5.5508439-2.062321-8.6121026-7.746834-8.6121026-5.778797 0-9.214807 3.4455571-9.214807 10.1445221v22.0040653h-9.897473v-23.5364848c0-5.5508439-1.964457-8.6121026-7.650163-8.6121026-5.883823 0-9.313865 3.4455571-9.313865 10.1445221v22.0040653h-9.901054v-40.1830489zm-129.858238-23.244084h9.898667v30.3225735c2.64951-4.9732028 7.552298-7.9401772 13.732102-7.9401772 9.110975 0 15.388644 6.3158601 15.388644 17.2242051v23.8205315h-9.905828v-23.0567086c0-5.7417996-2.741408-9.0918788-8.529753-9.0918788-6.468624 0-10.685165 3.828662-10.685165 10.3354778v21.8119161h-9.898667zm100.532215 22.3823963c11.86193 0 21.468195 9.3806993 21.468195 20.9514219s-9.606265 20.9550023-21.468195 20.9550023c-11.853576 0-21.465809-9.3830862-21.465809-20.9550023 0-11.5707226 9.612233-20.9514219 21.465809-20.9514219zm0 8.8675056c-6.823087 0-12.379898 5.419562-12.379898 12.0839163 0 6.6619674 5.556811 12.086303 12.379898 12.086303 6.835021 0 12.389445-5.4243356 12.389445-12.086303 0-6.6643543-5.554424-12.0851095-12.389445-12.0839163zm-51.671422-8.0058179h9.905827l-.101445 7.5558787c2.750956-6.3134732 7.45324-8.323282 11.963375-8.323282 2.110061 0 3.771376.3461072 5.185641.9309091.557352.2267599 1.722182.7733706 2.855982 1.601641 0 0-1.372494 1.6660886-2.579096 3.6926061-1.212569 2.0289044-2.031291 4.2034126-2.031291 4.2034126-1.568224-.7638229-3.138835-1.3414639-5.390919-1.3414639-5.882629 0-9.902247 3.3488858-9.902247 12.3452867v19.5180606h-9.905827zm234.227468 40.2427226v-40.2427226h10.015627v40.2427226zm-1.569417-55.8593194c0-3.6400932 3.042163-6.3254079 6.576037-6.3254079 3.536261 0 6.580812 2.6853147 6.580812 6.3254079 0 3.831049-3.044551 6.4184988-6.580812 6.4184988-3.535067 0-6.576037-2.5862564-6.576037-6.4184988zm-29.519366 42.2561119v-18.4952541h-6.185771v-8.144261h6.185771v-23.244084h9.916569v23.2452774h10.996662v8.1430676h-10.996662v18.6838229c0 4.6008391 1.571804 5.9434965 4.12345 5.9434965 2.358303 0 3.829855-1.0562238 4.908755-1.9179115l4.714219 6.5151702c-2.064709 1.9179114-5.303795 3.8346294-10.606396 3.8346294-7.753996 0-13.05779-3.8334359-13.056597-14.5639534z" fill="#fff"/><circle cx="50.125874" cy="50.125874" fill="#fc521f" r="50.125874"/><path d="m61.9054545 73.1790023-7.96524-4.5972587 23.9625547-13.8216131c.9189744-.5299021 1.7842425-1.1385734 2.5898369-1.8164662 3.114965 4.4349464 3.4204941 10.2746108.6444755 15.0843077-2.5277733 4.3507501-7.1774682 7.0301198-12.2092308 7.0355245-2.4549743 0-4.8813053-.6504429-7.0223963-1.8856876zm-1.9191048 3.3202425c.9189743.5310955 1.8785268.9774545 2.870303 1.3366899-2.2878881 4.9099487-7.1954499 8.0941352-12.754648 8.0941352-7.7599627 0-14.0770164-6.3098927-14.0770164-14.0650816v-27.645613l12.1579115 7.0164289v17.3471329c0 .6850536.3663962 1.3175944.9595524 1.6601212zm-28.6731935-1.4381352c-5.0290428-.0050743-9.6764256-2.6826031-12.2032634-7.0307506-1.8756891-3.2271171-2.3811452-7.0709049-1.4035245-10.6732308.956492-3.6096452 3.3182362-6.6861447 6.5581352-8.5428811l7.9628531-4.5948718.0011935 27.6408392c0 1.0609976.090704 2.1124475.2756923 3.1543496-.3962331.0310303-.7948531.0465455-1.1910862.0465455zm30.9861445-34.1631702-12.154331 7.011655-15.0377622-8.6729697c-.5937319-.3413757-1.3241797-.3413757-1.9179115 0l-10.8438974 6.254993c-.9189744.5287086-1.7854359 1.1337995-2.5922238 1.8152727-3.1125781-4.4337529-3.4169137-10.2746107-.643282-15.0843076 2.5270787-4.3510203 7.1763904-7.0308856 12.2080373-7.036718 2.4525874 0 4.8813053.6540233 7.0223962 1.8880746zm-12.197296-26.5762611c7.7635431 0 14.0770163 6.3098928 14.0770163 14.068662v9.1897436l-23.955394-13.8204196c-.9163729-.5306669-1.878122-.9787908-2.8738834-1.3390769 2.2866946-4.9135291 7.1966433-8.0989091 12.7522611-8.0989091zm31.0338834 17.9056783c3.8787879 6.7180606 1.5682238 15.3373241-5.1546107 19.2161119l-23.9589744 13.8204196v-14.025697l15.0365688-8.6753566c.5943496-.3425268.9607459-.9750676.9607459-1.6601212v-12.512373c0-1.0562237-.0954778-2.1088671-.2768858-3.1459953 5.4381198-.453157 10.6512633 2.2649059 13.3931562 6.9830116z" fill="#fff"/></svg>