<svg width="800" height="157" viewBox="0 0 800 157" fill="none" xmlns="http://www.w3.org/2000/svg">
<g clip-path="url(#clip0_2_27)">
<path d="M612.614 53.6204C628.082 53.6204 639.722 62.137 639.722 80.6787V117.753H624.255L624.711 108.785C620.11 115.511 613.988 119.097 604.492 119.097C591.78 119.097 581.358 113.27 581.358 99.2167C581.358 86.2023 592.084 80.5314 606.637 80.3785H624.255C624.255 70.3589 619.659 66.1743 611.39 66.1743C604.733 66.1743 600.3 68.4214 596.985 71.2783L585.811 64.9827L585.654 64.8279C585.753 64.716 585.848 64.5985 585.945 64.496C591.582 58.1016 599.204 53.6204 612.614 53.6204ZM624.255 95.7706V90.8382H607.711C600.97 90.8382 596.526 93.2326 596.526 98.7692C596.526 104.147 600.817 106.984 608.781 106.984C617.822 106.985 624.255 102.648 624.255 95.7706ZM787.616 98.4354L800 105.415C793.91 113.688 783.987 119.097 772.753 119.097C754.227 119.097 739.215 104.436 739.215 86.3552C739.215 68.2778 754.227 53.6186 772.753 53.6186C783.972 53.6186 793.863 59.006 799.961 67.2484L787.575 74.2321C783.855 69.9269 778.443 67.4584 772.753 67.4722C762.087 67.4722 753.408 75.9421 753.408 86.3533C753.408 96.7626 762.087 105.238 772.753 105.238C778.465 105.257 783.898 102.771 787.616 98.4354ZM244.207 98.4354L256.591 105.415C250.501 113.688 240.578 119.097 229.345 119.097C210.818 119.097 195.804 104.436 195.804 86.3552C195.804 68.2778 210.816 53.6186 229.345 53.6186C240.561 53.6186 250.454 59.006 256.552 67.2484L244.166 74.2321C240.446 69.9269 235.034 67.4584 229.345 67.4722C218.678 67.4722 209.999 75.9421 209.999 86.3533C209.999 96.7626 218.678 105.238 229.345 105.238C235.056 105.258 240.489 102.771 244.207 98.4354ZM470.68 54.9668H486.15L485.844 65.7305C490.137 57.8088 496.722 53.6204 504.996 53.6204C514.337 53.6204 520.47 57.9505 523.838 65.5776C528.891 58.1053 536.55 53.6204 545.893 53.6204C561.055 53.6204 570.09 63.489 570.09 79.4797V117.751H554.626V80.9771C554.626 72.3039 551.403 67.5207 542.521 67.5207C533.492 67.5207 528.123 72.9044 528.123 83.3715V117.753H512.658V80.9771C512.658 72.3039 509.589 67.5207 500.705 67.5207C491.511 67.5207 486.152 72.9044 486.152 83.3715V117.753H470.682V54.9668H470.68ZM267.776 18.6479H283.243V66.027C287.383 58.2563 295.043 53.6204 304.699 53.6204C318.935 53.6204 328.744 63.489 328.744 80.5333V117.753H313.266V81.7267C313.266 72.7552 308.983 67.5207 299.938 67.5207C289.831 67.5207 283.243 73.503 283.243 83.6699V117.751H267.776V18.6479ZM424.858 53.6204C443.392 53.6204 458.402 68.2778 458.402 86.357C458.402 104.436 443.392 119.099 424.858 119.099C406.337 119.099 391.317 104.438 391.317 86.357C391.317 68.2778 406.337 53.6204 424.858 53.6204ZM424.858 67.4759C414.197 67.4759 405.514 75.944 405.514 86.357C405.514 96.7664 414.197 105.242 424.858 105.242C435.538 105.242 444.216 96.7664 444.216 86.357C444.216 75.944 435.538 67.4741 424.858 67.4759ZM344.121 54.9668H359.599L359.441 66.7729C363.739 56.9081 371.086 53.7678 378.133 53.7678C381.43 53.7678 384.026 54.3086 386.236 55.2223C387.107 55.5766 388.927 56.4307 390.698 57.7249C390.698 57.7249 388.554 60.3281 386.669 63.4946C384.774 66.6647 383.495 70.0624 383.495 70.0624C381.044 68.8689 378.59 67.9664 375.071 67.9664C365.88 67.9664 359.599 73.199 359.599 87.2559V117.753H344.121V54.9668ZM710.102 117.846V54.9668H725.751V117.846H710.102ZM707.649 30.5659C707.649 24.8783 712.403 20.6824 717.924 20.6824C723.45 20.6824 728.207 24.8783 728.207 30.5659C728.207 36.5519 723.45 40.5948 717.924 40.5948C712.401 40.5948 707.649 36.5538 707.649 30.5659ZM661.525 96.5911V67.6922H651.86V54.9668H661.525V18.6479H677.02V54.9687H694.202V67.6922H677.02V96.8857C677.02 104.075 679.476 106.172 683.463 106.172C687.148 106.172 689.447 104.522 691.133 103.176L698.499 113.356C695.273 116.352 690.212 119.347 681.926 119.347C669.811 119.347 661.524 113.358 661.525 96.5911Z" fill="#333333"/>
<path d="M78.3217 156.643C121.578 156.643 156.643 121.578 156.643 78.3217C156.643 35.0658 121.578 0 78.3217 0C35.0658 0 0 35.0658 0 78.3217C0 121.578 35.0658 156.643 78.3217 156.643Z" fill="#FC521F"/>
<path d="M96.7273 114.342L84.2816 107.159L121.723 85.5628C123.159 84.7348 124.511 83.7837 125.77 82.7245C130.637 89.6541 131.114 98.7786 126.777 106.294C122.827 113.092 115.562 117.278 107.7 117.287C103.864 117.287 100.073 116.27 96.7273 114.34V114.342ZM93.7287 119.53C95.1646 120.36 96.6639 121.057 98.2135 121.619C94.6387 129.291 86.9706 134.266 78.2844 134.266C66.1594 134.266 56.289 124.407 56.289 112.289V69.0928L75.2858 80.056V107.161C75.2858 108.231 75.8583 109.22 76.7851 109.755L93.7287 119.53ZM48.9268 117.283C41.0689 117.275 33.8074 113.091 29.8592 106.297C26.9284 101.255 26.1387 95.2492 27.6662 89.6206C29.1607 83.9805 32.8509 79.1735 37.9133 76.2723L50.3552 69.0928L50.3571 112.282C50.3571 113.939 50.4988 115.582 50.7879 117.21C50.1688 117.259 49.5459 117.283 48.9268 117.283ZM97.3427 63.9031L78.3515 74.8588L54.855 61.3073C53.9273 60.7739 52.786 60.7739 51.8583 61.3073L34.9147 71.0807C33.4788 71.9068 32.1249 72.8523 30.8643 73.9171C26.0009 66.9893 25.5254 57.863 29.8592 50.3479C33.8078 43.5494 41.0723 39.3621 48.9343 39.353C52.7664 39.353 56.5613 40.3749 59.9068 42.3031L97.3427 63.9031ZM78.2844 22.3777C90.4149 22.3777 100.28 32.2369 100.28 44.36V58.7189L62.8494 37.1245C61.4176 36.2954 59.9149 35.5952 58.359 35.0322C61.9319 27.3548 69.6037 22.3777 78.2844 22.3777ZM126.775 50.3553C132.835 60.8523 129.225 74.3199 118.721 80.3805L81.2849 101.975V80.0597L104.779 66.5045C105.708 65.9693 106.281 64.9809 106.281 63.9106V44.36C106.281 42.7096 106.131 41.0649 105.848 39.4444C114.345 38.7363 122.491 42.9833 126.775 50.3553Z" fill="white"/>
</g>
<defs>
<clipPath id="clip0_2_27">
<rect width="800" height="157" fill="white"/>
</clipPath>
</defs>
</svg>
