<svg width="200" height="200" viewBox="0 0 200 200" fill="none" xmlns="http://www.w3.org/2000/svg">
<g clip-path="url(#clip0_356_6635)">
<path d="M108.157 156.217L105.617 162.384C105.112 163.605 103.958 164.432 102.66 164.488C101.802 164.521 100.937 164.545 100.064 164.545C70.1667 164.529 43.7146 143.385 37.1603 114.25L26.9831 116.554C30.6611 132.896 39.8925 147.729 52.9783 158.329C66.2158 169.049 82.8915 174.968 99.9511 175H100.103C101.105 175 102.099 174.976 103.092 174.936C108.445 174.711 113.229 171.346 115.273 166.359L118.59 158.297L108.157 156.217V156.217Z" fill="url(#paint0_linear_356_6635)"/>
<path d="M27.8181 119.871C26.0499 113.397 25.1552 106.715 25.1579 100.004C25.1579 69.2474 44.4136 41.1247 73.0771 30.0347L76.8353 39.7917C52.1626 49.3396 35.5912 73.5358 35.5912 100.004C35.5877 105.779 36.3558 111.529 37.8751 117.1L27.8181 119.871Z" fill="url(#paint1_linear_356_6635)"/>
<path d="M157.4 70.2918C146.245 48.8102 124.289 35.4637 100.113 35.4637C91.547 35.4637 83.222 37.1178 75.3845 40.3703L71.3866 30.7094C80.4974 26.9277 90.1612 25 100.113 25C128.2 25 153.697 40.4986 166.655 65.4572L157.4 70.2912V70.2918Z" fill="url(#paint2_linear_356_6635)"/>
<path d="M77.7324 84.5291C83.7828 84.5291 88.7111 87.7652 91.2429 93.4107L91.4433 93.8525L101.603 90.3914L101.387 89.8693C97.4527 80.257 88.39 74.2822 77.7329 74.2822C70.2406 74.2822 64.1503 76.6916 59.1177 81.6381C54.1179 86.5529 51.5855 92.7357 51.5855 100.02C51.5855 107.239 54.1179 113.391 59.1177 118.305C64.1503 123.252 70.2406 125.661 77.7329 125.661C88.39 125.661 97.4527 119.686 101.387 110.082L101.604 109.56L91.4275 106.09L91.2347 106.549C88.9671 112.097 83.9187 115.414 77.7324 115.414C73.5177 115.414 69.9599 113.937 67.1386 111.029C64.2869 108.082 62.8443 104.38 62.8443 100.028C62.8443 95.6432 64.2546 92.0133 67.1392 88.9301C69.9517 86.0063 73.5177 84.5291 77.7329 84.5291H77.7324Z" fill="#fff"/>
<path d="M141.373 75.23L126.894 111.985L112.317 75.23H100.393L120.836 125.396L106.291 160.778L116.716 162.858L152.64 75.23H141.373Z" fill="#fff"/>
<path d="M166.655 65.4576C171.93 75.7338 175.158 87.8041 175.158 100.159C175.158 128.987 158.944 154.016 135.166 166.571L130.028 157.46C150.648 146.707 164.732 125.083 164.732 100.159C164.732 89.3422 162.087 79.2459 157.4 70.2916L166.655 65.457V65.4576Z" fill="url(#paint3_linear_356_6635)"/>
</g>
<defs>
<linearGradient id="paint0_linear_356_6635" x1="32.7727" y1="140.997" x2="104.384" y2="160.118" gradientUnits="userSpaceOnUse">
<stop stop-color="#315C55"/>
<stop offset="1" stop-color="#fff"/>
</linearGradient>
<linearGradient id="paint1_linear_356_6635" x1="53.2177" y1="54.5259" x2="46.5523" y2="119.415" gradientUnits="userSpaceOnUse">
<stop stop-color="#4FB38D"/>
<stop offset="1" stop-color="#315C55"/>
</linearGradient>
<linearGradient id="paint2_linear_356_6635" x1="84.6375" y1="47.6459" x2="137.49" y2="57.3351" gradientUnits="userSpaceOnUse">
<stop stop-color="#4FB38D"/>
<stop offset="1" stop-color="#97DEC0"/>
</linearGradient>
<linearGradient id="paint3_linear_356_6635" x1="154.335" y1="96.693" x2="125.514" y2="150.653" gradientUnits="userSpaceOnUse">
<stop stop-color="#97DEC0"/>
<stop offset="1" stop-color="#FFFFF0" stop-opacity="0"/>
</linearGradient>
<clipPath id="clip0_356_6635">
<rect width="150" height="150" fill="white" transform="translate(25 25)"/>
</clipPath>
</defs>
</svg>
