<svg xmlns="http://www.w3.org/2000/svg" fill="none" viewBox="0 0 24 24" id="Vitest--Streamline-Svg-Logos" height="24" width="24">
  <desc>
    Vitest Streamline Icon: https://streamlinehq.com
  </desc>
  <path fill="#fcc72b" d="M17.8854 7.781 12.267375 15.9039c-0.05955 0.086125 -0.1457 0.15065 -0.24535 0.18375 -0.09965 0.033125 -0.207375 0.0328 -0.306825 -0.00045 -0.099425 -0.033425 -0.185175 -0.098275 -0.244225 -0.18455 -0.059025 -0.086425 -0.08815 -0.18965 -0.082875 -0.293975l0.224825 -4.484675 -3.629825 -0.769825c-0.077575 -0.016425 -0.14985 -0.051675 -0.21045 -0.102575 -0.060575 -0.0509 -0.1076 -0.115925 -0.1369 -0.189275 -0.029275 -0.073375 -0.039925 -0.1528 -0.031 -0.2313 0.008925 -0.078475 0.037125 -0.1536 0.08215 -0.218675L13.305 1.4894175c0.059575 -0.0861725 0.1457 -0.1506725 0.24535 -0.18374 0.099675 -0.033065 0.2074 -0.032895 0.30685 0.0005125 0.09945 0.033395 0.1852 0.09819 0.244225 0.1845625 0.059025 0.08636 0.08815 0.18957 0.082875 0.2939775l-0.22485 4.484745 3.6298 0.769725c0.077575 0.01645 0.14985 0.051675 0.2105 0.102575 0.060625 0.050925 0.107575 0.115925 0.1368 0.1893 0.029375 0.07335 0.03995 0.1528 0.0311 0.231275 -0.008875 0.0785 -0.037175 0.15355 -0.08225 0.21865Z" stroke-width="0.25"></path>
  <path fill="#729b1b" d="M12.002175 22.7188c-0.149425 0.00015 -0.2974 -0.029075 -0.43545 -0.0863 -0.13805 -0.0572 -0.26345 -0.14115 -0.36895 -0.246875L5.88935 17.0776c-0.21235 -0.21345 -0.331375 -0.50245 -0.331 -0.803575 0.0004 -0.301125 0.1202 -0.589975 0.33315 -0.8028 0.212925 -0.212975 0.50165 -0.33285 0.802775 -0.3333 0.301175 -0.000325 0.5902 0.118625 0.803725 0.330975l4.504175 4.503675 9.812425 -9.811925c0.2139 -0.210475 0.502275 -0.327875 0.802325 -0.32665 0.3002 0.001225 0.587625 0.120975 0.799675 0.33315 0.2122 0.2122 0.332075 0.49965 0.333325 0.799725 0.001075 0.300075 -0.1163 0.5885 -0.3268 0.8024L12.8064 22.385625c-0.1055 0.105875 -0.230875 0.189675 -0.368875 0.246875 -0.138 0.057225 -0.28595 0.08645 -0.43535 0.0863Z" stroke-width="0.25"></path>
  <path fill="#729b1b" fill-opacity=".5" d="M11.997675 22.7188c0.149425 0.00015 0.297425 -0.029075 0.435475 -0.0863 0.13805 -0.0572 0.263425 -0.14115 0.36895 -0.246875L18.1105 17.0776c0.212375 -0.21345 0.33145 -0.50245 0.330975 -0.803575 -0.0003 -0.301125 -0.120175 -0.589975 -0.33315 -0.8028 -0.212975 -0.212975 -0.501675 -0.33285 -0.8028 -0.3333 -0.301125 -0.000325 -0.590125 0.118625 -0.803725 0.330975L11.997675 19.972575 2.18529 10.16065c-0.2139125 -0.210475 -0.5023225 -0.327875 -0.8023925 -0.32665 -0.300085 0.001225 -0.5875325 0.120975 -0.7997175 0.33315 -0.2121925 0.2122 -0.33194 0.49965 -0.33317 0.799725 -0.00121325 0.300075 0.11619 0.5885 0.3266475 0.8024L11.19345 22.385625c0.105525 0.105875 0.230875 0.189675 0.368875 0.246875 0.138025 0.057225 0.285975 0.08645 0.43535 0.0863Z" stroke-width="0.25"></path>
</svg>