<svg width="200" height="200" viewBox="0 0 200 200" fill="none" xmlns="http://www.w3.org/2000/svg">
<g clip-path="url(#clip0_356_6672)">
<path d="M154.844 35H45.1562C39.5471 35 35 39.5471 35 45.1562V154.844C35 160.453 39.5471 165 45.1562 165H154.844C160.453 165 165 160.453 165 154.844V45.1562C165 39.5471 160.453 35 154.844 35Z" fill="#EA5906"/>
<path fill-rule="evenodd" clip-rule="evenodd" d="M51.25 67.5V132.5H47.1875V67.5H51.25ZM122.344 67.5C140.293 67.5 154.844 82.0507 154.844 100C154.844 117.949 140.293 132.5 122.344 132.5C104.394 132.5 89.8438 117.949 89.8438 100C89.8438 82.0507 104.394 67.5 122.344 67.5ZM89.8438 67.5L63.6528 132.498H59.373L85.5659 67.5H89.8438ZM122.344 71.5625C106.638 71.5625 93.9062 84.2944 93.9062 100C93.9062 115.706 106.638 128.438 122.344 128.438C138.049 128.438 150.781 115.706 150.781 100C150.781 84.2944 138.049 71.5625 122.344 71.5625Z" fill="white"/>
</g>
<defs>
<clipPath id="clip0_356_6672">
<rect width="130" height="130" fill="white" transform="translate(35 35)"/>
</clipPath>
</defs>
</svg>
