<svg width="140" height="48" viewBox="0 0 140 48" fill="none" xmlns="http://www.w3.org/2000/svg">
<g clip-path="url(#clip0_29_933)">
<path d="M23.9647 35.9257C18.7136 35.9257 17.918 35.3067 18.1873 34.1181C18.3832 33.2762 22.6795 17.0819 22.7774 16.7105C23.2058 14.9771 25.0051 15.3981 25.0785 15.4105C25.1275 15.4228 25.1642 15.4724 25.152 15.5219C24.9929 16.9086 22.4714 30.5895 22.4469 30.7628C22.2388 32.1124 22.4469 32.2486 24.0993 32.2486C32.2635 32.2486 35.2256 26.5409 36.0335 21.9847C37.4289 14.0857 29.7665 11.7209 19.0808 12.6867C18.9829 12.699 18.273 12.7362 17.967 12.5876C17.5631 12.3895 17.2203 11.8943 17.1347 11.6219C17.0979 11.5228 17.0979 11.4238 17.1347 11.3619C17.1591 11.3248 17.1836 11.2876 17.2203 11.2752C20.6721 10.6562 25.4702 9.82666 28.567 10.1609C40.2931 11.4114 40.2931 18.8771 39.6076 22.6533C39.2282 24.8448 37.2453 35.9257 23.9647 35.9257ZM65.9975 31.0476C65.2386 33.66 62.9252 35.4676 60.2323 35.5419C57.9679 35.6657 55.7035 34.3657 54.712 32.36C54.3203 31.6047 54.1 30.7876 54.0143 29.8219C53.6716 29.9828 53.3166 30.1314 52.9617 30.2428C52.4965 31.5676 51.6887 32.7933 50.5748 33.6352C48.188 35.4305 44.9566 35.9505 42.0557 34.3409C38.4815 31.8524 38.9222 26.8381 41.4192 23.8914C43.9039 20.9448 48.4695 20.4495 50.7584 21.8981C52.3129 22.9133 53.1453 24.659 53.3656 26.479C53.6961 26.2438 53.9898 25.9467 54.3326 25.5505C54.6508 25.1667 55.2751 24.2257 55.2751 24.2257C55.6423 23.6562 56.0952 23.1238 56.597 22.6657C57.6497 21.7371 58.9838 21.279 60.3303 21.279C61.4931 21.279 62.6804 21.6257 63.7086 22.3314C64.039 22.5543 64.1247 22.6781 64.0146 22.8638C63.8677 23.1362 63.7086 23.3838 63.5127 23.619C63.1455 24.0648 62.7661 23.9038 62.509 23.7924C62.4723 23.78 62.4356 23.7552 62.3989 23.7428C61.2483 23.3343 60.3058 23.4209 59.3266 24.0152C57.209 25.3152 56.8908 27.8409 57.2825 29.7724C57.6864 31.7409 58.7635 32.4095 59.6081 32.62C61.1504 33.0162 63.2189 32.1743 64.5286 30.6143C64.9203 30.1438 65.5201 30.4533 65.9485 30.8C65.973 30.8124 65.9852 30.8247 65.9975 30.8371C66.0587 30.9114 65.9975 31.0352 65.9975 31.0476ZM49.9016 24.4114C48.3226 22.4305 45.4584 23.099 43.8427 24.9314C42.227 26.7762 42.2026 29.7971 43.9651 31.0724C45.6176 32.2609 48.2492 31.6295 49.5467 29.7228C50.4524 28.3857 51.2725 26.1324 49.9016 24.4114ZM89.4129 28.5714C89.1926 30.5028 88.2134 32.459 86.6467 33.6476C84.2598 35.4428 81.0284 35.9628 78.1275 34.3533C77.7603 34.0933 77.4298 33.8086 77.1483 33.499C76.6587 33.9447 76.0834 34.3905 75.4469 34.7743C73.5007 35.9628 70.7834 35.6533 69.1065 34.0686C68.0416 33.1028 67.5275 31.5057 67.7233 29.8838C67.8947 28.4476 69.1677 23.4952 70.355 19.0628C69.1922 19.1 68.1762 19.0628 67.6132 18.7905C66.7074 18.3448 66.9277 16.8219 67.0134 16.3886C67.0256 16.3267 67.0868 16.2771 67.148 16.2771C67.5887 16.2771 69.2534 16.2648 71.1016 16.2524C71.8728 13.4048 72.4848 11.2628 72.4848 11.2628C72.7051 10.5076 73.5252 10.099 74.2718 10.099C74.4187 10.099 74.5534 10.1114 74.688 10.1486C74.737 10.1609 74.7614 10.2105 74.7492 10.2724C74.5534 11.4981 74.1739 13.7267 73.721 16.2524C74.7247 16.2524 75.6305 16.2648 76.2425 16.2771C78.3968 16.3267 81.2365 16.4505 81.8118 16.4752C81.873 16.4752 81.9342 16.5248 81.9464 16.5867C82.0076 16.859 82.0566 17.54 81.2855 17.9857C80.6245 18.3571 75.8263 18.7038 73.6231 18.8524C73.5007 18.8648 73.3905 18.8648 73.2681 18.8771C72.3501 24.0028 71.3709 29.3143 71.3219 29.5495C71.0771 30.7876 71.8483 31.5428 72.5337 31.6914C73.7945 31.9638 74.8226 31.419 75.6795 30.6267C75.2021 28.3114 75.9487 25.7114 77.4788 23.8914C79.9635 20.9448 84.5291 20.4495 86.818 21.8981C88.9723 23.3219 89.7312 26.12 89.4129 28.5714ZM85.9857 24.4114C84.4067 22.4305 81.5425 23.099 79.9268 24.9314C78.3111 26.7762 78.2866 29.7971 80.0492 31.0724C81.7016 32.2609 84.3333 31.6295 85.6307 29.7228C86.5365 28.3857 87.3566 26.1324 85.9857 24.4114ZM103.758 18.2086C104.468 18.679 105.362 18.4562 105.937 18.0228C106.329 17.7257 106.586 17.2428 106.647 16.7228C106.721 16.1781 106.586 15.4105 105.986 15.0143C105.754 14.8657 105.484 14.8038 105.203 14.8038C104.762 14.8038 104.309 14.9648 103.954 15.1752C103.844 15.2495 103.758 15.3238 103.673 15.4228C103.624 15.4848 103.575 15.559 103.538 15.6333C103.036 16.5248 102.926 17.6267 103.758 18.2086ZM120.209 21.9228C118.581 20.8828 115.778 20.8457 113.404 21.9847C113.918 19.1247 115.032 11.2752 115.191 10.2848C115.203 10.2476 115.191 10.2228 115.179 10.1981C115.166 10.1733 115.142 10.1609 115.117 10.1609C114.983 10.1362 114.848 10.1114 114.701 10.1114C113.955 10.1114 113.134 10.52 112.914 11.2752C112.914 11.2752 108.557 29.0667 108.41 29.8962C107.406 31.4686 106.194 32.0752 104.872 31.6667C103.771 31.32 103.832 30.4657 103.869 30.0448C103.93 29.3762 105.068 22.7771 105.276 21.3038C105.288 21.2047 105.227 21.1181 105.129 21.0933C104.897 21.0562 104.652 21.0314 104.407 21.0314C103.599 21.0314 102.767 21.3286 102.277 22.5667C102.265 22.6162 100.833 27.68 100.564 28.7695C100.527 28.9057 100.503 29.0419 100.466 29.1781C99.4132 30.7876 97.7852 32.199 95.4351 31.6914C94.7497 31.5428 93.9908 31.0352 94.2233 29.5495C94.2845 29.1533 96.4388 16.5495 97.063 12.5257C97.0753 12.4638 97.0508 12.4143 97.0019 12.4019C96.8672 12.3648 96.7203 12.3524 96.5857 12.3524C95.839 12.3524 95.0312 12.7609 94.7986 13.5162C94.7986 13.5162 91.3591 26.2809 90.6247 29.8838C90.2942 31.4686 90.5268 33.0162 91.9222 34.2667C93.2196 35.4428 95.7166 35.8143 97.7852 34.9352C98.9848 34.4276 99.9885 33.5981 100.686 32.88C101.592 34.7124 103.758 35.9009 105.754 35.4181C107.296 35.0467 108.471 33.92 109.242 32.979C109.548 33.4247 109.903 33.8209 110.282 34.1305C112.057 35.5543 114.567 35.8143 116.843 35.1333C117.994 34.8733 119.095 34.3657 120.05 33.6476C121.617 32.4467 122.608 30.5028 122.816 28.5714C123.135 26.12 122.364 23.3219 120.209 21.9228ZM119.083 30.0076C117.798 31.9143 114.848 32.6324 113.196 31.4438C111.421 30.1686 111.764 27.0486 113.379 25.2162C114.995 23.3714 117.859 22.7152 119.438 24.6962C120.809 26.4048 119.989 28.6581 119.083 30.0076Z" fill="#1D78C6"/>
</g>
<defs>
<clipPath id="clip0_29_933">
<rect width="106" height="26" fill="white" transform="translate(17 10)"/>
</clipPath>
</defs>
</svg>
