<svg width="140" height="48" viewBox="0 0 140 48" fill="none" xmlns="http://www.w3.org/2000/svg">
<mask id="mask0_318_1642" style="mask-type:luminance" maskUnits="userSpaceOnUse" x="18" y="9" width="25" height="34">
<path d="M42.1003 9.26758H18.6147V42.7473H42.1003V9.26758Z" fill="white"/>
</mask>
<g mask="url(#mask0_318_1642)">
<path d="M34.8902 9.26758C34.1321 9.26758 33.4711 10.9024 33.4711 13.4241C32.504 13.1964 31.4672 13.0693 30.3582 13.0693C29.2491 13.0693 28.2124 13.1964 27.2453 13.4241C27.2453 10.9024 26.583 9.26758 25.8261 9.26758C22.8722 9.26758 18.6147 21.9211 18.6147 24.3091C18.6147 26.6971 23.3505 33.6493 30.3569 33.6493C37.3633 33.6493 42.099 26.6958 42.099 24.3091C42.099 21.9224 37.8429 9.26758 34.8902 9.26758Z" fill="url(#paint0_linear_318_1642)"/>
<path d="M34.8902 9.26758C34.1321 9.26758 33.4711 10.9024 33.4711 13.4241C32.504 13.1964 31.4672 13.0693 30.3582 13.0693C29.2491 13.0693 28.2124 13.1964 27.2453 13.4241C27.2453 10.9024 26.583 9.26758 25.8261 9.26758C22.8722 9.26758 18.6147 21.9211 18.6147 24.3091C18.6147 26.6971 23.3505 33.6493 30.3569 33.6493C37.3633 33.6493 42.099 26.6958 42.099 24.3091C42.099 21.9224 37.8429 9.26758 34.8902 9.26758Z" fill="#FF953F"/>
<path d="M34.847 20.551H34.6631C34.3082 20.551 34.0205 20.8408 34.0205 21.1983V21.8205C34.0205 22.178 34.3082 22.4678 34.6631 22.4678H34.847C35.2019 22.4678 35.4896 22.178 35.4896 21.8205V21.1983C35.4896 20.8408 35.2019 20.551 34.847 20.551Z" fill="#2F1708"/>
<path d="M26.0508 20.551H25.8668C25.5119 20.551 25.2242 20.8408 25.2242 21.1983V21.8205C25.2242 22.178 25.5119 22.4678 25.8668 22.4678H26.0508C26.4057 22.4678 26.6934 22.178 26.6934 21.8205V21.1983C26.6934 20.8408 26.4057 20.551 26.0508 20.551Z" fill="#2F1708"/>
<path d="M39.8743 30.9078L39.869 30.9131C37.1345 33.6162 33.7575 35.1054 30.3581 35.1054C26.9587 35.1054 23.5803 33.6162 20.8472 30.9131L20.8419 30.9078C20.6343 30.704 20.2848 30.8509 20.2848 31.1434V32.0687C20.2848 32.9689 20.7092 33.82 21.4359 34.3442C22.7118 35.2655 24.0731 35.9856 25.4831 36.4913L25.491 36.4794C25.9785 36.6594 26.4804 36.8143 26.9942 36.9427C27.1046 36.9692 27.2163 36.997 27.328 37.0208C27.3937 37.0354 27.4594 37.0486 27.5264 37.0631C27.0454 37.7131 26.78 38.5338 26.8352 39.4194C26.9469 41.1892 28.3779 42.6294 30.1347 42.7393C32.1872 42.8677 33.8915 41.2276 33.8915 39.1877C33.8915 38.3908 33.6313 37.6562 33.1924 37.0631C33.3107 37.038 33.4303 37.0115 33.5472 36.9837C33.5998 36.9718 33.651 36.9599 33.7036 36.9467C34.0387 36.8633 34.3672 36.7693 34.6917 36.6647L34.6944 36.6713C36.2975 36.1644 37.8467 35.3807 39.2869 34.3402C40.0122 33.816 40.434 32.9662 40.434 32.0674V31.1408C40.434 30.8483 40.0845 30.7 39.8769 30.9052L39.8743 30.9078Z" fill="#974EF2"/>
<path d="M29.6751 20.7561L29.223 19.7302C28.955 19.1306 28.3571 18.7414 27.7014 18.7414H24.6699C23.6187 18.7414 22.7633 17.8797 22.7633 16.8207V16.176C22.7633 15.8292 23.0419 15.5472 23.3875 15.5472C23.7331 15.5472 24.0116 15.8279 24.0116 16.176V16.8207C24.0116 17.1874 24.3073 17.4852 24.6713 17.4852H27.7027C28.8459 17.4852 29.8879 18.1616 30.3597 19.21C30.8341 18.1616 31.8748 17.4852 33.0167 17.4852H36.0481C36.4121 17.4852 36.7077 17.1874 36.7077 16.8207V16.176C36.7077 15.8292 36.9863 15.5472 37.3319 15.5472C37.6775 15.5472 37.9561 15.8279 37.9561 16.176V16.8207C37.9561 17.8797 37.1006 18.7414 36.0494 18.7414H33.018C32.3622 18.7414 31.7644 19.1306 31.495 19.7329L31.0443 20.7561H29.679H29.6751Z" fill="#FFFAF6"/>
<path d="M29.115 20.1234L25.7445 28.2391C25.3739 29.1326 26.0244 30.1188 26.9862 30.1188H33.7285C34.6904 30.1188 35.3421 29.1326 34.9703 28.2391L31.5998 20.1234C31.1385 19.0128 29.5775 19.0128 29.1163 20.1234H29.115Z" fill="#FFFAF6"/>
<path d="M29.8522 21.5106H28.5395L28.0349 22.5365C27.7669 23.1362 27.169 23.5253 26.5133 23.5253H23.4818C22.4306 23.5253 21.4897 24.5777 21.4897 25.6155C21.4897 26.6533 22.3334 28.0101 23.9168 29.5748C25.0061 30.6523 27.2912 32.4579 30.3581 32.4579C33.4251 32.4579 35.7102 30.651 36.7995 29.5748C38.3829 28.0088 39.2265 26.652 39.2265 25.6155C39.2265 24.579 38.2856 23.5253 37.2344 23.5253H34.2029C33.5473 23.5253 32.9494 23.1362 32.6813 22.5365L32.1767 21.5106H30.864H29.8549H29.8522Z" fill="#FFFAF6"/>
<path d="M32.4895 38.5246L30.2556 40.7749C30.0887 40.943 29.8167 40.943 29.6485 40.7749L28.2031 39.3189C28.098 39.2129 28.098 39.0409 28.2031 38.935L28.5382 38.5974C28.6433 38.4915 28.8141 38.4915 28.9192 38.5974L29.9534 39.6392L31.776 37.8032C31.8811 37.6973 32.0519 37.6973 32.157 37.8032L32.4921 38.1407C32.5972 38.2466 32.5972 38.4187 32.4921 38.5246H32.4895Z" fill="#FFFAF6"/>
<path d="M31.6854 20.0626C31.6854 19.3332 32.2728 18.7428 32.9955 18.7428H33.257V18.4013L33.3766 18.1525L32.1466 18.4649L30.9102 19.5424L31.2846 20.6834L31.7827 20.567C31.7183 20.4121 31.6828 20.2413 31.6828 20.0626H31.6854Z" fill="#FFFAF6"/>
<path d="M29.0298 20.0626C29.0298 19.3332 28.4424 18.7428 27.7197 18.7428H27.4582V18.4013L27.3386 18.1525L28.5686 18.4649L29.8051 19.5424L29.4306 20.6834L28.9326 20.567C28.9969 20.4121 29.0324 20.2413 29.0324 20.0626H29.0298Z" fill="#FFFAF6"/>
<path d="M32.914 26.0723C32.8089 26.0723 32.7169 26.1411 32.6879 26.2431C32.6525 26.3688 32.5841 26.4827 32.4803 26.57C31.6092 27.3007 30.6197 26.6865 30.6197 25.8433V25.3866C30.6197 25.2423 30.6814 25.1047 30.7905 25.0107C31.2176 24.64 32.2977 23.6936 32.2977 23.6936C32.6538 23.3812 32.4343 22.7921 31.9626 22.7921H28.7498C28.2781 22.7921 28.0587 23.3812 28.4147 23.6936C28.4147 23.6936 29.4949 24.6387 29.922 25.0107C30.031 25.1047 30.0928 25.2423 30.0928 25.3866V25.8089C30.0928 26.349 29.7025 26.8282 29.169 26.8891C28.6802 26.9446 28.2479 26.6574 28.0784 26.2365C28.0403 26.1398 27.9522 26.0736 27.8484 26.0736H27.8274C27.6447 26.0736 27.5225 26.2603 27.5909 26.4311C27.8221 27.0135 28.3872 27.4252 29.0468 27.4252C29.5921 27.4252 30.0731 27.1432 30.3543 26.7183C30.6354 27.1445 31.1164 27.4252 31.6617 27.4252C32.3385 27.4252 32.914 26.9923 33.1347 26.3874C33.1899 26.2351 33.073 26.0736 32.9114 26.0736L32.914 26.0723Z" fill="#2F1708"/>
</g>
<path d="M94.4815 20.3597C94.7737 20.6307 95.1363 20.7662 95.5689 20.7662C96.0019 20.7662 96.3586 20.6307 96.6391 20.3597C96.9317 20.0769 97.0778 19.7293 97.0778 19.3169C97.0778 18.9045 96.9317 18.5628 96.6391 18.2919C96.3586 18.0091 96.0019 17.8677 95.5689 17.8677C95.1363 17.8677 94.7737 18.0091 94.4815 18.2919C94.2005 18.5628 94.0604 18.9045 94.0604 19.3169C94.0604 19.7293 94.2005 20.0769 94.4815 20.3597Z" fill="#2F1708"/>
<path d="M96.7796 31.7239V21.9326H94.3234V31.7239H96.7796Z" fill="#2F1708"/>
<path d="M101.504 23.9652V28.7017C101.504 29.0317 101.58 29.2732 101.732 29.4263C101.896 29.5677 102.165 29.6384 102.539 29.6384H103.679V31.724H102.136C100.065 31.724 99.0304 30.7106 99.0304 28.6841V23.9652H97.8726V21.9327H99.0304V19.5114H101.504V21.9327H103.679V23.9652H101.504Z" fill="#2F1708"/>
<path fill-rule="evenodd" clip-rule="evenodd" d="M117.517 31.883C116.581 31.883 115.739 31.6768 114.99 31.2644C114.242 30.8402 113.651 30.2452 113.219 29.4793C112.798 28.7134 112.587 27.8297 112.587 26.8282C112.587 25.8267 112.803 24.943 113.236 24.1772C113.68 23.4113 114.283 22.8222 115.043 22.4098C115.803 21.9856 116.651 21.7736 117.587 21.7736C118.523 21.7736 119.371 21.9856 120.131 22.4098C120.891 22.8222 121.488 23.4113 121.92 24.1772C122.365 24.943 122.587 25.8267 122.587 26.8282C122.587 27.8297 122.359 28.7134 121.903 29.4793C121.459 30.2452 120.85 30.8402 120.078 31.2644C119.318 31.6768 118.464 31.883 117.517 31.883ZM117.517 29.7267C117.961 29.7267 118.376 29.6207 118.763 29.4086C119.16 29.1847 119.476 28.8548 119.71 28.4189C119.944 27.9829 120.061 27.4527 120.061 26.8282C120.061 25.8974 119.815 25.1846 119.324 24.6897C118.844 24.1831 118.254 23.9297 117.552 23.9297C116.85 23.9297 116.26 24.1831 115.78 24.6897C115.312 25.1846 115.078 25.8974 115.078 26.8282C115.078 27.7591 115.306 28.4778 115.762 28.9844C116.23 29.4793 116.815 29.7267 117.517 29.7267Z" fill="#2F1708"/>
<path d="M88.5718 21.7913C89.7649 21.7913 90.7239 22.1624 91.4491 22.9047C92.1859 23.6352 92.5545 24.6603 92.5545 25.9799V31.7239H90.0983V26.3157C90.0983 25.5499 89.9054 24.9667 89.5192 24.5661C89.1334 24.1537 88.6071 23.9475 87.9403 23.9475C87.2735 23.9475 86.7416 24.1537 86.3438 24.5661C85.9579 24.9667 85.765 25.5499 85.765 26.3157V31.7239H83.3088V26.3157C83.3088 25.5499 83.1155 24.9667 82.7297 24.5661C82.3439 24.1537 81.8176 23.9475 81.1508 23.9475C80.4724 23.9475 79.9345 24.1537 79.5367 24.5661C79.1508 24.9667 78.9576 25.5499 78.9576 26.3157V31.7239H76.5013V21.7913H78.9576V23.1168C79.2733 22.7044 79.6771 22.3804 80.1682 22.1447C80.6713 21.9091 81.2208 21.7913 81.8176 21.7913C82.5776 21.7913 83.256 21.9562 83.8527 22.2861C84.4491 22.6043 84.911 23.0638 85.2387 23.6647C85.5545 23.0991 86.0104 22.6455 86.6071 22.3038C87.2151 21.9621 87.8702 21.7913 88.5718 21.7913Z" fill="#2F1708"/>
<path d="M73.6548 22.2331C73.1518 22.5277 72.7423 22.9342 72.4265 23.4526V21.9327H69.9703V31.7239H72.4265V26.846C72.4265 25.9387 72.6195 25.3025 73.0057 24.9372C73.4031 24.5719 73.9878 24.3893 74.7599 24.3893H75.409V21.7913C74.7543 21.7913 74.1691 21.9385 73.6548 22.2331Z" fill="#2F1708"/>
<path fill-rule="evenodd" clip-rule="evenodd" d="M68.7394 26.6162C68.7394 26.9696 68.7162 27.2877 68.6693 27.5705H61.5637C61.6221 28.2775 61.8678 28.8313 62.3005 29.2319C62.7335 29.6325 63.2654 29.8328 63.897 29.8328C64.8095 29.8328 65.4587 29.4381 65.8445 28.6487H68.4936C68.2131 29.5913 67.6752 30.3689 66.8795 30.9816C66.0843 31.5825 65.1077 31.883 63.9498 31.883C63.0141 31.883 62.172 31.6768 61.4236 31.2644C60.6868 30.8402 60.1076 30.2452 59.6866 29.4793C59.2772 28.7134 59.0726 27.8297 59.0726 26.8282C59.0726 25.815 59.2772 24.9254 59.6866 24.1595C60.096 23.3936 60.6691 22.8045 61.406 22.3921C62.1428 21.9797 62.9909 21.7736 63.9498 21.7736C64.874 21.7736 65.6984 21.9739 66.4236 22.3745C67.1605 22.7751 67.7276 23.3465 68.1254 24.0888C68.5348 24.8193 68.7394 25.6618 68.7394 26.6162ZM66.1955 25.9092C66.1839 25.273 65.9558 24.7663 65.5111 24.3893C65.0669 24.0004 64.523 23.806 63.8798 23.806C63.2714 23.806 62.7568 23.9945 62.3357 24.3716C61.9263 24.7368 61.6749 25.2494 61.5813 25.9092H66.1955Z" fill="#2F1708"/>
<path fill-rule="evenodd" clip-rule="evenodd" d="M58.0486 25.0609C58.3643 24.4835 58.522 23.8649 58.522 23.2051C58.522 22.4746 58.3527 21.8207 58.0133 21.2433C57.686 20.666 57.1889 20.2124 56.5221 19.8824C55.8553 19.5525 55.0484 19.3876 54.1011 19.3876H49.5922V31.7239H52.0483V26.9873H54.1011C55.1069 26.9873 55.9374 26.8106 56.5921 26.4571C57.2589 26.1036 57.7444 25.6382 58.0486 25.0609ZM55.5047 24.5306C55.1769 24.837 54.6742 24.9902 53.9958 24.9902H52.0483V21.4024H53.9958C55.329 21.4024 55.9958 22.0033 55.9958 23.2051C55.9958 23.7707 55.8321 24.2125 55.5047 24.5306Z" fill="#2F1708"/>
<path d="M110.126 20.7662C109.693 20.7662 109.33 20.6307 109.038 20.3597C108.757 20.0769 108.617 19.7293 108.617 19.3169C108.617 18.9045 108.757 18.5628 109.038 18.2919C109.33 18.0091 109.693 17.8677 110.126 17.8677C110.558 17.8677 110.915 18.0091 111.196 18.2919C111.488 18.5628 111.634 18.9045 111.634 19.3169C111.634 19.7293 111.488 20.0769 111.196 20.3597C110.915 20.6307 110.558 20.7662 110.126 20.7662Z" fill="#2F1708"/>
<path d="M111.336 31.7239V21.9326H108.88V31.7239H111.336Z" fill="#2F1708"/>
<path d="M106.28 31.883C105.847 31.883 105.484 31.7475 105.192 31.4765C104.911 31.1937 104.771 30.8462 104.771 30.4338C104.771 30.0214 104.911 29.6797 105.192 29.4087C105.484 29.1259 105.847 28.9845 106.28 28.9845C106.713 28.9845 107.069 29.1259 107.35 29.4087C107.642 29.6797 107.788 30.0214 107.788 30.4338C107.788 30.8462 107.642 31.1937 107.35 31.4765C107.069 31.7475 106.713 31.883 106.28 31.883Z" fill="#2F1708"/>
<mask id="mask1_318_1642" style="mask-type:luminance" maskUnits="userSpaceOnUse" x="49" y="17" width="75" height="16">
<path d="M123.012 17.4904H49.2175V32.2073H123.012V17.4904Z" fill="white"/>
<path d="M94.4815 20.3597C94.7737 20.6307 95.1363 20.7662 95.5689 20.7662C96.0019 20.7662 96.3586 20.6307 96.6391 20.3597C96.9317 20.0769 97.0778 19.7293 97.0778 19.3169C97.0778 18.9045 96.9317 18.5628 96.6391 18.2919C96.3586 18.0091 96.0019 17.8677 95.5689 17.8677C95.1363 17.8677 94.7737 18.0091 94.4815 18.2919C94.2005 18.5628 94.0604 18.9045 94.0604 19.3169C94.0604 19.7293 94.2005 20.0769 94.4815 20.3597Z" fill="black"/>
<path d="M96.7796 31.724V21.9327H94.3234V31.724H96.7796Z" fill="black"/>
<path d="M101.504 23.9652V28.7017C101.504 29.0317 101.58 29.2732 101.732 29.4263C101.896 29.5677 102.165 29.6384 102.539 29.6384H103.679V31.724H102.136C100.065 31.724 99.0304 30.7106 99.0304 28.6841V23.9652H97.8726V21.9327H99.0304V19.5114H101.504V21.9327H103.679V23.9652H101.504Z" fill="black"/>
<path fill-rule="evenodd" clip-rule="evenodd" d="M117.517 31.8831C116.581 31.8831 115.739 31.6769 114.99 31.2645C114.242 30.8403 113.651 30.2453 113.219 29.4794C112.798 28.7136 112.587 27.8299 112.587 26.8284C112.587 25.8269 112.803 24.9432 113.236 24.1773C113.68 23.4114 114.283 22.8223 115.043 22.4099C115.803 21.9858 116.651 21.7737 117.587 21.7737C118.523 21.7737 119.371 21.9858 120.131 22.4099C120.891 22.8223 121.488 23.4114 121.92 24.1773C122.365 24.9432 122.587 25.8269 122.587 26.8284C122.587 27.8299 122.359 28.7136 121.903 29.4794C121.459 30.2453 120.85 30.8403 120.078 31.2645C119.318 31.6769 118.464 31.8831 117.517 31.8831ZM117.517 29.7269C117.961 29.7269 118.376 29.6208 118.763 29.4087C119.16 29.1849 119.476 28.855 119.71 28.419C119.944 27.983 120.061 27.4529 120.061 26.8284C120.061 25.8975 119.815 25.1847 119.324 24.6898C118.844 24.1832 118.254 23.9299 117.552 23.9299C116.85 23.9299 116.26 24.1832 115.78 24.6898C115.312 25.1847 115.078 25.8975 115.078 26.8284C115.078 27.7592 115.306 28.4779 115.762 28.9845C116.23 29.4794 116.815 29.7269 117.517 29.7269Z" fill="black"/>
<path d="M88.5718 21.7913C89.7649 21.7913 90.7239 22.1624 91.4491 22.9047C92.1859 23.6352 92.5545 24.6603 92.5545 25.9799V31.7239H90.0983V26.3157C90.0983 25.5499 89.9054 24.9667 89.5192 24.5661C89.1334 24.1537 88.6071 23.9475 87.9403 23.9475C87.2735 23.9475 86.7416 24.1537 86.3438 24.5661C85.9579 24.9667 85.765 25.5499 85.765 26.3157V31.7239H83.3088V26.3157C83.3088 25.5499 83.1155 24.9667 82.7297 24.5661C82.3439 24.1537 81.8176 23.9475 81.1508 23.9475C80.4724 23.9475 79.9345 24.1537 79.5367 24.5661C79.1508 24.9667 78.9576 25.5499 78.9576 26.3157V31.7239H76.5013V21.7913H78.9576V23.1168C79.2733 22.7044 79.6771 22.3804 80.1682 22.1447C80.6713 21.9091 81.2208 21.7913 81.8176 21.7913C82.5776 21.7913 83.256 21.9562 83.8527 22.2861C84.4491 22.6043 84.911 23.0638 85.2387 23.6647C85.5545 23.0991 86.0104 22.6455 86.6071 22.3038C87.2151 21.9621 87.8702 21.7913 88.5718 21.7913Z" fill="black"/>
<path d="M73.6548 22.2331C73.1518 22.5277 72.7423 22.9342 72.4265 23.4526V21.9327H69.9703V31.7239H72.4265V26.846C72.4265 25.9387 72.6195 25.3025 73.0057 24.9372C73.4031 24.5719 73.9878 24.3893 74.7599 24.3893H75.409V21.7913C74.7543 21.7913 74.1691 21.9385 73.6548 22.2331Z" fill="black"/>
<path fill-rule="evenodd" clip-rule="evenodd" d="M68.7394 26.6163C68.7394 26.9698 68.7162 27.2879 68.6693 27.5707H61.5637C61.6221 28.2776 61.8678 28.8314 62.3005 29.232C62.7335 29.6326 63.2654 29.8329 63.897 29.8329C64.8095 29.8329 65.4587 29.4382 65.8445 28.6488H68.4936C68.2131 29.5914 67.6752 30.369 66.8795 30.9817C66.0843 31.5826 65.1077 31.8831 63.9498 31.8831C63.0141 31.8831 62.172 31.6769 61.4236 31.2645C60.6868 30.8403 60.1076 30.2453 59.6866 29.4794C59.2772 28.7136 59.0726 27.8299 59.0726 26.8284C59.0726 25.8151 59.2772 24.9255 59.6866 24.1596C60.096 23.3938 60.6691 22.8046 61.406 22.3922C62.1428 21.9799 62.9909 21.7737 63.9498 21.7737C64.874 21.7737 65.6984 21.974 66.4236 22.3746C67.1605 22.7752 67.7276 23.3466 68.1254 24.0889C68.5348 24.8195 68.7394 25.6619 68.7394 26.6163ZM66.1955 25.9093C66.1839 25.2731 65.9558 24.7664 65.5111 24.3894C65.0669 24.0006 64.523 23.8061 63.8798 23.8061C63.2714 23.8061 62.7568 23.9947 62.3357 24.3717C61.9263 24.737 61.6749 25.2495 61.5813 25.9093H66.1955Z" fill="black"/>
<path fill-rule="evenodd" clip-rule="evenodd" d="M58.0486 25.061C58.3643 24.4836 58.522 23.8651 58.522 23.2052C58.522 22.4747 58.3527 21.8208 58.0133 21.2434C57.686 20.6661 57.1889 20.2125 56.5221 19.8826C55.8553 19.5526 55.0484 19.3877 54.1011 19.3877H49.5922V31.724H52.0483V26.9874H54.1011C55.1069 26.9874 55.9374 26.8107 56.5921 26.4572C57.2589 26.1037 57.7444 25.6383 58.0486 25.061ZM55.5047 24.5308C55.1769 24.8371 54.6742 24.9903 53.9958 24.9903H52.0483V21.4025H53.9958C55.329 21.4025 55.9958 22.0034 55.9958 23.2052C55.9958 23.7708 55.8321 24.2126 55.5047 24.5308Z" fill="black"/>
<path d="M110.126 20.7662C109.693 20.7662 109.33 20.6307 109.038 20.3597C108.757 20.0769 108.617 19.7293 108.617 19.3169C108.617 18.9045 108.757 18.5628 109.038 18.2919C109.33 18.0091 109.693 17.8677 110.126 17.8677C110.558 17.8677 110.915 18.0091 111.196 18.2919C111.488 18.5628 111.634 18.9045 111.634 19.3169C111.634 19.7293 111.488 20.0769 111.196 20.3597C110.915 20.6307 110.558 20.7662 110.126 20.7662Z" fill="black"/>
<path d="M111.336 31.724V21.9327H108.88V31.724H111.336Z" fill="black"/>
<path d="M106.28 31.883C105.847 31.883 105.484 31.7475 105.192 31.4765C104.911 31.1937 104.771 30.8462 104.771 30.4338C104.771 30.0214 104.911 29.6797 105.192 29.4087C105.484 29.1259 105.847 28.9845 106.28 28.9845C106.713 28.9845 107.069 29.1259 107.35 29.4087C107.642 29.6797 107.788 30.0214 107.788 30.4338C107.788 30.8462 107.642 31.1937 107.35 31.4765C107.069 31.7475 106.713 31.883 106.28 31.883Z" fill="black"/>
</mask>
<g mask="url(#mask1_318_1642)">
<path d="M94.4815 20.3597C94.7737 20.6307 95.1363 20.7662 95.5689 20.7662C96.0019 20.7662 96.3586 20.6307 96.6391 20.3597C96.9317 20.0769 97.0778 19.7293 97.0778 19.3169C97.0778 18.9045 96.9317 18.5628 96.6391 18.2919C96.3586 18.0091 96.0019 17.8677 95.5689 17.8677C95.1363 17.8677 94.7737 18.0091 94.4815 18.2919C94.2005 18.5628 94.0604 18.9045 94.0604 19.3169C94.0604 19.7293 94.2005 20.0769 94.4815 20.3597Z" stroke="#2F1708" stroke-width="0.4"/>
</g>
<mask id="mask2_318_1642" style="mask-type:luminance" maskUnits="userSpaceOnUse" x="49" y="17" width="75" height="16">
<path d="M123.012 17.4904H49.2175V32.2073H123.012V17.4904Z" fill="white"/>
<path d="M94.4815 20.3597C94.7737 20.6307 95.1363 20.7662 95.5689 20.7662C96.0019 20.7662 96.3586 20.6307 96.6391 20.3597C96.9317 20.0769 97.0778 19.7293 97.0778 19.3169C97.0778 18.9045 96.9317 18.5628 96.6391 18.2919C96.3586 18.0091 96.0019 17.8677 95.5689 17.8677C95.1363 17.8677 94.7737 18.0091 94.4815 18.2919C94.2005 18.5628 94.0604 18.9045 94.0604 19.3169C94.0604 19.7293 94.2005 20.0769 94.4815 20.3597Z" fill="black"/>
<path d="M96.7796 31.724V21.9327H94.3234V31.724H96.7796Z" fill="black"/>
<path d="M101.504 23.9652V28.7017C101.504 29.0317 101.58 29.2732 101.732 29.4263C101.896 29.5677 102.165 29.6384 102.539 29.6384H103.679V31.724H102.136C100.065 31.724 99.0304 30.7106 99.0304 28.6841V23.9652H97.8726V21.9327H99.0304V19.5114H101.504V21.9327H103.679V23.9652H101.504Z" fill="black"/>
<path fill-rule="evenodd" clip-rule="evenodd" d="M117.517 31.8831C116.581 31.8831 115.739 31.6769 114.99 31.2645C114.242 30.8403 113.651 30.2453 113.219 29.4794C112.798 28.7136 112.587 27.8299 112.587 26.8284C112.587 25.8269 112.803 24.9432 113.236 24.1773C113.68 23.4114 114.283 22.8223 115.043 22.4099C115.803 21.9858 116.651 21.7737 117.587 21.7737C118.523 21.7737 119.371 21.9858 120.131 22.4099C120.891 22.8223 121.488 23.4114 121.92 24.1773C122.365 24.9432 122.587 25.8269 122.587 26.8284C122.587 27.8299 122.359 28.7136 121.903 29.4794C121.459 30.2453 120.85 30.8403 120.078 31.2645C119.318 31.6769 118.464 31.8831 117.517 31.8831ZM117.517 29.7269C117.961 29.7269 118.376 29.6208 118.763 29.4087C119.16 29.1849 119.476 28.855 119.71 28.419C119.944 27.983 120.061 27.4529 120.061 26.8284C120.061 25.8975 119.815 25.1847 119.324 24.6898C118.844 24.1832 118.254 23.9299 117.552 23.9299C116.85 23.9299 116.26 24.1832 115.78 24.6898C115.312 25.1847 115.078 25.8975 115.078 26.8284C115.078 27.7592 115.306 28.4779 115.762 28.9845C116.23 29.4794 116.815 29.7269 117.517 29.7269Z" fill="black"/>
<path d="M88.5718 21.7913C89.7649 21.7913 90.7239 22.1624 91.4491 22.9047C92.1859 23.6352 92.5545 24.6603 92.5545 25.9799V31.7239H90.0983V26.3157C90.0983 25.5499 89.9054 24.9667 89.5192 24.5661C89.1334 24.1537 88.6071 23.9475 87.9403 23.9475C87.2735 23.9475 86.7416 24.1537 86.3438 24.5661C85.9579 24.9667 85.765 25.5499 85.765 26.3157V31.7239H83.3088V26.3157C83.3088 25.5499 83.1155 24.9667 82.7297 24.5661C82.3439 24.1537 81.8176 23.9475 81.1508 23.9475C80.4724 23.9475 79.9345 24.1537 79.5367 24.5661C79.1508 24.9667 78.9576 25.5499 78.9576 26.3157V31.7239H76.5013V21.7913H78.9576V23.1168C79.2733 22.7044 79.6771 22.3804 80.1682 22.1447C80.6713 21.9091 81.2208 21.7913 81.8176 21.7913C82.5776 21.7913 83.256 21.9562 83.8527 22.2861C84.4491 22.6043 84.911 23.0638 85.2387 23.6647C85.5545 23.0991 86.0104 22.6455 86.6071 22.3038C87.2151 21.9621 87.8702 21.7913 88.5718 21.7913Z" fill="black"/>
<path d="M73.6548 22.2331C73.1518 22.5277 72.7423 22.9342 72.4265 23.4526V21.9327H69.9703V31.7239H72.4265V26.846C72.4265 25.9387 72.6195 25.3025 73.0057 24.9372C73.4031 24.5719 73.9878 24.3893 74.7599 24.3893H75.409V21.7913C74.7543 21.7913 74.1691 21.9385 73.6548 22.2331Z" fill="black"/>
<path fill-rule="evenodd" clip-rule="evenodd" d="M68.7394 26.6163C68.7394 26.9698 68.7162 27.2879 68.6693 27.5707H61.5637C61.6221 28.2776 61.8678 28.8314 62.3005 29.232C62.7335 29.6326 63.2654 29.8329 63.897 29.8329C64.8095 29.8329 65.4587 29.4382 65.8445 28.6488H68.4936C68.2131 29.5914 67.6752 30.369 66.8795 30.9817C66.0843 31.5826 65.1077 31.8831 63.9498 31.8831C63.0141 31.8831 62.172 31.6769 61.4236 31.2645C60.6868 30.8403 60.1076 30.2453 59.6866 29.4794C59.2772 28.7136 59.0726 27.8299 59.0726 26.8284C59.0726 25.8151 59.2772 24.9255 59.6866 24.1596C60.096 23.3938 60.6691 22.8046 61.406 22.3922C62.1428 21.9799 62.9909 21.7737 63.9498 21.7737C64.874 21.7737 65.6984 21.974 66.4236 22.3746C67.1605 22.7752 67.7276 23.3466 68.1254 24.0889C68.5348 24.8195 68.7394 25.6619 68.7394 26.6163ZM66.1955 25.9093C66.1839 25.2731 65.9558 24.7664 65.5111 24.3894C65.0669 24.0006 64.523 23.8061 63.8798 23.8061C63.2714 23.8061 62.7568 23.9947 62.3357 24.3717C61.9263 24.737 61.6749 25.2495 61.5813 25.9093H66.1955Z" fill="black"/>
<path fill-rule="evenodd" clip-rule="evenodd" d="M58.0486 25.061C58.3643 24.4836 58.522 23.8651 58.522 23.2052C58.522 22.4747 58.3527 21.8208 58.0133 21.2434C57.686 20.6661 57.1889 20.2125 56.5221 19.8826C55.8553 19.5526 55.0484 19.3877 54.1011 19.3877H49.5922V31.724H52.0483V26.9874H54.1011C55.1069 26.9874 55.9374 26.8107 56.5921 26.4572C57.2589 26.1037 57.7444 25.6383 58.0486 25.061ZM55.5047 24.5308C55.1769 24.8371 54.6742 24.9903 53.9958 24.9903H52.0483V21.4025H53.9958C55.329 21.4025 55.9958 22.0034 55.9958 23.2052C55.9958 23.7708 55.8321 24.2126 55.5047 24.5308Z" fill="black"/>
<path d="M110.126 20.7662C109.693 20.7662 109.33 20.6307 109.038 20.3597C108.757 20.0769 108.617 19.7293 108.617 19.3169C108.617 18.9045 108.757 18.5628 109.038 18.2919C109.33 18.0091 109.693 17.8677 110.126 17.8677C110.558 17.8677 110.915 18.0091 111.196 18.2919C111.488 18.5628 111.634 18.9045 111.634 19.3169C111.634 19.7293 111.488 20.0769 111.196 20.3597C110.915 20.6307 110.558 20.7662 110.126 20.7662Z" fill="black"/>
<path d="M111.336 31.724V21.9327H108.88V31.724H111.336Z" fill="black"/>
<path d="M106.28 31.883C105.847 31.883 105.484 31.7475 105.192 31.4765C104.911 31.1937 104.771 30.8462 104.771 30.4338C104.771 30.0214 104.911 29.6797 105.192 29.4087C105.484 29.1259 105.847 28.9845 106.28 28.9845C106.713 28.9845 107.069 29.1259 107.35 29.4087C107.642 29.6797 107.788 30.0214 107.788 30.4338C107.788 30.8462 107.642 31.1937 107.35 31.4765C107.069 31.7475 106.713 31.883 106.28 31.883Z" fill="black"/>
</mask>
<g mask="url(#mask2_318_1642)">
<path d="M96.7796 31.724V21.9327H94.3234V31.724H96.7796Z" stroke="#2F1708" stroke-width="0.4"/>
</g>
<mask id="mask3_318_1642" style="mask-type:luminance" maskUnits="userSpaceOnUse" x="49" y="17" width="75" height="16">
<path d="M123.012 17.4904H49.2175V32.2073H123.012V17.4904Z" fill="white"/>
<path d="M94.4815 20.3597C94.7737 20.6307 95.1363 20.7662 95.5689 20.7662C96.0019 20.7662 96.3586 20.6307 96.6391 20.3597C96.9317 20.0769 97.0778 19.7293 97.0778 19.3169C97.0778 18.9045 96.9317 18.5628 96.6391 18.2919C96.3586 18.0091 96.0019 17.8677 95.5689 17.8677C95.1363 17.8677 94.7737 18.0091 94.4815 18.2919C94.2005 18.5628 94.0604 18.9045 94.0604 19.3169C94.0604 19.7293 94.2005 20.0769 94.4815 20.3597Z" fill="black"/>
<path d="M96.7796 31.724V21.9327H94.3234V31.724H96.7796Z" fill="black"/>
<path d="M101.504 23.9652V28.7017C101.504 29.0317 101.58 29.2732 101.732 29.4263C101.896 29.5677 102.165 29.6384 102.539 29.6384H103.679V31.724H102.136C100.065 31.724 99.0304 30.7106 99.0304 28.6841V23.9652H97.8726V21.9327H99.0304V19.5114H101.504V21.9327H103.679V23.9652H101.504Z" fill="black"/>
<path fill-rule="evenodd" clip-rule="evenodd" d="M117.517 31.8831C116.581 31.8831 115.739 31.6769 114.99 31.2645C114.242 30.8403 113.651 30.2453 113.219 29.4794C112.798 28.7136 112.587 27.8299 112.587 26.8284C112.587 25.8269 112.803 24.9432 113.236 24.1773C113.68 23.4114 114.283 22.8223 115.043 22.4099C115.803 21.9858 116.651 21.7737 117.587 21.7737C118.523 21.7737 119.371 21.9858 120.131 22.4099C120.891 22.8223 121.488 23.4114 121.92 24.1773C122.365 24.9432 122.587 25.8269 122.587 26.8284C122.587 27.8299 122.359 28.7136 121.903 29.4794C121.459 30.2453 120.85 30.8403 120.078 31.2645C119.318 31.6769 118.464 31.8831 117.517 31.8831ZM117.517 29.7269C117.961 29.7269 118.376 29.6208 118.763 29.4087C119.16 29.1849 119.476 28.855 119.71 28.419C119.944 27.983 120.061 27.4529 120.061 26.8284C120.061 25.8975 119.815 25.1847 119.324 24.6898C118.844 24.1832 118.254 23.9299 117.552 23.9299C116.85 23.9299 116.26 24.1832 115.78 24.6898C115.312 25.1847 115.078 25.8975 115.078 26.8284C115.078 27.7592 115.306 28.4779 115.762 28.9845C116.23 29.4794 116.815 29.7269 117.517 29.7269Z" fill="black"/>
<path d="M88.5718 21.7913C89.7649 21.7913 90.7239 22.1624 91.4491 22.9047C92.1859 23.6352 92.5545 24.6603 92.5545 25.9799V31.7239H90.0983V26.3157C90.0983 25.5499 89.9054 24.9667 89.5192 24.5661C89.1334 24.1537 88.6071 23.9475 87.9403 23.9475C87.2735 23.9475 86.7416 24.1537 86.3438 24.5661C85.9579 24.9667 85.765 25.5499 85.765 26.3157V31.7239H83.3088V26.3157C83.3088 25.5499 83.1155 24.9667 82.7297 24.5661C82.3439 24.1537 81.8176 23.9475 81.1508 23.9475C80.4724 23.9475 79.9345 24.1537 79.5367 24.5661C79.1508 24.9667 78.9576 25.5499 78.9576 26.3157V31.7239H76.5013V21.7913H78.9576V23.1168C79.2733 22.7044 79.6771 22.3804 80.1682 22.1447C80.6713 21.9091 81.2208 21.7913 81.8176 21.7913C82.5776 21.7913 83.256 21.9562 83.8527 22.2861C84.4491 22.6043 84.911 23.0638 85.2387 23.6647C85.5545 23.0991 86.0104 22.6455 86.6071 22.3038C87.2151 21.9621 87.8702 21.7913 88.5718 21.7913Z" fill="black"/>
<path d="M73.6548 22.2331C73.1518 22.5277 72.7423 22.9342 72.4265 23.4526V21.9327H69.9703V31.7239H72.4265V26.846C72.4265 25.9387 72.6195 25.3025 73.0057 24.9372C73.4031 24.5719 73.9878 24.3893 74.7599 24.3893H75.409V21.7913C74.7543 21.7913 74.1691 21.9385 73.6548 22.2331Z" fill="black"/>
<path fill-rule="evenodd" clip-rule="evenodd" d="M68.7394 26.6163C68.7394 26.9698 68.7162 27.2879 68.6693 27.5707H61.5637C61.6221 28.2776 61.8678 28.8314 62.3005 29.232C62.7335 29.6326 63.2654 29.8329 63.897 29.8329C64.8095 29.8329 65.4587 29.4382 65.8445 28.6488H68.4936C68.2131 29.5914 67.6752 30.369 66.8795 30.9817C66.0843 31.5826 65.1077 31.8831 63.9498 31.8831C63.0141 31.8831 62.172 31.6769 61.4236 31.2645C60.6868 30.8403 60.1076 30.2453 59.6866 29.4794C59.2772 28.7136 59.0726 27.8299 59.0726 26.8284C59.0726 25.8151 59.2772 24.9255 59.6866 24.1596C60.096 23.3938 60.6691 22.8046 61.406 22.3922C62.1428 21.9799 62.9909 21.7737 63.9498 21.7737C64.874 21.7737 65.6984 21.974 66.4236 22.3746C67.1605 22.7752 67.7276 23.3466 68.1254 24.0889C68.5348 24.8195 68.7394 25.6619 68.7394 26.6163ZM66.1955 25.9093C66.1839 25.2731 65.9558 24.7664 65.5111 24.3894C65.0669 24.0006 64.523 23.8061 63.8798 23.8061C63.2714 23.8061 62.7568 23.9947 62.3357 24.3717C61.9263 24.737 61.6749 25.2495 61.5813 25.9093H66.1955Z" fill="black"/>
<path fill-rule="evenodd" clip-rule="evenodd" d="M58.0486 25.061C58.3643 24.4836 58.522 23.8651 58.522 23.2052C58.522 22.4747 58.3527 21.8208 58.0133 21.2434C57.686 20.6661 57.1889 20.2125 56.5221 19.8826C55.8553 19.5526 55.0484 19.3877 54.1011 19.3877H49.5922V31.724H52.0483V26.9874H54.1011C55.1069 26.9874 55.9374 26.8107 56.5921 26.4572C57.2589 26.1037 57.7444 25.6383 58.0486 25.061ZM55.5047 24.5308C55.1769 24.8371 54.6742 24.9903 53.9958 24.9903H52.0483V21.4025H53.9958C55.329 21.4025 55.9958 22.0034 55.9958 23.2052C55.9958 23.7708 55.8321 24.2126 55.5047 24.5308Z" fill="black"/>
<path d="M110.126 20.7662C109.693 20.7662 109.33 20.6307 109.038 20.3597C108.757 20.0769 108.617 19.7293 108.617 19.3169C108.617 18.9045 108.757 18.5628 109.038 18.2919C109.33 18.0091 109.693 17.8677 110.126 17.8677C110.558 17.8677 110.915 18.0091 111.196 18.2919C111.488 18.5628 111.634 18.9045 111.634 19.3169C111.634 19.7293 111.488 20.0769 111.196 20.3597C110.915 20.6307 110.558 20.7662 110.126 20.7662Z" fill="black"/>
<path d="M111.336 31.724V21.9327H108.88V31.724H111.336Z" fill="black"/>
<path d="M106.28 31.883C105.847 31.883 105.484 31.7475 105.192 31.4765C104.911 31.1937 104.771 30.8462 104.771 30.4338C104.771 30.0214 104.911 29.6797 105.192 29.4087C105.484 29.1259 105.847 28.9845 106.28 28.9845C106.713 28.9845 107.069 29.1259 107.35 29.4087C107.642 29.6797 107.788 30.0214 107.788 30.4338C107.788 30.8462 107.642 31.1937 107.35 31.4765C107.069 31.7475 106.713 31.883 106.28 31.883Z" fill="black"/>
</mask>
<g mask="url(#mask3_318_1642)">
<path d="M101.504 23.9652V28.7017C101.504 29.0317 101.58 29.2732 101.732 29.4263C101.896 29.5677 102.165 29.6384 102.539 29.6384H103.679V31.724H102.136C100.065 31.724 99.0304 30.7106 99.0304 28.6841V23.9652H97.8726V21.9327H99.0304V19.5114H101.504V21.9327H103.679V23.9652H101.504Z" stroke="#2F1708" stroke-width="0.4"/>
</g>
<mask id="mask4_318_1642" style="mask-type:luminance" maskUnits="userSpaceOnUse" x="49" y="17" width="75" height="16">
<path d="M123.012 17.4904H49.2175V32.2073H123.012V17.4904Z" fill="white"/>
<path d="M94.4815 20.3597C94.7737 20.6307 95.1363 20.7662 95.5689 20.7662C96.0019 20.7662 96.3586 20.6307 96.6391 20.3597C96.9317 20.0769 97.0778 19.7293 97.0778 19.3169C97.0778 18.9045 96.9317 18.5628 96.6391 18.2919C96.3586 18.0091 96.0019 17.8677 95.5689 17.8677C95.1363 17.8677 94.7737 18.0091 94.4815 18.2919C94.2005 18.5628 94.0604 18.9045 94.0604 19.3169C94.0604 19.7293 94.2005 20.0769 94.4815 20.3597Z" fill="black"/>
<path d="M96.7796 31.724V21.9327H94.3234V31.724H96.7796Z" fill="black"/>
<path d="M101.504 23.9652V28.7017C101.504 29.0317 101.58 29.2732 101.732 29.4263C101.896 29.5677 102.165 29.6384 102.539 29.6384H103.679V31.724H102.136C100.065 31.724 99.0304 30.7106 99.0304 28.6841V23.9652H97.8726V21.9327H99.0304V19.5114H101.504V21.9327H103.679V23.9652H101.504Z" fill="black"/>
<path fill-rule="evenodd" clip-rule="evenodd" d="M117.517 31.8831C116.581 31.8831 115.739 31.6769 114.99 31.2645C114.242 30.8403 113.651 30.2453 113.219 29.4794C112.798 28.7136 112.587 27.8299 112.587 26.8284C112.587 25.8269 112.803 24.9432 113.236 24.1773C113.68 23.4114 114.283 22.8223 115.043 22.4099C115.803 21.9858 116.651 21.7737 117.587 21.7737C118.523 21.7737 119.371 21.9858 120.131 22.4099C120.891 22.8223 121.488 23.4114 121.92 24.1773C122.365 24.9432 122.587 25.8269 122.587 26.8284C122.587 27.8299 122.359 28.7136 121.903 29.4794C121.459 30.2453 120.85 30.8403 120.078 31.2645C119.318 31.6769 118.464 31.8831 117.517 31.8831ZM117.517 29.7269C117.961 29.7269 118.376 29.6208 118.763 29.4087C119.16 29.1849 119.476 28.855 119.71 28.419C119.944 27.983 120.061 27.4529 120.061 26.8284C120.061 25.8975 119.815 25.1847 119.324 24.6898C118.844 24.1832 118.254 23.9299 117.552 23.9299C116.85 23.9299 116.26 24.1832 115.78 24.6898C115.312 25.1847 115.078 25.8975 115.078 26.8284C115.078 27.7592 115.306 28.4779 115.762 28.9845C116.23 29.4794 116.815 29.7269 117.517 29.7269Z" fill="black"/>
<path d="M88.5718 21.7913C89.7649 21.7913 90.7239 22.1624 91.4491 22.9047C92.1859 23.6352 92.5545 24.6603 92.5545 25.9799V31.7239H90.0983V26.3157C90.0983 25.5499 89.9054 24.9667 89.5192 24.5661C89.1334 24.1537 88.6071 23.9475 87.9403 23.9475C87.2735 23.9475 86.7416 24.1537 86.3438 24.5661C85.9579 24.9667 85.765 25.5499 85.765 26.3157V31.7239H83.3088V26.3157C83.3088 25.5499 83.1155 24.9667 82.7297 24.5661C82.3439 24.1537 81.8176 23.9475 81.1508 23.9475C80.4724 23.9475 79.9345 24.1537 79.5367 24.5661C79.1508 24.9667 78.9576 25.5499 78.9576 26.3157V31.7239H76.5013V21.7913H78.9576V23.1168C79.2733 22.7044 79.6771 22.3804 80.1682 22.1447C80.6713 21.9091 81.2208 21.7913 81.8176 21.7913C82.5776 21.7913 83.256 21.9562 83.8527 22.2861C84.4491 22.6043 84.911 23.0638 85.2387 23.6647C85.5545 23.0991 86.0104 22.6455 86.6071 22.3038C87.2151 21.9621 87.8702 21.7913 88.5718 21.7913Z" fill="black"/>
<path d="M73.6548 22.2331C73.1518 22.5277 72.7423 22.9342 72.4265 23.4526V21.9327H69.9703V31.7239H72.4265V26.846C72.4265 25.9387 72.6195 25.3025 73.0057 24.9372C73.4031 24.5719 73.9878 24.3893 74.7599 24.3893H75.409V21.7913C74.7543 21.7913 74.1691 21.9385 73.6548 22.2331Z" fill="black"/>
<path fill-rule="evenodd" clip-rule="evenodd" d="M68.7394 26.6163C68.7394 26.9698 68.7162 27.2879 68.6693 27.5707H61.5637C61.6221 28.2776 61.8678 28.8314 62.3005 29.232C62.7335 29.6326 63.2654 29.8329 63.897 29.8329C64.8095 29.8329 65.4587 29.4382 65.8445 28.6488H68.4936C68.2131 29.5914 67.6752 30.369 66.8795 30.9817C66.0843 31.5826 65.1077 31.8831 63.9498 31.8831C63.0141 31.8831 62.172 31.6769 61.4236 31.2645C60.6868 30.8403 60.1076 30.2453 59.6866 29.4794C59.2772 28.7136 59.0726 27.8299 59.0726 26.8284C59.0726 25.8151 59.2772 24.9255 59.6866 24.1596C60.096 23.3938 60.6691 22.8046 61.406 22.3922C62.1428 21.9799 62.9909 21.7737 63.9498 21.7737C64.874 21.7737 65.6984 21.974 66.4236 22.3746C67.1605 22.7752 67.7276 23.3466 68.1254 24.0889C68.5348 24.8195 68.7394 25.6619 68.7394 26.6163ZM66.1955 25.9093C66.1839 25.2731 65.9558 24.7664 65.5111 24.3894C65.0669 24.0006 64.523 23.8061 63.8798 23.8061C63.2714 23.8061 62.7568 23.9947 62.3357 24.3717C61.9263 24.737 61.6749 25.2495 61.5813 25.9093H66.1955Z" fill="black"/>
<path fill-rule="evenodd" clip-rule="evenodd" d="M58.0486 25.061C58.3643 24.4836 58.522 23.8651 58.522 23.2052C58.522 22.4747 58.3527 21.8208 58.0133 21.2434C57.686 20.6661 57.1889 20.2125 56.5221 19.8826C55.8553 19.5526 55.0484 19.3877 54.1011 19.3877H49.5922V31.724H52.0483V26.9874H54.1011C55.1069 26.9874 55.9374 26.8107 56.5921 26.4572C57.2589 26.1037 57.7444 25.6383 58.0486 25.061ZM55.5047 24.5308C55.1769 24.8371 54.6742 24.9903 53.9958 24.9903H52.0483V21.4025H53.9958C55.329 21.4025 55.9958 22.0034 55.9958 23.2052C55.9958 23.7708 55.8321 24.2126 55.5047 24.5308Z" fill="black"/>
<path d="M110.126 20.7662C109.693 20.7662 109.33 20.6307 109.038 20.3597C108.757 20.0769 108.617 19.7293 108.617 19.3169C108.617 18.9045 108.757 18.5628 109.038 18.2919C109.33 18.0091 109.693 17.8677 110.126 17.8677C110.558 17.8677 110.915 18.0091 111.196 18.2919C111.488 18.5628 111.634 18.9045 111.634 19.3169C111.634 19.7293 111.488 20.0769 111.196 20.3597C110.915 20.6307 110.558 20.7662 110.126 20.7662Z" fill="black"/>
<path d="M111.336 31.724V21.9327H108.88V31.724H111.336Z" fill="black"/>
<path d="M106.28 31.883C105.847 31.883 105.484 31.7475 105.192 31.4765C104.911 31.1937 104.771 30.8462 104.771 30.4338C104.771 30.0214 104.911 29.6797 105.192 29.4087C105.484 29.1259 105.847 28.9845 106.28 28.9845C106.713 28.9845 107.069 29.1259 107.35 29.4087C107.642 29.6797 107.788 30.0214 107.788 30.4338C107.788 30.8462 107.642 31.1937 107.35 31.4765C107.069 31.7475 106.713 31.883 106.28 31.883Z" fill="black"/>
</mask>
<g mask="url(#mask4_318_1642)">
<path fill-rule="evenodd" clip-rule="evenodd" d="M117.517 31.8831C116.581 31.8831 115.739 31.6769 114.99 31.2645C114.242 30.8403 113.651 30.2453 113.219 29.4794C112.798 28.7136 112.587 27.8299 112.587 26.8284C112.587 25.8269 112.803 24.9432 113.236 24.1773C113.68 23.4114 114.283 22.8223 115.043 22.4099C115.803 21.9858 116.651 21.7737 117.587 21.7737C118.523 21.7737 119.371 21.9858 120.131 22.4099C120.891 22.8223 121.488 23.4114 121.92 24.1773C122.365 24.9432 122.587 25.8269 122.587 26.8284C122.587 27.8299 122.359 28.7136 121.903 29.4794C121.459 30.2453 120.85 30.8403 120.078 31.2645C119.318 31.6769 118.464 31.8831 117.517 31.8831ZM117.517 29.7269C117.961 29.7269 118.376 29.6208 118.763 29.4087C119.16 29.1849 119.476 28.855 119.71 28.419C119.944 27.983 120.061 27.4529 120.061 26.8284C120.061 25.8975 119.815 25.1847 119.324 24.6898C118.844 24.1832 118.254 23.9299 117.552 23.9299C116.85 23.9299 116.26 24.1832 115.78 24.6898C115.312 25.1847 115.078 25.8975 115.078 26.8284C115.078 27.7592 115.306 28.4779 115.762 28.9845C116.23 29.4794 116.815 29.7269 117.517 29.7269Z" stroke="#2F1708" stroke-width="0.4"/>
</g>
<mask id="mask5_318_1642" style="mask-type:luminance" maskUnits="userSpaceOnUse" x="49" y="17" width="75" height="16">
<path d="M123.012 17.4904H49.2175V32.2073H123.012V17.4904Z" fill="white"/>
<path d="M94.4815 20.3597C94.7737 20.6307 95.1363 20.7662 95.5689 20.7662C96.0019 20.7662 96.3586 20.6307 96.6391 20.3597C96.9317 20.0769 97.0778 19.7293 97.0778 19.3169C97.0778 18.9045 96.9317 18.5628 96.6391 18.2919C96.3586 18.0091 96.0019 17.8677 95.5689 17.8677C95.1363 17.8677 94.7737 18.0091 94.4815 18.2919C94.2005 18.5628 94.0604 18.9045 94.0604 19.3169C94.0604 19.7293 94.2005 20.0769 94.4815 20.3597Z" fill="black"/>
<path d="M96.7796 31.724V21.9327H94.3234V31.724H96.7796Z" fill="black"/>
<path d="M101.504 23.9652V28.7017C101.504 29.0317 101.58 29.2732 101.732 29.4263C101.896 29.5677 102.165 29.6384 102.539 29.6384H103.679V31.724H102.136C100.065 31.724 99.0304 30.7106 99.0304 28.6841V23.9652H97.8726V21.9327H99.0304V19.5114H101.504V21.9327H103.679V23.9652H101.504Z" fill="black"/>
<path fill-rule="evenodd" clip-rule="evenodd" d="M117.517 31.8831C116.581 31.8831 115.739 31.6769 114.99 31.2645C114.242 30.8403 113.651 30.2453 113.219 29.4794C112.798 28.7136 112.587 27.8299 112.587 26.8284C112.587 25.8269 112.803 24.9432 113.236 24.1773C113.68 23.4114 114.283 22.8223 115.043 22.4099C115.803 21.9858 116.651 21.7737 117.587 21.7737C118.523 21.7737 119.371 21.9858 120.131 22.4099C120.891 22.8223 121.488 23.4114 121.92 24.1773C122.365 24.9432 122.587 25.8269 122.587 26.8284C122.587 27.8299 122.359 28.7136 121.903 29.4794C121.459 30.2453 120.85 30.8403 120.078 31.2645C119.318 31.6769 118.464 31.8831 117.517 31.8831ZM117.517 29.7269C117.961 29.7269 118.376 29.6208 118.763 29.4087C119.16 29.1849 119.476 28.855 119.71 28.419C119.944 27.983 120.061 27.4529 120.061 26.8284C120.061 25.8975 119.815 25.1847 119.324 24.6898C118.844 24.1832 118.254 23.9299 117.552 23.9299C116.85 23.9299 116.26 24.1832 115.78 24.6898C115.312 25.1847 115.078 25.8975 115.078 26.8284C115.078 27.7592 115.306 28.4779 115.762 28.9845C116.23 29.4794 116.815 29.7269 117.517 29.7269Z" fill="black"/>
<path d="M88.5718 21.7913C89.7649 21.7913 90.7239 22.1624 91.4491 22.9047C92.1859 23.6352 92.5545 24.6603 92.5545 25.9799V31.7239H90.0983V26.3157C90.0983 25.5499 89.9054 24.9667 89.5192 24.5661C89.1334 24.1537 88.6071 23.9475 87.9403 23.9475C87.2735 23.9475 86.7416 24.1537 86.3438 24.5661C85.9579 24.9667 85.765 25.5499 85.765 26.3157V31.7239H83.3088V26.3157C83.3088 25.5499 83.1155 24.9667 82.7297 24.5661C82.3439 24.1537 81.8176 23.9475 81.1508 23.9475C80.4724 23.9475 79.9345 24.1537 79.5367 24.5661C79.1508 24.9667 78.9576 25.5499 78.9576 26.3157V31.7239H76.5013V21.7913H78.9576V23.1168C79.2733 22.7044 79.6771 22.3804 80.1682 22.1447C80.6713 21.9091 81.2208 21.7913 81.8176 21.7913C82.5776 21.7913 83.256 21.9562 83.8527 22.2861C84.4491 22.6043 84.911 23.0638 85.2387 23.6647C85.5545 23.0991 86.0104 22.6455 86.6071 22.3038C87.2151 21.9621 87.8702 21.7913 88.5718 21.7913Z" fill="black"/>
<path d="M73.6548 22.2331C73.1518 22.5277 72.7423 22.9342 72.4265 23.4526V21.9327H69.9703V31.7239H72.4265V26.846C72.4265 25.9387 72.6195 25.3025 73.0057 24.9372C73.4031 24.5719 73.9878 24.3893 74.7599 24.3893H75.409V21.7913C74.7543 21.7913 74.1691 21.9385 73.6548 22.2331Z" fill="black"/>
<path fill-rule="evenodd" clip-rule="evenodd" d="M68.7394 26.6163C68.7394 26.9698 68.7162 27.2879 68.6693 27.5707H61.5637C61.6221 28.2776 61.8678 28.8314 62.3005 29.232C62.7335 29.6326 63.2654 29.8329 63.897 29.8329C64.8095 29.8329 65.4587 29.4382 65.8445 28.6488H68.4936C68.2131 29.5914 67.6752 30.369 66.8795 30.9817C66.0843 31.5826 65.1077 31.8831 63.9498 31.8831C63.0141 31.8831 62.172 31.6769 61.4236 31.2645C60.6868 30.8403 60.1076 30.2453 59.6866 29.4794C59.2772 28.7136 59.0726 27.8299 59.0726 26.8284C59.0726 25.8151 59.2772 24.9255 59.6866 24.1596C60.096 23.3938 60.6691 22.8046 61.406 22.3922C62.1428 21.9799 62.9909 21.7737 63.9498 21.7737C64.874 21.7737 65.6984 21.974 66.4236 22.3746C67.1605 22.7752 67.7276 23.3466 68.1254 24.0889C68.5348 24.8195 68.7394 25.6619 68.7394 26.6163ZM66.1955 25.9093C66.1839 25.2731 65.9558 24.7664 65.5111 24.3894C65.0669 24.0006 64.523 23.8061 63.8798 23.8061C63.2714 23.8061 62.7568 23.9947 62.3357 24.3717C61.9263 24.737 61.6749 25.2495 61.5813 25.9093H66.1955Z" fill="black"/>
<path fill-rule="evenodd" clip-rule="evenodd" d="M58.0486 25.061C58.3643 24.4836 58.522 23.8651 58.522 23.2052C58.522 22.4747 58.3527 21.8208 58.0133 21.2434C57.686 20.6661 57.1889 20.2125 56.5221 19.8826C55.8553 19.5526 55.0484 19.3877 54.1011 19.3877H49.5922V31.724H52.0483V26.9874H54.1011C55.1069 26.9874 55.9374 26.8107 56.5921 26.4572C57.2589 26.1037 57.7444 25.6383 58.0486 25.061ZM55.5047 24.5308C55.1769 24.8371 54.6742 24.9903 53.9958 24.9903H52.0483V21.4025H53.9958C55.329 21.4025 55.9958 22.0034 55.9958 23.2052C55.9958 23.7708 55.8321 24.2126 55.5047 24.5308Z" fill="black"/>
<path d="M110.126 20.7662C109.693 20.7662 109.33 20.6307 109.038 20.3597C108.757 20.0769 108.617 19.7293 108.617 19.3169C108.617 18.9045 108.757 18.5628 109.038 18.2919C109.33 18.0091 109.693 17.8677 110.126 17.8677C110.558 17.8677 110.915 18.0091 111.196 18.2919C111.488 18.5628 111.634 18.9045 111.634 19.3169C111.634 19.7293 111.488 20.0769 111.196 20.3597C110.915 20.6307 110.558 20.7662 110.126 20.7662Z" fill="black"/>
<path d="M111.336 31.724V21.9327H108.88V31.724H111.336Z" fill="black"/>
<path d="M106.28 31.883C105.847 31.883 105.484 31.7475 105.192 31.4765C104.911 31.1937 104.771 30.8462 104.771 30.4338C104.771 30.0214 104.911 29.6797 105.192 29.4087C105.484 29.1259 105.847 28.9845 106.28 28.9845C106.713 28.9845 107.069 29.1259 107.35 29.4087C107.642 29.6797 107.788 30.0214 107.788 30.4338C107.788 30.8462 107.642 31.1937 107.35 31.4765C107.069 31.7475 106.713 31.883 106.28 31.883Z" fill="black"/>
</mask>
<g mask="url(#mask5_318_1642)">
<path d="M88.5718 21.7913C89.7649 21.7913 90.7239 22.1624 91.4491 22.9047C92.1859 23.6352 92.5545 24.6603 92.5545 25.9799V31.7239H90.0983V26.3157C90.0983 25.5499 89.9054 24.9667 89.5192 24.5661C89.1334 24.1537 88.6071 23.9475 87.9403 23.9475C87.2735 23.9475 86.7416 24.1537 86.3438 24.5661C85.9579 24.9667 85.765 25.5499 85.765 26.3157V31.7239H83.3088V26.3157C83.3088 25.5499 83.1155 24.9667 82.7297 24.5661C82.3439 24.1537 81.8176 23.9475 81.1508 23.9475C80.4724 23.9475 79.9345 24.1537 79.5367 24.5661C79.1508 24.9667 78.9576 25.5499 78.9576 26.3157V31.7239H76.5013V21.7913H78.9576V23.1168C79.2733 22.7044 79.6771 22.3804 80.1682 22.1447C80.6713 21.9091 81.2208 21.7913 81.8176 21.7913C82.5776 21.7913 83.256 21.9562 83.8527 22.2861C84.4491 22.6043 84.911 23.0638 85.2387 23.6647C85.5545 23.0991 86.0104 22.6455 86.6071 22.3038C87.2151 21.9621 87.8702 21.7913 88.5718 21.7913Z" stroke="#2F1708" stroke-width="0.4"/>
</g>
<mask id="mask6_318_1642" style="mask-type:luminance" maskUnits="userSpaceOnUse" x="49" y="17" width="75" height="16">
<path d="M123.012 17.4904H49.2175V32.2073H123.012V17.4904Z" fill="white"/>
<path d="M94.4815 20.3597C94.7737 20.6307 95.1363 20.7662 95.5689 20.7662C96.0019 20.7662 96.3586 20.6307 96.6391 20.3597C96.9317 20.0769 97.0778 19.7293 97.0778 19.3169C97.0778 18.9045 96.9317 18.5628 96.6391 18.2919C96.3586 18.0091 96.0019 17.8677 95.5689 17.8677C95.1363 17.8677 94.7737 18.0091 94.4815 18.2919C94.2005 18.5628 94.0604 18.9045 94.0604 19.3169C94.0604 19.7293 94.2005 20.0769 94.4815 20.3597Z" fill="black"/>
<path d="M96.7796 31.724V21.9327H94.3234V31.724H96.7796Z" fill="black"/>
<path d="M101.504 23.9652V28.7017C101.504 29.0317 101.58 29.2732 101.732 29.4263C101.896 29.5677 102.165 29.6384 102.539 29.6384H103.679V31.724H102.136C100.065 31.724 99.0304 30.7106 99.0304 28.6841V23.9652H97.8726V21.9327H99.0304V19.5114H101.504V21.9327H103.679V23.9652H101.504Z" fill="black"/>
<path fill-rule="evenodd" clip-rule="evenodd" d="M117.517 31.8831C116.581 31.8831 115.739 31.6769 114.99 31.2645C114.242 30.8403 113.651 30.2453 113.219 29.4794C112.798 28.7136 112.587 27.8299 112.587 26.8284C112.587 25.8269 112.803 24.9432 113.236 24.1773C113.68 23.4114 114.283 22.8223 115.043 22.4099C115.803 21.9858 116.651 21.7737 117.587 21.7737C118.523 21.7737 119.371 21.9858 120.131 22.4099C120.891 22.8223 121.488 23.4114 121.92 24.1773C122.365 24.9432 122.587 25.8269 122.587 26.8284C122.587 27.8299 122.359 28.7136 121.903 29.4794C121.459 30.2453 120.85 30.8403 120.078 31.2645C119.318 31.6769 118.464 31.8831 117.517 31.8831ZM117.517 29.7269C117.961 29.7269 118.376 29.6208 118.763 29.4087C119.16 29.1849 119.476 28.855 119.71 28.419C119.944 27.983 120.061 27.4529 120.061 26.8284C120.061 25.8975 119.815 25.1847 119.324 24.6898C118.844 24.1832 118.254 23.9299 117.552 23.9299C116.85 23.9299 116.26 24.1832 115.78 24.6898C115.312 25.1847 115.078 25.8975 115.078 26.8284C115.078 27.7592 115.306 28.4779 115.762 28.9845C116.23 29.4794 116.815 29.7269 117.517 29.7269Z" fill="black"/>
<path d="M88.5718 21.7913C89.7649 21.7913 90.7239 22.1624 91.4491 22.9047C92.1859 23.6352 92.5545 24.6603 92.5545 25.9799V31.7239H90.0983V26.3157C90.0983 25.5499 89.9054 24.9667 89.5192 24.5661C89.1334 24.1537 88.6071 23.9475 87.9403 23.9475C87.2735 23.9475 86.7416 24.1537 86.3438 24.5661C85.9579 24.9667 85.765 25.5499 85.765 26.3157V31.7239H83.3088V26.3157C83.3088 25.5499 83.1155 24.9667 82.7297 24.5661C82.3439 24.1537 81.8176 23.9475 81.1508 23.9475C80.4724 23.9475 79.9345 24.1537 79.5367 24.5661C79.1508 24.9667 78.9576 25.5499 78.9576 26.3157V31.7239H76.5013V21.7913H78.9576V23.1168C79.2733 22.7044 79.6771 22.3804 80.1682 22.1447C80.6713 21.9091 81.2208 21.7913 81.8176 21.7913C82.5776 21.7913 83.256 21.9562 83.8527 22.2861C84.4491 22.6043 84.911 23.0638 85.2387 23.6647C85.5545 23.0991 86.0104 22.6455 86.6071 22.3038C87.2151 21.9621 87.8702 21.7913 88.5718 21.7913Z" fill="black"/>
<path d="M73.6548 22.2331C73.1518 22.5277 72.7423 22.9342 72.4265 23.4526V21.9327H69.9703V31.7239H72.4265V26.846C72.4265 25.9387 72.6195 25.3025 73.0057 24.9372C73.4031 24.5719 73.9878 24.3893 74.7599 24.3893H75.409V21.7913C74.7543 21.7913 74.1691 21.9385 73.6548 22.2331Z" fill="black"/>
<path fill-rule="evenodd" clip-rule="evenodd" d="M68.7394 26.6163C68.7394 26.9698 68.7162 27.2879 68.6693 27.5707H61.5637C61.6221 28.2776 61.8678 28.8314 62.3005 29.232C62.7335 29.6326 63.2654 29.8329 63.897 29.8329C64.8095 29.8329 65.4587 29.4382 65.8445 28.6488H68.4936C68.2131 29.5914 67.6752 30.369 66.8795 30.9817C66.0843 31.5826 65.1077 31.8831 63.9498 31.8831C63.0141 31.8831 62.172 31.6769 61.4236 31.2645C60.6868 30.8403 60.1076 30.2453 59.6866 29.4794C59.2772 28.7136 59.0726 27.8299 59.0726 26.8284C59.0726 25.8151 59.2772 24.9255 59.6866 24.1596C60.096 23.3938 60.6691 22.8046 61.406 22.3922C62.1428 21.9799 62.9909 21.7737 63.9498 21.7737C64.874 21.7737 65.6984 21.974 66.4236 22.3746C67.1605 22.7752 67.7276 23.3466 68.1254 24.0889C68.5348 24.8195 68.7394 25.6619 68.7394 26.6163ZM66.1955 25.9093C66.1839 25.2731 65.9558 24.7664 65.5111 24.3894C65.0669 24.0006 64.523 23.8061 63.8798 23.8061C63.2714 23.8061 62.7568 23.9947 62.3357 24.3717C61.9263 24.737 61.6749 25.2495 61.5813 25.9093H66.1955Z" fill="black"/>
<path fill-rule="evenodd" clip-rule="evenodd" d="M58.0486 25.061C58.3643 24.4836 58.522 23.8651 58.522 23.2052C58.522 22.4747 58.3527 21.8208 58.0133 21.2434C57.686 20.6661 57.1889 20.2125 56.5221 19.8826C55.8553 19.5526 55.0484 19.3877 54.1011 19.3877H49.5922V31.724H52.0483V26.9874H54.1011C55.1069 26.9874 55.9374 26.8107 56.5921 26.4572C57.2589 26.1037 57.7444 25.6383 58.0486 25.061ZM55.5047 24.5308C55.1769 24.8371 54.6742 24.9903 53.9958 24.9903H52.0483V21.4025H53.9958C55.329 21.4025 55.9958 22.0034 55.9958 23.2052C55.9958 23.7708 55.8321 24.2126 55.5047 24.5308Z" fill="black"/>
<path d="M110.126 20.7662C109.693 20.7662 109.33 20.6307 109.038 20.3597C108.757 20.0769 108.617 19.7293 108.617 19.3169C108.617 18.9045 108.757 18.5628 109.038 18.2919C109.33 18.0091 109.693 17.8677 110.126 17.8677C110.558 17.8677 110.915 18.0091 111.196 18.2919C111.488 18.5628 111.634 18.9045 111.634 19.3169C111.634 19.7293 111.488 20.0769 111.196 20.3597C110.915 20.6307 110.558 20.7662 110.126 20.7662Z" fill="black"/>
<path d="M111.336 31.724V21.9327H108.88V31.724H111.336Z" fill="black"/>
<path d="M106.28 31.883C105.847 31.883 105.484 31.7475 105.192 31.4765C104.911 31.1937 104.771 30.8462 104.771 30.4338C104.771 30.0214 104.911 29.6797 105.192 29.4087C105.484 29.1259 105.847 28.9845 106.28 28.9845C106.713 28.9845 107.069 29.1259 107.35 29.4087C107.642 29.6797 107.788 30.0214 107.788 30.4338C107.788 30.8462 107.642 31.1937 107.35 31.4765C107.069 31.7475 106.713 31.883 106.28 31.883Z" fill="black"/>
</mask>
<g mask="url(#mask6_318_1642)">
<path d="M73.6548 22.2331C73.1518 22.5277 72.7423 22.9342 72.4265 23.4526V21.9327H69.9703V31.7239H72.4265V26.846C72.4265 25.9387 72.6195 25.3025 73.0057 24.9372C73.4031 24.5719 73.9878 24.3893 74.7599 24.3893H75.409V21.7913C74.7543 21.7913 74.1691 21.9385 73.6548 22.2331Z" stroke="#2F1708" stroke-width="0.4"/>
</g>
<mask id="mask7_318_1642" style="mask-type:luminance" maskUnits="userSpaceOnUse" x="49" y="17" width="75" height="16">
<path d="M123.012 17.4904H49.2175V32.2073H123.012V17.4904Z" fill="white"/>
<path d="M94.4815 20.3597C94.7737 20.6307 95.1363 20.7662 95.5689 20.7662C96.0019 20.7662 96.3586 20.6307 96.6391 20.3597C96.9317 20.0769 97.0778 19.7293 97.0778 19.3169C97.0778 18.9045 96.9317 18.5628 96.6391 18.2919C96.3586 18.0091 96.0019 17.8677 95.5689 17.8677C95.1363 17.8677 94.7737 18.0091 94.4815 18.2919C94.2005 18.5628 94.0604 18.9045 94.0604 19.3169C94.0604 19.7293 94.2005 20.0769 94.4815 20.3597Z" fill="black"/>
<path d="M96.7796 31.724V21.9327H94.3234V31.724H96.7796Z" fill="black"/>
<path d="M101.504 23.9652V28.7017C101.504 29.0317 101.58 29.2732 101.732 29.4263C101.896 29.5677 102.165 29.6384 102.539 29.6384H103.679V31.724H102.136C100.065 31.724 99.0304 30.7106 99.0304 28.6841V23.9652H97.8726V21.9327H99.0304V19.5114H101.504V21.9327H103.679V23.9652H101.504Z" fill="black"/>
<path fill-rule="evenodd" clip-rule="evenodd" d="M117.517 31.8831C116.581 31.8831 115.739 31.6769 114.99 31.2645C114.242 30.8403 113.651 30.2453 113.219 29.4794C112.798 28.7136 112.587 27.8299 112.587 26.8284C112.587 25.8269 112.803 24.9432 113.236 24.1773C113.68 23.4114 114.283 22.8223 115.043 22.4099C115.803 21.9858 116.651 21.7737 117.587 21.7737C118.523 21.7737 119.371 21.9858 120.131 22.4099C120.891 22.8223 121.488 23.4114 121.92 24.1773C122.365 24.9432 122.587 25.8269 122.587 26.8284C122.587 27.8299 122.359 28.7136 121.903 29.4794C121.459 30.2453 120.85 30.8403 120.078 31.2645C119.318 31.6769 118.464 31.8831 117.517 31.8831ZM117.517 29.7269C117.961 29.7269 118.376 29.6208 118.763 29.4087C119.16 29.1849 119.476 28.855 119.71 28.419C119.944 27.983 120.061 27.4529 120.061 26.8284C120.061 25.8975 119.815 25.1847 119.324 24.6898C118.844 24.1832 118.254 23.9299 117.552 23.9299C116.85 23.9299 116.26 24.1832 115.78 24.6898C115.312 25.1847 115.078 25.8975 115.078 26.8284C115.078 27.7592 115.306 28.4779 115.762 28.9845C116.23 29.4794 116.815 29.7269 117.517 29.7269Z" fill="black"/>
<path d="M88.5718 21.7913C89.7649 21.7913 90.7239 22.1624 91.4491 22.9047C92.1859 23.6352 92.5545 24.6603 92.5545 25.9799V31.7239H90.0983V26.3157C90.0983 25.5499 89.9054 24.9667 89.5192 24.5661C89.1334 24.1537 88.6071 23.9475 87.9403 23.9475C87.2735 23.9475 86.7416 24.1537 86.3438 24.5661C85.9579 24.9667 85.765 25.5499 85.765 26.3157V31.7239H83.3088V26.3157C83.3088 25.5499 83.1155 24.9667 82.7297 24.5661C82.3439 24.1537 81.8176 23.9475 81.1508 23.9475C80.4724 23.9475 79.9345 24.1537 79.5367 24.5661C79.1508 24.9667 78.9576 25.5499 78.9576 26.3157V31.7239H76.5013V21.7913H78.9576V23.1168C79.2733 22.7044 79.6771 22.3804 80.1682 22.1447C80.6713 21.9091 81.2208 21.7913 81.8176 21.7913C82.5776 21.7913 83.256 21.9562 83.8527 22.2861C84.4491 22.6043 84.911 23.0638 85.2387 23.6647C85.5545 23.0991 86.0104 22.6455 86.6071 22.3038C87.2151 21.9621 87.8702 21.7913 88.5718 21.7913Z" fill="black"/>
<path d="M73.6548 22.2331C73.1518 22.5277 72.7423 22.9342 72.4265 23.4526V21.9327H69.9703V31.7239H72.4265V26.846C72.4265 25.9387 72.6195 25.3025 73.0057 24.9372C73.4031 24.5719 73.9878 24.3893 74.7599 24.3893H75.409V21.7913C74.7543 21.7913 74.1691 21.9385 73.6548 22.2331Z" fill="black"/>
<path fill-rule="evenodd" clip-rule="evenodd" d="M68.7394 26.6163C68.7394 26.9698 68.7162 27.2879 68.6693 27.5707H61.5637C61.6221 28.2776 61.8678 28.8314 62.3005 29.232C62.7335 29.6326 63.2654 29.8329 63.897 29.8329C64.8095 29.8329 65.4587 29.4382 65.8445 28.6488H68.4936C68.2131 29.5914 67.6752 30.369 66.8795 30.9817C66.0843 31.5826 65.1077 31.8831 63.9498 31.8831C63.0141 31.8831 62.172 31.6769 61.4236 31.2645C60.6868 30.8403 60.1076 30.2453 59.6866 29.4794C59.2772 28.7136 59.0726 27.8299 59.0726 26.8284C59.0726 25.8151 59.2772 24.9255 59.6866 24.1596C60.096 23.3938 60.6691 22.8046 61.406 22.3922C62.1428 21.9799 62.9909 21.7737 63.9498 21.7737C64.874 21.7737 65.6984 21.974 66.4236 22.3746C67.1605 22.7752 67.7276 23.3466 68.1254 24.0889C68.5348 24.8195 68.7394 25.6619 68.7394 26.6163ZM66.1955 25.9093C66.1839 25.2731 65.9558 24.7664 65.5111 24.3894C65.0669 24.0006 64.523 23.8061 63.8798 23.8061C63.2714 23.8061 62.7568 23.9947 62.3357 24.3717C61.9263 24.737 61.6749 25.2495 61.5813 25.9093H66.1955Z" fill="black"/>
<path fill-rule="evenodd" clip-rule="evenodd" d="M58.0486 25.061C58.3643 24.4836 58.522 23.8651 58.522 23.2052C58.522 22.4747 58.3527 21.8208 58.0133 21.2434C57.686 20.6661 57.1889 20.2125 56.5221 19.8826C55.8553 19.5526 55.0484 19.3877 54.1011 19.3877H49.5922V31.724H52.0483V26.9874H54.1011C55.1069 26.9874 55.9374 26.8107 56.5921 26.4572C57.2589 26.1037 57.7444 25.6383 58.0486 25.061ZM55.5047 24.5308C55.1769 24.8371 54.6742 24.9903 53.9958 24.9903H52.0483V21.4025H53.9958C55.329 21.4025 55.9958 22.0034 55.9958 23.2052C55.9958 23.7708 55.8321 24.2126 55.5047 24.5308Z" fill="black"/>
<path d="M110.126 20.7662C109.693 20.7662 109.33 20.6307 109.038 20.3597C108.757 20.0769 108.617 19.7293 108.617 19.3169C108.617 18.9045 108.757 18.5628 109.038 18.2919C109.33 18.0091 109.693 17.8677 110.126 17.8677C110.558 17.8677 110.915 18.0091 111.196 18.2919C111.488 18.5628 111.634 18.9045 111.634 19.3169C111.634 19.7293 111.488 20.0769 111.196 20.3597C110.915 20.6307 110.558 20.7662 110.126 20.7662Z" fill="black"/>
<path d="M111.336 31.724V21.9327H108.88V31.724H111.336Z" fill="black"/>
<path d="M106.28 31.883C105.847 31.883 105.484 31.7475 105.192 31.4765C104.911 31.1937 104.771 30.8462 104.771 30.4338C104.771 30.0214 104.911 29.6797 105.192 29.4087C105.484 29.1259 105.847 28.9845 106.28 28.9845C106.713 28.9845 107.069 29.1259 107.35 29.4087C107.642 29.6797 107.788 30.0214 107.788 30.4338C107.788 30.8462 107.642 31.1937 107.35 31.4765C107.069 31.7475 106.713 31.883 106.28 31.883Z" fill="black"/>
</mask>
<g mask="url(#mask7_318_1642)">
<path fill-rule="evenodd" clip-rule="evenodd" d="M68.7394 26.6163C68.7394 26.9698 68.7162 27.2879 68.6693 27.5707H61.5637C61.6221 28.2776 61.8678 28.8314 62.3005 29.232C62.7335 29.6326 63.2654 29.8329 63.897 29.8329C64.8095 29.8329 65.4587 29.4382 65.8445 28.6488H68.4936C68.2131 29.5914 67.6752 30.369 66.8795 30.9817C66.0843 31.5826 65.1077 31.8831 63.9498 31.8831C63.0141 31.8831 62.172 31.6769 61.4236 31.2645C60.6868 30.8403 60.1076 30.2453 59.6866 29.4794C59.2772 28.7136 59.0726 27.8299 59.0726 26.8284C59.0726 25.8151 59.2772 24.9255 59.6866 24.1596C60.096 23.3938 60.6691 22.8046 61.406 22.3922C62.1428 21.9799 62.9909 21.7737 63.9498 21.7737C64.874 21.7737 65.6984 21.974 66.4236 22.3746C67.1605 22.7752 67.7276 23.3466 68.1254 24.0889C68.5348 24.8195 68.7394 25.6619 68.7394 26.6163ZM66.1955 25.9093C66.1839 25.2731 65.9558 24.7664 65.5111 24.3894C65.0669 24.0006 64.523 23.8061 63.8798 23.8061C63.2714 23.8061 62.7568 23.9947 62.3357 24.3717C61.9263 24.737 61.6749 25.2495 61.5813 25.9093H66.1955Z" stroke="#2F1708" stroke-width="0.4"/>
</g>
<mask id="mask8_318_1642" style="mask-type:luminance" maskUnits="userSpaceOnUse" x="49" y="17" width="75" height="16">
<path d="M123.012 17.4904H49.2175V32.2073H123.012V17.4904Z" fill="white"/>
<path d="M94.4815 20.3597C94.7737 20.6307 95.1363 20.7662 95.5689 20.7662C96.0019 20.7662 96.3586 20.6307 96.6391 20.3597C96.9317 20.0769 97.0778 19.7293 97.0778 19.3169C97.0778 18.9045 96.9317 18.5628 96.6391 18.2919C96.3586 18.0091 96.0019 17.8677 95.5689 17.8677C95.1363 17.8677 94.7737 18.0091 94.4815 18.2919C94.2005 18.5628 94.0604 18.9045 94.0604 19.3169C94.0604 19.7293 94.2005 20.0769 94.4815 20.3597Z" fill="black"/>
<path d="M96.7796 31.724V21.9327H94.3234V31.724H96.7796Z" fill="black"/>
<path d="M101.504 23.9652V28.7017C101.504 29.0317 101.58 29.2732 101.732 29.4263C101.896 29.5677 102.165 29.6384 102.539 29.6384H103.679V31.724H102.136C100.065 31.724 99.0304 30.7106 99.0304 28.6841V23.9652H97.8726V21.9327H99.0304V19.5114H101.504V21.9327H103.679V23.9652H101.504Z" fill="black"/>
<path fill-rule="evenodd" clip-rule="evenodd" d="M117.517 31.8831C116.581 31.8831 115.739 31.6769 114.99 31.2645C114.242 30.8403 113.651 30.2453 113.219 29.4794C112.798 28.7136 112.587 27.8299 112.587 26.8284C112.587 25.8269 112.803 24.9432 113.236 24.1773C113.68 23.4114 114.283 22.8223 115.043 22.4099C115.803 21.9858 116.651 21.7737 117.587 21.7737C118.523 21.7737 119.371 21.9858 120.131 22.4099C120.891 22.8223 121.488 23.4114 121.92 24.1773C122.365 24.9432 122.587 25.8269 122.587 26.8284C122.587 27.8299 122.359 28.7136 121.903 29.4794C121.459 30.2453 120.85 30.8403 120.078 31.2645C119.318 31.6769 118.464 31.8831 117.517 31.8831ZM117.517 29.7269C117.961 29.7269 118.376 29.6208 118.763 29.4087C119.16 29.1849 119.476 28.855 119.71 28.419C119.944 27.983 120.061 27.4529 120.061 26.8284C120.061 25.8975 119.815 25.1847 119.324 24.6898C118.844 24.1832 118.254 23.9299 117.552 23.9299C116.85 23.9299 116.26 24.1832 115.78 24.6898C115.312 25.1847 115.078 25.8975 115.078 26.8284C115.078 27.7592 115.306 28.4779 115.762 28.9845C116.23 29.4794 116.815 29.7269 117.517 29.7269Z" fill="black"/>
<path d="M88.5718 21.7913C89.7649 21.7913 90.7239 22.1624 91.4491 22.9047C92.1859 23.6352 92.5545 24.6603 92.5545 25.9799V31.7239H90.0983V26.3157C90.0983 25.5499 89.9054 24.9667 89.5192 24.5661C89.1334 24.1537 88.6071 23.9475 87.9403 23.9475C87.2735 23.9475 86.7416 24.1537 86.3438 24.5661C85.9579 24.9667 85.765 25.5499 85.765 26.3157V31.7239H83.3088V26.3157C83.3088 25.5499 83.1155 24.9667 82.7297 24.5661C82.3439 24.1537 81.8176 23.9475 81.1508 23.9475C80.4724 23.9475 79.9345 24.1537 79.5367 24.5661C79.1508 24.9667 78.9576 25.5499 78.9576 26.3157V31.7239H76.5013V21.7913H78.9576V23.1168C79.2733 22.7044 79.6771 22.3804 80.1682 22.1447C80.6713 21.9091 81.2208 21.7913 81.8176 21.7913C82.5776 21.7913 83.256 21.9562 83.8527 22.2861C84.4491 22.6043 84.911 23.0638 85.2387 23.6647C85.5545 23.0991 86.0104 22.6455 86.6071 22.3038C87.2151 21.9621 87.8702 21.7913 88.5718 21.7913Z" fill="black"/>
<path d="M73.6548 22.2331C73.1518 22.5277 72.7423 22.9342 72.4265 23.4526V21.9327H69.9703V31.7239H72.4265V26.846C72.4265 25.9387 72.6195 25.3025 73.0057 24.9372C73.4031 24.5719 73.9878 24.3893 74.7599 24.3893H75.409V21.7913C74.7543 21.7913 74.1691 21.9385 73.6548 22.2331Z" fill="black"/>
<path fill-rule="evenodd" clip-rule="evenodd" d="M68.7394 26.6163C68.7394 26.9698 68.7162 27.2879 68.6693 27.5707H61.5637C61.6221 28.2776 61.8678 28.8314 62.3005 29.232C62.7335 29.6326 63.2654 29.8329 63.897 29.8329C64.8095 29.8329 65.4587 29.4382 65.8445 28.6488H68.4936C68.2131 29.5914 67.6752 30.369 66.8795 30.9817C66.0843 31.5826 65.1077 31.8831 63.9498 31.8831C63.0141 31.8831 62.172 31.6769 61.4236 31.2645C60.6868 30.8403 60.1076 30.2453 59.6866 29.4794C59.2772 28.7136 59.0726 27.8299 59.0726 26.8284C59.0726 25.8151 59.2772 24.9255 59.6866 24.1596C60.096 23.3938 60.6691 22.8046 61.406 22.3922C62.1428 21.9799 62.9909 21.7737 63.9498 21.7737C64.874 21.7737 65.6984 21.974 66.4236 22.3746C67.1605 22.7752 67.7276 23.3466 68.1254 24.0889C68.5348 24.8195 68.7394 25.6619 68.7394 26.6163ZM66.1955 25.9093C66.1839 25.2731 65.9558 24.7664 65.5111 24.3894C65.0669 24.0006 64.523 23.8061 63.8798 23.8061C63.2714 23.8061 62.7568 23.9947 62.3357 24.3717C61.9263 24.737 61.6749 25.2495 61.5813 25.9093H66.1955Z" fill="black"/>
<path fill-rule="evenodd" clip-rule="evenodd" d="M58.0486 25.061C58.3643 24.4836 58.522 23.8651 58.522 23.2052C58.522 22.4747 58.3527 21.8208 58.0133 21.2434C57.686 20.6661 57.1889 20.2125 56.5221 19.8826C55.8553 19.5526 55.0484 19.3877 54.1011 19.3877H49.5922V31.724H52.0483V26.9874H54.1011C55.1069 26.9874 55.9374 26.8107 56.5921 26.4572C57.2589 26.1037 57.7444 25.6383 58.0486 25.061ZM55.5047 24.5308C55.1769 24.8371 54.6742 24.9903 53.9958 24.9903H52.0483V21.4025H53.9958C55.329 21.4025 55.9958 22.0034 55.9958 23.2052C55.9958 23.7708 55.8321 24.2126 55.5047 24.5308Z" fill="black"/>
<path d="M110.126 20.7662C109.693 20.7662 109.33 20.6307 109.038 20.3597C108.757 20.0769 108.617 19.7293 108.617 19.3169C108.617 18.9045 108.757 18.5628 109.038 18.2919C109.33 18.0091 109.693 17.8677 110.126 17.8677C110.558 17.8677 110.915 18.0091 111.196 18.2919C111.488 18.5628 111.634 18.9045 111.634 19.3169C111.634 19.7293 111.488 20.0769 111.196 20.3597C110.915 20.6307 110.558 20.7662 110.126 20.7662Z" fill="black"/>
<path d="M111.336 31.724V21.9327H108.88V31.724H111.336Z" fill="black"/>
<path d="M106.28 31.883C105.847 31.883 105.484 31.7475 105.192 31.4765C104.911 31.1937 104.771 30.8462 104.771 30.4338C104.771 30.0214 104.911 29.6797 105.192 29.4087C105.484 29.1259 105.847 28.9845 106.28 28.9845C106.713 28.9845 107.069 29.1259 107.35 29.4087C107.642 29.6797 107.788 30.0214 107.788 30.4338C107.788 30.8462 107.642 31.1937 107.35 31.4765C107.069 31.7475 106.713 31.883 106.28 31.883Z" fill="black"/>
</mask>
<g mask="url(#mask8_318_1642)">
<path fill-rule="evenodd" clip-rule="evenodd" d="M58.0486 25.061C58.3643 24.4836 58.522 23.8651 58.522 23.2052C58.522 22.4747 58.3527 21.8208 58.0133 21.2434C57.686 20.6661 57.1889 20.2125 56.5221 19.8826C55.8553 19.5526 55.0484 19.3877 54.1011 19.3877H49.5922V31.724H52.0483V26.9874H54.1011C55.1069 26.9874 55.9374 26.8107 56.5921 26.4572C57.2589 26.1037 57.7444 25.6383 58.0486 25.061ZM55.5047 24.5308C55.1769 24.8371 54.6742 24.9903 53.9958 24.9903H52.0483V21.4025H53.9958C55.329 21.4025 55.9958 22.0034 55.9958 23.2052C55.9958 23.7708 55.8321 24.2126 55.5047 24.5308Z" stroke="#2F1708" stroke-width="0.4"/>
</g>
<mask id="mask9_318_1642" style="mask-type:luminance" maskUnits="userSpaceOnUse" x="49" y="17" width="75" height="16">
<path d="M123.012 17.4904H49.2175V32.2073H123.012V17.4904Z" fill="white"/>
<path d="M94.4815 20.3597C94.7737 20.6307 95.1363 20.7662 95.5689 20.7662C96.0019 20.7662 96.3586 20.6307 96.6391 20.3597C96.9317 20.0769 97.0778 19.7293 97.0778 19.3169C97.0778 18.9045 96.9317 18.5628 96.6391 18.2919C96.3586 18.0091 96.0019 17.8677 95.5689 17.8677C95.1363 17.8677 94.7737 18.0091 94.4815 18.2919C94.2005 18.5628 94.0604 18.9045 94.0604 19.3169C94.0604 19.7293 94.2005 20.0769 94.4815 20.3597Z" fill="black"/>
<path d="M96.7796 31.724V21.9327H94.3234V31.724H96.7796Z" fill="black"/>
<path d="M101.504 23.9652V28.7017C101.504 29.0317 101.58 29.2732 101.732 29.4263C101.896 29.5677 102.165 29.6384 102.539 29.6384H103.679V31.724H102.136C100.065 31.724 99.0304 30.7106 99.0304 28.6841V23.9652H97.8726V21.9327H99.0304V19.5114H101.504V21.9327H103.679V23.9652H101.504Z" fill="black"/>
<path fill-rule="evenodd" clip-rule="evenodd" d="M117.517 31.8831C116.581 31.8831 115.739 31.6769 114.99 31.2645C114.242 30.8403 113.651 30.2453 113.219 29.4794C112.798 28.7136 112.587 27.8299 112.587 26.8284C112.587 25.8269 112.803 24.9432 113.236 24.1773C113.68 23.4114 114.283 22.8223 115.043 22.4099C115.803 21.9858 116.651 21.7737 117.587 21.7737C118.523 21.7737 119.371 21.9858 120.131 22.4099C120.891 22.8223 121.488 23.4114 121.92 24.1773C122.365 24.9432 122.587 25.8269 122.587 26.8284C122.587 27.8299 122.359 28.7136 121.903 29.4794C121.459 30.2453 120.85 30.8403 120.078 31.2645C119.318 31.6769 118.464 31.8831 117.517 31.8831ZM117.517 29.7269C117.961 29.7269 118.376 29.6208 118.763 29.4087C119.16 29.1849 119.476 28.855 119.71 28.419C119.944 27.983 120.061 27.4529 120.061 26.8284C120.061 25.8975 119.815 25.1847 119.324 24.6898C118.844 24.1832 118.254 23.9299 117.552 23.9299C116.85 23.9299 116.26 24.1832 115.78 24.6898C115.312 25.1847 115.078 25.8975 115.078 26.8284C115.078 27.7592 115.306 28.4779 115.762 28.9845C116.23 29.4794 116.815 29.7269 117.517 29.7269Z" fill="black"/>
<path d="M88.5718 21.7913C89.7649 21.7913 90.7239 22.1624 91.4491 22.9047C92.1859 23.6352 92.5545 24.6603 92.5545 25.9799V31.7239H90.0983V26.3157C90.0983 25.5499 89.9054 24.9667 89.5192 24.5661C89.1334 24.1537 88.6071 23.9475 87.9403 23.9475C87.2735 23.9475 86.7416 24.1537 86.3438 24.5661C85.9579 24.9667 85.765 25.5499 85.765 26.3157V31.7239H83.3088V26.3157C83.3088 25.5499 83.1155 24.9667 82.7297 24.5661C82.3439 24.1537 81.8176 23.9475 81.1508 23.9475C80.4724 23.9475 79.9345 24.1537 79.5367 24.5661C79.1508 24.9667 78.9576 25.5499 78.9576 26.3157V31.7239H76.5013V21.7913H78.9576V23.1168C79.2733 22.7044 79.6771 22.3804 80.1682 22.1447C80.6713 21.9091 81.2208 21.7913 81.8176 21.7913C82.5776 21.7913 83.256 21.9562 83.8527 22.2861C84.4491 22.6043 84.911 23.0638 85.2387 23.6647C85.5545 23.0991 86.0104 22.6455 86.6071 22.3038C87.2151 21.9621 87.8702 21.7913 88.5718 21.7913Z" fill="black"/>
<path d="M73.6548 22.2331C73.1518 22.5277 72.7423 22.9342 72.4265 23.4526V21.9327H69.9703V31.7239H72.4265V26.846C72.4265 25.9387 72.6195 25.3025 73.0057 24.9372C73.4031 24.5719 73.9878 24.3893 74.7599 24.3893H75.409V21.7913C74.7543 21.7913 74.1691 21.9385 73.6548 22.2331Z" fill="black"/>
<path fill-rule="evenodd" clip-rule="evenodd" d="M68.7394 26.6163C68.7394 26.9698 68.7162 27.2879 68.6693 27.5707H61.5637C61.6221 28.2776 61.8678 28.8314 62.3005 29.232C62.7335 29.6326 63.2654 29.8329 63.897 29.8329C64.8095 29.8329 65.4587 29.4382 65.8445 28.6488H68.4936C68.2131 29.5914 67.6752 30.369 66.8795 30.9817C66.0843 31.5826 65.1077 31.8831 63.9498 31.8831C63.0141 31.8831 62.172 31.6769 61.4236 31.2645C60.6868 30.8403 60.1076 30.2453 59.6866 29.4794C59.2772 28.7136 59.0726 27.8299 59.0726 26.8284C59.0726 25.8151 59.2772 24.9255 59.6866 24.1596C60.096 23.3938 60.6691 22.8046 61.406 22.3922C62.1428 21.9799 62.9909 21.7737 63.9498 21.7737C64.874 21.7737 65.6984 21.974 66.4236 22.3746C67.1605 22.7752 67.7276 23.3466 68.1254 24.0889C68.5348 24.8195 68.7394 25.6619 68.7394 26.6163ZM66.1955 25.9093C66.1839 25.2731 65.9558 24.7664 65.5111 24.3894C65.0669 24.0006 64.523 23.8061 63.8798 23.8061C63.2714 23.8061 62.7568 23.9947 62.3357 24.3717C61.9263 24.737 61.6749 25.2495 61.5813 25.9093H66.1955Z" fill="black"/>
<path fill-rule="evenodd" clip-rule="evenodd" d="M58.0486 25.061C58.3643 24.4836 58.522 23.8651 58.522 23.2052C58.522 22.4747 58.3527 21.8208 58.0133 21.2434C57.686 20.6661 57.1889 20.2125 56.5221 19.8826C55.8553 19.5526 55.0484 19.3877 54.1011 19.3877H49.5922V31.724H52.0483V26.9874H54.1011C55.1069 26.9874 55.9374 26.8107 56.5921 26.4572C57.2589 26.1037 57.7444 25.6383 58.0486 25.061ZM55.5047 24.5308C55.1769 24.8371 54.6742 24.9903 53.9958 24.9903H52.0483V21.4025H53.9958C55.329 21.4025 55.9958 22.0034 55.9958 23.2052C55.9958 23.7708 55.8321 24.2126 55.5047 24.5308Z" fill="black"/>
<path d="M110.126 20.7662C109.693 20.7662 109.33 20.6307 109.038 20.3597C108.757 20.0769 108.617 19.7293 108.617 19.3169C108.617 18.9045 108.757 18.5628 109.038 18.2919C109.33 18.0091 109.693 17.8677 110.126 17.8677C110.558 17.8677 110.915 18.0091 111.196 18.2919C111.488 18.5628 111.634 18.9045 111.634 19.3169C111.634 19.7293 111.488 20.0769 111.196 20.3597C110.915 20.6307 110.558 20.7662 110.126 20.7662Z" fill="black"/>
<path d="M111.336 31.724V21.9327H108.88V31.724H111.336Z" fill="black"/>
<path d="M106.28 31.883C105.847 31.883 105.484 31.7475 105.192 31.4765C104.911 31.1937 104.771 30.8462 104.771 30.4338C104.771 30.0214 104.911 29.6797 105.192 29.4087C105.484 29.1259 105.847 28.9845 106.28 28.9845C106.713 28.9845 107.069 29.1259 107.35 29.4087C107.642 29.6797 107.788 30.0214 107.788 30.4338C107.788 30.8462 107.642 31.1937 107.35 31.4765C107.069 31.7475 106.713 31.883 106.28 31.883Z" fill="black"/>
</mask>
<g mask="url(#mask9_318_1642)">
<path d="M110.126 20.7662C109.693 20.7662 109.33 20.6307 109.038 20.3597C108.757 20.0769 108.617 19.7293 108.617 19.3169C108.617 18.9045 108.757 18.5628 109.038 18.2919C109.33 18.0091 109.693 17.8677 110.126 17.8677C110.558 17.8677 110.915 18.0091 111.196 18.2919C111.488 18.5628 111.634 18.9045 111.634 19.3169C111.634 19.7293 111.488 20.0769 111.196 20.3597C110.915 20.6307 110.558 20.7662 110.126 20.7662Z" stroke="#2F1708" stroke-width="0.4"/>
</g>
<mask id="mask10_318_1642" style="mask-type:luminance" maskUnits="userSpaceOnUse" x="49" y="17" width="75" height="16">
<path d="M123.012 17.4904H49.2175V32.2073H123.012V17.4904Z" fill="white"/>
<path d="M94.4815 20.3597C94.7737 20.6307 95.1363 20.7662 95.5689 20.7662C96.0019 20.7662 96.3586 20.6307 96.6391 20.3597C96.9317 20.0769 97.0778 19.7293 97.0778 19.3169C97.0778 18.9045 96.9317 18.5628 96.6391 18.2919C96.3586 18.0091 96.0019 17.8677 95.5689 17.8677C95.1363 17.8677 94.7737 18.0091 94.4815 18.2919C94.2005 18.5628 94.0604 18.9045 94.0604 19.3169C94.0604 19.7293 94.2005 20.0769 94.4815 20.3597Z" fill="black"/>
<path d="M96.7796 31.724V21.9327H94.3234V31.724H96.7796Z" fill="black"/>
<path d="M101.504 23.9652V28.7017C101.504 29.0317 101.58 29.2732 101.732 29.4263C101.896 29.5677 102.165 29.6384 102.539 29.6384H103.679V31.724H102.136C100.065 31.724 99.0304 30.7106 99.0304 28.6841V23.9652H97.8726V21.9327H99.0304V19.5114H101.504V21.9327H103.679V23.9652H101.504Z" fill="black"/>
<path fill-rule="evenodd" clip-rule="evenodd" d="M117.517 31.8831C116.581 31.8831 115.739 31.6769 114.99 31.2645C114.242 30.8403 113.651 30.2453 113.219 29.4794C112.798 28.7136 112.587 27.8299 112.587 26.8284C112.587 25.8269 112.803 24.9432 113.236 24.1773C113.68 23.4114 114.283 22.8223 115.043 22.4099C115.803 21.9858 116.651 21.7737 117.587 21.7737C118.523 21.7737 119.371 21.9858 120.131 22.4099C120.891 22.8223 121.488 23.4114 121.92 24.1773C122.365 24.9432 122.587 25.8269 122.587 26.8284C122.587 27.8299 122.359 28.7136 121.903 29.4794C121.459 30.2453 120.85 30.8403 120.078 31.2645C119.318 31.6769 118.464 31.8831 117.517 31.8831ZM117.517 29.7269C117.961 29.7269 118.376 29.6208 118.763 29.4087C119.16 29.1849 119.476 28.855 119.71 28.419C119.944 27.983 120.061 27.4529 120.061 26.8284C120.061 25.8975 119.815 25.1847 119.324 24.6898C118.844 24.1832 118.254 23.9299 117.552 23.9299C116.85 23.9299 116.26 24.1832 115.78 24.6898C115.312 25.1847 115.078 25.8975 115.078 26.8284C115.078 27.7592 115.306 28.4779 115.762 28.9845C116.23 29.4794 116.815 29.7269 117.517 29.7269Z" fill="black"/>
<path d="M88.5718 21.7913C89.7649 21.7913 90.7239 22.1624 91.4491 22.9047C92.1859 23.6352 92.5545 24.6603 92.5545 25.9799V31.7239H90.0983V26.3157C90.0983 25.5499 89.9054 24.9667 89.5192 24.5661C89.1334 24.1537 88.6071 23.9475 87.9403 23.9475C87.2735 23.9475 86.7416 24.1537 86.3438 24.5661C85.9579 24.9667 85.765 25.5499 85.765 26.3157V31.7239H83.3088V26.3157C83.3088 25.5499 83.1155 24.9667 82.7297 24.5661C82.3439 24.1537 81.8176 23.9475 81.1508 23.9475C80.4724 23.9475 79.9345 24.1537 79.5367 24.5661C79.1508 24.9667 78.9576 25.5499 78.9576 26.3157V31.7239H76.5013V21.7913H78.9576V23.1168C79.2733 22.7044 79.6771 22.3804 80.1682 22.1447C80.6713 21.9091 81.2208 21.7913 81.8176 21.7913C82.5776 21.7913 83.256 21.9562 83.8527 22.2861C84.4491 22.6043 84.911 23.0638 85.2387 23.6647C85.5545 23.0991 86.0104 22.6455 86.6071 22.3038C87.2151 21.9621 87.8702 21.7913 88.5718 21.7913Z" fill="black"/>
<path d="M73.6548 22.2331C73.1518 22.5277 72.7423 22.9342 72.4265 23.4526V21.9327H69.9703V31.7239H72.4265V26.846C72.4265 25.9387 72.6195 25.3025 73.0057 24.9372C73.4031 24.5719 73.9878 24.3893 74.7599 24.3893H75.409V21.7913C74.7543 21.7913 74.1691 21.9385 73.6548 22.2331Z" fill="black"/>
<path fill-rule="evenodd" clip-rule="evenodd" d="M68.7394 26.6163C68.7394 26.9698 68.7162 27.2879 68.6693 27.5707H61.5637C61.6221 28.2776 61.8678 28.8314 62.3005 29.232C62.7335 29.6326 63.2654 29.8329 63.897 29.8329C64.8095 29.8329 65.4587 29.4382 65.8445 28.6488H68.4936C68.2131 29.5914 67.6752 30.369 66.8795 30.9817C66.0843 31.5826 65.1077 31.8831 63.9498 31.8831C63.0141 31.8831 62.172 31.6769 61.4236 31.2645C60.6868 30.8403 60.1076 30.2453 59.6866 29.4794C59.2772 28.7136 59.0726 27.8299 59.0726 26.8284C59.0726 25.8151 59.2772 24.9255 59.6866 24.1596C60.096 23.3938 60.6691 22.8046 61.406 22.3922C62.1428 21.9799 62.9909 21.7737 63.9498 21.7737C64.874 21.7737 65.6984 21.974 66.4236 22.3746C67.1605 22.7752 67.7276 23.3466 68.1254 24.0889C68.5348 24.8195 68.7394 25.6619 68.7394 26.6163ZM66.1955 25.9093C66.1839 25.2731 65.9558 24.7664 65.5111 24.3894C65.0669 24.0006 64.523 23.8061 63.8798 23.8061C63.2714 23.8061 62.7568 23.9947 62.3357 24.3717C61.9263 24.737 61.6749 25.2495 61.5813 25.9093H66.1955Z" fill="black"/>
<path fill-rule="evenodd" clip-rule="evenodd" d="M58.0486 25.061C58.3643 24.4836 58.522 23.8651 58.522 23.2052C58.522 22.4747 58.3527 21.8208 58.0133 21.2434C57.686 20.6661 57.1889 20.2125 56.5221 19.8826C55.8553 19.5526 55.0484 19.3877 54.1011 19.3877H49.5922V31.724H52.0483V26.9874H54.1011C55.1069 26.9874 55.9374 26.8107 56.5921 26.4572C57.2589 26.1037 57.7444 25.6383 58.0486 25.061ZM55.5047 24.5308C55.1769 24.8371 54.6742 24.9903 53.9958 24.9903H52.0483V21.4025H53.9958C55.329 21.4025 55.9958 22.0034 55.9958 23.2052C55.9958 23.7708 55.8321 24.2126 55.5047 24.5308Z" fill="black"/>
<path d="M110.126 20.7662C109.693 20.7662 109.33 20.6307 109.038 20.3597C108.757 20.0769 108.617 19.7293 108.617 19.3169C108.617 18.9045 108.757 18.5628 109.038 18.2919C109.33 18.0091 109.693 17.8677 110.126 17.8677C110.558 17.8677 110.915 18.0091 111.196 18.2919C111.488 18.5628 111.634 18.9045 111.634 19.3169C111.634 19.7293 111.488 20.0769 111.196 20.3597C110.915 20.6307 110.558 20.7662 110.126 20.7662Z" fill="black"/>
<path d="M111.336 31.724V21.9327H108.88V31.724H111.336Z" fill="black"/>
<path d="M106.28 31.883C105.847 31.883 105.484 31.7475 105.192 31.4765C104.911 31.1937 104.771 30.8462 104.771 30.4338C104.771 30.0214 104.911 29.6797 105.192 29.4087C105.484 29.1259 105.847 28.9845 106.28 28.9845C106.713 28.9845 107.069 29.1259 107.35 29.4087C107.642 29.6797 107.788 30.0214 107.788 30.4338C107.788 30.8462 107.642 31.1937 107.35 31.4765C107.069 31.7475 106.713 31.883 106.28 31.883Z" fill="black"/>
</mask>
<g mask="url(#mask10_318_1642)">
<path d="M111.336 31.724V21.9327H108.88V31.724H111.336Z" stroke="#2F1708" stroke-width="0.4"/>
</g>
<mask id="mask11_318_1642" style="mask-type:luminance" maskUnits="userSpaceOnUse" x="49" y="17" width="75" height="16">
<path d="M123.012 17.4904H49.2175V32.2073H123.012V17.4904Z" fill="white"/>
<path d="M94.4815 20.3597C94.7737 20.6307 95.1363 20.7662 95.5689 20.7662C96.0019 20.7662 96.3586 20.6307 96.6391 20.3597C96.9317 20.0769 97.0778 19.7293 97.0778 19.3169C97.0778 18.9045 96.9317 18.5628 96.6391 18.2919C96.3586 18.0091 96.0019 17.8677 95.5689 17.8677C95.1363 17.8677 94.7737 18.0091 94.4815 18.2919C94.2005 18.5628 94.0604 18.9045 94.0604 19.3169C94.0604 19.7293 94.2005 20.0769 94.4815 20.3597Z" fill="black"/>
<path d="M96.7796 31.724V21.9327H94.3234V31.724H96.7796Z" fill="black"/>
<path d="M101.504 23.9652V28.7017C101.504 29.0317 101.58 29.2732 101.732 29.4263C101.896 29.5677 102.165 29.6384 102.539 29.6384H103.679V31.724H102.136C100.065 31.724 99.0304 30.7106 99.0304 28.6841V23.9652H97.8726V21.9327H99.0304V19.5114H101.504V21.9327H103.679V23.9652H101.504Z" fill="black"/>
<path fill-rule="evenodd" clip-rule="evenodd" d="M117.517 31.8831C116.581 31.8831 115.739 31.6769 114.99 31.2645C114.242 30.8403 113.651 30.2453 113.219 29.4794C112.798 28.7136 112.587 27.8299 112.587 26.8284C112.587 25.8269 112.803 24.9432 113.236 24.1773C113.68 23.4114 114.283 22.8223 115.043 22.4099C115.803 21.9858 116.651 21.7737 117.587 21.7737C118.523 21.7737 119.371 21.9858 120.131 22.4099C120.891 22.8223 121.488 23.4114 121.92 24.1773C122.365 24.9432 122.587 25.8269 122.587 26.8284C122.587 27.8299 122.359 28.7136 121.903 29.4794C121.459 30.2453 120.85 30.8403 120.078 31.2645C119.318 31.6769 118.464 31.8831 117.517 31.8831ZM117.517 29.7269C117.961 29.7269 118.376 29.6208 118.763 29.4087C119.16 29.1849 119.476 28.855 119.71 28.419C119.944 27.983 120.061 27.4529 120.061 26.8284C120.061 25.8975 119.815 25.1847 119.324 24.6898C118.844 24.1832 118.254 23.9299 117.552 23.9299C116.85 23.9299 116.26 24.1832 115.78 24.6898C115.312 25.1847 115.078 25.8975 115.078 26.8284C115.078 27.7592 115.306 28.4779 115.762 28.9845C116.23 29.4794 116.815 29.7269 117.517 29.7269Z" fill="black"/>
<path d="M88.5718 21.7913C89.7649 21.7913 90.7239 22.1624 91.4491 22.9047C92.1859 23.6352 92.5545 24.6603 92.5545 25.9799V31.7239H90.0983V26.3157C90.0983 25.5499 89.9054 24.9667 89.5192 24.5661C89.1334 24.1537 88.6071 23.9475 87.9403 23.9475C87.2735 23.9475 86.7416 24.1537 86.3438 24.5661C85.9579 24.9667 85.765 25.5499 85.765 26.3157V31.7239H83.3088V26.3157C83.3088 25.5499 83.1155 24.9667 82.7297 24.5661C82.3439 24.1537 81.8176 23.9475 81.1508 23.9475C80.4724 23.9475 79.9345 24.1537 79.5367 24.5661C79.1508 24.9667 78.9576 25.5499 78.9576 26.3157V31.7239H76.5013V21.7913H78.9576V23.1168C79.2733 22.7044 79.6771 22.3804 80.1682 22.1447C80.6713 21.9091 81.2208 21.7913 81.8176 21.7913C82.5776 21.7913 83.256 21.9562 83.8527 22.2861C84.4491 22.6043 84.911 23.0638 85.2387 23.6647C85.5545 23.0991 86.0104 22.6455 86.6071 22.3038C87.2151 21.9621 87.8702 21.7913 88.5718 21.7913Z" fill="black"/>
<path d="M73.6548 22.2331C73.1518 22.5277 72.7423 22.9342 72.4265 23.4526V21.9327H69.9703V31.7239H72.4265V26.846C72.4265 25.9387 72.6195 25.3025 73.0057 24.9372C73.4031 24.5719 73.9878 24.3893 74.7599 24.3893H75.409V21.7913C74.7543 21.7913 74.1691 21.9385 73.6548 22.2331Z" fill="black"/>
<path fill-rule="evenodd" clip-rule="evenodd" d="M68.7394 26.6163C68.7394 26.9698 68.7162 27.2879 68.6693 27.5707H61.5637C61.6221 28.2776 61.8678 28.8314 62.3005 29.232C62.7335 29.6326 63.2654 29.8329 63.897 29.8329C64.8095 29.8329 65.4587 29.4382 65.8445 28.6488H68.4936C68.2131 29.5914 67.6752 30.369 66.8795 30.9817C66.0843 31.5826 65.1077 31.8831 63.9498 31.8831C63.0141 31.8831 62.172 31.6769 61.4236 31.2645C60.6868 30.8403 60.1076 30.2453 59.6866 29.4794C59.2772 28.7136 59.0726 27.8299 59.0726 26.8284C59.0726 25.8151 59.2772 24.9255 59.6866 24.1596C60.096 23.3938 60.6691 22.8046 61.406 22.3922C62.1428 21.9799 62.9909 21.7737 63.9498 21.7737C64.874 21.7737 65.6984 21.974 66.4236 22.3746C67.1605 22.7752 67.7276 23.3466 68.1254 24.0889C68.5348 24.8195 68.7394 25.6619 68.7394 26.6163ZM66.1955 25.9093C66.1839 25.2731 65.9558 24.7664 65.5111 24.3894C65.0669 24.0006 64.523 23.8061 63.8798 23.8061C63.2714 23.8061 62.7568 23.9947 62.3357 24.3717C61.9263 24.737 61.6749 25.2495 61.5813 25.9093H66.1955Z" fill="black"/>
<path fill-rule="evenodd" clip-rule="evenodd" d="M58.0486 25.061C58.3643 24.4836 58.522 23.8651 58.522 23.2052C58.522 22.4747 58.3527 21.8208 58.0133 21.2434C57.686 20.6661 57.1889 20.2125 56.5221 19.8826C55.8553 19.5526 55.0484 19.3877 54.1011 19.3877H49.5922V31.724H52.0483V26.9874H54.1011C55.1069 26.9874 55.9374 26.8107 56.5921 26.4572C57.2589 26.1037 57.7444 25.6383 58.0486 25.061ZM55.5047 24.5308C55.1769 24.8371 54.6742 24.9903 53.9958 24.9903H52.0483V21.4025H53.9958C55.329 21.4025 55.9958 22.0034 55.9958 23.2052C55.9958 23.7708 55.8321 24.2126 55.5047 24.5308Z" fill="black"/>
<path d="M110.126 20.7662C109.693 20.7662 109.33 20.6307 109.038 20.3597C108.757 20.0769 108.617 19.7293 108.617 19.3169C108.617 18.9045 108.757 18.5628 109.038 18.2919C109.33 18.0091 109.693 17.8677 110.126 17.8677C110.558 17.8677 110.915 18.0091 111.196 18.2919C111.488 18.5628 111.634 18.9045 111.634 19.3169C111.634 19.7293 111.488 20.0769 111.196 20.3597C110.915 20.6307 110.558 20.7662 110.126 20.7662Z" fill="black"/>
<path d="M111.336 31.724V21.9327H108.88V31.724H111.336Z" fill="black"/>
<path d="M106.28 31.883C105.847 31.883 105.484 31.7475 105.192 31.4765C104.911 31.1937 104.771 30.8462 104.771 30.4338C104.771 30.0214 104.911 29.6797 105.192 29.4087C105.484 29.1259 105.847 28.9845 106.28 28.9845C106.713 28.9845 107.069 29.1259 107.35 29.4087C107.642 29.6797 107.788 30.0214 107.788 30.4338C107.788 30.8462 107.642 31.1937 107.35 31.4765C107.069 31.7475 106.713 31.883 106.28 31.883Z" fill="black"/>
</mask>
<g mask="url(#mask11_318_1642)">
<path d="M106.28 31.883C105.847 31.883 105.484 31.7475 105.192 31.4765C104.911 31.1937 104.771 30.8462 104.771 30.4338C104.771 30.0214 104.911 29.6797 105.192 29.4087C105.484 29.1259 105.847 28.9845 106.28 28.9845C106.713 28.9845 107.069 29.1259 107.35 29.4087C107.642 29.6797 107.788 30.0214 107.788 30.4338C107.788 30.8462 107.642 31.1937 107.35 31.4765C107.069 31.7475 106.713 31.883 106.28 31.883Z" stroke="#2F1708" stroke-width="0.4"/>
</g>
<defs>
<linearGradient id="paint0_linear_318_1642" x1="30.3569" y1="43.6434" x2="30.3569" y2="14.2607" gradientUnits="userSpaceOnUse">
<stop stop-color="#AA52E5"/>
<stop offset="1" stop-color="#FF9469"/>
</linearGradient>
</defs>
</svg>
