<svg width="124" height="11" viewBox="0 0 124 11" fill="none" xmlns="http://www.w3.org/2000/svg">
<path fill-rule="evenodd" clip-rule="evenodd" d="M0 0.225318H4.46037C6.94127 0.225318 8.23851 1.51965 8.23851 3.10915C8.23851 4.2064 7.62532 4.95165 6.77503 5.34582V5.37423C7.86242 5.7684 8.4756 6.64015 8.4756 7.75115C8.4756 9.34065 7.26286 10.7331 4.64205 10.7331H0V0.225318ZM4.32138 4.38882C5.05993 4.38882 5.39514 4.00932 5.39514 3.58673C5.39514 3.16415 5.06084 2.7709 4.32138 2.7709H3.01143V4.38882H4.32138ZM4.36316 8.18657C5.1435 8.18657 5.5205 7.80707 5.5205 7.31482C5.5205 6.82257 5.12988 6.44307 4.3777 6.44307H3.01143V8.18748H4.36316V8.18657ZM9.11604 6.45682V0.225318H12.1547V6.4284C12.1547 7.59623 12.7261 8.21498 13.7018 8.21498C14.6774 8.21498 15.2906 7.59623 15.2906 6.41465V0.225318H18.3438V6.45682C18.3438 9.1014 16.5878 11.0007 13.7018 11.0007C10.8157 11.0007 9.11514 9.1014 9.11514 6.45682H9.11604ZM26.0809 0.731318V3.43182C25.4259 2.96798 24.3104 2.6444 23.4047 2.6444C22.5825 2.6444 22.1638 2.91207 22.1638 3.26315C22.1638 3.61423 22.6234 3.79757 23.4464 4.09273C24.8409 4.58498 26.7359 5.2459 26.7359 7.48257C26.7359 9.47998 25.2442 10.9567 22.6234 10.9567C21.2717 10.9567 20.0308 10.5626 19.2641 10.0428V7.20115C20.0171 7.8199 21.1599 8.31215 22.261 8.31215C23.1948 8.31215 23.6272 7.96015 23.6272 7.5669C23.6272 7.0609 22.9159 6.8354 22.0656 6.52557C20.9501 6.11765 19.1805 5.38615 19.1805 3.34657C19.1805 1.50407 20.6167 -0.00109863 23.1812 -0.00109863C24.3104 -0.00109863 25.3278 0.294068 26.0809 0.730401V0.731318ZM27.5162 0.225318H30.5549V10.7331H27.5162V0.225318ZM41.3588 10.7331H38.4591L34.7091 5.09282H34.6955V10.7331H31.8103V0.225318H34.71L38.46 5.76748H38.4736V0.225318H41.3588V10.7331ZM42.6133 0.225318H49.8062V2.95423H45.652V4.22015H49.3874V6.69607H45.652V8.00415H49.8062V10.7331H42.6133V0.225318ZM57.4315 0.731318V3.43182C56.7766 2.96798 55.661 2.6444 54.7553 2.6444C53.9332 2.6444 53.5144 2.91207 53.5144 3.26315C53.5144 3.61423 53.9741 3.79757 54.7971 4.09273C56.1915 4.58498 58.0865 5.2459 58.0865 7.48257C58.0865 9.47998 56.5949 10.9567 53.9741 10.9567C52.6223 10.9567 51.3814 10.5626 50.6147 10.0428V7.20115C51.3678 7.8199 52.5106 8.31215 53.6116 8.31215C54.5455 8.31215 54.9779 7.96015 54.9779 7.5669C54.9779 7.0609 54.2666 6.8354 53.4163 6.52557C52.3007 6.11765 50.5311 5.38615 50.5311 3.34657C50.5311 1.50407 51.9674 -0.00109863 54.5318 -0.00109863C55.661 -0.00109863 56.6785 0.294068 57.4315 0.730401V0.731318ZM65.4747 0.731318V3.43182C64.8198 2.96798 63.7042 2.6444 62.7985 2.6444C61.9764 2.6444 61.5576 2.91207 61.5576 3.26315C61.5576 3.61423 62.0173 3.79757 62.8403 4.09273C64.2347 4.58498 66.1297 5.2459 66.1297 7.48257C66.1297 9.47998 64.6381 10.9567 62.0173 10.9567C60.6655 10.9567 59.4246 10.5626 58.6579 10.0428V7.20115C59.411 7.8199 60.5538 8.31215 61.6548 8.31215C62.5887 8.31215 63.0211 7.96015 63.0211 7.5669C63.0211 7.0609 62.3098 6.8354 61.4595 6.52557C60.3439 6.11765 58.5743 5.38615 58.5743 3.34657C58.5743 1.50407 60.0106 -0.00109863 62.575 -0.00109863C63.7042 -0.00109863 64.7216 0.294068 65.4747 0.730401V0.731318ZM69.6508 10.7532H72.6894V0.246401H69.6508V10.7542V10.7532ZM83.4915 0.246401H80.6064V5.78857H80.5927L76.8428 0.246401H73.9431V10.7542H76.8282V5.1139H76.8418L80.5918 10.7542H83.4915V0.246401ZM88.3825 0.0209014C85.8171 0.0209014 84.3818 1.52607 84.3818 3.36857C84.3818 5.40815 86.1523 6.13965 87.2669 6.54757C88.1172 6.8574 88.8285 7.08198 88.8285 7.5889C88.8285 7.98307 88.3961 8.33415 87.4622 8.33415C86.3612 8.33415 85.2175 7.8419 84.4653 7.22315V10.0648C85.2321 10.5855 86.473 10.9787 87.8247 10.9787C90.4455 10.9787 91.9371 9.50198 91.9371 7.50457C91.9371 5.2679 90.0413 4.60698 88.6477 4.11473C87.8256 3.81957 87.365 3.6509 87.365 3.28515C87.365 2.9194 87.7829 2.6664 88.606 2.6664C89.5117 2.6664 90.6272 2.98998 91.2822 3.45382V0.752401C90.5291 0.316068 89.5116 0.0209014 88.3825 0.0209014ZM92.6466 10.7532H95.6853V0.246401H92.6466V10.7542V10.7532ZM99.9785 7.98215H100.564C102.14 7.98215 103.157 7.08198 103.157 5.50623C103.157 3.93048 102.14 3.01657 100.564 3.01657H99.9785V7.98215ZM106.224 5.50623C106.224 8.67148 103.854 10.7532 100.453 10.7532H96.9398V0.246401H100.453C103.854 0.246401 106.224 2.3419 106.224 5.50715V5.50623ZM107.048 10.7532H114.241V8.02432H110.087V6.71623H113.822V4.24032H110.087V2.9744H114.241V0.246401H107.048V10.7542V10.7532ZM119.024 5.21107C119.79 5.21107 120.39 4.84532 120.39 4.11382C120.39 3.38232 119.79 3.01657 119.01 3.01657H118.369V5.21107H119.024ZM124 10.7532H120.417L118.438 7.50365H118.368V10.7532H115.329V0.246401H119.037C121.644 0.246401 123.456 1.41423 123.456 3.9039C123.456 4.8884 123.023 6.32298 121.295 7.05448L123.999 10.7542L124 10.7532Z" fill="#111111"/>
</svg>
