<svg width="111" height="20" viewBox="0 0 111 20" fill="none" xmlns="http://www.w3.org/2000/svg">
<path d="M0 0.229955C0 0.0958146 0.0947175 0 0.227322 0H1.93223C2.06484 0 2.15956 0.0958146 2.15956 0.229955V19.527C2.15956 19.6611 2.06484 19.7569 1.93223 19.7569H0.227322C0.0947175 19.7569 0 19.6611 0 19.527V0.229955Z" fill="#1E1E1E"/>
<path d="M4.33801 0.229955C4.33801 0.0958146 4.43273 0 4.56533 0H6.27025C6.40285 0 6.49757 0.0958146 6.49757 0.229955V19.527C6.49757 19.6611 6.40285 19.7569 6.27025 19.7569H4.56533C4.43273 19.7569 4.33801 19.6611 4.33801 19.527V0.229955Z" fill="#1E1E1E"/>
<path d="M8.67615 0.229955C8.67615 0.0958146 8.77086 0 8.90347 0H10.6084C10.741 0 10.8357 0.0958146 10.8357 0.229955V19.527C10.8357 19.6611 10.741 19.7569 10.6084 19.7569H8.90347C8.77086 19.7569 8.67615 19.6611 8.67615 19.527V0.229955Z" fill="#1E1E1E"/>
<path d="M13.0142 0.229955C13.0142 0.0958146 13.1089 0 13.2415 0H14.9464C15.079 0 15.1737 0.0958146 15.1737 0.229955V19.527C15.1737 19.6611 15.079 19.7569 14.9464 19.7569H13.2415C13.1089 19.7569 13.0142 19.6611 13.0142 19.527V0.229955Z" fill="#1E1E1E"/>
<path d="M17.3522 7.91428C17.3522 7.78014 17.4469 7.68433 17.5795 7.68433H19.2844C19.417 7.68433 19.5117 7.78014 19.5117 7.91428V11.8427C19.5117 11.9768 19.417 12.0726 19.2844 12.0726H17.5795C17.4469 12.0726 17.3522 11.9768 17.3522 11.8427V7.91428Z" fill="#1E1E1E"/>
<path d="M30.8779 5.3847C30.2717 5.3847 29.7223 5.49968 29.2298 5.71047C28.7373 5.92126 28.3205 6.22787 27.9795 6.64945C27.6385 7.07103 27.3923 7.58843 27.2028 8.18248C27.0323 8.77653 26.9376 9.44723 26.9376 10.1946C26.9376 10.9419 27.0892 12.0342 27.3733 12.7624C27.6575 13.4714 28.0932 14.0272 28.6804 14.4104C29.2677 14.7937 29.9875 14.9853 30.8589 14.9853C31.7303 14.9853 31.9008 14.947 32.3933 14.8512C32.8859 14.7554 33.3974 14.602 33.9088 14.4487V16.0776C33.4163 16.2692 32.9238 16.4034 32.4123 16.48C31.9008 16.5758 31.3136 16.6142 30.6505 16.6142C29.3813 16.6142 28.3394 16.3459 27.487 15.8285C26.6535 15.3111 26.0283 14.5446 25.6116 13.5864C25.1948 12.6091 24.9865 11.4785 24.9865 10.1754C24.9865 8.87234 25.1191 8.35495 25.3653 7.56927C25.6305 6.76443 26.0094 6.09373 26.5019 5.51884C26.9945 4.94395 27.6196 4.50321 28.3394 4.1966C29.0782 3.89 29.9307 3.71753 30.8968 3.71753C31.8629 3.71753 32.1281 3.79418 32.7343 3.92832C33.3405 4.06246 33.8709 4.23493 34.3635 4.48404L33.6626 6.0554C33.2647 5.86377 32.8101 5.71047 32.3365 5.55717C31.9008 5.46135 31.4083 5.3847 30.8779 5.3847Z" fill="#1E1E1E"/>
<path d="M38.209 16.4609H36.3715V3.12354H38.209V16.4609Z" fill="#1E1E1E"/>
<path d="M42.2439 6.99435V16.4608H40.4064V6.99435H42.2439ZM41.3536 3.41089C41.6377 3.41089 41.865 3.48754 42.0734 3.66001C42.2818 3.83247 42.3765 4.10075 42.3765 4.48401C42.3765 4.86727 42.2818 5.13555 42.0734 5.30801C41.865 5.48048 41.6188 5.55713 41.3536 5.55713C41.0884 5.55713 40.8042 5.48048 40.5958 5.30801C40.4064 5.13555 40.2927 4.8481 40.2927 4.48401C40.2927 4.11992 40.3874 3.81331 40.5958 3.66001C40.7853 3.48754 41.0505 3.41089 41.3536 3.41089Z" fill="#1E1E1E"/>
<path d="M48.5521 16.6333C47.6997 16.6333 46.9419 16.4608 46.2979 16.1159C45.6538 15.771 45.1423 15.2536 44.7824 14.5445C44.4224 13.8164 44.252 12.8965 44.252 11.7851C44.252 10.6736 44.4414 9.65801 44.8203 8.94898C45.2181 8.22079 45.7485 7.68423 46.3926 7.35846C47.0556 7.01353 47.8323 6.84106 48.6847 6.84106C49.5372 6.84106 49.6887 6.89855 50.1434 7.01353C50.598 7.10934 50.9958 7.24348 51.28 7.37762L50.7306 8.89149C50.4086 8.75735 50.0676 8.64238 49.6887 8.56572C49.3288 8.46991 48.9878 8.43158 48.6658 8.43158C48.0785 8.43158 47.605 8.56572 47.2261 8.81484C46.8472 9.06396 46.582 9.42805 46.3926 9.94545C46.2221 10.4437 46.1274 11.0569 46.1274 11.8042C46.1274 12.5516 46.2221 13.1265 46.4115 13.6056C46.6009 14.1038 46.8662 14.4679 47.2261 14.7362C47.605 14.9853 48.0596 15.1003 48.59 15.1003C49.1204 15.1003 49.5751 15.0428 49.9539 14.9278C50.3518 14.8128 50.7117 14.6595 51.0716 14.4679V16.0776C50.7306 16.2692 50.3707 16.4225 49.9729 16.5183C49.613 16.595 49.1204 16.6333 48.5521 16.6333Z" fill="#1E1E1E"/>
<path d="M54.7466 11.1336C54.8792 10.9995 58.7437 6.99444 58.7437 6.99444H60.8843L57.1146 11.057L61.1306 16.4609H58.9521L55.8643 12.2259L54.7845 13.1457V16.4609H52.9659V3.12354H54.7845L54.7466 11.1336Z" fill="#1E1E1E"/>
<path d="M72.5345 16.4609H70.6591V10.7312H64.7487V16.4609H62.8733V3.92834H64.7487V9.12149H70.6591V3.92834H72.5345V16.4609Z" fill="#1E1E1E"/>
<path d="M83.0103 11.7276C83.0103 12.5133 82.8967 13.2031 82.7072 13.8164C82.4989 14.4296 82.1958 14.947 81.8169 15.3685C81.438 15.7901 80.9644 16.1159 80.434 16.3267C79.8847 16.5375 79.2785 16.6333 78.5965 16.6333C77.9145 16.6333 77.3841 16.5375 76.8537 16.3267C76.3233 16.0967 75.8497 15.7901 75.4708 15.3685C75.092 14.947 74.7889 14.4296 74.5615 13.8164C74.3342 13.2031 74.2395 12.5133 74.2395 11.7084C74.2395 10.9036 74.41 9.79215 74.751 9.06396C75.1109 8.33577 75.6224 7.78005 76.2854 7.41595C76.9484 7.03269 77.744 6.84106 78.6533 6.84106C79.5626 6.84106 80.2635 7.03269 80.9076 7.41595C81.5706 7.79921 82.0821 8.33577 82.461 9.06396C82.8209 9.77299 83.0103 10.6736 83.0103 11.7276ZM76.1149 11.7276C76.1149 12.4366 76.2096 13.0307 76.3801 13.5481C76.5506 14.0463 76.8348 14.4296 77.1947 14.6978C77.5736 14.9661 78.0471 15.1003 78.6154 15.1003C79.1838 15.1003 79.6763 14.9661 80.0362 14.6978C80.4151 14.4296 80.6803 14.0463 80.8508 13.5481C81.0213 13.0307 81.116 12.4175 81.116 11.7276C81.116 11.0377 81.0213 10.3862 80.8318 9.90713C80.6613 9.40889 80.3772 9.0448 80.0173 8.77652C79.6573 8.50823 79.1837 8.3741 78.5965 8.3741C77.7251 8.3741 77.1 8.66154 76.7022 9.25559C76.3043 9.83047 76.1149 10.6545 76.1149 11.7276Z" fill="#1E1E1E"/>
<path d="M92.8041 6.99438V16.4608H91.3265L91.0802 15.2153H90.9855C90.7961 15.541 90.5309 15.8093 90.2278 16.0201C89.9247 16.2309 89.5648 16.3842 89.2048 16.48C88.826 16.5758 88.4471 16.6333 88.0682 16.6333C87.3484 16.6333 86.7232 16.5183 86.2118 16.2884C85.7192 16.0393 85.3404 15.6752 85.0752 15.1578C84.8289 14.6404 84.6963 13.9888 84.6963 13.184V6.99438H86.5528V12.9157C86.5528 13.6439 86.7043 14.1996 87.0074 14.5637C87.3105 14.9278 87.803 15.1003 88.4471 15.1003C89.0912 15.1003 89.6027 14.9661 89.9815 14.717C90.3604 14.4679 90.6067 14.0847 90.7582 13.5864C90.9287 13.0882 91.0045 12.475 91.0045 11.7851V6.99438H92.8041Z" fill="#1E1E1E"/>
<path d="M101.215 13.7972C101.215 14.4104 101.063 14.947 100.76 15.3685C100.457 15.7901 100.021 16.1159 99.4532 16.3267C98.8849 16.5375 98.2029 16.6333 97.4073 16.6333C96.6116 16.6333 96.1759 16.5758 95.7024 16.48C95.2477 16.3842 94.812 16.25 94.4142 16.0584V14.4296C94.8309 14.6212 95.3045 14.8128 95.8539 14.9661C96.4033 15.1194 96.9337 15.1961 97.4451 15.1961C97.9566 15.1961 98.6386 15.0811 98.9417 14.8703C99.2448 14.6404 99.4153 14.3529 99.4153 13.9697C99.4153 13.5864 99.3584 13.5672 99.2448 13.4139C99.1311 13.2415 98.9038 13.069 98.5817 12.8965C98.2597 12.7049 97.8051 12.4941 97.1989 12.2642C96.6116 12.015 96.1002 11.7851 95.6834 11.536C95.2666 11.2869 94.9446 10.9994 94.7362 10.6736C94.5089 10.3287 94.4142 9.90712 94.4142 9.37056C94.4142 8.54656 94.7362 7.93335 95.3803 7.4926C96.0433 7.05185 96.9147 6.8219 97.9756 6.8219C99.0364 6.8219 99.0743 6.87939 99.5668 6.99437C100.078 7.09018 100.571 7.26265 101.044 7.4926L100.438 8.91065C100.173 8.77651 99.8889 8.6807 99.6047 8.60405C99.3206 8.50823 99.0364 8.43158 98.7522 8.37409C98.4681 8.31661 98.1839 8.27828 97.8809 8.27828C97.3315 8.27828 96.8958 8.37409 96.6116 8.54656C96.3275 8.71902 96.1759 8.96814 96.1759 9.27475C96.1759 9.58136 96.2328 9.69633 96.3654 9.84964C96.498 10.0221 96.7442 10.1754 97.0852 10.3479C97.4262 10.5203 97.8809 10.712 98.4492 10.9419C99.0364 11.1719 99.5289 11.4018 99.9267 11.6318C100.344 11.8617 100.647 12.1492 100.855 12.4941C101.101 12.839 101.215 13.2798 101.215 13.7972Z" fill="#1E1E1E"/>
<path d="M106.841 6.8219C107.656 6.8219 108.376 6.99437 108.963 7.3393C109.55 7.68423 110.005 8.1633 110.308 8.81484C110.63 9.46638 110.8 10.2137 110.8 11.0952V12.1109H104.511C104.511 13.0882 104.776 13.8164 105.25 14.3338C105.742 14.8511 106.406 15.1003 107.277 15.1003C108.148 15.1003 108.414 15.0428 108.868 14.947C109.342 14.832 109.834 14.6595 110.327 14.4296V15.9818C109.872 16.1925 109.399 16.3459 108.906 16.4608C108.432 16.5566 107.864 16.6141 107.201 16.6141C106.538 16.6141 105.496 16.4417 104.814 16.0776C104.113 15.7135 103.583 15.1769 103.185 14.4679C102.806 13.7397 102.617 12.8582 102.617 11.8042C102.617 10.7503 102.787 9.83047 103.128 9.10228C103.488 8.37409 103.981 7.79921 104.606 7.41595C105.25 7.03269 106.008 6.8219 106.841 6.8219ZM106.841 8.25912C106.178 8.25912 105.648 8.46991 105.25 8.91065C104.852 9.3514 104.625 9.96461 104.549 10.7503H108.963C108.963 10.2521 108.887 9.83047 108.736 9.44722C108.584 9.06396 108.357 8.77651 108.035 8.56572C107.732 8.37409 107.334 8.25912 106.841 8.25912Z" fill="#1E1E1E"/>
</svg>
