<svg width="106" height="26" viewBox="0 0 106 26" fill="none" xmlns="http://www.w3.org/2000/svg">
<g clip-path="url(#clip0_315_177)">
<path d="M6.96466 25.9257C1.71363 25.9257 0.918013 25.3067 1.1873 24.1181C1.38314 23.2762 5.67944 7.0819 5.77737 6.71047C6.20577 4.97713 8.00508 5.39809 8.07852 5.41047C8.12748 5.42285 8.1642 5.47237 8.15196 5.5219C7.99284 6.90856 5.47136 20.5895 5.44688 20.7628C5.2388 22.1124 5.44688 22.2486 7.09931 22.2486C15.2635 22.2486 18.2256 16.5409 19.0335 11.9847C20.4289 4.0857 12.7665 1.72094 2.08083 2.68666C1.98291 2.69904 1.27298 2.73618 0.966975 2.58761C0.563049 2.38951 0.220323 1.89428 0.134642 1.6219C0.0979213 1.52285 0.0979213 1.4238 0.134642 1.36189C0.159122 1.32475 0.183603 1.28761 0.220324 1.27523C3.67206 0.656179 8.47021 -0.173345 11.567 0.160941C23.2931 1.41142 23.2931 8.87713 22.6076 12.6533C22.2282 14.8448 20.2453 25.9257 6.96466 25.9257ZM48.9975 21.0476C48.2386 23.66 45.9252 25.4676 43.2323 25.5419C40.9679 25.6657 38.7035 24.3657 37.712 22.36C37.3203 21.6047 37.1 20.7876 37.0143 19.8219C36.6716 19.9828 36.3166 20.1314 35.9617 20.2428C35.4965 21.5676 34.6887 22.7933 33.5748 23.6352C31.188 25.4305 27.9566 25.9505 25.0557 24.3409C21.4815 21.8524 21.9222 16.8381 24.4192 13.8914C26.9039 10.9448 31.4695 10.4495 33.7584 11.8981C35.3129 12.9133 36.1453 14.659 36.3656 16.479C36.6961 16.2438 36.9898 15.9467 37.3326 15.5505C37.6508 15.1667 38.2751 14.2257 38.2751 14.2257C38.6423 13.6562 39.0951 13.1238 39.597 12.6657C40.6497 11.7371 41.9838 11.279 43.3302 11.279C44.4931 11.279 45.6804 11.6257 46.7085 12.3314C47.039 12.5543 47.1247 12.6781 47.0145 12.8638C46.8677 13.1362 46.7085 13.3838 46.5127 13.619C46.1455 14.0648 45.766 13.9038 45.509 13.7924C45.4723 13.78 45.4356 13.7552 45.3988 13.7428C44.2483 13.3343 43.3058 13.4209 42.3266 14.0152C40.209 15.3152 39.8908 17.8409 40.2824 19.7724C40.6864 21.7409 41.7635 22.4095 42.6081 22.62C44.1503 23.0162 46.2189 22.1743 47.5286 20.6143C47.9203 20.1438 48.5201 20.4533 48.9485 20.8C48.973 20.8124 48.9852 20.8247 48.9975 20.8371C49.0587 20.9114 48.9975 21.0352 48.9975 21.0476ZM32.9016 14.4114C31.3226 12.4305 28.4584 13.099 26.8427 14.9314C25.227 16.7762 25.2025 19.7971 26.9651 21.0724C28.6175 22.2609 31.2492 21.6295 32.5466 19.7228C33.4524 18.3857 34.2725 16.1324 32.9016 14.4114ZM72.4129 18.5714C72.1926 20.5028 71.2134 22.459 69.6466 23.6476C67.2598 25.4428 64.0284 25.9628 61.1275 24.3533C60.7603 24.0933 60.4298 23.8086 60.1483 23.499C59.6587 23.9447 59.0834 24.3905 58.4469 24.7743C56.5007 25.9628 53.7834 25.6533 52.1065 24.0686C51.0416 23.1028 50.5275 21.5057 50.7233 19.8838C50.8947 18.4476 52.1677 13.4952 53.355 9.06285C52.1921 9.09999 51.1762 9.06285 50.6132 8.79047C49.7074 8.34475 49.9277 6.8219 50.0134 6.38856C50.0256 6.32666 50.0868 6.27713 50.148 6.27713C50.5887 6.27713 52.2533 6.26475 54.1016 6.25237C54.8727 3.40475 55.4847 1.26285 55.4847 1.26285C55.7051 0.507611 56.5252 0.0990363 57.2718 0.0990363C57.4187 0.0990363 57.5533 0.11142 57.688 0.148563C57.7369 0.160944 57.7614 0.210468 57.7492 0.272373C57.5533 1.49809 57.1739 3.72666 56.721 6.25237C57.7247 6.25237 58.6305 6.26475 59.2425 6.27713C61.3968 6.32666 64.2365 6.45046 64.8118 6.47523C64.873 6.47523 64.9342 6.52475 64.9464 6.58666C65.0076 6.85904 65.0566 7.53999 64.2854 7.9857C63.6245 8.35713 58.8263 8.7038 56.6231 8.85237C56.5007 8.86475 56.3905 8.86475 56.2681 8.87713C55.3501 14.0028 54.3709 19.3143 54.3219 19.5495C54.0771 20.7876 54.8483 21.5428 55.5337 21.6914C56.7945 21.9638 57.8226 21.419 58.6794 20.6267C58.2021 18.3114 58.9487 15.7114 60.4787 13.8914C62.9635 10.9448 67.5291 10.4495 69.818 11.8981C71.9723 13.3219 72.7312 16.12 72.4129 18.5714ZM68.9857 14.4114C67.4067 12.4305 64.5425 13.099 62.9268 14.9314C61.3111 16.7762 61.2866 19.7971 63.0492 21.0724C64.7016 22.2609 67.3333 21.6295 68.6307 19.7228C69.5365 18.3857 70.3566 16.1324 68.9857 14.4114ZM86.7584 8.20856C87.4683 8.67904 88.3619 8.45618 88.9372 8.02284C89.3289 7.7257 89.5859 7.24285 89.6471 6.72285C89.7206 6.17808 89.5859 5.41047 88.9861 5.01428C88.7536 4.8657 88.4843 4.8038 88.2028 4.8038C87.7621 4.8038 87.3092 4.96475 86.9543 5.17523C86.8441 5.24951 86.7584 5.3238 86.6727 5.42285C86.6238 5.48475 86.5748 5.55904 86.5381 5.63332C86.0362 6.52475 85.9261 7.62665 86.7584 8.20856ZM103.209 11.9228C101.581 10.8828 98.7783 10.8457 96.4037 11.9847C96.9178 9.12475 98.0316 1.27523 98.1908 0.284751C98.203 0.247608 98.1908 0.222848 98.1785 0.198086C98.1663 0.173324 98.1418 0.160941 98.1173 0.160941C97.9827 0.136179 97.848 0.111418 97.7011 0.111418C96.9545 0.111418 96.1344 0.519989 95.9141 1.27523C95.9141 1.27523 91.5566 19.0667 91.4097 19.8962C90.406 21.4686 89.1942 22.0752 87.8723 21.6667C86.7707 21.32 86.8319 20.4657 86.8686 20.0448C86.9298 19.3762 88.0681 12.7771 88.2762 11.3038C88.2884 11.2047 88.2272 11.1181 88.1293 11.0933C87.8968 11.0562 87.6519 11.0314 87.4071 11.0314C86.5993 11.0314 85.767 11.3286 85.2774 12.5667C85.2651 12.6162 83.833 17.68 83.5637 18.7695C83.527 18.9057 83.5025 19.0419 83.4658 19.1781C82.4132 20.7876 80.7852 22.199 78.4351 21.6914C77.7496 21.5428 76.9908 21.0352 77.2233 19.5495C77.2845 19.1533 79.4388 6.54951 80.063 2.5257C80.0753 2.4638 80.0508 2.41428 80.0018 2.40189C79.8672 2.36475 79.7203 2.35237 79.5857 2.35237C78.839 2.35237 78.0312 2.76094 77.7986 3.51618C77.7986 3.51618 74.3591 16.2809 73.6247 19.8838C73.2942 21.4686 73.5268 23.0162 74.9222 24.2667C76.2196 25.4428 78.7166 25.8143 80.7852 24.9352C81.9847 24.4276 82.9884 23.5981 83.6861 22.88C84.5919 24.7124 86.7584 25.9009 88.7536 25.4181C90.2958 25.0467 91.4709 23.92 92.242 22.979C92.548 23.4247 92.903 23.8209 93.2824 24.1305C95.0573 25.5543 97.5665 25.8143 99.8432 25.1333C100.994 24.8733 102.095 24.3657 103.05 23.6476C104.617 22.4467 105.608 20.5028 105.816 18.5714C106.135 16.12 105.364 13.3219 103.209 11.9228ZM102.083 20.0076C100.798 21.9143 97.848 22.6324 96.1956 21.4438C94.4208 20.1686 94.7635 17.0486 96.3792 15.2162C97.9949 13.3714 100.859 12.7152 102.438 14.6962C103.809 16.4048 102.989 18.6581 102.083 20.0076Z" fill="#1D78C6"/>
</g>
<defs>
<clipPath id="clip0_315_177">
<rect width="106" height="26" fill="white"/>
</clipPath>
</defs>
</svg>
