<svg width="80" height="24" viewBox="0 0 80 24" fill="none" xmlns="http://www.w3.org/2000/svg">
<g clip-path="url(#clip0_883_938)">
<path d="M59.7609 0.363718C61.4955 0.363718 62.7515 1.67281 62.7515 3.20008C62.7515 4.72735 61.4057 6.08008 59.4917 6.08008C57.7571 6.08008 56.3291 4.85826 56.3291 3.26554C56.3291 1.84735 57.7945 0.356445 59.7684 0.356445L59.7609 0.363718Z" fill="#58AEFB"/>
<path d="M1.01682 23.0545L1.56262 22.96C2.38505 22.7927 2.48224 22.6982 2.48224 22.16V10.4945H0V10.3273L2.48224 8.07273L2.58692 7.25091C3.13271 2.54545 6.72897 0 11.7383 0C15.1402 0 17.3832 1.31636 17.3832 3.07636C17.3832 4.79273 15.5888 5.85455 13.914 5.85455C13.3682 5.85455 12.8224 5.78182 12.3439 4.83636L10.5869 1.38182C10.3477 0.952727 10.243 0.821818 10.0112 0.821818C8.95701 0.821818 7.97009 2.74182 8.17196 6.74182L8.24673 8H15.4243L17.8692 7.24364L17.9439 7.31636C17.8883 8.30466 17.8534 9.29396 17.8393 10.2836V22.1964C17.8393 22.6982 17.9065 22.7927 18.7514 22.96L19.2972 23.0545V23.3527H10.8935V23.0618L11.2299 22.9891C11.9477 22.8582 12.015 22.6982 12.015 22.16V10.4873H8.30654V22.1964C8.30654 22.7055 8.38131 22.8655 9.09159 22.96L9.80187 23.0618V23.3527H1.01682V23.0618V23.0545ZM35.8505 8.50182C36.4636 9.09091 36.8972 9.85454 36.8972 11.8764V22.2036C36.8972 22.7273 37.0019 22.7927 37.8243 22.96L38.3701 23.0545V23.3527H29.8243V23.0618L30.3701 22.96C30.9533 22.8582 31.0579 22.6982 31.0579 22.1964V13.7309C31.0579 12.5673 30.9533 11.7455 30.5122 11.28C30.1142 10.949 29.5992 10.782 29.0766 10.8145C28.5308 10.8145 27.9551 10.9818 27.3421 11.1782V22.2036C27.3421 22.6982 27.4168 22.8655 27.9925 22.96L28.5383 23.0618V23.3527H20V23.0618L20.5458 22.96C21.3607 22.8 21.4579 22.6982 21.4579 22.1673V11.9418C21.4579 11.3818 21.3907 11.0836 21.1215 10.72L20.1645 9.59273V9.49091L27.4467 7.20727L27.5215 7.28C27.4406 8.17066 27.3807 9.06302 27.3421 9.95636L27.3121 10.6473L27.4467 10.72C29.5551 8.36364 31.357 7.47636 33.1589 7.47636C34.2804 7.47636 35.2 7.86909 35.8505 8.49455V8.50182ZM50.3402 8.59636L49.5925 8.13091V8H55.7234V8.13091L54.7963 8.72727C53.914 9.32364 53.4729 9.68727 52.7925 11.2145L47.2822 23.5564H45.7495L39.5888 9.95636C39.043 8.76364 38.8112 8.69091 37.9589 8.46545L37.3458 8.29818V8.00727H47.5514V8.29818L46.6991 8.46545C45.9514 8.59636 45.7495 8.69091 45.7495 9.02545C45.7495 9.19273 45.8168 9.62182 45.9813 10.0145L49.0093 17.8618H49.0841L50.3776 14.4218C50.886 13.0327 51.6336 10.4873 51.6336 9.89091C51.6336 9.45455 51.0953 9.02545 50.3402 8.59636ZM62.4523 22.1673C62.4523 22.6982 62.5271 22.7927 63.372 22.96L63.9178 23.0545V23.3527H55.1028V23.0618L55.6486 22.96C56.471 22.7927 56.5682 22.6982 56.5682 22.16V11.9055C56.5682 11.3455 56.4935 11.0473 56.2318 10.6764L55.2748 9.55636V9.48364L62.4897 7.23636L62.557 7.30909C62.4822 8.53091 62.4598 9.95636 62.4598 10.2836V22.1673H62.4523ZM79.7682 17.2655L79.9327 17.3382L79.1551 23.3527H64.4262L64.3514 23.1564L73.4355 8.59636L73.3981 8.52364L71.5664 8.76364C69.9664 8.96 69.286 9.22909 68.6729 9.81818C68.1944 10.2836 66.5944 12.2036 65.271 13.76L65.0692 13.6873L66.3626 6.84364H66.5645L66.7365 7.49818C66.8336 7.89818 66.9084 8.00727 67.3495 8.00727H79.9327L80.0075 8.20364L71.3346 22.7273L71.4019 22.8291L72.015 22.7273C74.9682 22.2691 76.1645 21.7091 77.0467 20.8364C77.6598 20.2473 78.1383 19.52 79.7682 17.2727V17.2655Z" fill="white"/>
</g>
<defs>
<clipPath id="clip0_883_938">
<rect width="80" height="24" fill="white"/>
</clipPath>
</defs>
</svg>
