<svg width="115" height="24" viewBox="0 0 115 24" fill="none" xmlns="http://www.w3.org/2000/svg">
<path d="M10.7879 12.6183C11.9861 13.2994 12.5853 13.6399 13.2433 13.6405C13.9013 13.641 14.501 13.3015 15.7005 12.6225L23.3465 8.29423C23.6917 8.09882 23.9045 7.73665 23.9045 7.34454C23.9045 6.95248 23.6917 6.59027 23.3465 6.39489L15.6977 2.06502C14.4995 1.38674 13.9004 1.0476 13.2431 1.04785C12.5857 1.04811 11.9869 1.3877 10.7892 2.0669L4.21377 5.79587C4.16507 5.82351 4.1407 5.83731 4.11796 5.85043C1.87186 7.14527 0.484136 9.50927 0.46558 12.0723C0.465393 12.0982 0.465393 12.1259 0.465393 12.1813C0.465393 12.2366 0.465393 12.2642 0.46558 12.2901C0.484094 14.8502 1.86872 17.212 4.11084 18.5079C4.1335 18.521 4.15783 18.5349 4.20646 18.5625L8.32533 20.9044C10.7254 22.2691 11.9254 22.9514 13.2432 22.9518C14.561 22.9522 15.7615 22.2707 18.1624 20.9077L22.5105 18.4393C23.7127 17.7568 24.3138 17.4156 24.6438 16.853C24.9739 16.2904 24.9739 15.6072 24.9739 14.2406V11.6007C24.9739 11.2216 24.7654 10.8722 24.4291 10.6877C24.1036 10.5092 23.707 10.5119 23.384 10.6947L14.4683 15.7417C13.8702 16.0803 13.5711 16.2496 13.2429 16.2497C12.9147 16.2498 12.6155 16.0807 12.0171 15.7424L5.98279 12.3313C5.68052 12.1604 5.52938 12.075 5.40798 12.0596C5.13122 12.0244 4.86512 12.1771 4.75968 12.4316C4.71345 12.5431 4.7144 12.7148 4.71627 13.058C4.71764 13.3106 4.71833 13.437 4.74232 13.5532C4.79601 13.8134 4.93504 14.0491 5.13804 14.2239C5.22867 14.302 5.33978 14.3651 5.56201 14.4914L12.0137 18.1584C12.6136 18.4994 12.9136 18.6699 13.243 18.67C13.5724 18.6701 13.8724 18.4997 14.4726 18.1591L22.3804 13.6701C22.5854 13.5537 22.6879 13.4955 22.7647 13.5392C22.8416 13.583 22.8416 13.6995 22.8416 13.9325V15.1299C22.8416 15.4715 22.8416 15.6424 22.759 15.783C22.6765 15.9237 22.5263 16.009 22.2257 16.1796L15.7033 19.8821C14.5025 20.5638 13.9021 20.9046 13.2431 20.9043C12.5841 20.904 11.984 20.5627 10.7839 19.8799L4.68162 16.4085C4.66223 16.3975 4.65256 16.392 4.6435 16.3868C3.36402 15.6505 2.57452 14.3035 2.56711 12.8441C2.56706 12.8338 2.56706 12.8228 2.56706 12.8008V11.7016C2.56706 10.896 3.00277 10.1513 3.71054 9.74736C4.33597 9.39036 5.10738 9.38965 5.73349 9.74548L10.7879 12.6183Z" fill="#1A1523"/>
<path d="M41.2637 17.6647C37.3172 17.6647 34.9364 15.3517 34.9364 12.0001C34.9364 8.6957 37.3331 6.33545 41.2797 6.33545C44.8588 6.33545 46.7924 8.03484 46.952 10.2692H44.6352C44.5233 9.37231 43.7244 8.25515 41.4076 8.25515H41.1521C38.755 8.25515 37.1574 9.62409 37.1574 12.0001C37.1574 14.3761 38.787 15.7451 41.1521 15.7451H41.4076C43.7404 15.7451 45.0027 14.6751 45.0027 13.7781V13.6523H41.3277V11.7326H45.5937C46.5685 11.7326 47.1119 12.2833 47.1119 13.2432V17.5074H45.0027V16.28C44.5713 16.815 43.4369 17.6647 41.2637 17.6647Z" fill="#1A1523"/>
<path d="M50.6491 17.5073H48.4439V6.49268H50.6491V17.5073Z" fill="#1A1523"/>
<path d="M58.4687 17.5073H56.2639V8.41238H51.758V6.49268H62.9747V8.41238H58.4687V17.5073Z" fill="#1A1523"/>
<path d="M70.6313 17.5073H64.0801V6.49268H70.4398C72.4371 6.49268 73.9709 7.59413 73.9709 9.40369C73.9709 10.6625 73.156 11.5594 72.1972 11.9056C73.3475 12.1573 74.2424 13.0857 74.2424 14.5176C74.2424 16.3429 72.6286 17.5073 70.6313 17.5073ZM66.2853 8.41238V10.9614H70.1999C71.1747 10.9614 71.7497 10.5209 71.7497 9.63971C71.7497 8.91589 71.1747 8.41238 70.1999 8.41238H66.2853ZM66.2853 12.8811V15.5876H70.3118C71.3663 15.5876 72.0216 15.0526 72.0216 14.2186C72.0216 13.3217 71.3663 12.8811 70.3118 12.8811H66.2853Z" fill="#1A1523"/>
<path d="M81.5339 17.6647C77.9068 17.6647 75.1902 15.5247 75.1902 12.0001C75.1902 8.47542 77.9068 6.33545 81.5339 6.33545C85.1605 6.33545 87.8611 8.47542 87.8611 12.0001C87.8611 15.5247 85.1605 17.6647 81.5339 17.6647ZM81.4059 15.7451H81.6614C83.8186 15.7451 85.64 14.3761 85.64 12.0001C85.64 9.62409 83.8186 8.25515 81.6614 8.25515H81.4059C79.2487 8.25515 77.4114 9.62409 77.4114 12.0001C77.4114 14.3761 79.2487 15.7451 81.4059 15.7451Z" fill="#1A1523"/>
<path d="M95.0315 17.6647C91.4044 17.6647 88.6882 15.5247 88.6882 12.0001C88.6882 8.47542 91.4044 6.33545 95.0315 6.33545C98.6586 6.33545 101.359 8.47542 101.359 12.0001C101.359 15.5247 98.6586 17.6647 95.0315 17.6647ZM94.9036 15.7451H95.1595C97.3163 15.7451 99.138 14.3761 99.138 12.0001C99.138 9.62409 97.3163 8.25515 95.1595 8.25515H94.9036C92.7467 8.25515 90.909 9.62409 90.909 12.0001C90.909 14.3761 92.7467 15.7451 94.9036 15.7451Z" fill="#1A1523"/>
<path d="M113.773 17.5073H110.865L106.295 12.535L104.697 13.8725V17.5073H102.492V6.49268H104.697V11.3548L110.466 6.49268H113.517L107.925 11.1818L113.773 17.5073Z" fill="#1A1523"/>
</svg>
