<svg width="110" height="24" viewBox="0 0 110 24" fill="none" xmlns="http://www.w3.org/2000/svg">
<path fill-rule="evenodd" clip-rule="evenodd" d="M13.9707 20.5478L13.5992 19.8031L12.6382 20.4221C11.9249 19.5527 10.7749 18.5298 8.04332 18.5298C5.15522 18.4992 1.61444 20.7932 0 22.7788L0.279826 23.151C2.48315 21.6925 4.75135 21.0433 6.73865 21.0433C8.35345 21.0433 9.68806 21.8183 10.2463 22.9651L13.9707 20.5478ZM16.9536 3.54918C16.3939 2.68085 14.9039 1.06885 11.9538 1.06885C8.41511 1.03858 5.31136 3.79814 5.18659 7.14822C5.09249 9.81553 6.36614 13.2579 6.24102 15.9252C6.18007 16.8252 5.99221 17.4763 5.62113 17.9713L5.99221 18.4069L8.16666 16.8256C9.22322 16.0473 9.81246 15.0871 9.78109 13.4135C9.75008 11.3349 8.78691 8.14049 8.78691 5.69115C8.78691 3.58123 9.59502 1.99951 11.4269 1.99951C12.6692 1.99951 13.6627 3.27101 13.817 3.98441C13.8805 4.32455 13.817 4.48019 13.5069 4.6971L12.6382 5.28833V6.24855L16.9539 3.54882L16.9536 3.54918ZM24.9527 11.8001L20.792 7.20984L14.3015 10.9927V11.861L15.6371 11.118V19.7094C15.6371 20.2045 15.8239 20.5151 16.1337 20.733L19.5807 22.9651L24.4565 20.1418L24.0526 19.2735L21.506 20.6383L19.2089 19.0559C18.9291 18.8714 18.8981 18.6847 18.8981 18.2812V15.4899L24.9527 11.8001ZM21.6921 12.4825L18.8981 14.2188V9.69016L19.1466 9.53594L21.6921 12.4825ZM35.7964 23.057C35.4841 22.183 34.5805 21.2805 32.9575 21.2185C31.4275 21.1871 29.2438 21.7802 27.4358 23.151L27.0915 22.714C28.4026 21.2805 31.46 18.9761 34.6721 18.9437C36.3582 18.9437 37.5431 19.5053 38.3854 20.4086L39.7903 19.6293L40.1959 20.4403L35.7964 23.057ZM55.0446 3.9577C53.8258 4.67359 53.4201 5.64093 53.4201 7.13647V19.0676C53.4201 19.8173 53.5149 20.1582 53.9199 20.3776L54.3259 20.5966L55.4488 19.9399L55.8238 20.6899L51.9233 23.0271L50.583 22.1221C49.9881 21.7175 49.7378 21.2185 49.7378 20.2522V9.59721C49.7378 7.60411 50.3638 6.5431 51.2371 5.89025L51.7365 5.51627L48.0553 3.3654L46.4017 4.36159V19.8782C46.4017 21.1868 46.2145 21.3741 45.0585 21.9654C45.0585 21.9654 44.1563 22.4024 42.9104 23.0567H42.6598V5.85926C42.6598 5.01871 42.565 4.8303 42.097 4.45704L40.788 3.39816L39.1964 4.30068V13.2126C39.1964 14.7691 38.9469 15.891 37.6992 16.6692L34.5801 18.6324L34.2664 18.1035C35.2346 17.3545 35.4524 16.2942 35.4524 15.0487V5.95186C35.4524 4.61197 35.2671 4.08271 33.8615 4.33203C33.3318 4.42463 32.5205 4.54964 32.0214 4.61197C29.9618 4.89299 29.0877 3.42808 30.4922 1.59027C30.4922 1.59027 30.8358 1.12263 31.7088 0L32.3968 0.468712L31.8959 1.18496C31.2415 2.12132 31.7715 2.61959 32.8335 2.24419C33.3318 2.05685 34.2985 1.6843 34.9847 1.40222C37.9473 0.25074 39.0403 2.15123 39.1964 3.27279L42.8783 1.06101L46.058 3.49005L49.9881 1.06101L53.0152 2.77523C54.0439 3.3654 54.5434 3.11644 55.2613 2.74211L55.8544 2.43118L56.3218 3.21082L55.0446 3.9577ZM69.1114 19.0003L68.832 18.3218L67.7472 18.876V10.5168C67.7472 10.0869 67.5932 9.74644 67.1591 9.49819L63.1588 7.12364L56.6782 10.8865V11.7819L58.0128 11.0108V19.1852C58.0128 19.9245 58.1968 20.2034 58.6641 20.4805L62.6009 22.7949L69.1114 19.0003ZM84.4827 20.7587L84.1729 20.0488L83.0247 20.6981L82.6237 20.4502C82.1895 20.2034 82.0957 19.8936 82.0957 19.1538V10.3013C82.0957 9.59115 81.941 9.28414 81.5058 8.97499L79.1182 7.18526L75.4287 9.28414L73.4764 7.18526L69.5695 9.56159L70.0971 10.177L71.4296 9.3771L72.3906 10.4559V22.7343H72.6387C74.1893 22.053 74.6852 21.8382 74.6852 21.8382C75.4291 21.5291 75.6469 21.2826 75.6469 20.42V10.1767L76.9191 9.43729L78.407 10.6101C78.8088 10.9485 78.8704 11.2263 78.8704 11.7499L78.9018 20.1418C78.9018 21.0661 79.1813 21.591 79.8001 21.9615L81.1037 22.7343L84.4827 20.7587ZM64.4913 20.2967L64.3063 20.3277L61.7625 18.8461C61.3301 18.5993 61.235 18.3218 61.235 17.7655L61.2677 9.65312L61.4524 9.59079L63.9027 11.0108C64.3975 11.2886 64.4913 11.5355 64.4913 12.059V20.2967ZM93.0824 20.6251L92.8956 20.6565L90.6859 19.2197C90.2517 18.9401 90.0959 18.7211 90.0959 18.1615V10.208L92.8643 8.52159L93.0824 8.64696V20.6248V20.6251ZM97.6873 19.3461L97.4081 18.6285L96.287 19.2197V5.9971C96.287 4.06348 95.4166 2.8169 93.9853 1.94288L92.5855 1.06885L88.1967 3.62575L89.0679 4.03214L90.5009 3.25285L91.4323 3.78247C92.4287 4.34414 93.0824 5.46819 93.0824 6.6211V7.11901L85.5521 11.4852V12.3283L86.8275 11.6419V19.5645C86.8275 20.249 87.0139 20.5311 87.4495 20.8114L91.1835 23.151L97.6873 19.3461ZM109.792 11.923L105.59 7.30707L99.0871 11.1109V11.9842L100.425 11.237V19.8768C100.425 20.3747 100.612 20.6871 100.923 20.9061L104.377 23.151L109.262 20.3117L108.89 19.4387L106.338 20.8114L104.035 19.2193C103.723 19.0021 103.692 18.8464 103.692 18.4411V15.6338L109.792 11.923ZM106.493 12.6093L103.693 14.3556V9.80129L103.973 9.646L106.493 12.6093Z" fill="#fff"/>
</svg>
