<svg width="125" height="21" viewBox="0 0 125 21" fill="none" xmlns="http://www.w3.org/2000/svg">
<g clip-path="url(#clip0_315_328)">
<path d="M41.0074 3.97656H46.6051L48.7496 13.4391H48.7973L50.8421 3.97656H56.4654L57.447 19.2682H53.6129L53.1128 8.07615H53.0651L50.3948 19.2682H46.9868L44.2944 8.07615H44.2229L43.7474 19.2682H40.0301L41.0074 3.97656Z" fill="#FF3670"/>
<path d="M58.1072 13.3513C58.1072 9.62765 60.728 7.26221 64.6115 7.26221C68.6381 7.26221 71.1874 9.8031 70.3064 14.4024H61.9643C62.4176 15.7606 63.728 16.3519 65.4431 16.3519C66.7535 16.3519 68.1832 16.023 69.3027 15.3008V18.6516C68.0639 19.1772 66.5626 19.3965 65.2284 19.3965C60.7255 19.3965 58.1072 16.9872 58.1072 13.3513ZM66.923 11.8834C66.7526 10.7227 65.7558 10.1094 64.5161 10.1094C63.2295 10.1094 62.3486 10.7884 61.9669 11.8834H66.923Z" fill="#FF3670"/>
<path d="M71.3878 7.39396H74.6255V8.33387H74.6732C75.2449 7.62893 76.1029 7.28273 77.1747 7.28273C77.4956 7.28185 77.8157 7.31177 78.1298 7.37203V10.809C77.6781 10.6291 77.1923 10.5325 76.7001 10.5246C75.7706 10.5246 75.0557 10.9844 75.0557 12.1014V19.2682H71.3878V7.39396Z" fill="#FF3670"/>
<path d="M79.1785 7.3939H82.4162V8.35731H82.4639C83.2503 7.59049 84.2037 7.26074 85.371 7.26074C86.7529 7.26074 87.8486 7.72052 88.5396 8.59699H88.5873C89.3976 7.69859 90.4933 7.26074 91.825 7.26074C94.3026 7.26074 95.8755 8.72779 95.8755 11.1379V19.2681H92.2297V11.9713C92.2297 11.0079 91.7057 10.4384 90.8008 10.4384C89.919 10.4384 89.3712 11.0079 89.3712 11.9713V19.2681H85.7015V11.9713C85.7015 11.0079 85.1776 10.4384 84.2719 10.4384C83.3662 10.4384 82.843 11.0079 82.843 11.9713V19.2681H79.1785V7.3939Z" fill="#FF3670"/>
<path d="M96.7189 15.4759C96.7189 13.0666 98.3872 11.5995 100.769 11.5995C101.699 11.5995 102.509 11.8181 103.176 12.2128H103.224V11.8619C103.224 10.6792 102.366 10.0001 100.838 10.0001C99.7427 10.0001 98.6939 10.351 97.9083 10.745V7.85397C99.0785 7.43721 100.322 7.22188 101.577 7.21875C104.96 7.21875 106.89 8.83932 106.89 11.84V19.2684H103.482V18.5635H103.435C102.767 19.0891 101.816 19.3742 100.742 19.3742C98.3633 19.375 96.7189 17.8852 96.7189 15.4759ZM101.866 16.9186C102.747 16.9186 103.366 16.3273 103.366 15.407C103.366 14.5093 102.747 13.9188 101.866 13.9188C100.985 13.9188 100.317 14.5101 100.317 15.407C100.317 16.3038 100.984 16.9186 101.866 16.9186Z" fill="#FF3670"/>
<path d="M109.752 2.99121C111.039 2.99121 111.872 3.6703 111.872 4.7653C111.872 5.86029 111.039 6.53938 109.752 6.53938C108.49 6.53938 107.632 5.86029 107.632 4.7653C107.632 3.6703 108.466 2.99121 109.752 2.99121ZM107.917 7.39392H111.587V19.2682H107.917V7.39392Z" fill="#FF3670"/>
<path d="M112.409 13.3293C112.409 9.64797 114.839 7.26215 118.103 7.26215C119.296 7.26215 120.39 7.56841 121.248 8.13784H121.295V3.5166H124.965V19.268H121.582V18.2137H121.535C120.653 19.0024 119.366 19.3526 118.104 19.3526C114.766 19.3526 112.409 16.9652 112.409 13.3293ZM118.841 16.1326C120.319 16.1326 121.462 15.1034 121.462 13.3074C121.462 11.4894 120.319 10.4602 118.841 10.4602C117.316 10.4602 116.221 11.5333 116.221 13.3074C116.221 15.0814 117.316 16.1349 118.841 16.1349V16.1326Z" fill="#FF3670"/>
<path d="M27.6854 0.0120196C24.6933 -0.105838 21.7382 0.656764 19.25 2.18895C16.7617 3.72113 14.8699 5.94301 13.8496 8.53155C13.1478 6.74746 12.0263 5.12778 10.5651 3.78812C9.18796 2.51944 7.53843 1.52844 5.72162 0.878292C3.90481 0.228148 1.96058 -0.0668788 0.0128734 0.0120196C-0.0729506 1.80256 0.247973 3.5899 0.955186 5.2601C1.6624 6.9303 2.74039 8.44672 4.12043 9.7127C4.74413 10.2863 5.4244 10.8055 6.15249 11.2636C7.16746 11.9044 7.99692 12.7634 8.56886 13.7658C9.1408 14.7682 9.43793 15.8839 9.43445 17.0158V21.0003H18.2639V17.0158C18.2606 15.8839 18.5578 14.7684 19.1298 13.766C19.7017 12.7636 20.531 11.9046 21.5458 11.2636C22.2742 10.8059 22.9546 10.2867 23.5779 9.7127C24.9581 8.44684 26.0362 6.93043 26.7434 5.26021C27.4506 3.58998 27.7715 1.80258 27.6854 0.0120196Z" fill="#FF3670"/>
</g>
<defs>
<clipPath id="clip0_315_328">
<rect width="125" height="21" fill="white"/>
</clipPath>
</defs>
</svg>
