<svg width="98" height="20" viewBox="0 0 98 20" fill="none" xmlns="http://www.w3.org/2000/svg">
<g clip-path="url(#clip0_315_166)">
<path d="M3.21084 13.1895C3.21084 14.3393 3.45998 15.222 3.78561 15.756C4.21255 16.4555 4.84935 16.7518 5.49854 16.7518C6.33589 16.7518 7.1019 16.5414 8.5781 14.4733C9.76072 12.8157 11.1542 10.489 12.0918 9.03037L13.6797 6.55916C14.7827 4.84293 16.0594 2.93508 17.5232 1.64188C18.7182 0.586387 20.0073 0 21.3047 0C23.4828 0 25.5575 1.27853 27.1454 3.67644C28.8831 6.30262 29.7267 9.61047 29.7267 13.0241C29.7267 15.0534 29.3318 16.5445 28.6598 17.7225C28.0106 18.8618 26.7453 20 24.6168 20V16.7518C26.4393 16.7518 26.8942 15.0555 26.8942 13.1141C26.8942 10.3476 26.2574 7.27749 24.8546 5.08377C23.8591 3.52775 22.5689 2.57696 21.1496 2.57696C19.6145 2.57696 18.3791 3.74974 16.9908 5.84084C16.2527 6.95183 15.495 8.30576 14.6442 9.83351L13.7076 11.5141C11.8262 14.8932 11.3496 15.6628 10.4089 16.933C8.76004 19.1571 7.35207 20 5.49854 20C3.29975 20 1.90935 19.0356 1.04823 17.5822C0.345274 16.3979 0 14.844 0 13.0733L3.21084 13.1895Z" fill="#0081FB"/>
<path d="M2.53166 3.90576C4.00373 1.60733 6.1281 0 8.56466 0C9.97573 0 11.3785 0.423037 12.8434 1.63455C14.4457 2.95916 16.1535 5.14031 18.284 8.73508L19.048 10.0251C20.8922 13.1372 21.9415 14.7382 22.5555 15.4932C23.3453 16.4628 23.8984 16.7518 24.6168 16.7518C26.4393 16.7518 26.8942 15.0555 26.8942 13.1141L29.7267 13.0241C29.7267 15.0534 29.3318 16.5445 28.6598 17.7225C28.0106 18.8618 26.7453 20 24.6168 20C23.2936 20 22.1213 19.7089 20.825 18.4702C19.8285 17.5194 18.6634 15.8304 17.7671 14.312L15.1011 9.80105C13.7634 7.53717 12.5363 5.84921 11.8262 5.08482C11.0622 4.26283 10.0801 3.27016 8.51297 3.27016C7.24455 3.27016 6.16738 4.17173 5.26594 5.55079L2.53166 3.90576Z" fill="url(#paint0_linear_315_166)"/>
<path d="M8.51297 3.27016C7.24456 3.27016 6.16738 4.17173 5.26595 5.55079C3.99133 7.49948 3.21084 10.4021 3.21084 13.1895C3.21084 14.3393 3.45998 15.222 3.78561 15.756L1.04823 17.5822C0.345274 16.3979 0 14.844 0 13.0733C0 9.8534 0.872489 6.49738 2.53167 3.90576C4.00373 1.60733 6.1281 0 8.56466 0L8.51297 3.27016Z" fill="url(#paint1_linear_315_166)"/>
<path d="M35.9685 0.632446H39.6828L45.998 12.2052L52.3142 0.632446H55.9479V19.6482H52.9179V5.07433L47.3791 15.1665H44.5362L38.9984 5.07433V19.6482H35.9685V0.632446ZM65.4419 7.7225C63.2689 7.7225 61.9602 9.37904 61.647 11.4304H69.0218C68.8698 9.31726 67.6665 7.7225 65.4419 7.7225ZM58.6429 12.5989C58.6429 8.28271 61.3968 5.14135 65.4946 5.14135C69.5252 5.14135 71.9318 8.24292 71.9318 12.8293V13.6722H61.647C62.0119 15.9037 63.4736 17.4073 65.8306 17.4073C67.711 17.4073 68.8863 16.8262 70.0007 15.7633L71.6103 17.7602C70.0938 19.1728 68.1648 19.9874 65.7231 19.9874C61.2872 19.9874 58.6429 16.711 58.6429 12.5989ZM75.6058 7.99475H72.8167V5.48166H75.6058V1.32564H78.5292V5.48166H82.7666V7.99475H78.5292V14.3644C78.5292 16.5393 79.2156 17.312 80.9027 17.312C81.6729 17.312 82.1143 17.245 82.7666 17.1351V19.6209C81.954 19.8534 81.1787 19.9602 80.3393 19.9602C77.1833 19.9602 75.6058 18.2136 75.6058 14.7173V7.99475ZM95.0765 10.4387C94.4894 8.93716 93.1796 7.8314 91.2547 7.8314C88.7531 7.8314 87.1518 9.6293 87.1518 12.5581C87.1518 15.4136 88.6259 17.2984 91.1348 17.2984C93.1072 17.2984 94.5152 16.1361 95.0765 14.69V10.4387ZM98 19.6482H95.1303V17.6649C94.3281 18.8324 92.8684 19.9874 90.5042 19.9874C86.7021 19.9874 84.1611 16.7633 84.1611 12.5581C84.1611 8.31307 86.7631 5.14135 90.6655 5.14135C92.5945 5.14135 94.1079 5.9225 95.1303 7.30156V5.48166H98V19.6482Z" fill="#192830"/>
</g>
<defs>
<linearGradient id="paint0_linear_315_166" x1="6.3059" y1="12.2513" x2="26.7756" y2="13.2719" gradientUnits="userSpaceOnUse">
<stop stop-color="#0064E1"/>
<stop offset="0.4" stop-color="#0064E1"/>
<stop offset="0.83" stop-color="#0073EE"/>
<stop offset="1" stop-color="#0082FB"/>
</linearGradient>
<linearGradient id="paint1_linear_315_166" x1="4.6519" y1="14.555" x2="4.6519" y2="6.911" gradientUnits="userSpaceOnUse">
<stop stop-color="#0082FB"/>
<stop offset="1" stop-color="#0064E0"/>
</linearGradient>
<clipPath id="clip0_315_166">
<rect width="98" height="20" fill="white"/>
</clipPath>
</defs>
</svg>
