<svg width="98" height="30" viewBox="0 0 98 30" fill="none" xmlns="http://www.w3.org/2000/svg">
<g clip-path="url(#clip0_293_2742)">
<path d="M9.70786 8.94159L0.628201 3.69159C0.564104 3.65476 0.491341 3.63549 0.417324 3.63574C0.343307 3.636 0.270679 3.65576 0.206837 3.69302C0.142995 3.73029 0.0902195 3.78372 0.0538855 3.84787C0.0175515 3.91203 -0.00104311 3.98462 -4.53659e-06 4.05826V18.6666C-4.53659e-06 18.8166 0.0837561 18.9499 0.209397 19.0249L3.60171 21.0083C3.66519 21.0447 3.73718 21.064 3.81048 21.0641C3.88378 21.0642 3.95583 21.0452 4.01942 21.0089C4.08301 20.9726 4.13592 20.9204 4.17286 20.8574C4.2098 20.7944 4.22947 20.7229 4.22991 20.6499V11.1166C4.23038 11.0876 4.23845 11.0592 4.25335 11.0342C4.26824 11.0092 4.28943 10.9886 4.31482 10.9742C4.34021 10.9599 4.36892 10.9525 4.3981 10.9526C4.42728 10.9527 4.45592 10.9604 4.48119 10.9749L9.71624 13.9583C9.97163 14.1033 10.2609 14.1788 10.555 14.1774C10.849 14.1759 11.1375 14.0975 11.3914 13.9499L16.5009 10.9749C16.5261 10.9604 16.5548 10.9527 16.5839 10.9526C16.6131 10.9525 16.6418 10.9599 16.6672 10.9742C16.6926 10.9886 16.7138 11.0092 16.7287 11.0342C16.7436 11.0592 16.7517 11.0876 16.7521 11.1166V15.7833C16.7515 15.9257 16.7143 16.0655 16.6439 16.1895C16.5735 16.3135 16.4723 16.4175 16.3501 16.4916L11.0899 19.7083C11.0282 19.7456 10.9772 19.7983 10.942 19.8611C10.9068 19.9239 10.8885 19.9947 10.8889 20.0666V24.7666C10.8889 24.9166 10.9643 25.0499 11.0815 25.1249L17.975 29.4583C18.2379 29.623 18.5415 29.7118 18.8521 29.7148C19.1628 29.7177 19.4681 29.6347 19.734 29.4749L28.4954 24.3083C28.7467 24.16 28.9546 23.949 29.0986 23.6961C29.2426 23.4432 29.3176 23.1572 29.3162 22.8666V13.8583C29.3167 13.7841 29.2972 13.7111 29.2598 13.647C29.2225 13.5828 29.1686 13.5297 29.1037 13.4932C29.0388 13.4567 28.9653 13.438 28.8907 13.4392C28.8162 13.4404 28.7433 13.4614 28.6797 13.4999L25.9072 15.1666C25.6611 15.3137 25.4571 15.5212 25.3148 15.7693C25.1726 16.0174 25.0968 16.2976 25.0947 16.5833V21.1083C25.0943 21.181 25.0747 21.2523 25.038 21.3152C25.0012 21.378 24.9486 21.4302 24.8853 21.4666L19.7005 24.5083C19.4412 24.6595 19.1456 24.7386 18.845 24.7371C18.5444 24.7357 18.2496 24.6537 17.9918 24.4999L15.2026 22.8333C15.1429 22.7969 15.0933 22.7462 15.0583 22.6859C15.0234 22.6255 15.0042 22.5574 15.0025 22.4878C15.0009 22.4182 15.0168 22.3492 15.0488 22.2873C15.0808 22.2254 15.1279 22.1724 15.1858 22.1333L20.2282 18.8249C20.4598 18.6732 20.65 18.4666 20.7815 18.2237C20.9131 17.9808 20.982 17.7092 20.982 17.4333V4.05826C20.9816 3.98533 20.9619 3.91379 20.925 3.8508C20.8881 3.78781 20.8351 3.73556 20.7716 3.69929C20.708 3.66302 20.6359 3.64398 20.5626 3.6441C20.4893 3.64421 20.4173 3.66346 20.3538 3.69992L11.3914 8.94159C11.1358 9.08942 10.8454 9.16729 10.5497 9.16729C10.254 9.16729 9.96352 9.08942 9.70786 8.94159Z" fill="#007FFF"/>
<path d="M29.3162 4.46689V7.31689C29.3168 7.60013 29.2448 7.87885 29.107 8.12672C28.9693 8.37459 28.7703 8.58344 28.5289 8.73356L25.7648 10.4419C25.7011 10.4805 25.6282 10.5014 25.5537 10.5026C25.4792 10.5038 25.4056 10.4852 25.3408 10.4486C25.2759 10.4121 25.222 10.359 25.1846 10.2948C25.1472 10.2307 25.1278 10.1577 25.1282 10.0836V7.10023C25.1285 6.80796 25.206 6.5209 25.3531 6.26786C25.5001 6.01482 25.7114 5.8047 25.9658 5.65856L28.688 4.10856C28.7515 4.0721 28.8235 4.05285 28.8968 4.05273C28.9701 4.05262 29.0422 4.07166 29.1057 4.10793C29.1693 4.1442 29.2222 4.19645 29.2592 4.25944C29.2961 4.32243 29.3158 4.39397 29.3162 4.46689Z" fill="#007FFF"/>
<path d="M42.1986 22.0832V6.9165H45.9679L52.3002 15.6665L49.5193 15.6498L55.8684 6.9165H59.5874V22.0832H55.4496V17.8998C55.4496 16.6582 55.4747 15.5165 55.5333 14.4832C55.592 13.4248 55.7092 12.3582 55.8851 11.2915L56.3207 12.6332L51.5966 18.6998H50.1559L45.4486 12.5748L45.9344 11.2915C46.1019 12.3332 46.2192 13.3748 46.2778 14.4165C46.3364 15.4498 46.3615 16.6165 46.3615 17.8998V22.0832H42.207H42.1986ZM71.4144 22.2165C69.9318 22.2165 68.6168 21.9248 67.4776 21.3498C66.3824 20.8084 65.4601 19.9746 64.814 18.9415C64.1838 17.8863 63.8618 16.6771 63.8843 15.4498V6.9165H68.2398V15.3248C68.2398 15.9582 68.3739 16.5165 68.6503 16.9915C68.9267 17.4665 69.3036 17.8332 69.781 18.0998C70.284 18.3634 70.8461 18.4953 71.4144 18.4832C72.0509 18.4832 72.6205 18.3582 73.1147 18.0998C73.6173 17.8332 74.011 17.4665 74.2874 16.9915C74.5805 16.5165 74.7229 15.9582 74.7229 15.3248V6.9165H78.9528V15.4498C78.972 16.6709 78.644 17.8726 78.0068 18.9164C77.3696 19.9602 76.4491 20.8037 75.3511 21.3498C74.2371 21.9248 72.9221 22.2165 71.4144 22.2165ZM83.4843 22.0832V18.4832H86.9939V10.5165H83.4843V6.9165H94.792V10.5165H91.2992V18.4832H94.7836V22.0832H83.4759H83.4843Z" fill="#fff"/>
</g>
<defs>
<clipPath id="clip0_293_2742">
<rect width="98" height="30" fill="white"/>
</clipPath>
</defs>
</svg>
