<svg width="994" height="371" viewBox="0 0 994 371" fill="none" xmlns="http://www.w3.org/2000/svg">
<path d="M166.605 0.411563C102.205 8.5449 49.2713 45.2116 20.6046 101.078C-35.9287 211.478 29.1379 344.145 151.538 368.545C167.805 371.745 204.071 371.745 220.338 368.545C295.805 353.478 353.805 295.478 368.871 220.012C372.071 203.745 372.071 167.478 368.871 151.212C353.805 76.1449 295.405 17.4782 221.005 2.9449C210.205 0.811563 176.071 -0.788437 166.605 0.411563ZM210.605 14.9449C235.538 18.6782 258.605 27.2116 278.471 40.1449C285.671 44.6782 289.271 46.2782 293.138 46.2782C300.205 46.2782 304.738 50.2782 307.138 58.4116C308.605 62.9449 311.405 67.6116 316.071 72.6782C319.938 76.8116 326.338 85.2116 330.205 91.3449C382.471 171.078 360.205 277.345 280.205 329.878C200.738 382.145 94.3379 360.012 41.6713 279.878C-10.5954 200.545 11.6713 94.0116 91.6713 41.3449C126.605 18.2782 169.805 8.67823 210.605 14.9449Z" fill="black"/>
<path d="M288.205 52.4115C286.471 53.6115 281.938 61.3449 278.071 69.6116C272.605 80.9449 269.938 85.2116 266.871 86.9449C260.471 90.8116 258.205 96.2782 258.871 106.278C259.271 111.878 258.871 116.012 257.671 118.278C255.538 122.412 255.538 125.612 257.405 129.212C258.605 131.478 258.205 132.545 255.138 135.745C253.138 137.878 250.871 139.478 250.071 139.212C249.405 138.945 248.071 135.478 247.005 131.612C242.605 114.145 229.671 93.6116 217.005 83.8782C192.605 65.3449 166.205 62.8116 139.805 76.5449C115.138 89.3449 99.8046 113.078 99.4046 139.078C99.2713 145.078 98.738 148.812 97.938 148.412C97.2713 148.145 91.538 145.745 85.2713 143.212C72.0713 137.745 64.0713 136.278 53.938 137.612C47.0046 138.412 38.0713 142.945 38.0713 145.612C38.0713 146.278 40.738 148.278 44.0713 149.878C56.4713 155.745 57.6713 164.812 48.2046 183.612C41.4046 197.212 40.8713 204.012 46.0713 210.145C50.4713 215.478 53.2713 216.945 63.938 219.478C73.4046 221.878 72.8713 220.945 71.138 232.545C70.338 237.212 70.738 238.545 73.538 241.345C75.2713 243.078 79.6713 245.612 83.138 246.945C89.4046 249.345 89.938 249.345 97.8046 247.078C102.338 245.745 109.271 244.678 113.405 244.812C117.538 244.945 122.471 244.412 124.471 243.745C126.338 242.945 127.938 242.678 127.938 243.212C127.938 243.612 125.138 249.345 121.671 256.012C116.605 265.478 114.338 268.412 111.005 269.878C105.805 272.012 103.405 276.012 104.471 281.078C105.138 284.545 104.605 285.078 98.0713 288.012C87.938 292.678 85.0046 297.878 85.538 310.545L85.938 320.145L91.138 323.078C103.405 330.012 131.538 330.012 145.271 323.212L151.271 320.278L151.671 311.212C151.938 303.878 151.538 301.078 149.271 297.345L146.471 292.545L149.271 289.612C152.471 286.278 152.871 279.345 149.938 276.945C148.205 275.478 148.871 273.612 154.871 262.412C158.605 255.345 163.671 246.412 166.205 242.545L170.605 235.612H181.138H191.538L197.538 242.012C206.871 251.878 210.205 258.012 211.271 266.545C211.938 272.412 211.671 274.945 210.071 277.212C207.538 280.812 207.405 284.945 209.671 288.145C211.138 290.145 211.005 291.478 208.338 296.678C206.338 300.545 205.271 305.078 205.271 309.212C205.271 314.945 205.671 315.878 209.405 318.145C220.605 324.945 267.538 327.212 277.271 321.478L281.938 318.678L281.538 309.612C281.405 304.545 280.205 298.412 279.005 296.012C276.205 290.145 267.805 285.212 258.338 284.145C252.738 283.478 251.005 282.812 251.538 281.478C252.871 278.145 250.605 272.812 247.138 271.345C243.671 269.745 243.538 269.345 241.138 254.545C239.805 245.345 239.138 244.145 230.471 233.345L221.138 221.878L228.471 215.478C232.338 211.878 237.538 206.145 239.805 202.545C244.338 195.478 249.271 182.412 249.271 177.478C249.271 175.078 250.738 173.612 255.005 171.478C262.871 167.478 271.271 160.412 277.538 152.412C280.471 148.678 284.605 144.945 286.738 144.012C288.871 143.078 291.671 140.545 293.005 138.412C294.205 136.145 296.871 133.612 299.005 132.812C303.271 130.945 307.938 125.078 307.938 121.345C307.938 119.878 309.138 117.612 310.605 116.278C314.205 112.945 315.938 106.012 314.471 100.545C313.405 96.4116 301.805 84.9449 298.738 84.9449C296.071 84.9449 296.205 82.5449 299.405 73.7449C301.138 68.8116 302.605 63.0782 302.605 61.0782C302.605 53.3449 294.071 48.1449 288.205 52.4115ZM295.938 58.9449C297.138 60.4116 296.871 62.5449 294.605 69.4782C290.471 82.1449 286.738 87.0782 281.805 86.5449C279.671 86.2782 277.805 85.8782 277.671 85.7449C277.405 85.6116 278.871 82.1449 280.738 78.1449C282.738 74.1449 285.671 67.7449 287.405 63.8782C290.471 56.8116 293.005 55.3449 295.938 58.9449ZM192.605 78.9449C195.538 80.1449 198.205 81.4782 198.471 81.6116C199.138 82.4116 191.671 100.945 190.605 100.945C190.071 100.945 187.805 100.012 185.405 98.8116C173.405 92.8116 163.271 96.5449 156.738 109.478C153.271 116.012 152.605 119.078 152.205 129.345C151.671 142.012 153.938 155.612 157.938 164.145C159.938 168.278 159.805 168.812 153.805 181.612L147.671 194.945L144.338 190.945C134.071 178.278 126.205 157.878 124.605 140.278C122.071 109.745 135.538 85.2116 159.005 77.4782C166.338 75.0782 185.405 75.8782 192.605 78.9449ZM298.338 91.8782C300.071 93.6116 300.471 98.1449 299.138 101.478C297.938 104.412 294.605 104.145 294.605 101.078C294.605 99.7449 293.405 97.0782 291.938 95.3449C290.605 93.4782 289.805 91.6116 290.205 91.0782C291.671 89.7449 296.605 90.1449 298.338 91.8782ZM284.338 95.7449C287.938 98.6782 289.271 100.812 289.271 103.745C289.271 105.878 288.471 107.745 287.671 107.745C283.671 108.145 280.471 107.212 277.271 104.678C274.071 102.145 273.938 102.145 273.405 104.412C273.138 105.878 274.605 108.278 277.138 110.545C281.538 114.545 282.205 116.812 279.671 119.345C277.538 121.478 279.138 122.678 282.471 121.612C284.071 121.212 285.671 119.345 286.071 117.478C287.005 113.612 288.071 113.478 291.138 116.812C292.471 118.278 295.271 119.878 297.405 120.278C302.071 121.345 302.205 122.412 298.471 125.745C296.471 127.478 293.538 128.278 288.738 128.412C280.871 128.545 279.138 130.145 284.338 132.678C287.405 134.145 287.805 134.812 286.471 136.412C284.471 138.812 280.738 138.812 275.538 136.145C263.005 129.745 257.271 116.812 269.005 121.212C274.071 123.212 276.205 121.612 272.205 118.812C265.138 113.878 262.871 100.412 268.205 94.6782C272.338 90.2782 278.205 90.6782 284.338 95.7449ZM233.271 116.412C239.671 129.345 242.605 143.078 242.605 160.278C242.605 175.478 240.738 184.545 235.938 194.278C228.738 208.412 217.005 216.945 201.538 219.478C189.538 221.345 166.871 217.612 168.338 213.745C175.538 195.745 176.471 194.145 179.271 194.945C180.738 195.478 185.538 196.145 189.938 196.545C197.138 197.078 198.605 196.678 204.205 193.078C208.605 190.278 211.538 186.945 214.205 182.012C217.405 175.745 217.938 173.212 218.205 159.612C218.605 145.478 218.338 143.345 214.871 133.078L211.005 121.745L216.338 110.012L221.805 98.2782L224.871 102.012C226.605 104.012 230.338 110.545 233.271 116.412ZM309.271 104.412C309.271 108.412 306.471 112.945 303.405 113.745C297.138 115.345 291.405 111.478 297.271 109.612C301.138 108.412 305.271 103.612 305.271 100.412C305.405 97.6116 305.405 97.6116 307.271 100.145C308.338 101.612 309.271 103.478 309.271 104.412ZM118.605 105.745C114.471 114.145 111.938 126.012 111.938 137.078C111.938 146.412 111.671 147.345 109.138 148.012C106.338 148.812 106.205 148.545 106.871 135.878C107.538 122.278 109.405 116.412 116.471 105.078C120.871 98.1449 122.205 98.4116 118.605 105.745ZM172.605 115.478C182.338 119.878 182.338 120.012 173.271 139.745C168.871 149.478 164.871 157.745 164.605 158.145C163.538 159.212 161.405 151.878 160.071 142.412C158.871 133.612 160.071 117.345 162.071 114.145C163.138 112.278 166.738 112.812 172.605 115.478ZM267.538 139.612C269.405 141.078 271.805 142.278 272.738 142.278C275.538 142.278 275.005 144.678 271.005 149.745C267.671 154.278 254.071 164.945 251.671 164.945C251.138 164.945 250.605 161.212 250.605 156.545C250.738 148.278 250.738 148.278 256.605 143.878C259.938 141.478 262.605 138.945 262.605 138.278C262.605 136.278 263.805 136.678 267.538 139.612ZM203.138 154.145C204.338 158.145 205.271 164.145 205.271 167.612C205.271 175.078 200.605 184.945 195.938 187.345C192.605 189.078 184.338 188.412 182.205 186.278C181.538 185.745 185.138 176.145 190.071 165.078C195.138 154.012 199.538 145.478 200.071 146.012C200.605 146.545 201.938 150.145 203.138 154.145ZM117.938 160.278C123.805 166.012 122.738 167.745 109.271 175.878C100.871 181.078 98.8713 181.745 96.338 180.545C89.138 177.345 91.4046 182.812 101.138 192.278C104.871 195.878 107.938 199.612 107.938 200.412C107.938 202.945 102.471 208.945 100.205 208.945C96.738 208.945 84.4713 197.612 80.4713 190.945C77.4046 185.612 77.2713 184.678 78.8713 181.345C81.138 176.545 94.6046 165.878 104.471 160.945C108.871 158.678 112.871 156.945 113.538 156.945C114.205 156.945 116.205 158.412 117.938 160.278ZM116.205 196.545C117.938 198.012 118.605 200.545 118.605 205.212C118.605 208.678 119.138 211.612 119.671 211.612C121.005 211.612 123.938 205.612 123.938 202.945C123.938 200.278 126.071 200.412 132.738 203.478C139.938 206.812 143.138 213.078 141.138 220.278L139.671 225.478L137.271 222.412C135.005 219.212 132.605 220.278 133.938 223.878C136.338 229.878 127.138 238.278 118.338 238.278C111.671 238.278 109.538 237.212 107.138 232.812C105.005 228.412 105.405 228.145 109.671 230.812C112.471 232.678 115.938 233.478 119.671 233.078C122.871 232.812 121.138 230.545 116.071 228.545C109.938 226.012 108.471 224.145 110.605 221.612C112.471 219.345 112.071 219.212 104.871 219.612C99.938 219.878 95.938 217.878 95.938 215.345C95.938 214.678 97.138 214.412 98.6046 214.945C105.405 217.078 114.205 207.078 112.871 198.678C112.071 193.745 112.605 193.345 116.205 196.545ZM157.138 225.478C164.605 229.345 164.605 230.012 155.005 246.812L146.071 262.412L141.538 261.612C135.938 260.545 130.338 257.078 130.871 255.078C131.138 254.145 135.138 246.812 139.938 238.545C149.138 222.812 150.205 222.012 157.138 225.478ZM225.805 238.945C230.605 244.678 234.605 250.278 234.605 251.212C234.605 253.478 227.538 256.945 222.871 256.945C219.538 256.945 217.671 255.345 211.138 247.212C206.871 242.012 202.738 237.212 202.071 236.678C201.271 236.145 201.005 235.478 201.271 235.078C203.271 233.212 214.205 227.612 215.405 227.878C216.338 228.145 221.005 233.078 225.805 238.945ZM236.338 267.212C237.271 276.412 236.605 277.078 226.605 276.678L219.271 276.278L218.871 269.212C218.471 262.545 218.605 262.278 221.538 262.812C223.271 263.212 226.738 262.678 229.271 261.745C231.805 260.678 234.338 259.878 234.738 259.745C235.138 259.745 235.938 263.078 236.338 267.212ZM141.538 267.612C143.938 267.612 143.938 267.878 141.271 272.945C138.738 277.745 138.071 278.278 133.271 278.278C126.605 278.278 121.271 276.278 121.271 273.612C121.271 272.412 122.605 269.212 124.205 266.545L127.005 261.478L133.005 264.545C136.338 266.278 140.205 267.612 141.538 267.612ZM233.271 313.745C248.871 315.745 260.605 315.612 271.671 313.478C275.005 312.812 275.938 313.078 275.938 314.678C275.938 319.745 251.271 320.812 225.271 317.212C214.738 315.612 211.938 314.545 211.938 312.012C211.938 310.812 212.738 310.412 214.338 310.812C215.538 311.212 224.071 312.545 233.271 313.745ZM97.8046 314.945C101.805 316.145 109.805 316.945 118.605 316.945C127.405 316.945 135.405 316.145 139.405 314.945C143.005 313.878 146.071 312.945 146.338 312.945C146.471 312.945 146.605 313.878 146.605 315.078C146.605 319.478 137.671 321.612 118.605 321.612C99.538 321.612 90.6046 319.478 90.6046 315.078C90.6046 313.878 90.738 312.945 91.0046 312.945C91.138 312.945 94.2046 313.878 97.8046 314.945Z" fill="black"/>
<path d="M917.671 97.4785C897.938 103.878 884.871 120.412 880.605 144.545C877.938 159.345 877.938 214.545 880.605 228.412C885.938 256.278 901.671 273.078 926.605 277.078C937.805 278.945 952.471 277.345 962.071 273.078C970.338 269.345 981.538 258.278 985.671 249.745C993.271 234.278 993.938 229.078 993.938 186.945C993.938 145.212 993.405 140.545 986.605 125.345C981.538 114.278 973.538 105.878 962.738 100.678C954.605 96.6785 952.738 96.2785 938.605 96.0118C928.338 95.7452 921.405 96.2785 917.671 97.4785ZM949.005 125.745C954.338 129.612 958.871 139.612 959.538 149.345L960.205 157.745L936.738 175.345L913.271 192.945V169.345C913.271 156.278 913.938 143.478 914.605 140.812C916.605 133.745 921.405 127.212 926.605 124.545C932.605 121.478 943.938 122.145 949.005 125.745ZM958.605 230.945C955.671 244.412 948.871 250.278 936.205 250.278C929.405 250.278 927.405 249.745 923.938 246.812C918.071 241.878 914.338 233.745 913.538 224.145L912.871 215.878L936.071 198.678L959.271 181.478L959.671 202.945C959.805 214.678 959.405 227.212 958.605 230.945Z" fill="black"/>
<path d="M487.271 142.678C478.738 145.611 473.271 148.811 466.338 155.211L459.938 161.345V156.678C459.938 154.011 459.538 150.011 459.138 147.745L458.338 143.611H443.138H427.938V209.611V275.611H444.605H461.271V228.945V182.278L466.071 177.078C471.671 170.811 477.805 168.545 488.205 168.545C498.738 168.678 505.138 172.011 509.005 179.611C511.938 185.345 511.938 186.545 511.938 230.545V275.611H529.271H546.605V237.211C546.471 216.145 545.938 193.211 545.405 186.145C543.405 164.545 535.538 151.478 520.605 144.811C512.471 141.078 495.271 140.145 487.271 142.678Z" fill="black"/>
<path d="M618.738 143.078C597.938 148.678 582.338 164.945 576.605 187.212C573.938 197.478 573.938 221.478 576.738 232.012C583.138 256.945 600.871 273.345 625.671 277.212C645.005 280.145 665.938 274.412 679.005 262.412C691.005 251.212 698.605 230.945 698.605 209.612C698.605 167.345 673.805 140.678 634.871 141.078C629.938 141.078 622.738 142.012 618.738 143.078ZM649.138 171.345C660.738 176.678 667.405 199.078 664.071 220.945C660.605 242.945 647.938 254.012 630.605 250.145C622.338 248.278 616.738 243.612 612.338 234.678C608.871 227.345 608.605 226.012 608.605 209.612C608.605 194.278 609.005 191.478 611.805 185.212C615.271 177.478 622.071 170.678 627.671 169.478C629.671 169.078 631.938 168.545 632.605 168.278C635.005 167.345 644.471 169.212 649.138 171.345Z" fill="black"/>
<path d="M769.671 142.945C747.005 149.078 730.605 167.612 726.605 191.878C723.138 212.412 726.605 236.278 735.138 250.945C753.671 282.545 804.738 287.478 830.871 260.145C837.005 253.745 842.605 241.878 842.605 235.212V230.278H826.605C810.871 230.278 810.605 230.278 810.605 233.212C810.605 242.412 799.138 250.678 786.471 250.678C778.071 250.545 774.605 249.078 768.338 243.212C761.671 236.945 759.271 228.278 759.271 210.278C759.271 191.612 761.138 184.278 768.205 176.412C772.471 171.478 774.605 170.145 780.338 169.078C788.338 167.478 795.938 168.812 801.138 172.678C806.205 176.412 810.605 183.478 810.605 187.745V191.612H826.738H843.005L842.205 184.012C841.138 174.012 834.605 160.945 827.538 154.945C813.271 142.678 789.138 137.745 769.671 142.945Z" fill="black"/>
</svg>
