<svg width="988" height="360" viewBox="0 0 988 360" fill="none" xmlns="http://www.w3.org/2000/svg">
<path d="M151.467 2.02038C124.4 6.28705 94.1333 18.9537 72.5333 35.087C51.0667 51.3537 29.6 76.687 18.2667 99.3537C12.5333 110.82 5.2 132.687 2.4 146.287C-0.8 162.287 -0.8 197.487 2.4 213.487C5.2 227.087 12.5333 248.954 18.2667 260.42C34.2667 292.42 65.0667 323.62 96.8 339.754C140.133 361.887 189.867 365.754 235.467 350.554C262.933 341.487 282.267 329.887 302.8 310.154C324.8 289.087 339.2 267.22 348.8 239.754C356.533 217.887 358.533 205.487 358.533 179.887C358.533 154.687 356.667 142.287 349.2 120.954C340 94.1537 327.467 74.5537 306.133 53.087C283.6 30.687 264.8 18.9537 235.467 9.22038C208.667 0.287049 179.2 -2.24628 151.467 2.02038ZM293.067 48.1537C296.133 51.887 296 56.8204 292.133 67.3537C288.933 76.1537 288.8 78.5537 291.467 78.5537C294.533 78.5537 306.133 90.0204 307.2 94.1537C308.667 99.6204 306.933 106.554 303.333 109.887C301.867 111.22 300.667 113.487 300.667 114.954C300.667 118.687 296 124.554 291.733 126.42C289.6 127.22 286.933 129.754 285.733 132.02C284.4 134.154 281.6 136.687 279.467 137.62C277.333 138.554 273.2 142.287 270.267 146.02C264 154.02 255.6 161.087 247.733 165.087C243.467 167.22 242 168.687 242 171.087C242 176.02 237.067 189.087 232.533 196.154C230.267 199.754 225.067 205.487 221.2 209.087L213.867 215.487L223.2 226.954C231.867 237.754 232.533 238.954 233.867 248.154C236.267 262.954 236.4 263.354 239.867 264.954C243.333 266.42 245.6 271.754 244.267 275.087C243.733 276.42 245.467 277.087 251.067 277.754C260.533 278.82 268.933 283.754 271.733 289.62C272.933 292.02 274.133 298.154 274.267 303.22L274.667 312.287L270 315.087C260.267 320.82 213.333 318.554 202.133 311.754C198.4 309.487 198 308.554 198 302.82C198 298.687 199.067 294.154 201.067 290.287C203.733 285.087 203.867 283.754 202.4 281.754C200.133 278.554 200.267 274.42 202.8 270.82C204.4 268.554 204.667 266.02 204 260.154C202.933 251.62 199.6 245.487 190.267 235.62L184.267 229.22H173.867H163.333L158.933 236.154C156.4 240.02 151.333 248.954 147.6 256.02C141.6 267.22 140.933 269.087 142.667 270.554C145.6 272.954 145.2 279.887 142 283.22L139.2 286.154L142 290.954C144.267 294.687 144.667 297.487 144.4 304.82L144 313.887L138 316.82C124.267 323.62 96.1333 323.62 83.8667 316.687L78.6667 313.754L78.2667 304.154C77.7333 291.487 80.6667 286.287 90.8 281.62C97.3333 278.687 97.8667 278.154 97.2 274.687C96.1333 269.62 98.5333 265.62 103.733 263.487C107.067 262.02 109.333 259.087 114.4 249.62C117.867 242.954 120.667 237.22 120.667 236.82C120.667 236.287 119.067 236.554 117.2 237.354C115.2 238.02 110.267 238.554 106.133 238.42C102 238.287 95.0667 239.354 90.5333 240.687C82.6667 242.954 82.1333 242.954 75.8667 240.554C72.4 239.22 68 236.687 66.2667 234.954C63.4667 232.154 63.0667 230.82 63.8667 226.154C65.6 214.554 66.1333 215.487 56.6667 213.087C46 210.554 43.2 209.087 38.8 203.754C33.6 197.62 34.1333 190.82 40.9333 177.22C50.4 158.42 49.2 149.354 36.8 143.487C33.4667 141.887 30.8 139.887 30.8 139.22C30.8 136.554 39.7333 132.02 46.6667 131.22C56.8 129.887 64.8 131.354 78 136.82C84.2667 139.354 90 141.754 90.6667 142.02C91.4667 142.42 92 138.687 92.1333 132.687C92.5333 106.687 107.867 82.9537 132.533 70.1537C158.933 56.4204 185.333 58.9537 209.733 77.487C222.4 87.2204 235.333 107.754 239.733 125.22C240.8 129.087 242.133 132.554 242.8 132.82C243.6 133.087 245.867 131.487 247.867 129.354C250.933 126.154 251.333 125.087 250.133 122.82C248.267 119.22 248.267 116.02 250.4 111.887C251.6 109.62 252 105.487 251.6 99.887C250.933 89.887 253.2 84.4204 259.6 80.5537C262.667 78.8204 265.333 74.5537 270.8 63.2204C274.667 54.9537 279.2 47.2204 280.933 46.0204C284.667 43.3537 289.733 44.287 293.067 48.1537Z" fill="white"/>
<path d="M280.133 57.4872C278.4 61.3539 275.467 67.7539 273.467 71.7539C271.6 75.7539 270.133 79.2205 270.4 79.3539C270.533 79.4872 272.4 79.8872 274.533 80.1539C279.467 80.6872 283.2 75.7539 287.333 63.0872C289.6 56.1539 289.867 54.0205 288.667 52.5539C285.733 48.9539 283.2 50.4205 280.133 57.4872Z" fill="white"/>
<path d="M151.733 71.0868C128.267 78.8201 114.8 103.353 117.333 133.887C118.933 151.487 126.8 171.887 137.067 184.553L140.4 188.553L146.533 175.22C152.533 162.42 152.667 161.887 150.667 157.753C146.667 149.22 144.4 135.62 144.933 122.953C145.333 112.687 146 109.62 149.467 103.087C156 90.1535 166.133 86.4201 178.133 92.4201C180.533 93.6201 182.8 94.5535 183.333 94.5535C184.4 94.5535 191.867 76.0201 191.2 75.2201C186 70.5535 161.467 67.8868 151.733 71.0868Z" fill="white"/>
<path d="M282.933 84.6869C282.533 85.2202 283.333 87.0869 284.667 88.9535C286.133 90.6869 287.333 93.3535 287.333 94.6869C287.333 97.7535 290.667 98.0202 291.867 95.0869C293.2 91.7535 292.8 87.2202 291.067 85.4869C289.333 83.7535 284.4 83.3535 282.933 84.6869Z" fill="white"/>
<path d="M260.933 88.287C255.6 94.0203 257.867 107.487 264.933 112.42C268.933 115.22 266.8 116.82 261.733 114.82C250 110.42 255.733 123.354 268.267 129.754C273.467 132.42 277.2 132.42 279.2 130.02C280.533 128.42 280.133 127.754 277.067 126.287C271.867 123.754 273.6 122.154 281.467 122.02C286.267 121.887 289.2 121.087 291.2 119.354C294.933 116.02 294.8 114.954 290.133 113.887C288 113.487 285.2 111.887 283.867 110.42C280.8 107.087 279.733 107.22 278.8 111.087C278.4 112.954 276.8 114.82 275.2 115.22C271.867 116.287 270.267 115.087 272.4 112.954C274.933 110.42 274.267 108.154 269.867 104.154C267.333 101.887 265.867 99.487 266.133 98.0203C266.667 95.7537 266.8 95.7537 270 98.287C273.2 100.82 276.4 101.754 280.4 101.354C281.2 101.354 282 99.487 282 97.3537C282 94.4203 280.667 92.287 277.067 89.3537C270.933 84.287 265.067 83.887 260.933 88.287Z" fill="white"/>
<path d="M209.067 103.62L203.733 115.354L207.6 126.687C211.067 136.954 211.333 139.087 210.933 153.22C210.667 166.82 210.133 169.354 206.933 175.62C204.267 180.554 201.333 183.887 196.933 186.687C191.333 190.287 189.867 190.687 182.667 190.154C178.267 189.754 173.467 189.087 172 188.554C169.2 187.754 168.267 189.354 161.067 207.354C159.6 211.22 182.267 214.954 194.267 213.087C214.267 209.887 229.333 194.82 233.867 173.487C235.867 163.62 235.733 143.354 233.333 131.22C231.333 120.554 223.2 102.287 217.6 95.6204L214.533 91.8871L209.067 103.62Z" fill="white"/>
<path d="M298 94.0203C298 97.2203 293.867 102.02 290 103.22C286.533 104.287 286.533 106.154 290.133 107.22C298.533 109.887 305.333 100.687 300 93.7537C298.133 91.2203 298.133 91.2203 298 94.0203Z" fill="white"/>
<path d="M109.2 98.6869C102.133 110.02 100.267 115.887 99.6 129.487C98.9334 142.154 99.0667 142.42 101.867 141.62C104.4 140.954 104.667 140.02 104.667 130.687C104.667 119.62 107.2 107.754 111.333 99.3536C114.933 92.0203 113.6 91.7536 109.2 98.6869Z" fill="white"/>
<path d="M154.8 107.754C152.8 110.954 151.6 127.221 152.8 136.021C154.133 145.487 156.267 152.821 157.333 151.754C157.6 151.354 161.6 143.087 166 133.354C175.067 113.621 175.067 113.487 165.333 109.087C159.467 106.421 155.867 105.887 154.8 107.754Z" fill="white"/>
<path d="M255.333 131.887C255.333 132.553 252.667 135.087 249.333 137.487C243.467 141.887 243.467 141.887 243.333 150.153C243.333 154.82 243.867 158.553 244.4 158.553C246.8 158.553 260.4 147.887 263.733 143.353C267.733 138.287 268.267 135.887 265.467 135.887C264.533 135.887 262.133 134.687 260.267 133.22C256.533 130.287 255.333 129.887 255.333 131.887Z" fill="white"/>
<path d="M182.8 158.687C177.867 169.754 174.267 179.354 174.933 179.887C177.067 182.021 185.333 182.687 188.667 180.954C193.333 178.554 198 168.687 198 161.221C198 155.221 194.667 141.621 192.8 139.621C192.267 139.087 187.867 147.621 182.8 158.687Z" fill="white"/>
<path d="M97.2 154.553C87.3333 159.487 73.8666 170.153 71.6 174.953C70 178.287 70.1333 179.22 73.2 184.553C77.2 191.22 89.4666 202.553 92.9333 202.553C95.2 202.553 100.667 196.553 100.667 194.02C100.667 193.22 97.6 189.487 93.8666 185.887C84.1333 176.42 81.8666 170.953 89.0666 174.153C91.6 175.353 93.6 174.687 102 169.487C112.267 163.353 114 161.887 114 158.82C114 156.953 108.133 150.553 106.267 150.553C105.6 150.553 101.6 152.287 97.2 154.553Z" fill="white"/>
<path d="M105.6 192.287C106.933 200.687 98.1334 210.687 91.3334 208.554C89.8667 208.02 88.6667 208.287 88.6667 208.954C88.6667 211.487 92.6667 213.487 97.6 213.22C104.8 212.82 105.2 212.954 103.333 215.22C101.2 217.754 102.667 219.62 108.8 222.154C113.867 224.154 115.6 226.42 112.4 226.687C108.667 227.087 105.2 226.287 102.4 224.42C98.1334 221.754 97.7334 222.02 99.8667 226.42C102.267 230.82 104.4 231.887 111.067 231.887C119.867 231.887 129.067 223.487 126.667 217.487C125.333 213.887 127.733 212.82 130 216.02L132.4 219.087L133.867 213.887C135.867 206.687 132.667 200.42 125.467 197.087C118.8 194.02 116.667 193.887 116.667 196.554C116.667 199.22 113.733 205.22 112.4 205.22C111.867 205.22 111.333 202.287 111.333 198.82C111.333 194.154 110.667 191.62 108.933 190.154C105.333 186.954 104.8 187.354 105.6 192.287Z" fill="white"/>
<path d="M132.667 232.154C127.867 240.42 123.867 247.754 123.6 248.687C123.067 250.687 128.667 254.154 134.267 255.22L138.8 256.02L147.733 240.42C157.333 223.62 157.333 222.954 149.867 219.087C142.933 215.62 141.867 216.42 132.667 232.154Z" fill="white"/>
<path d="M200.667 224.687C193.333 228.82 193.067 229.087 194.8 230.287C195.467 230.82 199.6 235.62 203.867 240.82C210.4 248.953 212.267 250.553 215.6 250.553C220.267 250.553 227.333 247.087 227.333 244.82C227.333 242.687 210.267 222.02 208.133 221.487C207.333 221.353 204 222.82 200.667 224.687Z" fill="white"/>
<path d="M222 255.354C219.467 256.287 216 256.821 214.267 256.421C211.333 255.887 211.2 256.154 211.6 262.821L212 269.887L219.333 270.287C229.333 270.687 230 270.021 229.067 260.821C228.667 256.687 227.867 253.354 227.467 253.354C227.067 253.487 224.533 254.287 222 255.354Z" fill="white"/>
<path d="M116.933 260.154C115.333 262.82 114 266.02 114 267.22C114 269.887 119.333 271.887 126 271.887C130.8 271.887 131.467 271.354 134 266.554C136.667 261.487 136.667 261.22 134.267 261.22C132.933 261.22 129.067 259.887 125.733 258.154L119.733 255.087L116.933 260.154Z" fill="white"/>
<path d="M204.667 305.62C204.667 308.154 207.467 309.22 218 310.82C244 314.42 268.667 313.354 268.667 308.287C268.667 306.687 267.733 306.42 264.4 307.087C253.333 309.22 241.6 309.354 226 307.354C216.8 306.154 208.267 304.82 207.067 304.42C205.467 304.02 204.667 304.42 204.667 305.62Z" fill="white"/>
<path d="M83.3334 308.687C83.3334 313.087 92.2667 315.22 111.333 315.22C130.4 315.22 139.333 313.087 139.333 308.687C139.333 307.487 139.2 306.554 139.067 306.554C138.8 306.554 135.733 307.487 132.133 308.554C128.133 309.754 120.133 310.554 111.333 310.554C102.533 310.554 94.5334 309.754 90.5334 308.554C86.9334 307.487 83.8667 306.554 83.7334 306.554C83.4667 306.554 83.3334 307.487 83.3334 308.687Z" fill="white"/>
<path d="M915.333 89.7536C893.467 94.4203 878.533 110.82 873.2 135.887C870.533 148.42 870.667 211.754 873.333 224.554C879.733 254.554 900.133 271.887 929.333 271.887C958.933 271.887 978.8 254.954 985.333 224.42C986.8 217.754 987.333 205.887 987.333 180.82C987.333 143.087 986 132.02 979.6 118.554C968.8 95.487 942.667 83.7536 915.333 89.7536ZM939.067 118.554C943.733 120.687 945.333 122.42 948 128.287C949.867 132.287 951.733 138.954 952.133 143.354L952.933 151.22L930.533 167.887C918.267 177.087 907.733 184.82 907.067 185.087C906.267 185.354 905.867 175.754 906.267 160.287C906.667 136.554 906.8 134.82 910 128.554C912.533 123.487 914.8 121.087 919.333 118.82C926.533 115.22 931.6 115.087 939.067 118.554ZM952.4 200.154C952 222.954 951.733 224.954 948.667 231.22C944.267 240.02 938.4 243.887 929.333 243.887C916.533 243.887 908.267 234.42 906.533 217.887L905.733 209.887L928.133 192.954C940.533 183.754 951.2 176.02 951.867 176.02C952.4 175.887 952.8 186.82 952.4 200.154Z" fill="white"/>
<path d="M475.733 137.354C471.867 138.82 465.467 142.954 461.467 146.554C457.6 150.154 454 152.82 453.467 152.287C453.067 151.887 452.667 149.354 452.667 146.687C452.667 135.754 452.8 135.887 435.867 135.887H420.667V202.554V269.22H438H455.333V221.487V173.754L459.067 170.154C464.267 165.22 471.467 162.554 479.867 162.554C490 162.554 497.2 165.754 500.933 171.754C504 176.42 504 177.354 504.4 222.82L504.8 269.22H522H539.333V225.487C539.333 201.487 538.667 178.02 538 173.22C535.067 154.554 524.533 140.954 509.733 136.554C500 133.754 484.267 134.02 475.733 137.354Z" fill="white"/>
<path d="M607.2 137.487C583.2 145.887 568.667 167.22 566.667 196.82C563.6 241.087 589.2 271.887 629.333 271.887C659.467 271.887 682.533 253.887 689.333 224.954C692 213.754 691.867 191.087 689.2 180.687C684.4 162.154 672.4 147.354 655.733 139.487C647.6 135.754 645.333 135.354 631.333 134.954C618 134.554 614.8 134.82 607.2 137.487ZM639.733 164.42C645.2 166.687 651.867 174.154 654.133 180.82C657.067 188.82 656.667 218.954 653.6 226.82C650.667 234.42 642.533 242.154 636 243.354C621.867 246.02 612 241.087 605.733 228.154C601.467 219.62 601.333 218.687 601.333 203.22C601.333 187.487 601.467 186.954 606 177.887C609.6 170.554 611.867 167.887 616 165.62C622.267 162.154 633.067 161.487 639.733 164.42Z" fill="white"/>
<path d="M759.067 137.087C738.667 143.62 724 160.42 719.467 182.287C717.333 192.554 717.6 216.554 720 225.754C727.6 254.954 749.467 271.887 779.733 271.887C808.4 271.887 832.8 253.354 835.733 229.487L836.4 223.887H819.867C803.867 223.887 803.333 224.02 803.333 226.687C803.333 235.487 791.733 243.887 779.6 243.887C760.667 243.887 752.533 232.02 752.267 204.554C752.133 175.354 760.4 162.554 779.333 162.554C791.467 162.554 800.8 169.62 803.067 180.687L804.133 185.887H820H836L835.467 179.22C834.133 159.22 820.8 143.754 799.2 137.087C788.4 133.754 769.6 133.754 759.067 137.087Z" fill="white"/>
</svg>
