<svg width="115" height="40" viewBox="0 0 115 40" fill="none" xmlns="http://www.w3.org/2000/svg">
<mask id="mask0_549_2440" style="mask-type:luminance" maskUnits="userSpaceOnUse" x="5" y="3" width="25" height="34">
<path d="M29.1003 3.26758H5.61475V36.7473H29.1003V3.26758Z" fill="white"/>
</mask>
<g mask="url(#mask0_549_2440)">
<path d="M21.8902 3.26758C21.1321 3.26758 20.4711 4.90237 20.4711 7.42407C19.504 7.19641 18.4672 7.06931 17.3582 7.06931C16.2491 7.06931 15.2124 7.19641 14.2453 7.42407C14.2453 4.90237 13.583 3.26758 12.8261 3.26758C9.87218 3.26758 5.61475 15.9211 5.61475 18.3091C5.61475 20.6971 10.3505 27.6493 17.3569 27.6493C24.3633 27.6493 29.099 20.6958 29.099 18.3091C29.099 15.9224 24.8429 3.26758 21.8902 3.26758Z" fill="url(#paint0_linear_549_2440)"/>
<path d="M21.8902 3.26758C21.1321 3.26758 20.4711 4.90237 20.4711 7.42407C19.504 7.19641 18.4672 7.06931 17.3582 7.06931C16.2491 7.06931 15.2124 7.19641 14.2453 7.42407C14.2453 4.90237 13.583 3.26758 12.8261 3.26758C9.87218 3.26758 5.61475 15.9211 5.61475 18.3091C5.61475 20.6971 10.3505 27.6493 17.3569 27.6493C24.3633 27.6493 29.099 20.6958 29.099 18.3091C29.099 15.9224 24.8429 3.26758 21.8902 3.26758Z" fill="#FF953F"/>
<path d="M21.847 14.551H21.6631C21.3082 14.551 21.0205 14.8408 21.0205 15.1983V15.8205C21.0205 16.178 21.3082 16.4678 21.6631 16.4678H21.847C22.2019 16.4678 22.4896 16.178 22.4896 15.8205V15.1983C22.4896 14.8408 22.2019 14.551 21.847 14.551Z" fill="#2F1708"/>
<path d="M13.0508 14.551H12.8668C12.5119 14.551 12.2242 14.8408 12.2242 15.1983V15.8205C12.2242 16.178 12.5119 16.4678 12.8668 16.4678H13.0508C13.4057 16.4678 13.6934 16.178 13.6934 15.8205V15.1983C13.6934 14.8408 13.4057 14.551 13.0508 14.551Z" fill="#2F1708"/>
<path d="M26.8743 24.9078L26.869 24.9131C24.1345 27.6162 20.7575 29.1054 17.3581 29.1054C13.9587 29.1054 10.5803 27.6162 7.84717 24.9131L7.84192 24.9078C7.63432 24.704 7.28479 24.8509 7.28479 25.1434V26.0687C7.28479 26.9689 7.7092 27.82 8.43588 28.3442C9.71178 29.2655 11.0731 29.9856 12.4831 30.4913L12.491 30.4794C12.9785 30.6594 13.4804 30.8143 13.9942 30.9427C14.1046 30.9692 14.2163 30.997 14.328 31.0208C14.3937 31.0354 14.4594 31.0486 14.5264 31.0631C14.0454 31.7131 13.78 32.5338 13.8352 33.4194C13.9469 35.1892 15.3779 36.6294 17.1347 36.7393C19.1872 36.8677 20.8915 35.2276 20.8915 33.1877C20.8915 32.3908 20.6313 31.6562 20.1924 31.0631C20.3107 31.038 20.4303 31.0115 20.5472 30.9837C20.5998 30.9718 20.651 30.9599 20.7036 30.9467C21.0387 30.8633 21.3672 30.7693 21.6917 30.6647L21.6944 30.6713C23.2975 30.1644 24.8467 29.3807 26.2869 28.3402C27.0122 27.816 27.434 26.9662 27.434 26.0674V25.1408C27.434 24.8483 27.0845 24.7 26.8769 24.9052L26.8743 24.9078Z" fill="#974EF2"/>
<path d="M16.6751 14.7561L16.223 13.7302C15.955 13.1306 15.3571 12.7414 14.7014 12.7414H11.6699C10.6187 12.7414 9.76331 11.8797 9.76331 10.8207V10.176C9.76331 9.8292 10.0419 9.54724 10.3875 9.54724C10.7331 9.54724 11.0116 9.82788 11.0116 10.176V10.8207C11.0116 11.1874 11.3073 11.4852 11.6713 11.4852H14.7027C15.8459 11.4852 16.8879 12.1616 17.3597 13.21C17.8341 12.1616 18.8748 11.4852 20.0167 11.4852H23.0481C23.4121 11.4852 23.7077 11.1874 23.7077 10.8207V10.176C23.7077 9.8292 23.9863 9.54724 24.3319 9.54724C24.6775 9.54724 24.9561 9.82788 24.9561 10.176V10.8207C24.9561 11.8797 24.1006 12.7414 23.0494 12.7414H20.018C19.3622 12.7414 18.7644 13.1306 18.495 13.7329L18.0443 14.7561H16.679H16.6751Z" fill="#FFFAF6"/>
<path d="M16.115 14.1234L12.7445 22.2391C12.3739 23.1326 13.0244 24.1188 13.9862 24.1188H20.7285C21.6904 24.1188 22.3421 23.1326 21.9703 22.2391L18.5998 14.1234C18.1385 13.0128 16.5775 13.0128 16.1163 14.1234H16.115Z" fill="#FFFAF6"/>
<path d="M16.8522 15.5106H15.5395L15.0349 16.5365C14.7669 17.1362 14.169 17.5253 13.5133 17.5253H10.4818C9.43061 17.5253 8.48975 18.5777 8.48975 19.6155C8.48975 20.6533 9.33337 22.0101 10.9168 23.5748C12.0061 24.6523 14.2912 26.4579 17.3581 26.4579C20.4251 26.4579 22.7102 24.651 23.7995 23.5748C25.3829 22.0088 26.2265 20.652 26.2265 19.6155C26.2265 18.579 25.2856 17.5253 24.2344 17.5253H21.2029C20.5473 17.5253 19.9494 17.1362 19.6813 16.5365L19.1767 15.5106H17.864H16.8549H16.8522Z" fill="#FFFAF6"/>
<path d="M19.4895 32.5246L17.2556 34.7749C17.0887 34.943 16.8167 34.943 16.6485 34.7749L15.2031 33.3189C15.098 33.2129 15.098 33.0409 15.2031 32.935L15.5382 32.5974C15.6433 32.4915 15.8141 32.4915 15.9192 32.5974L16.9534 33.6392L18.776 31.8032C18.8811 31.6973 19.0519 31.6973 19.157 31.8032L19.4921 32.1407C19.5972 32.2466 19.5972 32.4187 19.4921 32.5246H19.4895Z" fill="#FFFAF6"/>
<path d="M18.6854 14.0626C18.6854 13.3332 19.2728 12.7428 19.9955 12.7428H20.257V12.4013L20.3766 12.1525L19.1466 12.4649L17.9102 13.5424L18.2846 14.6834L18.7827 14.567C18.7183 14.4121 18.6828 14.2413 18.6828 14.0626H18.6854Z" fill="#FFFAF6"/>
<path d="M16.0298 14.0626C16.0298 13.3332 15.4424 12.7428 14.7197 12.7428H14.4582V12.4013L14.3386 12.1525L15.5686 12.4649L16.8051 13.5424L16.4306 14.6834L15.9326 14.567C15.9969 14.4121 16.0324 14.2413 16.0324 14.0626H16.0298Z" fill="#FFFAF6"/>
<path d="M19.914 20.0723C19.8089 20.0723 19.7169 20.1411 19.6879 20.2431C19.6525 20.3688 19.5841 20.4827 19.4803 20.57C18.6092 21.3007 17.6197 20.6865 17.6197 19.8433V19.3866C17.6197 19.2423 17.6814 19.1047 17.7905 19.0107C18.2176 18.64 19.2977 17.6936 19.2977 17.6936C19.6538 17.3812 19.4343 16.7921 18.9626 16.7921H15.7498C15.2781 16.7921 15.0587 17.3812 15.4147 17.6936C15.4147 17.6936 16.4949 18.6387 16.922 19.0107C17.031 19.1047 17.0928 19.2423 17.0928 19.3866V19.8089C17.0928 20.349 16.7025 20.8282 16.169 20.8891C15.6802 20.9446 15.2479 20.6574 15.0784 20.2365C15.0403 20.1398 14.9522 20.0736 14.8484 20.0736H14.8274C14.6447 20.0736 14.5225 20.2603 14.5909 20.4311C14.8221 21.0135 15.3872 21.4252 16.0468 21.4252C16.5921 21.4252 17.0731 21.1432 17.3543 20.7183C17.6354 21.1445 18.1164 21.4252 18.6617 21.4252C19.3385 21.4252 19.914 20.9923 20.1347 20.3874C20.1899 20.2351 20.073 20.0736 19.9114 20.0736L19.914 20.0723Z" fill="#2F1708"/>
</g>
<path d="M81.4815 14.3597C81.7737 14.6307 82.1363 14.7662 82.5689 14.7662C83.0019 14.7662 83.3586 14.6307 83.6391 14.3597C83.9317 14.0769 84.0778 13.7293 84.0778 13.3169C84.0778 12.9045 83.9317 12.5628 83.6391 12.2919C83.3586 12.0091 83.0019 11.8677 82.5689 11.8677C82.1363 11.8677 81.7737 12.0091 81.4815 12.2919C81.2005 12.5628 81.0604 12.9045 81.0604 13.3169C81.0604 13.7293 81.2005 14.0769 81.4815 14.3597Z" fill="white"/>
<path d="M83.7796 25.7239V15.9326H81.3234V25.7239H83.7796Z" fill="white"/>
<path d="M88.5042 17.9652V22.7017C88.5042 23.0317 88.5803 23.2732 88.732 23.4263C88.8961 23.5677 89.165 23.6384 89.5392 23.6384H90.6795V25.724H89.1358C87.0654 25.724 86.0304 24.7106 86.0304 22.6841V17.9652H84.8726V15.9327H86.0304V13.5114H88.5042V15.9327H90.6795V17.9652H88.5042Z" fill="white"/>
<path fill-rule="evenodd" clip-rule="evenodd" d="M104.517 25.883C103.581 25.883 102.739 25.6768 101.99 25.2644C101.242 24.8402 100.651 24.2452 100.219 23.4793C99.7976 22.7134 99.587 21.8297 99.587 20.8282C99.587 19.8267 99.8032 18.943 100.236 18.1772C100.68 17.4113 101.283 16.8222 102.043 16.4098C102.803 15.9856 103.651 15.7736 104.587 15.7736C105.523 15.7736 106.371 15.9856 107.131 16.4098C107.891 16.8222 108.488 17.4113 108.92 18.1772C109.365 18.943 109.587 19.8267 109.587 20.8282C109.587 21.8297 109.359 22.7134 108.903 23.4793C108.459 24.2452 107.85 24.8402 107.078 25.2644C106.318 25.6768 105.464 25.883 104.517 25.883ZM104.517 23.7267C104.961 23.7267 105.376 23.6207 105.763 23.4086C106.16 23.1847 106.476 22.8548 106.71 22.4189C106.944 21.9829 107.061 21.4527 107.061 20.8282C107.061 19.8974 106.815 19.1846 106.324 18.6897C105.844 18.1831 105.254 17.9297 104.552 17.9297C103.85 17.9297 103.26 18.1831 102.78 18.6897C102.312 19.1846 102.078 19.8974 102.078 20.8282C102.078 21.7591 102.306 22.4778 102.762 22.9844C103.23 23.4793 103.815 23.7267 104.517 23.7267Z" fill="white"/>
<path d="M75.5718 15.7913C76.7649 15.7913 77.7239 16.1624 78.4491 16.9047C79.1859 17.6352 79.5545 18.6603 79.5545 19.9799V25.7239H77.0983V20.3157C77.0983 19.5499 76.9054 18.9667 76.5192 18.5661C76.1334 18.1537 75.6071 17.9475 74.9403 17.9475C74.2735 17.9475 73.7416 18.1537 73.3438 18.5661C72.9579 18.9667 72.765 19.5499 72.765 20.3157V25.7239H70.3088V20.3157C70.3088 19.5499 70.1155 18.9667 69.7297 18.5661C69.3439 18.1537 68.8176 17.9475 68.1508 17.9475C67.4724 17.9475 66.9345 18.1537 66.5367 18.5661C66.1508 18.9667 65.9576 19.5499 65.9576 20.3157V25.7239H63.5013V15.7913H65.9576V17.1168C66.2733 16.7044 66.6771 16.3804 67.1682 16.1447C67.6713 15.9091 68.2208 15.7913 68.8176 15.7913C69.5776 15.7913 70.256 15.9562 70.8527 16.2861C71.4491 16.6043 71.911 17.0638 72.2387 17.6647C72.5545 17.0991 73.0104 16.6455 73.6071 16.3038C74.2151 15.9621 74.8702 15.7913 75.5718 15.7913Z" fill="white"/>
<path d="M60.6548 16.2331C60.1518 16.5277 59.7423 16.9342 59.4265 17.4526V15.9327H56.9703V25.7239H59.4265V20.846C59.4265 19.9387 59.6195 19.3025 60.0057 18.9372C60.4031 18.5719 60.9878 18.3893 61.7599 18.3893H62.409V15.7913C61.7543 15.7913 61.1691 15.9385 60.6548 16.2331Z" fill="white"/>
<path fill-rule="evenodd" clip-rule="evenodd" d="M55.7394 20.6162C55.7394 20.9696 55.7162 21.2877 55.6693 21.5705H48.5637C48.6221 22.2775 48.8678 22.8313 49.3005 23.2319C49.7335 23.6325 50.2654 23.8328 50.897 23.8328C51.8095 23.8328 52.4587 23.4381 52.8445 22.6487H55.4936C55.2131 23.5913 54.6752 24.3689 53.8795 24.9816C53.0843 25.5825 52.1077 25.883 50.9498 25.883C50.0141 25.883 49.172 25.6768 48.4236 25.2644C47.6868 24.8402 47.1076 24.2452 46.6866 23.4793C46.2772 22.7134 46.0726 21.8297 46.0726 20.8282C46.0726 19.815 46.2772 18.9254 46.6866 18.1595C47.096 17.3936 47.6691 16.8045 48.406 16.3921C49.1428 15.9797 49.9909 15.7736 50.9498 15.7736C51.874 15.7736 52.6984 15.9739 53.4236 16.3745C54.1605 16.7751 54.7276 17.3465 55.1254 18.0888C55.5348 18.8193 55.7394 19.6618 55.7394 20.6162ZM53.1955 19.9092C53.1839 19.273 52.9558 18.7663 52.5111 18.3893C52.0669 18.0004 51.523 17.806 50.8798 17.806C50.2714 17.806 49.7568 17.9945 49.3357 18.3716C48.9263 18.7368 48.6749 19.2494 48.5813 19.9092H53.1955Z" fill="white"/>
<path fill-rule="evenodd" clip-rule="evenodd" d="M45.0486 19.0609C45.3643 18.4835 45.522 17.8649 45.522 17.2051C45.522 16.4746 45.3527 15.8207 45.0133 15.2433C44.686 14.666 44.1889 14.2124 43.5221 13.8824C42.8553 13.5525 42.0484 13.3876 41.1011 13.3876H36.5922V25.7239H39.0483V20.9873H41.1011C42.1069 20.9873 42.9374 20.8106 43.5921 20.4571C44.2589 20.1036 44.7444 19.6382 45.0486 19.0609ZM42.5047 18.5306C42.1769 18.837 41.6742 18.9902 40.9958 18.9902H39.0483V15.4024H40.9958C42.329 15.4024 42.9958 16.0033 42.9958 17.2051C42.9958 17.7707 42.8321 18.2125 42.5047 18.5306Z" fill="white"/>
<path d="M97.1256 14.7662C96.6929 14.7662 96.3303 14.6307 96.0377 14.3597C95.7572 14.0769 95.6167 13.7293 95.6167 13.3169C95.6167 12.9045 95.7572 12.5628 96.0377 12.2919C96.3303 12.0091 96.6929 11.8677 97.1256 11.8677C97.5582 11.8677 97.9148 12.0091 98.1958 12.2919C98.488 12.5628 98.6344 12.9045 98.6344 13.3169C98.6344 13.7293 98.488 14.0769 98.1958 14.3597C97.9148 14.6307 97.5582 14.7662 97.1256 14.7662Z" fill="white"/>
<path d="M98.3358 25.7239V15.9326H95.88V25.7239H98.3358Z" fill="white"/>
<path d="M93.2796 25.883C92.847 25.883 92.4843 25.7475 92.1918 25.4765C91.9112 25.1937 91.7708 24.8462 91.7708 24.4338C91.7708 24.0214 91.9112 23.6797 92.1918 23.4087C92.4843 23.1259 92.847 22.9845 93.2796 22.9845C93.7126 22.9845 94.0693 23.1259 94.3498 23.4087C94.6424 23.6797 94.7885 24.0214 94.7885 24.4338C94.7885 24.8462 94.6424 25.1937 94.3498 25.4765C94.0693 25.7475 93.7126 25.883 93.2796 25.883Z" fill="white"/>
<mask id="mask1_549_2440" style="mask-type:luminance" maskUnits="userSpaceOnUse" x="36" y="11" width="75" height="16">
<path d="M110.012 11.4904H36.2175V26.2073H110.012V11.4904Z" fill="white"/>
<path d="M81.4815 14.3597C81.7737 14.6307 82.1363 14.7662 82.5689 14.7662C83.0019 14.7662 83.3586 14.6307 83.6391 14.3597C83.9317 14.0769 84.0778 13.7293 84.0778 13.3169C84.0778 12.9045 83.9317 12.5628 83.6391 12.2919C83.3586 12.0091 83.0019 11.8677 82.5689 11.8677C82.1363 11.8677 81.7737 12.0091 81.4815 12.2919C81.2005 12.5628 81.0604 12.9045 81.0604 13.3169C81.0604 13.7293 81.2005 14.0769 81.4815 14.3597Z" fill="black"/>
<path d="M83.7796 25.724V15.9327H81.3234V25.724H83.7796Z" fill="black"/>
<path d="M88.5042 17.9652V22.7017C88.5042 23.0317 88.5803 23.2732 88.732 23.4263C88.8961 23.5677 89.165 23.6384 89.5392 23.6384H90.6795V25.724H89.1358C87.0654 25.724 86.0304 24.7106 86.0304 22.6841V17.9652H84.8726V15.9327H86.0304V13.5114H88.5042V15.9327H90.6795V17.9652H88.5042Z" fill="black"/>
<path fill-rule="evenodd" clip-rule="evenodd" d="M104.517 25.8831C103.581 25.8831 102.739 25.6769 101.99 25.2645C101.242 24.8403 100.651 24.2453 100.219 23.4794C99.7976 22.7136 99.587 21.8299 99.587 20.8284C99.587 19.8269 99.8032 18.9432 100.236 18.1773C100.68 17.4114 101.283 16.8223 102.043 16.4099C102.803 15.9858 103.651 15.7737 104.587 15.7737C105.523 15.7737 106.371 15.9858 107.131 16.4099C107.891 16.8223 108.488 17.4114 108.92 18.1773C109.365 18.9432 109.587 19.8269 109.587 20.8284C109.587 21.8299 109.359 22.7136 108.903 23.4794C108.459 24.2453 107.85 24.8403 107.078 25.2645C106.318 25.6769 105.464 25.8831 104.517 25.8831ZM104.517 23.7269C104.961 23.7269 105.376 23.6208 105.763 23.4087C106.16 23.1849 106.476 22.855 106.71 22.419C106.944 21.983 107.061 21.4529 107.061 20.8284C107.061 19.8975 106.815 19.1847 106.324 18.6898C105.844 18.1832 105.254 17.9299 104.552 17.9299C103.85 17.9299 103.26 18.1832 102.78 18.6898C102.312 19.1847 102.078 19.8975 102.078 20.8284C102.078 21.7592 102.306 22.4779 102.762 22.9845C103.23 23.4794 103.815 23.7269 104.517 23.7269Z" fill="black"/>
<path d="M75.5718 15.7913C76.7649 15.7913 77.7239 16.1624 78.4491 16.9047C79.1859 17.6352 79.5545 18.6603 79.5545 19.9799V25.7239H77.0983V20.3157C77.0983 19.5499 76.9054 18.9667 76.5192 18.5661C76.1334 18.1537 75.6071 17.9475 74.9403 17.9475C74.2735 17.9475 73.7416 18.1537 73.3438 18.5661C72.9579 18.9667 72.765 19.5499 72.765 20.3157V25.7239H70.3088V20.3157C70.3088 19.5499 70.1155 18.9667 69.7297 18.5661C69.3439 18.1537 68.8176 17.9475 68.1508 17.9475C67.4724 17.9475 66.9345 18.1537 66.5367 18.5661C66.1508 18.9667 65.9576 19.5499 65.9576 20.3157V25.7239H63.5013V15.7913H65.9576V17.1168C66.2733 16.7044 66.6771 16.3804 67.1682 16.1447C67.6713 15.9091 68.2208 15.7913 68.8176 15.7913C69.5776 15.7913 70.256 15.9562 70.8527 16.2861C71.4491 16.6043 71.911 17.0638 72.2387 17.6647C72.5545 17.0991 73.0104 16.6455 73.6071 16.3038C74.2151 15.9621 74.8702 15.7913 75.5718 15.7913Z" fill="black"/>
<path d="M60.6548 16.2331C60.1518 16.5277 59.7423 16.9342 59.4265 17.4526V15.9327H56.9703V25.7239H59.4265V20.846C59.4265 19.9387 59.6195 19.3025 60.0057 18.9372C60.4031 18.5719 60.9878 18.3893 61.7599 18.3893H62.409V15.7913C61.7543 15.7913 61.1691 15.9385 60.6548 16.2331Z" fill="black"/>
<path fill-rule="evenodd" clip-rule="evenodd" d="M55.7394 20.6163C55.7394 20.9698 55.7162 21.2879 55.6693 21.5707H48.5637C48.6221 22.2776 48.8678 22.8314 49.3005 23.232C49.7335 23.6326 50.2654 23.8329 50.897 23.8329C51.8095 23.8329 52.4587 23.4382 52.8445 22.6488H55.4936C55.2131 23.5914 54.6752 24.369 53.8795 24.9817C53.0843 25.5826 52.1077 25.8831 50.9498 25.8831C50.0141 25.8831 49.172 25.6769 48.4236 25.2645C47.6868 24.8403 47.1076 24.2453 46.6866 23.4794C46.2772 22.7136 46.0726 21.8299 46.0726 20.8284C46.0726 19.8151 46.2772 18.9255 46.6866 18.1596C47.096 17.3938 47.6691 16.8046 48.406 16.3922C49.1428 15.9799 49.9909 15.7737 50.9498 15.7737C51.874 15.7737 52.6984 15.974 53.4236 16.3746C54.1605 16.7752 54.7276 17.3466 55.1254 18.0889C55.5348 18.8195 55.7394 19.6619 55.7394 20.6163ZM53.1955 19.9093C53.1839 19.2731 52.9558 18.7664 52.5111 18.3894C52.0669 18.0006 51.523 17.8061 50.8798 17.8061C50.2714 17.8061 49.7568 17.9947 49.3357 18.3717C48.9263 18.737 48.6749 19.2495 48.5813 19.9093H53.1955Z" fill="black"/>
<path fill-rule="evenodd" clip-rule="evenodd" d="M45.0486 19.061C45.3643 18.4836 45.522 17.8651 45.522 17.2052C45.522 16.4747 45.3527 15.8208 45.0133 15.2434C44.686 14.6661 44.1889 14.2125 43.5221 13.8826C42.8553 13.5526 42.0484 13.3877 41.1011 13.3877H36.5922V25.724H39.0483V20.9874H41.1011C42.1069 20.9874 42.9374 20.8107 43.5921 20.4572C44.2589 20.1037 44.7444 19.6383 45.0486 19.061ZM42.5047 18.5308C42.1769 18.8371 41.6742 18.9903 40.9958 18.9903H39.0483V15.4025H40.9958C42.329 15.4025 42.9958 16.0034 42.9958 17.2052C42.9958 17.7708 42.8321 18.2126 42.5047 18.5308Z" fill="black"/>
<path d="M97.1256 14.7662C96.6929 14.7662 96.3303 14.6307 96.0377 14.3597C95.7572 14.0769 95.6167 13.7293 95.6167 13.3169C95.6167 12.9045 95.7572 12.5628 96.0377 12.2919C96.3303 12.0091 96.6929 11.8677 97.1256 11.8677C97.5582 11.8677 97.9148 12.0091 98.1958 12.2919C98.488 12.5628 98.6344 12.9045 98.6344 13.3169C98.6344 13.7293 98.488 14.0769 98.1958 14.3597C97.9148 14.6307 97.5582 14.7662 97.1256 14.7662Z" fill="black"/>
<path d="M98.3358 25.724V15.9327H95.88V25.724H98.3358Z" fill="black"/>
<path d="M93.2796 25.883C92.847 25.883 92.4843 25.7475 92.1918 25.4765C91.9112 25.1937 91.7708 24.8462 91.7708 24.4338C91.7708 24.0214 91.9112 23.6797 92.1918 23.4087C92.4843 23.1259 92.847 22.9845 93.2796 22.9845C93.7126 22.9845 94.0693 23.1259 94.3498 23.4087C94.6424 23.6797 94.7885 24.0214 94.7885 24.4338C94.7885 24.8462 94.6424 25.1937 94.3498 25.4765C94.0693 25.7475 93.7126 25.883 93.2796 25.883Z" fill="black"/>
</mask>
<g mask="url(#mask1_549_2440)">
<path d="M81.4815 14.3597C81.7737 14.6307 82.1363 14.7662 82.5689 14.7662C83.0019 14.7662 83.3586 14.6307 83.6391 14.3597C83.9317 14.0769 84.0778 13.7293 84.0778 13.3169C84.0778 12.9045 83.9317 12.5628 83.6391 12.2919C83.3586 12.0091 83.0019 11.8677 82.5689 11.8677C82.1363 11.8677 81.7737 12.0091 81.4815 12.2919C81.2005 12.5628 81.0604 12.9045 81.0604 13.3169C81.0604 13.7293 81.2005 14.0769 81.4815 14.3597Z" stroke="white" stroke-width="0.4"/>
</g>
<mask id="mask2_549_2440" style="mask-type:luminance" maskUnits="userSpaceOnUse" x="36" y="11" width="75" height="16">
<path d="M110.012 11.4904H36.2175V26.2073H110.012V11.4904Z" fill="white"/>
<path d="M81.4815 14.3597C81.7737 14.6307 82.1363 14.7662 82.5689 14.7662C83.0019 14.7662 83.3586 14.6307 83.6391 14.3597C83.9317 14.0769 84.0778 13.7293 84.0778 13.3169C84.0778 12.9045 83.9317 12.5628 83.6391 12.2919C83.3586 12.0091 83.0019 11.8677 82.5689 11.8677C82.1363 11.8677 81.7737 12.0091 81.4815 12.2919C81.2005 12.5628 81.0604 12.9045 81.0604 13.3169C81.0604 13.7293 81.2005 14.0769 81.4815 14.3597Z" fill="black"/>
<path d="M83.7796 25.724V15.9327H81.3234V25.724H83.7796Z" fill="black"/>
<path d="M88.5042 17.9652V22.7017C88.5042 23.0317 88.5803 23.2732 88.732 23.4263C88.8961 23.5677 89.165 23.6384 89.5392 23.6384H90.6795V25.724H89.1358C87.0654 25.724 86.0304 24.7106 86.0304 22.6841V17.9652H84.8726V15.9327H86.0304V13.5114H88.5042V15.9327H90.6795V17.9652H88.5042Z" fill="black"/>
<path fill-rule="evenodd" clip-rule="evenodd" d="M104.517 25.8831C103.581 25.8831 102.739 25.6769 101.99 25.2645C101.242 24.8403 100.651 24.2453 100.219 23.4794C99.7976 22.7136 99.587 21.8299 99.587 20.8284C99.587 19.8269 99.8032 18.9432 100.236 18.1773C100.68 17.4114 101.283 16.8223 102.043 16.4099C102.803 15.9858 103.651 15.7737 104.587 15.7737C105.523 15.7737 106.371 15.9858 107.131 16.4099C107.891 16.8223 108.488 17.4114 108.92 18.1773C109.365 18.9432 109.587 19.8269 109.587 20.8284C109.587 21.8299 109.359 22.7136 108.903 23.4794C108.459 24.2453 107.85 24.8403 107.078 25.2645C106.318 25.6769 105.464 25.8831 104.517 25.8831ZM104.517 23.7269C104.961 23.7269 105.376 23.6208 105.763 23.4087C106.16 23.1849 106.476 22.855 106.71 22.419C106.944 21.983 107.061 21.4529 107.061 20.8284C107.061 19.8975 106.815 19.1847 106.324 18.6898C105.844 18.1832 105.254 17.9299 104.552 17.9299C103.85 17.9299 103.26 18.1832 102.78 18.6898C102.312 19.1847 102.078 19.8975 102.078 20.8284C102.078 21.7592 102.306 22.4779 102.762 22.9845C103.23 23.4794 103.815 23.7269 104.517 23.7269Z" fill="black"/>
<path d="M75.5718 15.7913C76.7649 15.7913 77.7239 16.1624 78.4491 16.9047C79.1859 17.6352 79.5545 18.6603 79.5545 19.9799V25.7239H77.0983V20.3157C77.0983 19.5499 76.9054 18.9667 76.5192 18.5661C76.1334 18.1537 75.6071 17.9475 74.9403 17.9475C74.2735 17.9475 73.7416 18.1537 73.3438 18.5661C72.9579 18.9667 72.765 19.5499 72.765 20.3157V25.7239H70.3088V20.3157C70.3088 19.5499 70.1155 18.9667 69.7297 18.5661C69.3439 18.1537 68.8176 17.9475 68.1508 17.9475C67.4724 17.9475 66.9345 18.1537 66.5367 18.5661C66.1508 18.9667 65.9576 19.5499 65.9576 20.3157V25.7239H63.5013V15.7913H65.9576V17.1168C66.2733 16.7044 66.6771 16.3804 67.1682 16.1447C67.6713 15.9091 68.2208 15.7913 68.8176 15.7913C69.5776 15.7913 70.256 15.9562 70.8527 16.2861C71.4491 16.6043 71.911 17.0638 72.2387 17.6647C72.5545 17.0991 73.0104 16.6455 73.6071 16.3038C74.2151 15.9621 74.8702 15.7913 75.5718 15.7913Z" fill="black"/>
<path d="M60.6548 16.2331C60.1518 16.5277 59.7423 16.9342 59.4265 17.4526V15.9327H56.9703V25.7239H59.4265V20.846C59.4265 19.9387 59.6195 19.3025 60.0057 18.9372C60.4031 18.5719 60.9878 18.3893 61.7599 18.3893H62.409V15.7913C61.7543 15.7913 61.1691 15.9385 60.6548 16.2331Z" fill="black"/>
<path fill-rule="evenodd" clip-rule="evenodd" d="M55.7394 20.6163C55.7394 20.9698 55.7162 21.2879 55.6693 21.5707H48.5637C48.6221 22.2776 48.8678 22.8314 49.3005 23.232C49.7335 23.6326 50.2654 23.8329 50.897 23.8329C51.8095 23.8329 52.4587 23.4382 52.8445 22.6488H55.4936C55.2131 23.5914 54.6752 24.369 53.8795 24.9817C53.0843 25.5826 52.1077 25.8831 50.9498 25.8831C50.0141 25.8831 49.172 25.6769 48.4236 25.2645C47.6868 24.8403 47.1076 24.2453 46.6866 23.4794C46.2772 22.7136 46.0726 21.8299 46.0726 20.8284C46.0726 19.8151 46.2772 18.9255 46.6866 18.1596C47.096 17.3938 47.6691 16.8046 48.406 16.3922C49.1428 15.9799 49.9909 15.7737 50.9498 15.7737C51.874 15.7737 52.6984 15.974 53.4236 16.3746C54.1605 16.7752 54.7276 17.3466 55.1254 18.0889C55.5348 18.8195 55.7394 19.6619 55.7394 20.6163ZM53.1955 19.9093C53.1839 19.2731 52.9558 18.7664 52.5111 18.3894C52.0669 18.0006 51.523 17.8061 50.8798 17.8061C50.2714 17.8061 49.7568 17.9947 49.3357 18.3717C48.9263 18.737 48.6749 19.2495 48.5813 19.9093H53.1955Z" fill="black"/>
<path fill-rule="evenodd" clip-rule="evenodd" d="M45.0486 19.061C45.3643 18.4836 45.522 17.8651 45.522 17.2052C45.522 16.4747 45.3527 15.8208 45.0133 15.2434C44.686 14.6661 44.1889 14.2125 43.5221 13.8826C42.8553 13.5526 42.0484 13.3877 41.1011 13.3877H36.5922V25.724H39.0483V20.9874H41.1011C42.1069 20.9874 42.9374 20.8107 43.5921 20.4572C44.2589 20.1037 44.7444 19.6383 45.0486 19.061ZM42.5047 18.5308C42.1769 18.8371 41.6742 18.9903 40.9958 18.9903H39.0483V15.4025H40.9958C42.329 15.4025 42.9958 16.0034 42.9958 17.2052C42.9958 17.7708 42.8321 18.2126 42.5047 18.5308Z" fill="black"/>
<path d="M97.1256 14.7662C96.6929 14.7662 96.3303 14.6307 96.0377 14.3597C95.7572 14.0769 95.6167 13.7293 95.6167 13.3169C95.6167 12.9045 95.7572 12.5628 96.0377 12.2919C96.3303 12.0091 96.6929 11.8677 97.1256 11.8677C97.5582 11.8677 97.9148 12.0091 98.1958 12.2919C98.488 12.5628 98.6344 12.9045 98.6344 13.3169C98.6344 13.7293 98.488 14.0769 98.1958 14.3597C97.9148 14.6307 97.5582 14.7662 97.1256 14.7662Z" fill="black"/>
<path d="M98.3358 25.724V15.9327H95.88V25.724H98.3358Z" fill="black"/>
<path d="M93.2796 25.883C92.847 25.883 92.4843 25.7475 92.1918 25.4765C91.9112 25.1937 91.7708 24.8462 91.7708 24.4338C91.7708 24.0214 91.9112 23.6797 92.1918 23.4087C92.4843 23.1259 92.847 22.9845 93.2796 22.9845C93.7126 22.9845 94.0693 23.1259 94.3498 23.4087C94.6424 23.6797 94.7885 24.0214 94.7885 24.4338C94.7885 24.8462 94.6424 25.1937 94.3498 25.4765C94.0693 25.7475 93.7126 25.883 93.2796 25.883Z" fill="black"/>
</mask>
<g mask="url(#mask2_549_2440)">
<path d="M83.7796 25.724V15.9327H81.3234V25.724H83.7796Z" stroke="white" stroke-width="0.4"/>
</g>
<mask id="mask3_549_2440" style="mask-type:luminance" maskUnits="userSpaceOnUse" x="36" y="11" width="75" height="16">
<path d="M110.012 11.4904H36.2175V26.2073H110.012V11.4904Z" fill="white"/>
<path d="M81.4815 14.3597C81.7737 14.6307 82.1363 14.7662 82.5689 14.7662C83.0019 14.7662 83.3586 14.6307 83.6391 14.3597C83.9317 14.0769 84.0778 13.7293 84.0778 13.3169C84.0778 12.9045 83.9317 12.5628 83.6391 12.2919C83.3586 12.0091 83.0019 11.8677 82.5689 11.8677C82.1363 11.8677 81.7737 12.0091 81.4815 12.2919C81.2005 12.5628 81.0604 12.9045 81.0604 13.3169C81.0604 13.7293 81.2005 14.0769 81.4815 14.3597Z" fill="black"/>
<path d="M83.7796 25.724V15.9327H81.3234V25.724H83.7796Z" fill="black"/>
<path d="M88.5042 17.9652V22.7017C88.5042 23.0317 88.5803 23.2732 88.732 23.4263C88.8961 23.5677 89.165 23.6384 89.5392 23.6384H90.6795V25.724H89.1358C87.0654 25.724 86.0304 24.7106 86.0304 22.6841V17.9652H84.8726V15.9327H86.0304V13.5114H88.5042V15.9327H90.6795V17.9652H88.5042Z" fill="black"/>
<path fill-rule="evenodd" clip-rule="evenodd" d="M104.517 25.8831C103.581 25.8831 102.739 25.6769 101.99 25.2645C101.242 24.8403 100.651 24.2453 100.219 23.4794C99.7976 22.7136 99.587 21.8299 99.587 20.8284C99.587 19.8269 99.8032 18.9432 100.236 18.1773C100.68 17.4114 101.283 16.8223 102.043 16.4099C102.803 15.9858 103.651 15.7737 104.587 15.7737C105.523 15.7737 106.371 15.9858 107.131 16.4099C107.891 16.8223 108.488 17.4114 108.92 18.1773C109.365 18.9432 109.587 19.8269 109.587 20.8284C109.587 21.8299 109.359 22.7136 108.903 23.4794C108.459 24.2453 107.85 24.8403 107.078 25.2645C106.318 25.6769 105.464 25.8831 104.517 25.8831ZM104.517 23.7269C104.961 23.7269 105.376 23.6208 105.763 23.4087C106.16 23.1849 106.476 22.855 106.71 22.419C106.944 21.983 107.061 21.4529 107.061 20.8284C107.061 19.8975 106.815 19.1847 106.324 18.6898C105.844 18.1832 105.254 17.9299 104.552 17.9299C103.85 17.9299 103.26 18.1832 102.78 18.6898C102.312 19.1847 102.078 19.8975 102.078 20.8284C102.078 21.7592 102.306 22.4779 102.762 22.9845C103.23 23.4794 103.815 23.7269 104.517 23.7269Z" fill="black"/>
<path d="M75.5718 15.7913C76.7649 15.7913 77.7239 16.1624 78.4491 16.9047C79.1859 17.6352 79.5545 18.6603 79.5545 19.9799V25.7239H77.0983V20.3157C77.0983 19.5499 76.9054 18.9667 76.5192 18.5661C76.1334 18.1537 75.6071 17.9475 74.9403 17.9475C74.2735 17.9475 73.7416 18.1537 73.3438 18.5661C72.9579 18.9667 72.765 19.5499 72.765 20.3157V25.7239H70.3088V20.3157C70.3088 19.5499 70.1155 18.9667 69.7297 18.5661C69.3439 18.1537 68.8176 17.9475 68.1508 17.9475C67.4724 17.9475 66.9345 18.1537 66.5367 18.5661C66.1508 18.9667 65.9576 19.5499 65.9576 20.3157V25.7239H63.5013V15.7913H65.9576V17.1168C66.2733 16.7044 66.6771 16.3804 67.1682 16.1447C67.6713 15.9091 68.2208 15.7913 68.8176 15.7913C69.5776 15.7913 70.256 15.9562 70.8527 16.2861C71.4491 16.6043 71.911 17.0638 72.2387 17.6647C72.5545 17.0991 73.0104 16.6455 73.6071 16.3038C74.2151 15.9621 74.8702 15.7913 75.5718 15.7913Z" fill="black"/>
<path d="M60.6548 16.2331C60.1518 16.5277 59.7423 16.9342 59.4265 17.4526V15.9327H56.9703V25.7239H59.4265V20.846C59.4265 19.9387 59.6195 19.3025 60.0057 18.9372C60.4031 18.5719 60.9878 18.3893 61.7599 18.3893H62.409V15.7913C61.7543 15.7913 61.1691 15.9385 60.6548 16.2331Z" fill="black"/>
<path fill-rule="evenodd" clip-rule="evenodd" d="M55.7394 20.6163C55.7394 20.9698 55.7162 21.2879 55.6693 21.5707H48.5637C48.6221 22.2776 48.8678 22.8314 49.3005 23.232C49.7335 23.6326 50.2654 23.8329 50.897 23.8329C51.8095 23.8329 52.4587 23.4382 52.8445 22.6488H55.4936C55.2131 23.5914 54.6752 24.369 53.8795 24.9817C53.0843 25.5826 52.1077 25.8831 50.9498 25.8831C50.0141 25.8831 49.172 25.6769 48.4236 25.2645C47.6868 24.8403 47.1076 24.2453 46.6866 23.4794C46.2772 22.7136 46.0726 21.8299 46.0726 20.8284C46.0726 19.8151 46.2772 18.9255 46.6866 18.1596C47.096 17.3938 47.6691 16.8046 48.406 16.3922C49.1428 15.9799 49.9909 15.7737 50.9498 15.7737C51.874 15.7737 52.6984 15.974 53.4236 16.3746C54.1605 16.7752 54.7276 17.3466 55.1254 18.0889C55.5348 18.8195 55.7394 19.6619 55.7394 20.6163ZM53.1955 19.9093C53.1839 19.2731 52.9558 18.7664 52.5111 18.3894C52.0669 18.0006 51.523 17.8061 50.8798 17.8061C50.2714 17.8061 49.7568 17.9947 49.3357 18.3717C48.9263 18.737 48.6749 19.2495 48.5813 19.9093H53.1955Z" fill="black"/>
<path fill-rule="evenodd" clip-rule="evenodd" d="M45.0486 19.061C45.3643 18.4836 45.522 17.8651 45.522 17.2052C45.522 16.4747 45.3527 15.8208 45.0133 15.2434C44.686 14.6661 44.1889 14.2125 43.5221 13.8826C42.8553 13.5526 42.0484 13.3877 41.1011 13.3877H36.5922V25.724H39.0483V20.9874H41.1011C42.1069 20.9874 42.9374 20.8107 43.5921 20.4572C44.2589 20.1037 44.7444 19.6383 45.0486 19.061ZM42.5047 18.5308C42.1769 18.8371 41.6742 18.9903 40.9958 18.9903H39.0483V15.4025H40.9958C42.329 15.4025 42.9958 16.0034 42.9958 17.2052C42.9958 17.7708 42.8321 18.2126 42.5047 18.5308Z" fill="black"/>
<path d="M97.1256 14.7662C96.6929 14.7662 96.3303 14.6307 96.0377 14.3597C95.7572 14.0769 95.6167 13.7293 95.6167 13.3169C95.6167 12.9045 95.7572 12.5628 96.0377 12.2919C96.3303 12.0091 96.6929 11.8677 97.1256 11.8677C97.5582 11.8677 97.9148 12.0091 98.1958 12.2919C98.488 12.5628 98.6344 12.9045 98.6344 13.3169C98.6344 13.7293 98.488 14.0769 98.1958 14.3597C97.9148 14.6307 97.5582 14.7662 97.1256 14.7662Z" fill="black"/>
<path d="M98.3358 25.724V15.9327H95.88V25.724H98.3358Z" fill="black"/>
<path d="M93.2796 25.883C92.847 25.883 92.4843 25.7475 92.1918 25.4765C91.9112 25.1937 91.7708 24.8462 91.7708 24.4338C91.7708 24.0214 91.9112 23.6797 92.1918 23.4087C92.4843 23.1259 92.847 22.9845 93.2796 22.9845C93.7126 22.9845 94.0693 23.1259 94.3498 23.4087C94.6424 23.6797 94.7885 24.0214 94.7885 24.4338C94.7885 24.8462 94.6424 25.1937 94.3498 25.4765C94.0693 25.7475 93.7126 25.883 93.2796 25.883Z" fill="black"/>
</mask>
<g mask="url(#mask3_549_2440)">
<path d="M88.5042 17.9652V22.7017C88.5042 23.0317 88.5803 23.2732 88.732 23.4263C88.8961 23.5677 89.165 23.6384 89.5392 23.6384H90.6795V25.724H89.1358C87.0654 25.724 86.0304 24.7106 86.0304 22.6841V17.9652H84.8726V15.9327H86.0304V13.5114H88.5042V15.9327H90.6795V17.9652H88.5042Z" stroke="white" stroke-width="0.4"/>
</g>
<mask id="mask4_549_2440" style="mask-type:luminance" maskUnits="userSpaceOnUse" x="36" y="11" width="75" height="16">
<path d="M110.012 11.4904H36.2175V26.2073H110.012V11.4904Z" fill="white"/>
<path d="M81.4815 14.3597C81.7737 14.6307 82.1363 14.7662 82.5689 14.7662C83.0019 14.7662 83.3586 14.6307 83.6391 14.3597C83.9317 14.0769 84.0778 13.7293 84.0778 13.3169C84.0778 12.9045 83.9317 12.5628 83.6391 12.2919C83.3586 12.0091 83.0019 11.8677 82.5689 11.8677C82.1363 11.8677 81.7737 12.0091 81.4815 12.2919C81.2005 12.5628 81.0604 12.9045 81.0604 13.3169C81.0604 13.7293 81.2005 14.0769 81.4815 14.3597Z" fill="black"/>
<path d="M83.7796 25.724V15.9327H81.3234V25.724H83.7796Z" fill="black"/>
<path d="M88.5042 17.9652V22.7017C88.5042 23.0317 88.5803 23.2732 88.732 23.4263C88.8961 23.5677 89.165 23.6384 89.5392 23.6384H90.6795V25.724H89.1358C87.0654 25.724 86.0304 24.7106 86.0304 22.6841V17.9652H84.8726V15.9327H86.0304V13.5114H88.5042V15.9327H90.6795V17.9652H88.5042Z" fill="black"/>
<path fill-rule="evenodd" clip-rule="evenodd" d="M104.517 25.8831C103.581 25.8831 102.739 25.6769 101.99 25.2645C101.242 24.8403 100.651 24.2453 100.219 23.4794C99.7976 22.7136 99.587 21.8299 99.587 20.8284C99.587 19.8269 99.8032 18.9432 100.236 18.1773C100.68 17.4114 101.283 16.8223 102.043 16.4099C102.803 15.9858 103.651 15.7737 104.587 15.7737C105.523 15.7737 106.371 15.9858 107.131 16.4099C107.891 16.8223 108.488 17.4114 108.92 18.1773C109.365 18.9432 109.587 19.8269 109.587 20.8284C109.587 21.8299 109.359 22.7136 108.903 23.4794C108.459 24.2453 107.85 24.8403 107.078 25.2645C106.318 25.6769 105.464 25.8831 104.517 25.8831ZM104.517 23.7269C104.961 23.7269 105.376 23.6208 105.763 23.4087C106.16 23.1849 106.476 22.855 106.71 22.419C106.944 21.983 107.061 21.4529 107.061 20.8284C107.061 19.8975 106.815 19.1847 106.324 18.6898C105.844 18.1832 105.254 17.9299 104.552 17.9299C103.85 17.9299 103.26 18.1832 102.78 18.6898C102.312 19.1847 102.078 19.8975 102.078 20.8284C102.078 21.7592 102.306 22.4779 102.762 22.9845C103.23 23.4794 103.815 23.7269 104.517 23.7269Z" fill="black"/>
<path d="M75.5718 15.7913C76.7649 15.7913 77.7239 16.1624 78.4491 16.9047C79.1859 17.6352 79.5545 18.6603 79.5545 19.9799V25.7239H77.0983V20.3157C77.0983 19.5499 76.9054 18.9667 76.5192 18.5661C76.1334 18.1537 75.6071 17.9475 74.9403 17.9475C74.2735 17.9475 73.7416 18.1537 73.3438 18.5661C72.9579 18.9667 72.765 19.5499 72.765 20.3157V25.7239H70.3088V20.3157C70.3088 19.5499 70.1155 18.9667 69.7297 18.5661C69.3439 18.1537 68.8176 17.9475 68.1508 17.9475C67.4724 17.9475 66.9345 18.1537 66.5367 18.5661C66.1508 18.9667 65.9576 19.5499 65.9576 20.3157V25.7239H63.5013V15.7913H65.9576V17.1168C66.2733 16.7044 66.6771 16.3804 67.1682 16.1447C67.6713 15.9091 68.2208 15.7913 68.8176 15.7913C69.5776 15.7913 70.256 15.9562 70.8527 16.2861C71.4491 16.6043 71.911 17.0638 72.2387 17.6647C72.5545 17.0991 73.0104 16.6455 73.6071 16.3038C74.2151 15.9621 74.8702 15.7913 75.5718 15.7913Z" fill="black"/>
<path d="M60.6548 16.2331C60.1518 16.5277 59.7423 16.9342 59.4265 17.4526V15.9327H56.9703V25.7239H59.4265V20.846C59.4265 19.9387 59.6195 19.3025 60.0057 18.9372C60.4031 18.5719 60.9878 18.3893 61.7599 18.3893H62.409V15.7913C61.7543 15.7913 61.1691 15.9385 60.6548 16.2331Z" fill="black"/>
<path fill-rule="evenodd" clip-rule="evenodd" d="M55.7394 20.6163C55.7394 20.9698 55.7162 21.2879 55.6693 21.5707H48.5637C48.6221 22.2776 48.8678 22.8314 49.3005 23.232C49.7335 23.6326 50.2654 23.8329 50.897 23.8329C51.8095 23.8329 52.4587 23.4382 52.8445 22.6488H55.4936C55.2131 23.5914 54.6752 24.369 53.8795 24.9817C53.0843 25.5826 52.1077 25.8831 50.9498 25.8831C50.0141 25.8831 49.172 25.6769 48.4236 25.2645C47.6868 24.8403 47.1076 24.2453 46.6866 23.4794C46.2772 22.7136 46.0726 21.8299 46.0726 20.8284C46.0726 19.8151 46.2772 18.9255 46.6866 18.1596C47.096 17.3938 47.6691 16.8046 48.406 16.3922C49.1428 15.9799 49.9909 15.7737 50.9498 15.7737C51.874 15.7737 52.6984 15.974 53.4236 16.3746C54.1605 16.7752 54.7276 17.3466 55.1254 18.0889C55.5348 18.8195 55.7394 19.6619 55.7394 20.6163ZM53.1955 19.9093C53.1839 19.2731 52.9558 18.7664 52.5111 18.3894C52.0669 18.0006 51.523 17.8061 50.8798 17.8061C50.2714 17.8061 49.7568 17.9947 49.3357 18.3717C48.9263 18.737 48.6749 19.2495 48.5813 19.9093H53.1955Z" fill="black"/>
<path fill-rule="evenodd" clip-rule="evenodd" d="M45.0486 19.061C45.3643 18.4836 45.522 17.8651 45.522 17.2052C45.522 16.4747 45.3527 15.8208 45.0133 15.2434C44.686 14.6661 44.1889 14.2125 43.5221 13.8826C42.8553 13.5526 42.0484 13.3877 41.1011 13.3877H36.5922V25.724H39.0483V20.9874H41.1011C42.1069 20.9874 42.9374 20.8107 43.5921 20.4572C44.2589 20.1037 44.7444 19.6383 45.0486 19.061ZM42.5047 18.5308C42.1769 18.8371 41.6742 18.9903 40.9958 18.9903H39.0483V15.4025H40.9958C42.329 15.4025 42.9958 16.0034 42.9958 17.2052C42.9958 17.7708 42.8321 18.2126 42.5047 18.5308Z" fill="black"/>
<path d="M97.1256 14.7662C96.6929 14.7662 96.3303 14.6307 96.0377 14.3597C95.7572 14.0769 95.6167 13.7293 95.6167 13.3169C95.6167 12.9045 95.7572 12.5628 96.0377 12.2919C96.3303 12.0091 96.6929 11.8677 97.1256 11.8677C97.5582 11.8677 97.9148 12.0091 98.1958 12.2919C98.488 12.5628 98.6344 12.9045 98.6344 13.3169C98.6344 13.7293 98.488 14.0769 98.1958 14.3597C97.9148 14.6307 97.5582 14.7662 97.1256 14.7662Z" fill="black"/>
<path d="M98.3358 25.724V15.9327H95.88V25.724H98.3358Z" fill="black"/>
<path d="M93.2796 25.883C92.847 25.883 92.4843 25.7475 92.1918 25.4765C91.9112 25.1937 91.7708 24.8462 91.7708 24.4338C91.7708 24.0214 91.9112 23.6797 92.1918 23.4087C92.4843 23.1259 92.847 22.9845 93.2796 22.9845C93.7126 22.9845 94.0693 23.1259 94.3498 23.4087C94.6424 23.6797 94.7885 24.0214 94.7885 24.4338C94.7885 24.8462 94.6424 25.1937 94.3498 25.4765C94.0693 25.7475 93.7126 25.883 93.2796 25.883Z" fill="black"/>
</mask>
<g mask="url(#mask4_549_2440)">
<path fill-rule="evenodd" clip-rule="evenodd" d="M104.517 25.8831C103.581 25.8831 102.739 25.6769 101.99 25.2645C101.242 24.8403 100.651 24.2453 100.219 23.4794C99.7976 22.7136 99.587 21.8299 99.587 20.8284C99.587 19.8269 99.8032 18.9432 100.236 18.1773C100.68 17.4114 101.283 16.8223 102.043 16.4099C102.803 15.9858 103.651 15.7737 104.587 15.7737C105.523 15.7737 106.371 15.9858 107.131 16.4099C107.891 16.8223 108.488 17.4114 108.92 18.1773C109.365 18.9432 109.587 19.8269 109.587 20.8284C109.587 21.8299 109.359 22.7136 108.903 23.4794C108.459 24.2453 107.85 24.8403 107.078 25.2645C106.318 25.6769 105.464 25.8831 104.517 25.8831ZM104.517 23.7269C104.961 23.7269 105.376 23.6208 105.763 23.4087C106.16 23.1849 106.476 22.855 106.71 22.419C106.944 21.983 107.061 21.4529 107.061 20.8284C107.061 19.8975 106.815 19.1847 106.324 18.6898C105.844 18.1832 105.254 17.9299 104.552 17.9299C103.85 17.9299 103.26 18.1832 102.78 18.6898C102.312 19.1847 102.078 19.8975 102.078 20.8284C102.078 21.7592 102.306 22.4779 102.762 22.9845C103.23 23.4794 103.815 23.7269 104.517 23.7269Z" stroke="white" stroke-width="0.4"/>
</g>
<mask id="mask5_549_2440" style="mask-type:luminance" maskUnits="userSpaceOnUse" x="36" y="11" width="75" height="16">
<path d="M110.012 11.4904H36.2175V26.2073H110.012V11.4904Z" fill="white"/>
<path d="M81.4815 14.3597C81.7737 14.6307 82.1363 14.7662 82.5689 14.7662C83.0019 14.7662 83.3586 14.6307 83.6391 14.3597C83.9317 14.0769 84.0778 13.7293 84.0778 13.3169C84.0778 12.9045 83.9317 12.5628 83.6391 12.2919C83.3586 12.0091 83.0019 11.8677 82.5689 11.8677C82.1363 11.8677 81.7737 12.0091 81.4815 12.2919C81.2005 12.5628 81.0604 12.9045 81.0604 13.3169C81.0604 13.7293 81.2005 14.0769 81.4815 14.3597Z" fill="black"/>
<path d="M83.7796 25.724V15.9327H81.3234V25.724H83.7796Z" fill="black"/>
<path d="M88.5042 17.9652V22.7017C88.5042 23.0317 88.5803 23.2732 88.732 23.4263C88.8961 23.5677 89.165 23.6384 89.5392 23.6384H90.6795V25.724H89.1358C87.0654 25.724 86.0304 24.7106 86.0304 22.6841V17.9652H84.8726V15.9327H86.0304V13.5114H88.5042V15.9327H90.6795V17.9652H88.5042Z" fill="black"/>
<path fill-rule="evenodd" clip-rule="evenodd" d="M104.517 25.8831C103.581 25.8831 102.739 25.6769 101.99 25.2645C101.242 24.8403 100.651 24.2453 100.219 23.4794C99.7976 22.7136 99.587 21.8299 99.587 20.8284C99.587 19.8269 99.8032 18.9432 100.236 18.1773C100.68 17.4114 101.283 16.8223 102.043 16.4099C102.803 15.9858 103.651 15.7737 104.587 15.7737C105.523 15.7737 106.371 15.9858 107.131 16.4099C107.891 16.8223 108.488 17.4114 108.92 18.1773C109.365 18.9432 109.587 19.8269 109.587 20.8284C109.587 21.8299 109.359 22.7136 108.903 23.4794C108.459 24.2453 107.85 24.8403 107.078 25.2645C106.318 25.6769 105.464 25.8831 104.517 25.8831ZM104.517 23.7269C104.961 23.7269 105.376 23.6208 105.763 23.4087C106.16 23.1849 106.476 22.855 106.71 22.419C106.944 21.983 107.061 21.4529 107.061 20.8284C107.061 19.8975 106.815 19.1847 106.324 18.6898C105.844 18.1832 105.254 17.9299 104.552 17.9299C103.85 17.9299 103.26 18.1832 102.78 18.6898C102.312 19.1847 102.078 19.8975 102.078 20.8284C102.078 21.7592 102.306 22.4779 102.762 22.9845C103.23 23.4794 103.815 23.7269 104.517 23.7269Z" fill="black"/>
<path d="M75.5718 15.7913C76.7649 15.7913 77.7239 16.1624 78.4491 16.9047C79.1859 17.6352 79.5545 18.6603 79.5545 19.9799V25.7239H77.0983V20.3157C77.0983 19.5499 76.9054 18.9667 76.5192 18.5661C76.1334 18.1537 75.6071 17.9475 74.9403 17.9475C74.2735 17.9475 73.7416 18.1537 73.3438 18.5661C72.9579 18.9667 72.765 19.5499 72.765 20.3157V25.7239H70.3088V20.3157C70.3088 19.5499 70.1155 18.9667 69.7297 18.5661C69.3439 18.1537 68.8176 17.9475 68.1508 17.9475C67.4724 17.9475 66.9345 18.1537 66.5367 18.5661C66.1508 18.9667 65.9576 19.5499 65.9576 20.3157V25.7239H63.5013V15.7913H65.9576V17.1168C66.2733 16.7044 66.6771 16.3804 67.1682 16.1447C67.6713 15.9091 68.2208 15.7913 68.8176 15.7913C69.5776 15.7913 70.256 15.9562 70.8527 16.2861C71.4491 16.6043 71.911 17.0638 72.2387 17.6647C72.5545 17.0991 73.0104 16.6455 73.6071 16.3038C74.2151 15.9621 74.8702 15.7913 75.5718 15.7913Z" fill="black"/>
<path d="M60.6548 16.2331C60.1518 16.5277 59.7423 16.9342 59.4265 17.4526V15.9327H56.9703V25.7239H59.4265V20.846C59.4265 19.9387 59.6195 19.3025 60.0057 18.9372C60.4031 18.5719 60.9878 18.3893 61.7599 18.3893H62.409V15.7913C61.7543 15.7913 61.1691 15.9385 60.6548 16.2331Z" fill="black"/>
<path fill-rule="evenodd" clip-rule="evenodd" d="M55.7394 20.6163C55.7394 20.9698 55.7162 21.2879 55.6693 21.5707H48.5637C48.6221 22.2776 48.8678 22.8314 49.3005 23.232C49.7335 23.6326 50.2654 23.8329 50.897 23.8329C51.8095 23.8329 52.4587 23.4382 52.8445 22.6488H55.4936C55.2131 23.5914 54.6752 24.369 53.8795 24.9817C53.0843 25.5826 52.1077 25.8831 50.9498 25.8831C50.0141 25.8831 49.172 25.6769 48.4236 25.2645C47.6868 24.8403 47.1076 24.2453 46.6866 23.4794C46.2772 22.7136 46.0726 21.8299 46.0726 20.8284C46.0726 19.8151 46.2772 18.9255 46.6866 18.1596C47.096 17.3938 47.6691 16.8046 48.406 16.3922C49.1428 15.9799 49.9909 15.7737 50.9498 15.7737C51.874 15.7737 52.6984 15.974 53.4236 16.3746C54.1605 16.7752 54.7276 17.3466 55.1254 18.0889C55.5348 18.8195 55.7394 19.6619 55.7394 20.6163ZM53.1955 19.9093C53.1839 19.2731 52.9558 18.7664 52.5111 18.3894C52.0669 18.0006 51.523 17.8061 50.8798 17.8061C50.2714 17.8061 49.7568 17.9947 49.3357 18.3717C48.9263 18.737 48.6749 19.2495 48.5813 19.9093H53.1955Z" fill="black"/>
<path fill-rule="evenodd" clip-rule="evenodd" d="M45.0486 19.061C45.3643 18.4836 45.522 17.8651 45.522 17.2052C45.522 16.4747 45.3527 15.8208 45.0133 15.2434C44.686 14.6661 44.1889 14.2125 43.5221 13.8826C42.8553 13.5526 42.0484 13.3877 41.1011 13.3877H36.5922V25.724H39.0483V20.9874H41.1011C42.1069 20.9874 42.9374 20.8107 43.5921 20.4572C44.2589 20.1037 44.7444 19.6383 45.0486 19.061ZM42.5047 18.5308C42.1769 18.8371 41.6742 18.9903 40.9958 18.9903H39.0483V15.4025H40.9958C42.329 15.4025 42.9958 16.0034 42.9958 17.2052C42.9958 17.7708 42.8321 18.2126 42.5047 18.5308Z" fill="black"/>
<path d="M97.1256 14.7662C96.6929 14.7662 96.3303 14.6307 96.0377 14.3597C95.7572 14.0769 95.6167 13.7293 95.6167 13.3169C95.6167 12.9045 95.7572 12.5628 96.0377 12.2919C96.3303 12.0091 96.6929 11.8677 97.1256 11.8677C97.5582 11.8677 97.9148 12.0091 98.1958 12.2919C98.488 12.5628 98.6344 12.9045 98.6344 13.3169C98.6344 13.7293 98.488 14.0769 98.1958 14.3597C97.9148 14.6307 97.5582 14.7662 97.1256 14.7662Z" fill="black"/>
<path d="M98.3358 25.724V15.9327H95.88V25.724H98.3358Z" fill="black"/>
<path d="M93.2796 25.883C92.847 25.883 92.4843 25.7475 92.1918 25.4765C91.9112 25.1937 91.7708 24.8462 91.7708 24.4338C91.7708 24.0214 91.9112 23.6797 92.1918 23.4087C92.4843 23.1259 92.847 22.9845 93.2796 22.9845C93.7126 22.9845 94.0693 23.1259 94.3498 23.4087C94.6424 23.6797 94.7885 24.0214 94.7885 24.4338C94.7885 24.8462 94.6424 25.1937 94.3498 25.4765C94.0693 25.7475 93.7126 25.883 93.2796 25.883Z" fill="black"/>
</mask>
<g mask="url(#mask5_549_2440)">
<path d="M75.5718 15.7913C76.7649 15.7913 77.7239 16.1624 78.4491 16.9047C79.1859 17.6352 79.5545 18.6603 79.5545 19.9799V25.7239H77.0983V20.3157C77.0983 19.5499 76.9054 18.9667 76.5192 18.5661C76.1334 18.1537 75.6071 17.9475 74.9403 17.9475C74.2735 17.9475 73.7416 18.1537 73.3438 18.5661C72.9579 18.9667 72.765 19.5499 72.765 20.3157V25.7239H70.3088V20.3157C70.3088 19.5499 70.1155 18.9667 69.7297 18.5661C69.3439 18.1537 68.8176 17.9475 68.1508 17.9475C67.4724 17.9475 66.9345 18.1537 66.5367 18.5661C66.1508 18.9667 65.9576 19.5499 65.9576 20.3157V25.7239H63.5013V15.7913H65.9576V17.1168C66.2733 16.7044 66.6771 16.3804 67.1682 16.1447C67.6713 15.9091 68.2208 15.7913 68.8176 15.7913C69.5776 15.7913 70.256 15.9562 70.8527 16.2861C71.4491 16.6043 71.911 17.0638 72.2387 17.6647C72.5545 17.0991 73.0104 16.6455 73.6071 16.3038C74.2151 15.9621 74.8702 15.7913 75.5718 15.7913Z" stroke="white" stroke-width="0.4"/>
</g>
<mask id="mask6_549_2440" style="mask-type:luminance" maskUnits="userSpaceOnUse" x="36" y="11" width="75" height="16">
<path d="M110.012 11.4904H36.2175V26.2073H110.012V11.4904Z" fill="white"/>
<path d="M81.4815 14.3597C81.7737 14.6307 82.1363 14.7662 82.5689 14.7662C83.0019 14.7662 83.3586 14.6307 83.6391 14.3597C83.9317 14.0769 84.0778 13.7293 84.0778 13.3169C84.0778 12.9045 83.9317 12.5628 83.6391 12.2919C83.3586 12.0091 83.0019 11.8677 82.5689 11.8677C82.1363 11.8677 81.7737 12.0091 81.4815 12.2919C81.2005 12.5628 81.0604 12.9045 81.0604 13.3169C81.0604 13.7293 81.2005 14.0769 81.4815 14.3597Z" fill="black"/>
<path d="M83.7796 25.724V15.9327H81.3234V25.724H83.7796Z" fill="black"/>
<path d="M88.5042 17.9652V22.7017C88.5042 23.0317 88.5803 23.2732 88.732 23.4263C88.8961 23.5677 89.165 23.6384 89.5392 23.6384H90.6795V25.724H89.1358C87.0654 25.724 86.0304 24.7106 86.0304 22.6841V17.9652H84.8726V15.9327H86.0304V13.5114H88.5042V15.9327H90.6795V17.9652H88.5042Z" fill="black"/>
<path fill-rule="evenodd" clip-rule="evenodd" d="M104.517 25.8831C103.581 25.8831 102.739 25.6769 101.99 25.2645C101.242 24.8403 100.651 24.2453 100.219 23.4794C99.7976 22.7136 99.587 21.8299 99.587 20.8284C99.587 19.8269 99.8032 18.9432 100.236 18.1773C100.68 17.4114 101.283 16.8223 102.043 16.4099C102.803 15.9858 103.651 15.7737 104.587 15.7737C105.523 15.7737 106.371 15.9858 107.131 16.4099C107.891 16.8223 108.488 17.4114 108.92 18.1773C109.365 18.9432 109.587 19.8269 109.587 20.8284C109.587 21.8299 109.359 22.7136 108.903 23.4794C108.459 24.2453 107.85 24.8403 107.078 25.2645C106.318 25.6769 105.464 25.8831 104.517 25.8831ZM104.517 23.7269C104.961 23.7269 105.376 23.6208 105.763 23.4087C106.16 23.1849 106.476 22.855 106.71 22.419C106.944 21.983 107.061 21.4529 107.061 20.8284C107.061 19.8975 106.815 19.1847 106.324 18.6898C105.844 18.1832 105.254 17.9299 104.552 17.9299C103.85 17.9299 103.26 18.1832 102.78 18.6898C102.312 19.1847 102.078 19.8975 102.078 20.8284C102.078 21.7592 102.306 22.4779 102.762 22.9845C103.23 23.4794 103.815 23.7269 104.517 23.7269Z" fill="black"/>
<path d="M75.5718 15.7913C76.7649 15.7913 77.7239 16.1624 78.4491 16.9047C79.1859 17.6352 79.5545 18.6603 79.5545 19.9799V25.7239H77.0983V20.3157C77.0983 19.5499 76.9054 18.9667 76.5192 18.5661C76.1334 18.1537 75.6071 17.9475 74.9403 17.9475C74.2735 17.9475 73.7416 18.1537 73.3438 18.5661C72.9579 18.9667 72.765 19.5499 72.765 20.3157V25.7239H70.3088V20.3157C70.3088 19.5499 70.1155 18.9667 69.7297 18.5661C69.3439 18.1537 68.8176 17.9475 68.1508 17.9475C67.4724 17.9475 66.9345 18.1537 66.5367 18.5661C66.1508 18.9667 65.9576 19.5499 65.9576 20.3157V25.7239H63.5013V15.7913H65.9576V17.1168C66.2733 16.7044 66.6771 16.3804 67.1682 16.1447C67.6713 15.9091 68.2208 15.7913 68.8176 15.7913C69.5776 15.7913 70.256 15.9562 70.8527 16.2861C71.4491 16.6043 71.911 17.0638 72.2387 17.6647C72.5545 17.0991 73.0104 16.6455 73.6071 16.3038C74.2151 15.9621 74.8702 15.7913 75.5718 15.7913Z" fill="black"/>
<path d="M60.6548 16.2331C60.1518 16.5277 59.7423 16.9342 59.4265 17.4526V15.9327H56.9703V25.7239H59.4265V20.846C59.4265 19.9387 59.6195 19.3025 60.0057 18.9372C60.4031 18.5719 60.9878 18.3893 61.7599 18.3893H62.409V15.7913C61.7543 15.7913 61.1691 15.9385 60.6548 16.2331Z" fill="black"/>
<path fill-rule="evenodd" clip-rule="evenodd" d="M55.7394 20.6163C55.7394 20.9698 55.7162 21.2879 55.6693 21.5707H48.5637C48.6221 22.2776 48.8678 22.8314 49.3005 23.232C49.7335 23.6326 50.2654 23.8329 50.897 23.8329C51.8095 23.8329 52.4587 23.4382 52.8445 22.6488H55.4936C55.2131 23.5914 54.6752 24.369 53.8795 24.9817C53.0843 25.5826 52.1077 25.8831 50.9498 25.8831C50.0141 25.8831 49.172 25.6769 48.4236 25.2645C47.6868 24.8403 47.1076 24.2453 46.6866 23.4794C46.2772 22.7136 46.0726 21.8299 46.0726 20.8284C46.0726 19.8151 46.2772 18.9255 46.6866 18.1596C47.096 17.3938 47.6691 16.8046 48.406 16.3922C49.1428 15.9799 49.9909 15.7737 50.9498 15.7737C51.874 15.7737 52.6984 15.974 53.4236 16.3746C54.1605 16.7752 54.7276 17.3466 55.1254 18.0889C55.5348 18.8195 55.7394 19.6619 55.7394 20.6163ZM53.1955 19.9093C53.1839 19.2731 52.9558 18.7664 52.5111 18.3894C52.0669 18.0006 51.523 17.8061 50.8798 17.8061C50.2714 17.8061 49.7568 17.9947 49.3357 18.3717C48.9263 18.737 48.6749 19.2495 48.5813 19.9093H53.1955Z" fill="black"/>
<path fill-rule="evenodd" clip-rule="evenodd" d="M45.0486 19.061C45.3643 18.4836 45.522 17.8651 45.522 17.2052C45.522 16.4747 45.3527 15.8208 45.0133 15.2434C44.686 14.6661 44.1889 14.2125 43.5221 13.8826C42.8553 13.5526 42.0484 13.3877 41.1011 13.3877H36.5922V25.724H39.0483V20.9874H41.1011C42.1069 20.9874 42.9374 20.8107 43.5921 20.4572C44.2589 20.1037 44.7444 19.6383 45.0486 19.061ZM42.5047 18.5308C42.1769 18.8371 41.6742 18.9903 40.9958 18.9903H39.0483V15.4025H40.9958C42.329 15.4025 42.9958 16.0034 42.9958 17.2052C42.9958 17.7708 42.8321 18.2126 42.5047 18.5308Z" fill="black"/>
<path d="M97.1256 14.7662C96.6929 14.7662 96.3303 14.6307 96.0377 14.3597C95.7572 14.0769 95.6167 13.7293 95.6167 13.3169C95.6167 12.9045 95.7572 12.5628 96.0377 12.2919C96.3303 12.0091 96.6929 11.8677 97.1256 11.8677C97.5582 11.8677 97.9148 12.0091 98.1958 12.2919C98.488 12.5628 98.6344 12.9045 98.6344 13.3169C98.6344 13.7293 98.488 14.0769 98.1958 14.3597C97.9148 14.6307 97.5582 14.7662 97.1256 14.7662Z" fill="black"/>
<path d="M98.3358 25.724V15.9327H95.88V25.724H98.3358Z" fill="black"/>
<path d="M93.2796 25.883C92.847 25.883 92.4843 25.7475 92.1918 25.4765C91.9112 25.1937 91.7708 24.8462 91.7708 24.4338C91.7708 24.0214 91.9112 23.6797 92.1918 23.4087C92.4843 23.1259 92.847 22.9845 93.2796 22.9845C93.7126 22.9845 94.0693 23.1259 94.3498 23.4087C94.6424 23.6797 94.7885 24.0214 94.7885 24.4338C94.7885 24.8462 94.6424 25.1937 94.3498 25.4765C94.0693 25.7475 93.7126 25.883 93.2796 25.883Z" fill="black"/>
</mask>
<g mask="url(#mask6_549_2440)">
<path d="M60.6548 16.2331C60.1518 16.5277 59.7423 16.9342 59.4265 17.4526V15.9327H56.9703V25.7239H59.4265V20.846C59.4265 19.9387 59.6195 19.3025 60.0057 18.9372C60.4031 18.5719 60.9878 18.3893 61.7599 18.3893H62.409V15.7913C61.7543 15.7913 61.1691 15.9385 60.6548 16.2331Z" stroke="white" stroke-width="0.4"/>
</g>
<mask id="mask7_549_2440" style="mask-type:luminance" maskUnits="userSpaceOnUse" x="36" y="11" width="75" height="16">
<path d="M110.012 11.4904H36.2175V26.2073H110.012V11.4904Z" fill="white"/>
<path d="M81.4815 14.3597C81.7737 14.6307 82.1363 14.7662 82.5689 14.7662C83.0019 14.7662 83.3586 14.6307 83.6391 14.3597C83.9317 14.0769 84.0778 13.7293 84.0778 13.3169C84.0778 12.9045 83.9317 12.5628 83.6391 12.2919C83.3586 12.0091 83.0019 11.8677 82.5689 11.8677C82.1363 11.8677 81.7737 12.0091 81.4815 12.2919C81.2005 12.5628 81.0604 12.9045 81.0604 13.3169C81.0604 13.7293 81.2005 14.0769 81.4815 14.3597Z" fill="black"/>
<path d="M83.7796 25.724V15.9327H81.3234V25.724H83.7796Z" fill="black"/>
<path d="M88.5042 17.9652V22.7017C88.5042 23.0317 88.5803 23.2732 88.732 23.4263C88.8961 23.5677 89.165 23.6384 89.5392 23.6384H90.6795V25.724H89.1358C87.0654 25.724 86.0304 24.7106 86.0304 22.6841V17.9652H84.8726V15.9327H86.0304V13.5114H88.5042V15.9327H90.6795V17.9652H88.5042Z" fill="black"/>
<path fill-rule="evenodd" clip-rule="evenodd" d="M104.517 25.8831C103.581 25.8831 102.739 25.6769 101.99 25.2645C101.242 24.8403 100.651 24.2453 100.219 23.4794C99.7976 22.7136 99.587 21.8299 99.587 20.8284C99.587 19.8269 99.8032 18.9432 100.236 18.1773C100.68 17.4114 101.283 16.8223 102.043 16.4099C102.803 15.9858 103.651 15.7737 104.587 15.7737C105.523 15.7737 106.371 15.9858 107.131 16.4099C107.891 16.8223 108.488 17.4114 108.92 18.1773C109.365 18.9432 109.587 19.8269 109.587 20.8284C109.587 21.8299 109.359 22.7136 108.903 23.4794C108.459 24.2453 107.85 24.8403 107.078 25.2645C106.318 25.6769 105.464 25.8831 104.517 25.8831ZM104.517 23.7269C104.961 23.7269 105.376 23.6208 105.763 23.4087C106.16 23.1849 106.476 22.855 106.71 22.419C106.944 21.983 107.061 21.4529 107.061 20.8284C107.061 19.8975 106.815 19.1847 106.324 18.6898C105.844 18.1832 105.254 17.9299 104.552 17.9299C103.85 17.9299 103.26 18.1832 102.78 18.6898C102.312 19.1847 102.078 19.8975 102.078 20.8284C102.078 21.7592 102.306 22.4779 102.762 22.9845C103.23 23.4794 103.815 23.7269 104.517 23.7269Z" fill="black"/>
<path d="M75.5718 15.7913C76.7649 15.7913 77.7239 16.1624 78.4491 16.9047C79.1859 17.6352 79.5545 18.6603 79.5545 19.9799V25.7239H77.0983V20.3157C77.0983 19.5499 76.9054 18.9667 76.5192 18.5661C76.1334 18.1537 75.6071 17.9475 74.9403 17.9475C74.2735 17.9475 73.7416 18.1537 73.3438 18.5661C72.9579 18.9667 72.765 19.5499 72.765 20.3157V25.7239H70.3088V20.3157C70.3088 19.5499 70.1155 18.9667 69.7297 18.5661C69.3439 18.1537 68.8176 17.9475 68.1508 17.9475C67.4724 17.9475 66.9345 18.1537 66.5367 18.5661C66.1508 18.9667 65.9576 19.5499 65.9576 20.3157V25.7239H63.5013V15.7913H65.9576V17.1168C66.2733 16.7044 66.6771 16.3804 67.1682 16.1447C67.6713 15.9091 68.2208 15.7913 68.8176 15.7913C69.5776 15.7913 70.256 15.9562 70.8527 16.2861C71.4491 16.6043 71.911 17.0638 72.2387 17.6647C72.5545 17.0991 73.0104 16.6455 73.6071 16.3038C74.2151 15.9621 74.8702 15.7913 75.5718 15.7913Z" fill="black"/>
<path d="M60.6548 16.2331C60.1518 16.5277 59.7423 16.9342 59.4265 17.4526V15.9327H56.9703V25.7239H59.4265V20.846C59.4265 19.9387 59.6195 19.3025 60.0057 18.9372C60.4031 18.5719 60.9878 18.3893 61.7599 18.3893H62.409V15.7913C61.7543 15.7913 61.1691 15.9385 60.6548 16.2331Z" fill="black"/>
<path fill-rule="evenodd" clip-rule="evenodd" d="M55.7394 20.6163C55.7394 20.9698 55.7162 21.2879 55.6693 21.5707H48.5637C48.6221 22.2776 48.8678 22.8314 49.3005 23.232C49.7335 23.6326 50.2654 23.8329 50.897 23.8329C51.8095 23.8329 52.4587 23.4382 52.8445 22.6488H55.4936C55.2131 23.5914 54.6752 24.369 53.8795 24.9817C53.0843 25.5826 52.1077 25.8831 50.9498 25.8831C50.0141 25.8831 49.172 25.6769 48.4236 25.2645C47.6868 24.8403 47.1076 24.2453 46.6866 23.4794C46.2772 22.7136 46.0726 21.8299 46.0726 20.8284C46.0726 19.8151 46.2772 18.9255 46.6866 18.1596C47.096 17.3938 47.6691 16.8046 48.406 16.3922C49.1428 15.9799 49.9909 15.7737 50.9498 15.7737C51.874 15.7737 52.6984 15.974 53.4236 16.3746C54.1605 16.7752 54.7276 17.3466 55.1254 18.0889C55.5348 18.8195 55.7394 19.6619 55.7394 20.6163ZM53.1955 19.9093C53.1839 19.2731 52.9558 18.7664 52.5111 18.3894C52.0669 18.0006 51.523 17.8061 50.8798 17.8061C50.2714 17.8061 49.7568 17.9947 49.3357 18.3717C48.9263 18.737 48.6749 19.2495 48.5813 19.9093H53.1955Z" fill="black"/>
<path fill-rule="evenodd" clip-rule="evenodd" d="M45.0486 19.061C45.3643 18.4836 45.522 17.8651 45.522 17.2052C45.522 16.4747 45.3527 15.8208 45.0133 15.2434C44.686 14.6661 44.1889 14.2125 43.5221 13.8826C42.8553 13.5526 42.0484 13.3877 41.1011 13.3877H36.5922V25.724H39.0483V20.9874H41.1011C42.1069 20.9874 42.9374 20.8107 43.5921 20.4572C44.2589 20.1037 44.7444 19.6383 45.0486 19.061ZM42.5047 18.5308C42.1769 18.8371 41.6742 18.9903 40.9958 18.9903H39.0483V15.4025H40.9958C42.329 15.4025 42.9958 16.0034 42.9958 17.2052C42.9958 17.7708 42.8321 18.2126 42.5047 18.5308Z" fill="black"/>
<path d="M97.1256 14.7662C96.6929 14.7662 96.3303 14.6307 96.0377 14.3597C95.7572 14.0769 95.6167 13.7293 95.6167 13.3169C95.6167 12.9045 95.7572 12.5628 96.0377 12.2919C96.3303 12.0091 96.6929 11.8677 97.1256 11.8677C97.5582 11.8677 97.9148 12.0091 98.1958 12.2919C98.488 12.5628 98.6344 12.9045 98.6344 13.3169C98.6344 13.7293 98.488 14.0769 98.1958 14.3597C97.9148 14.6307 97.5582 14.7662 97.1256 14.7662Z" fill="black"/>
<path d="M98.3358 25.724V15.9327H95.88V25.724H98.3358Z" fill="black"/>
<path d="M93.2796 25.883C92.847 25.883 92.4843 25.7475 92.1918 25.4765C91.9112 25.1937 91.7708 24.8462 91.7708 24.4338C91.7708 24.0214 91.9112 23.6797 92.1918 23.4087C92.4843 23.1259 92.847 22.9845 93.2796 22.9845C93.7126 22.9845 94.0693 23.1259 94.3498 23.4087C94.6424 23.6797 94.7885 24.0214 94.7885 24.4338C94.7885 24.8462 94.6424 25.1937 94.3498 25.4765C94.0693 25.7475 93.7126 25.883 93.2796 25.883Z" fill="black"/>
</mask>
<g mask="url(#mask7_549_2440)">
<path fill-rule="evenodd" clip-rule="evenodd" d="M55.7394 20.6163C55.7394 20.9698 55.7162 21.2879 55.6693 21.5707H48.5637C48.6221 22.2776 48.8678 22.8314 49.3005 23.232C49.7335 23.6326 50.2654 23.8329 50.897 23.8329C51.8095 23.8329 52.4587 23.4382 52.8445 22.6488H55.4936C55.2131 23.5914 54.6752 24.369 53.8795 24.9817C53.0843 25.5826 52.1077 25.8831 50.9498 25.8831C50.0141 25.8831 49.172 25.6769 48.4236 25.2645C47.6868 24.8403 47.1076 24.2453 46.6866 23.4794C46.2772 22.7136 46.0726 21.8299 46.0726 20.8284C46.0726 19.8151 46.2772 18.9255 46.6866 18.1596C47.096 17.3938 47.6691 16.8046 48.406 16.3922C49.1428 15.9799 49.9909 15.7737 50.9498 15.7737C51.874 15.7737 52.6984 15.974 53.4236 16.3746C54.1605 16.7752 54.7276 17.3466 55.1254 18.0889C55.5348 18.8195 55.7394 19.6619 55.7394 20.6163ZM53.1955 19.9093C53.1839 19.2731 52.9558 18.7664 52.5111 18.3894C52.0669 18.0006 51.523 17.8061 50.8798 17.8061C50.2714 17.8061 49.7568 17.9947 49.3357 18.3717C48.9263 18.737 48.6749 19.2495 48.5813 19.9093H53.1955Z" stroke="white" stroke-width="0.4"/>
</g>
<mask id="mask8_549_2440" style="mask-type:luminance" maskUnits="userSpaceOnUse" x="36" y="11" width="75" height="16">
<path d="M110.012 11.4904H36.2175V26.2073H110.012V11.4904Z" fill="white"/>
<path d="M81.4815 14.3597C81.7737 14.6307 82.1363 14.7662 82.5689 14.7662C83.0019 14.7662 83.3586 14.6307 83.6391 14.3597C83.9317 14.0769 84.0778 13.7293 84.0778 13.3169C84.0778 12.9045 83.9317 12.5628 83.6391 12.2919C83.3586 12.0091 83.0019 11.8677 82.5689 11.8677C82.1363 11.8677 81.7737 12.0091 81.4815 12.2919C81.2005 12.5628 81.0604 12.9045 81.0604 13.3169C81.0604 13.7293 81.2005 14.0769 81.4815 14.3597Z" fill="black"/>
<path d="M83.7796 25.724V15.9327H81.3234V25.724H83.7796Z" fill="black"/>
<path d="M88.5042 17.9652V22.7017C88.5042 23.0317 88.5803 23.2732 88.732 23.4263C88.8961 23.5677 89.165 23.6384 89.5392 23.6384H90.6795V25.724H89.1358C87.0654 25.724 86.0304 24.7106 86.0304 22.6841V17.9652H84.8726V15.9327H86.0304V13.5114H88.5042V15.9327H90.6795V17.9652H88.5042Z" fill="black"/>
<path fill-rule="evenodd" clip-rule="evenodd" d="M104.517 25.8831C103.581 25.8831 102.739 25.6769 101.99 25.2645C101.242 24.8403 100.651 24.2453 100.219 23.4794C99.7976 22.7136 99.587 21.8299 99.587 20.8284C99.587 19.8269 99.8032 18.9432 100.236 18.1773C100.68 17.4114 101.283 16.8223 102.043 16.4099C102.803 15.9858 103.651 15.7737 104.587 15.7737C105.523 15.7737 106.371 15.9858 107.131 16.4099C107.891 16.8223 108.488 17.4114 108.92 18.1773C109.365 18.9432 109.587 19.8269 109.587 20.8284C109.587 21.8299 109.359 22.7136 108.903 23.4794C108.459 24.2453 107.85 24.8403 107.078 25.2645C106.318 25.6769 105.464 25.8831 104.517 25.8831ZM104.517 23.7269C104.961 23.7269 105.376 23.6208 105.763 23.4087C106.16 23.1849 106.476 22.855 106.71 22.419C106.944 21.983 107.061 21.4529 107.061 20.8284C107.061 19.8975 106.815 19.1847 106.324 18.6898C105.844 18.1832 105.254 17.9299 104.552 17.9299C103.85 17.9299 103.26 18.1832 102.78 18.6898C102.312 19.1847 102.078 19.8975 102.078 20.8284C102.078 21.7592 102.306 22.4779 102.762 22.9845C103.23 23.4794 103.815 23.7269 104.517 23.7269Z" fill="black"/>
<path d="M75.5718 15.7913C76.7649 15.7913 77.7239 16.1624 78.4491 16.9047C79.1859 17.6352 79.5545 18.6603 79.5545 19.9799V25.7239H77.0983V20.3157C77.0983 19.5499 76.9054 18.9667 76.5192 18.5661C76.1334 18.1537 75.6071 17.9475 74.9403 17.9475C74.2735 17.9475 73.7416 18.1537 73.3438 18.5661C72.9579 18.9667 72.765 19.5499 72.765 20.3157V25.7239H70.3088V20.3157C70.3088 19.5499 70.1155 18.9667 69.7297 18.5661C69.3439 18.1537 68.8176 17.9475 68.1508 17.9475C67.4724 17.9475 66.9345 18.1537 66.5367 18.5661C66.1508 18.9667 65.9576 19.5499 65.9576 20.3157V25.7239H63.5013V15.7913H65.9576V17.1168C66.2733 16.7044 66.6771 16.3804 67.1682 16.1447C67.6713 15.9091 68.2208 15.7913 68.8176 15.7913C69.5776 15.7913 70.256 15.9562 70.8527 16.2861C71.4491 16.6043 71.911 17.0638 72.2387 17.6647C72.5545 17.0991 73.0104 16.6455 73.6071 16.3038C74.2151 15.9621 74.8702 15.7913 75.5718 15.7913Z" fill="black"/>
<path d="M60.6548 16.2331C60.1518 16.5277 59.7423 16.9342 59.4265 17.4526V15.9327H56.9703V25.7239H59.4265V20.846C59.4265 19.9387 59.6195 19.3025 60.0057 18.9372C60.4031 18.5719 60.9878 18.3893 61.7599 18.3893H62.409V15.7913C61.7543 15.7913 61.1691 15.9385 60.6548 16.2331Z" fill="black"/>
<path fill-rule="evenodd" clip-rule="evenodd" d="M55.7394 20.6163C55.7394 20.9698 55.7162 21.2879 55.6693 21.5707H48.5637C48.6221 22.2776 48.8678 22.8314 49.3005 23.232C49.7335 23.6326 50.2654 23.8329 50.897 23.8329C51.8095 23.8329 52.4587 23.4382 52.8445 22.6488H55.4936C55.2131 23.5914 54.6752 24.369 53.8795 24.9817C53.0843 25.5826 52.1077 25.8831 50.9498 25.8831C50.0141 25.8831 49.172 25.6769 48.4236 25.2645C47.6868 24.8403 47.1076 24.2453 46.6866 23.4794C46.2772 22.7136 46.0726 21.8299 46.0726 20.8284C46.0726 19.8151 46.2772 18.9255 46.6866 18.1596C47.096 17.3938 47.6691 16.8046 48.406 16.3922C49.1428 15.9799 49.9909 15.7737 50.9498 15.7737C51.874 15.7737 52.6984 15.974 53.4236 16.3746C54.1605 16.7752 54.7276 17.3466 55.1254 18.0889C55.5348 18.8195 55.7394 19.6619 55.7394 20.6163ZM53.1955 19.9093C53.1839 19.2731 52.9558 18.7664 52.5111 18.3894C52.0669 18.0006 51.523 17.8061 50.8798 17.8061C50.2714 17.8061 49.7568 17.9947 49.3357 18.3717C48.9263 18.737 48.6749 19.2495 48.5813 19.9093H53.1955Z" fill="black"/>
<path fill-rule="evenodd" clip-rule="evenodd" d="M45.0486 19.061C45.3643 18.4836 45.522 17.8651 45.522 17.2052C45.522 16.4747 45.3527 15.8208 45.0133 15.2434C44.686 14.6661 44.1889 14.2125 43.5221 13.8826C42.8553 13.5526 42.0484 13.3877 41.1011 13.3877H36.5922V25.724H39.0483V20.9874H41.1011C42.1069 20.9874 42.9374 20.8107 43.5921 20.4572C44.2589 20.1037 44.7444 19.6383 45.0486 19.061ZM42.5047 18.5308C42.1769 18.8371 41.6742 18.9903 40.9958 18.9903H39.0483V15.4025H40.9958C42.329 15.4025 42.9958 16.0034 42.9958 17.2052C42.9958 17.7708 42.8321 18.2126 42.5047 18.5308Z" fill="black"/>
<path d="M97.1256 14.7662C96.6929 14.7662 96.3303 14.6307 96.0377 14.3597C95.7572 14.0769 95.6167 13.7293 95.6167 13.3169C95.6167 12.9045 95.7572 12.5628 96.0377 12.2919C96.3303 12.0091 96.6929 11.8677 97.1256 11.8677C97.5582 11.8677 97.9148 12.0091 98.1958 12.2919C98.488 12.5628 98.6344 12.9045 98.6344 13.3169C98.6344 13.7293 98.488 14.0769 98.1958 14.3597C97.9148 14.6307 97.5582 14.7662 97.1256 14.7662Z" fill="black"/>
<path d="M98.3358 25.724V15.9327H95.88V25.724H98.3358Z" fill="black"/>
<path d="M93.2796 25.883C92.847 25.883 92.4843 25.7475 92.1918 25.4765C91.9112 25.1937 91.7708 24.8462 91.7708 24.4338C91.7708 24.0214 91.9112 23.6797 92.1918 23.4087C92.4843 23.1259 92.847 22.9845 93.2796 22.9845C93.7126 22.9845 94.0693 23.1259 94.3498 23.4087C94.6424 23.6797 94.7885 24.0214 94.7885 24.4338C94.7885 24.8462 94.6424 25.1937 94.3498 25.4765C94.0693 25.7475 93.7126 25.883 93.2796 25.883Z" fill="black"/>
</mask>
<g mask="url(#mask8_549_2440)">
<path fill-rule="evenodd" clip-rule="evenodd" d="M45.0486 19.061C45.3643 18.4836 45.522 17.8651 45.522 17.2052C45.522 16.4747 45.3527 15.8208 45.0133 15.2434C44.686 14.6661 44.1889 14.2125 43.5221 13.8826C42.8553 13.5526 42.0484 13.3877 41.1011 13.3877H36.5922V25.724H39.0483V20.9874H41.1011C42.1069 20.9874 42.9374 20.8107 43.5921 20.4572C44.2589 20.1037 44.7444 19.6383 45.0486 19.061ZM42.5047 18.5308C42.1769 18.8371 41.6742 18.9903 40.9958 18.9903H39.0483V15.4025H40.9958C42.329 15.4025 42.9958 16.0034 42.9958 17.2052C42.9958 17.7708 42.8321 18.2126 42.5047 18.5308Z" stroke="white" stroke-width="0.4"/>
</g>
<mask id="mask9_549_2440" style="mask-type:luminance" maskUnits="userSpaceOnUse" x="36" y="11" width="75" height="16">
<path d="M110.012 11.4904H36.2175V26.2073H110.012V11.4904Z" fill="white"/>
<path d="M81.4815 14.3597C81.7737 14.6307 82.1363 14.7662 82.5689 14.7662C83.0019 14.7662 83.3586 14.6307 83.6391 14.3597C83.9317 14.0769 84.0778 13.7293 84.0778 13.3169C84.0778 12.9045 83.9317 12.5628 83.6391 12.2919C83.3586 12.0091 83.0019 11.8677 82.5689 11.8677C82.1363 11.8677 81.7737 12.0091 81.4815 12.2919C81.2005 12.5628 81.0604 12.9045 81.0604 13.3169C81.0604 13.7293 81.2005 14.0769 81.4815 14.3597Z" fill="black"/>
<path d="M83.7796 25.724V15.9327H81.3234V25.724H83.7796Z" fill="black"/>
<path d="M88.5042 17.9652V22.7017C88.5042 23.0317 88.5803 23.2732 88.732 23.4263C88.8961 23.5677 89.165 23.6384 89.5392 23.6384H90.6795V25.724H89.1358C87.0654 25.724 86.0304 24.7106 86.0304 22.6841V17.9652H84.8726V15.9327H86.0304V13.5114H88.5042V15.9327H90.6795V17.9652H88.5042Z" fill="black"/>
<path fill-rule="evenodd" clip-rule="evenodd" d="M104.517 25.8831C103.581 25.8831 102.739 25.6769 101.99 25.2645C101.242 24.8403 100.651 24.2453 100.219 23.4794C99.7976 22.7136 99.587 21.8299 99.587 20.8284C99.587 19.8269 99.8032 18.9432 100.236 18.1773C100.68 17.4114 101.283 16.8223 102.043 16.4099C102.803 15.9858 103.651 15.7737 104.587 15.7737C105.523 15.7737 106.371 15.9858 107.131 16.4099C107.891 16.8223 108.488 17.4114 108.92 18.1773C109.365 18.9432 109.587 19.8269 109.587 20.8284C109.587 21.8299 109.359 22.7136 108.903 23.4794C108.459 24.2453 107.85 24.8403 107.078 25.2645C106.318 25.6769 105.464 25.8831 104.517 25.8831ZM104.517 23.7269C104.961 23.7269 105.376 23.6208 105.763 23.4087C106.16 23.1849 106.476 22.855 106.71 22.419C106.944 21.983 107.061 21.4529 107.061 20.8284C107.061 19.8975 106.815 19.1847 106.324 18.6898C105.844 18.1832 105.254 17.9299 104.552 17.9299C103.85 17.9299 103.26 18.1832 102.78 18.6898C102.312 19.1847 102.078 19.8975 102.078 20.8284C102.078 21.7592 102.306 22.4779 102.762 22.9845C103.23 23.4794 103.815 23.7269 104.517 23.7269Z" fill="black"/>
<path d="M75.5718 15.7913C76.7649 15.7913 77.7239 16.1624 78.4491 16.9047C79.1859 17.6352 79.5545 18.6603 79.5545 19.9799V25.7239H77.0983V20.3157C77.0983 19.5499 76.9054 18.9667 76.5192 18.5661C76.1334 18.1537 75.6071 17.9475 74.9403 17.9475C74.2735 17.9475 73.7416 18.1537 73.3438 18.5661C72.9579 18.9667 72.765 19.5499 72.765 20.3157V25.7239H70.3088V20.3157C70.3088 19.5499 70.1155 18.9667 69.7297 18.5661C69.3439 18.1537 68.8176 17.9475 68.1508 17.9475C67.4724 17.9475 66.9345 18.1537 66.5367 18.5661C66.1508 18.9667 65.9576 19.5499 65.9576 20.3157V25.7239H63.5013V15.7913H65.9576V17.1168C66.2733 16.7044 66.6771 16.3804 67.1682 16.1447C67.6713 15.9091 68.2208 15.7913 68.8176 15.7913C69.5776 15.7913 70.256 15.9562 70.8527 16.2861C71.4491 16.6043 71.911 17.0638 72.2387 17.6647C72.5545 17.0991 73.0104 16.6455 73.6071 16.3038C74.2151 15.9621 74.8702 15.7913 75.5718 15.7913Z" fill="black"/>
<path d="M60.6548 16.2331C60.1518 16.5277 59.7423 16.9342 59.4265 17.4526V15.9327H56.9703V25.7239H59.4265V20.846C59.4265 19.9387 59.6195 19.3025 60.0057 18.9372C60.4031 18.5719 60.9878 18.3893 61.7599 18.3893H62.409V15.7913C61.7543 15.7913 61.1691 15.9385 60.6548 16.2331Z" fill="black"/>
<path fill-rule="evenodd" clip-rule="evenodd" d="M55.7394 20.6163C55.7394 20.9698 55.7162 21.2879 55.6693 21.5707H48.5637C48.6221 22.2776 48.8678 22.8314 49.3005 23.232C49.7335 23.6326 50.2654 23.8329 50.897 23.8329C51.8095 23.8329 52.4587 23.4382 52.8445 22.6488H55.4936C55.2131 23.5914 54.6752 24.369 53.8795 24.9817C53.0843 25.5826 52.1077 25.8831 50.9498 25.8831C50.0141 25.8831 49.172 25.6769 48.4236 25.2645C47.6868 24.8403 47.1076 24.2453 46.6866 23.4794C46.2772 22.7136 46.0726 21.8299 46.0726 20.8284C46.0726 19.8151 46.2772 18.9255 46.6866 18.1596C47.096 17.3938 47.6691 16.8046 48.406 16.3922C49.1428 15.9799 49.9909 15.7737 50.9498 15.7737C51.874 15.7737 52.6984 15.974 53.4236 16.3746C54.1605 16.7752 54.7276 17.3466 55.1254 18.0889C55.5348 18.8195 55.7394 19.6619 55.7394 20.6163ZM53.1955 19.9093C53.1839 19.2731 52.9558 18.7664 52.5111 18.3894C52.0669 18.0006 51.523 17.8061 50.8798 17.8061C50.2714 17.8061 49.7568 17.9947 49.3357 18.3717C48.9263 18.737 48.6749 19.2495 48.5813 19.9093H53.1955Z" fill="black"/>
<path fill-rule="evenodd" clip-rule="evenodd" d="M45.0486 19.061C45.3643 18.4836 45.522 17.8651 45.522 17.2052C45.522 16.4747 45.3527 15.8208 45.0133 15.2434C44.686 14.6661 44.1889 14.2125 43.5221 13.8826C42.8553 13.5526 42.0484 13.3877 41.1011 13.3877H36.5922V25.724H39.0483V20.9874H41.1011C42.1069 20.9874 42.9374 20.8107 43.5921 20.4572C44.2589 20.1037 44.7444 19.6383 45.0486 19.061ZM42.5047 18.5308C42.1769 18.8371 41.6742 18.9903 40.9958 18.9903H39.0483V15.4025H40.9958C42.329 15.4025 42.9958 16.0034 42.9958 17.2052C42.9958 17.7708 42.8321 18.2126 42.5047 18.5308Z" fill="black"/>
<path d="M97.1256 14.7662C96.6929 14.7662 96.3303 14.6307 96.0377 14.3597C95.7572 14.0769 95.6167 13.7293 95.6167 13.3169C95.6167 12.9045 95.7572 12.5628 96.0377 12.2919C96.3303 12.0091 96.6929 11.8677 97.1256 11.8677C97.5582 11.8677 97.9148 12.0091 98.1958 12.2919C98.488 12.5628 98.6344 12.9045 98.6344 13.3169C98.6344 13.7293 98.488 14.0769 98.1958 14.3597C97.9148 14.6307 97.5582 14.7662 97.1256 14.7662Z" fill="black"/>
<path d="M98.3358 25.724V15.9327H95.88V25.724H98.3358Z" fill="black"/>
<path d="M93.2796 25.883C92.847 25.883 92.4843 25.7475 92.1918 25.4765C91.9112 25.1937 91.7708 24.8462 91.7708 24.4338C91.7708 24.0214 91.9112 23.6797 92.1918 23.4087C92.4843 23.1259 92.847 22.9845 93.2796 22.9845C93.7126 22.9845 94.0693 23.1259 94.3498 23.4087C94.6424 23.6797 94.7885 24.0214 94.7885 24.4338C94.7885 24.8462 94.6424 25.1937 94.3498 25.4765C94.0693 25.7475 93.7126 25.883 93.2796 25.883Z" fill="black"/>
</mask>
<g mask="url(#mask9_549_2440)">
<path d="M97.1256 14.7662C96.6929 14.7662 96.3303 14.6307 96.0377 14.3597C95.7572 14.0769 95.6167 13.7293 95.6167 13.3169C95.6167 12.9045 95.7572 12.5628 96.0377 12.2919C96.3303 12.0091 96.6929 11.8677 97.1256 11.8677C97.5582 11.8677 97.9148 12.0091 98.1958 12.2919C98.488 12.5628 98.6344 12.9045 98.6344 13.3169C98.6344 13.7293 98.488 14.0769 98.1958 14.3597C97.9148 14.6307 97.5582 14.7662 97.1256 14.7662Z" stroke="white" stroke-width="0.4"/>
</g>
<mask id="mask10_549_2440" style="mask-type:luminance" maskUnits="userSpaceOnUse" x="36" y="11" width="75" height="16">
<path d="M110.012 11.4904H36.2175V26.2073H110.012V11.4904Z" fill="white"/>
<path d="M81.4815 14.3597C81.7737 14.6307 82.1363 14.7662 82.5689 14.7662C83.0019 14.7662 83.3586 14.6307 83.6391 14.3597C83.9317 14.0769 84.0778 13.7293 84.0778 13.3169C84.0778 12.9045 83.9317 12.5628 83.6391 12.2919C83.3586 12.0091 83.0019 11.8677 82.5689 11.8677C82.1363 11.8677 81.7737 12.0091 81.4815 12.2919C81.2005 12.5628 81.0604 12.9045 81.0604 13.3169C81.0604 13.7293 81.2005 14.0769 81.4815 14.3597Z" fill="black"/>
<path d="M83.7796 25.724V15.9327H81.3234V25.724H83.7796Z" fill="black"/>
<path d="M88.5042 17.9652V22.7017C88.5042 23.0317 88.5803 23.2732 88.732 23.4263C88.8961 23.5677 89.165 23.6384 89.5392 23.6384H90.6795V25.724H89.1358C87.0654 25.724 86.0304 24.7106 86.0304 22.6841V17.9652H84.8726V15.9327H86.0304V13.5114H88.5042V15.9327H90.6795V17.9652H88.5042Z" fill="black"/>
<path fill-rule="evenodd" clip-rule="evenodd" d="M104.517 25.8831C103.581 25.8831 102.739 25.6769 101.99 25.2645C101.242 24.8403 100.651 24.2453 100.219 23.4794C99.7976 22.7136 99.587 21.8299 99.587 20.8284C99.587 19.8269 99.8032 18.9432 100.236 18.1773C100.68 17.4114 101.283 16.8223 102.043 16.4099C102.803 15.9858 103.651 15.7737 104.587 15.7737C105.523 15.7737 106.371 15.9858 107.131 16.4099C107.891 16.8223 108.488 17.4114 108.92 18.1773C109.365 18.9432 109.587 19.8269 109.587 20.8284C109.587 21.8299 109.359 22.7136 108.903 23.4794C108.459 24.2453 107.85 24.8403 107.078 25.2645C106.318 25.6769 105.464 25.8831 104.517 25.8831ZM104.517 23.7269C104.961 23.7269 105.376 23.6208 105.763 23.4087C106.16 23.1849 106.476 22.855 106.71 22.419C106.944 21.983 107.061 21.4529 107.061 20.8284C107.061 19.8975 106.815 19.1847 106.324 18.6898C105.844 18.1832 105.254 17.9299 104.552 17.9299C103.85 17.9299 103.26 18.1832 102.78 18.6898C102.312 19.1847 102.078 19.8975 102.078 20.8284C102.078 21.7592 102.306 22.4779 102.762 22.9845C103.23 23.4794 103.815 23.7269 104.517 23.7269Z" fill="black"/>
<path d="M75.5718 15.7913C76.7649 15.7913 77.7239 16.1624 78.4491 16.9047C79.1859 17.6352 79.5545 18.6603 79.5545 19.9799V25.7239H77.0983V20.3157C77.0983 19.5499 76.9054 18.9667 76.5192 18.5661C76.1334 18.1537 75.6071 17.9475 74.9403 17.9475C74.2735 17.9475 73.7416 18.1537 73.3438 18.5661C72.9579 18.9667 72.765 19.5499 72.765 20.3157V25.7239H70.3088V20.3157C70.3088 19.5499 70.1155 18.9667 69.7297 18.5661C69.3439 18.1537 68.8176 17.9475 68.1508 17.9475C67.4724 17.9475 66.9345 18.1537 66.5367 18.5661C66.1508 18.9667 65.9576 19.5499 65.9576 20.3157V25.7239H63.5013V15.7913H65.9576V17.1168C66.2733 16.7044 66.6771 16.3804 67.1682 16.1447C67.6713 15.9091 68.2208 15.7913 68.8176 15.7913C69.5776 15.7913 70.256 15.9562 70.8527 16.2861C71.4491 16.6043 71.911 17.0638 72.2387 17.6647C72.5545 17.0991 73.0104 16.6455 73.6071 16.3038C74.2151 15.9621 74.8702 15.7913 75.5718 15.7913Z" fill="black"/>
<path d="M60.6548 16.2331C60.1518 16.5277 59.7423 16.9342 59.4265 17.4526V15.9327H56.9703V25.7239H59.4265V20.846C59.4265 19.9387 59.6195 19.3025 60.0057 18.9372C60.4031 18.5719 60.9878 18.3893 61.7599 18.3893H62.409V15.7913C61.7543 15.7913 61.1691 15.9385 60.6548 16.2331Z" fill="black"/>
<path fill-rule="evenodd" clip-rule="evenodd" d="M55.7394 20.6163C55.7394 20.9698 55.7162 21.2879 55.6693 21.5707H48.5637C48.6221 22.2776 48.8678 22.8314 49.3005 23.232C49.7335 23.6326 50.2654 23.8329 50.897 23.8329C51.8095 23.8329 52.4587 23.4382 52.8445 22.6488H55.4936C55.2131 23.5914 54.6752 24.369 53.8795 24.9817C53.0843 25.5826 52.1077 25.8831 50.9498 25.8831C50.0141 25.8831 49.172 25.6769 48.4236 25.2645C47.6868 24.8403 47.1076 24.2453 46.6866 23.4794C46.2772 22.7136 46.0726 21.8299 46.0726 20.8284C46.0726 19.8151 46.2772 18.9255 46.6866 18.1596C47.096 17.3938 47.6691 16.8046 48.406 16.3922C49.1428 15.9799 49.9909 15.7737 50.9498 15.7737C51.874 15.7737 52.6984 15.974 53.4236 16.3746C54.1605 16.7752 54.7276 17.3466 55.1254 18.0889C55.5348 18.8195 55.7394 19.6619 55.7394 20.6163ZM53.1955 19.9093C53.1839 19.2731 52.9558 18.7664 52.5111 18.3894C52.0669 18.0006 51.523 17.8061 50.8798 17.8061C50.2714 17.8061 49.7568 17.9947 49.3357 18.3717C48.9263 18.737 48.6749 19.2495 48.5813 19.9093H53.1955Z" fill="black"/>
<path fill-rule="evenodd" clip-rule="evenodd" d="M45.0486 19.061C45.3643 18.4836 45.522 17.8651 45.522 17.2052C45.522 16.4747 45.3527 15.8208 45.0133 15.2434C44.686 14.6661 44.1889 14.2125 43.5221 13.8826C42.8553 13.5526 42.0484 13.3877 41.1011 13.3877H36.5922V25.724H39.0483V20.9874H41.1011C42.1069 20.9874 42.9374 20.8107 43.5921 20.4572C44.2589 20.1037 44.7444 19.6383 45.0486 19.061ZM42.5047 18.5308C42.1769 18.8371 41.6742 18.9903 40.9958 18.9903H39.0483V15.4025H40.9958C42.329 15.4025 42.9958 16.0034 42.9958 17.2052C42.9958 17.7708 42.8321 18.2126 42.5047 18.5308Z" fill="black"/>
<path d="M97.1256 14.7662C96.6929 14.7662 96.3303 14.6307 96.0377 14.3597C95.7572 14.0769 95.6167 13.7293 95.6167 13.3169C95.6167 12.9045 95.7572 12.5628 96.0377 12.2919C96.3303 12.0091 96.6929 11.8677 97.1256 11.8677C97.5582 11.8677 97.9148 12.0091 98.1958 12.2919C98.488 12.5628 98.6344 12.9045 98.6344 13.3169C98.6344 13.7293 98.488 14.0769 98.1958 14.3597C97.9148 14.6307 97.5582 14.7662 97.1256 14.7662Z" fill="black"/>
<path d="M98.3358 25.724V15.9327H95.88V25.724H98.3358Z" fill="black"/>
<path d="M93.2796 25.883C92.847 25.883 92.4843 25.7475 92.1918 25.4765C91.9112 25.1937 91.7708 24.8462 91.7708 24.4338C91.7708 24.0214 91.9112 23.6797 92.1918 23.4087C92.4843 23.1259 92.847 22.9845 93.2796 22.9845C93.7126 22.9845 94.0693 23.1259 94.3498 23.4087C94.6424 23.6797 94.7885 24.0214 94.7885 24.4338C94.7885 24.8462 94.6424 25.1937 94.3498 25.4765C94.0693 25.7475 93.7126 25.883 93.2796 25.883Z" fill="black"/>
</mask>
<g mask="url(#mask10_549_2440)">
<path d="M98.3358 25.724V15.9327H95.88V25.724H98.3358Z" stroke="white" stroke-width="0.4"/>
</g>
<mask id="mask11_549_2440" style="mask-type:luminance" maskUnits="userSpaceOnUse" x="36" y="11" width="75" height="16">
<path d="M110.012 11.4904H36.2175V26.2073H110.012V11.4904Z" fill="white"/>
<path d="M81.4815 14.3597C81.7737 14.6307 82.1363 14.7662 82.5689 14.7662C83.0019 14.7662 83.3586 14.6307 83.6391 14.3597C83.9317 14.0769 84.0778 13.7293 84.0778 13.3169C84.0778 12.9045 83.9317 12.5628 83.6391 12.2919C83.3586 12.0091 83.0019 11.8677 82.5689 11.8677C82.1363 11.8677 81.7737 12.0091 81.4815 12.2919C81.2005 12.5628 81.0604 12.9045 81.0604 13.3169C81.0604 13.7293 81.2005 14.0769 81.4815 14.3597Z" fill="black"/>
<path d="M83.7796 25.724V15.9327H81.3234V25.724H83.7796Z" fill="black"/>
<path d="M88.5042 17.9652V22.7017C88.5042 23.0317 88.5803 23.2732 88.732 23.4263C88.8961 23.5677 89.165 23.6384 89.5392 23.6384H90.6795V25.724H89.1358C87.0654 25.724 86.0304 24.7106 86.0304 22.6841V17.9652H84.8726V15.9327H86.0304V13.5114H88.5042V15.9327H90.6795V17.9652H88.5042Z" fill="black"/>
<path fill-rule="evenodd" clip-rule="evenodd" d="M104.517 25.8831C103.581 25.8831 102.739 25.6769 101.99 25.2645C101.242 24.8403 100.651 24.2453 100.219 23.4794C99.7976 22.7136 99.587 21.8299 99.587 20.8284C99.587 19.8269 99.8032 18.9432 100.236 18.1773C100.68 17.4114 101.283 16.8223 102.043 16.4099C102.803 15.9858 103.651 15.7737 104.587 15.7737C105.523 15.7737 106.371 15.9858 107.131 16.4099C107.891 16.8223 108.488 17.4114 108.92 18.1773C109.365 18.9432 109.587 19.8269 109.587 20.8284C109.587 21.8299 109.359 22.7136 108.903 23.4794C108.459 24.2453 107.85 24.8403 107.078 25.2645C106.318 25.6769 105.464 25.8831 104.517 25.8831ZM104.517 23.7269C104.961 23.7269 105.376 23.6208 105.763 23.4087C106.16 23.1849 106.476 22.855 106.71 22.419C106.944 21.983 107.061 21.4529 107.061 20.8284C107.061 19.8975 106.815 19.1847 106.324 18.6898C105.844 18.1832 105.254 17.9299 104.552 17.9299C103.85 17.9299 103.26 18.1832 102.78 18.6898C102.312 19.1847 102.078 19.8975 102.078 20.8284C102.078 21.7592 102.306 22.4779 102.762 22.9845C103.23 23.4794 103.815 23.7269 104.517 23.7269Z" fill="black"/>
<path d="M75.5718 15.7913C76.7649 15.7913 77.7239 16.1624 78.4491 16.9047C79.1859 17.6352 79.5545 18.6603 79.5545 19.9799V25.7239H77.0983V20.3157C77.0983 19.5499 76.9054 18.9667 76.5192 18.5661C76.1334 18.1537 75.6071 17.9475 74.9403 17.9475C74.2735 17.9475 73.7416 18.1537 73.3438 18.5661C72.9579 18.9667 72.765 19.5499 72.765 20.3157V25.7239H70.3088V20.3157C70.3088 19.5499 70.1155 18.9667 69.7297 18.5661C69.3439 18.1537 68.8176 17.9475 68.1508 17.9475C67.4724 17.9475 66.9345 18.1537 66.5367 18.5661C66.1508 18.9667 65.9576 19.5499 65.9576 20.3157V25.7239H63.5013V15.7913H65.9576V17.1168C66.2733 16.7044 66.6771 16.3804 67.1682 16.1447C67.6713 15.9091 68.2208 15.7913 68.8176 15.7913C69.5776 15.7913 70.256 15.9562 70.8527 16.2861C71.4491 16.6043 71.911 17.0638 72.2387 17.6647C72.5545 17.0991 73.0104 16.6455 73.6071 16.3038C74.2151 15.9621 74.8702 15.7913 75.5718 15.7913Z" fill="black"/>
<path d="M60.6548 16.2331C60.1518 16.5277 59.7423 16.9342 59.4265 17.4526V15.9327H56.9703V25.7239H59.4265V20.846C59.4265 19.9387 59.6195 19.3025 60.0057 18.9372C60.4031 18.5719 60.9878 18.3893 61.7599 18.3893H62.409V15.7913C61.7543 15.7913 61.1691 15.9385 60.6548 16.2331Z" fill="black"/>
<path fill-rule="evenodd" clip-rule="evenodd" d="M55.7394 20.6163C55.7394 20.9698 55.7162 21.2879 55.6693 21.5707H48.5637C48.6221 22.2776 48.8678 22.8314 49.3005 23.232C49.7335 23.6326 50.2654 23.8329 50.897 23.8329C51.8095 23.8329 52.4587 23.4382 52.8445 22.6488H55.4936C55.2131 23.5914 54.6752 24.369 53.8795 24.9817C53.0843 25.5826 52.1077 25.8831 50.9498 25.8831C50.0141 25.8831 49.172 25.6769 48.4236 25.2645C47.6868 24.8403 47.1076 24.2453 46.6866 23.4794C46.2772 22.7136 46.0726 21.8299 46.0726 20.8284C46.0726 19.8151 46.2772 18.9255 46.6866 18.1596C47.096 17.3938 47.6691 16.8046 48.406 16.3922C49.1428 15.9799 49.9909 15.7737 50.9498 15.7737C51.874 15.7737 52.6984 15.974 53.4236 16.3746C54.1605 16.7752 54.7276 17.3466 55.1254 18.0889C55.5348 18.8195 55.7394 19.6619 55.7394 20.6163ZM53.1955 19.9093C53.1839 19.2731 52.9558 18.7664 52.5111 18.3894C52.0669 18.0006 51.523 17.8061 50.8798 17.8061C50.2714 17.8061 49.7568 17.9947 49.3357 18.3717C48.9263 18.737 48.6749 19.2495 48.5813 19.9093H53.1955Z" fill="black"/>
<path fill-rule="evenodd" clip-rule="evenodd" d="M45.0486 19.061C45.3643 18.4836 45.522 17.8651 45.522 17.2052C45.522 16.4747 45.3527 15.8208 45.0133 15.2434C44.686 14.6661 44.1889 14.2125 43.5221 13.8826C42.8553 13.5526 42.0484 13.3877 41.1011 13.3877H36.5922V25.724H39.0483V20.9874H41.1011C42.1069 20.9874 42.9374 20.8107 43.5921 20.4572C44.2589 20.1037 44.7444 19.6383 45.0486 19.061ZM42.5047 18.5308C42.1769 18.8371 41.6742 18.9903 40.9958 18.9903H39.0483V15.4025H40.9958C42.329 15.4025 42.9958 16.0034 42.9958 17.2052C42.9958 17.7708 42.8321 18.2126 42.5047 18.5308Z" fill="black"/>
<path d="M97.1256 14.7662C96.6929 14.7662 96.3303 14.6307 96.0377 14.3597C95.7572 14.0769 95.6167 13.7293 95.6167 13.3169C95.6167 12.9045 95.7572 12.5628 96.0377 12.2919C96.3303 12.0091 96.6929 11.8677 97.1256 11.8677C97.5582 11.8677 97.9148 12.0091 98.1958 12.2919C98.488 12.5628 98.6344 12.9045 98.6344 13.3169C98.6344 13.7293 98.488 14.0769 98.1958 14.3597C97.9148 14.6307 97.5582 14.7662 97.1256 14.7662Z" fill="black"/>
<path d="M98.3358 25.724V15.9327H95.88V25.724H98.3358Z" fill="black"/>
<path d="M93.2796 25.883C92.847 25.883 92.4843 25.7475 92.1918 25.4765C91.9112 25.1937 91.7708 24.8462 91.7708 24.4338C91.7708 24.0214 91.9112 23.6797 92.1918 23.4087C92.4843 23.1259 92.847 22.9845 93.2796 22.9845C93.7126 22.9845 94.0693 23.1259 94.3498 23.4087C94.6424 23.6797 94.7885 24.0214 94.7885 24.4338C94.7885 24.8462 94.6424 25.1937 94.3498 25.4765C94.0693 25.7475 93.7126 25.883 93.2796 25.883Z" fill="black"/>
</mask>
<g mask="url(#mask11_549_2440)">
<path d="M93.2796 25.883C92.847 25.883 92.4843 25.7475 92.1918 25.4765C91.9112 25.1937 91.7708 24.8462 91.7708 24.4338C91.7708 24.0214 91.9112 23.6797 92.1918 23.4087C92.4843 23.1259 92.847 22.9845 93.2796 22.9845C93.7126 22.9845 94.0693 23.1259 94.3498 23.4087C94.6424 23.6797 94.7885 24.0214 94.7885 24.4338C94.7885 24.8462 94.6424 25.1937 94.3498 25.4765C94.0693 25.7475 93.7126 25.883 93.2796 25.883Z" stroke="white" stroke-width="0.4"/>
</g>
<defs>
<linearGradient id="paint0_linear_549_2440" x1="17.3569" y1="37.6434" x2="17.3569" y2="8.26067" gradientUnits="userSpaceOnUse">
<stop stop-color="#AA52E5"/>
<stop offset="1" stop-color="#FF9469"/>
</linearGradient>
</defs>
</svg>
