<svg width="103" height="24" viewBox="0 0 103 24" fill="none" xmlns="http://www.w3.org/2000/svg">
<path d="M25.92 0L19.92 6H0V12H13.92L7.91999 18H0V24H1.92L7.91999 18H27.84V12H13.92L19.92 6H27.84V0H25.92Z" fill="black"/>
<path d="M54.1462 5.90405V18.0001H57.3862V5.90405H54.1462Z" fill="black"/>
<path d="M54.103 4.34875H57.4078V1.04395H54.103V4.34875Z" fill="black"/>
<path fill-rule="evenodd" clip-rule="evenodd" d="M45.984 18.4535C49.4616 18.4535 52.032 15.9047 52.032 12.0383C52.032 8.21514 49.44 5.53674 45.984 5.53674C43.9104 5.53674 42.1824 6.50874 41.0376 8.38794V5.90394H37.7976V22.6439H41.0376V15.8399C42.0312 17.5031 43.8672 18.4535 45.984 18.4535ZM40.9296 12.1463V11.9303C40.9296 9.64074 42.4848 8.10714 44.8176 8.10714C47.172 8.10714 48.7056 9.66234 48.7056 11.9951C48.7056 14.3279 47.172 15.8831 44.8176 15.8831C42.5064 15.8831 40.9296 14.3927 40.9296 12.1463Z" fill="black"/>
<path d="M64.5881 18.0001L59.145 5.90405H62.8385L66.597 15.1489L70.3338 5.90405L73.9409 5.92565L68.4978 18.0001H64.5881Z" fill="black"/>
<path fill-rule="evenodd" clip-rule="evenodd" d="M81.5971 18.4535C86.0035 18.4535 88.8331 15.8615 88.8331 12.0167C88.8331 8.10714 86.0035 5.53674 81.5971 5.53674C77.2123 5.53674 74.3611 8.10714 74.3611 12.0167C74.3611 15.8615 77.1907 18.4535 81.5971 18.4535ZM77.6875 12.0167C77.6875 9.64074 79.2859 8.12874 81.5971 8.12874C83.9083 8.12874 85.5067 9.64074 85.5067 12.0167C85.5067 14.3495 83.9083 15.8399 81.5971 15.8399C79.2859 15.8399 77.6875 14.3495 77.6875 12.0167Z" fill="black"/>
<path d="M97.8453 18.4536C94.5621 18.4536 92.4237 16.6392 92.4237 14.2632V8.38805H89.8101V5.90405H92.4885V4.00325L95.6637 1.80005V5.90405H101.431V8.38805H95.6637V13.1832C95.6637 14.8896 96.7869 15.7752 98.8389 15.7752C99.5733 15.7752 100.675 15.6672 101.949 15.192L101.517 17.6976C100.329 18.1944 99.0981 18.4536 97.8453 18.4536Z" fill="black"/>
</svg>
