<svg width="119" height="33" viewBox="0 0 119 33" fill="none" xmlns="http://www.w3.org/2000/svg">
<path d="M73.1997 24.3564C74.1894 24.3564 75.0018 25.2028 75.0018 26.2993C75.0018 27.3959 74.1894 28.2423 73.1997 28.2423C72.6605 28.2423 72.2692 28.0436 72.0033 27.705V28.1392H71.0505V22.9875H72.0033V24.8937C72.2692 24.5551 72.6605 24.3564 73.1997 24.3564ZM73.0225 27.337C73.6133 27.337 74.0491 26.9176 74.0491 26.2993C74.0491 25.6811 73.6133 25.2616 73.0225 25.2616C72.439 25.2616 72.0033 25.6811 72.0033 26.2993C72.0033 26.9176 72.439 27.337 73.0225 27.337Z" fill="#12131A"/>
<path d="M77.9373 24.4592H78.9565L77.6123 28.139C77.2283 29.1989 76.6005 29.6625 75.6626 29.611V28.7278C76.1869 28.7352 76.4527 28.5145 76.63 28.0213L75.116 24.4592H76.1574L77.1175 26.9321L77.9373 24.4592Z" fill="#12131A"/>
<path d="M83.0657 28.2421C82.0096 28.2421 81.3154 27.7343 81.0347 26.9689L81.9061 26.4611C82.0909 26.9394 82.4527 27.2485 83.0953 27.2485C83.7082 27.2485 83.9224 26.991 83.9224 26.7039C83.9224 26.3212 83.5753 26.174 82.8072 25.9533C82.017 25.7251 81.2489 25.394 81.2489 24.4151C81.2489 23.4436 82.0613 22.8843 82.9475 22.8843C83.7969 22.8843 84.4468 23.3185 84.7939 24.0398L83.9372 24.5328C83.7526 24.1428 83.4719 23.8705 82.9475 23.8705C82.5192 23.8705 82.2681 24.0913 82.2681 24.3857C82.2681 24.7022 82.4675 24.8714 83.2503 25.1069C84.0702 25.3645 84.9416 25.6368 84.9416 26.6892C84.9416 27.6533 84.1661 28.2421 83.0657 28.2421Z" fill="#12131A"/>
<path d="M86.5895 27.1678H88.7681V28.1392H85.5703V22.9875H88.7313V23.9589H86.5895V25.0555H88.5466V26.0123H86.5895V27.1678Z" fill="#12131A"/>
<path d="M94.169 28.1392L93.1277 26.3509H92.3522V28.1392H91.333V22.9875H93.401C94.3537 22.9875 95.1218 23.7528 95.1218 24.695C95.1218 25.3425 94.7156 25.9239 94.1247 26.1963L95.2695 28.1392H94.169ZM92.3522 23.9369V25.4604H93.401C93.7849 25.4604 94.1026 25.1218 94.1026 24.695C94.1026 24.268 93.7849 23.9369 93.401 23.9369H92.3522Z" fill="#12131A"/>
<path d="M98.4443 24.4592H99.3971V28.139H98.4443V27.7048C98.1784 28.036 97.7797 28.2421 97.2405 28.2421C96.2583 28.2421 95.4458 27.3957 95.4458 26.2991C95.4458 25.2026 96.2583 24.3562 97.2405 24.3562C97.7797 24.3562 98.1784 24.5623 98.4443 24.8935V24.4592ZM97.4177 27.3368C98.0086 27.3368 98.4443 26.9174 98.4443 26.2991C98.4443 25.6809 98.0086 25.2615 97.4177 25.2615C96.8344 25.2615 96.3985 25.6809 96.3985 26.2991C96.3985 26.9174 96.8344 27.3368 97.4177 27.3368Z" fill="#12131A"/>
<path d="M102.314 24.3562C103.097 24.3562 103.71 24.9008 103.71 25.8796V28.139H102.757V25.9974C102.757 25.4969 102.455 25.2393 102.026 25.2393C101.561 25.2393 101.214 25.5117 101.214 26.152V28.139H100.261V24.4592H101.214V24.8714C101.435 24.5402 101.819 24.3562 102.314 24.3562Z" fill="#12131A"/>
<path d="M107.928 28.1392H106.821L105.476 26.4686V28.1392H104.524V22.9875H105.476V26.0785L106.747 24.4594H107.884L106.4 26.2773L107.928 28.1392Z" fill="#12131A"/>
<path d="M108.876 24.0178C108.559 24.0178 108.293 23.7528 108.293 23.4363C108.293 23.1199 108.559 22.8477 108.876 22.8477C109.201 22.8477 109.467 23.1199 109.467 23.4363C109.467 23.7528 109.201 24.0178 108.876 24.0178ZM108.404 28.1391V24.4593H109.357V28.1391H108.404Z" fill="#12131A"/>
<path d="M112.282 24.3562C113.065 24.3562 113.678 24.9008 113.678 25.8796V28.139H112.725V25.9974C112.725 25.4969 112.422 25.2393 111.994 25.2393C111.528 25.2393 111.181 25.5117 111.181 26.152V28.139H110.229V24.4592H111.181V24.8714C111.403 24.5402 111.787 24.3562 112.282 24.3562Z" fill="#12131A"/>
<path d="M117.32 24.4592H118.25V27.9624C118.25 29.1694 117.298 29.714 116.323 29.714C115.532 29.714 114.897 29.4122 114.572 28.8162L115.385 28.3525C115.54 28.6396 115.784 28.8677 116.352 28.8677C116.951 28.8677 117.32 28.5438 117.32 27.9624V27.5649C117.061 27.9109 116.662 28.1244 116.138 28.1244C115.089 28.1244 114.299 27.278 114.299 26.2402C114.299 25.21 115.089 24.3562 116.138 24.3562C116.662 24.3562 117.061 24.5697 117.32 24.9155V24.4592ZM116.286 27.2485C116.884 27.2485 117.32 26.829 117.32 26.2402C117.32 25.6588 116.884 25.2393 116.286 25.2393C115.688 25.2393 115.252 25.6588 115.252 26.2402C115.252 26.829 115.688 27.2485 116.286 27.2485Z" fill="#12131A"/>
<path d="M3.68701 26.3506C3.9828 25.8418 4.79281 24.4629 5.60107 23.0865C6.34994 21.8112 7.07131 20.5827 7.30658 20.1781C8.15125 18.7253 10.2389 18.7577 11.753 18.7813C11.9882 18.7849 12.2096 18.7883 12.4103 18.786L13.8377 18.7787L10.4041 24.6844C9.82674 25.6774 8.76986 26.2997 7.61553 26.3264L6.56743 26.3506H3.68701Z" fill="#FFBC97"/>
<path d="M19.6346 17.1406L21.6158 13.7964L17.8926 13.8145H17.8922H15.1289C10.7063 13.8145 9.28473 16.5116 8.34137 18.3013C8.21423 18.5426 8.09573 18.7674 7.97977 18.9669C7.60388 19.6422 7.3064 20.1781 7.3064 20.1781C8.15108 18.7254 10.2388 18.7577 11.7529 18.7813C11.988 18.7849 12.2094 18.7883 12.4101 18.7859L13.8375 18.7787L16.8034 18.7603C17.9685 18.753 19.0439 18.1379 19.6346 17.1406Z" fill="#FF9052"/>
<path d="M2.44178 0.108887C2.73758 0.617645 3.53514 2.0037 4.33136 3.38698C5.06911 4.66865 5.77978 5.90323 6.01503 6.30791C6.85972 7.76071 5.78756 9.5399 5.01002 10.8302C4.88925 11.0306 4.77558 11.2193 4.67731 11.3931L3.96992 12.6243L0.536298 6.71856C-0.0410272 5.72555 -0.0553053 4.50552 0.498629 3.49945L1.00158 2.58602L2.44178 0.108887Z" fill="#93E1C1"/>
<path d="M7.1343 8.13658C6.98747 7.90659 6.85067 7.69229 6.73471 7.49283C6.33359 6.83186 6.01505 6.30811 6.01505 6.30811C6.85969 7.76093 5.78756 9.5401 5.01 10.8305C4.88923 11.0309 4.77555 11.2195 4.67731 11.3933L3.96992 12.6245L2.50284 15.1841C1.9266 16.1897 1.92541 17.422 2.49973 18.4287L4.42571 21.8046L6.27156 18.5937L7.65351 16.2172C9.86477 12.4138 8.29167 9.94956 7.1343 8.13658Z" fill="#21CC99"/>
<path d="M26.1071 12.0698C25.5154 12.0698 23.908 12.0626 22.3035 12.0557C20.8169 12.0494 19.3847 12.0432 18.9142 12.0432C17.2249 12.0432 16.2093 10.2316 15.4728 8.91775C15.3584 8.71369 15.2507 8.52158 15.1483 8.35021L14.4282 7.12622L21.2954 7.12625C22.4501 7.12625 23.5212 7.72398 24.1217 8.7034L24.6668 9.59263L26.1071 12.0698Z" fill="#B3B3FE"/>
<path d="M10.1015 2.9601L6.19434 2.92847L8.07172 6.12136L9.45342 8.49809C11.7093 12.3668 14.7435 12.0436 16.7642 12.0568C17.0534 12.0587 17.3 12.0568 17.532 12.0568C18.3089 12.0424 18.9144 12.0436 18.9144 12.0436C17.2251 12.0436 16.2095 10.2319 15.473 8.91809C15.3586 8.714 15.2508 8.52194 15.1485 8.35054L14.4284 7.12656L12.9296 4.5851C12.3407 3.58675 11.2665 2.96952 10.1015 2.9601Z" fill="#8180FD"/>
<path fill-rule="evenodd" clip-rule="evenodd" d="M32.2288 7.20619H35.2747V8.33033C35.7483 7.69673 37.1065 6.96094 38.712 6.96094C42.2935 6.96094 44.3927 9.59752 44.3927 12.8269C44.3927 16.0561 42.2935 18.6926 38.712 18.6926C37.0654 18.6926 35.8513 18.0387 35.2747 17.2825V22.5567H32.2288V7.20619ZM38.2593 9.65892C36.345 9.65892 35.1515 10.8648 35.1515 12.8269C35.1515 14.6868 36.345 16.0153 38.2593 16.0153C40.2145 16.0153 41.3673 14.6664 41.3673 12.8269C41.3673 11.0487 40.1529 9.65892 38.2593 9.65892Z" fill="#12131A"/>
<path d="M45.5842 18.4478H48.6716V3.12158H45.5842V18.4478Z" fill="#12131A"/>
<path fill-rule="evenodd" clip-rule="evenodd" d="M61.9049 18.4474H58.8586V17.3233C58.3851 17.9568 57.0268 18.6926 55.4213 18.6926C51.8401 18.6926 49.741 16.0561 49.741 12.8269C49.741 9.59752 51.8401 6.96094 55.4213 6.96094C57.0679 6.96094 58.2824 7.61495 58.8586 8.3712V7.20619H61.9049V18.4474ZM55.8743 15.9946C57.7883 15.9946 58.9822 14.7887 58.9822 12.8266C58.9822 10.9667 57.7883 9.63819 55.8743 9.63819C53.9188 9.63819 52.7663 10.9871 52.7663 12.8266C52.7663 14.6047 53.9808 15.9946 55.8743 15.9946Z" fill="#12131A"/>
<path d="M69.6823 7.00171C68.674 7.00171 67.4183 7.45134 66.6569 8.20759V7.20609H63.5901V18.4473H66.6569V12.4997C66.5952 10.0471 67.974 9.53611 68.8181 9.53611C70.0117 9.53611 70.9997 10.0675 70.9997 11.8048V18.4473H74.1488V11.8048C74.1488 8.88207 72.9549 7.00171 69.6823 7.00171Z" fill="#12131A"/>
<path fill-rule="evenodd" clip-rule="evenodd" d="M87.4489 18.4474H84.4029V17.3233C83.9295 17.9568 82.5711 18.6926 80.9656 18.6926C77.3845 18.6926 75.2849 16.0561 75.2849 12.8269C75.2849 9.59752 77.3845 6.96094 80.9656 6.96094C82.6122 6.96094 83.8267 7.61495 84.4029 8.3712V7.20619H87.4489V18.4474ZM81.4186 15.9946C83.3326 15.9946 84.5263 14.7887 84.5263 12.8266C84.5263 10.9667 83.3326 9.63819 81.4186 9.63819C79.4631 9.63819 78.3106 10.9871 78.3106 12.8266C78.3106 14.6047 79.5249 15.9946 81.4186 15.9946Z" fill="#12131A"/>
<path fill-rule="evenodd" clip-rule="evenodd" d="M92.2012 17.3232V18.4474H89.155V3.11963H92.2012V8.37116C92.7776 7.61492 93.9921 6.9609 95.6385 6.9609C99.2197 6.9609 101.319 9.59747 101.319 12.8268C101.319 16.056 99.2197 18.6927 95.6385 18.6927C94.0331 18.6927 92.6746 17.9569 92.2012 17.3232ZM95.1856 9.63814C93.2715 9.63814 92.0776 10.9667 92.0776 12.8265C92.0776 14.7886 93.2715 15.9945 95.1856 15.9945C97.079 15.9945 98.2935 14.6048 98.2935 12.8265C98.2935 10.9871 97.141 9.63814 95.1856 9.63814Z" fill="#12131A"/>
<path d="M102.51 18.448H105.598V3.125H102.51V18.448Z" fill="#12131A"/>
<path fill-rule="evenodd" clip-rule="evenodd" d="M118.111 16.1174C117.658 16.7305 116.135 18.7335 112.821 18.7335C110.619 18.7335 106.667 17.4867 106.667 12.8677C106.667 8.24852 110.701 7.02222 112.821 7.02222C115.723 7.02222 118.625 8.9843 118.728 12.6019C118.728 13.4604 118.666 14.0122 118.666 14.0122H109.734C110.104 15.8517 112.204 16.056 112.821 16.056C114.529 16.056 115.373 15.1364 115.723 14.748L118.111 16.1174ZM115.476 11.8455C115.353 10.8236 114.344 9.69945 112.8 9.69945C111.03 9.69945 109.94 10.7009 109.816 11.8455H115.476Z" fill="#12131A"/>
</svg>
