<svg width="91" height="26" viewBox="0 0 91 26" fill="none" xmlns="http://www.w3.org/2000/svg">
<path d="M46.4053 24.4261H49.8652V14.8571C49.8652 12.5125 51.5145 10.7389 53.7137 10.7389C55.9129 10.7389 57.7234 12.5125 57.7234 14.8571V24.4214H61.444V14.6064C61.444 10.4557 58.0173 7.32178 54.2635 7.32178C52.8416 7.32178 51.1496 7.75821 49.8652 9.49463V7.70249H46.4053V24.4261Z" fill="#111111"/>
<path d="M81.4877 7.31714C76.4732 7.31714 72.6294 11.2125 72.6294 16.1246C72.6294 21.1621 76.4779 24.8021 81.4877 24.8021C86.6301 24.8021 90.4787 21.1575 90.4787 16.1246C90.4787 11.2171 86.6301 7.31714 81.4877 7.31714ZM81.4877 21.2875C78.6724 21.2875 76.3452 19.0079 76.3452 16.1246C76.3452 13.0836 78.6724 10.8364 81.4877 10.8364C84.4641 10.8364 86.7581 13.0836 86.7581 16.1246C86.7581 19.0079 84.4641 21.2875 81.4877 21.2875Z" fill="#111111"/>
<path d="M71.98 24.4261V20.9114C69.3922 22.1789 66.9656 21.1668 66.9656 18.3764V11.0871H71.5914V7.69785H66.9656V3.38928H63.3777V17.7729C63.3824 23.6646 67.4869 25.6936 71.98 24.4261Z" fill="#111111"/>
<path d="M35.4758 7.31714C30.4614 7.31714 26.6176 11.2125 26.6176 16.1246C26.6176 21.1621 30.4661 24.8021 35.4758 24.8021C40.6183 24.8021 44.4668 21.1575 44.4668 16.1246C44.4621 11.2171 40.6135 7.31714 35.4758 7.31714ZM35.4758 21.2875C32.6321 21.2875 30.3334 19.0079 30.3334 16.1246C30.3334 13.0836 32.6273 10.8364 35.4758 10.8364C38.4191 10.8364 40.7463 13.0836 40.7463 16.1246C40.7463 19.0079 38.4144 21.2875 35.4758 21.2875Z" fill="#111111"/>
<path d="M12.4509 0C5.39839 0 0 5.29286 0 12.4846C0 19.3886 5.39839 24.8068 12.4509 24.8068C19.6598 24.8068 25.0629 19.3886 25.0629 12.4846C25.0629 5.29286 19.6598 0 12.4509 0ZM12.4509 21.1621C7.56911 21.1621 3.97651 17.5175 3.97651 12.4846C3.97651 7.32179 7.56437 3.51929 12.4509 3.51929C17.4654 3.51929 21.0864 7.32179 21.0864 12.4846C21.0817 17.5175 17.4606 21.1621 12.4509 21.1621Z" fill="#111111"/>
<path d="M24.4705 25.35C17.4274 24.5979 12.9153 21.0647 10.6877 14.5507L14.214 13.3947C15.9819 18.5622 19.2711 21.1297 24.8781 21.7286L24.4705 25.35Z" fill="#111111"/>
</svg>
