<svg width="108" height="27" viewBox="0 0 108 27" fill="none" xmlns="http://www.w3.org/2000/svg">
<g clip-path="url(#clip0_884_1223)">
<path d="M28.4517 22.816C28.4517 22.9754 28.4917 23.0152 28.6318 23.0152H31.3136C31.4737 23.0152 31.5137 22.9754 31.5137 22.816V16.799H34.4557L37.4978 22.8359C37.5579 22.9754 37.6179 23.0152 37.738 23.0152H40.68C40.8201 23.0152 40.9001 22.9156 40.8201 22.7961L37.4778 16.4802C39.4992 15.9622 41.0002 14.3683 41.0002 11.9973C41.0002 9.04859 38.9588 7.11597 36.0568 7.11597H30.2929C29.0721 7.11597 28.4517 7.75354 28.4517 8.94898V22.816ZM31.5137 14.428V9.5467H35.6766C37.1976 9.5467 38.0782 10.6027 38.0782 11.9973C38.0782 13.4119 37.1976 14.428 35.5965 14.428H31.5137ZM45.5396 21.0627C44.3188 21.0627 43.7984 20.4849 43.7984 19.6481C43.7984 18.632 44.4789 17.9546 45.8999 17.9546C47.601 17.9546 48.7017 18.8511 48.7017 19.9669V21.0627H45.5396ZM49.7024 23.0152C50.6831 23.0152 51.3235 22.4374 51.3235 21.4612V15.4242C51.3235 12.9138 49.5423 11.4992 46.4202 11.4992C42.0972 11.4992 41.3568 14.4081 41.3568 15.1254C41.3568 15.2648 41.3968 15.3246 41.5369 15.3246H43.7784C43.9185 15.3246 43.9985 15.2648 44.0186 15.1254C44.1987 14.1292 44.9392 13.5315 46.2801 13.5315C47.9813 13.5315 48.6817 14.3483 48.6817 15.5836V17.1775C48.6817 17.1775 47.9813 16.1216 45.4395 16.1216C42.8178 16.1216 41.1566 17.5362 41.1566 19.6879C41.1566 21.9991 42.8578 23.0152 45.2194 23.0152H49.7024ZM55.2225 14.0694H57.5641C59.4053 14.0694 60.4661 15.3645 60.4661 17.4166C60.4661 19.4289 59.5454 20.7837 57.8643 20.7837C56.2232 20.7837 55.2225 19.6879 55.2225 17.576V14.0694ZM52.5407 26.8008C52.5407 26.9602 52.5807 27 52.7208 27H55.0624C55.2025 27 55.2625 26.9602 55.2625 26.8008V21.8397C55.2625 21.8397 56.0631 23.1547 58.3046 23.1547C61.1065 23.1547 63.1879 20.7837 63.1879 17.3369C63.1879 13.8901 60.8864 11.6785 57.6642 11.6785H54.1618C53.1811 11.6785 52.5407 12.2563 52.5407 13.2326V26.8008ZM64.0648 22.816C64.0648 22.9754 64.1048 23.0152 64.2449 23.0152H66.6866C66.8267 23.0152 66.8867 22.9754 66.8867 22.816V11.8778C66.8867 11.7383 66.8267 11.6785 66.6866 11.6785H64.2449C64.1048 11.6785 64.0648 11.7383 64.0648 11.8778V22.816ZM65.4658 7.31522C64.5852 7.31522 63.8447 7.93285 63.8447 8.84935C63.8447 9.78577 64.5852 10.3436 65.4658 10.3436C66.3864 10.3436 67.1069 9.78577 67.1069 8.84935C67.1069 7.93285 66.3864 7.31522 65.4658 7.31522ZM73.3875 20.6244C71.5462 20.6244 70.4655 19.3293 70.4655 17.2771C70.4655 15.2648 71.3861 13.91 73.0873 13.91C74.7084 13.91 75.7491 15.0058 75.7491 17.1377V20.6244H73.3875ZM76.7898 23.0152C77.7904 23.0152 78.4109 22.4374 78.4109 21.4612V7.31522C78.4109 7.15582 78.3709 7.11597 78.2308 7.11597H75.8892C75.7491 7.11597 75.689 7.15582 75.689 7.31522V12.854C75.689 12.854 74.8885 11.5391 72.6269 11.5391C69.845 11.5391 67.7837 13.91 67.7837 17.3568C67.7837 20.8037 70.0652 23.0152 73.2874 23.0152H76.7898ZM83.7508 21.0627C82.53 21.0627 82.0096 20.4849 82.0096 19.6481C82.0096 18.632 82.6901 17.9546 84.1111 17.9546C85.8122 17.9546 86.913 18.8511 86.913 19.9669V21.0627H83.7508ZM87.9136 23.0152C88.8943 23.0152 89.5348 22.4374 89.5348 21.4612V15.4242C89.5348 12.9138 87.7535 11.4992 84.6314 11.4992C80.3085 11.4992 79.568 14.4081 79.568 15.1254C79.568 15.2648 79.608 15.3246 79.7481 15.3246H81.9896C82.1297 15.3246 82.2098 15.2648 82.2298 15.1254C82.4099 14.1292 83.1504 13.5315 84.4913 13.5315C86.1925 13.5315 86.893 14.3483 86.893 15.5836V17.1775C86.893 17.1775 86.1925 16.1216 83.6508 16.1216C81.029 16.1216 79.3678 17.5362 79.3678 19.6879C79.3678 21.9991 81.069 23.0152 83.4306 23.0152H87.9136ZM91.3723 18.8711C91.3723 21.501 92.7332 23.0152 95.395 23.0152H97.0362C97.1763 23.0152 97.2163 22.9754 97.2163 22.816V20.7837C97.2163 20.6244 97.1763 20.5845 97.0362 20.5845H95.6552C94.8347 20.5845 94.1542 20.0665 94.1542 19.0504V14.0893H97.0362C97.1763 14.0893 97.2163 14.0495 97.2163 13.8901V11.8778C97.2163 11.7184 97.1763 11.6785 97.0362 11.6785H94.1542V8.67004C94.1542 8.53056 94.1142 8.49072 93.9541 8.49072H91.5724C91.4324 8.49072 91.3723 8.53056 91.3723 8.67004V11.6785H89.8313C89.6912 11.6785 89.6511 11.7184 89.6511 11.8778V13.8901C89.6511 14.0495 89.6912 14.0893 89.8313 14.0893H91.3723V18.8711ZM102.216 21.0627C100.995 21.0627 100.475 20.4849 100.475 19.6481C100.475 18.632 101.155 17.9546 102.576 17.9546C104.277 17.9546 105.378 18.8511 105.378 19.9669V21.0627H102.216ZM106.379 23.0152C107.36 23.0152 108 22.4374 108 21.4612V15.4242C108 12.9138 106.219 11.4992 103.097 11.4992C98.7737 11.4992 98.0332 14.4081 98.0332 15.1254C98.0332 15.2648 98.0732 15.3246 98.2133 15.3246H100.455C100.595 15.3246 100.675 15.2648 100.695 15.1254C100.875 14.1292 101.616 13.5315 102.957 13.5315C104.658 13.5315 105.358 14.3483 105.358 15.5836V17.1775C105.358 17.1775 104.658 16.1216 102.116 16.1216C99.4942 16.1216 97.833 17.5362 97.833 19.6879C97.833 21.9991 99.5342 23.0152 101.896 23.0152H106.379Z" fill="black"/>
<path fill-rule="evenodd" clip-rule="evenodd" d="M6.88279 1.23635C11.3237 -1.31611 17.0551 0.212671 19.6191 4.63376L19.6192 4.63396C22.1833 9.05505 20.6475 14.7607 16.2065 17.3132L16.2064 17.3132L9.99058 6.59508L0 12.3376V5.19234L6.88279 1.23635ZM10.8233 20.4073L0 26.628V19.4828L7.71544 15.0483L10.8233 20.4073Z" fill="url(#paint0_linear_884_1223)"/>
<path fill-rule="evenodd" clip-rule="evenodd" d="M14.431 26.6281L7.71533 15.0485L9.99051 6.59546L21.6085 26.6281H14.431Z" fill="#0077FF"/>
</g>
<defs>
<linearGradient id="paint0_linear_884_1223" x1="0.212737" y1="24.4864" x2="21.9492" y2="11.8803" gradientUnits="userSpaceOnUse">
<stop stop-color="#0077FF"/>
<stop offset="1" stop-color="#00ECBB"/>
</linearGradient>
<clipPath id="clip0_884_1223">
<rect width="108" height="27" fill="white"/>
</clipPath>
</defs>
</svg>
