<svg fill="none" height="27" viewBox="0 0 85 27" width="85" xmlns="http://www.w3.org/2000/svg" xmlns:xlink="http://www.w3.org/1999/xlink"><clipPath id="a"><path d="m0 0h85v27h-85z"/></clipPath><g clip-path="url(#a)"><path clip-rule="evenodd" d="m75.29 13.813c0-2.968 2.2-4.69 4.947-4.69 2.052 0 3.884.99 4.763 3.444-.257 1.245-1.795 2.638-2.455 2.858-.55-1.173-1.172-1.869-1.758-1.869-.733 0-.77.513-.77 1.172 0 .467.134 1.155.295 1.983.243 1.25.548 2.82.548 4.43 0 2.93-2.052 5.092-5.203 5.092-2.885 0-4.48-1.892-5.19-4.913-1.885 3.377-4.641 4.913-6.754 4.913-3.302 0-4.08-2.441-4-4.917-1.328 2.345-3.882 4.917-6.331 4.917-2.501 0-3.384-2.177-3.182-4.712-1.498 2.791-4.208 4.712-6.82 4.712-2.836 0-4.239-2.252-3.785-5.044-1.907 2.344-5.458 5.044-9.149 5.044-4.209 0-6.04-2.27-6.258-5.114-2.031 3.256-4.77 5.224-8.03 5.224-4.709 0-6.393-4.187-6.638-7.611-1.92853 2.5754-3.96812 5.0658-6.113 7.464-.256.257-.476.403-.732.403-.843.001-2.565-3.737-2.675-5.129.723-1.121 5.281-6.13 8.95-10.161 1.29-1.417 2.471-2.714 3.336-3.679-2.247.678-4.564 2.03-7.486 4.132-.513.366-1.942-2.968-1.906-5.533 3.371-2.49 8.5-4.066 12.64-4.066 5.79 0 9.123 3.224 9.123 7.694 0 3.737-3.114 7.84-7.657 7.987-2.362.061-3.876-1.265-4.65-2.902.092 2.532 1.409 5.65 4.943 5.65 3.853 0 5.704-2.326 8.463-5.795.1793-.226.3627-.456.55-.69 2.345-2.895 5.056-5.46 9.013-5.46 2.418 0 4.067 1.503 4.067 3.774 0 2.748-3.224 6.558-7.73 6.558-.77 0-1.472-.101-2.064-.301-.016.1153-.0243.228-.025.338 0 1.282.476 2.052 2.565 2.052 3.077 0 5.971-1.832 9.489-6.119 3.444-4.213 6.045-6.045 8.793-6.045 1.855 0 3.262 1.005 3.883 2.698 3.683-5.319 6.807-9.088 9.453-11.602 2.601 1.1 4.47 3.26 3.957 3.7-1.942 1.76-8.427 8.83-10.991 13.044-.66 1.099-1.283 2.308-1.283 2.894 0 .55.33.733.696.733 1.76 0 5.289-4.156 8.336-7.746 1.138-1.34 2.209-2.602 3.095-3.539 2.052.843 4.14 2.638 3.627 3.261-2.71 3.224-4.762 5.862-4.762 7.364 0 .403.146.66.696.66 1.026 0 1.978-.916 3.554-2.858.33-.403.732-.403.989.22.696 1.685 1.722 2.601 2.528 2.601.952 0 1.429-.843 1.429-2.125 0-.876-.107-1.895-.2-2.772-.069-.664-.131-1.246-.131-1.624zm-59.095-.477c1.942 0 4.067-1.062 4.067-3.224 0-1.312-.814-2.521-2.99-2.89l-.342.535c-1.106 1.729-2.149 3.359-3.2 4.953.63.354 1.427.626 2.465.626zm19.638.66c0-.587-.367-.99-.953-.99-1.47 0-3.687 2.063-4.73 4.055.385.15.837.232 1.323.232 2.601 0 4.36-1.978 4.36-3.297zm9.636 5.312c0 .66.366 1.1 1.135 1.1 2.382 0 5.35-4.324 5.35-6.083 0-.732-.403-1.172-1.063-1.172-2.162 0-5.422 4.103-5.422 6.155zm30.591-13.226c-.843 1.392-2.125 2.968-2.601 3.444-2.199-.916-4.25-2.748-3.957-3.26.806-1.43 2.125-2.968 2.601-3.445 2.198.916 4.25 2.785 3.957 3.261z" fill="#ff4438" fill-rule="evenodd"/></g></svg>