<svg width="92" height="25" viewBox="0 0 92 25" fill="none" xmlns="http://www.w3.org/2000/svg">
<path fill-rule="evenodd" clip-rule="evenodd" d="M5.152 3.51813L8.50796 12.7522L12.0243 3.51813H17.0159L8.48028 24.9015H3.54322L6.06793 18.2756L0 3.51813H5.152ZM57.8745 3.19069C62.3817 3.19069 65.6685 6.68119 65.6685 11.4587C65.6685 16.2362 62.3817 19.7275 57.8745 19.7275C56.2112 19.7275 54.8108 19.2879 53.7418 18.4405L53.6726 18.3844L53.6132 18.3357V24.8966H48.8031V3.51813H53.0563V5.11631L53.0807 5.08869C54.1286 3.89594 55.7137 3.23619 57.6726 3.19313L57.776 3.1915L57.8745 3.19069ZM25.7771 3.19069C30.7402 3.19069 34.2582 6.61294 34.2582 11.4587C34.2582 16.2841 30.7288 19.7275 25.7771 19.7275C20.7977 19.7275 17.2626 16.289 17.2626 11.4587C17.2626 6.60806 20.7855 3.19069 25.7771 3.19069ZM42.272 0V3.51813H46.2288V7.66431H42.272V13.3876C42.272 14.6681 42.8948 15.3725 44.0297 15.4156L44.0851 15.4164L44.1413 15.4172C44.9106 15.4172 45.4936 15.2157 46.0155 14.7152L46.0643 14.6673L46.1938 14.5348H46.2296V19.1084L46.0822 19.1791C45.29 19.5569 44.8024 19.7275 43.4525 19.7275C39.639 19.7275 37.545 17.6556 37.4635 13.7865L37.4619 13.6687V13.5509L37.4611 7.66431H35.7204V3.51813H37.5922V0H42.272ZM76.1793 3.19069C81.1424 3.19069 84.6603 6.61294 84.6603 11.4587C84.6603 16.2841 81.131 19.7275 76.1793 19.7275C71.1999 19.7275 67.6648 16.289 67.6648 11.4587C67.6648 6.60806 71.1885 3.19069 76.1793 3.19069ZM88.5813 14.4666C90.0371 14.4666 91.2168 15.6447 91.2168 17.0966C91.2168 18.5494 90.0362 19.7275 88.5813 19.7275C87.1256 19.7275 85.9459 18.5494 85.9459 17.0966C85.9459 15.6439 87.1264 14.4666 88.5813 14.4666ZM57.154 7.501C54.9867 7.501 53.5147 9.10163 53.5147 11.4587C53.5147 13.8166 54.9867 15.4172 57.154 15.4172C59.349 15.4172 60.8258 13.8214 60.8258 11.4587C60.8258 9.09675 59.349 7.501 57.154 7.501ZM25.7763 7.501C23.6025 7.501 22.1052 9.10975 22.1052 11.4587C22.1052 13.8084 23.6025 15.4172 25.7771 15.4172C27.9232 15.4172 29.4164 13.8036 29.4164 11.4587C29.4164 9.11462 27.9224 7.501 25.7763 7.501ZM76.1793 7.501C74.0054 7.501 72.5074 9.10975 72.5074 11.4587C72.5074 13.8084 74.0054 15.4172 76.1793 15.4172C78.3254 15.4172 79.8185 13.8036 79.8185 11.4587C79.8185 9.11462 78.3254 7.501 76.1793 7.501Z" fill="#0042E4"/>
</svg>
