<svg fill="none" height="200" viewBox="0 0 200 200" width="200" xmlns="http://www.w3.org/2000/svg" xmlns:xlink="http://www.w3.org/1999/xlink"><clipPath id="a"><path d="m25 25h150v150h-150z"/></clipPath><rect fill="#181c1f" height="200" rx="20" width="200"/><g clip-path="url(#a)" clip-rule="evenodd" fill-rule="evenodd"><g fill="#8f98a9"><path d="m137.84 67.33-12.54-7.46 1.89-1.26 12.06 7.19c-.512.488-.983 1.0164-1.41 1.58"/><path d="m140.83 154.52-5.15-3.63c-3.38-2.41-5.15-6.49-5.15-11v-50.48c0-7 1.48-11.79 3.83-15.11-1.393 3.8739-2.044 7.9752-1.92 12.09l.15 51.66c0 5.59 1.62 9.22 5.44 11.94l4.71 3.33z"/><path d="m99.14 154.06c-.2584.167-.5255.321-.8.46h-1.29v-84.34c0-4.08-.32-4.08-2.91-5.9l-3.72-2.72 2.43-1.21c1.94 1.51 4.85 3.63 4.85 3.78 1.13 1.06 1.44 1.66 1.44 4.08z"/><path d="m37.49 49.89c-.6453 1.4688-.9355 3.0691-.8469 4.671s.5535 3.1603 1.3569 4.549c1.6574 2.4275 4.1983 4.1107 7.08 4.69-9.52.73-13.71-6.14-7.59-13.9"/><path d="m59.91 123.13c.6233-2.62.9156-5.307.87-8v-43.65c0-5.25-.25-5.85-1.75-7.5h.26c2.11-.45 3.23 0 3.23 4.5v43.84c0 5.11-.74 8.41-2.61 10.82"/><path d="m63.6601 154.53c-1.25-4.13-5-7.62-11.6-8.57.9371-.133 1.8838-.186 2.83-.16 8.14.15 10.49 5.23 11 6.82l.16.47z"/></g><path d="m68.49 152.32c-1.53-4.28-6-8.7-13.89-9-7.49-.16-18.17 2.75-27 9.46l-1.7-2.14c6.41-7 21.37-18.3 37.09-18.46 8.24 0 14 2.75 18.16 7.17l6.85-3.81 2 4z" fill="#fff"/><path d="m162.65 58.8c-6 3.51-8 8.24-8 15.57v58.43c0 3.67.47 5.34 2.45 6.41l2 1.07 5.49-3.21 1.83 3.67-19.08 11.44-6.56-4.43c-2.91-2-4.13-4.42-4.13-9.15v-52.18c0-9.76 3.06-15 7.33-18.15l2.45-1.84-18-10.53-8.06 4.9v76c0 6.4-.92 7.32-6.57 10.21 0 0-4.42 2.14-10.51 5.35h-1.23v-84.25c0-4.11-.46-5-2.75-6.86l-6.4-5.19-7.79 4.42v43.64c0 7.62-1.22 13.11-7.33 16.92l-15.25 9.62-1.54-2.59c4.74-3.67 5.8-8.86 5.8-15v-44.5c0-6.56-.9-9.15-7.78-7.93-2.59.45-6.56 1.06-9 1.37-10.08 1.37-14.35-5.8-7.48-14.8 0 0 1.68-2.29 5.95-7.79l3.36 2.3-2.45 3.51c-3.2 4.58-.6 7 4.59 5.18 2.44-.91 7.17-2.74 10.53-4.12 14.49-5.64 19.84 3.67 20.6 9.16l18-10.83 15.57 11.89 19.22-11.89 14.81 8.39c5 2.89 7.48 1.67 11-.16l2.9-1.52 2.29 3.82z" fill="#fff"/></g></svg>