<svg height="800" preserveAspectRatio="xMidYMid" viewBox="0 -185 512 512" width="800" xmlns="http://www.w3.org/2000/svg"><path d="m97.3627848 0c14.5769062 6.48854528 27.4957832 16.4790965 28.0067082 16.8761232l.015686.0122095c-2.058326-8.13965495-3.548837-12.49653213-3.548837-12.49653213 4.579191 2.49117764 10.04978 5.69855163 15.431792 9.04683053l1.194147.7461476c8.541891 5.360662 16.675006 10.9706238 20.440869 14.5060678 3.658657-.1709445 6.585653-1.0902875 8.462475-1.8759047 3.198897-1.3392357 5.887892 1.9505892 6.905578 5.2974426 1.012037 3.329021 2.229941 8.4675958 2.285734 14.0405058.062855 6.2134663-1.316425 11.5819209-4.098642 15.9574074-5.269229 8.2867156-15.501201 13.8992101-26.54502 19.6570902l-1.230221.640506-.617221.3209703c-12.25002 6.3695445-22.468552 12.8330184-30.456084 24.7221519-4.125126 6.140724-7.350153 12.987331-9.485459 20.094539-2.278318 7.567321-4.078161 13.701689-9.1980201 13.701689-4.6332628 0-7.3974713-5.968755-9.4868712-9.339621-4.0191903-6.482542-9.0179303-14.545288-17.1106912-15.227159-7.1880722-1.065004-13.0879696 1.595741-17.3515177 5.111032-2.1070558 1.737341-3.8525186 3.713743-5.1904831 5.607162-1.1984829 1.43366-2.3274015 2.904044-3.4248926 4.334172-3.3535626 4.372308-6.2505436 8.148907-10.0778496 9.243926-.6256547.179737-1.2413161.270488-1.8304583.270488-.4196254 0-.8938875-.048514-1.3929219-.180232l-.2514432-.072953-.0099933.015537c-12.0619497-3.533653-12.6843556-25.591176-12.6843556-25.591176-5.7991881 1.381045-11.78750631 5.194721-11.78750631 5.194721 5.40012933-18.499505 15.75083331-30.5892099 15.75083331-30.5892099-2.257399-.1770933-4.8002608-.1317069-7.2984763.0267311l-.7122758.0482497c-6.27600057.4517093-12.0673671 1.5571311-12.0673671 1.5571311 16.1147922-20.7379204 26.9892763-28.3380815 26.9892763-28.3380815-8.5376191-3.7292803-19.44289509-5.6364712-19.44289509-5.6364712 19.62948269-11.3347383 39.10864289-16.8811644 39.10864289-16.8811644-4.2427141-4.0054188-19.5143308-9.390929-19.5143308-9.390929 2.9815803-.8578009 6.4681476-1.6447855 10.0931992-2.3505956l.9918086-.1904732c.6631275-.1256301 1.3297317-.2485456 1.9976095-.3686842l1.0024966-.1781175c.5442099-.0955144 1.0885339-.1891684 1.6317842-.2809285l.8139215-.1362155c.1354699-.0224645.2708355-.0448095.4060783-.0670346l.809835-.131907c10.3701598-1.6742274 19.7921588-2.6310887 19.7921588-2.6310887-5.0753666-4.2781319-16.5608863-8.9357598-16.5608863-8.9357598 6.4672028-.220696 12.2506696-.3001465 17.1257497-.3061495l1.3469796.0001925c9.5525284.0145693 15.270178.305957 15.270178.305957-3.5679054-4.9028684-12.7634541-11.31877727-12.7634541-11.31877727 19.1474764 1.80114955 32.7961981 6.55274217 32.7961981 6.55274217-.14501-1.1632661-.961201-3.34240641-1.861863-5.48435334l-.2364854-.55723264c-1.1881515-2.77502062-2.4332168-5.33097122-2.4332168-5.33097122zm-30.8116738 120.590188c-.5688733 1.520527-1.207664 3.166057-1.8881226 4.812647-.095252.230567-.1911843.461416-.2877841.692248l-.2917887.692145c-2.4970044 5.877694-5.4196278 11.549251-8.5541802 12.044335-.2005711.031428-.4050265.047671-.6066569.047671-2.4880702 0-4.7187173-2.295974-6.8038798-7.01116 3.6674847-5.170708 10.9445427-11.192785 18.4324123-11.277886zm58.145487-18.476552c-2.052675 7.695856-2.326695 15.425258-2.545275 21.634487l-.000353.006356c-.1416 4.0146-.263779 7.481161-.83689 10.004543-.767679 3.379693-2.449227 5.093728-4.999799 5.093728l-.086867-.000706c-2.46088-.039902-5.07572-2.148017-7.941274-6.4211 1.688611-9.67367 8.372078-22.030332 16.410458-30.317308zm114.207225-75.5476071c8.1934 0 16.204237 3.6072074 21.575164 9.4371874 5.363158 5.8225646 8.681409 13.8648295 8.681409 22.7408064 0 8.8763299-3.318251 16.9168293-8.681409 22.7393938-5.370927 5.8285676-13.381764 9.4370815-21.575164 9.4370815-6.000889 0-12.297338-1.8584606-16.684477-6.000536l.012359 19.738243c.0113 16.595845-12.942485 14.079878-15.94293 13.911088-1.020158-.057558-1.818205-.276138-2.372247-.821706-.554042-.545567-.832653-1.32843-.832653-2.335876l-.040961-85.5454049c0-1.029304.284966-1.8400279.856311-2.4012032.569933-.5626937 1.38846-.8432814 2.438281-.8432814h11.266233c1.050173 0 1.868701.2805877 2.43828.8432814.571699.5611753.843953 1.3641306.856665 2.4012032l.042374 3.2692734c2.52656-2.0849506 5.331731-3.7048799 8.297216-4.8147655 3.088725-1.153319 6.355067-1.7547851 9.665549-1.7547851zm222.423802-.0821706c.854545 0 1.581969.2309746 2.139895.6619199.557927.4324991.967544 1.0928652 1.3136 1.9066966l16.091592 37.6409428 11.543431-37.5355371c.247183-.8991093.681518-1.5151239 1.274756-1.967786.575583-.4433398 1.3136-.7062362 2.178739-.7062362h13.316084c1.133509 0 1.935087.3285764 2.408266.926935.469647.6216292.533208 1.48977.183621 2.6461612l-17.910151 56.2115655-6.910521 21.810693-2.641323 8.38479c-.293088.931878-.773329 1.585853-1.430129 1.953449l-.190684.094283c-.716829.291675-1.479564.249654-2.376484.029662-2.902631-.716124-16.363494-2.229235-10.978443-17.949347l3.192188-9.3258493-.723892-1.8118491-3.4994-8.3184033-21.921573-50.9270824c-.48024-1.0572003-.307212-2.0198356.123592-2.6755406.44846-.6836366 1.235913-1.029304 2.344704-1.049467zm-419.8316565 52.439805-15.0121102 22.5977937 14.1462646-12.9343635zm335.8142635-52.3499011c.663863.0077686 1.200602.2573171 1.592563.6603662.579114.5906253.854546 1.3889547.854546 2.4213661v14.9002425c0 1.010624-.211871 1.7684155-.660331 2.2737275-.430804.5038995-1.069948.7581446-1.903307.7581446-1.815027-.0635613-3.548837.12571-5.236741.5674608-1.666718.4403383-3.185125 1.1998953-4.509318 2.2306471-1.324193 1.0526451-2.387079 2.4661769-3.163939 4.1883339-.783922 1.7486409-1.182945 3.8722932-1.193539 6.3992064l-.088279 15.8906681c-.091811 16.595845-12.942485 14.081644-15.94293 13.911088-1.023336-.0575583-1.818205-.2729603-2.372247-.8199403-.555808-.5473331-.834419-1.3270179-.834419-2.3362294v-57.8393694c0-1.0091409.278611-1.788861.834419-2.3360528.555807-.5472272 1.347498-.8200462 2.372247-.8200462h12.821366c1.027573 0 1.818558.272819 2.372953.8200462.557927.5471918.83689 1.3253582.83689 2.3360528v3.1762974c1.539595-2.6879703 5.05312-6.5044709 14.220066-6.3820095zm38.232098-.0899039c14.484905 0 26.614512 8.7769625 30.452906 21.4558095.745079 2.0724502-.494365 3.4150053-2.598949 3.4150053h-13.616234c-1.610219 0-2.726072-.7316608-3.714803-2.0728033-2.228175-3.0474093-6.066569-4.7557947-10.52292-4.7557947-8.047561 0-14.237722 5.7311069-14.237722 14.1420272 0 8.4126858 6.190161 14.1420272 14.237722 14.1420272 4.456351 0 8.294745-1.7066198 10.52292-4.6318503.988731-1.4633214 1.977461-2.1949822 3.714803-2.1949822h13.616234c2.104584 0 3.344028 1.3407895 2.598949 3.4135928-3.838394 12.6787058-15.968001 21.457222-30.452906 21.457222-18.817664 0-32.808203-14.0212608-32.808203-32.1860095 0-18.1647488 13.990539-32.184244 32.808203-32.184244zm-108.011767.0294501c4.525561.020163 8.679643.8293331 12.465422 2.4306532 3.782954 1.5997662 7.053887 3.847469 9.852702 6.7244988 2.775155 2.8973341 4.935178 6.2780869 6.457117 10.1676828 1.522293 3.8892429 2.304802 8.1429037 2.325283 12.7606292 0 .7906315-.020481 1.5597227-.083689 2.2896178-.040962.7486104-.102051 1.4788587-.163494 2.2073413-.122885.9721342-.494365 1.6804891-1.068888 2.1268304-.576289.4466944-1.337965.6680995-2.26384.6680995h-41.219124c.780744 2.3906096 1.871879 4.3345248 3.310482 5.8335112 1.440369 1.4788586 3.12792 2.5530439 5.018515 3.2412711 1.914253.6882272 3.949626 1.0120365 6.110709 1.0120365 1.747228-.0201277 3.433367-.2835538 5.038995-.8291213 1.583735-.5473331 2.960895-1.2772282 4.092639-2.2091069.596769-.4851843 1.193186-.8711424 1.769475-1.1546962.596769-.2821414 1.275109-.4248011 2.055853-.4248011l11.848525-.1207664c1.131744.0201277 1.95345.343937 2.447815.971781.472472.627844.492953 1.4386032.020481 2.430512-1.624343 3.5251781-3.785779 6.4814829-6.479011 8.8516117-2.694997 2.3902565-5.821505 4.1713842-9.380583 5.3882292-3.557665 1.1935392-7.444083 1.802668-11.661372 1.802668-5.142459-.0215402-9.770778-.8510147-13.883898-2.4721799-4.133601-1.6201059-7.652069-3.8677027-10.572003-6.7851645-2.94218-2.8955685-5.183774-6.2999802-6.746675-10.1673298-1.563254-3.889596-2.345763-8.1026481-2.366244-12.6603436.020481-4.5573423.823471-8.7707476 2.427334-12.658578 1.604215-3.8691152 3.86629-7.2717613 6.80847-10.1687423 2.921699-2.916014 6.417568-5.1652704 10.449118-6.7851998 4.031549-1.619894 8.494256-2.4507809 13.389886-2.4709439zm-223.0343428 35.0973271-34.0073927 16.2413144 28.3437314-6.9338273zm-30.4222202-3.9286355-26.9333067 19.318229 21.9434303-9.6591928zm184.593587-13.2830475c-7.899252 0-14.301283 6.3462387-14.301283 14.1745141 0 7.830041 6.402031 14.1762797 14.301283 14.1762797 7.897487 0 14.299518-6.3462387 14.299518-14.1762797 0-7.8282754-6.402031-14.1745141-14.299518-14.1745141zm-123.665846 7.6185233-30.2096078 3.2532771 22.0843598 1.2931185zm192.405937-9.3406803c-3.477508.0201277-6.397441.8107592-8.700478 2.4103842-2.324929 1.5798505-3.969753 3.9097237-4.936591 6.947952h26.430185c-.65786-2.2896179-1.645178-4.1328944-2.962661-5.5093488-1.293825-1.3577391-2.816117-2.350001-4.52415-2.9577173-1.707679-.6077163-3.475741-.9113978-5.306305-.8912701zm-225.546072.4749439-30.2096075 3.2525709 22.1994763 2.1148243zm42.551439-3.7868387-22.518695 4.7748631 17.521367-.9880244zm-51.1682271-7.9555038 23.4191462 5.9921671 10.2121759-3.3905341zm24.1179669-11.5465032 18.9514962 8.8279528 9.070898-1.8759047z" fill="#fff"/></svg>