<svg width="800" height="221" viewBox="0 0 800 221" fill="none" xmlns="http://www.w3.org/2000/svg">
<g clip-path="url(#clip0_2_20)">
<path d="M152.129 0C174.906 10.1384 195.092 25.7486 195.89 26.3689L195.914 26.388C192.698 13.6698 190.369 6.86219 190.369 6.86219C197.524 10.7547 206.072 15.7662 214.481 20.9979L216.347 22.1637C229.694 30.5398 242.402 39.3053 248.286 44.8294C254.003 44.5623 258.576 43.1259 261.509 41.8983C266.507 39.8058 270.709 44.9461 272.299 50.1756C273.88 55.3772 275.783 63.4062 275.87 72.1139C275.968 81.8224 273.813 90.2106 269.466 97.0473C261.233 109.995 245.245 118.765 227.989 127.762L226.067 128.762L225.103 129.264C205.962 139.216 189.996 149.315 177.515 167.892C171.07 177.487 166.031 188.185 162.694 199.29C159.134 211.114 156.322 220.699 148.322 220.699C141.083 220.699 136.764 211.373 133.499 206.106C127.219 195.977 119.409 183.379 106.764 182.313C95.5322 180.649 86.3136 184.807 79.6519 190.299C76.3596 193.014 73.6323 196.102 71.5417 199.06C69.6691 201.301 67.9052 203.598 66.1903 205.833C60.9504 212.664 56.4239 218.565 50.4437 220.276C49.4661 220.557 48.5041 220.699 47.5836 220.699C46.9279 220.699 46.1869 220.623 45.4072 220.417L45.0143 220.303L44.9987 220.327C26.1519 214.806 25.1794 180.341 25.1794 180.341C16.1181 182.499 6.76138 188.458 6.76138 188.458C15.1991 159.553 31.3721 140.662 31.3721 140.662C27.8449 140.386 23.8717 140.457 19.9682 140.704L18.8553 140.78C9.04901 141.485 0 143.213 0 143.213C25.1794 110.81 42.1707 98.9343 42.1707 98.9343C28.8307 93.1073 11.7912 90.1273 11.7912 90.1273C42.4623 72.4168 72.8985 63.7505 72.8985 63.7505C66.2692 57.492 42.4073 49.0772 42.4073 49.0772C47.0661 47.7369 52.5138 46.5072 58.178 45.4044L59.7277 45.1068C60.7638 44.9105 61.8054 44.7184 62.8489 44.5307L64.4153 44.2524C65.2656 44.1031 66.1162 43.9568 66.965 43.8134L68.2367 43.6006C68.4484 43.5655 68.6599 43.5306 68.8712 43.4959L70.1366 43.2897C86.34 40.6738 101.062 39.1787 101.062 39.1787C93.1316 32.4941 75.1855 25.2165 75.1855 25.2165C85.2905 24.8717 94.3271 24.7476 101.944 24.7382L104.049 24.7385C118.975 24.7613 127.909 25.2165 127.909 25.2165C122.334 17.5558 107.966 7.53096 107.966 7.53096C137.884 10.3453 159.21 17.7696 159.21 17.7696C158.983 15.952 157.708 12.5471 156.301 9.20032L155.931 8.32964C154.075 3.99367 152.129 0 152.129 0ZM103.986 188.422C103.097 190.798 102.099 193.369 101.036 195.942C100.887 196.302 100.737 196.663 100.586 197.024L100.13 198.105C96.2288 207.289 91.6622 216.151 86.7644 216.924C86.451 216.973 86.1316 216.999 85.8165 216.999C81.9289 216.999 78.4435 213.411 75.1855 206.044C80.9159 197.965 92.2863 188.555 103.986 188.422ZM194.838 159.553C191.631 171.577 191.203 183.655 190.861 193.356L190.861 193.366C190.64 199.639 190.449 205.056 189.553 208.998C188.354 214.279 185.726 216.957 181.741 216.957L181.605 216.956C177.76 216.894 173.675 213.6 169.197 206.923C171.836 191.808 182.278 172.501 194.838 159.553ZM373.287 41.5094C386.089 41.5094 398.606 47.1457 406.998 56.255C415.378 65.3528 420.563 77.9188 420.563 91.7875C420.563 105.657 415.378 118.22 406.998 127.318C398.606 136.425 386.089 142.063 373.287 142.063C363.911 142.063 354.073 139.159 347.218 132.687L347.237 163.528C347.255 189.459 327.014 185.528 322.326 185.265C320.732 185.175 319.485 184.833 318.62 183.981C317.754 183.128 317.319 181.905 317.319 180.331L317.255 46.6661C317.255 45.0578 317.7 43.7911 318.593 42.9142C319.483 42.035 320.762 41.5966 322.402 41.5966H340.006C341.647 41.5966 342.926 42.035 343.816 42.9142C344.709 43.7911 345.134 45.0457 345.154 46.6661L345.22 51.7743C349.168 48.5166 353.551 45.9855 358.185 44.2513C363.011 42.4492 368.115 41.5094 373.287 41.5094ZM720.824 41.381C722.16 41.381 723.296 41.7419 724.168 42.4153C725.04 43.0911 725.68 44.1229 726.221 45.3945L751.364 104.208L769.4 45.5592C769.786 44.1543 770.465 43.1918 771.392 42.4845C772.291 41.7918 773.444 41.381 774.796 41.381H795.603C797.374 41.381 798.626 41.8944 799.366 42.8294C800.099 43.8007 800.199 45.1571 799.653 46.964L771.668 134.795L760.87 168.874L756.743 181.975C756.285 183.431 755.535 184.453 754.509 185.027L754.211 185.175C753.091 185.63 751.899 185.565 750.497 185.221C745.962 184.102 724.929 181.738 733.344 157.175L738.331 142.603L737.2 139.772L731.732 126.775L697.48 47.2014C696.73 45.5495 697 44.0454 697.673 43.0208C698.374 41.9526 699.604 41.4125 701.337 41.381H720.824ZM64.8374 123.318L41.381 158.627L63.4846 138.417L64.8374 123.318ZM589.547 41.5215C590.585 41.5336 591.423 41.9236 592.036 42.5533C592.941 43.4762 593.371 44.7236 593.371 46.3367V69.6183C593.371 71.1974 593.04 72.3815 592.339 73.171C591.666 73.9584 590.667 74.3556 589.365 74.3556C586.529 74.2563 583.82 74.5521 581.183 75.2423C578.578 75.9303 576.206 77.1171 574.137 78.7277C572.068 80.3724 570.407 82.5811 569.193 85.272C567.968 88.0042 567.345 91.3224 567.328 95.2707L567.19 120.1C567.047 146.031 546.968 142.102 542.28 141.836C540.681 141.746 539.439 141.409 538.573 140.555C537.705 139.7 537.269 138.481 537.269 136.904V46.5304C537.269 44.9536 537.705 43.7353 538.573 42.8803C539.441 42.0253 540.678 41.599 542.28 41.599H562.313C563.919 41.599 565.155 42.0253 566.021 42.8803C566.893 43.7353 567.328 44.9512 567.328 46.5304V51.4934C569.734 47.2934 575.224 41.3302 589.547 41.5215ZM649.285 41.381C671.918 41.381 690.87 55.095 696.868 74.9057C698.032 78.1439 696.095 80.2417 692.807 80.2417H671.531C669.015 80.2417 667.272 79.0985 665.727 77.0029C662.245 72.2413 656.248 69.572 649.285 69.572C636.711 69.572 627.038 78.5268 627.038 91.6689C627.038 104.814 636.711 113.766 649.285 113.766C656.248 113.766 662.245 111.099 665.727 106.529C667.272 104.242 668.817 103.099 671.531 103.099H692.807C696.095 103.099 698.032 105.194 696.868 108.433C690.87 128.243 671.918 141.96 649.285 141.96C619.882 141.96 598.022 120.051 598.022 91.6689C598.022 63.2865 619.882 41.381 649.285 41.381ZM480.516 41.427C487.588 41.4585 494.078 42.7229 499.994 45.2249C505.905 47.7246 511.015 51.2366 515.389 55.732C519.725 60.2591 523.1 65.5415 525.478 71.619C527.856 77.6959 529.079 84.3423 529.111 91.5575C529.111 92.7928 529.079 93.9945 528.98 95.135C528.916 96.3047 528.821 97.4457 528.725 98.584C528.533 100.103 527.952 101.21 527.055 101.907C526.154 102.605 524.964 102.951 523.517 102.951H459.113C460.333 106.686 462.037 109.724 464.285 112.066C466.536 114.377 469.173 116.055 472.127 117.13C475.118 118.206 478.298 118.712 481.675 118.712C484.405 118.68 487.039 118.269 489.548 117.416C492.023 116.561 494.174 115.421 495.943 113.964C496.875 113.206 497.807 112.603 498.708 112.16C499.64 111.719 500.7 111.496 501.92 111.496L520.433 111.308C522.202 111.339 523.485 111.845 524.258 112.826C524.996 113.807 525.028 115.074 524.29 116.624C521.752 122.132 518.375 126.751 514.166 130.455C509.956 134.189 505.07 136.972 499.509 138.874C493.95 140.739 487.878 141.69 481.288 141.69C473.253 141.657 466.022 140.361 459.595 137.828C453.136 135.296 447.638 131.784 443.076 127.226C438.479 122.701 434.976 117.382 432.534 111.339C430.092 105.262 428.869 98.6789 428.837 91.5575C428.869 84.4366 430.124 77.8532 432.63 71.7784C435.136 65.7329 438.671 60.4163 443.268 55.8898C447.833 51.3335 453.296 47.819 459.595 45.2879C465.894 42.7568 472.867 41.4585 480.516 41.427ZM132.025 96.2666L78.8888 121.644L123.176 110.81L132.025 96.2666ZM84.4906 90.1281L42.4073 120.313L76.6939 105.22L84.4906 90.1281ZM372.918 69.3734C360.576 69.3734 350.572 79.2894 350.572 91.521C350.572 103.755 360.576 113.671 372.918 113.671C385.258 113.671 395.261 103.755 395.261 91.521C395.261 79.2894 385.258 69.3734 372.918 69.3734ZM179.69 81.2773L132.488 86.3605L166.995 88.3811L179.69 81.2773ZM480.324 66.6825C474.891 66.7139 470.329 67.9493 466.73 70.4487C463.097 72.9172 460.527 76.5577 459.017 81.3049H500.314C499.286 77.7274 497.743 74.8472 495.685 72.6965C493.663 70.5751 491.284 69.0247 488.616 68.0751C485.947 67.1255 483.185 66.651 480.324 66.6825ZM127.909 67.4246L80.7062 72.5067L115.393 75.8111L127.909 67.4246ZM194.395 61.5077L159.21 68.9684L186.587 67.4246L194.395 61.5077ZM114.445 49.0772L151.037 58.4399L166.994 53.1422L114.445 49.0772ZM152.129 31.0358L181.741 44.8294L195.914 41.8983L152.129 31.0358Z" fill="#fff"/>
</g>
<defs>
<clipPath id="clip0_2_20">
<rect width="800" height="221" fill="white"/>
</clipPath>
</defs>
</svg>
