<svg width="200" height="200" viewBox="0 0 200 200" fill="none" xmlns="http://www.w3.org/2000/svg">
<path d="M51.8602 154.537L47.8416 47.4593C47.7089 43.923 50.4205 40.926 53.9524 40.7052L145.029 35.0129C148.624 34.7882 151.721 37.5205 151.945 41.1156C151.954 41.251 151.958 41.3867 151.958 41.5224V158.202C151.958 161.804 149.038 164.724 145.436 164.724C145.338 164.724 145.241 164.722 145.143 164.718L58.0852 160.808C54.6946 160.655 51.9875 157.928 51.8602 154.537Z" fill="#FF4785"/>
<mask id="mask0_356_6662" style="mask-type:luminance" maskUnits="userSpaceOnUse" x="47" y="35" width="105" height="130">
<path d="M51.8602 154.537L47.8416 47.4593C47.7089 43.923 50.4205 40.926 53.9524 40.7052L145.029 35.0129C148.624 34.7882 151.721 37.5205 151.945 41.1156C151.954 41.251 151.958 41.3867 151.958 41.5224V158.202C151.958 161.804 149.038 164.724 145.436 164.724C145.338 164.724 145.241 164.722 145.143 164.718L58.0852 160.808C54.6946 160.655 51.9875 157.928 51.8602 154.537Z" fill="white"/>
</mask>
<g mask="url(#mask0_356_6662)">
<path d="M124.723 50.9452L125.345 35.9827L137.852 35L138.391 50.4302C138.41 50.9672 137.99 51.4178 137.453 51.4365C137.223 51.4446 136.997 51.3708 136.817 51.2285L131.993 47.4288L126.283 51.7607C125.855 52.0855 125.244 52.0017 124.92 51.5736C124.783 51.3934 124.713 51.1712 124.723 50.9452ZM108.727 83.8948C108.727 86.4323 125.819 85.2161 128.113 83.4337C128.113 66.1539 118.841 57.0736 101.863 57.0736C84.8844 57.0736 75.3716 66.2951 75.3716 80.1275C75.3716 104.219 107.884 104.68 107.884 117.821C107.884 121.509 106.077 123.699 102.104 123.699C96.9259 123.699 94.8789 121.055 95.1197 112.064C95.1197 110.114 75.3716 109.505 74.7695 112.064C73.2364 133.853 86.811 140.137 102.345 140.137C117.396 140.137 129.197 132.114 129.197 117.59C129.197 91.7697 96.2034 92.4614 96.2034 79.6664C96.2034 74.4793 100.057 73.7877 102.345 73.7877C104.753 73.7877 109.088 74.2121 108.727 83.8948Z" fill="white"/>
</g>
</svg>
