<svg height="35.173595mm" viewBox="0 0 192.40909 35.173595" width="192.40909mm" xmlns="http://www.w3.org/2000/svg"><g fill="#fff" transform="translate(-5.84903 -88.913199)"><g><path d="m0 0v6.875c-2.406 3.21-6.99 4.929-11.689 4.929-5.731 0-10.429-3.094-10.429-8.365 0-5.272 4.698-8.251 10.429-8.251 4.699 0 9.283 1.604 11.689 4.812m0-13.294v5.845c-3.782-4.584-10.314-7.22-17.534-7.22-8.825 0-19.139 5.959-19.139 18.336 0 13.065 10.314 17.878 19.139 17.878 7.449 0 13.867-2.407 17.534-6.762v6.992c0 5.614-4.812 9.282-12.147 9.282-5.845 0-11.346-2.292-15.93-6.531l-5.73 10.198c6.761 6.075 15.471 8.71 24.181 8.71 12.72 0 24.295-5.043 24.295-20.971v-35.757z" transform="matrix(.35277777 0 0 -.35277777 52.730294 111.95777)"/><path d="m0 0c0 9.512-5.73 16.044-14.096 16.044-4.699 0-9.971-2.636-12.491-6.303v-19.482c2.406-3.553 7.792-6.418 12.491-6.418 8.366 0 14.096 6.533 14.096 16.159m-26.587-20.628v-28.194h-14.555v76.44h14.555v-6.99c4.239 5.386 10.314 8.365 17.075 8.365 14.21 0 24.524-10.542 24.524-28.993s-10.314-29.11-24.524-29.11c-6.533 0-12.492 2.751-17.075 8.482" transform="matrix(.35277777 0 0 -.35277777 75.449324 106.86348)"/><path d="m0 0c0 9.512-5.73 16.044-14.096 16.044-4.699 0-9.971-2.636-12.491-6.303v-19.482c2.406-3.553 7.792-6.418 12.491-6.418 8.366 0 14.096 6.533 14.096 16.159m-26.587-20.628v-28.194h-14.555v76.44h14.555v-6.99c4.239 5.386 10.314 8.365 17.075 8.365 14.21 0 24.524-10.542 24.524-28.993s-10.314-29.11-24.524-29.11c-6.533 0-12.492 2.751-17.075 8.482" transform="matrix(.35277777 0 0 -.35277777 96.995583 106.86348)"/><path d="m104.02786 89.681197h5.13468v26.965983h-5.13468z"/><path d="m112.23347 97.120574h5.13468v19.526956h-5.13468zm-.48542-5.17525c0-1.698272 1.37442-3.032125 3.03247-3.032125 1.69757 0 3.0727 1.333853 3.0727 3.032125 0 1.69792-1.37513 3.072343-3.0727 3.072343-1.65805 0-3.03247-1.374423-3.03247-3.072343"/><path d="m0 0v28.765h-9.169v12.72h9.169v15.128h14.555v-15.128h11.23v-12.72h-11.23v-24.869c0-3.553 1.833-6.188 5.042-6.188 2.178 0 4.239.802 5.043 1.719l3.094-11.117c-2.177-1.948-6.075-3.552-12.149-3.552-10.199 0-15.585 5.271-15.585 15.242" transform="matrix(.35277777 0 0 -.35277777 121.49063 111.75549)"/><path d="m0 0c0 8.596-5.043 16.044-14.21 16.044-9.053 0-14.096-7.448-14.096-16.044 0-8.71 5.043-16.159 14.096-16.159 9.167 0 14.21 7.449 14.21 16.159m-43.434 0c0 15.7 11.002 28.993 29.224 28.993 18.336 0 29.338-13.293 29.338-28.993 0-15.702-11.002-29.11-29.338-29.11-18.222 0-29.224 13.408-29.224 29.11" transform="matrix(.35277777 0 0 -.35277777 146.15107 106.86348)"/><path d="m0 0c0 8.596-5.043 16.044-14.21 16.044-9.055 0-14.096-7.448-14.096-16.044 0-8.71 5.041-16.159 14.096-16.159 9.167 0 14.21 7.449 14.21 16.159m-43.434 0c0 15.7 11.002 28.993 29.224 28.993 18.336 0 29.338-13.293 29.338-28.993 0-15.702-11.002-29.11-29.338-29.11-18.222 0-29.224 13.408-29.224 29.11" transform="matrix(.35277777 0 0 -.35277777 167.37404 106.86348)"/><path d="m174.52732 89.681197h5.13468v26.965983h-5.13468z"/><path d="m0 0 6.304 10.543c4.124-3.896 12.263-7.678 19.138-7.678 6.304 0 9.284 2.406 9.284 5.845 0 9.053-32.777 1.604-32.777 23.379 0 9.282 8.022 17.418 22.691 17.418 9.284 0 16.732-3.208 22.232-7.563l-5.844-10.314c-3.323 3.439-9.627 6.418-16.388 6.418-5.271 0-8.71-2.292-8.71-5.387 0-8.137 32.891-1.26 32.891-23.608 0-10.2-8.71-17.649-24.067-17.649-9.626 0-18.909 3.21-24.754 8.596" transform="matrix(.35277777 0 0 -.35277777 181.03515 114.10033)"/></g><path d="m22.142523 110.97504c-.453927-.31126-.953514-.6316-1.375481-.90311.0021-.002.0021-.006.0056-.0113-2.265892-1.4351-4.415014-2.55235-6.467828-3.36197.01517-.006.03069-.0134.0448-.0198 2.781362-1.27078 5.517134-2.69027 7.852485-4.2852.235655 1.32997.361244 2.7111.361244 4.12962 0 1.53317-.147814 3.02224-.420864 4.4517m6.155269-13.176248v-4.44606c-1.653627 1.465941-3.330885 2.853992-4.959714 4.091535-1.569156-2.356908-3.722864-4.291542-6.264628-5.578122 1.819275 1.899355 3.274836 4.322586 4.232981 7.07531-4.705725 3.230965-10.464973 6.062125-15.4573573 7.743775 5.9588393 2.45118 10.8093173 4.49639 15.3514813 7.70748-.955675 2.63596-2.372077 4.95265-4.127147 6.78533 2.454275-1.24213 4.5466-3.08963 6.099881-5.33541 2.331155 1.76706 4.285191 3.44205 5.12445 4.21358v-.0127-4.43265-.0134c-.517878-.42616-1.124656-.91899-1.795639-1.44286-.0025.002-.0067.004-.0088.006-.528108-.41275-1.094669-.84879-1.691569-1.29258.820208-1.95333 1.281641-4.09575 1.281641-6.34471 0-2.14454-.419805-4.18994-1.166988-6.06707 1.184604-.89267 2.329438-1.793885 3.381375-2.657476"/></g></svg>