<svg width="205" height="205" viewBox="0 0 205 205" fill="none" xmlns="http://www.w3.org/2000/svg">
<path d="M123.888 130.649C121.077 128.716 117.983 126.727 115.371 125.042C115.384 125.029 115.384 125.004 115.405 124.971C101.375 116.061 88.0681 109.124 75.3573 104.097C75.4512 104.059 75.5473 104.014 75.6347 103.974C92.8566 96.0834 109.796 87.2697 124.256 77.3666C125.716 85.6245 126.493 94.2 126.493 103.008C126.493 112.527 125.578 121.773 123.888 130.649ZM162 48.8363V21.2303C151.761 30.3325 141.376 38.951 131.29 46.635C121.574 32.0008 108.238 19.9885 92.5001 12C103.765 23.7933 112.778 38.8393 118.71 55.9312C89.5729 75.9926 53.9123 93.5715 23 104.013C59.8965 119.233 89.9301 131.931 118.055 151.869C112.137 168.236 103.367 182.621 92.4998 194C107.696 186.288 120.652 174.816 130.27 160.872C144.704 171.844 156.803 182.244 162 187.034V186.956V159.433V159.35C158.793 156.704 155.036 153.644 150.881 150.391C150.866 150.403 150.84 150.416 150.827 150.428C147.557 147.865 144.049 145.158 140.353 142.402C145.431 130.274 148.289 116.972 148.289 103.008C148.289 89.6919 145.689 76.9919 141.063 65.3366C148.398 59.794 155.487 54.1984 162 48.8363Z" fill="#00A399"/>
</svg>
