<svg width="17" height="12" viewBox="0 0 17 12" fill="none" xmlns="http://www.w3.org/2000/svg">
<g id="playwright-logo 1" clip-path="url(#clip0_60_5691)">
<path id="Vector" d="M5.31379 6.77205C4.71654 6.94155 4.32466 7.23874 4.06654 7.53567C4.31379 7.31936 4.64498 7.12074 5.09166 6.99411C5.5486 6.86461 5.93841 6.86555 6.26054 6.92774V6.67586C5.98573 6.65074 5.67073 6.67074 5.31379 6.77205ZM4.03923 4.65474L1.8211 5.23911C1.8211 5.23911 1.86148 5.29624 1.93635 5.37242L3.8171 4.8768C3.8171 4.8768 3.79041 5.22024 3.55898 5.52742C3.99679 5.19624 4.03923 4.65474 4.03923 4.65474ZM5.89604 9.86786C2.77441 10.7086 1.12291 7.09099 0.622913 5.21336C0.391913 4.34661 0.291038 3.69024 0.264163 3.26661C0.261607 3.2283 0.262129 3.18984 0.265726 3.15161C0.103851 3.1613 0.0262883 3.24549 0.0420383 3.4888C0.0689133 3.91211 0.169788 4.56849 0.400788 5.43549C0.900601 7.31286 2.55229 10.9305 5.67391 10.0897C6.35335 9.90667 6.86379 9.5733 7.24704 9.14767C6.89379 9.46667 6.45179 9.71786 5.89604 9.86786ZM6.48254 2.44067V2.66286H7.70691C7.68185 2.58417 7.65654 2.5133 7.63141 2.44067H6.48254Z" fill="#2D4552"/>
<path id="Vector_2" d="M7.98064 4.27039C8.53127 4.42683 8.82252 4.81289 8.97646 5.15452L9.59046 5.32889C9.59046 5.32889 9.50671 4.13314 8.42514 3.82596C7.41333 3.53846 6.79071 4.38814 6.71496 4.49808C7.00933 4.28839 7.43908 4.11671 7.98064 4.27039ZM12.868 5.16002C11.8552 4.87127 11.2328 5.7227 11.1582 5.83108C11.4528 5.62164 11.8823 5.44989 12.4236 5.60427C12.9735 5.76089 13.2644 6.14652 13.4188 6.48839L14.0336 6.66339C14.0336 6.66339 13.9486 5.46745 12.868 5.16002ZM12.258 8.31271L7.15058 6.88489C7.15058 6.88489 7.20589 7.16521 7.41802 7.5282L11.7182 8.73033C12.0722 8.52552 12.258 8.31271 12.258 8.31271ZM8.71702 11.3861C4.67296 10.3018 5.16183 5.14921 5.81621 2.70758C6.08564 1.70133 6.36264 0.953455 6.59239 0.45208C6.45533 0.423893 6.34177 0.49608 6.22964 0.724205C5.98564 1.21883 5.67377 2.02427 5.37202 3.15177C4.71783 5.59339 4.22889 10.7459 8.27277 11.8301C10.1788 12.3408 11.6638 11.5647 12.7706 10.3458C11.72 11.2975 10.3785 11.831 8.71702 11.3861Z" fill="#2D4552"/>
<path id="Vector_3" d="M6.4825 8.66037V7.62055L3.59356 8.4398C3.59356 8.4398 3.807 7.19943 5.31369 6.77205C5.77063 6.64255 6.1605 6.64343 6.4825 6.70562V2.44068H7.92906C7.77156 1.95399 7.61919 1.5793 7.49119 1.31893C7.2795 0.88799 7.0625 1.17368 6.56988 1.58574C6.22288 1.87562 5.34594 2.49405 4.02625 2.84962C2.70663 3.20549 1.63969 3.11112 1.19456 3.03399C0.563502 2.92512 0.23344 2.78649 0.264315 3.26655C0.29119 3.68993 0.392002 4.34636 0.623065 5.2133C1.12281 7.09074 2.77456 10.7083 5.89619 9.86755C6.71156 9.64787 7.28706 9.21355 7.686 8.66005H6.4825V8.6603V8.66037ZM1.82075 5.23911L4.03913 4.65474C4.03913 4.65474 3.9745 5.50811 3.14288 5.72737C2.311 5.94636 1.82075 5.23911 1.82075 5.23911Z" fill="#E2574C"/>
<path id="Vector_4" d="M14.8315 2.49C14.2549 2.59106 12.8714 2.717 11.1617 2.25875C9.45156 1.80075 8.31694 0.999747 7.86738 0.623247C7.23006 0.0894967 6.94975 -0.281503 6.67387 0.279622C6.43 0.774497 6.11806 1.57993 5.81619 2.7075C5.16206 5.14912 4.67313 10.3016 8.717 11.3858C12.7599 12.4691 14.9124 7.76218 15.5666 5.32037C15.8684 4.19306 16.0008 3.33943 16.0372 2.789C16.0787 2.1655 15.6504 2.3465 14.8315 2.49ZM6.70675 4.51006C6.70675 4.51006 7.344 3.51887 8.42488 3.82612C9.50644 4.13331 9.59019 5.329 9.59019 5.329L6.70675 4.51006ZM9.34519 8.95775C7.444 8.40087 7.15081 6.88481 7.15081 6.88481L12.2579 8.31269C12.2579 8.31244 11.2271 9.50768 9.34519 8.95768V8.95775ZM11.1508 5.84212C11.1508 5.84212 11.7872 4.85168 12.8679 5.15975C13.9486 5.46743 14.0336 6.66312 14.0336 6.66312L11.1509 5.84212H11.1508Z" fill="#2EAD33"/>
<path id="Vector_5" d="M5.47301 7.90697L3.59363 8.43959C3.59363 8.43959 3.79776 7.27653 5.18226 6.81565L4.11813 2.82178L4.02619 2.84971C2.70651 3.20559 1.63963 3.11121 1.1945 3.03409C0.563442 2.92528 0.233317 2.78659 0.264192 3.26671C0.291067 3.69009 0.391942 4.34646 0.622942 5.2134C1.12275 7.09084 2.7745 10.7084 5.89607 9.86765L5.98801 9.83878L5.47307 7.9069L5.47301 7.90697ZM1.82082 5.23915L4.03919 4.65471C4.03919 4.65471 3.97457 5.50809 3.14294 5.72734C2.31107 5.94634 1.82082 5.23915 1.82082 5.23915Z" fill="#D65348"/>
<path id="Vector_6" d="M9.43094 8.97864L9.34494 8.9577C7.44375 8.40083 7.15056 6.88483 7.15056 6.88483L9.78413 7.62095L11.1784 2.2632L11.1615 2.25883C9.45138 1.80076 8.31675 0.999764 7.86713 0.623202C7.22988 0.089452 6.9495 -0.281485 6.67363 0.279639C6.43 0.774514 6.11806 1.57995 5.81619 2.70751C5.16206 5.14914 4.67313 10.3016 8.717 11.3858L8.79988 11.4045L9.43094 8.97864ZM6.70675 4.51001C6.70675 4.51001 7.344 3.51883 8.42488 3.82608C9.50644 4.13326 9.59019 5.32895 9.59019 5.32895L6.70675 4.51001Z" fill="#1D8D22"/>
<path id="Vector_7" d="M5.56871 7.87957L5.06471 8.02264C5.18384 8.69389 5.39371 9.33807 5.72309 9.90714C5.78046 9.89451 5.83734 9.88364 5.89571 9.86764C6.04877 9.82639 6.19071 9.7752 6.32734 9.71945C5.95921 9.1732 5.71571 8.5442 5.56871 7.87957ZM5.37196 3.15182C5.11296 4.11851 4.88121 5.50995 4.94502 6.90557C5.05915 6.85601 5.17977 6.80982 5.31377 6.77182L5.40702 6.75095C5.29327 5.2602 5.53915 3.74114 5.81615 2.70757C5.88182 2.46244 5.9521 2.21856 6.02696 1.97607C5.90499 2.05408 5.78046 2.12802 5.65359 2.19776C5.55147 2.51329 5.45756 2.83142 5.37196 3.15182Z" fill="#C04B41"/>
</g>
<defs>
<clipPath id="clip0_60_5691">
<rect width="16.08" height="12" fill="white"/>
</clipPath>
</defs>
</svg>
