<svg width="430" height="359" viewBox="0 0 430 359" fill="none" xmlns="http://www.w3.org/2000/svg">
<g id="Group 13">
<g id="Vector" style="mix-blend-mode:hard-light" opacity="0.8" filter="url(#filter0_dddii_28_94801)">
<path d="M296.567 88.2515C281.355 81.6956 265.09 76.931 248.085 74.218C245.997 77.696 243.557 82.3739 241.875 86.0951C223.798 83.5911 205.887 83.5911 188.143 86.0951C186.461 82.3739 183.966 77.696 181.859 74.218C164.835 76.931 148.551 81.7131 133.339 88.2862C102.657 130.995 94.3391 172.642 98.4979 213.698C118.848 227.697 138.57 236.2 157.959 241.765C162.747 235.696 167.016 229.244 170.694 222.445C163.689 219.993 156.98 216.968 150.64 213.455C152.322 212.307 153.967 211.107 155.557 209.872C194.224 226.532 236.237 226.532 274.443 209.872C276.051 211.107 277.696 212.307 279.359 213.455C273.001 216.985 266.273 220.01 259.268 222.463C262.946 229.244 267.197 235.713 272.003 241.782C291.411 236.217 311.151 227.714 331.501 213.698C336.381 166.104 323.165 124.839 296.567 88.2515ZM175.962 188.449C164.355 188.449 154.836 178.467 154.836 166.312C154.836 154.157 164.152 144.158 175.962 144.158C187.774 144.158 197.292 154.14 197.089 166.312C197.107 178.467 187.774 188.449 175.962 188.449ZM254.037 188.449C242.429 188.449 232.91 178.467 232.91 166.312C232.91 154.157 242.226 144.158 254.037 144.158C265.848 144.158 275.367 154.14 275.164 166.312C275.164 178.467 265.848 188.449 254.037 188.449Z" stroke="#0075FF" stroke-opacity="0.2" stroke-width="12" stroke-linecap="round" stroke-linejoin="round"/>
</g>
<g id="Vector_2" filter="url(#filter1_f_28_94801)">
<path d="M296.567 88.2515C281.355 81.6956 265.09 76.931 248.085 74.218C245.997 77.696 243.557 82.3739 241.875 86.0951C223.798 83.5911 205.887 83.5911 188.143 86.0951C186.461 82.3739 183.966 77.696 181.859 74.218C164.835 76.931 148.551 81.7131 133.339 88.2862C102.657 130.995 94.3391 172.642 98.4979 213.698C118.848 227.697 138.57 236.2 157.959 241.765C162.747 235.696 167.016 229.244 170.694 222.445C163.689 219.993 156.98 216.968 150.64 213.455C152.322 212.307 153.967 211.107 155.557 209.872C194.224 226.532 236.237 226.532 274.443 209.872C276.051 211.107 277.696 212.307 279.359 213.455C273.001 216.985 266.273 220.01 259.268 222.463C262.946 229.244 267.197 235.713 272.003 241.782C291.411 236.217 311.151 227.714 331.501 213.698C336.381 166.104 323.165 124.839 296.567 88.2515ZM175.962 188.449C164.355 188.449 154.836 178.467 154.836 166.312C154.836 154.157 164.152 144.158 175.962 144.158C187.774 144.158 197.292 154.14 197.089 166.312C197.107 178.467 187.774 188.449 175.962 188.449ZM254.037 188.449C242.429 188.449 232.91 178.467 232.91 166.312C232.91 154.157 242.226 144.158 254.037 144.158C265.848 144.158 275.367 154.14 275.164 166.312C275.164 178.467 265.848 188.449 254.037 188.449Z" stroke="#E683FF" stroke-width="7" stroke-linecap="round" stroke-linejoin="round"/>
</g>
<g id="Vector_3" filter="url(#filter2_f_28_94801)">
<path d="M296.567 88.2515C281.355 81.6956 265.09 76.931 248.085 74.218C245.997 77.696 243.557 82.3739 241.875 86.0951C223.798 83.5911 205.887 83.5911 188.143 86.0951C186.461 82.3739 183.966 77.696 181.859 74.218C164.835 76.931 148.551 81.7131 133.339 88.2862C102.657 130.995 94.3391 172.642 98.4979 213.698C118.848 227.697 138.57 236.2 157.959 241.765C162.747 235.696 167.016 229.244 170.694 222.445C163.689 219.993 156.98 216.968 150.64 213.455C152.322 212.307 153.967 211.107 155.557 209.872C194.224 226.532 236.237 226.532 274.443 209.872C276.051 211.107 277.696 212.307 279.359 213.455C273.001 216.985 266.273 220.01 259.268 222.463C262.946 229.244 267.197 235.713 272.003 241.782C291.411 236.217 311.151 227.714 331.501 213.698C336.381 166.104 323.165 124.839 296.567 88.2515ZM175.962 188.449C164.355 188.449 154.836 178.467 154.836 166.312C154.836 154.157 164.152 144.158 175.962 144.158C187.774 144.158 197.292 154.14 197.089 166.312C197.107 178.467 187.774 188.449 175.962 188.449ZM254.037 188.449C242.429 188.449 232.91 178.467 232.91 166.312C232.91 154.157 242.226 144.158 254.037 144.158C265.848 144.158 275.367 154.14 275.164 166.312C275.164 178.467 265.848 188.449 254.037 188.449Z" stroke="white" stroke-width="4" stroke-linecap="round" stroke-linejoin="round"/>
</g>
</g>
<defs>
<filter id="filter0_dddii_28_94801" x="0.296402" y="-2.98619" width="429.408" height="361.972" filterUnits="userSpaceOnUse" color-interpolation-filters="sRGB">
<feFlood flood-opacity="0" result="BackgroundImageFix"/>
<feColorMatrix in="SourceAlpha" type="matrix" values="0 0 0 0 0 0 0 0 0 0 0 0 0 0 0 0 0 0 127 0" result="hardAlpha"/>
<feOffset dy="15.2007"/>
<feGaussianBlur stdDeviation="6.08026"/>
<feColorMatrix type="matrix" values="0 0 0 0 0.0266667 0 0 0 0 0 0 0 0 0 0.0833333 0 0 0 0.5 0"/>
<feBlend mode="multiply" in2="BackgroundImageFix" result="effect1_dropShadow_28_94801"/>
<feColorMatrix in="SourceAlpha" type="matrix" values="0 0 0 0 0 0 0 0 0 0 0 0 0 0 0 0 0 0 127 0" result="hardAlpha"/>
<feOffset dy="20"/>
<feGaussianBlur stdDeviation="12"/>
<feColorMatrix type="matrix" values="0 0 0 0 0.0282625 0 0 0 0 0.004375 0 0 0 0 0.175 0 0 0 0.6 0"/>
<feBlend mode="multiply" in2="effect1_dropShadow_28_94801" result="effect2_dropShadow_28_94801"/>
<feColorMatrix in="SourceAlpha" type="matrix" values="0 0 0 0 0 0 0 0 0 0 0 0 0 0 0 0 0 0 127 0" result="hardAlpha"/>
<feOffset dy="20"/>
<feGaussianBlur stdDeviation="45.602"/>
<feColorMatrix type="matrix" values="0 0 0 0 0.410667 0 0 0 0 0.133333 0 0 0 0 1 0 0 0 0.8 0"/>
<feBlend mode="color-dodge" in2="effect2_dropShadow_28_94801" result="effect3_dropShadow_28_94801"/>
<feBlend mode="normal" in="SourceGraphic" in2="effect3_dropShadow_28_94801" result="shape"/>
<feColorMatrix in="SourceAlpha" type="matrix" values="0 0 0 0 0 0 0 0 0 0 0 0 0 0 0 0 0 0 127 0" result="hardAlpha"/>
<feOffset dx="-1.52007" dy="3.04013"/>
<feGaussianBlur stdDeviation="0.760033"/>
<feComposite in2="hardAlpha" operator="arithmetic" k2="-1" k3="1"/>
<feColorMatrix type="matrix" values="0 0 0 0 1 0 0 0 0 1 0 0 0 0 1 0 0 0 0.5 0"/>
<feBlend mode="normal" in2="shape" result="effect4_innerShadow_28_94801"/>
<feColorMatrix in="SourceAlpha" type="matrix" values="0 0 0 0 0 0 0 0 0 0 0 0 0 0 0 0 0 0 127 0" result="hardAlpha"/>
<feOffset dx="-1.52007" dy="-3.04013"/>
<feGaussianBlur stdDeviation="0.760033"/>
<feComposite in2="hardAlpha" operator="arithmetic" k2="-1" k3="1"/>
<feColorMatrix type="matrix" values="0 0 0 0 1 0 0 0 0 1 0 0 0 0 1 0 0 0 0.4 0"/>
<feBlend mode="normal" in2="effect4_innerShadow_28_94801" result="effect5_innerShadow_28_94801"/>
</filter>
<filter id="filter1_f_28_94801" x="92.0002" y="68.7178" width="246" height="178.564" filterUnits="userSpaceOnUse" color-interpolation-filters="sRGB">
<feFlood flood-opacity="0" result="BackgroundImageFix"/>
<feBlend mode="normal" in="SourceGraphic" in2="BackgroundImageFix" result="shape"/>
<feGaussianBlur stdDeviation="1" result="effect1_foregroundBlur_28_94801"/>
</filter>
<filter id="filter2_f_28_94801" x="93.9801" y="70.698" width="242.04" height="174.604" filterUnits="userSpaceOnUse" color-interpolation-filters="sRGB">
<feFlood flood-opacity="0" result="BackgroundImageFix"/>
<feBlend mode="normal" in="SourceGraphic" in2="BackgroundImageFix" result="shape"/>
<feGaussianBlur stdDeviation="0.760033" result="effect1_foregroundBlur_28_94801"/>
</filter>
</defs>
</svg>
