<svg width="200" height="200" viewBox="0 0 200 200" fill="none" xmlns="http://www.w3.org/2000/svg">
<rect x="0.5" y="0.5" width="199" height="199" rx="19.5" fill="white"/>
<rect x="0.5" y="0.5" width="199" height="199" rx="19.5" stroke="#9E9E9E"/>
<g clip-path="url(#clip0_882_405)">
<path d="M138.775 76.7424C142.222 76.7424 144.718 79.4151 144.718 82.5333C144.718 85.6515 142.044 88.4133 138.24 88.4133C134.792 88.4133 131.954 85.9188 131.954 82.6669C131.954 79.7715 134.866 76.7275 138.789 76.7275L138.775 76.7424Z" fill="#58AEFB"/>
<path d="M22.0209 123.07L23.1057 122.877C24.7403 122.535 24.9335 122.342 24.9335 121.243V97.4264H20V97.0848L24.9335 92.4818L25.1415 90.8039C26.2263 81.197 33.3738 76 43.3299 76C50.0911 76 54.5491 78.6876 54.5491 82.2809C54.5491 85.7852 50.9827 87.953 47.6541 87.953C46.5693 87.953 45.4846 87.8045 44.5336 85.8742L41.0415 78.8212C40.566 77.9452 40.3579 77.6779 39.8973 77.6779C37.8021 77.6779 35.8406 81.5979 36.2418 89.7645L36.3904 92.3333H50.6558L55.515 90.7891L55.6636 90.9376C55.553 92.9553 55.4836 94.9752 55.4555 96.9958V121.318C55.4555 122.342 55.5893 122.535 57.2684 122.877L58.3532 123.07V123.678H41.6507V123.085L42.3194 122.936C43.746 122.669 43.8797 122.342 43.8797 121.243V97.4115H36.5093V121.318C36.5093 122.357 36.6579 122.684 38.0695 122.877L39.4812 123.085V123.678H22.0209V123.085V123.07ZM91.2528 93.3579C92.4713 94.5606 93.3332 96.1197 93.3332 100.248V121.332C93.3332 122.402 93.5412 122.535 95.1758 122.877L96.2606 123.07V123.678H79.2758V123.085L80.3606 122.877C81.5196 122.669 81.7277 122.342 81.7277 121.318V104.034C81.7277 101.658 81.5196 99.9803 80.6429 99.03C79.8519 98.3542 78.8284 98.0133 77.7898 98.0797C76.705 98.0797 75.5608 98.4212 74.3423 98.8221V121.332C74.3423 122.342 74.4909 122.684 75.6351 122.877L76.7199 123.085V123.678H59.75V123.085L60.8348 122.877C62.4545 122.55 62.6477 122.342 62.6477 121.258V100.381C62.6477 99.2379 62.5139 98.6291 61.979 97.8867L60.0769 95.5852V95.3773L74.5504 90.7148L74.699 90.8633C74.5381 92.6818 74.4192 94.5037 74.3423 96.3276L74.2829 97.7382L74.5504 97.8867C78.7408 93.0758 82.3221 91.2642 85.9033 91.2642C88.1322 91.2642 89.96 92.0661 91.2528 93.343V93.3579ZM120.051 93.5509L118.565 92.6006V92.3333H130.75V92.6006L128.908 93.8182C127.154 95.0358 126.277 95.7782 124.925 98.8964L113.973 124.094H110.927L98.6827 96.3276C97.5979 93.8924 97.1373 93.7439 95.4433 93.2836L94.2248 92.9421V92.3482H114.508V92.9421L112.814 93.2836C111.328 93.5509 110.927 93.7439 110.927 94.427C110.927 94.7685 111.061 95.6445 111.388 96.4464L117.406 112.468H117.555L120.125 105.445C121.136 102.608 122.622 97.4115 122.622 96.1939C122.622 95.303 121.552 94.427 120.051 93.5509ZM144.124 121.258C144.124 122.342 144.273 122.535 145.952 122.877L147.037 123.07V123.678H129.517V123.085L130.602 122.877C132.236 122.535 132.429 122.342 132.429 121.243V100.307C132.429 99.1636 132.281 98.5548 131.761 97.7976L129.859 95.5109V95.3624L144.198 90.7742L144.332 90.9227C144.183 93.4173 144.139 96.3276 144.139 96.9958V121.258H144.124ZM178.539 111.25L178.866 111.399L177.321 123.678H148.047L147.898 123.278L165.953 93.5509L165.879 93.4024L162.238 93.8924C159.058 94.2933 157.706 94.8427 156.487 96.0455C155.536 96.9958 152.356 100.916 149.726 104.093L149.325 103.945L151.896 89.9724H152.297L152.639 91.3088C152.832 92.1255 152.98 92.3482 153.857 92.3482H178.866L179.015 92.7491L161.777 122.402L161.911 122.609L163.13 122.402C168.999 121.466 171.377 120.323 173.13 118.541C174.349 117.338 175.3 115.853 178.539 111.265V111.25Z" fill="black"/>
</g>
<defs>
<clipPath id="clip0_882_405">
<rect width="159" height="49" fill="white" transform="translate(20 76)"/>
</clipPath>
</defs>
</svg>
