<svg fill="none" height="200" viewBox="0 0 200 200" width="200" xmlns="http://www.w3.org/2000/svg"><rect fill="#181c1f" height="200" rx="20" width="200"/><path d="m88.0654 104.021c7.3173 4.223 10.9758 6.335 14.9936 6.339 4.018.003 7.681-2.102 15.005-6.313l46.691-26.8388c2.108-1.2116 3.407-3.4575 3.407-5.8887 0-2.4313-1.299-4.6772-3.407-5.8888l-46.707-26.849c-7.317-4.2059-10.976-6.3089-14.99-6.3073s-7.6706 2.1074-14.9841 6.319l-40.1531 23.1229c-.2977.1714-.4464.257-.5851.3382-13.716 8.0293-22.1901 22.6882-22.3034 38.5815-.0012.16-.0012.332-.0012.675s0 .515.0012.675c.113 15.875 8.5683 30.52 22.2598 38.556.1384.082.2868.167.5841.339l25.1518 14.522c14.6558 8.462 21.9836 12.692 30.031 12.695 8.047.003 15.378-4.223 30.039-12.675l26.551-15.306c7.342-4.232 11.013-6.348 13.028-9.837 2.016-3.488 2.016-7.725 2.016-16.199v-16.3697c0-2.3508-1.273-4.5172-3.327-5.6612-1.988-1.1067-4.41-1.0904-6.382.0433l-54.444 31.2956c-3.652 2.1-5.479 3.15-7.483 3.15-2.004.001-3.8313-1.048-7.4853-3.145l-36.8486-21.152c-1.8457-1.06-2.7687-1.59-3.51-1.685-1.69-.218-3.315.728-3.9588 2.306-.2822.692-.2766 1.756-.2652 3.885.0084 1.567.0127 2.35.159 3.07.3281 1.614 1.177 3.076 2.4166 4.159.5535.484 1.2319.876 2.5889 1.659l39.3973 22.739c3.6636 2.114 5.4951 3.171 7.5071 3.172 2.011.001 3.844-1.056 7.508-3.168l48.289-27.836c1.252-.721 1.878-1.082 2.347-.811.47.271.47.994.47 2.439v7.424c0 2.119 0 3.178-.504 4.05s-1.422 1.402-3.257 2.459l-39.83 22.959c-7.332 4.227-10.998 6.341-15.023 6.339-4.024-.002-7.6884-2.119-15.0169-6.352l-37.2636-21.526c-.1183-.068-.1775-.103-.2327-.135-7.8132-4.565-12.6342-12.918-12.6795-21.967-.0003-.064-.0003-.132-.0003-.269v-6.8159c0-4.9957 2.6606-9.6129 6.9827-12.1181 3.8191-2.2139 8.5299-2.2183 12.3531-.0115z" fill="#fff"/></svg>