<svg width="200" height="200" viewBox="0 0 200 200" fill="none" xmlns="http://www.w3.org/2000/svg">
<path d="M72.7489 107.075C66.8884 108.738 63.0431 111.654 60.5102 114.568C62.9364 112.446 66.1862 110.497 70.5693 109.254C75.053 107.983 78.8781 107.993 82.039 108.603V106.131C79.3423 105.885 76.2514 106.081 72.7489 107.075ZM60.2422 86.2988L38.4768 92.0331C38.4768 92.0331 38.8729 92.5936 39.6077 93.3412L58.0626 88.4778C58.0626 88.4778 57.8007 91.8478 55.5297 94.8621C59.8258 91.6123 60.2422 86.2988 60.2422 86.2988V86.2988ZM78.4623 137.453C47.8312 145.703 31.6258 110.205 26.7195 91.7804C24.4528 83.2754 23.4629 76.8346 23.1992 72.6778C23.1741 72.3018 23.1793 71.9245 23.2146 71.5494C21.6262 71.6444 20.8651 72.4705 21.0196 74.858C21.2833 79.0118 22.2732 85.4525 24.5399 93.96C29.4443 112.382 45.6516 147.88 76.2827 139.63C82.9497 137.834 87.9584 134.562 91.719 130.386C88.2528 133.516 83.9156 135.981 78.4623 137.453V137.453ZM84.2173 64.5732V66.7535H96.2316C95.9857 65.9813 95.7373 65.2859 95.4907 64.5732H84.2173Z" fill="#2D4552"/>
<path d="M98.9176 82.5276C104.321 84.0627 107.179 87.8509 108.689 91.2032L114.714 92.9142C114.714 92.9142 113.892 81.1809 103.279 78.1666C93.3508 75.3455 87.2412 83.6831 86.4979 84.7618C89.3865 82.7043 93.6035 81.0196 98.9176 82.5276V82.5276ZM146.875 91.2571C136.937 88.4238 130.83 96.7785 130.098 97.842C132.988 95.7868 137.203 94.1015 142.515 95.6164C147.91 97.1532 150.765 100.937 152.28 104.292L158.313 106.009C158.313 106.009 157.478 94.2739 146.875 91.2571V91.2571ZM140.889 122.193L90.7725 108.183C90.7725 108.183 91.3153 110.933 93.3968 114.495L135.593 126.291C139.066 124.281 140.889 122.193 140.889 122.193V122.193ZM106.143 152.351C66.4607 141.711 71.2578 91.151 77.6789 67.1925C80.3228 57.3186 83.0409 49.98 85.2953 45.0602C83.9504 44.7837 82.836 45.492 81.7358 47.7305C79.3415 52.584 76.2812 60.4874 73.3203 71.5511C66.901 95.5096 62.1033 146.069 101.784 156.708C120.487 161.719 135.058 154.103 145.92 142.143C135.61 151.481 122.447 156.717 106.143 152.351V152.351Z" fill="#2D4552"/>
<path d="M84.217 125.604V115.401L55.8691 123.44C55.8691 123.44 57.9635 111.269 72.7479 107.075C77.2317 105.804 81.0573 105.813 84.217 106.423V64.5733H98.4114C96.866 59.7977 95.3708 56.121 94.1148 53.5661C92.0376 49.3375 89.9083 52.1408 85.0743 56.1842C81.6694 59.0286 73.0644 65.097 60.1149 68.586C47.166 72.0781 36.6966 71.152 32.3288 70.3952C26.1365 69.3269 22.8977 67.9666 23.2007 72.6772C23.4644 76.8316 24.4536 83.273 26.7209 91.7798C31.6248 110.202 47.8327 145.7 78.4638 137.45C86.4647 135.294 92.1118 131.032 96.0264 125.601H84.217V125.604V125.604ZM38.4733 92.0331L60.2412 86.2989C60.2412 86.2989 59.6071 94.6727 51.4467 96.8241C43.2839 98.973 38.4733 92.0331 38.4733 92.0331V92.0331Z" fill="#E2574C"/>
<path d="M166.142 65.0582C160.484 66.0499 146.909 67.2857 130.132 62.7891C113.351 58.2949 102.217 50.4351 97.8061 46.7406C91.5525 41.5032 88.8019 37.8627 86.0948 43.3688C83.7018 48.2248 80.6409 56.1282 77.6787 67.1925C71.2601 91.151 66.4624 141.71 106.143 152.349C145.815 162.979 166.936 116.792 173.355 92.8314C176.317 81.7696 177.616 73.3934 177.973 67.9922C178.381 61.874 174.178 63.6501 166.143 65.0582H166.142ZM86.4174 84.8802C86.4174 84.8802 92.6705 75.1541 103.277 78.169C113.89 81.1833 114.711 92.9161 114.711 92.9161L86.4174 84.8802V84.8802ZM112.307 128.523C93.6517 123.059 90.7748 108.183 90.7748 108.183L140.889 122.194C140.889 122.191 130.773 133.92 112.307 128.523V128.523ZM130.025 97.9511C130.025 97.9511 136.27 88.2324 146.874 91.2553C157.478 94.2745 158.313 106.007 158.313 106.007L130.026 97.9511H130.025Z" fill="#2EAD33"/>
<path d="M74.3112 118.212L55.8698 123.438C55.8698 123.438 57.8728 112.025 71.4582 107.503L61.0165 68.313L60.1143 68.5871C47.1648 72.0792 36.6961 71.1531 32.3282 70.3963C26.1359 69.3286 22.8965 67.9677 23.1995 72.679C23.4632 76.8334 24.4531 83.2741 26.7198 91.7809C31.6242 110.203 47.8321 145.701 78.4626 137.451L79.3647 137.168L74.3119 118.211L74.3112 118.212ZM38.474 92.0336L60.2419 86.2988C60.2419 86.2988 59.6077 94.6726 51.4474 96.824C43.2846 98.9729 38.474 92.0336 38.474 92.0336V92.0336Z" fill="#D65348"/>
<path d="M113.149 128.728L112.305 128.523C93.6493 123.059 90.7724 108.183 90.7724 108.183L116.614 115.406L130.295 62.8328L130.13 62.7899C113.349 58.2951 102.216 50.4352 97.8037 46.7402C91.5506 41.5028 88.7994 37.8629 86.0924 43.369C83.7018 48.225 80.6409 56.1284 77.6787 67.1926C71.2601 91.1512 66.4624 141.71 106.143 152.348L106.956 152.532L113.149 128.728ZM86.4174 84.8797C86.4174 84.8797 92.6705 75.1537 103.277 78.1686C113.89 81.1829 114.711 92.9156 114.711 92.9156L86.4174 84.8797Z" fill="#1D8D22"/>
<path d="M75.2503 117.944L70.3048 119.347C71.4737 125.934 73.5331 132.255 76.7651 137.839C77.3281 137.715 77.8862 137.609 78.459 137.452C79.961 137.047 81.3537 136.544 82.6944 135.997C79.0821 130.637 76.6934 124.465 75.2509 117.944H75.2503ZM73.3197 71.5522C70.7783 81.0379 68.5042 94.6915 69.1304 108.386C70.2502 107.9 71.4339 107.447 72.7487 107.074L73.6638 106.869C72.5476 92.2408 74.9602 77.3349 77.6783 67.193C78.3227 64.7876 79.0123 62.3946 79.7469 60.0151C78.5501 60.7806 77.3282 61.5061 76.0832 62.1905C75.0811 65.2866 74.1597 68.4083 73.3197 71.5522V71.5522Z" fill="#C04B41"/>
</svg>
