<svg width="100" height="100" viewBox="0 0 100 100" fill="none" xmlns="http://www.w3.org/2000/svg">
<g clip-path="url(#clip0_306_4546)">
<path fill-rule="evenodd" clip-rule="evenodd" d="M49.8838 12.5C28.3821 12.5 11 29.9167 11 51.4635C11 68.687 22.1373 83.2663 37.5877 88.4264C39.5193 88.8143 40.2269 87.588 40.2269 86.5565C40.2269 85.6532 40.1632 82.557 40.1632 79.3309C29.3467 81.6537 27.0943 74.6862 27.0943 74.6862C25.356 70.1705 22.7804 69.01 22.7804 69.01C19.2401 66.6231 23.0383 66.6231 23.0383 66.6231C26.9653 66.8812 29.026 70.6226 29.026 70.6226C32.5017 76.5569 38.1026 74.8802 40.3559 73.8478C40.6774 71.3319 41.7081 69.5902 42.8025 68.6228C34.1756 67.7195 25.0989 64.3652 25.0989 49.3988C25.0989 45.1412 26.643 41.6579 29.0896 38.9488C28.7036 37.9814 27.3513 33.9811 29.4765 28.627C29.4765 28.627 32.7596 27.5947 40.1624 32.6265C43.3319 31.7736 46.6004 31.3398 49.8838 31.3361C53.167 31.3361 56.5138 31.7882 59.6044 32.6265C67.008 27.5947 70.2911 28.627 70.2911 28.627C72.4163 33.9811 71.0632 37.9814 70.6772 38.9488C73.1883 41.6579 74.6687 45.1412 74.6687 49.3988C74.6687 64.3652 65.592 67.6546 56.9006 68.6228C58.3173 69.8483 59.5399 72.1703 59.5399 75.8476C59.5399 81.0726 59.4762 85.266 59.4762 86.5557C59.4762 87.588 60.1846 88.8143 62.1155 88.4272C77.5658 83.2655 88.7031 68.687 88.7031 51.4635C88.7668 29.9167 71.3211 12.5 49.8838 12.5Z" fill="#24292F"/>
</g>
<defs>
<clipPath id="clip0_306_4546">
<rect width="78" height="76" fill="white" transform="translate(11 12.5)"/>
</clipPath>
</defs>
</svg>
