<svg width="100" height="100" viewBox="0 0 100 100" fill="none" xmlns="http://www.w3.org/2000/svg">
<g clip-path="url(#clip0_306_4716)">
<path d="M85.4095 42.9544L85.3065 42.7022L75.3356 17.7615C75.1327 17.2727 74.7735 16.858 74.3095 16.577C73.8452 16.3008 73.3036 16.1677 72.7579 16.1958C72.2122 16.2239 71.6887 16.4119 71.2579 16.7342C70.832 17.0658 70.523 17.5152 70.373 18.0211L63.6405 37.763H36.3788L29.6463 18.0211C29.5003 17.5124 29.1906 17.0608 28.7613 16.7306C28.3306 16.4082 27.8071 16.2203 27.2614 16.1922C26.7157 16.1641 26.1741 16.2971 25.7098 16.5733C25.2468 16.8555 24.8879 17.2698 24.6837 17.7579L14.6937 42.6875L14.5945 42.9398C13.1592 46.5343 12.982 50.4787 14.0897 54.1781C15.1975 57.8775 17.53 61.1315 20.7358 63.4495L20.7701 63.4751L20.8616 63.5372L36.0507 74.4392L43.5652 79.8901L48.1425 83.2024C48.6779 83.592 49.3317 83.8029 50.0039 83.8029C50.6762 83.8029 51.3299 83.592 51.8654 83.2024L56.4427 79.8901L63.9571 74.4392L79.2377 63.4714L79.2759 63.4422C82.4744 61.1238 84.8016 57.8732 85.9076 54.1787C87.0137 50.4842 86.8389 46.5455 85.4095 42.9544Z" fill="#E24329"/>
<path d="M85.4095 42.9547L85.3065 42.7024C80.448 43.6582 75.8698 45.6306 71.8988 48.4787L50.0001 64.3491C57.4573 69.7562 63.9495 74.454 63.9495 74.454L79.2301 63.4863L79.2683 63.457C82.4714 61.1388 84.8021 57.886 85.9097 54.1884C87.0173 50.4908 86.8417 46.5484 85.4095 42.9547Z" fill="#FC6D26"/>
<path d="M36.0508 74.4546L43.5653 79.9055L48.1426 83.2178C48.678 83.6074 49.3318 83.8183 50.004 83.8183C50.6763 83.8183 51.3301 83.6074 51.8655 83.2178L56.4428 79.9055L63.9572 74.4546C63.9572 74.4546 57.4574 69.7421 50.0002 64.3496C42.543 69.7421 36.0508 74.4546 36.0508 74.4546Z" fill="#FCA326"/>
<path d="M28.0977 48.4792C24.1299 45.6252 19.5526 43.6477 14.6938 42.6882L14.5946 42.9405C13.1592 46.535 12.9821 50.4793 14.0898 54.1788C15.1975 57.8782 17.5301 61.1322 20.7358 63.4502L20.7702 63.4758L20.8617 63.5379L36.0508 74.4398C36.0508 74.4398 42.5353 69.742 50.0002 64.3349L28.0977 48.4792Z" fill="#FC6D26"/>
</g>
<defs>
<clipPath id="clip0_306_4716">
<rect width="74" height="68" fill="white" transform="translate(13 16)"/>
</clipPath>
</defs>
</svg>
