<svg width="100" height="100" viewBox="0 0 100 100" fill="none" xmlns="http://www.w3.org/2000/svg">
<path fill-rule="evenodd" clip-rule="evenodd" d="M41.4653 18C37.9275 18.0026 35.0643 20.8679 35.0669 24.3987C35.0643 27.9295 37.9301 30.7948 41.4679 30.7974H47.869V24.4013C47.8716 20.8705 45.0058 18.0052 41.4653 18C41.4679 18 41.4679 18 41.4653 18ZM41.4653 35.0667H24.4011C20.8632 35.0693 17.9974 37.9346 18 41.4654C17.9948 44.9962 20.8606 47.8615 24.3984 47.8667H41.4653C45.0032 47.8641 47.869 44.9988 47.8664 41.468C47.869 37.9346 45.0032 35.0693 41.4653 35.0667Z" fill="#36C5F0"/>
<path fill-rule="evenodd" clip-rule="evenodd" d="M82.0004 41.4654C82.003 37.9346 79.1372 35.0693 75.5994 35.0667C72.0615 35.0693 69.1957 37.9346 69.1983 41.4654V47.8667H75.5994C79.1372 47.8641 82.003 44.9988 82.0004 41.4654ZM64.9335 41.4654V24.3987C64.9362 20.8705 62.0729 18.0052 58.5351 18C54.9973 18.0026 52.1314 20.8679 52.134 24.3987V41.4654C52.1288 44.9962 54.9946 47.8615 58.5325 47.8667C62.0703 47.8641 64.9362 44.9988 64.9335 41.4654Z" fill="#2EB67D"/>
<path fill-rule="evenodd" clip-rule="evenodd" d="M58.5325 82.0004C62.0704 81.9978 64.9362 79.1325 64.9336 75.6017C64.9362 72.071 62.0704 69.2056 58.5325 69.203H52.1315V75.6017C52.1289 79.1299 54.9947 81.9952 58.5325 82.0004ZM58.5325 64.9311H75.5994C79.1372 64.9285 82.0031 62.0632 82.0005 58.5324C82.0057 55.0016 79.1399 52.1363 75.602 52.1311H58.5351C54.9973 52.1337 52.1315 54.999 52.1341 58.5298C52.1315 62.0632 54.9947 64.9285 58.5325 64.9311Z" fill="#ECB22E"/>
<path fill-rule="evenodd" clip-rule="evenodd" d="M18.0002 58.5323C17.9976 62.063 20.8635 64.9284 24.4013 64.931C27.9391 64.9284 30.805 62.063 30.8024 58.5323V52.1335H24.4013C20.8635 52.1362 17.9976 55.0015 18.0002 58.5323ZM35.0671 58.5323V75.599C35.0619 79.1297 37.9277 81.9951 41.4656 82.0003C45.0034 81.9977 47.8692 79.1323 47.8666 75.6016V58.5375C47.8718 55.0067 45.006 52.1414 41.4682 52.1362C37.9277 52.1362 35.0645 55.0015 35.0671 58.5323Z" fill="#E01E5A"/>
</svg>
