<svg fill="none" height="180" viewBox="0 0 833 180" width="833" xmlns="http://www.w3.org/2000/svg" xmlns:xlink="http://www.w3.org/1999/xlink"><clipPath id="a"><path d="m52 66h731v65h-731z"/></clipPath><g clip-path="url(#a)"><path clip-rule="evenodd" d="m52 67.3325h26.2946c14.6253 0 22.2724 7.6484 22.2724 17.0409 0 6.4837-3.6145 10.8875-8.6271 13.2166v.168c6.4103 2.329 10.0251 7.48 10.0251 14.045 0 9.393-7.1493 17.621-22.5994 17.621h-27.3656zm25.4752 24.6025c4.3539 0 6.33-2.2425 6.33-4.7395 0-2.4971-1.9708-4.8209-6.33-4.8209h-7.7223v9.5604zm.2464 22.441c4.6002 0 6.8226-2.242 6.8226-5.151s-2.3028-5.151-6.737-5.151h-8.0543v10.308h7.9687zm28.0194-10.221v-36.8225h17.913v36.6545c0 6.901 3.369 10.557 9.12 10.557 5.752 0 9.367-3.656 9.367-10.638v-36.5735h17.999v36.8225c0 15.627-10.352 26.85-27.366 26.85s-27.039-11.223-27.039-26.85zm100.01-33.8325v15.9575c-3.861-2.7408-10.437-4.6529-15.777-4.6529-4.846 0-7.315 1.5817-7.315 3.6563s2.71 3.1579 7.562 4.9021c8.22 2.9087 19.391 6.8141 19.391 20.0305 0 11.803-8.793 20.529-24.243 20.529-7.969 0-15.284-2.329-19.804-5.4v-16.792c4.439 3.657 11.176 6.565 17.667 6.565 5.505 0 8.054-2.08 8.054-4.403 0-2.99-4.193-4.323-9.205-6.154-6.577-2.41-17.009-6.7326-17.009-18.7847 0-10.8875 8.467-19.7817 23.585-19.7817 6.656 0 12.654 1.7442 17.094 4.3225zm8.461-2.99h17.914v62.0915h-17.914zm81.605 62.0915h-17.095l-22.106-33.329h-.081v33.329h-17.008v-62.0915h17.094l22.107 32.7495h.08v-32.7495h17.009zm7.395-62.0915h42.404v16.1255h-24.49v7.4804h22.021v14.6306h-22.021v7.729h24.49v16.126h-42.404zm87.356 2.99v15.9575c-3.861-2.7408-10.437-4.6529-15.777-4.6529-4.846 0-7.315 1.5817-7.315 3.6563s2.71 3.1579 7.562 4.9021c8.22 2.9087 19.391 6.8141 19.391 20.0305 0 11.803-8.793 20.529-24.243 20.529-7.969 0-15.284-2.329-19.804-5.4v-16.792c4.439 3.657 11.176 6.565 17.667 6.565 5.505 0 8.054-2.08 8.054-4.403 0-2.99-4.193-4.323-9.205-6.154-6.577-2.41-17.009-6.7326-17.009-18.7847 0-10.8875 8.467-19.7817 23.585-19.7817 6.657 0 12.655 1.7442 17.094 4.3225zm47.416 0v15.9575c-3.861-2.7408-10.437-4.6529-15.777-4.6529-4.846 0-7.315 1.5817-7.315 3.6563s2.71 3.1579 7.562 4.9021c8.22 2.9087 19.391 6.8141 19.391 20.0305 0 11.803-8.793 20.529-24.243 20.529-7.969 0-15.284-2.329-19.804-5.4v-16.792c4.439 3.657 11.176 6.565 17.667 6.565 5.505 0 8.054-2.08 8.054-4.403 0-2.99-4.193-4.323-9.205-6.154-6.577-2.41-17.009-6.7326-17.009-18.7847 0-10.8875 8.467-19.7817 23.585-19.7817 6.657 0 12.655 1.7442 17.094 4.3225zm24.618 59.2205h17.914v-62.0859h-17.914v62.0909zm81.594-62.0859h-17.008v32.7489h-.081l-22.107-32.7489h-17.094v62.0909h17.009v-33.3284h.08l22.107 33.3284h17.094zm28.833-1.3325c-15.123 0-23.585 8.8942-23.585 19.7817 0 12.0521 10.438 16.3747 17.009 18.7847 5.012 1.831 9.205 3.158 9.205 6.154 0 2.329-2.549 4.403-8.054 4.403-6.491 0-13.233-2.908-17.667-6.565v16.792c4.52 3.077 11.835 5.4 19.804 5.4 15.45 0 24.243-8.726 24.243-20.529 0-13.2164-11.176-17.1218-19.391-20.0305-4.847-1.7442-7.562-2.7409-7.562-4.9021 0-2.1613 2.463-3.6563 7.315-3.6563 5.34 0 11.916 1.9121 15.777 4.6529v-15.9629c-4.439-2.5783-10.437-4.3225-17.094-4.3225zm25.138 63.4184h17.913v-62.0859h-17.913v62.0909zm43.223-16.375h3.454c9.286 0 15.284-5.319 15.284-14.63 0-9.3113-5.998-14.7117-15.284-14.7117h-3.454zm36.817-14.63c0 18.704-13.972 31.005-34.022 31.005h-20.709v-62.0859h20.709c20.05 0 34.022 12.3825 34.022 31.0863zm4.858 31.005h42.403v-16.125h-24.49v-7.73h22.021v-14.6305h-22.021v-7.4804h24.49v-16.12h-42.403v62.0909zm70.599-32.7492c4.52 0 8.054-2.1613 8.054-6.4838s-3.535-6.4837-8.135-6.4837h-3.781v12.9675zm29.336 32.7492h-21.121l-11.67-19.202h-.412v19.202h-17.913v-62.0859h21.86c15.37 0 26.048 6.9009 26.048 21.6125 0 5.8175-2.549 14.2944-12.74 18.6174l15.943 21.861z" fill="#111" fill-rule="evenodd"/></g></svg>