<svg fill="none" height="180" viewBox="0 0 520 180" width="520" xmlns="http://www.w3.org/2000/svg" xmlns:xlink="http://www.w3.org/1999/xlink"><clipPath id="a"><path d="m73 49h373.54v100h-373.54z"/></clipPath><g clip-path="url(#a)"><path clip-rule="evenodd" d="m169.007 149h-61.43c-19.07 0-34.577-15.61-34.577-34.798 0-9.151 3.5006-17.7949 9.8617-24.3355 5.5721-5.7241 12.7901-9.2871 20.5983-10.214.922-7.8587 4.459-15.1241 10.152-20.73 6.499-6.4041 15.086-9.9225 24.18-9.9225 9.091 0 17.68 3.5184 24.18 9.9199 5.669 5.5823 9.195 12.8082 10.141 20.6249 17.615 1.5886 31.471 16.5262 31.471 34.6592 0 19.186-15.517 34.796-34.58 34.796zm.118-6.524h.264c15.256 0 27.666-12.559 27.666-27.998 0-15.4352-12.41-27.9943-27.666-27.9943h-.277c-1.992 0-3.624-1.604-3.669-3.625-.344-15.0773-12.748-27.337-27.655-27.337-14.906 0-27.316 12.2651-27.657 27.3424-.045 1.9835-1.624 3.5822-3.587 3.6276-14.8959.3475-27.0148 12.9013-27.0148 27.9893 0 15.438 12.4098 27.997 27.6658 27.997h.225l.087-.005c.079 0 .159 0 .238.005h61.372zm-13.6-30.359v-.006c.593.389.76 1.193.373 1.791-.248.378-.658.588-1.076.588-.241 0-.486-.068-.7-.21-.578-.378-1.053-.808-1.45-1.26-4.329 3.931-9.802 5.895-15.275 5.895-5.459 0-10.919-1.956-15.24-5.869-.395.447-.865.867-1.427 1.234-.216.142-.459.21-.7.21-.423 0-.83-.207-1.076-.585-.389-.596-.222-1.397.374-1.791 2.186-1.431 2.291-4.07 2.291-4.175.023-.709.616-1.281 1.314-1.26.705.018 1.267.604 1.254 1.313 0 .094-.04 1.349-.64 2.825 7.779 7.36 19.979 7.349 27.743-.045-.585-1.454-.622-2.688-.627-2.783-.013-.709.551-1.3 1.262-1.313.71-.01 1.29.552 1.306 1.266.005.115.112 2.744 2.294 4.175zm69.365-13.1542c0-3.3513.523-6.3318 1.568-8.9414 1.044-2.6097 2.447-4.821 4.207-6.634s3.809-3.1865 6.146-4.1205c2.338-.9339 4.799-1.4009 7.384-1.4009 2.64 0 4.908.4807 6.806 1.4421 1.897.9615 3.533 2.074 4.908 3.3376l-3.382 4.3677c-1.21-1.0438-2.461-1.8954-3.754-2.5547-1.292-.6592-2.736-.9889-4.331-.9889-1.815 0-3.492.3709-5.032 1.1125-1.54.7417-2.86 1.7993-3.96 3.1728s-1.966 3.0079-2.599 4.9034c-.632 1.8954-.949 3.9968-.949 6.3043 0 2.3072.303 4.3952.908 6.2632s1.444 3.475 2.516 4.821c1.073 1.346 2.379 2.39 3.919 3.131 1.54.742 3.217 1.113 5.032 1.113 1.925 0 3.671-.398 5.239-1.195 1.567-.797 2.956-1.744 4.166-2.843l3.052 4.45c-1.815 1.593-3.836 2.857-6.063 3.791-2.228.934-4.551 1.401-6.971 1.401-2.64 0-5.115-.467-7.425-1.401s-4.304-2.294-5.981-4.079c-1.678-1.786-2.998-3.984-3.96-6.593-.963-2.61-1.444-5.563-1.444-8.8592zm34.708 0c0-3.3513.509-6.3318 1.526-8.9414 1.018-2.6097 2.379-4.821 4.084-6.634s3.671-3.1865 5.898-4.1205c2.228-.9339 4.579-1.4009 7.054-1.4009s4.826.467 7.054 1.4009c2.227.934 4.193 2.3075 5.898 4.1205s3.066 4.0243 4.084 6.634c1.017 2.6096 1.526 5.5901 1.526 8.9414 0 3.2962-.509 6.2492-1.526 8.8592-1.018 2.609-2.379 4.807-4.084 6.593-1.705 1.785-3.671 3.145-5.898 4.079-2.228.934-4.579 1.401-7.054 1.401s-4.826-.467-7.054-1.401c-2.227-.934-4.193-2.294-5.898-4.079-1.705-1.786-3.066-3.984-4.084-6.593-1.017-2.61-1.526-5.563-1.526-8.8592zm6.873-.1056c0 2.3078.275 4.3948.825 6.2628s1.333 3.475 2.351 4.821c1.017 1.346 2.241 2.39 3.671 3.132s2.998 1.112 4.703 1.112 3.272-.37 4.702-1.112 2.654-1.786 3.671-3.132c1.018-1.346 1.801-2.953 2.351-4.821s.825-3.955.825-6.2628c0-2.3074-.275-4.4089-.825-6.3043s-1.333-3.5299-2.351-4.9034c-1.017-1.3734-2.241-2.431-3.671-3.1727s-2.997-1.1125-4.702-1.1125-3.273.3708-4.703 1.1125-2.654 1.7993-3.671 3.1727c-1.018 1.3735-1.801 3.008-2.351 4.9034s-.825 3.9969-.825 6.3043zm34.708 16.4648 21.119-30.9037h-18.809v-5.5214h27.389v3.626l-21.119 30.9031h21.779v5.522h-30.359zm35.355 14.669c.44.11.935.233 1.485.371.55.137 1.072.206 1.567.206 2.31 0 4.194-.811 5.651-2.431 1.458-1.621 2.599-3.668 3.424-6.14l.907-2.967-16.087-40.1331h7.012l8.168 22.1681c.605 1.758 1.251 3.612 1.938 5.563.688 1.95 1.334 3.859 1.939 5.727h.33c.605-1.813 1.183-3.708 1.733-5.686s1.1-3.846 1.65-5.604l7.177-22.1681h6.6l-15.097 43.3471c-.715 1.978-1.513 3.819-2.393 5.522s-1.925 3.172-3.135 4.409c-1.21 1.236-2.585 2.211-4.125 2.925s-3.327 1.071-5.362 1.071c-.935 0-1.787-.068-2.557-.206-.77-.137-1.485-.343-2.145-.618zm35.779-15.236c0-1.593.481-2.87 1.443-3.832.963-.961 2.132-1.442 3.507-1.442 1.32 0 2.461.481 3.423 1.442.963.962 1.444 2.239 1.444 3.832 0 1.484-.481 2.706-1.444 3.668-.962.961-2.103 1.442-3.423 1.442-1.375 0-2.544-.481-3.507-1.442-.962-.962-1.443-2.184-1.443-3.668zm24.29-43.9612c-1.32 0-2.434-.412-3.341-1.2361-.908-.8241-1.362-1.868-1.362-3.1316 0-1.3185.454-2.3761 1.362-3.1727.907-.7967 2.021-1.195 3.341-1.195s2.433.3983 3.341 1.195c.907.7966 1.361 1.8542 1.361 3.1727 0 1.2636-.454 2.3075-1.361 3.1316-.908.8241-2.021 1.2361-3.341 1.2361zm-3.672 8.1031h6.765v40.0511h-6.765zm16.151 20.0659c0-3.3513.509-6.3318 1.527-8.9414 1.017-2.6097 2.378-4.821 4.083-6.634s3.672-3.1865 5.899-4.1205c2.227-.9339 4.579-1.4009 7.054-1.4009s4.826.467 7.053 1.4009c2.228.934 4.194 2.3075 5.899 4.1205s3.066 4.0243 4.083 6.634c1.018 2.6096 1.527 5.5901 1.527 8.9414 0 3.2962-.509 6.2492-1.527 8.8592-1.017 2.609-2.378 4.807-4.083 6.593-1.705 1.785-3.671 3.145-5.899 4.079-2.227.934-4.578 1.401-7.053 1.401s-4.827-.467-7.054-1.401-4.194-2.294-5.899-4.079c-1.705-1.786-3.066-3.984-4.083-6.593-1.018-2.61-1.527-5.563-1.527-8.8592zm7.217-.1056c0 2.3078.275 4.3948.825 6.2628s1.334 3.475 2.351 4.821c1.018 1.346 2.241 2.39 3.671 3.132s2.998 1.112 4.703 1.112 3.272-.37 4.702-1.112 2.654-1.786 3.671-3.132c1.018-1.346 1.802-2.953 2.352-4.821s.825-3.955.825-6.2628c0-2.3074-.275-4.4089-.825-6.3043s-1.334-3.5299-2.352-4.9034c-1.017-1.3734-2.241-2.431-3.671-3.1727s-2.997-1.1125-4.702-1.1125-3.273.3708-4.703 1.1125-2.653 1.7993-3.671 3.1727c-1.017 1.3735-1.801 3.008-2.351 4.9034s-.825 3.9969-.825 6.3043z" fill="#297ef1" fill-rule="evenodd"/></g></svg>