<svg fill="none" height="180" viewBox="0 0 520 180" width="520" xmlns="http://www.w3.org/2000/svg" xmlns:xlink="http://www.w3.org/1999/xlink"><clipPath id="a"><path d="m111 53h298v75h-298z"/></clipPath><g clip-path="url(#a)" fill="#000"><path d="m224.647 54.0101c-9.282 3.2531-13.725 9.2757-13.725 18.7273v3.9125h-2.639c-1.452 0-2.64.1319-2.64.3516 0 .1759 1.144.9671 2.596 1.7586 2.507 1.3628 2.551 1.4506 2.859 3.6926.132 1.2748.264 10.4186.264 20.3543v18.023l-2.288 2.067-2.331 2.066 12.669.044c6.951 0 12.626-.132 12.626-.352 0-.176-.968-1.099-2.2-2.066l-2.199-1.759v-20.573c0-19.4748.044-20.6179.792-20.3102.396.1319 2.859.3958 5.498.5277l4.707.2638v-4.0884h-10.909l-2.508-2.7256c-4.839-5.2313-7.742-10.6385-7.082-13.2762.967-3.9564 5.411-3.7806 10.469.4396 2.728 2.286 6.247 6.7261 7.875 9.8912.704 1.4507 1.452 2.5937 1.628 2.5937.572-.044 8.05-12.7926 7.918-13.5399-.22-1.143-5.235-4.7038-8.138-5.8028-1.628-.6155-3.915-1.0551-6.291-1.187-3.167-.1318-4.223 0-6.951.9672z"/><path clip-rule="evenodd" d="m147.135 56.2521c-1.962.6126-4.047 1.2538-5.881 1.8176-2.113.6496-3.894 1.197-4.765 1.4794-1.672.4836-2.992 1.055-2.992 1.2309 0 .2198 1.276.8352 2.86 1.4067l2.903 1.0111-.264 13.1444-3.299-.0881c-10.47-.2638-19.796 6.5063-23.139 16.7932-1.54 4.7477-1.936 12.9247-.88 17.8917 1.847 8.749 7.654 14.595 15.573 15.694l1.935.264 5.411-5.495 5.411-5.451.264 2.593c.616 5.803 2.948 8.397 7.391 8.089 3.123-.176 5.234-1.538 8.358-5.319 3.3-4 6.687-9.012 6.291-9.408-.132-.176-1.672.44-3.344 1.319-1.627.923-3.123 1.671-3.255 1.671s-.22-13.76-.22-30.5531c0-16.7929-.132-30.5527-.308-30.5087-.22 0-3.827 1.099-8.05 2.4179zm-11.042 23.563c.572.4835 1.452 1.8463 1.98 2.9453.879 1.9343.923 2.8134 1.055 16.8809l.132 14.8147-1.891.879c-2.86 1.319-4.136 1.143-6.071-.791-3.036-2.989-4.179-9.496-3.827-21.5847.22-8.4406.747-10.9024 2.815-12.9684 1.496-1.4947 4.311-1.5827 5.807-.1758z" fill-rule="evenodd"/><path d="m334.977 76.65 6.863-7.913c3.783-4.3521 7.083-7.7811 7.258-7.6492.22.1319.397 3.6927.397 7.9129v7.6493h9.677v4.0884l-4.75-.3078-4.797-.2638-.263 6.2424c-.439 9.4955-.353 23.2108.133 25.0578 1.011 3.517 4.574 4.835 8.094 2.945.923-.483 1.804-.791 1.892-.659.835.835-8.975 10.902-11.922 12.309-3.607 1.714-9.064.22-11.395-3.077-2.331-3.298-2.507-4.968-2.814-24.6186l-.265-18.1118-2.551-1.4506c-1.452-.8353-2.595-1.6266-2.595-1.8463 0-.1758 1.583-.3077 3.519-.3077z"/><path clip-rule="evenodd" d="m184.307 75.5948c-10.69 2.7256-17.553 8.3965-20.5 16.881-1.364 3.8684-1.672 11.8252-.66 15.8702 2.772 10.902 12.054 18.111 23.36 18.199 3.827 0 4.047-.044 6.158-1.494 2.684-1.891 13.462-12.353 13.198-12.837-.132-.176-1.452.176-2.904.747-3.475 1.407-6.158 1.715-9.414 1.055-3.651-.747-7.126-2.681-10.03-5.627-2.199-2.242-5.587-7.121-5.587-8.088 0-.176 2.772-.3519 6.115-.3519 4.971 0 6.687-.1758 9.106-.9232 3.652-1.0989 9.15-3.9125 10.91-5.495 1.144-1.0551 1.232-1.407 1.012-3.4291-.528-5.9347-4.531-11.4298-9.766-13.408-2.596-1.0112-8.93-1.6266-10.998-1.099zm-1.54 5.0994c2.904 1.9782 5.147 7.6493 5.939 14.7708l.308 2.7697-12.186-.2638-.791-2.8575c-1.144-3.9126-1.232-10.6825-.176-12.6168 1.539-2.8575 4.267-3.5607 6.906-1.8024z" fill-rule="evenodd"/><path clip-rule="evenodd" d="m244.311 86.2334c4.399-4.7918 10.602-8.7042 16.321-10.1989 3.123-.8354 7.654-.8793 10.294-.088 3.343 1.0112 5.323 2.5937 6.598 5.2315 1.804 3.6487 2.024 7.5611 1.364 21.409-.352 6.638-.572 12.133-.484 12.221.088.044 1.452-.572 2.992-1.451 2.815-1.538 3.871-1.846 3.871-1.187 0 .616-6.203 9.056-8.051 10.99-3.959 4.045-8.886 4.792-11.745 1.759-1.496-1.539-1.892-2.858-2.156-7.166l-.264-3.956-1.54 2.857c-.835 1.583-2.815 4.176-4.398 5.803-2.332 2.33-3.388 3.033-5.28 3.605-6.246 1.846-12.361-.22-14.341-4.968-.968-2.33-.791-6.902.44-9.495 2.2-4.704 7.435-8.397 19.4-13.7161l5.279-2.3299-.132-3.1652c-.132-3.8684-.704-6.1105-2.155-8.6162-1.98-3.4729-5.675-4.0883-7.743-1.3189-1.231 1.6267-1.451 5.4512-.572 9.5835.396 1.8024.528 3.3849.352 3.5607-.484.4397-16.496 4.8361-16.716 4.5721-.748-.7034 4.971-9.9352 8.666-13.9356zm10.954 29.1456c1.451.572 4.487-.879 5.983-2.813 1.143-1.495 1.187-1.583 1.055-8.001l-.132-6.5063-3.167 2.5493c-1.76 1.363-3.915 3.605-4.839 4.924-1.408 2.066-1.628 2.726-1.672 4.968 0 2.725.792 4.132 2.772 4.879z" fill-rule="evenodd"/><path d="m302.864 76.7818c-4.971 1.7145-8.403 3.8685-11.482 7.2534-5.895 6.4183-7.962 16.8808-5.147 25.9808 1.276 4.132 2.2 5.759 4.971 8.748 4.399 4.748 9.986 7.386 16.717 7.869 4.223.308 5.411-.176 10.426-4.22 3.959-3.253 10.733-10.023 10.337-10.419-.131-.132-1.759.264-3.563.924-9.722 3.56-19.004-1.539-24.899-13.6284-2.111-4.2642-3.519-9.4075-3.519-12.6166 0-6.2424 4.311-9.0121 8.358-5.3192 2.816 2.5056 6.599 11.3858 6.599 15.4301 0 .4835.176 1.0112.352 1.1431.22.1317 3.871-2.7697 8.138-6.3744l7.787-6.5942-.748-1.3628c-1.056-1.8022-4.311-4.6158-6.775-5.8467-5.499-2.8135-11.262-3.1212-17.552-.9671z"/><path clip-rule="evenodd" d="m367.662 82.4966c2.949-2.8573 7.523-5.451 11.439-6.5061 9.589-2.5498 20.674 2.6376 25.162 11.7814 2.112 4.3961 2.861 7.6491 2.861 12.8361 0 7.826-2.157 13.453-6.996 18.288-3.344 3.297-6.379 5.144-11.129 6.726-7.347 2.462-15.397.703-21.337-4.704-3.124-2.857-5.057-5.89-6.598-10.287-1.055-3.033-1.188-4.044-1.188-8.924 0-4.7035.177-5.9782 1.144-8.8796 1.452-4.3081 3.167-6.9898 6.642-10.3308zm20.983 13.5399c-3.386-8.6603-6.774-14.1554-9.721-15.6501-2.947-1.5386-5.278-.2636-5.894 3.2532-1.101 6.5063 5.411 26.6404 11.086 34.4654 2.858 3.868 6.51 5.363 8.445 3.429 2.596-2.594.969-12.925-3.916-25.4975z" fill-rule="evenodd"/></g></svg>