<svg fill="none" height="180" viewBox="0 0 520 180" width="520" xmlns="http://www.w3.org/2000/svg" xmlns:xlink="http://www.w3.org/1999/xlink"><clipPath id="a"><path d="m101 49h317v77h-317z"/></clipPath><g clip-path="url(#a)"><path d="m121.828 125.78c-15.703 0-18.083-1.833-17.277-5.353.585-2.494 13.434-50.4536 13.727-51.5536 1.281-5.1334 6.662-3.8867 6.881-3.85.147.0366.257.1833.22.33-.476 4.1066-8.017 44.6236-8.09 45.1366-.622 3.997 0 4.4 4.942 4.4 24.416 0 33.274-16.9033 35.69-30.3966 4.173-23.3934-18.742-30.3967-50.698-27.5367-.293.0367-2.416.1467-3.331-.2933-1.208-.5867-2.233-2.0534-2.489-2.86-.11-.2934-.11-.5867 0-.77.073-.11.146-.22.256-.2567 10.323-1.8333 24.672-4.29 33.933-3.3 35.067 3.7033 35.067 25.8133 33.018 36.9967-1.135 6.49-7.065 39.3066-46.782 39.3066zm125.702-14.447c-2.269 7.737-9.188 13.09-17.241 13.31-6.772.367-13.544-3.483-16.509-9.423-1.171-2.237-1.83-4.657-2.086-7.517-1.025.477-2.087.917-3.148 1.247-1.391 3.923-3.807 7.553-7.138 10.047-7.138 5.316-16.802 6.856-25.477 2.09-10.689-7.37-9.371-22.2203-1.904-30.947 7.431-8.7266 21.085-10.1933 27.93-5.9033 4.649 3.0067 7.138 8.1767 7.797 13.5667.988-.6967 1.867-1.5767 2.892-2.75.951-1.1367 2.818-3.9234 2.818-3.9234 1.098-1.6866 2.453-3.2633 3.953-4.62 3.148-2.75 7.138-4.1066 11.165-4.1066 3.477 0 7.028 1.0266 10.103 3.1166.988.66 1.245 1.0267.915 1.5767-.439.8067-.915 1.54-1.501 2.2367-1.098 1.32-2.233.8433-3.001.5133-.11-.0367-.22-.11-.33-.1467-3.441-1.21-6.259-.9533-9.188.8067-6.332 3.85-7.284 11.3303-6.113 17.0503 1.208 5.83 4.43 7.81 6.955 8.433 4.613 1.173 10.799-1.32 14.716-5.94 1.171-1.393 2.965-.477 4.246.55.073.037.11.073.146.11.183.22 0 .587 0 .623zm-48.136-19.653c-4.722-5.8666-13.287-3.8866-18.119 1.54-4.832 5.4634-4.905 14.41.366 18.187 4.942 3.52 12.812 1.65 16.692-3.997 2.709-3.96 5.161-10.6333 1.061-15.73zm118.162 12.32c-.659 5.72-3.588 11.513-8.273 15.033-7.138 5.317-16.802 6.857-25.477 2.09-1.098-.77-2.087-1.613-2.929-2.53-1.464 1.32-3.184 2.64-5.088 3.777-5.82 3.52-13.946 2.603-18.961-2.09-3.185-2.86-4.722-7.59-4.137-12.393.513-4.254 4.32-18.9203 7.871-32.047-3.478.11-6.516 0-8.2-.8066-2.709-1.32-2.05-5.83-1.794-7.1134.037-.1833.22-.33.403-.33 1.318 0 6.296-.0366 11.823-.0733 2.307-8.4333 4.137-14.7767 4.137-14.7767.659-2.2366 3.111-3.4466 5.344-3.4466.439 0 .842.0366 1.245.1466.146.0367.219.1834.183.3667-.586 3.63-1.721 10.23-3.075 17.71 3.002 0 5.71.0367 7.541.0733 6.442.1467 14.934.5134 16.655.5867.183 0 .366.1467.403.33.183.8067.329 2.8233-1.977 4.1433-1.977 1.1-16.326 2.1267-22.915 2.5667-.366.0367-.695.0367-1.061.0733-2.746 15.18-5.674 30.91-5.821 31.607-.732 3.666 1.574 5.903 3.624 6.343 3.771.807 6.845-.807 9.408-3.153-1.428-6.857.805-14.557 5.381-19.947 7.431-8.7266 21.084-10.1933 27.929-5.9033 6.443 4.2167 8.712 12.5033 7.761 19.7633zm-10.25-12.32c-4.722-5.8666-13.287-3.8866-18.119 1.54-4.832 5.4634-4.905 14.41.366 18.187 4.941 3.52 12.812 1.65 16.692-3.997 2.708-3.96 5.161-10.6333 1.061-15.73zm53.151-18.37c2.123 1.3934 4.795.7334 6.516-.55 1.171-.88 1.94-2.31 2.123-3.85.219-1.6133-.183-3.8866-1.977-5.06-.696-.44-1.501-.6233-2.343-.6233-1.318 0-2.672.4767-3.733 1.1-.33.22-.586.44-.842.7333-.147.1834-.293.4034-.403.6234-1.501 2.64-1.83 5.9033.659 7.6266zm49.197 11c-4.868-3.08-13.251-3.19-20.352.1834 1.537-8.47 4.868-31.7167 5.344-34.65.037-.11 0-.1834-.037-.2567-.036-.0733-.109-.11-.183-.11-.402-.0733-.805-.1467-1.244-.1467-2.233 0-4.686 1.21-5.345 3.4467 0 0-13.031 52.6903-13.47 55.1463-3.002 4.657-6.626 6.454-10.579 5.244-3.295-1.027-3.112-3.557-3.002-4.804.183-1.98 3.588-21.523 4.21-25.8863.036-.2933-.147-.55-.439-.6233-.696-.11-1.428-.1834-2.16-.1834-2.416 0-4.905.88-6.369 4.5467-.037.1467-4.32 15.1433-5.125 18.3703-.11.403-.183.806-.293 1.21-3.148 4.766-8.016 8.946-15.045 7.443-2.05-.44-4.319-1.943-3.624-6.343.183-1.174 6.626-38.5003 8.493-50.417.036-.1833-.037-.33-.183-.3666-.403-.11-.842-.1467-1.245-.1467-2.233 0-4.649 1.21-5.344 3.4467 0 0-10.286 37.8033-12.482 48.4736-.989 4.693-.293 9.276 3.88 12.98 3.88 3.483 11.347 4.583 17.534 1.98 3.587-1.504 6.588-3.96 8.675-6.087 2.709 5.427 9.188 8.947 15.154 7.517 4.613-1.1 8.127-4.437 10.433-7.224.915 1.32 1.977 2.494 3.111 3.41 5.308 4.217 12.812 4.987 19.621 2.97 3.441-.77 6.735-2.273 9.59-4.4 4.686-3.556 7.651-9.313 8.273-15.033.952-7.26-1.354-15.5466-7.797-19.69zm-3.368 23.943c-3.843 5.647-12.665 7.774-17.607 4.254-5.307-3.777-4.282-13.017.549-18.4436 4.832-5.4634 13.398-7.4067 18.12-1.54 4.1 5.06 1.647 11.7336-1.062 15.7296z" fill="#1d78c6"/></g></svg>