<svg fill="none" height="180" viewBox="0 0 520 180" width="520" xmlns="http://www.w3.org/2000/svg"><g fill="#181c1f"><path d="m79.5882 98.9995c4.7306 2.7525 7.0959 4.1295 9.6935 4.1315 2.5977.002 4.9653-1.37 9.7007-4.1143l30.1856-17.4935c1.362-.7898 2.202-2.2536 2.202-3.8383 0-1.5846-.84-3.0486-2.202-3.8382l-30.1966-17.4999c-4.7301-2.7414-7.0953-4.1121-9.6905-4.1111-2.595.001-4.9591 1.3736-9.6873 4.1187l-25.9587 15.0712c-.1923.1117-.2885.1675-.3783.2205-8.8672 5.2333-14.3457 14.7878-14.4189 25.1467-.0008.1047-.0008.2167-.0008.4404 0 .2236 0 .3354.0008.44.073 10.3468 5.5393 19.8928 14.3908 25.1298.0895.054.1855.109.3775.221l16.2606 9.465c9.4749 5.516 14.2123 8.273 19.4148 8.275s9.9418-2.752 19.4206-8.261l17.165-9.977c4.746-2.758 7.119-4.137 8.422-6.411s1.303-5.035 1.303-10.559v-10.6693c0-1.5321-.823-2.9442-2.151-3.6897-1.284-.7215-2.85-.7107-4.126.0281l-35.1969 20.3979c-2.3614 1.369-3.5422 2.053-4.8379 2.054-1.2957 0-2.4769-.684-4.8393-2.051l-23.8223-13.7862c-1.1933-.6907-1.7899-1.0359-2.2692-1.0982-1.0926-.1422-2.1431.4748-2.5594 1.5033-.1825.4509-.1787 1.1446-.1714 2.5321.0054 1.021.0082 1.531.1029 2.001.2119 1.052.7608 2.004 1.5622 2.711.3578.316.7965.571 1.6738 1.081l25.47 14.821c2.3685 1.378 3.5528 2.067 4.8531 2.068 1.3004 0 2.485-.689 4.8542-2.065l31.2182-18.143c.81-.471 1.214-.706 1.518-.529.303.176.303.647.303 1.589v4.84c0 1.38 0 2.071-.326 2.639-.325.569-.919.914-2.105 1.603l-25.7496 14.965c-4.7404 2.755-7.1105 4.132-9.7123 4.131s-4.9707-1.381-9.7086-4.14l-24.0907-14.031c-.0765-.044-.1147-.066-.1504-.087-5.0512-2.976-8.168-8.42-8.1973-14.3186-.0002-.0417-.0002-.0862-.0002-.1752v-4.4425c0-3.256 1.7201-6.2657 4.5143-7.8985 2.4691-1.4429 5.5145-1.4457 7.9862-.0076z"/><path d="m199.902 119.395c-15.58 0-24.979-9.349-24.979-22.895 0-13.3552 9.462-22.8945 25.042-22.8945 14.13 0 21.763 6.8683 22.393 15.899h-9.146c-.442-3.625-3.596-8.1402-12.742-8.1402h-1.009c-9.463 0-15.77 5.5327-15.77 15.1357s6.433 15.136 15.77 15.136h1.009c9.209 0 14.193-4.325 14.193-7.95v-.508h-14.509v-7.7591h16.842c3.849 0 5.994 2.2259 5.994 6.1051v17.235h-8.327v-4.961c-1.703 2.163-6.182 5.597-14.761 5.597z"/><path d="m236.954 118.759h-8.706v-44.5177h8.706z"/><path d="m267.825 118.759h-8.704v-36.7589h-17.789v-7.7588h44.282v7.7588h-17.789z"/><path d="m315.84 118.759h-25.862v-44.5177h25.106c7.885 0 13.941 4.4517 13.941 11.7654 0 5.0876-3.218 8.7125-7.003 10.1118 4.542 1.0174 8.074 4.7695 8.074 10.5565 0 7.378-6.371 12.084-14.256 12.084zm-17.157-36.7589v10.3025h15.454c3.849 0 6.119-1.7807 6.119-5.342 0-2.9254-2.27-4.9605-6.119-4.9605zm0 18.0609v10.939h15.896c4.163 0 6.75-2.162 6.75-5.533 0-3.625-2.587-5.406-6.75-5.406z"/><path d="m358.882 119.395c-14.319 0-25.044-8.649-25.044-22.895 0-14.2455 10.725-22.8945 25.044-22.8945 14.317 0 24.979 8.649 24.979 22.8945 0 14.246-10.662 22.895-24.979 22.895zm-.506-7.759h1.009c8.516 0 15.707-5.533 15.707-15.136s-7.191-15.1357-15.707-15.1357h-1.009c-8.516 0-15.769 5.5327-15.769 15.1357s7.253 15.136 15.769 15.136z"/><path d="m412.168 119.395c-14.319 0-25.042-8.649-25.042-22.895 0-14.2455 10.723-22.8945 25.042-22.8945s24.979 8.649 24.979 22.8945c0 14.246-10.66 22.895-24.979 22.895zm-.505-7.759h1.01c8.515 0 15.707-5.533 15.707-15.136s-7.192-15.1357-15.707-15.1357h-1.01c-8.515 0-15.77 5.5327-15.77 15.1357s7.255 15.136 15.77 15.136z"/><path d="m486.156 118.759h-11.481l-18.041-20.0967-6.308 5.4057v14.691h-8.704v-44.5177h8.704v19.6512l22.772-19.6512h12.048l-22.078 18.9517z"/></g></svg>