<svg fill="none" height="180" viewBox="0 0 520 180" width="520" xmlns="http://www.w3.org/2000/svg"><path d="m52.6012 86.8773h-18.3646v-18.8773h-11.2366v50.163h11.2366v-21.6602h18.3646v21.6602h11.2407v-50.163h-11.2407zm51.8608 8.348c0-5.341-.976-8.2724-3.597-10.6036-2.8491-2.4808-7.0426-3.7584-12.5131-3.7584-10.191 0-15.3604 4.0579-16.0323 12.41h9.5176c.4489-2.9384 2.547-4.2887 6.4436-4.2887 3.4476 0 5.5457 1.2789 5.5457 3.3106 0 1.5028-.8253 2.0989-3.2232 2.4809l-5.7702.9795c-10.1157 1.6553-14.3872 5.1884-14.3872 12.0334s5.3213 11.358 13.3388 11.358c1.8928.093 3.7848-.199 5.5623-.858 1.7774-.66 3.4036-1.674 4.7807-2.98.3722 1.357.3722 1.582.8211 2.86h10.8642c-1.195-1.802-1.347-2.331-1.347-6.242zm-10.3385 11.2047c-1.4708 2.938-4.5225 4.733-7.7945 4.589-3.3751 0-5.398-1.43-5.398-3.836 0-2.183 1.6492-3.46 5.4705-4.361l3.824-.827c1.3342-.249 2.6419-.628 3.9036-1.132zm38.1455-25.645c-3.75 0-5.994.9795-9.898 4.5867v-3.5345h-10.336v36.3258h10.643v-20.3785c0-3.1595.373-4.6651 1.574-6.0168.578-.6355 1.285-1.1392 2.073-1.4771s1.64-.5022 2.497-.4818c1.71-.0896 3.347.7024 4.345 2.0988.898 1.3545 1.125 2.779 1.125 6.4646v19.7908h10.637v-23.5394c.002-8.5732-4.794-13.8386-12.66-13.8386zm43.768 3.764c-2.367-2.5593-5.739-3.9375-9.215-3.764-9.742 0-16.185 7.6749-16.185 19.252 0 11.508 6.369 19.106 15.893 19.106 3.949.253 7.74-1.607 9.966-4.891v3.918h10.188v-50.17h-10.648zm-7.267 25.944c-4.648 0-7.644-4.134-7.644-10.5298 0-6.396 2.996-10.5294 7.644-10.5294s7.641 4.2145 7.641 10.6822c0 6.166-3.071 10.377-7.641 10.377zm44.97-14.666-6.671-1.4273c-3.371-.7514-4.421-1.43-4.421-2.7817 0-1.805 2.023-3.0098 5.097-3.0098 3.523 0 5.694 1.43 6.143 4.1362h9.966c-.976-7.6721-6.594-11.8811-15.884-11.8811-9.667 0-15.435 4.4343-15.435 11.7328 0 5.7859 3.067 8.7239 11.014 10.4509l6.594 1.503c2.85.676 4.043 1.58 4.043 3.311 0 2.181-2.175 3.538-5.546 3.538-4.271 0-6.519-1.582-7.12-5.037h-9.963c.598 8.046 6.818 12.785 16.859 12.785 10.04 0 16.261-4.812 16.261-12.487.051-1.334-.16-2.665-.623-3.917s-1.167-2.4-2.074-3.3773c-1.575-1.6595-3.822-2.632-8.24-3.5387zm33.648-14.9637c-11.241 0-19.181 7.8946-19.181 19.0999 0 11.2818 7.946 19.1798 19.181 19.1798 11.164 0 19.26-7.898 19.26-18.878 0-11.5798-7.793-19.4017-19.26-19.4017zm.075 29.7817c-5.467 0-8.541-3.835-8.541-10.6818 0-6.7682 3.067-10.6022 8.466-10.6022 5.546 0 8.545 3.834 8.545 10.827 0 6.62-3.148 10.457-8.47 10.457zm45.122-29.8586c-3.747 0-5.994.9795-9.898 4.5867v-3.5359h-10.343v36.3258h10.643v-20.3785c0-3.1595.373-4.6651 1.574-6.0168.578-.6355 1.285-1.1392 2.073-1.4771s1.64-.5022 2.497-.4818c1.71-.0896 3.347.7024 4.345 2.0988.901 1.3545 1.125 2.779 1.125 6.4646v19.7908h10.637v-23.5394c.009-8.5732-4.787-13.8372-12.653-13.8372zm32.008-10.0019h-10.637v11.5075h-5.103v7.5196h5.097v16.5464c0 5.639.449 7.593 2.091 9.397 1.574 1.732 3.904 2.408 8.539 2.408h6.522v-8.047h-3.82c-2.472 0-2.702-.45-2.702-6.166v-14.1328h6.522v-7.5252h-6.509zm43.538 24.4408c0-5.341-.976-8.2724-3.597-10.6036-2.849-2.4808-7.043-3.7584-12.513-3.7584-10.191 0-15.361 4.0579-16.033 12.41h9.516c.449-2.9384 2.547-4.2887 6.444-4.2887 3.448 0 5.546 1.2789 5.546 3.3106 0 1.5028-.825 2.0989-3.223 2.4809l-5.771.9795c-10.114 1.6553-14.387 5.1884-14.387 12.0334s5.322 11.358 13.339 11.358c1.893.093 3.785-.199 5.562-.858 1.778-.66 3.404-1.674 4.781-2.98.372 1.357.372 1.582.821 2.86h10.867c-1.195-1.802-1.347-2.331-1.347-6.242zm-10.339 11.2047c-1.471 2.938-4.521 4.734-7.793 4.59-3.375 0-5.398-1.43-5.398-3.835 0-2.183 1.649-3.461 5.471-4.362l3.824-.827c1.334-.249 2.641-.628 3.903-1.132zm38.518-25.5667c-3.631-.0334-7.159 1.2174-9.964 3.5332v-16.3965h-10.642v50.163h10.194v-4.136c2.846 3.764 5.393 5.116 9.888 5.116 9.293 0 15.958-8.199 15.958-19.6304.002-11.1311-6.215-18.6493-15.432-18.6493zm-2.696 29.6297c-4.645 0-7.716-4.209-7.716-10.5298 0-6.2393 3.067-10.4539 7.716-10.4539 4.72 0 7.641 4.0579 7.641 10.6067.001 6.315-2.993 10.377-7.641 10.377zm23.839 7.672h10.643v-50.165h-10.643zm50.962-26.624c-2.702-6.8437-8.469-10.6763-16.113-10.6763-10.94 0-18.508 7.8219-18.508 19.1703 0 11.433 7.419 19.105 18.586 19.105 8.614 0 15.36-4.514 17.383-11.583h-10.792c-1.328 2.176-3.758 3.424-6.294 3.232-4.57 0-7.496-2.706-8.17-7.666h25.704c.178-3.9434-.432-7.8823-1.797-11.5834zm-23.83 4.0579c.822-4.2873 3.523-6.6185 7.642-6.6185 4.118 0 6.595 2.3312 7.044 6.6185zm31.13 29.0401v21.361h21.285v-21.361z" fill="#000"/></svg>