<svg fill="none" height="180" viewBox="0 0 520 180" width="520" xmlns="http://www.w3.org/2000/svg" xmlns:xlink="http://www.w3.org/1999/xlink"><linearGradient id="a" gradientUnits="userSpaceOnUse" x1="54.0917" x2="78.8559" y1="97.4503" y2="122.05"><stop offset="0" stop-color="#00263e"/><stop offset=".1693" stop-color="#16415c"/><stop offset=".3468" stop-color="#275774"/><stop offset=".5359" stop-color="#336685"/><stop offset=".7426" stop-color="#3b6f8f"/><stop offset="1" stop-color="#3d7292"/></linearGradient><clipPath id="b"><path d="m22 65h476v59h-476z"/></clipPath><g clip-path="url(#b)"><path d="m51.0669 100.559 6.0985-6.1387 21.5428 21.6867c1.6632 1.674 1.6632 4.465 0 6.139-1.6633 1.674-4.4353 1.674-6.0985 0z" fill="url(#a)"/><path d="m29.5241 66.5946c-1.6632-1.6743-4.4352-1.6743-6.0985 0-1.6632 1.6743-1.6632 4.4649 0 6.1392l21.5428 21.6865-21.5428 21.6867c-1.6632 1.674-1.6632 4.465 0 6.139 1.6633 1.674 4.4353 1.674 6.0985 0l21.5428-21.687 6.0985-6.1387z" fill="#3e729a"/><path d="m78.7082 72.7338c1.7424-1.754 1.6632-4.6243-.1584-6.2987-1.7424-1.5946-4.5145-1.3553-6.1777.319l-9.029 9.0892c-1.6632 1.6743-1.6632 4.4648 0 6.1391 1.6633 1.6744 4.4353 1.6744 6.0985 0z" fill="#f55"/><path d="m105.082 113.237v-36.6762h6.257v36.6762zm18.454 0h-5.94v-25.1154h5.782v3.4284c1.663-2.95 4.672-4.0662 7.365-4.0662 6.099 0 9.108 4.4649 9.108 9.9662v15.946h-5.94v-14.9095c0-3.1094-1.346-5.5811-5.148-5.5811-3.405 0-5.227 2.6311-5.227 5.9798zm29.225-25.1154h5.228v5.3419h-5.228v11.6405c0 2.233.951 3.189 3.247 3.189.792 0 1.743-.159 2.06-.239v4.943c-.317.16-1.505.558-3.644.558-4.672 0-7.444-2.71-7.444-7.494v-12.6772h-4.673v-5.3419h1.267c2.614 0 3.881-1.6743 3.881-3.9865v-3.9067h5.385v7.8932h-.079zm31.047 17.9394c-1.346 4.385-5.306 7.893-11.326 7.893-6.811 0-12.751-4.943-12.751-13.554 0-7.8932 5.861-13.2351 12.197-13.2351 7.682 0 12.197 5.1027 12.197 13.0761 0 .956-.079 1.754-.158 1.913h-18.296c.158 3.827 3.168 6.538 6.811 6.538 3.644 0 5.465-1.914 6.257-4.385zm-5.702-8.2123c-.08-2.95-2.06-5.5811-6.178-5.5811-3.802 0-5.94 2.95-6.099 5.5811zm24.71-3.8271c-.633-.0797-1.346-.1594-1.9-.1594-4.673 0-6.732 2.6311-6.732 7.3348v11.96h-5.941v-25.0354h5.782v4.0663c1.188-2.7108 3.96-4.3852 7.207-4.3852.713 0 1.347.0797 1.584.1595zm13.544 19.8524c-7.366 0-12.039-5.82-12.039-13.474 0-7.2554 4.832-13.1554 11.96-13.1554 4.435 0 6.653 2.3122 7.365 4.0662v-3.3486h5.782v20.5698c0 2.073.238 4.067.238 4.625h-5.703c-.079-.558-.237-1.914-.237-3.668-1.109 2.552-3.802 4.385-7.366 4.385zm.713-5.182c3.96 0 6.653-3.428 6.653-8.292 0-4.8635-2.614-7.8932-6.653-7.8932-4.04 0-6.812 3.1094-6.812 7.8932 0 4.784 2.614 8.292 6.812 8.292zm22.334-8.053c0 5.103 3.248 7.893 6.97 7.893 3.96 0 5.703-2.79 6.257-4.704l5.227 1.914c-1.188 3.986-4.91 8.292-11.484 8.292-7.366 0-12.91-5.741-12.91-13.315 0-7.7338 5.624-13.3149 12.752-13.3149 6.732 0 10.454 4.2257 11.484 8.2919l-5.386 1.9135c-.554-2.2325-2.217-4.7041-6.019-4.7041-3.643-.0797-6.891 2.6311-6.891 7.7336zm30.81-12.5174h5.227v5.3419h-5.227v11.6405c0 2.233.95 3.189 3.247 3.189.792 0 1.742-.159 2.059-.239v4.943c-.317.16-1.505.558-3.643.558-4.673 0-7.445-2.71-7.445-7.494v-12.6772h-4.673v-5.3419h1.267c2.614 0 3.881-1.6743 3.881-3.9865v-3.9067h5.386v7.8932h-.079zm12.118-12.8364c2.138 0 3.96 1.754 3.96 3.9864 0 2.1527-1.743 3.9068-3.96 3.9068-2.06 0-3.881-1.6743-3.881-3.9068 0-2.2324 1.821-3.9864 3.881-3.9864zm-2.852 37.9518v-25.1154h5.94v25.1944zm24.632 0h-5.94l-10.217-25.1154h6.574l6.653 17.9394 6.494-17.9394h6.257zm33.819-7.176c-1.346 4.385-5.307 7.893-11.326 7.893-6.811 0-12.751-4.943-12.751-13.554 0-7.8932 5.861-13.2351 12.197-13.2351 7.682 0 12.197 5.1027 12.197 13.0761 0 .956-.079 1.754-.159 1.913h-18.295c.158 3.827 3.168 6.538 6.811 6.538s5.465-1.914 6.257-4.385zm-5.782-8.2123c-.079-2.95-2.059-5.5811-6.177-5.5811-3.802 0-5.941 2.95-6.099 5.5811zm37.938-15.4676v30.8559h-6.178v-30.8559h-11.801v-5.8203h29.938v5.8203zm20.592 30.8559h-5.94v-37.4735h5.94v14.6703c1.663-2.1527 4.515-3.1892 7.128-3.1892 6.178 0 9.188 4.4649 9.188 9.9662v15.9462h-5.941v-14.9097c0-3.1094-1.346-5.581-5.148-5.581-3.326 0-5.069 2.4716-5.227 5.6607zm24.552-37.9518c2.139 0 3.961 1.754 3.961 3.9864 0 2.1527-1.743 3.9068-3.961 3.9068-2.059 0-3.88-1.6743-3.88-3.9068 0-2.2324 1.821-3.9864 3.88-3.9864zm-2.851 37.9518v-25.1154h5.94v25.1944zm17.425 0h-5.941v-25.1154h5.782v3.4284c1.663-2.95 4.673-4.0662 7.366-4.0662 6.098 0 9.108 4.4649 9.108 9.9662v15.946h-5.94v-14.9095c0-3.1094-1.347-5.5811-5.148-5.5811-3.406 0-5.227 2.6311-5.227 5.9798zm25.106-.08c.396 3.109 2.852 5.421 6.257 5.421 4.752 0 7.049-2.391 7.049-7.494v-2.552c-1.029 1.914-3.643 3.668-7.207 3.668-6.653 0-11.564-5.182-11.564-12.199 0-6.6969 4.673-12.1983 11.564-12.1983 3.96 0 6.336 1.5946 7.366 3.6676v-3.3487h5.781v22.8024c0 6.698-3.485 12.917-12.83 12.917-6.653 0-11.247-4.146-11.96-9.249zm13.465-13.3151c0-4.3054-2.773-7.0959-6.416-7.0959-3.801 0-6.494 2.8703-6.494 7.0959 0 4.3851 2.613 7.0961 6.494 7.0961 3.881.08 6.416-2.711 6.416-7.0961zm14.414 5.1821c.238 2.233 1.901 4.306 5.069 4.306 2.455 0 3.802-1.356 3.802-2.95 0-1.356-.951-2.312-2.931-2.791l-3.722-.797c-4.435-.957-6.732-3.9068-6.732-7.3352 0-4.3851 4.039-8.1324 9.266-8.1324 6.97 0 9.267 4.5445 9.663 7.0162l-5.069 1.4351c-.238-1.4351-1.267-3.827-4.673-3.827-2.059 0-3.643 1.3554-3.643 2.95 0 1.3554.95 2.3121 2.455 2.631l3.802.7973c4.752 1.0365 7.207 3.987 7.207 7.654 0 3.827-3.089 8.053-9.504 8.053-7.207 0-10.059-4.784-10.376-7.575z" fill="#00263e"/></g></svg>