<svg fill="none" height="180" viewBox="0 0 520 180" width="520" xmlns="http://www.w3.org/2000/svg"><g clip-rule="evenodd" fill-rule="evenodd"><path d="m98.359 59.322c-.3654-1.7055-3.3154-5.6233-6.621-5.6233-.7406 0-1.2283.1233-1.7161.2507 3.1862 1.2233 5.6373 4.3904 6.3779 6.5986l1.8356-1.1v-.126zm20.843 74.234-11.91-7.949c-1.432-.956-3.098-2.763-3.098-6.134v-28.788l-1.193.726-.473.2411v28.6589c0 2.411 1.306 4.938 3.088 6.143l12.038 8.067zm-51.4456-28.876c.2334-4.884-.8143-10.8416-1.8703-16.5621-1.0561-5.8356-1.9995-11.7945-1.88-17.0288.1195-3.2137.7058-6.3109 1.9939-9.1712-2.226 3.4521-3.6294 7.3808-3.7503 11.5521-.3501 10.126 4.4548 23.3424 3.9824 33.594-.0968 1.391-.2121 2.781-.346 4.169l.2306-.241c.9407-1.312 1.5257-3.333 1.6397-6.312m16.7075 28.704c-1.7869-3.548-6.0694-5.713-11.0744-5.713-.4808.11-.9574.11-1.4312.11 4.8855.804 9.0513 3.427 10.6033 6.74l1.9023-1.139zm43.0751-42.3565-4.169-4.4521.127 2.9658 2.199 2.5137zm114.207-25-9.994-5.8589 1.501-.9904 9.616 5.6068c-.376.3713-.751.7425-1.123 1.2425zm2.376 68.4935-4.102-2.852c-2.696-1.898-4.099-5.103-4.099-8.662v-39.6357c0-5.4589 1.174-9.2575 3.044-11.8644-1.053 2.6069-1.522 5.8124-1.522 9.4932l.115 40.5799c0 4.391 1.292 7.241 4.339 9.376l3.751 2.617-1.525.948zm-33.212-.362s-.387.24-.642.362h-1.028v-66.2552c0-3.2041-.258-3.2041-2.315-4.6328l-2.963-2.137 1.936-.948c1.542 1.1836 3.86 2.8493 3.86 2.9699.9.8288 1.152 1.3014 1.152 3.2027v67.5544zm-49.124-81.8301c-1.025 2.6438-.897 5.1698.386 7.2397 1.162 1.8356 3.214 3.1014 5.663 3.6781-7.588.5712-10.926-4.8261-6.049-10.9178m17.862 57.5341c.494-1.889.695-4.014.695-6.253v-34.3222c0-4.1261-.201-4.5932-1.392-5.8905h.201c1.684-.3561 2.578.0001 2.578 3.5329v34.4398c0 4.011-.592 6.605-2.082 8.494m2.985 24.658c-.993-3.241-3.996-5.982-9.24-6.732.754-.119 1.5-.119 2.254-.119 6.486.118 8.362 4.104 8.738 5.352l.124.37-1.876 1.128zm178.344-.842-3.578-2.155c-3.228-1.924-4.901-4.913-4.901-9.467v-32.4702c0-1.9151-.115-1.7946-.837-2.3959 0 0-2.507-2.0384-4.18-3.3562l-1.788.9658 3.46 2.6301c1.914 1.4342 1.677 1.5548 1.677 4.4329v31.5085c0 4.313 1.789 7.308 4.296 8.753l4.299 2.395zm-33.348.594v-48.6493l-1.868-1.789-2.301 1.0781 2.154 2.0301v47.5771h1.16c.284-.124.715-.247.715-.247zm-38.906-.596-13.893-8.338c-2.782-1.689-3.863-3.74-3.863-7.365v-27.29l-1.209.6041-.489.2398v27.7751c0 3.262 1.448 5.671 3.99 7.128l13.888 8.089zm6.947-15.596v-27.0614c0-1.4246-.458-1.9041-1.506-2.4931l-5.441-3.3219v1.7808l3.126 1.7767c2.315 1.3041 2.315 1.5438 2.315 4.0411l-.111 24.3288zm109.772-48.8737v-.3493c0-3.2658-1.915-6.6438-4.852-8.3973-1.126-.7013-2.135-1.2835-2.135-1.2835l-1.35.9356.783.4603c3.83 2.2232 5.982 5.0191 5.982 9.563zm44.464 64.3477-11.941-7.949c-1.415-.956-3.074-2.763-3.074-6.134v-28.788l-1.184.726-.475.2411v28.2929c0 3.135 1.188 5.304 3.193 6.63l11.822 7.946zm-51.412 1.366-12.756-8.229c-3.059-1.929-3.654-3.748-3.654-7.263v-26.0053l-.946.4877-.707.3589v25.7667c0 4.121 1.3 5.936 3.305 7.263l13.219 8.589zm58.36-43.8959-4.169-4.4507.124 2.9658 2.202 2.5137zm-48.633 28.4259v-38.356l-2.779 1.0931v36.1699z" fill="#8f98a9"/><path d="m101.405 123.138-1.4477-2.864-3.7462 2.381c-2.7804-3.344-7.263-7.278-17.9108-7.278-11.2579-.118-25.0599 8.705-31.353 16.342l1.0907 1.432c8.5886-5.61 17.4301-8.107 25.1767-8.107 6.2945 0 11.4968 2.981 13.6728 7.392zm11.628-65.379c-2.182-3.3398-7.99-9.5398-19.4897-9.5398-13.7938-.1164-25.8923 10.4973-26.3786 23.3822-.3668 10.2589 4.5979 23.4987 4.1102 33.7576-.2376 3.462-.9699 5.966-2.4164 7.87l1.4465 1.675 8.476-6.082c4.1186-2.993 6.4154-6.686 6.2932-13.1233-.1209-7.9945-3.8754-20.2808-3.8754-29.7014 0-8.1151 3.15-14.1986 10.2908-14.1986 4.8424 0 8.7154 4.8904 9.3164 7.6342.248 1.3083 0 1.9069-1.2086 2.7411l-3.3863 2.274v3.6931l16.8229-10.3835zm31.18 31.7342-16.218-17.6548-25.3 14.5493v3.3397l5.206-2.8575v33.0441c0 1.904.728 3.098 1.936 3.937l13.436 8.585 19.006-10.859-1.574-3.34-9.927 5.249-8.954-6.086c-1.091-.71-1.212-1.427-1.212-2.979v-10.736zm-12.71 2.6247-10.891 6.678v-17.4178l.969-.5931zm54.979 40.6711c-1.217-3.362-4.739-6.833-11.066-7.071-5.964-.121-14.476 2.16-21.523 7.433l-1.343-1.681c5.111-5.514 17.029-14.377 29.55-14.501 6.572 0 11.191 2.16 14.474 5.634l5.476-2.997 1.582 3.119zm75.03-73.4588c-4.751 2.7534-6.332 6.474-6.332 12.226v45.8888c0 2.884.37 4.195 1.948 5.039l1.583.842 4.377-2.526 1.461 2.885-15.204 8.989-5.224-3.481c-2.319-1.556-3.295-3.475-3.295-7.192v-40.9804c0-7.6658 2.44-11.7466 5.845-14.2575l1.946-1.4384-14.349-8.2726-6.446 3.8315v59.6794c0 5.033-.73 5.753-5.236 8.027 0 0-3.517 1.681-8.373 4.198h-.977v-66.1441c0-3.2329-.37-3.9575-2.194-5.3932l-5.102-4.0726-6.204 3.4713v34.2767c0 5.9859-.973 10.3009-5.836 13.2949l-12.159 7.55-1.222-2.034c3.773-2.881 4.622-6.959 4.622-11.749v-34.9879c0-5.1535-.722-7.1891-6.201-6.2302-2.065.3562-5.227.837-7.173 1.0767-8.028 1.0809-11.435-4.5534-5.961-11.6219 0 0 1.34-1.7986 4.743-6.1164l2.682 1.8027-1.953 2.7548c-2.551 3.6014-.485 5.5178 3.655 4.074 1.942-.7206 5.711-2.1534 8.385-3.2384 11.549-4.4287 15.809 2.8808 16.418 7.1945l14.352-8.5068 12.394 9.3425 15.32-9.3425 11.799 6.5931c4.011 2.2699 5.957 1.3124 8.756-.1273l2.312-1.1959 1.822 2.9986zm54.833 57.8558-1.089-2.609-4.229 2.131v-32.1504c0-1.6534-.6-2.963-2.292-3.9178l-15.594-9.1329-25.261 14.4726v3.4438l5.202-2.9657v31.4394c0 2.844.717 3.917 2.539 4.983l15.346 8.901zm59.917 6.763-1.207-2.73-4.476 2.497-1.563-.953c-1.692-.949-2.058-2.141-2.058-4.986v-34.0482c0-2.7315-.603-3.9123-2.3-5.1013l-9.307-6.8836-14.381 8.0726-7.61-8.0726-15.229 9.1397 2.056 2.3671 5.194-3.0767 3.746 4.1493v47.2247h.967c6.045-2.621 7.977-3.447 7.977-3.447 2.9-1.189 3.749-2.137 3.749-5.454v-39.3976l4.96-2.8439 5.799 4.511c1.566 1.3014 1.807 2.3699 1.807 4.3836l.122 32.2769c0 3.555 1.089 5.574 3.502 6.998l5.081 2.973zm-77.926-1.776-.722.119-9.915-5.699c-1.686-.949-2.057-2.016-2.057-4.156l.128-31.2013.72-.2398 9.551 5.4617c1.929 1.0685 2.295 2.0178 2.295 4.0315zm111.448 1.263-.728.12-8.613-5.526c-1.693-1.075-2.3-1.918-2.3-4.07v-30.5901l10.791-6.4863.85.4822v46.0682zm17.95-4.92-1.088-2.76-4.37 2.274v-50.856c0-7.437-3.393-12.2315-8.972-15.5931l-5.457-3.3617-17.107 9.8343 3.396 1.563 5.585-2.9973 3.631 2.037c3.884 2.1603 6.432 6.4836 6.432 10.9178v1.9151l-29.353 16.7931v3.2425l4.972-2.6397v30.471c0 2.633.726 3.718 2.424 4.796l14.555 8.999zm47.184-28.5502-16.378-17.7534-25.349 14.6301v3.3589l5.215-2.8739v33.2305c0 1.915.728 3.116 1.939 3.958l13.467 8.635 19.04-10.921-1.45-3.357-9.949 5.279-8.977-6.123c-1.216-.836-1.334-1.434-1.334-2.993v-10.798zm-12.857 2.6397-10.918 6.7165v-17.5165l1.094-.5972z" fill="#1a171b"/></g></svg>