<svg fill="none" height="180" viewBox="0 0 520 180" width="520" xmlns="http://www.w3.org/2000/svg"><g fill="#000"><path d="m167.117 56-21.786 21.75h-72.331v21.75h50.544l-21.786 21.75h-28.758v21.75h6.9716l21.7864-21.75h72.331v-21.75h-50.545l21.787-21.75h28.758v-21.75z"/><path d="m269.609 77.402v43.848h11.765v-43.848z"/><path d="m269.452 71.7644h12v-11.9799h-12z"/><path clip-rule="evenodd" d="m239.971 122.894c12.628 0 21.961-9.239 21.961-23.2548 0-13.8591-9.412-23.5683-21.961-23.5683-7.529 0-13.803 3.5235-17.96 10.3356v-9.0045h-11.765v60.683h11.765v-24.665c3.608 6.029 10.274 9.474 17.96 9.474zm-18.352-22.863v-.7833c0-8.2998 5.647-13.8591 14.117-13.8591 8.549 0 14.118 5.6376 14.118 14.094s-5.569 14.0944-14.118 14.0944c-8.392 0-14.117-5.403-14.117-13.546z" fill-rule="evenodd"/><path d="m307.523 121.25-19.764-43.848h13.411l13.648 33.512 13.568-33.512 13.098.0783-19.765 43.7697z"/><path clip-rule="evenodd" d="m369.284 122.894c16 0 26.275-9.396 26.275-23.3331 0-14.1723-10.275-23.49-26.275-23.49-15.921 0-26.274 9.3177-26.274 23.49 0 13.9371 10.274 23.3331 26.274 23.3331zm-14.196-23.3331c0-8.613 5.804-14.094 14.196-14.094s14.196 5.481 14.196 14.094c0 8.4561-5.804 13.8591-14.196 13.8591s-14.196-5.403-14.196-13.8591z" fill-rule="evenodd"/><path d="m428.283 122.894c-11.922 0-19.686-6.577-19.686-15.19v-21.2975h-9.491v-9.0045h9.726v-6.8904l11.529-7.9866v14.877h20.942v9.0045h-20.942v17.3825c0 6.186 4.079 9.396 11.53 9.396 2.666 0 6.667-.391 11.293-2.114l-1.569 9.083c-4.314 1.801-8.783 2.74-13.332 2.74z"/></g></svg>