<svg fill="none" height="180" viewBox="0 0 520 180" width="520" xmlns="http://www.w3.org/2000/svg" xmlns:xlink="http://www.w3.org/1999/xlink"><clipPath id="a"><path d="m46 53h427v95h-427z"/></clipPath><g clip-path="url(#a)"><path d="m61.1904 148c.9494-1.9 3.9164-6.769 6.7646-11.875 2.7296-4.631 5.3405-9.025 6.0526-10.45 3.2042-5.344 10.4435-5.106 16.0214-5.106h2.3735 5.1031l-12.3424 21.375c-2.1362 3.681-5.8152 5.818-9.9689 6.056h-3.9163z" fill="#fece6a"/><path d="m118.749 114.75 7.002-12.113h-13.411-9.968c-16.0218 0-21.1249 9.738-24.5666 16.269-.4747.95-.9494 1.663-1.1867 2.375-1.4242 2.375-2.3736 4.394-2.3736 4.394 3.2043-5.344 10.4436-5.106 16.0214-5.106h2.3736 5.1031 10.6808c4.154 0 8.07-2.257 10.325-5.819z" fill="#feae06"/><path d="m54.3074 53c.9494 1.9 3.9163 6.7687 6.7645 11.875 2.7296 4.6313 5.1032 9.2625 6.0526 10.6875 3.2043 5.3437-.7121 11.6375-3.679 16.5063-.4747.7125-.7121 1.4249-1.1868 1.9l-2.3735 4.3937-12.3424-21.375c-1.8989-3.6812-2.1362-8.075 0-11.6375l1.6614-3.4438z" fill="#89e5b8"/><path d="m71.3966 82.2125c-.4747-.7125-.9494-1.6625-1.4241-2.375-1.4241-2.375-2.7296-4.3938-2.7296-4.3938 3.2043 5.3438-.712 11.6375-3.6789 16.5063-.4748.7125-.7121 1.425-1.1868 1.9l-2.3736 4.3937-5.3404 9.7373c-2.1362 3.681-2.1362 8.075 0 11.638l7.0019 12.112 6.5273-11.637 5.1031-8.55c7.714-13.894 2.1362-22.8003-1.8989-29.3315z" fill="#3bd388"/><path d="m139.636 96.225c-2.136 0-8.07 0-13.648 0-5.34 0-10.443 0-12.105 0-6.052 0-9.731-6.5313-12.342-11.4-.475-.7125-.712-1.425-1.187-1.9l-2.7295-4.3938h24.8035c4.154 0 8.07 2.1375 10.206 5.8188l1.899 3.2063z" fill="#bfb0fb"/><path d="m82.0776 63.2125h-14.1225l6.7646 11.6375 5.1031 8.55c8.07 14.1313 18.9883 12.825 26.2272 12.825h2.73 5.103c-6.052 0-9.731-6.5312-12.342-11.4-.475-.7125-.712-1.425-1.187-1.9l-2.7297-4.3937-5.3404-9.5c-2.2549-3.4438-6.1712-5.8188-10.2063-5.8188z" fill="#947bf9"/><g fill="#3c3f4f"><path d="m172.628 78.7688h-10.918v55.6942h10.918v-19.238c2.136 2.731 6.527 5.106 12.343 5.106 12.817 0 20.412-9.5 20.412-21.3747 0-11.875-7.477-21.375-20.412-21.375-5.816 0-10.681 2.7312-12.343 4.8687zm-.474 20.1875c0-7.0063 4.391-11.4 11.155-11.4 6.765 0 11.156 5.1062 11.156 11.4 0 6.7687-4.154 11.6377-11.156 11.6377-6.883 0-11.155-4.869-11.155-11.6377z"/><path d="m209.774 119.381h11.156v-55.456h-11.156z"/><path d="m257.601 119.381h10.918v-40.6123h-10.918v4.1563c-2.136-2.7313-6.527-5.1063-12.342-5.1063-12.817 0-20.413 9.5-20.413 21.375 0 11.8753 7.477 21.3753 20.413 21.3753 5.815 0 10.681-2.732 12.342-4.869zm.475-20.4248c0 7.0058-4.391 11.3998-11.156 11.3998-6.764 0-11.156-5.106-11.156-11.3998 0-6.7687 4.154-11.6375 11.156-11.6375 6.765.2375 11.156 4.9875 11.156 11.6375z"/><path d="m296.408 77.8187c-3.679 0-8.307 1.6625-10.918 4.3938v-3.4438h-10.918v40.8503h10.918v-21.6128c-.237-9.025 4.866-10.6875 7.714-10.6875 4.391 0 7.714 1.9 7.714 8.3125v24.1058h11.393v-24.2245c.119-10.6875-4.035-17.6938-15.903-17.6938z"/><path d="m349.576 119.381h10.918v-40.6123h-10.918v4.1563c-2.137-2.7313-6.528-5.1063-12.343-5.1063-12.817 0-20.412 9.5-20.412 21.375 0 11.8753 7.476 21.3753 20.412 21.3753 5.815 0 10.681-2.732 12.343-4.869zm.237-20.4248c0 7.0058-4.391 11.3998-11.156 11.3998-6.764 0-11.155-5.106-11.155-11.3998 0-6.7687 4.153-11.6375 11.155-11.6375 7.121.2375 11.156 4.9875 11.156 11.6375z"/><path d="m377.584 119.381v-4.156c1.661 2.138 6.527 4.869 12.342 4.869 12.817 0 20.413-9.5 20.413-21.3752 0-11.875-7.477-21.375-20.413-21.375-5.815 0-10.206 2.375-12.342 5.1062v-18.525h-10.918v55.694h10.918zm-.475-20.4247c0-6.7688 4.391-11.6375 11.156-11.6375 7.002 0 11.155 4.8687 11.155 11.6375 0 6.5317-4.391 11.3997-11.155 11.3997-6.884.238-11.156-4.156-11.156-11.3997z"/><path d="m414.729 119.381h11.156v-55.456h-11.156z"/><path d="m451.875 120.569c11.868 0 17.446-7.244 18.989-9.5l-8.545-4.869c-1.187 1.425-4.391 4.869-10.444 4.869-2.136 0-9.731-.713-11.155-7.482h32.042s.238-1.9.238-5.1058c-.475-13.0625-10.919-20.1875-21.362-20.1875-7.477 0-22.074 4.3938-22.074 21.1375.237 16.5058 14.241 21.1378 22.311 21.1378zm0-32.7753c5.578 0 9.257 4.1563 9.732 7.7188h-20.413c.238-4.1563 4.035-7.7188 10.681-7.7188z"/></g></g></svg>