<svg fill="none" height="180" viewBox="0 0 520 180" width="520" xmlns="http://www.w3.org/2000/svg"><g fill="#111"><path d="m263.818 132.869h11.331v-31.651c0-7.7555 5.401-13.6219 12.602-13.6219 7.202 0 13.131 5.8664 13.131 13.6219v31.636h12.184v-32.465c0-13.7297-11.222-24.0958-23.514-24.0958-4.656 0-10.197 1.4436-14.403 7.1872v-5.9279h-11.331z"/><path d="m378.703 76.2778c-16.421 0-29.009 12.8847-29.009 29.1322 0 16.663 12.603 28.703 29.009 28.703 16.84 0 29.443-12.056 29.443-28.703 0-16.2322-12.603-29.1322-29.443-29.1322zm0 46.2092c-9.22 0-16.84-7.54-16.84-17.077 0-10.0586 7.62-17.4915 16.84-17.4915 9.747 0 17.259 7.4329 17.259 17.4915 0 9.537-7.512 17.077-17.259 17.077z"/><path d="m347.569 132.869v-11.625c-8.475 4.192-16.421.844-16.421-8.386v-24.1102h15.148v-11.2107h-15.148v-14.2515h-11.75v47.5764c.016 19.488 13.457 26.199 28.171 22.007z"/><path d="m228.027 76.2778c-16.421 0-29.008 12.8847-29.008 29.1322 0 16.663 12.602 28.703 29.008 28.703 16.84 0 29.443-12.056 29.443-28.703-.016-16.2322-12.618-29.1322-29.443-29.1322zm0 46.2092c-9.313 0-16.84-7.54-16.84-17.077 0-10.0586 7.512-17.4915 16.84-17.4915 9.638 0 17.259 7.4329 17.259 17.4915 0 9.537-7.636 17.077-17.259 17.077z"/><path d="m152.627 52.075c-23.095 0-40.773 17.5071-40.773 41.2953 0 22.8357 17.678 40.7577 40.773 40.7577 23.607 0 41.301-17.922 41.301-40.7577 0-23.7882-17.694-41.2953-41.301-41.2953zm0 69.998c-15.987 0-27.752-12.056-27.752-28.7027 0-17.0771 11.75-29.6546 27.752-29.6546 16.421 0 28.279 12.5775 28.279 29.6546-.016 16.6467-11.874 28.7027-28.279 28.7027z"/><path d="m191.987 135.925c-23.064-2.488-37.84-14.175-45.134-35.721l11.547-3.8238c5.789 17.0928 16.561 25.5848 34.922 27.5658z"/></g></svg>