<svg fill="none" height="180" viewBox="0 0 520 180" width="520" xmlns="http://www.w3.org/2000/svg" xmlns:xlink="http://www.w3.org/1999/xlink"><linearGradient id="a" gradientUnits="userSpaceOnUse" x1="61.7854" x2="142.164" y1="125.69" y2="79.2222"><stop offset="0" stop-color="#07f"/><stop offset="1" stop-color="#00ecbb"/></linearGradient><linearGradient id="b" gradientUnits="userSpaceOnUse" x1="124.807" x2="89.4911" y1="100.187" y2="90.7113"><stop offset="0" stop-color="#fff"/><stop offset="1" stop-color="#fff" stop-opacity="0"/></linearGradient><clipPath id="c"><path d="m61 35h398.734v100h-398.734z"/></clipPath><mask id="d" height="75" maskUnits="userSpaceOnUse" width="52" x="89" y="59"><path clip-rule="evenodd" d="m89.4849 59.4272h51.2931v74.1948h-51.2931z" fill="url(#b)" fill-rule="evenodd"/></mask><g clip-path="url(#c)"><path d="m166.043 119.504c0 .59.148.737.665.737h9.901c.591 0 .739-.147.739-.737v-22.2857h10.862l11.231 22.3587c.222.517.444.664.887.664h10.862c.517 0 .813-.368.517-.811l-12.34-23.3923c7.463-1.9186 13.005-7.822 13.005-16.6033 0-10.9212-7.537-18.0791-18.251-18.0791h-21.28c-4.507 0-6.798 2.3614-6.798 6.789zm11.305-31.0669v-18.079h15.369c5.616 0 8.867 3.9109 8.867 9.0763 0 5.2392-3.251 9.0027-9.162 9.0027zm51.783 24.5729c-4.507 0-6.428-2.14-6.428-5.239 0-3.764 2.512-6.273 7.758-6.273 6.281 0 10.345 3.321 10.345 7.453v4.059zm15.369 7.231c3.621 0 5.986-2.139 5.986-5.755v-22.3593c0-9.2978-6.577-14.5371-18.103-14.5371-15.961 0-18.695 10.7737-18.695 13.4302 0 .5166.148.7379.665.7379h8.276c.517 0 .813-.2213.887-.7379.665-3.6896 3.399-5.9033 8.349-5.9033 6.281 0 8.867 3.0254 8.867 7.6005v5.9034s-2.586-3.911-11.97-3.911c-9.68 0-15.813 5.2392-15.813 13.2086 0 8.56 6.281 12.323 15 12.323zm20.38-33.1322h8.646c6.797 0 10.714 4.7965 10.714 12.3971 0 7.4531-3.399 12.4711-9.606 12.4711-6.059 0-9.754-4.059-9.754-11.881zm-9.901 47.1532c0 .59.148.738.665.738h8.645c.518 0 .739-.148.739-.738v-18.374s2.956 4.87 11.232 4.87c10.344 0 18.029-8.781 18.029-21.5473 0-12.766-8.498-20.9569-20.394-20.9569h-12.931c-3.62 0-5.985 2.14-5.985 5.7558zm42.547-14.758c0 .59.148.737.665.737h9.015c.517 0 .739-.147.739-.737v-40.5123c0-.5165-.222-.7379-.739-.7379h-9.015c-.517 0-.665.2214-.665.7379zm5.172-57.4107c-3.251 0-5.985 2.2876-5.985 5.682 0 3.4682 2.734 5.5344 5.985 5.5344 3.399 0 6.059-2.0662 6.059-5.5344 0-3.3944-2.66-5.682-6.059-5.682zm29.247 49.2927c-6.798 0-10.788-4.796-10.788-12.3966 0-7.4531 3.399-12.4709 9.68-12.4709 5.985 0 9.827 4.0586 9.827 11.9543v12.9132zm12.561 8.855c3.695 0 5.986-2.139 5.986-5.755v-52.3927c0-.5904-.148-.738-.665-.738h-8.646c-.517 0-.738.1476-.738.738v20.5142s-2.956-4.8703-11.306-4.8703c-10.27 0-17.881 8.7813-17.881 21.5473 0 12.7665 8.423 20.9565 20.32 20.9565zm25.701-7.231c-4.508 0-6.429-2.14-6.429-5.239 0-3.764 2.512-6.273 7.759-6.273 6.28 0 10.344 3.321 10.344 7.453v4.059zm15.369 7.231c3.62 0 5.985-2.139 5.985-5.755v-22.3593c0-9.2978-6.576-14.5371-18.103-14.5371-15.961 0-18.694 10.7737-18.694 13.4302 0 .5166.147.7379.665.7379h8.275c.517 0 .813-.2213.887-.7379.665-3.6896 3.399-5.9033 8.349-5.9033 6.281 0 8.867 3.0254 8.867 7.6005v5.9034s-2.586-3.911-11.97-3.911c-9.679 0-15.812 5.2392-15.812 13.2086 0 8.56 6.28 12.323 14.999 12.323zm12.769-15.348c0 9.74 5.024 15.348 14.852 15.348h6.059c.517 0 .665-.147.665-.737v-7.527c0-.591-.148-.738-.665-.738h-5.099c-3.029 0-5.541-1.919-5.541-5.682v-18.3744h10.64c.517 0 .665-.1476.665-.7379v-7.453c0-.5903-.148-.7379-.665-.7379h-10.64v-11.1426c0-.5166-.148-.6642-.739-.6642h-8.793c-.517 0-.739.1476-.739.6642v11.1426h-5.69c-.517 0-.665.1476-.665.7379v7.453c0 .5903.148.7379.665.7379h5.69zm40.035 8.117c-4.508 0-6.429-2.14-6.429-5.239 0-3.764 2.512-6.273 7.759-6.273 6.28 0 10.344 3.321 10.344 7.453v4.059zm15.369 7.231c3.62 0 5.985-2.139 5.985-5.755v-22.3593c0-9.2978-6.576-14.5371-18.103-14.5371-15.96 0-18.694 10.7737-18.694 13.4302 0 .5166.147.7379.665.7379h8.275c.518 0 .813-.2213.887-.7379.665-3.6896 3.399-5.9033 8.35-5.9033 6.28 0 8.866 3.0254 8.866 7.6005v5.9034s-2.586-3.911-11.97-3.911c-9.679 0-15.812 5.2392-15.812 13.2086 0 8.56 6.28 12.323 14.999 12.323z" fill="#000"/><path clip-rule="evenodd" d="m86.4112 39.579c16.3958-9.4536 37.5558-3.7915 47.0228 12.5829v.0008c9.466 16.3744 3.796 37.5064-12.6 46.96v.0002l-22.9489-39.6968-36.8851 21.2685v-26.4638zm14.5478 71.003-39.959 23.04v-26.464l28.4853-16.4238z" fill="url(#a)" fill-rule="evenodd"/><g mask="url(#d)"><path clip-rule="evenodd" d="m114.279 133.622-24.7941-42.8873 8.3999-31.3075 42.8932 74.1948z" fill="#07f" fill-rule="evenodd"/></g></g></svg>