<svg fill="none" height="180" viewBox="0 0 520 180" width="520" xmlns="http://www.w3.org/2000/svg" xmlns:xlink="http://www.w3.org/1999/xlink"><clipPath id="a"><path d="m0 0h520v180h-520z"/></clipPath><mask id="b" height="32" maskUnits="userSpaceOnUse" width="22" x="473" y="84"><path d="m494.163 84.6213h-21.006v31.3287h21.006z" fill="#fff"/></mask><g clip-path="url(#a)"><g clip-rule="evenodd" fill-rule="evenodd"><path d="m53.5118 97.198c3.6297 0 4.6876-1.9841 4.6876-3.6054 0-1.2623-.7803-3.47-3.8134-3.47h-4.1379v7.0754zm16.8679 18.346h-9.5146l-7.0315-13.435h-3.5855v8.251h3.9073v5.184h-16.3185v-5.184h4.2761v-20.2374h-4.2761v-5.186h19.4441c6.0661 0 9.3754 3.9211 9.3754 8.5653 0 3.5173-1.7458 5.9933-5.3783 7.6171l5.0564 9.241h4.0452z" fill="#e34949"/><path d="m102.555 105.808h5.928v9.735h-27.441v-5.183h3.6762v-20.2377h-3.6762v-5.1859h27.441v9.6907h-5.928v-4.5048h-9.7003v7.0281h7.8133v5.1886h-7.8133v8.021h9.7003z" fill="#e34949"/><path d="m136.797 110.36c6.206 0 9.101-3.921 9.101-10.005 0-6.5825-3.308-10.2327-9.377-10.2327h-2.804v20.2377zm-15.949 0h4.733v-20.2377h-4.733v-5.1859h16.318c5.651 0 9.559 1.0374 12.732 4.1485 3.124 3.0637 4.457 7.0307 4.457 11.2241 0 7.931-5.01 15.234-14.938 15.234h-18.569z" fill="#e34949"/><path d="m181.562 90.1227v-5.1859h15.446v5.1859h-3.585l5.193 15.3213 5.333-15.3213h-3.448v-5.1859h13.146v5.1859h-3.678l-9.055 25.6443h-6.297l-9.375-25.6443z" fill="#000"/><path d="m245.913 105.808h5.93v9.735h-27.442v-5.183h3.677v-20.2377h-3.677v-5.1859h27.442v9.6907h-5.93v-4.5048h-9.698v7.0281h7.813v5.1886h-7.813v8.021h9.698z" fill="#000"/><path d="m273.49 93.0506h-.091v17.3094h3.908v5.183h-13.652v-5.183h4.181v-20.2377h-4.181v-5.1859h13.055l11.445 19.1136h.091v-13.9277h-4.046v-5.1859h14.017v5.1859h-4.409v25.4207h-6.989z" fill="#000"/><path d="m338.025 97.243h-5.423v-7.1201h-4.69v20.2371h4.69v5.183h-17.512v-5.183h4.686v-20.2371h-4.686v7.1201h-5.427v-12.3061h28.362z" fill="#000"/><path d="m349.238 84.9364h14.526v5.1859h-2.712v15.5517c0 3.018.921 5.045 4.045 5.045 2.622 0 4.321-1.306 4.321-4.776v-15.8207h-2.574v-5.1859h12.042v5.1859h-3.906v17.1267c0 7.12-6.343 8.655-10.757 8.655-6.114 0-11.307-2.296-11.307-9.781v-16.0007h-3.678z" fill="#000"/><path d="m405.638 97.198c3.631 0 4.686-1.9841 4.686-3.6054 0-1.2623-.781-3.47-3.815-3.47h-4.136v7.0754zm16.868 18.346h-9.515l-7.033-13.435h-3.585v8.251h3.906v5.184h-16.316v-5.184h4.274v-20.2374h-4.274v-5.186h19.444c6.066 0 9.375 3.9211 9.375 8.5653 0 3.5173-1.747 5.9933-5.378 7.6171l5.057 9.241h4.045z" fill="#000"/><path d="m454.679 105.808h5.929v9.735h-27.439v-5.183h3.677v-20.2377h-3.677v-5.1859h27.439v9.6907h-5.929v-4.5048h-9.697v7.0281h7.813v5.1886h-7.813v8.021h9.697z" fill="#000"/></g><g mask="url(#b)"><path clip-rule="evenodd" d="m473.477 105.129h5.286c-.091 3.291 2.069 5.548 4.782 5.548 1.884 0 3.446-1.443 3.446-3.291 0-5.591-13.834-4.824-13.834-14.423 0-5.9511 4.549-8.3417 8.411-8.3417 2.437 0 4.412.9454 5.699 2.8428h.094v-2.5272h5.238v9.2871h-5.238c-.414-2.7954-2.116-4.5088-4.505-4.5088-1.793 0-3.08 1.0388-3.08 2.48 0 4.9558 14.387 3.8302 14.387 14.6468 0 7.304-5.744 9.108-9.054 9.108-2.76 0-4.872-.994-6.253-2.973h-.093v2.566h-5.286z" fill="#000" fill-rule="evenodd"/></g><path clip-rule="evenodd" d="m168.493 126.867v-59.1114h-1.808v59.1114z" fill="#000" fill-rule="evenodd"/></g></svg>