<svg width="833" height="180" viewBox="0 0 833 180" fill="none" xmlns="http://www.w3.org/2000/svg">
<path fill-rule="evenodd" clip-rule="evenodd" d="M76.1099 90.3182C81.9245 90.3182 83.6192 87.1294 83.6192 84.5238C83.6192 82.4951 82.3691 78.947 77.5104 78.947H70.8817V90.3182H76.1099ZM103.131 119.802H87.8894L76.6254 98.2111H70.8817V111.472H77.1409V119.802H51V111.472H57.8499V78.947H51V70.6124H82.1479C91.8653 70.6124 97.1666 76.9141 97.1666 84.378C97.1666 90.0308 94.3699 94.01 88.551 96.6199L96.651 111.472H103.131V119.802Z" fill="#E34949"/>
<path fill-rule="evenodd" clip-rule="evenodd" d="M154.674 104.155H164.17V119.802H120.212V111.471H126.101V78.9466H120.212V70.6121H164.17V86.1865H154.674V78.9466H139.135V90.2418H151.652V98.5806H139.135V111.471H154.674V104.155Z" fill="#E34949"/>
<path fill-rule="evenodd" clip-rule="evenodd" d="M209.527 111.471C219.468 111.471 224.105 105.17 224.105 95.3917C224.105 84.8129 218.806 78.9466 209.085 78.9466H204.593V111.471H209.527ZM183.977 111.471H191.559V78.9466H183.977V70.6121H210.118C219.171 70.6121 225.431 72.2794 230.513 77.2793C235.518 82.2031 237.653 88.5787 237.653 95.3178C237.653 108.065 229.628 119.802 213.724 119.802H183.977V111.471Z" fill="#E34949"/>
<path fill-rule="evenodd" clip-rule="evenodd" d="M281.237 78.9472V70.6127H305.98V78.9472H300.236L308.555 103.571L317.098 78.9472H311.575V70.6127H332.634V78.9472H326.742L312.237 120.161H302.15L287.131 78.9472H281.237Z" fill="black"/>
<path fill-rule="evenodd" clip-rule="evenodd" d="M384.322 104.155H393.821V119.802H349.862V111.471H355.752V78.9466H349.862V70.6121H393.821V86.1865H384.322V78.9466H368.786V90.2418H381.302V98.5806H368.786V111.471H384.322V104.155Z" fill="black"/>
<path fill-rule="evenodd" clip-rule="evenodd" d="M428.499 83.6528H428.353V111.471H434.613V119.802H412.744V111.471H419.441V78.9466H412.744V70.6121H433.657L451.99 101.33H452.136V78.9466H445.655V70.6121H468.11V78.9466H461.046V119.802H449.85L428.499 83.6528Z" fill="black"/>
<path fill-rule="evenodd" clip-rule="evenodd" d="M531.879 90.3906H523.191V78.9475H515.679V111.472H523.191V119.802H495.138V111.472H502.645V78.9475H495.138V90.3906H486.445V70.6129H531.879V90.3906Z" fill="black"/>
<path fill-rule="evenodd" clip-rule="evenodd" d="M549.841 70.6121H573.11V78.9466H568.765V103.94C568.765 108.79 570.241 112.048 575.245 112.048C579.445 112.048 582.168 109.95 582.168 104.373V78.9466H578.044V70.6121H597.335V78.9466H591.078V106.471C591.078 117.914 580.916 120.381 573.845 120.381C564.052 120.381 555.733 116.691 555.733 104.662V78.9466H549.841V70.6121Z" fill="black"/>
<path fill-rule="evenodd" clip-rule="evenodd" d="M640.189 90.3182C646.006 90.3182 647.696 87.1294 647.696 84.5238C647.696 82.4951 646.444 78.947 641.585 78.947H634.959V90.3182H640.189ZM667.21 119.802H651.968L640.702 98.2111H634.959V111.472H641.216V119.802H615.079V111.472H621.925V78.947H615.079V70.6124H646.227C655.944 70.6124 661.245 76.9141 661.245 84.378C661.245 90.0308 658.447 94.01 652.63 96.6199L660.73 111.472H667.21V119.802Z" fill="black"/>
<path fill-rule="evenodd" clip-rule="evenodd" d="M718.749 104.155H728.248V119.802H684.292V111.471H690.183V78.9466H684.292V70.6121H728.248V86.1865H718.749V78.9466H703.215V90.2418H715.732V98.5806H703.215V111.471H718.749V104.155Z" fill="black"/>
<mask id="mask0_2001_81" style="mask-type:luminance" maskUnits="userSpaceOnUse" x="748" y="70" width="34" height="51">
<path d="M781.999 70.1057H748.35V120.455H781.999V70.1057Z" fill="white"/>
</mask>
<g mask="url(#mask0_2001_81)">
<path fill-rule="evenodd" clip-rule="evenodd" d="M748.863 103.064H757.33C757.184 108.353 760.645 111.981 764.99 111.981C768.008 111.981 770.51 109.661 770.51 106.692C770.51 97.7065 748.35 98.9385 748.35 83.512C748.35 73.9476 755.636 70.1057 761.824 70.1057C765.727 70.1057 768.891 71.6251 770.953 74.6745H771.103V70.6129H779.495V85.5386H771.103C770.44 81.0459 767.714 78.2923 763.886 78.2923C761.014 78.2923 758.952 79.9618 758.952 82.2779C758.952 90.2426 782 88.4337 782 105.817C782 117.556 772.798 120.455 767.495 120.455C763.074 120.455 759.691 118.858 757.479 115.677H757.33V119.802H748.863V103.064Z" fill="black"/>
</g>
<path fill-rule="evenodd" clip-rule="evenodd" d="M260.301 138V43H257.404V138H260.301Z" fill="black"/>
</svg>
