<svg fill="none" height="180" viewBox="0 0 520 180" width="520" xmlns="http://www.w3.org/2000/svg" xmlns:xlink="http://www.w3.org/1999/xlink"><clipPath id="a"><path d="m168 50h183v79h-183z"/></clipPath><g clip-path="url(#a)"><path d="m222.078 71.8628c0-18.0965-10.048-21.6178-27.404-21.6178h-26.613v77.469h12.789v-34.3558h13.062l16.534 34.3558h14.494l-18.635-36.1012c6.151-1.8066 15.773-6.7058 15.773-19.75zm-12.789 0c0 12.0337-3.745 17.6679-11.784 17.6679h-16.655v-35.3969h13.793c10.231 0 14.616 5.2666 14.616 17.6372v.0918zm57.519-.8267c-4.111-.0613-8.13.9492-11.723 2.9395s-6.577 4.8992-8.708 8.4206v-32.1512h-12.728v77.469h12.728v-34.907c0-6.767 6.485-16.6267 16.686-16.6267 9.317 0 11.083 5.236 11.083 15.0651v36.4686h12.85v-34.5395c0-14.9121-6.699-22.1384-20.188-22.1384zm56.331 0c-13.763 0-27.648 8.9411-27.648 28.8748 0 19.9341 13.885 28.8751 27.648 28.8751s27.648-8.727 27.648-28.661c0-19.9335-13.915-29.0889-27.648-29.0889zm14.129 28.8442c0 18.0047-1.949 25.5677-14.159 25.5677-9.957.092-14.129-3.46-14.129-25.353 0-18.0357 1.979-25.5682 14.159-25.5682 9.957-.0919 14.129 3.4294 14.129 25.5682z" fill="#000"/></g></svg>