<svg fill="none" height="180" viewBox="0 0 462 180" width="462" xmlns="http://www.w3.org/2000/svg" xmlns:xlink="http://www.w3.org/1999/xlink"><clipPath id="a"><path d="m50 50h363v86h-363z"/></clipPath><g clip-path="url(#a)" clip-rule="evenodd" fill="#000" fill-rule="evenodd"><path d="m67.1733 57.8296c0-4.3242 3.4999-7.8296 7.8175-7.8296h53.0582c4.317 0 7.817 3.5054 7.817 7.8296v1.5408c0 4.3242-3.5 7.8296-7.817 7.8296h-53.0582c-4.3176 0-7.8175-3.5054-7.8175-7.8296zm6.4286 26.5704h54.4471c4.317 0 7.817 3.5054 7.817 7.8297v1.5406c0 4.3243-3.5 7.8297-7.817 7.8297h-53.0582c-4.3176 0-7.8175-3.5054-7.8175-7.8297v-3.0558c-.001.045-.0014.0901-.0014.1355 0-3.5613-2.8824-6.4485-6.4386-6.45h-2.1467c-4.7422 0-8.5866-3.8504-8.5866-8.6 0-4.7497 3.8444-8.6 8.5866-8.6 4.7423 0 8.5867 3.8503 8.5867 8.6v2.2857c.0721 3.4959 2.9216 6.3083 6.4286 6.3143zm70.8511 17.2c-4.742 0-8.587 3.85-8.587 8.6v2.286c-.001-.045-.001-.091-.001-.136 0 3.561-2.882 6.448-6.437 6.45h-.002-63.0219c-4.3175 0-7.8175 3.505-7.8175 7.83v1.54c0 4.325 3.5 7.83 7.8174 7.83h61.645c4.317 0 7.817-3.505 7.817-7.83v-3.056c.072-3.499 2.928-6.314 6.44-6.314h2.147c4.742 0 8.587-3.85 8.587-8.6s-3.845-8.6-8.587-8.6z"/><path d="m315.164 119.454c-2.449-1.47-4.401-3.427-5.869-5.882-1.466-2.455-2.187-5.146-2.187-8.075v-13.4587c0-2.9286.734-5.6328 2.187-8.1253 1.468-2.4798 3.42-4.4363 5.869-5.882 2.449-1.433 5.135-2.1558 8.056-2.1558h5.992c.584 0 1.157.1744 1.64.4984l6.689 4.5238v-22.3567c0-.324.262-.5857.584-.5857h7.771c.322 0 .584.2617.584.5857v62.5213c0 .324-.262.586-.584.586h-7.771c-.322 0-.584-.262-.584-.586v-4.436l-6.689 4.523c-.483.324-1.056.499-1.64.499h-5.992c-2.921 0-5.607-.735-8.056-2.194zm2.997-8.885c1.404 1.408 3.082 2.106 5.059 2.106h3.22c.584 0 1.155-.174 1.641-.498l9.46-6.406v-13.9944l-9.46-6.4055c-.486-.324-1.057-.4984-1.641-.4984h-3.196c-1.728 0-3.417.5982-4.699 1.7446-1.653 1.4706-2.486 3.2899-2.486 5.4334v13.4593c0 1.968.696 3.663 2.102 5.072zm-126.878 4.611c1.317 2.044 3.12 3.626 5.42 4.761l-.013-.025c2.3 1.133 4.886 1.707 7.745 1.707h8.143c4.537 0 8.205-1.172 11.014-3.502 2.797-2.33 4.202-5.384 4.202-9.147 0-3.477-.945-6.256-2.859-8.35-1.915-2.0932-4.152-3.6384-6.713-4.6229-2.573-.9844-5.818-1.9565-9.759-2.916-3.344-.7727-5.781-1.508-7.297-2.1932-1.529-.6854-2.288-1.6575-2.288-2.9163 0-1.1962.448-2.1184 1.343-2.7789.895-.6604 2.238-.9844 4.028-.9844h7.695c1.554 0 2.834.4734 3.854 1.4329 1.094.9721 1.516 2.3304 1.541 3.7636 0 .3614.311.6356.659.6356h7.621c.36 0 .671-.2991.671-.6605.037-4.91-2.66-9.5084-7.086-11.7764-2.2-1.1591-4.625-1.7448-7.248-1.7448h-7.695c-4.239 0-7.695 1.0968-10.343 3.3149-2.648 2.2182-3.978 5.1467-3.978 8.798 0 3.0532.82 5.4958 2.461 7.3152 1.641 1.8195 3.605 3.1654 5.905 4.0377 2.3.8595 5.296 1.7195 9.001 2.5545 2.685.661 4.774 1.234 6.266 1.707 1.479.474 2.734 1.147 3.754 2.019 1.007.873 1.516 2.044 1.516 3.365s-.546 2.368-1.615 3.14c-1.07.785-2.624 1.172-4.65 1.172h-8.143c-1.877 0-3.331-.411-4.463-1.334-1.131-.922-1.715-2.38-1.715-3.85v-.948c0-.324-.261-.585-.584-.585h-7.77c-.324 0-.585.261-.585.585v1.209c0 2.505.647 4.786 1.965 6.817zm92.379-30.3195c1.977 0 3.656.6979 5.06 2.1061v.025c1.406 1.4082 2.101 3.1031 2.101 5.072v29.0234c0 .324.262.586.584.586h7.771c.322 0 .584-.262.584-.586v-29.0234c0-2.9285-.721-5.6452-2.188-8.1253-1.468-2.4922-3.419-4.4487-5.869-5.8819-2.447-1.4332-5.132-2.1558-8.054-2.1558h-6.03c-.56 0-1.105.1868-1.554.5108l-6.725 4.8726v-4.7978c0-.324-.262-.5856-.584-.5856h-7.77c-.324 0-.585.2616-.585.5856v44.5638c0 .324.261.586.585.586h7.77c.322 0 .584-.262.584-.586v-29.5598l9.548-6.2059c.423-.2742.931-.4238 1.44-.4238zm80.197-8.973h-7.769v.0124c-.324 0-.586.2617-.586.5857v44.5764c0 .324.262.586.586.586h7.769c.324 0 .584-.262.584-.586v-28.2138l11.512-7.714c.385-.2617.846-.2617 1.069-.2617 1.741 0 3.407.7104 4.538 2.0812 1.132 1.3709 1.69 3.078 1.69 5.0968v3.589h8.951v-3.589c0-2.9285-.672-5.6452-2.013-8.1251-1.344-2.4924-3.184-4.4489-5.509-5.8819-2.324-1.4332-4.836-2.156-7.519-2.156h-1.554c-.685 0-1.357.1995-1.915.5856l-9.25 6.3182v-6.3182c0-.324-.26-.5856-.584-.5856zm-124.379 36.7875c.195 0 .154-.096.091-.243-.041-.096-.091-.214-.091-.343v-26.6306c0-.324-.261-.5859-.585-.5859h-4.885c-.324 0-.585-.2616-.585-.5856v-7.7886c0-.324.261-.5859.585-.5859h13.836c.323 0 .584.2619.584.5859v35.6037c0 .128-.05.246-.091.343-.063.147-.104.243.091.243.196 0 .155.095.092.242-.041.097-.092.215-.092.343v7.789c0 .128.051.247.092.343.063.147.104.243-.092.243h-8.95c-.196 0-.155-.096-.092-.243.041-.096.092-.215.092-.343v-7.789c0-.128-.051-.246-.092-.343-.063-.147-.104-.242.092-.242zm9.07-47.2757c0 2.9147-2.355 5.2733-5.265 5.2733s-5.265-2.3586-5.265-5.2733 2.355-5.2733 5.265-5.2733 5.265 2.3586 5.265 5.2733zm155.355 47.2757c.195 0 .154-.096.092-.243-.041-.096-.092-.214-.092-.343v-26.6306c0-.324-.26-.5859-.584-.5859h-4.886c-.322 0-.584-.2616-.584-.5856v-7.7886c0-.324.262-.5859.584-.5859h13.837c.322 0 .584.2619.584.5859v35.6037c0 .128-.051.246-.092.343-.062.147-.103.243.092.243.196 0 .155.095.093.242-.043.097-.093.215-.093.343v7.789c0 .128.05.247.093.343.062.147.103.243-.093.243h-8.951c-.196 0-.155-.096-.09-.243.04-.096.09-.215.09-.343v-7.789c0-.128-.05-.246-.09-.343-.065-.147-.106-.242.09-.242zm9.024-47.2757c0 2.9147-2.355 5.2733-5.265 5.2733-2.911 0-5.266-2.3586-5.266-5.2733s2.355-5.2733 5.266-5.2733c2.91 0 5.265 2.3586 5.265 5.2733z"/></g></svg>