<svg fill="none" height="180" viewBox="0 0 520 180" width="520" xmlns="http://www.w3.org/2000/svg" xmlns:xlink="http://www.w3.org/1999/xlink"><clipPath id="a"><path d="m145 32h229.096v100h-229.096z"/></clipPath><mask id="b" height="100" maskUnits="userSpaceOnUse" width="230" x="145" y="32"><path d="m374.096 32h-229.096v100h229.096z" fill="#fff"/></mask><g clip-path="url(#a)"><g mask="url(#b)"><path d="m251.203 68.4022h-19.29l26.876 63.5978 9.609-22.875z" fill="#9c77b8"/><path d="m268.398 109.125-9.608 22.875h19.217z" fill="#0bc9cd"/><path d="m223.099 68.4729h-17.845v63.5271h17.845z" fill="#7050a3"/><path d="m214.502 49.5637c4.948 0 8.959-3.9318 8.959-8.7818 0-4.8501-4.011-8.7819-8.959-8.7819s-8.959 3.9318-8.959 8.7819c0 4.85 4.011 8.7818 8.959 8.7818z" fill="#0bc9cd"/><path d="m182.713 95.9517c-2.962-1.2039-6.069-2.1955-9.175-3.0455-2.818-.6373-5.636-1.5579-8.309-2.6909-1.445-.5667-2.384-1.9831-2.312-3.5413-.144-.9915.217-1.983.867-2.6912.795-.7082 1.734-1.204 2.818-1.4873 1.3-.354 2.673-.4958 4.046-.4958 2.167.0709 4.334.6376 6.213 1.6998 2.384 1.1333 4.624 2.6912 6.502 4.5327l1.662 1.6288 9.32-10.1983-1.228-1.4164c-2.89-3.4703-6.792-6.0906-11.126-7.5779-3.829-1.4164-7.947-2.1955-12.066-2.1955-3.829 0-7.586.7791-11.054 2.2664-3.323 1.4164-6.285 3.6119-8.525 6.374-2.239 2.9037-3.468 6.4446-3.323 10.0565 0 4.5325 1.228 8.2861 3.612 10.9774 2.312 2.6208 5.202 4.6738 8.525 5.9488 3.179 1.275 6.358 2.337 9.682 3.258h.072c1.878.425 3.757.921 5.635 1.558 1.3.425 2.457 1.062 3.468 1.912.65.638 1.012 1.558.939 2.479.073.991-.216 1.983-.867 2.762-.722.779-1.661 1.416-2.673 1.7-1.084.425-2.312.566-3.468.637-2.89.142-5.707-.425-8.308-1.629-2.312-1.133-4.407-2.762-6.141-4.674l-1.445-1.629-11.054 9.278 1.3 1.629c2.963 3.753 6.936 6.657 11.488 8.286 4.19 1.487 8.669 2.266 13.221 2.266 3.757 0 7.514-.779 10.982-2.266 3.395-1.417 6.357-3.683 8.669-6.516 2.384-2.974 3.613-6.728 3.468-10.481 0-4.604-1.156-8.287-3.396-10.907-2.167-2.6203-4.912-4.6033-8.019-5.8073z" fill="#7050a3"/><path d="m304.883 68.4022h-19.29l-17.195 40.7228 9.609 22.875z" fill="#7050a3"/><path d="m341.657 68.4022c-17.917 0-32.439 14.2351-32.439 31.7988 0 17.564 14.522 31.799 32.439 31.799s32.439-14.235 32.439-31.799c0-17.5637-14.522-31.7988-32.439-31.7988zm0 46.1048c-8.092 0-14.594-6.374-14.594-14.306 0-7.9318 6.502-14.3058 14.594-14.3058s14.594 6.374 14.594 14.3058c0 7.861-6.502 14.306-14.594 14.306z" fill="#0bc9cd"/></g></g></svg>