<svg width="520" height="180" viewBox="0 0 520 180" fill="none" xmlns="http://www.w3.org/2000/svg">
<g clip-path="url(#clip0_269_4746)">
<path d="M477.699 82.5002H445.918V50.6982H414.159V82.5002H382.4V114.28H414.159V146.059H445.918V114.28H477.699V82.5002Z" fill="#E2001A"/>
<path d="M63.3698 83.0453C61.7699 81.6581 59.7873 80.4789 57.5961 80.4789C55.1613 80.4789 53.5962 81.9702 53.5962 84.3979C53.5962 90.9873 65.7002 91.3688 65.7002 102.189C65.7002 109.299 61.5959 114.675 54.1527 114.675C51.9266 114.675 49.1441 113.981 47.3355 112.663V105.103C49.2137 106.386 51.0223 107.218 53.3527 107.218C55.9265 107.218 57.9439 105.519 57.9439 102.848C57.9439 99.7617 55.5091 98.5825 53.2483 96.9872C48.6572 93.9005 45.8398 90.918 45.8398 85.0915C45.8398 78.7795 49.5267 73.2999 56.3439 73.2999C58.9178 73.2999 61.1786 73.9935 63.3698 75.2767V82.9759V83.0453ZM73.8739 87.2417L77.4912 102.952H77.5955L81.1085 87.2417H87.5431L90.9517 102.952H91.056L91.5778 100.074L94.7777 87.2071H101.908L94.4646 114.05H88.2735L85.804 104.964L84.204 97.1953H84.0997L82.5693 105.762L80.4476 114.05H74.1521L66.5349 87.2071H73.8391L73.8739 87.2417ZM104.343 79.2304C104.343 76.5252 106.534 74.5137 109.247 74.5137C111.96 74.5137 113.873 76.8027 113.873 79.3344C113.873 81.8661 111.682 84.0511 109.073 84.0511C106.464 84.0511 104.343 81.8661 104.343 79.2304ZM112.864 87.2417V114.085H105.351V87.2417H112.864ZM130.012 94.4901C128.933 93.519 127.925 92.7214 126.394 92.7214C125.073 92.7214 124.377 93.519 124.377 94.6982C124.481 97.8195 132.968 97.1953 132.968 105.207C132.968 110.513 129.872 114.605 124.342 114.605C121.455 114.605 118.464 113.391 116.238 111.519L119.542 106.212C120.655 107.183 121.768 107.981 123.264 107.981C124.446 107.981 125.455 107.114 125.455 105.762C125.559 102.189 116.864 103.091 116.864 94.5942C116.864 89.496 121.142 86.7215 125.872 86.7215C128.585 86.7215 130.881 87.4151 133.072 89.0105L130.046 94.4901H130.012ZM150.046 94.4901C148.968 93.519 147.959 92.7214 146.428 92.7214C145.107 92.7214 144.411 93.519 144.411 94.6982C144.515 97.8195 153.002 97.1953 153.002 105.207C153.002 110.513 149.907 114.605 144.376 114.605C141.489 114.605 138.498 113.391 136.272 111.519L139.576 106.212C140.69 107.183 141.803 107.981 143.298 107.981C144.481 107.981 145.489 107.114 145.489 105.762C145.594 102.189 136.898 103.091 136.898 94.5942C136.898 89.496 141.176 86.7215 145.907 86.7215C148.62 86.7215 150.915 87.4151 153.107 89.0105L150.081 94.4901H150.046ZM170.184 114.085V74.0282H178.184C183.262 74.0282 192.306 74.5484 192.306 85.5077C192.306 89.9122 190.532 93.6925 186.601 95.8774L193.592 114.085H185.21L178.219 95.5999H178.115V114.085H170.184ZM178.115 91.2301L179.506 91.2994C183.123 91.2994 184.584 88.8718 184.584 85.577C184.584 82.6985 183.193 80.3749 179.193 80.5829H178.115V91.2648V91.2301ZM214.253 102.675H202.357C202.427 104.652 202.323 108.883 205.175 108.883C207.088 108.883 207.575 107.392 207.575 105.796H213.975C213.661 108.259 212.896 110.478 211.54 112.074C210.218 113.669 208.236 114.64 205.453 114.64C197.836 114.64 195.123 107.877 195.123 101.253C195.123 94.6288 197.453 86.7562 205.314 86.7562C210.253 86.7562 214.844 91.1607 214.427 99.6229L214.253 102.71V102.675ZM207.922 97.4033C207.922 95.6346 207.54 92.4786 205.21 92.4786C202.879 92.4786 202.427 95.5652 202.427 97.2646V98.0623H207.922V97.438V97.4033ZM229.522 111.068H229.418C228.409 113.079 226.844 114.64 224.479 114.64C218.392 114.64 217.174 104.964 217.174 100.663C217.174 96.0508 218.079 86.7562 224.374 86.7562C226.879 86.7562 228.583 88.4209 229.452 90.5711H229.557V71.219H237.07V114.085H229.557V111.068H229.522ZM230.044 100.559C230.044 99.068 229.87 93.3803 227.331 93.3803C224.792 93.3803 224.652 98.9987 224.652 100.559C224.652 102.259 224.757 107.773 227.435 107.773C229.835 107.773 230.044 101.981 230.044 100.559ZM274.773 81.554C273.764 81.2766 272.79 81.1378 271.782 81.1378C264.791 81.1378 261.765 87.4498 261.765 93.6231C261.765 99.7964 264.791 106.906 271.747 106.906C272.756 106.906 273.764 106.629 274.773 106.316V113.808C273.59 114.293 272.373 114.501 271.086 114.501C259.643 114.501 253.278 104.201 253.278 93.6578C253.278 83.7389 259.886 73.508 270.703 73.508C272.095 73.508 273.416 73.7854 274.738 74.2363V81.5193L274.773 81.554ZM286.529 87.2417V90.4671H286.633C288.025 88.1434 289.833 86.4787 292.755 86.2013V93.4844C292.372 93.415 292.025 93.3803 291.572 93.3803C286.564 93.3803 286.494 96.675 286.494 100.663V114.05H278.981V87.2071H286.494L286.529 87.2417ZM313.763 100.698C313.763 107.565 311.572 114.605 303.537 114.605C295.503 114.605 293.312 107.53 293.312 100.698C293.312 93.8659 295.503 86.7215 303.537 86.7215C311.572 86.7215 313.763 93.8312 313.763 100.698ZM300.824 100.698C300.824 102.224 300.929 107.912 303.537 107.912C306.146 107.912 306.25 102.224 306.25 100.698C306.25 99.1721 306.146 93.4844 303.537 93.4844C300.929 93.4844 300.824 99.1721 300.824 100.698ZM330.284 94.4901C329.206 93.519 328.198 92.7214 326.667 92.7214C325.345 92.7214 324.65 93.519 324.65 94.6982C324.754 97.8195 333.241 97.1953 333.241 105.207C333.241 110.513 330.145 114.605 324.615 114.605C321.728 114.605 318.772 113.391 316.511 111.519L319.815 106.212C320.928 107.183 322.041 107.981 323.537 107.981C324.719 107.981 325.728 107.114 325.728 105.762C325.832 102.189 317.137 103.091 317.137 94.5942C317.137 89.496 321.415 86.7215 326.145 86.7215C328.858 86.7215 331.154 87.4151 333.345 89.0105L330.319 94.4901H330.284ZM350.388 94.4901C349.31 93.519 348.301 92.7214 346.771 92.7214C345.449 92.7214 344.754 93.519 344.754 94.6982C344.858 97.8195 353.345 97.1953 353.345 105.207C353.345 110.513 350.249 114.605 344.719 114.605C341.832 114.605 338.841 113.391 336.615 111.519L339.919 106.212C341.032 107.183 342.145 107.981 343.641 107.981C344.823 107.981 345.832 107.114 345.832 105.762C345.936 102.189 337.241 103.091 337.241 94.5942C337.241 89.496 341.519 86.7215 346.249 86.7215C348.962 86.7215 351.258 87.4151 353.449 89.0105L350.423 94.4901H350.388Z" fill="#181716"/>
</g>
<defs>
<clipPath id="clip0_269_4746">
<rect width="520" height="180" fill="white"/>
</clipPath>
</defs>
</svg>
