<svg fill="none" height="180" viewBox="0 0 833 180" width="833" xmlns="http://www.w3.org/2000/svg"><path clip-rule="evenodd" d="m633.31 126.593c-5.571-.195-9.796-.39-12.583-.39-2.691 0-6.629.193-11.914.39l.193-2.347c5.092-.781 5.668-1.759 5.668-10.462v-14.8623c0-12.1229-2.114-16.4241-8.069-16.4241-3.556 0-7.208 2.3458-8.742 5.6692-.483 1.1729-.962 2.3477-1.25 3.7157-.097.4889-.193.8792-.193 1.0763v20.8252c0 8.703.579 9.681 5.669 10.462l.193 2.347c-5.093-.195-8.935-.39-11.53-.39-2.498 0-6.245.193-11.239.39l.193-2.347c5.091-.781 5.667-1.759 5.667-10.462v-14.8623c0-12.1229-2.114-16.4241-8.069-16.4241-3.652 0-6.917 2.1487-8.743 5.6692-.767 1.5651-1.44 3.8143-1.44 4.792v20.8252c0 8.703.576 9.681 5.667 10.462l.194 2.347c-5.285-.195-9.32-.39-12.009-.39-2.787 0-6.918.193-12.49.39l.193-2.347c6.434 0 7.397-1.27 7.397-10.462v-22.684c0-9.0932-.961-10.3627-7.397-10.4612l-.193-2.2491c8.55-.4889 10.472-.7826 17.772-2.3458l.482 8.7995c5.476-6.16 9.701-8.5077 15.371-8.5077 6.531 0 10.376 2.738 13.257 9.2883 5.86-6.844 10.183-9.2883 16.043-9.2883 9.126 0 14.314 6.2585 14.314 17.2085v20.2398c0 .783-.096 1.566-.096 2.348 0 6.257 1.729 8.116 7.493 8.116l.193 2.345m19.637-60.2953c-3.65 0-6.434-2.8346-6.434-6.6489 0-3.7157 2.879-6.6488 6.434-6.6488 3.556 0 6.437 3.0317 6.437 6.6488 0 3.7157-2.787 6.6489-6.435 6.6489zm13.642 60.2303c-5.955-.196-10.279-.391-13.255-.391-2.883 0-7.207.194-13.068.391l.193-2.346c6.437 0 7.302-1.272 7.397-10.463l.097-6.16v-10.2662l-.097-6.2585c-.097-9.0912-.96-10.3627-7.397-10.4612l-.193-2.2491c8.84-.5855 10.857-.8792 18.639-2.3458v31.5808l.096 6.16c.095 9.191.864 10.463 7.397 10.463l.193 2.346zm20.171 1.47c-3.556 0-6.918-.781-13.066-2.835l-.385-9.972 4.901-.197c2.208 7.53 3.651 8.997 8.741 8.997 4.419 0 7.302-2.348 7.302-5.867 0-3.323-2.017-5.866-8.069-10.071-3.074-2.152-5.188-3.619-6.342-4.498-2.498-1.957-4.322-4.3029-5.282-6.9423-.578-1.4666-.866-3.2269-.866-5.2809 0-8.896 5.957-14.6657 14.986-14.6657 3.362 0 5.285.2937 13.066 2.1506l.193 9.8757-4.9.1951c-1.153-6.5503-3.169-8.7994-7.686-8.7994-4.323 0-7.397 2.5428-7.397 6.16 0 3.422 1.536 5.476 6.531 8.7028 4.518 3.0298 8.168 5.6711 10.473 7.9181 2.786 2.543 4.228 5.965 4.228 9.779 0 8.701-7.206 15.35-16.428 15.35zm54.331-3.093c-3.266 1.855-7.784 2.933-12.392 2.933-4.228 0-8.26-2.445-9.992-6.064-1.437-3.031-1.92-6.061-1.92-12.71v-25.0302h-6.151v-4.4983c7.594-.5855 10.568-3.9109 12.776-14.0803h4.329v13.2011h12.101l-1.346 5.3775h-10.757v24.0522c0 12.027 1.536 14.861 8.071 14.861 1.536 0 2.975-.193 5.281-.879zm-590.683-53.0135-3.459.1952c-.29-9.2883-2.21-10.5597-16.043-10.5597h-2.978v53.484c0 7.333 1.824 9.289 8.935 9.484l.193 2.543c-6.726-.097-11.818-.097-15.18-.097-3.458 0-8.743 0-15.661.097l.194-2.543c7.11-.193 8.934-2.151 8.934-9.484v-53.484h-3.458c-14.2178 0-16.1404 1.2714-16.3317 10.5597l-3.5553-.1932.3864-15.1565c13.0616.0966 22.7656.1951 29.2986.1951 6.245 0 15.756-.0966 28.34-.1951zm61.14 54.9045c-5.573-.197-9.799-.39-12.585-.39-2.69 0-6.627.193-11.914.39l.193-2.347c5.092-.783 5.669-1.759 5.669-10.462v-14.8644c0-12.318-2.114-16.426-8.455-16.426-3.556 0-7.206 2.2492-8.742 5.6712-.575 1.1728-.96 2.4443-1.344 3.7157-.097.4888-.097.8791-.097 1.0743v20.8272c0 8.703.576 9.681 5.669 10.462l.191 2.347c-5.379-.197-9.319-.39-12.008-.39-2.787 0-7.013.193-12.489.39l.194-2.347c6.434 0 7.396-1.272 7.396-10.462v-44.6807c0-9.1917-.96-10.4631-7.398-10.4631l-.192-2.3458c8.742-.4908 10.761-.7825 18.637-2.2491v30.3072c5.091-5.7677 9.416-8.0188 15.083-8.0188 9.416 0 14.602 6.0653 14.602 17.2105v20.2398c0 9.19.962 10.462 7.397 10.462zm26.22-46.7079c-5.762 0-8.741 4.8886-9.701 15.5468 8.838-.1951 11.527-.3903 20.462-1.368-1.152-9.4854-4.707-14.1788-10.761-14.1788zm-9.414 19.2625c.387 14.8614 5.67 23.2704 14.508 23.2704 5.282 0 9.702-2.445 14.41-8.019l1.44 2.74c-5.955 7.528-11.816 10.656-19.502 10.656-13.352 0-22.383-9.972-22.383-24.737 0-15.7415 9.319-26.5949 22.767-26.5949 7.399 0 12.585 2.738 16.14 8.7028 2.402 4.106 3.073 6.9406 3.169 13.9817zm99.366 10.7354-2.209 16.428-7.398.097-23.535-.195-15.949.096.29-2.541c7.01-.197 8.836-2.152 8.836-9.485v-46.2483c0-7.3329-1.826-9.2883-8.836-9.4835l-.29-2.5428 14.892.1951 23.438-.2917 6.151.0966.384 14.3739-3.845.2937c-.67-8.8999-2.303-9.8757-16.138-9.8757h-2.112l-.962.0967v26.5953c1.826 0 3.265.0986 4.131.0986 1.536.0966 2.979.1932 4.419.1932 7.686 0 9.416-1.6617 9.51-9.0912h3.266c-.286 5.9649-.286 8.9946-.286 11.9278 0 2.3476 0 5.6711.097 10.0723h-3.077c-.384-7.0407-1.92-8.4087-9.317-8.5072l-5.188-.0966-3.652.1932v20.6326c0 8.309.481 8.701 8.55 8.701 10.858 0 14.028-2.443 14.989-11.928zm46.316 9.895c-5.476 5.77-9.992 8.019-16.331 8.019-12.684 0-20.946-10.073-20.946-25.423.002-15.84 8.743-25.9109 22.578-25.9109 3.652 0 7.397.684 13.161 2.2491l.193 11.7326-4.324.2937c-1.728-8.7994-3.459-10.8534-9.03-10.8534-7.205 0-10.952 6.5503-10.952 19.164 0 14.8629 4.514 23.1729 12.682 23.1729 4.225 0 7.781-1.858 11.527-5.964zm29.681-39.6011c-7.014 0-10.567 6.1638-10.567 18.3833 0 1.4688.096 2.9328.193 4.3998 1.057 13.982 5.476 21.512 12.872 21.512 6.918 0 11.049-7.333 11.049-19.653 0-14.4727-5.669-24.6402-13.545-24.6402zm1.154 47.6181c-13.739 0-22.961-9.385-23.44-23.759v-1.466c0-16.5249 8.741-26.1069 23.728-26.1069 13.931 0 23.727 10.5597 23.727 25.7159 0 15.35-9.506 25.616-24.015 25.616zm85.19-1.405c-5.57-.195-9.798-.39-12.584-.39-2.69 0-6.725.193-12.009.39l.193-2.347c5.091-.781 5.571-1.759 5.667-10.462l.097-6.159v-8.7033c0-12.3181-2.211-16.4241-8.454-16.4241-3.748 0-6.917 2.0521-8.84 5.6692-.767 1.4685-1.439 3.8143-1.439 4.792v20.8252c0 8.703.576 9.681 5.667 10.462l.29 2.347c-5.382-.195-9.416-.39-12.106-.39-2.786 0-6.917.193-12.49.39l.194-2.347c6.436 0 7.396-1.27 7.396-10.462v-22.684c0-9.0932-.96-10.3627-7.396-10.4612l-.194-2.2491c8.55-.4889 10.473-.7826 17.773-2.3458l.483 8.7995c5.474-6.2586 9.7-8.5077 15.562-8.5077 9.318 0 14.602 6.16 14.602 17.2085v20.2398c-.096.783-.096 1.566-.096 2.348 0 6.257 1.632 8.116 7.493 8.116zm28.083-46.2131c-7.014 0-10.567 6.1638-10.567 18.3833 0 1.4688.097 2.9328.193 4.3998 1.055 13.982 5.474 21.512 12.873 21.512 6.917 0 11.046-7.333 11.046-19.653 0-14.4727-5.667-24.6421-13.545-24.6421zm1.154 47.6181c-13.738 0-22.961-9.385-23.442-23.759v-1.466c0-16.5249 8.743-26.1069 23.73-26.1069 13.929 0 23.728 10.5597 23.728 25.7159 0 15.35-9.509 25.616-24.016 25.616z" fill="#e3120b" fill-rule="evenodd"/></svg>