<svg fill="none" height="180" viewBox="0 0 520 180" width="520" xmlns="http://www.w3.org/2000/svg"><path clip-rule="evenodd" d="m130.38 68.6575 10.725 29.4779 11.237-29.4779h15.951l-27.277 68.2625h-15.777l8.068-21.152-19.391-47.1105zm168.483-1.0453c14.403 0 24.907 11.1427 24.907 26.394 0 15.2508-10.504 26.3968-24.907 26.3968-5.316 0-9.791-1.403-13.207-4.109l-.221-.179-.19-.155v20.944h-15.371v-68.2465h13.592v5.1019l.078-.0882c3.348-3.8077 8.414-5.9138 14.674-6.0512l.33-.0052zm-102.572 0c15.86 0 27.102 10.9248 27.102 26.394 0 15.4038-11.278 26.3968-27.102 26.3968-15.913 0-27.21-10.977-27.21-26.3968 0-15.4847 11.258-26.394 27.21-26.394zm52.712-10.1857v11.231h12.644v13.2359h-12.644v18.2706c0 4.087 1.99 6.336 5.617 6.474l.177.002.179.003c2.459 0 4.322-.643 5.989-2.241l.157-.153.413-.423h.115v14.6l-.471.226c-2.532 1.206-4.09 1.751-8.404 1.751-12.187 0-18.878-6.614-19.139-18.966l-.005-.376v-.376l-.002-18.7916h-5.563v-13.2359h5.982v-11.231zm108.355 10.1857c15.861 0 27.103 10.9248 27.103 26.394 0 15.4038-11.279 26.3968-27.103 26.3968-15.912 0-27.209-10.977-27.209-26.3968 0-15.4847 11.261-26.394 27.209-26.394zm39.633 35.9958c4.652 0 8.422 3.761 8.422 8.396 0 4.638-3.772 8.399-8.422 8.399-4.652 0-8.422-3.761-8.422-8.399 0-4.637 3.773-8.396 8.422-8.396zm-100.431-22.236c-6.926 0-11.63 5.1097-11.63 12.6342 0 7.5268 4.704 12.6368 11.63 12.6368 7.015 0 11.734-5.094 11.734-12.6368 0-7.5401-4.719-12.6342-11.734-12.6342zm-100.272 0c-6.947 0-11.731 5.1356-11.731 12.6342 0 7.5008 4.784 12.6368 11.734 12.6368 6.858 0 11.63-5.151 11.63-12.6368 0-7.483-4.775-12.6342-11.633-12.6342zm161.07 0c-6.946 0-11.734 5.1356-11.734 12.6342 0 7.5008 4.788 12.6368 11.734 12.6368 6.859 0 11.63-5.151 11.63-12.6368 0-7.483-4.771-12.6342-11.63-12.6342z" fill="#0042e4" fill-rule="evenodd"/></svg>