<svg fill="none" height="1102" viewBox="0 0 1102 1102" width="1102" xmlns="http://www.w3.org/2000/svg" xmlns:xlink="http://www.w3.org/1999/xlink"><filter id="a" color-interpolation-filters="sRGB" filterUnits="userSpaceOnUse" height="1101.04" width="1101.04" x=".260284" y=".287628"><feFlood flood-opacity="0" result="BackgroundImageFix"/><feBlend in="SourceGraphic" in2="BackgroundImageFix" mode="normal" result="shape"/><feGaussianBlur result="effect1_foregroundBlur_326_3855" stdDeviation="134.932"/></filter><filter id="b" color-interpolation-filters="sRGB" filterUnits="userSpaceOnUse" height="586.952" width="552.895" x="174.166" y="164.904"><feFlood flood-opacity="0" result="BackgroundImageFix"/><feBlend in="SourceGraphic" in2="BackgroundImageFix" mode="normal" result="shape"/><feGaussianBlur result="effect1_foregroundBlur_326_3855" stdDeviation="80.9589"/></filter><filter id="c" color-interpolation-filters="sRGB" filterUnits="userSpaceOnUse" height="621.622" width="502.228" x="413.831" y="315.992"><feFlood flood-opacity="0" result="BackgroundImageFix"/><feBlend in="SourceGraphic" in2="BackgroundImageFix" mode="normal" result="shape"/><feGaussianBlur result="effect1_foregroundBlur_326_3855" stdDeviation="80.9589"/></filter><filter id="d" color-interpolation-filters="sRGB" filterUnits="userSpaceOnUse" height="847.706" width="911.959" x="67.7261" y="183.459"><feFlood flood-opacity="0" result="BackgroundImageFix"/><feBlend in="SourceGraphic" in2="BackgroundImageFix" mode="normal" result="shape"/><feGaussianBlur result="effect1_foregroundBlur_326_3855" stdDeviation="26.9863"/></filter><filter id="e" color-interpolation-filters="sRGB" filterUnits="userSpaceOnUse" height="207.6" width="207.6" x="694.339" y="520.874"><feFlood flood-opacity="0" result="BackgroundImageFix"/><feColorMatrix in="SourceAlpha" result="hardAlpha" type="matrix" values="0 0 0 0 0 0 0 0 0 0 0 0 0 0 0 0 0 0 127 0"/><feOffset dx="10.7945" dy="10.7945"/><feGaussianBlur stdDeviation="16.1918"/><feColorMatrix type="matrix" values="0 0 0 0 0.2 0 0 0 0 0.254902 0 0 0 0 0.333333 0 0 0 0.122 0"/><feBlend in2="BackgroundImageFix" mode="normal" result="effect1_dropShadow_326_3855"/><feBlend in="SourceGraphic" in2="effect1_dropShadow_326_3855" mode="normal" result="shape"/></filter><filter id="f" color-interpolation-filters="sRGB" filterUnits="userSpaceOnUse" height="171.286" width="171.286" x="262.786" y="600.763"><feFlood flood-opacity="0" result="BackgroundImageFix"/><feColorMatrix in="SourceAlpha" result="hardAlpha" type="matrix" values="0 0 0 0 0 0 0 0 0 0 0 0 0 0 0 0 0 0 127 0"/><feOffset dx="10.7945" dy="10.7945"/><feGaussianBlur stdDeviation="16.1918"/><feColorMatrix type="matrix" values="0 0 0 0 0.2 0 0 0 0 0.254902 0 0 0 0 0.333333 0 0 0 0.122 0"/><feBlend in2="BackgroundImageFix" mode="normal" result="effect1_dropShadow_326_3855"/><feBlend in="SourceGraphic" in2="effect1_dropShadow_326_3855" mode="normal" result="shape"/></filter><filter id="g" color-interpolation-filters="sRGB" filterUnits="userSpaceOnUse" height="171.286" width="171.286" x="434.193" y="227.946"><feFlood flood-opacity="0" result="BackgroundImageFix"/><feColorMatrix in="SourceAlpha" result="hardAlpha" type="matrix" values="0 0 0 0 0 0 0 0 0 0 0 0 0 0 0 0 0 0 127 0"/><feOffset dx="10.7945" dy="10.7945"/><feGaussianBlur stdDeviation="16.1918"/><feColorMatrix type="matrix" values="0 0 0 0 0.2 0 0 0 0 0.254902 0 0 0 0 0.333333 0 0 0 0.122 0"/><feBlend in2="BackgroundImageFix" mode="normal" result="effect1_dropShadow_326_3855"/><feBlend in="SourceGraphic" in2="effect1_dropShadow_326_3855" mode="normal" result="shape"/></filter><filter id="h" color-interpolation-filters="sRGB" filterUnits="userSpaceOnUse" height="331.065" width="331.065" x="395.458" y="387.726"><feFlood flood-opacity="0" result="BackgroundImageFix"/><feColorMatrix in="SourceAlpha" result="hardAlpha" type="matrix" values="0 0 0 0 0 0 0 0 0 0 0 0 0 0 0 0 0 0 127 0"/><feOffset dx="10.7945" dy="10.7945"/><feGaussianBlur stdDeviation="16.1918"/><feColorMatrix type="matrix" values="0 0 0 0 0.2 0 0 0 0 0.254902 0 0 0 0 0.333333 0 0 0 0.122 0"/><feBlend in2="BackgroundImageFix" mode="normal" result="effect1_dropShadow_326_3855"/><feBlend in="SourceGraphic" in2="effect1_dropShadow_326_3855" mode="normal" result="shape"/></filter><filter id="i" color-interpolation-filters="sRGB" filterUnits="userSpaceOnUse" height="217.283" width="217.283" x="751.607" y="215.842"><feFlood flood-opacity="0" result="BackgroundImageFix"/><feColorMatrix in="SourceAlpha" result="hardAlpha" type="matrix" values="0 0 0 0 0 0 0 0 0 0 0 0 0 0 0 0 0 0 127 0"/><feOffset dx="10.7945" dy="10.7945"/><feGaussianBlur stdDeviation="16.1918"/><feColorMatrix type="matrix" values="0 0 0 0 0.2 0 0 0 0 0.254902 0 0 0 0 0.333333 0 0 0 0.122 0"/><feBlend in2="BackgroundImageFix" mode="normal" result="effect1_dropShadow_326_3855"/><feBlend in="SourceGraphic" in2="effect1_dropShadow_326_3855" mode="normal" result="shape"/></filter><filter id="j" color-interpolation-filters="sRGB" filterUnits="userSpaceOnUse" height="205.179" width="205.179" x="455.981" y="815.191"><feFlood flood-opacity="0" result="BackgroundImageFix"/><feColorMatrix in="SourceAlpha" result="hardAlpha" type="matrix" values="0 0 0 0 0 0 0 0 0 0 0 0 0 0 0 0 0 0 127 0"/><feOffset dx="10.7945" dy="10.7945"/><feGaussianBlur stdDeviation="16.1918"/><feColorMatrix type="matrix" values="0 0 0 0 0.2 0 0 0 0 0.254902 0 0 0 0 0.333333 0 0 0 0.122 0"/><feBlend in2="BackgroundImageFix" mode="normal" result="effect1_dropShadow_326_3855"/><feBlend in="SourceGraphic" in2="effect1_dropShadow_326_3855" mode="normal" result="shape"/></filter><filter id="k" color-interpolation-filters="sRGB" filterUnits="userSpaceOnUse" height="210.021" width="210.021" x="100.11" y="392.567"><feFlood flood-opacity="0" result="BackgroundImageFix"/><feColorMatrix in="SourceAlpha" result="hardAlpha" type="matrix" values="0 0 0 0 0 0 0 0 0 0 0 0 0 0 0 0 0 0 127 0"/><feOffset dx="10.7945" dy="10.7945"/><feGaussianBlur stdDeviation="16.1918"/><feColorMatrix type="matrix" values="0 0 0 0 0.2 0 0 0 0 0.254902 0 0 0 0 0.333333 0 0 0 0.122 0"/><feBlend in2="BackgroundImageFix" mode="normal" result="effect1_dropShadow_326_3855"/><feBlend in="SourceGraphic" in2="effect1_dropShadow_326_3855" mode="normal" result="shape"/></filter><filter id="l" color-interpolation-filters="sRGB" filterUnits="userSpaceOnUse" height="164.422" width="164.422" x="707.832" y="531.669"><feFlood flood-opacity="0" result="BackgroundImageFix"/><feColorMatrix in="SourceAlpha" result="hardAlpha" type="matrix" values="0 0 0 0 0 0 0 0 0 0 0 0 0 0 0 0 0 0 127 0"/><feOffset dx="5.39726" dy="5.39726"/><feGaussianBlur stdDeviation="5.39726"/><feColorMatrix type="matrix" values="0 0 0 0 0.181825 0 0 0 0 0.0448477 0 0 0 0 0.193736 0 0 0 0.2 0"/><feBlend in2="BackgroundImageFix" mode="normal" result="effect1_dropShadow_326_3855"/><feBlend in="SourceGraphic" in2="effect1_dropShadow_326_3855" mode="normal" result="shape"/></filter><filter id="m" color-interpolation-filters="sRGB" filterUnits="userSpaceOnUse" height="128.108" width="128.108" x="276.279" y="611.558"><feFlood flood-opacity="0" result="BackgroundImageFix"/><feColorMatrix in="SourceAlpha" result="hardAlpha" type="matrix" values="0 0 0 0 0 0 0 0 0 0 0 0 0 0 0 0 0 0 127 0"/><feOffset dx="5.39726" dy="5.39726"/><feGaussianBlur stdDeviation="5.39726"/><feColorMatrix type="matrix" values="0 0 0 0 0.181825 0 0 0 0 0.0448477 0 0 0 0 0.193736 0 0 0 0.2 0"/><feBlend in2="BackgroundImageFix" mode="normal" result="effect1_dropShadow_326_3855"/><feBlend in="SourceGraphic" in2="effect1_dropShadow_326_3855" mode="normal" result="shape"/></filter><filter id="n" color-interpolation-filters="sRGB" filterUnits="userSpaceOnUse" height="128.108" width="128.108" x="447.686" y="238.741"><feFlood flood-opacity="0" result="BackgroundImageFix"/><feColorMatrix in="SourceAlpha" result="hardAlpha" type="matrix" values="0 0 0 0 0 0 0 0 0 0 0 0 0 0 0 0 0 0 127 0"/><feOffset dx="5.39726" dy="5.39726"/><feGaussianBlur stdDeviation="5.39726"/><feColorMatrix type="matrix" values="0 0 0 0 0.181825 0 0 0 0 0.0448477 0 0 0 0 0.193736 0 0 0 0.2 0"/><feBlend in2="BackgroundImageFix" mode="normal" result="effect1_dropShadow_326_3855"/><feBlend in="SourceGraphic" in2="effect1_dropShadow_326_3855" mode="normal" result="shape"/></filter><filter id="o" color-interpolation-filters="sRGB" filterUnits="userSpaceOnUse" height="293.284" width="293.284" x="400.855" y="390.424"><feFlood flood-opacity="0" result="BackgroundImageFix"/><feBlend in="SourceGraphic" in2="BackgroundImageFix" mode="normal" result="shape"/><feGaussianBlur result="effect1_foregroundBlur_326_3855" stdDeviation="6.74658"/></filter><filter id="p" color-interpolation-filters="sRGB" filterUnits="userSpaceOnUse" height="174.105" width="174.105" x="765.101" y="226.637"><feFlood flood-opacity="0" result="BackgroundImageFix"/><feColorMatrix in="SourceAlpha" result="hardAlpha" type="matrix" values="0 0 0 0 0 0 0 0 0 0 0 0 0 0 0 0 0 0 127 0"/><feOffset dx="5.39726" dy="5.39726"/><feGaussianBlur stdDeviation="5.39726"/><feColorMatrix type="matrix" values="0 0 0 0 0.181825 0 0 0 0 0.0448477 0 0 0 0 0.193736 0 0 0 0.2 0"/><feBlend in2="BackgroundImageFix" mode="normal" result="effect1_dropShadow_326_3855"/><feBlend in="SourceGraphic" in2="effect1_dropShadow_326_3855" mode="normal" result="shape"/></filter><filter id="q" color-interpolation-filters="sRGB" filterUnits="userSpaceOnUse" height="162.001" width="162.001" x="469.474" y="825.986"><feFlood flood-opacity="0" result="BackgroundImageFix"/><feColorMatrix in="SourceAlpha" result="hardAlpha" type="matrix" values="0 0 0 0 0 0 0 0 0 0 0 0 0 0 0 0 0 0 127 0"/><feOffset dx="5.39726" dy="5.39726"/><feGaussianBlur stdDeviation="5.39726"/><feColorMatrix type="matrix" values="0 0 0 0 0.181825 0 0 0 0 0.0448477 0 0 0 0 0.193736 0 0 0 0.2 0"/><feBlend in2="BackgroundImageFix" mode="normal" result="effect1_dropShadow_326_3855"/><feBlend in="SourceGraphic" in2="effect1_dropShadow_326_3855" mode="normal" result="shape"/></filter><filter id="r" color-interpolation-filters="sRGB" filterUnits="userSpaceOnUse" height="166.842" width="166.842" x="113.603" y="403.362"><feFlood flood-opacity="0" result="BackgroundImageFix"/><feColorMatrix in="SourceAlpha" result="hardAlpha" type="matrix" values="0 0 0 0 0 0 0 0 0 0 0 0 0 0 0 0 0 0 127 0"/><feOffset dx="5.39726" dy="5.39726"/><feGaussianBlur stdDeviation="5.39726"/><feColorMatrix type="matrix" values="0 0 0 0 0.181825 0 0 0 0 0.0448477 0 0 0 0 0.193736 0 0 0 0.2 0"/><feBlend in2="BackgroundImageFix" mode="normal" result="effect1_dropShadow_326_3855"/><feBlend in="SourceGraphic" in2="effect1_dropShadow_326_3855" mode="normal" result="shape"/></filter><radialGradient id="s" cx="0" cy="0" gradientTransform="matrix(0 280.658 -280.658 0 550.781 550.808)" gradientUnits="userSpaceOnUse" r="1"><stop offset="0" stop-color="#9023c4"/><stop offset="1" stop-color="#b128e1" stop-opacity="0"/></radialGradient><radialGradient id="t" cx="0" cy="0" gradientTransform="matrix(0 280.658 -280.658 0 550.781 550.808)" gradientUnits="userSpaceOnUse" r="1"><stop offset="0" stop-color="#efafff"/><stop offset="1" stop-color="#ff29b6" stop-opacity="0"/></radialGradient><linearGradient id="u" gradientUnits="userSpaceOnUse" x1="592.051" x2="549.503" y1="525.463" y2="571.364"><stop offset="0" stop-color="#804fce"/><stop offset="1" stop-color="#2d3383"/></linearGradient><radialGradient id="v" cx="0" cy="0" gradientTransform="matrix(35.189 0 0 35.1889 557.586 537.049)" gradientUnits="userSpaceOnUse" r="1"><stop offset="0" stop-color="#311476"/><stop offset="1" stop-color="#2b214f"/></radialGradient><radialGradient id="w" cx="0" cy="0" gradientTransform="matrix(35.73162442 18.25427324 -18.25045173 35.72414404 504.191 581.722)" gradientUnits="userSpaceOnUse" r="1"><stop offset="0" stop-color="#1b357a"/><stop offset="1" stop-color="#512bcd"/></radialGradient><radialGradient id="x" cx="0" cy="0" gradientTransform="matrix(32.69737664 25.31719654 -24.64895836 31.8343413 498.045 585.492)" gradientUnits="userSpaceOnUse" r="1"><stop offset="0" stop-color="#493ca8"/><stop offset="1" stop-color="#512bcc"/></radialGradient><linearGradient id="y" gradientUnits="userSpaceOnUse" x1="811.317" x2="850.15" y1="331.54" y2="341.909"><stop offset="0" stop-color="#315c55"/><stop offset="1" stop-color="#09293f"/></linearGradient><linearGradient id="z" gradientUnits="userSpaceOnUse" x1="822.404" x2="818.789" y1="284.649" y2="319.837"><stop offset="0" stop-color="#4fb38d"/><stop offset="1" stop-color="#315c55"/></linearGradient><linearGradient id="A" gradientUnits="userSpaceOnUse" x1="839.442" x2="868.103" y1="280.918" y2="286.173"><stop offset="0" stop-color="#4fb38d"/><stop offset="1" stop-color="#97dec0"/></linearGradient><linearGradient id="B" gradientUnits="userSpaceOnUse" x1="877.237" x2="861.608" y1="307.516" y2="336.777"><stop offset="0" stop-color="#97dec0"/><stop offset="1" stop-color="#fffff0" stop-opacity="0"/></linearGradient><clipPath id="C"><path d="m747.509 571.346h76.1774v76.1773h-76.1774z"/></clipPath><clipPath id="D"><path d="m307.241 642.52h56.8102v56.8102h-56.8102z"/></clipPath><clipPath id="E"><path d="m478.648 269.703h56.8102v56.8102h-56.8102z"/></clipPath><clipPath id="F"><path d="m478.26 467.829h142.026v142.026h-142.026z"/></clipPath><clipPath id="G"><path d="m807.102 268.638h81.3419v81.3419h-81.3419z"/></clipPath><clipPath id="H"><path d="m508.57 865.081h74.8862v74.8862h-74.8862z"/></clipPath><clipPath id="I"><path d="m145.986 434.767h94.4521v94.4521h-94.4521z"/></clipPath><mask height="562" maskUnits="userSpaceOnUse" width="562" x="270" y="270"><circle cx="550.781" cy="550.808" fill="url(#t)" r="280.658"/></mask><g filter="url(#a)"><circle cx="550.781" cy="550.808" fill="url(#s)" r="280.658"/></g><g filter="url(#b)" opacity=".5"><path d="m485.906 450.959c0 40.987-77.645 138.979-118.632 138.979-40.986 0-29.793-97.992-29.793-138.979 0-40.986 177.603-124.137 218.589-124.137s-70.164 83.151-70.164 124.137z" fill="#ffb933"/></g><g filter="url(#c)" opacity=".5"><path d="m659.406 655.656c-37.664-16.164-97.096-126.16-80.932-163.825 16.163-37.665 101.8 11.266 139.465 27.429s44.038 212.164 27.874 249.828c-16.163 37.665-48.742-97.269-86.407-113.432z" fill="#39cfff"/></g><g stroke-width="2.69863"><path d="m546.942 908.951c202.559 0 366.765-164.748 366.765-367.975 0-203.228-164.206-367.976-366.765-367.976s-366.765 164.748-366.765 367.976c0 203.227 164.206 367.975 366.765 367.975z" stroke="#32275f"/><path d="m546.942 792.748c139.719 0 252.983-113.264 252.983-252.983s-113.264-252.983-252.983-252.983-252.983 113.264-252.983 252.983 113.264 252.983 252.983 252.983z" stroke="#443592"/><path d="m546.733 753.205c118.488 0 214.541-96.053 214.541-214.541 0-118.487-96.053-214.541-214.541-214.541s-214.541 96.054-214.541 214.541c0 118.488 96.053 214.541 214.541 214.541z" opacity=".2" stroke="#2c2250"/><path d="m546.733 828.767c160.219 0 290.103-129.883 290.103-290.103 0-160.219-129.884-290.102-290.103-290.102s-290.103 129.883-290.103 290.102c0 160.22 129.884 290.103 290.103 290.103z" opacity=".2" stroke="#2c2250"/><path d="m546.733 869.247c182.575 0 330.582-148.007 330.582-330.583 0-182.575-148.007-330.582-330.582-330.582-182.576 0-330.582 148.007-330.582 330.582 0 182.576 148.006 330.583 330.582 330.583z" opacity=".2" stroke="#2c2250"/><path d="m546.733 723.52c102.093 0 184.856-82.762 184.856-184.856 0-102.093-82.763-184.856-184.856-184.856s-184.856 82.763-184.856 184.856c0 102.094 82.763 184.856 184.856 184.856z" opacity=".2" stroke="#2c2250"/><path d="m546.733 691.137c84.208 0 152.472-68.264 152.472-152.473 0-84.208-68.264-152.472-152.472-152.472s-152.473 68.264-152.473 152.472c0 84.209 68.265 152.473 152.473 152.473z" opacity=".2" stroke="#2c2250"/></g><g filter="url(#d)" opacity=".5"><g filter="url(#e)"><path d="m787.345 685.296c39.442 0 71.416-31.974 71.416-71.416s-31.974-71.417-71.416-71.417c-39.443 0-71.417 31.975-71.417 71.417s31.974 71.416 71.417 71.416z" fill="#fff"/></g><g filter="url(#f)"><path d="m337.635 728.871c29.415 0 53.26-23.845 53.26-53.259 0-29.415-23.845-53.26-53.26-53.26-29.414 0-53.26 23.845-53.26 53.26 0 29.414 23.846 53.259 53.26 53.259z" fill="#fff"/></g><g filter="url(#g)"><path d="m509.042 356.055c29.414 0 53.259-23.846 53.259-53.26s-23.845-53.26-53.259-53.26c-29.415 0-53.26 23.846-53.26 53.26s23.845 53.26 53.26 53.26z" fill="#fff"/></g><g filter="url(#h)"><path d="m550.196 675.613c73.536 0 133.149-59.613 133.149-133.149s-59.613-133.149-133.149-133.149-133.149 59.613-133.149 133.149 59.613 133.149 133.149 133.149z" fill="#fff"/></g><g filter="url(#i)"><path d="m849.454 389.947c42.117 0 76.258-34.142 76.258-76.258s-34.141-76.258-76.258-76.258c-42.116 0-76.258 34.142-76.258 76.258s34.142 76.258 76.258 76.258z" fill="#fff"/></g><g filter="url(#j)"><path d="m547.776 977.192c38.773 0 70.206-31.433 70.206-70.206 0-38.774-31.433-70.206-70.206-70.206-38.774 0-70.206 31.432-70.206 70.206 0 38.773 31.432 70.206 70.206 70.206z" fill="#fff"/></g><g filter="url(#k)" opacity=".8"><path d="m194.325 559.41c40.111 0 72.627-32.516 72.627-72.627 0-40.11-32.516-72.627-72.627-72.627-40.11 0-72.626 32.517-72.626 72.627 0 40.111 32.516 72.627 72.626 72.627z" fill="#fff"/></g></g><g filter="url(#l)"><path d="m784.646 679.898c39.442 0 71.416-31.974 71.416-71.416s-31.974-71.416-71.416-71.416-71.416 31.974-71.416 71.416 31.974 71.416 71.416 71.416z" fill="#fff"/></g><g clip-path="url(#C)"><path clip-rule="evenodd" d="m785.679 572.285c-21.044 0-38.089 17.045-38.089 38.089 0 16.854 10.903 31.09 26.043 36.136 1.904.334 2.619-.809 2.619-1.809 0-.904-.048-3.904-.048-7.094-9.57 1.762-12.046-2.333-12.807-4.475-.429-1.095-2.286-4.476-3.904-5.38-1.334-.714-3.238-2.476-.048-2.524 2.999-.047 5.142 2.762 5.856 3.904 3.428 5.761 8.903 4.143 11.093 3.143.334-2.476 1.334-4.142 2.429-5.095-8.475-.952-17.331-4.237-17.331-18.806 0-4.142 1.476-7.57 3.904-10.236-.381-.952-1.714-4.856.381-10.094 0 0 3.19-.999 10.475 3.904 3.047-.857 6.284-1.285 9.522-1.285 3.237 0 6.475.428 9.522 1.285 7.284-4.951 10.474-3.904 10.474-3.904 2.095 5.238.762 9.142.381 10.094 2.428 2.666 3.904 6.046 3.904 10.236 0 14.617-8.903 17.854-17.378 18.806 1.381 1.191 2.571 3.476 2.571 7.047 0 5.094-.047 9.189-.047 10.474 0 1 .714 2.19 2.618 1.809 7.561-2.552 14.132-7.412 18.786-13.894 4.655-6.483 7.16-14.262 7.162-22.242 0-21.044-17.044-38.089-38.088-38.089z" fill="#000" fill-rule="evenodd"/></g><g filter="url(#m)"><path d="m334.936 723.474c29.415 0 53.26-23.845 53.26-53.259 0-29.415-23.845-53.26-53.26-53.26-29.414 0-53.259 23.845-53.259 53.26 0 29.414 23.845 53.259 53.259 53.259z" fill="#fff"/></g><g clip-path="url(#D)"><path d="m362.611 665.325-.078-.201-7.594-19.816c-.154-.389-.428-.718-.781-.942-.354-.219-.766-.325-1.182-.303-.415.023-.814.172-1.142.428-.324.264-.56.621-.674 1.023l-5.126 15.686h-20.761l-5.127-15.686c-.111-.404-.347-.763-.673-1.025-.328-.257-.727-.406-1.143-.428-.415-.023-.828.083-1.181.303-.353.224-.626.553-.782.941l-7.607 19.807-.076.201c-2.245 5.867-.338 12.512 4.677 16.296l.026.02.07.049 11.567 8.662 5.722 4.331 3.486 2.632c.407.309.905.477 1.417.477s1.01-.168 1.418-.477l3.486-2.632 5.722-4.331 11.636-8.714.029-.023c5.004-3.784 6.907-10.418 4.671-16.278z" fill="#e24329"/><path d="m362.612 665.324-.079-.2c-3.7.759-7.186 2.326-10.21 4.589l-16.676 12.61c5.679 4.296 10.622 8.029 10.622 8.029l11.637-8.714.029-.023c5.011-3.785 6.917-10.425 4.677-16.291z" fill="#fc6d26"/><path d="m325.023 690.351 5.723 4.331 3.486 2.632c.407.309.905.477 1.417.477s1.01-.168 1.418-.477l3.486-2.632 5.722-4.331s-4.95-3.744-10.628-8.029c-3.544 2.674-7.085 5.35-10.624 8.029z" fill="#fca326"/><path d="m318.967 669.713c-3.022-2.267-6.507-3.839-10.207-4.601l-.076.2c-2.245 5.867-.338 12.513 4.677 16.296l.026.02.07.05 11.567 8.662 10.622-8.029z" fill="#fc6d26"/></g><g filter="url(#n)"><path d="m506.343 350.657c29.414 0 53.259-23.845 53.259-53.259 0-29.415-23.845-53.26-53.259-53.26-29.415 0-53.26 23.845-53.26 53.26 0 29.414 23.845 53.259 53.26 53.259z" fill="#fff"/></g><g clip-path="url(#E)"><path d="m499.762 298.108c-.002-.887.174-1.766.518-2.586s.848-1.565 1.485-2.193c.636-.628 1.392-1.126 2.224-1.466.832-.339 1.724-.514 2.625-.514 3.785 0 6.873 3.041 6.873 6.759 0 3.717-3.088 6.758-6.873 6.758-1.817-.006-3.558-.72-4.842-1.987-1.284-1.266-2.007-2.982-2.01-4.771zm6.854-28.405c-13.462 0-24.74 9.089-27.941 21.358-.027.093-.027.169-.027.29 0 .738.611 1.369 1.379 1.369h11.623c.264.004.522-.07.743-.211.221-.142.393-.346.496-.585 2.403-5.113 7.643-8.692 13.736-8.692 8.328 0 15.106 6.676 15.106 14.886 0 8.211-6.778 14.886-15.115 14.886-6.084 0-11.33-3.55-13.727-8.692-.233-.452-.694-.795-1.239-.795h-11.623c-.182-.001-.361.034-.529.102-.167.068-.32.168-.448.294-.128.127-.23.277-.299.442s-.104.342-.103.52c0 .093.036.178.036.286 3.174 12.262 14.47 21.352 27.932 21.352 15.922 0 28.842-12.724 28.842-28.405 0-15.673-12.92-28.405-28.842-28.405z" fill="#000"/></g><g filter="url(#o)" opacity=".2"><path d="m547.497 670.215c73.537 0 133.149-59.613 133.149-133.149s-59.612-133.149-133.149-133.149c-73.536 0-133.149 59.613-133.149 133.149s59.613 133.149 133.149 133.149z" fill="#fff"/></g><path d="m548.082 658.753c67.069 0 121.439-54.369 121.439-121.438 0-67.068-54.37-121.438-121.439-121.438-67.068 0-121.438 54.37-121.438 121.438 0 67.069 54.37 121.438 121.438 121.438z" fill="#fff"/><g clip-path="url(#F)"><path clip-rule="evenodd" d="m478.26 537.052c22.005-29.58 45.73-44.369 71.175-44.369 25.444 0 49.061 14.789 70.85 44.369-21.789 29.753-45.406 44.63-70.85 44.63-25.445 0-49.17-14.877-71.175-44.63z" fill="url(#u)" fill-rule="evenodd"/><path clip-rule="evenodd" d="m549.782 574.222c20.542 0 37.196-16.643 37.196-37.173 0-20.529-16.654-37.172-37.196-37.172s-37.196 16.643-37.196 37.172c0 5.748-1.178 31.431 1.926 24.711 3.104-6.722 3.519-8.434 5.479-6.083 6.824 8.181 18.3 18.544 29.791 18.544z" fill="#fff" fill-rule="evenodd"/><path d="m549.806 562.496c14.054 0 25.447-11.393 25.447-25.447s-11.393-25.447-25.447-25.447-25.448 11.393-25.448 25.447 11.394 25.447 25.448 25.447z" fill="url(#v)"/><g clip-rule="evenodd" fill-rule="evenodd"><path d="m559.442 560.635c13.049-5.27 19.354-20.118 14.081-33.163 0 26.441-28.642 31.854-38.485 22.006-9.844-9.847-8.338-30.43 5.313-36.083-13.049 5.27-19.353 20.118-14.08 33.163 5.271 13.045 20.123 19.348 33.171 14.077z" fill="url(#w)"/><path d="m559.336 557.56c10.874-4.263 18.72-18.683 13.447-31.728.001 26.441-21.705 29.068-31.549 19.221s-5.278-26.572 2.157-31.382c-13.048 5.271-19.361 18.337-14.089 31.382 5.272 13.046 19.16 16.771 30.034 12.507z" fill="url(#x)"/></g></g><g filter="url(#p)"><path d="m846.756 384.55c42.116 0 76.258-34.142 76.258-76.258s-34.142-76.258-76.258-76.258-76.258 34.142-76.258 76.258 34.142 76.258 76.258 76.258z" fill="#fff"/></g><g clip-path="url(#G)"><path d="m852.196 339.794-1.377 3.344c-.274.662-.9 1.111-1.604 1.141-.465.018-.934.031-1.408.031-16.212-.009-30.557-11.475-34.111-27.274l-5.519 1.25c1.995 8.862 7.001 16.905 14.097 22.653 7.178 5.814 16.221 9.023 25.472 9.041h.083c.543 0 1.082-.013 1.621-.035 2.903-.122 5.497-1.947 6.605-4.651l1.799-4.372z" fill="url(#y)"/><path d="m808.63 320.085c-.959-3.511-1.444-7.135-1.442-10.774 0-16.679 10.441-31.929 25.985-37.943l2.038 5.291c-13.379 5.178-22.366 18.299-22.366 32.652-.002 3.132.415 6.25 1.239 9.271z" fill="url(#z)"/><path d="m878.9 293.199c-6.049-11.649-17.955-18.887-31.065-18.887-4.646 0-9.16.897-13.41 2.661l-2.168-5.239c4.94-2.051 10.181-3.096 15.578-3.096 15.23 0 29.057 8.405 36.084 21.939l-5.019 2.621z" fill="url(#A)"/><path d="m835.698 300.919c3.281 0 5.953 1.755 7.326 4.817l.109.239 5.51-1.877-.118-.283c-2.133-5.212-7.048-8.452-12.827-8.452-4.063 0-7.366 1.306-10.095 3.989-2.711 2.665-4.084 6.018-4.084 9.968 0 3.914 1.373 7.25 4.084 9.915 2.729 2.683 6.032 3.989 10.095 3.989 5.779 0 10.694-3.24 12.827-8.448l.118-.283-5.519-1.881-.104.248c-1.23 3.009-3.968 4.808-7.322 4.808-2.286 0-4.215-.801-5.745-2.378-1.547-1.598-2.329-3.606-2.329-5.966 0-2.378.765-4.346 2.329-6.018 1.525-1.586 3.459-2.387 5.745-2.387z" fill="#09293f"/><path d="m870.209 295.877-7.852 19.931-7.904-19.931h-6.466l11.085 27.204-7.887 19.187 5.653 1.128 19.481-47.519z" fill="#09293f"/><path d="m883.918 290.577c2.861 5.573 4.611 12.118 4.611 18.818 0 15.633-8.792 29.205-21.687 36.014l-2.786-4.941c11.182-5.831 18.819-17.557 18.819-31.073 0-5.866-1.434-11.341-3.976-16.196z" fill="url(#B)"/></g><g filter="url(#q)"><path d="m545.077 971.794c38.774 0 70.206-31.432 70.206-70.205 0-38.774-31.432-70.206-70.206-70.206-38.773 0-70.206 31.432-70.206 70.206 0 38.773 31.433 70.205 70.206 70.205z" fill="#fff"/></g><g clip-path="url(#H)"><path d="m576.796 865.082c.093-.005.186.014.269.056.082.043.15.107.196.185.047.077.069.166.066.256-.004.089-.034.176-.086.25l-19.226 25.071c-.069.075-.155.136-.251.177-.096.042-.199.063-.304.063s-.209-.021-.305-.063c-.096-.041-.181-.102-.251-.177l-6.779-7.255c-.082-.081-.182-.144-.292-.183-.11-.04-.229-.055-.346-.045-.117.011-.231.046-.332.104s-.187.137-.252.231l-4.112 5.014c-.064.139-.088.292-.068.442s.082.293.179.412l12.224 12.162c.07.075.155.136.251.177.096.042.2.063.305.063s.209-.021.305-.063c.095-.041.181-.102.251-.177l24.003-25.924c.07-.072.159-.122.259-.144.099-.023.202-.017.298.018.095.034.177.095.237.174.059.08.092.174.095.272v63.051c.005.071-.006.142-.033.209-.026.066-.067.127-.119.177-.053.051-.116.09-.186.115-.069.025-.143.036-.217.032h-73.123c-.074.004-.149-.007-.218-.032-.07-.025-.133-.064-.185-.115-.053-.05-.094-.111-.12-.177-.026-.067-.038-.138-.033-.209v-73.613c-.005-.071.006-.143.033-.209.026-.067.067-.128.119-.178.053-.051.116-.09.186-.115.069-.025.143-.036.218-.032zm-18.892 42.568c-1.637-.028-3.263.263-4.78.855s-2.893 1.473-4.046 2.589c-1.153 1.117-2.058 2.446-2.661 3.907-.603 1.462-.892 3.026-.848 4.597 0 7.361 5.556 12.056 12.779 12.056 3.344.08 6.623-.895 9.336-2.774.121-.106.199-.251.22-.407.02-.157-.018-.315-.109-.447l-2.001-2.88c-.108-.12-.259-.197-.423-.216-.164-.02-.33.019-.466.109-1.738 1.14-3.784 1.77-5.889 1.814-3.89 0-6.335-2.347-6.779-5.121.004-.055.028-.108.069-.147s.095-.063.153-.066h16.78c.173-.012.336-.083.459-.2.122-.118.196-.275.208-.441v-.64c0-7.468-4.89-12.589-12.002-12.589zm-16.558-4.055c-3.376-2.648-7.647-4.015-12.002-3.84-7.557 0-12.224 4.267-12.224 9.388 0 11.629 18.447 7.895 18.447 13.336 0 1.707-1.778 3.414-5.556 3.414-3.589.028-7.051-1.271-9.669-3.628-.077-.069-.169-.122-.269-.154-.1-.033-.206-.045-.312-.034-.105.01-.207.041-.298.092-.092.051-.171.12-.232.203l-2.889 3.841c-.091.131-.13.289-.109.446.02.157.098.301.22.407 3.001 2.667 7.224 4.481 13.113 4.481 8.668 0 12.891-4.268 13.114-9.815 0-11.522-18.448-8.215-18.448-13.122 0-1.814 1.667-3.094 4.556-3.094 3.185-.042 6.287.976 8.78 2.88.072.057.156.1.246.125.09.026.184.034.277.024s.183-.038.265-.081c.082-.044.154-.103.212-.174l2.889-3.734c.06-.07.104-.15.131-.237.026-.086.035-.176.024-.266-.01-.089-.039-.176-.085-.254-.045-.079-.107-.148-.181-.204zm16.669 8.749c3.023-.163 5.632 2.011 5.89 4.907-.004.056-.028.108-.069.147s-.095.063-.153.066h-11.336c-.057-.003-.111-.027-.152-.066s-.066-.091-.07-.147c.372-2.839 2.91-4.954 5.89-4.907z" fill="#2cb134"/></g><g filter="url(#r)"><path d="m191.627 554.013c40.11 0 72.626-32.516 72.626-72.627s-32.516-72.627-72.626-72.627c-40.111 0-72.627 32.516-72.627 72.627s32.516 72.627 72.627 72.627z" fill="#fff"/></g><g clip-path="url(#I)"><path d="m177.119 486.551c-3.526 1-5.839 2.755-7.363 4.507 1.459-1.277 3.415-2.449 6.052-3.197 2.697-.764 4.998-.759 6.9-.391v-1.487c-1.623-.149-3.482-.031-5.589.568zm-7.524-12.5-13.095 3.45s.239.337.681.787l11.102-2.926s-.157 2.028-1.523 3.841c2.584-1.955 2.835-5.152 2.835-5.152zm10.961 30.775c-18.428 4.963-28.177-16.393-31.129-27.477-1.363-5.117-1.959-8.991-2.118-11.492-.015-.226-.012-.453.01-.679-.956.057-1.414.554-1.321 1.991.159 2.499.754 6.373 2.118 11.491 2.95 11.083 12.701 32.439 31.129 27.476 4.011-1.081 7.024-3.049 9.286-5.561-2.085 1.883-4.694 3.366-7.975 4.251zm3.462-43.845v1.312h7.228c-.148-.465-.297-.883-.446-1.312z" fill="#2d4552"/><path d="m192.862 471.783c3.25.923 4.97 3.202 5.878 5.219l3.625 1.029s-.494-7.059-6.879-8.872c-5.973-1.697-9.649 3.319-10.096 3.968 1.738-1.238 4.275-2.252 7.472-1.344zm28.851 5.251c-5.979-1.704-9.653 3.322-10.093 3.962 1.739-1.237 4.275-2.251 7.47-1.339 3.246.924 4.963 3.201 5.875 5.219l3.629 1.033s-.502-7.06-6.881-8.875zm-3.601 18.611-30.15-8.428s.326 1.654 1.578 3.797l25.386 7.097c2.089-1.209 3.186-2.466 3.186-2.466zm-20.903 18.143c-23.873-6.4-20.987-36.818-17.124-51.231 1.59-5.94 3.225-10.355 4.582-13.315-.81-.166-1.48.26-2.142 1.606-1.44 2.92-3.281 7.675-5.063 14.331-3.861 14.414-6.748 44.83 17.124 51.231 11.252 3.014 20.018-1.567 26.553-8.762-6.203 5.617-14.122 8.767-23.93 6.14z" fill="#2d4552"/><path d="m184.018 497.698v-6.138l-17.054 4.836s1.26-7.322 10.154-9.845c2.698-.765 4.999-.76 6.9-.392v-25.178h8.54c-.93-2.873-1.83-5.085-2.585-6.622-1.25-2.544-2.531-.857-5.439 1.575-2.048 1.712-7.225 5.362-15.016 7.461-7.79 2.101-14.088 1.544-16.716 1.089-3.725-.643-5.674-1.461-5.491 1.373.158 2.499.753 6.374 2.117 11.492 2.951 11.083 12.701 32.439 31.129 27.475 4.813-1.297 8.211-3.86 10.566-7.128h-7.105zm-27.519-20.197 13.095-3.449s-.381 5.037-5.29 6.332c-4.911 1.292-7.805-2.883-7.805-2.883z" fill="#e2574c"/><path d="m233.304 461.273c-3.404.596-11.57 1.34-21.663-1.365-10.096-2.704-16.794-7.432-19.448-9.655-3.762-3.151-5.417-5.341-7.045-2.029-1.44 2.922-3.282 7.677-5.064 14.333-3.861 14.413-6.747 44.83 17.125 51.23 23.866 6.396 36.573-21.391 40.435-35.806 1.782-6.654 2.563-11.694 2.778-14.943.245-3.681-2.283-2.612-7.117-1.765zm-47.962 11.925s3.762-5.851 10.142-4.038c6.385 1.814 6.879 8.872 6.879 8.872zm15.575 26.256c-11.223-3.288-12.954-12.237-12.954-12.237l30.149 8.429c0-.002-6.086 7.054-17.195 3.807zm10.659-18.393s3.757-5.846 10.137-4.028c6.379 1.817 6.881 8.875 6.881 8.875l-17.017-4.847z" fill="#2ead33"/><path d="m178.059 493.25-11.095 3.144s1.205-6.866 9.379-9.587l-6.282-23.577-.543.165c-7.791 2.101-14.089 1.544-16.716 1.089-3.726-.643-5.674-1.461-5.492 1.373.158 2.499.754 6.374 2.118 11.492 2.95 11.083 12.701 32.438 31.128 27.475l.543-.17-3.04-11.405zm-21.56-15.749 13.096-3.45s-.382 5.038-5.291 6.332c-4.911 1.293-7.805-2.882-7.805-2.882z" fill="#d65348"/><path d="m201.423 499.577-.507-.123c-11.224-3.288-12.954-12.237-12.954-12.237l15.546 4.345 8.231-31.628-.1-.026c-10.095-2.704-16.793-7.432-19.447-9.655-3.762-3.151-5.417-5.341-7.046-2.028-1.438 2.921-3.28 7.676-5.062 14.332-3.861 14.414-6.747 44.83 17.125 51.23l.489.111zm-16.081-26.379s3.762-5.852 10.142-4.038c6.385 1.814 6.879 8.872 6.879 8.872z" fill="#1d8d22"/><path d="m178.624 493.089-2.976.844c.704 3.963 1.943 7.766 3.887 11.125.339-.075.674-.139 1.019-.233.904-.244 1.741-.546 2.548-.875-2.173-3.225-3.61-6.938-4.478-10.861zm-1.162-27.91c-1.529 5.707-2.897 13.921-2.52 22.16.674-.293 1.386-.565 2.177-.79l.55-.123c-.671-8.8.78-17.768 2.415-23.869.388-1.447.803-2.887 1.245-4.318-.72.46-1.455.896-2.204 1.308-.603 1.863-1.158 3.741-1.663 5.632z" fill="#c04b41"/></g></svg>