<svg fill="none" height="200" viewBox="0 0 200 200" width="200" xmlns="http://www.w3.org/2000/svg" xmlns:xlink="http://www.w3.org/1999/xlink"><clipPath id="a"><rect height="200" rx="20" width="200"/></clipPath><clipPath id="b"><path d="m56 36h517v127h-517z"/></clipPath><g clip-path="url(#a)"><rect fill="#fff46c" height="200" rx="20" width="200"/><g clip-path="url(#b)"><path clip-rule="evenodd" d="m118.955 41.5891c-3.426 1.053-7.068 2.1548-10.271 3.1237-3.69 1.1165-6.799 2.0573-8.321 2.5426-2.9191.831-5.2239 1.8132-5.2239 2.1154 0 .3778 2.228 1.4355 4.9939 2.4177l5.07 1.7377-.461 22.5898-5.7616-.1511c-18.2847-.4533-34.5718 11.1816-40.4107 28.8611-2.6889 8.159-3.3803 22.211-1.5365 30.749 3.2267 15.035 13.3678 25.083 27.1965 26.972l3.3804.453 9.4497-9.444 9.4492-9.368.461 4.457c1.076 9.973 5.148 14.431 12.907 13.902 5.455-.303 9.142-2.645 14.598-9.142 5.762-6.875 11.677-15.488 10.986-16.168-.23-.302-2.919.756-5.839 2.266-2.842 1.587-5.455 2.872-5.685 2.872-.231 0-.384-23.648-.384-52.5085 0-28.8608-.231-52.5083-.538-52.4327-.385 0-6.685 1.8888-14.06 4.1553zm-19.2831 40.4955c.9991.831 2.5351 3.1731 3.4571 5.0619 1.537 3.3243 1.613 4.8351 1.844 29.0115l.23 25.461-3.303 1.511c-4.9939 2.267-7.2219 1.965-10.6022-1.36-5.301-5.137-7.2985-16.319-6.6839-37.096.3841-14.5053 1.3061-18.7363 4.9169-22.2872 2.612-2.5688 7.529-2.7199 10.1411-.3022z" fill="#000" fill-opacity=".91" fill-rule="evenodd"/></g></g></svg>