<svg fill="none" height="48" viewBox="0 0 140 48" width="140" xmlns="http://www.w3.org/2000/svg" xmlns:xlink="http://www.w3.org/1999/xlink"><clipPath id="a"><path d="m24 13h91v22h-91z"/></clipPath><g clip-path="url(#a)" fill="#fff"><path d="m98.4179 13.8359h-3.7299v3.652h3.7299z"/><path clip-rule="evenodd" d="m83.8578 23.252h-3.2805v5.94c0 .484.1348.88.3595 1.1.2696.22.6291.352 1.1234.396.4944 0 1.0786 0 1.7976-.044v3.344c-2.5615.308-4.359.044-5.4825-.704-1.0785-.748-1.6178-2.156-1.6178-4.136v-5.896h-2.5615v-3.564h2.5615v-2.86l3.7748-1.1v4.004h5.842v-2.904l3.7748-1.1v4.004h3.2805v3.564h-3.2805v5.94c0 .484.1348.88.3595 1.1.2697.22.6292.352 1.1235.396.4943 0 1.0785 0 1.7975-.044v3.344c-2.5615.308-4.359.044-5.4824-.704-1.0786-.748-1.6178-2.156-1.6178-4.136v-5.94z" fill-rule="evenodd"/><path d="m98.4179 19.688h-3.7748v14.3h3.7748z"/><path clip-rule="evenodd" d="m107.316 19.3359c-4.225 0-7.6849 3.388-7.6849 7.524s3.4599 7.524 7.6849 7.524c4.224 0 7.684-3.388 7.684-7.524 0-4.18-3.415-7.524-7.684-7.524zm0 11.484c-2.247 0-4.09-1.804-4.09-4.004s1.843-4.004 4.09-4.004c2.246 0 4.089 1.804 4.089 4.004 0 2.244-1.843 4.004-4.089 4.004z" fill-rule="evenodd"/><path clip-rule="evenodd" d="m69.2977 19.6879v.792c-1.1684-.704-2.5614-1.144-4.0444-1.144-4.2242 0-7.6845 3.388-7.6845 7.524s3.4603 7.524 7.6845 7.524c1.483 0 2.876-.396 4.0444-1.144v.792h3.7299v-14.344zm-4.0444 11.132c-2.2469 0-4.0894-1.804-4.0894-4.004s1.8425-4.004 4.0894-4.004 4.0444 1.76 4.0894 3.916v.132c-.045 2.244-1.8874 3.96-4.0894 3.96z" fill-rule="evenodd"/><path d="m51.0979 28.3121-2.2919-3.564-.2247-.308c-.3595-.528-.9437-.836-1.5728-.836l-3.685-.044-.2246.44-4.404 6.908-.2247.396 1.8425 2.904c.3595.528.9437.836 1.5728.836h5.1679c.6292 0 1.2583-.308 1.5729-.836l.1797-.264 2.2919-3.608c.3595-.66.3595-1.408 0-2.024zm-.719 1.54-2.2919 3.608s0 .044-.0449.044c-.0899.088-.1798.088-.2247.088-.045 0-.1798 0-.2697-.132l-2.2918-3.608c-.0449-.044-.0449-.088-.0899-.132 0-.044-.0449-.088-.0449-.132-.045-.176-.045-.352 0-.572.0449-.088.0449-.176.1348-.264l2.2918-3.564c.045-.088.1349-.132.1798-.132h.0449.045c.0449 0 .1797 0 .2696.132l2.2919 3.564c.2246.352.2246.748 0 1.1z"/><path d="m44.3121 19.644c.3595-.572.3595-1.364 0-1.936l-2.2919-3.564-.1797-.308c-.3595-.528-.9437-.836-1.5728-.836h-5.1679c-.6292 0-1.2134.308-1.5729.836l-9.2573 14.52c-.1797.264-.2696.616-.2696.924 0 .352.0899.66.2696.968l2.4716 3.872c.3595.572.9437.88 1.6178.88h5.1679c.6291 0 1.2583-.308 1.5729-.836l.1797-.308 1.8425-2.904 5.4375-8.536zm-.5393-.924c0 .176-.0449.352-.1797.528l-9.0326 14.168c-.0899.132-.2247.132-.2696.132-.045 0-.1798 0-.2697-.132l-2.2918-3.608c-.2247-.308-.2247-.748 0-1.056l9.0775-14.168c.0899-.132.2247-.132.2696-.132.045 0 .1798 0 .2697.132l2.2918 3.564c.0899.176.1348.352.1348.572z"/></g></svg>