<svg width="140" height="48" viewBox="0 0 140 48" fill="none" xmlns="http://www.w3.org/2000/svg">
<g clip-path="url(#clip0_29_927)">
<path fill-rule="evenodd" clip-rule="evenodd" d="M8 19.2253H12.4604C14.9413 19.2253 16.2385 20.5197 16.2385 22.1092C16.2385 23.2064 15.6253 23.9517 14.775 24.3458V24.3742C15.8624 24.7684 16.4756 25.6402 16.4756 26.7512C16.4756 28.3407 15.2629 29.7331 12.6421 29.7331H8V19.2253ZM12.3214 23.3888C13.0599 23.3888 13.3951 23.0093 13.3951 22.5867C13.3951 22.1642 13.0608 21.7709 12.3214 21.7709H11.0114V23.3888H12.3214ZM12.3632 27.1866C13.1435 27.1866 13.5205 26.8071 13.5205 26.3148C13.5205 25.8226 13.1299 25.4431 12.3777 25.4431H11.0114V27.1875H12.3632V27.1866ZM17.116 25.4568V19.2253H20.1547V25.4284C20.1547 26.5962 20.7261 27.215 21.7018 27.215C22.6774 27.215 23.2906 26.5962 23.2906 25.4147V19.2253H26.3438V25.4568C26.3438 28.1014 24.5878 30.0007 21.7018 30.0007C18.8157 30.0007 17.1151 28.1014 17.1151 25.4568H17.116ZM34.0809 19.7313V22.4318C33.4259 21.968 32.3104 21.6444 31.4047 21.6444C30.5825 21.6444 30.1638 21.9121 30.1638 22.2632C30.1638 22.6142 30.6234 22.7976 31.4464 23.0927C32.8409 23.585 34.7359 24.2459 34.7359 26.4826C34.7359 28.48 33.2442 29.9567 30.6234 29.9567C29.2717 29.9567 28.0308 29.5626 27.2641 29.0428V26.2012C28.0171 26.8199 29.1599 27.3122 30.261 27.3122C31.1948 27.3122 31.6272 26.9602 31.6272 26.5669C31.6272 26.0609 30.9159 25.8354 30.0656 25.5256C28.9501 25.1177 27.1805 24.3862 27.1805 22.3466C27.1805 20.5041 28.6167 18.9989 31.1812 18.9989C32.3104 18.9989 33.3278 19.2941 34.0809 19.7304V19.7313ZM35.5162 19.2253H38.5549V29.7331H35.5162V19.2253ZM49.3588 29.7331H46.4591L42.7091 24.0928H42.6955V29.7331H39.8103V19.2253H42.71L46.46 24.7675H46.4736V19.2253H49.3588V29.7331ZM50.6133 19.2253H57.8062V21.9542H53.652V23.2202H57.3874V25.6961H53.652V27.0042H57.8062V29.7331H50.6133V19.2253ZM65.4315 19.7313V22.4318C64.7766 21.968 63.661 21.6444 62.7553 21.6444C61.9332 21.6444 61.5144 21.9121 61.5144 22.2632C61.5144 22.6142 61.9741 22.7976 62.7971 23.0927C64.1915 23.585 66.0865 24.2459 66.0865 26.4826C66.0865 28.48 64.5949 29.9567 61.9741 29.9567C60.6223 29.9567 59.3814 29.5626 58.6147 29.0428V26.2012C59.3678 26.8199 60.5106 27.3122 61.6116 27.3122C62.5455 27.3122 62.9779 26.9602 62.9779 26.5669C62.9779 26.0609 62.2666 25.8354 61.4163 25.5256C60.3008 25.1177 58.5311 24.3862 58.5311 22.3466C58.5311 20.5041 59.9674 18.9989 62.5318 18.9989C63.661 18.9989 64.6785 19.2941 65.4315 19.7304V19.7313ZM73.4747 19.7313V22.4318C72.8198 21.968 71.7042 21.6444 70.7985 21.6444C69.9764 21.6444 69.5576 21.9121 69.5576 22.2632C69.5576 22.6142 70.0173 22.7976 70.8403 23.0927C72.2347 23.585 74.1297 24.2459 74.1297 26.4826C74.1297 28.48 72.6381 29.9567 70.0173 29.9567C68.6655 29.9567 67.4246 29.5626 66.6579 29.0428V26.2012C67.411 26.8199 68.5538 27.3122 69.6548 27.3122C70.5887 27.3122 71.0211 26.9602 71.0211 26.5669C71.0211 26.0609 70.3098 25.8354 69.4595 25.5256C68.3439 25.1177 66.5743 24.3862 66.5743 22.3466C66.5743 20.5041 68.0106 18.9989 70.575 18.9989C71.7042 18.9989 72.7216 19.2941 73.4747 19.7304V19.7313ZM77.6508 29.7532H80.6894V19.2464H77.6508V29.7542V29.7532ZM91.4915 19.2464H88.6064V24.7886H88.5927L84.8428 19.2464H81.9431V29.7542H84.8282V24.1139H84.8419L88.5918 29.7542H91.4915V19.2464ZM96.3825 19.0209C93.8171 19.0209 92.3818 20.5261 92.3818 22.3686C92.3818 24.4082 94.1523 25.1397 95.2669 25.5476C96.1172 25.8574 96.8285 26.082 96.8285 26.5889C96.8285 26.9831 96.3961 27.3342 95.4622 27.3342C94.3612 27.3342 93.2175 26.8419 92.4653 26.2232V29.0648C93.2321 29.5855 94.473 29.9787 95.8247 29.9787C98.4455 29.9787 99.9371 28.502 99.9371 26.5046C99.9371 24.2679 98.0413 23.607 96.6477 23.1147C95.8256 22.8196 95.365 22.6509 95.365 22.2852C95.365 21.9194 95.7829 21.6664 96.6059 21.6664C97.5117 21.6664 98.6272 21.99 99.2822 22.4538V19.7524C98.5291 19.3161 97.5117 19.0209 96.3825 19.0209ZM100.647 29.7532H103.685V19.2464H100.647V29.7542V29.7532ZM107.979 26.9822H108.564C110.14 26.9822 111.157 26.082 111.157 24.5062C111.157 22.9305 110.14 22.0166 108.564 22.0166H107.979V26.9822ZM114.224 24.5062C114.224 27.6715 111.854 29.7532 108.453 29.7532H104.94V19.2464H108.453C111.854 19.2464 114.224 21.3419 114.224 24.5072V24.5062ZM115.048 29.7532H122.241V27.0243H118.087V25.7162H121.822V23.2403H118.087V21.9744H122.241V19.2464H115.048V29.7542V29.7532ZM127.024 24.2111C127.79 24.2111 128.39 23.8453 128.39 23.1138C128.39 22.3823 127.79 22.0166 127.01 22.0166H126.369V24.2111H127.024ZM132 29.7532H128.417L126.438 26.5037H126.368V29.7532H123.329V19.2464H127.037C129.644 19.2464 131.456 20.4142 131.456 22.9039C131.456 23.8884 131.023 25.323 129.295 26.0545L131.999 29.7542L132 29.7532Z" fill="#fff"/>
</g>
<defs>
<clipPath id="clip0_29_927">
<rect width="124" height="11" fill="white" transform="translate(8 19)"/>
</clipPath>
</defs>
</svg>
