<svg width="140" height="48" viewBox="0 0 140 48" fill="none" xmlns="http://www.w3.org/2000/svg">
<path d="M15.0999 14.3515C15.0999 14.2174 15.1946 14.1216 15.3272 14.1216H17.0321C17.1647 14.1216 17.2594 14.2174 17.2594 14.3515V33.6486C17.2594 33.7827 17.1647 33.8785 17.0321 33.8785H15.3272C15.1946 33.8785 15.0999 33.7827 15.0999 33.6486V14.3515Z" fill="#1E1E1E"/>
<path d="M19.4379 14.3515C19.4379 14.2174 19.5326 14.1216 19.6652 14.1216H21.3701C21.5027 14.1216 21.5974 14.2174 21.5974 14.3515V33.6486C21.5974 33.7827 21.5027 33.8785 21.3701 33.8785H19.6652C19.5326 33.8785 19.4379 33.7827 19.4379 33.6486V14.3515Z" fill="#1E1E1E"/>
<path d="M23.776 14.3515C23.776 14.2174 23.8707 14.1216 24.0033 14.1216H25.7082C25.8408 14.1216 25.9356 14.2174 25.9356 14.3515V33.6486C25.9356 33.7827 25.8408 33.8785 25.7082 33.8785H24.0033C23.8707 33.8785 23.776 33.7827 23.776 33.6486V14.3515Z" fill="#1E1E1E"/>
<path d="M28.114 14.3515C28.114 14.2174 28.2087 14.1216 28.3413 14.1216H30.0462C30.1789 14.1216 30.2736 14.2174 30.2736 14.3515V33.6486C30.2736 33.7827 30.1789 33.8785 30.0462 33.8785H28.3413C28.2087 33.8785 28.114 33.7827 28.114 33.6486V14.3515Z" fill="#1E1E1E"/>
<path d="M32.452 22.0359C32.452 21.9017 32.5467 21.8059 32.6793 21.8059H34.3843C34.5169 21.8059 34.6116 21.9017 34.6116 22.0359V25.9643C34.6116 26.0984 34.5169 26.1942 34.3843 26.1942H32.6793C32.5467 26.1942 32.452 26.0984 32.452 25.9643V22.0359Z" fill="#1E1E1E"/>
<path d="M45.9777 19.5063C45.3715 19.5063 44.8222 19.6213 44.3296 19.8321C43.8371 20.0428 43.4204 20.3494 43.0794 20.771C42.7384 21.1926 42.4921 21.71 42.3027 22.3041C42.1322 22.8981 42.0375 23.5688 42.0375 24.3162C42.0375 25.0635 42.189 26.1558 42.4732 26.884C42.7573 27.593 43.193 28.1487 43.7803 28.532C44.3675 28.9153 45.0874 29.1069 45.9588 29.1069C46.8302 29.1069 47.0007 29.0686 47.4932 28.9727C47.9857 28.8769 48.4972 28.7236 49.0087 28.5703V30.1992C48.5161 30.3908 48.0236 30.5249 47.5121 30.6016C47.0007 30.6974 46.4134 30.7357 45.7504 30.7357C44.4812 30.7357 43.4393 30.4675 42.5868 29.9501C41.7533 29.4327 41.1282 28.6661 40.7114 27.708C40.2947 26.7307 40.0863 25.6001 40.0863 24.297C40.0863 22.9939 40.2189 22.4765 40.4652 21.6909C40.7304 20.886 41.1093 20.2153 41.6018 19.6404C42.0943 19.0655 42.7194 18.6248 43.4393 18.3182C44.1781 18.0116 45.0306 17.8391 45.9967 17.8391C46.9628 17.8391 47.228 17.9158 47.8342 18.0499C48.4404 18.184 48.9708 18.3565 49.4633 18.6056L48.7624 20.177C48.3646 19.9854 47.91 19.8321 47.4364 19.6787C47.0007 19.5829 46.5081 19.5063 45.9777 19.5063Z" fill="#1E1E1E"/>
<path d="M53.3088 30.5825H51.4713V17.2451H53.3088V30.5825Z" fill="#1E1E1E"/>
<path d="M57.3438 21.1159V30.5824H55.5062V21.1159H57.3438ZM56.4534 17.5325C56.7376 17.5325 56.9649 17.6091 57.1733 17.7816C57.3816 17.9541 57.4764 18.2223 57.4764 18.6056C57.4764 18.9888 57.3816 19.2571 57.1733 19.4296C56.9649 19.6021 56.7186 19.6787 56.4534 19.6787C56.1882 19.6787 55.9041 19.6021 55.6957 19.4296C55.5062 19.2571 55.3926 18.9697 55.3926 18.6056C55.3926 18.2415 55.4873 17.9349 55.6957 17.7816C55.8851 17.6091 56.1503 17.5325 56.4534 17.5325Z" fill="#1E1E1E"/>
<path d="M63.652 30.7549C62.7995 30.7549 62.0418 30.5824 61.3977 30.2375C60.7536 29.8925 60.2422 29.3752 59.8822 28.6661C59.5223 27.9379 59.3518 27.0181 59.3518 25.9067C59.3518 24.7952 59.5412 23.7796 59.9201 23.0706C60.3179 22.3424 60.8483 21.8058 61.4924 21.48C62.1554 21.1351 62.9321 20.9626 63.7846 20.9626C64.637 20.9626 64.7886 21.0201 65.2432 21.1351C65.6979 21.2309 66.0957 21.3651 66.3798 21.4992L65.8305 23.0131C65.5084 22.8789 65.1675 22.764 64.7886 22.6873C64.4287 22.5915 64.0877 22.5532 63.7656 22.5532C63.1784 22.5532 62.7048 22.6873 62.3259 22.9364C61.9471 23.1855 61.6819 23.5496 61.4924 24.067C61.3219 24.5653 61.2272 25.1785 61.2272 25.9258C61.2272 26.6732 61.3219 27.2481 61.5114 27.7271C61.7008 28.2254 61.966 28.5895 62.3259 28.8578C62.7048 29.1069 63.1595 29.2218 63.6899 29.2218C64.2203 29.2218 64.6749 29.1644 65.0538 29.0494C65.4516 28.9344 65.8115 28.7811 66.1715 28.5895V30.1992C65.8305 30.3908 65.4706 30.5441 65.0727 30.6399C64.7128 30.7166 64.2203 30.7549 63.652 30.7549Z" fill="#1E1E1E"/>
<path d="M69.8465 25.2552C69.9791 25.1211 73.8436 21.116 73.8436 21.116H75.9842L72.2144 25.1786L76.2304 30.5825H74.0519L70.9642 26.3475L69.8844 27.2673V30.5825H68.0658V17.2451H69.8844L69.8465 25.2552Z" fill="#1E1E1E"/>
<path d="M87.6343 30.5825H85.7589V24.8528H79.8485V30.5825H77.9731V18.0499H79.8485V23.2431H85.7589V18.0499H87.6343V30.5825Z" fill="#1E1E1E"/>
<path d="M98.1102 25.8492C98.1102 26.6349 97.9965 27.3247 97.8071 27.9379C97.5987 28.5511 97.2956 29.0685 96.9167 29.4901C96.5379 29.9117 96.0643 30.2375 95.5339 30.4483C94.9845 30.6591 94.3783 30.7549 93.6964 30.7549C93.0144 30.7549 92.484 30.6591 91.9536 30.4483C91.4231 30.2183 90.9496 29.9117 90.5707 29.4901C90.1918 29.0685 89.8887 28.5511 89.6614 27.9379C89.4341 27.3247 89.3394 26.6349 89.3394 25.83C89.3394 25.0252 89.5098 23.9137 89.8508 23.1855C90.2108 22.4574 90.7222 21.9016 91.3852 21.5375C92.0483 21.1543 92.8439 20.9626 93.7532 20.9626C94.6625 20.9626 95.3634 21.1543 96.0075 21.5375C96.6705 21.9208 97.182 22.4574 97.5608 23.1855C97.9207 23.8946 98.1102 24.7952 98.1102 25.8492ZM91.2148 25.8492C91.2148 26.5582 91.3095 27.1523 91.48 27.6697C91.6505 28.1679 91.9346 28.5511 92.2945 28.8194C92.6734 29.0877 93.147 29.2218 93.7153 29.2218C94.2836 29.2218 94.7761 29.0877 95.1361 28.8194C95.5149 28.5511 95.7801 28.1679 95.9506 27.6697C96.1211 27.1523 96.2158 26.539 96.2158 25.8492C96.2158 25.1593 96.1211 24.5078 95.9317 24.0287C95.7612 23.5305 95.477 23.1664 95.1171 22.8981C94.7572 22.6298 94.2836 22.4957 93.6964 22.4957C92.825 22.4957 92.1998 22.7831 91.802 23.3772C91.4042 23.9521 91.2148 24.7761 91.2148 25.8492Z" fill="#1E1E1E"/>
<path d="M107.904 21.116V30.5824H106.426L106.18 29.3368H106.085C105.896 29.6626 105.631 29.9309 105.328 30.1417C105.025 30.3525 104.665 30.5058 104.305 30.6016C103.926 30.6974 103.547 30.7549 103.168 30.7549C102.448 30.7549 101.823 30.6399 101.312 30.41C100.819 30.1608 100.44 29.7968 100.175 29.2794C99.9287 28.762 99.7961 28.1104 99.7961 27.3056V21.116H101.653V27.0373C101.653 27.7655 101.804 28.3212 102.107 28.6853C102.41 29.0494 102.903 29.2219 103.547 29.2219C104.191 29.2219 104.703 29.0877 105.081 28.8386C105.46 28.5895 105.707 28.2062 105.858 27.708C106.029 27.2098 106.104 26.5966 106.104 25.9067V21.116H107.904Z" fill="#1E1E1E"/>
<path d="M116.315 27.9188C116.315 28.532 116.163 29.0685 115.86 29.4901C115.557 29.9117 115.121 30.2375 114.553 30.4483C113.985 30.6591 113.303 30.7549 112.507 30.7549C111.711 30.7549 111.276 30.6974 110.802 30.6016C110.348 30.5058 109.912 30.3716 109.514 30.18V28.5511C109.931 28.7428 110.404 28.9344 110.954 29.0877C111.503 29.241 112.034 29.3177 112.545 29.3177C113.056 29.3177 113.738 29.2027 114.042 28.9919C114.345 28.7619 114.515 28.4745 114.515 28.0912C114.515 27.708 114.458 27.6888 114.345 27.5355C114.231 27.363 114.004 27.1906 113.682 27.0181C113.36 26.8265 112.905 26.6157 112.299 26.3857C111.711 26.1366 111.2 25.9067 110.783 25.6576C110.366 25.4084 110.044 25.121 109.836 24.7952C109.609 24.4503 109.514 24.0287 109.514 23.4921C109.514 22.6681 109.836 22.0549 110.48 21.6142C111.143 21.1734 112.015 20.9435 113.075 20.9435C114.136 20.9435 114.174 21.001 114.667 21.1159C115.178 21.2118 115.671 21.3842 116.144 21.6142L115.538 23.0322C115.273 22.8981 114.989 22.8023 114.705 22.7256C114.42 22.6298 114.136 22.5532 113.852 22.4957C113.568 22.4382 113.284 22.3999 112.981 22.3999C112.431 22.3999 111.996 22.4957 111.711 22.6681C111.427 22.8406 111.276 23.0897 111.276 23.3963C111.276 23.7029 111.333 23.8179 111.465 23.9712C111.598 24.1437 111.844 24.297 112.185 24.4695C112.526 24.6419 112.981 24.8335 113.549 25.0635C114.136 25.2935 114.629 25.5234 115.027 25.7534C115.443 25.9833 115.746 26.2708 115.955 26.6157C116.201 26.9606 116.315 27.4014 116.315 27.9188Z" fill="#1E1E1E"/>
<path d="M121.941 20.9435C122.756 20.9435 123.475 21.1159 124.063 21.4609C124.65 21.8058 125.105 22.2849 125.408 22.9364C125.73 23.588 125.9 24.3353 125.9 25.2168V26.2324H119.611C119.611 27.2097 119.876 27.9379 120.35 28.4553C120.842 28.9727 121.505 29.2218 122.377 29.2218C123.248 29.2218 123.513 29.1644 123.968 29.0685C124.442 28.9536 124.934 28.7811 125.427 28.5511V30.1033C124.972 30.3141 124.498 30.4674 124.006 30.5824C123.532 30.6782 122.964 30.7357 122.301 30.7357C121.638 30.7357 120.596 30.5632 119.914 30.1992C119.213 29.8351 118.683 29.2985 118.285 28.5895C117.906 27.8613 117.717 26.9798 117.717 25.9258C117.717 24.8719 117.887 23.9521 118.228 23.2239C118.588 22.4957 119.081 21.9208 119.706 21.5375C120.35 21.1543 121.108 20.9435 121.941 20.9435ZM121.941 22.3807C121.278 22.3807 120.748 22.5915 120.35 23.0322C119.952 23.473 119.725 24.0862 119.649 24.8719H124.063C124.063 24.3736 123.987 23.9521 123.835 23.5688C123.684 23.1855 123.457 22.8981 123.135 22.6873C122.831 22.4957 122.434 22.3807 121.941 22.3807Z" fill="#1E1E1E"/>
</svg>
