<svg width="140" height="48" viewBox="0 0 140 48" fill="none" xmlns="http://www.w3.org/2000/svg">
<g clip-path="url(#clip0_882_931)">
<path d="M88.7609 11.3637C90.4955 11.3637 91.7515 12.6728 91.7515 14.2001C91.7515 15.7274 90.4057 17.0801 88.4917 17.0801C86.7571 17.0801 85.3291 15.8583 85.3291 14.2655C85.3291 12.8474 86.7945 11.3564 88.7684 11.3564L88.7609 11.3637Z" fill="#58AEFB"/>
<path d="M30.0168 34.0545L30.5626 33.96C31.385 33.7927 31.4822 33.6982 31.4822 33.16V21.4945H29V21.3273L31.4822 19.0727L31.5869 18.2509C32.1327 13.5455 35.729 11 40.7383 11C44.1402 11 46.3832 12.3164 46.3832 14.0764C46.3832 15.7927 44.5888 16.8545 42.914 16.8545C42.3682 16.8545 41.8224 16.7818 41.3439 15.8364L39.5869 12.3818C39.3477 11.9527 39.243 11.8218 39.0112 11.8218C37.957 11.8218 36.9701 13.7418 37.172 17.7418L37.2467 19H44.4243L46.8692 18.2436L46.9439 18.3164C46.8883 19.3047 46.8534 20.294 46.8393 21.2836V33.1964C46.8393 33.6982 46.9065 33.7927 47.7514 33.96L48.2972 34.0545V34.3527H39.8935V34.0618L40.2299 33.9891C40.9477 33.8582 41.015 33.6982 41.015 33.16V21.4873H37.3065V33.1964C37.3065 33.7055 37.3813 33.8655 38.0916 33.96L38.8019 34.0618V34.3527H30.0168V34.0618V34.0545ZM64.8505 19.5018C65.4636 20.0909 65.8972 20.8545 65.8972 22.8764V33.2036C65.8972 33.7273 66.0019 33.7927 66.8243 33.96L67.3701 34.0545V34.3527H58.8243V34.0618L59.3701 33.96C59.9533 33.8582 60.0579 33.6982 60.0579 33.1964V24.7309C60.0579 23.5673 59.9533 22.7455 59.5122 22.28C59.1142 21.949 58.5992 21.782 58.0766 21.8145C57.5308 21.8145 56.9551 21.9818 56.3421 22.1782V33.2036C56.3421 33.6982 56.4168 33.8655 56.9925 33.96L57.5383 34.0618V34.3527H49V34.0618L49.5458 33.96C50.3607 33.8 50.4579 33.6982 50.4579 33.1673V22.9418C50.4579 22.3818 50.3907 22.0836 50.1215 21.72L49.1645 20.5927V20.4909L56.4467 18.2073L56.5215 18.28C56.4406 19.1707 56.3807 20.063 56.3421 20.9564L56.3121 21.6473L56.4467 21.72C58.5551 19.3636 60.357 18.4764 62.1589 18.4764C63.2804 18.4764 64.2 18.8691 64.8505 19.4945V19.5018ZM79.3402 19.5964L78.5925 19.1309V19H84.7234V19.1309L83.7963 19.7273C82.914 20.3236 82.4729 20.6873 81.7925 22.2145L76.2822 34.5564H74.7495L68.5888 20.9564C68.043 19.7636 67.8112 19.6909 66.9589 19.4655L66.3458 19.2982V19.0073H76.5514V19.2982L75.6991 19.4655C74.9514 19.5964 74.7495 19.6909 74.7495 20.0255C74.7495 20.1927 74.8168 20.6218 74.9813 21.0145L78.0093 28.8618H78.0841L79.3776 25.4218C79.886 24.0327 80.6336 21.4873 80.6336 20.8909C80.6336 20.4545 80.0953 20.0255 79.3402 19.5964ZM91.4523 33.1673C91.4523 33.6982 91.5271 33.7927 92.372 33.96L92.9178 34.0545V34.3527H84.1028V34.0618L84.6486 33.96C85.471 33.7927 85.5682 33.6982 85.5682 33.16V22.9055C85.5682 22.3455 85.4935 22.0473 85.2318 21.6764L84.2748 20.5564V20.4836L91.4897 18.2364L91.557 18.3091C91.4822 19.5309 91.4598 20.9564 91.4598 21.2836V33.1673H91.4523ZM108.768 28.2655L108.933 28.3382L108.155 34.3527H93.4262L93.3514 34.1564L102.436 19.5964L102.398 19.5236L100.566 19.7636C98.9664 19.96 98.286 20.2291 97.6729 20.8182C97.1944 21.2836 95.5944 23.2036 94.271 24.76L94.0692 24.6873L95.3626 17.8436H95.5645L95.7365 18.4982C95.8336 18.8982 95.9084 19.0073 96.3495 19.0073H108.933L109.007 19.2036L100.335 33.7273L100.402 33.8291L101.015 33.7273C103.968 33.2691 105.164 32.7091 106.047 31.8364C106.66 31.2473 107.138 30.52 108.768 28.2727V28.2655Z" fill="black"/>
</g>
<defs>
<clipPath id="clip0_882_931">
<rect width="80" height="24" fill="white" transform="translate(29 11)"/>
</clipPath>
</defs>
</svg>
