<svg width="140" height="48" viewBox="0 0 140 48" fill="none" xmlns="http://www.w3.org/2000/svg">
<path d="M23.7879 24.6184C24.9862 25.2995 25.5853 25.64 26.2433 25.6406C26.9013 25.6411 27.501 25.3017 28.7005 24.6226L36.3466 20.2944C36.6918 20.0989 36.9045 19.7368 36.9045 19.3447C36.9045 18.9526 36.6918 18.5904 36.3466 18.395L28.6977 14.0651C27.4996 13.3869 26.9005 13.0477 26.2431 13.048C25.5858 13.0482 24.9869 13.3878 23.7893 14.067L17.2138 17.796C17.1651 17.8236 17.1407 17.8374 17.118 17.8506C14.8719 19.1454 13.4842 21.5094 13.4656 24.0724C13.4654 24.0983 13.4654 24.126 13.4654 24.1814C13.4654 24.2367 13.4654 24.2644 13.4656 24.2902C13.4841 26.8504 14.8688 29.2122 17.1109 30.508C17.1335 30.5212 17.1579 30.535 17.2065 30.5626L21.3254 32.9046C23.7254 34.2692 24.9254 34.9515 26.2432 34.9519C27.561 34.9524 28.7615 34.2709 31.1625 32.9078L35.5105 30.4395C36.7127 29.757 37.3138 29.4157 37.6439 28.8531C37.9739 28.2906 37.9739 27.6073 37.9739 26.2407V23.6008C37.9739 23.2217 37.7654 22.8723 37.4291 22.6879C37.1037 22.5094 36.707 22.512 36.384 22.6948L27.4684 27.7418C26.8702 28.0804 26.5711 28.2498 26.2429 28.2499C25.9147 28.2499 25.6155 28.0808 25.0171 27.7426L18.9828 24.3315C18.6805 24.1606 18.5294 24.0751 18.408 24.0597C18.1313 24.0246 17.8652 24.1772 17.7597 24.4317C17.7135 24.5433 17.7144 24.7149 17.7163 25.0581C17.7177 25.3108 17.7184 25.4371 17.7423 25.5533C17.796 25.8136 17.9351 26.0492 18.1381 26.224C18.2287 26.3021 18.3398 26.3653 18.562 26.4916L25.0137 30.1585C25.6136 30.4995 25.9136 30.67 26.243 30.6701C26.5724 30.6702 26.8725 30.4999 27.4726 30.1592L35.3804 25.6702C35.5854 25.5538 35.6879 25.4956 35.7647 25.5394C35.8416 25.5831 35.8416 25.6996 35.8416 25.9326V27.13C35.8416 27.4717 35.8416 27.6425 35.7591 27.7831C35.6766 27.9238 35.5263 28.0091 35.2257 28.1797L28.7033 31.8823C27.5025 32.5639 26.9022 32.9047 26.2431 32.9044C25.5841 32.9041 24.984 32.5628 23.7839 31.8801L17.6816 28.4086C17.6623 28.3976 17.6526 28.3921 17.6435 28.3869C16.364 27.6506 15.5746 26.3036 15.5671 24.8443C15.5671 24.834 15.5671 24.8229 15.5671 24.8009V23.7018C15.5671 22.8961 16.0028 22.1515 16.7106 21.7475C17.336 21.3905 18.1074 21.3898 18.7335 21.7456L23.7879 24.6184Z" fill="#fff"/>
<path d="M54.2637 29.6646C50.3172 29.6646 47.9364 27.3516 47.9364 24C47.9364 20.6956 50.3331 18.3353 54.2797 18.3353C57.8588 18.3353 59.7924 20.0347 59.952 22.2691H57.6352C57.5233 21.3722 56.7244 20.255 54.4076 20.255H54.1521C51.755 20.255 50.1574 21.624 50.1574 24C50.1574 26.376 51.787 27.7449 54.1521 27.7449H54.4076C56.7404 27.7449 58.0027 26.675 58.0027 25.778V25.6521H54.3277V23.7325H58.5937C59.5685 23.7325 60.1119 24.2832 60.1119 25.2431V29.5073H58.0027V28.2799C57.5713 28.8149 56.4369 29.6646 54.2637 29.6646Z" fill="#fff"/>
<path d="M63.6491 29.5073H61.4439V18.4927H63.6491V29.5073Z" fill="#fff"/>
<path d="M71.4687 29.5073H69.2639V20.4124H64.758V18.4927H75.9747V20.4124H71.4687V29.5073Z" fill="#fff"/>
<path d="M83.6313 29.5073H77.0801V18.4927H83.4398C85.4371 18.4927 86.9709 19.5941 86.9709 21.4037C86.9709 22.6625 86.156 23.5594 85.1972 23.9056C86.3475 24.1573 87.2424 25.0857 87.2424 26.5176C87.2424 28.3429 85.6286 29.5073 83.6313 29.5073ZM79.2853 20.4124V22.9614H83.1999C84.1747 22.9614 84.7497 22.5209 84.7497 21.6397C84.7497 20.9159 84.1747 20.4124 83.1999 20.4124H79.2853ZM79.2853 24.8811V27.5876H83.3118C84.3663 27.5876 85.0216 27.0526 85.0216 26.2186C85.0216 25.3217 84.3663 24.8811 83.3118 24.8811H79.2853Z" fill="#fff"/>
<path d="M94.5339 29.6646C90.9068 29.6646 88.1902 27.5246 88.1902 24C88.1902 20.4753 90.9068 18.3353 94.5339 18.3353C98.1605 18.3353 100.861 20.4753 100.861 24C100.861 27.5246 98.1605 29.6646 94.5339 29.6646ZM94.4059 27.7449H94.6614C96.8186 27.7449 98.64 26.376 98.64 24C98.64 21.624 96.8186 20.255 94.6614 20.255H94.4059C92.2487 20.255 90.4114 21.624 90.4114 24C90.4114 26.376 92.2487 27.7449 94.4059 27.7449Z" fill="#fff"/>
<path d="M108.032 29.6646C104.404 29.6646 101.688 27.5246 101.688 24C101.688 20.4753 104.404 18.3353 108.032 18.3353C111.659 18.3353 114.359 20.4753 114.359 24C114.359 27.5246 111.659 29.6646 108.032 29.6646ZM107.904 27.7449H108.159C110.316 27.7449 112.138 26.376 112.138 24C112.138 21.624 110.316 20.255 108.159 20.255H107.904C105.747 20.255 103.909 21.624 103.909 24C103.909 26.376 105.747 27.7449 107.904 27.7449Z" fill="#fff"/>
<path d="M126.773 29.5073H123.865L119.295 24.535L117.697 25.8725V29.5073H115.492V18.4927H117.697V23.3548L123.466 18.4927H126.517L120.925 23.1818L126.773 29.5073Z" fill="#fff"/>
</svg>
