<svg width="140" height="48" viewBox="0 0 140 48" fill="none" xmlns="http://www.w3.org/2000/svg">
<path fill-rule="evenodd" clip-rule="evenodd" d="M27.9717 16.0237C27.8779 15.5802 27.1212 14.5616 26.2731 14.5616C26.0831 14.5616 25.958 14.5937 25.8329 14.6268C26.6503 14.9448 27.2791 15.7683 27.4691 16.3424L27.94 16.0564V16.0237H27.9717ZM33.3187 35.3246L30.2634 33.2577C29.8959 33.0091 29.4685 32.5394 29.4685 31.6628V24.178L29.1626 24.3668L29.0411 24.4295V31.8808C29.0411 32.5077 29.3762 33.1648 29.8335 33.4779L32.9216 35.5753L33.3187 35.3246ZM20.1209 27.8166C20.1807 26.5469 19.912 24.9979 19.6411 23.5106C19.3701 21.9933 19.1281 20.444 19.1588 19.0831C19.1894 18.2476 19.3398 17.4423 19.6703 16.6986C19.0992 17.5961 18.7392 18.6176 18.7082 19.7021C18.6183 22.3349 19.851 25.7712 19.7298 28.4367C19.705 28.7983 19.6754 29.1596 19.6411 29.5205L19.7002 29.4578C19.9416 29.1166 20.0916 28.5913 20.1209 27.8166ZM24.407 35.2797C23.9486 34.3572 22.85 33.7945 21.566 33.7945C21.4426 33.823 21.3204 33.823 21.1988 33.823C22.4521 34.032 23.5208 34.7141 23.919 35.5753L24.407 35.2793V35.2797ZM35.4575 24.2671L34.3881 23.1096L34.4205 23.8806L34.9848 24.5342L35.4575 24.2671ZM64.7562 17.7671L62.1925 16.2438L62.5775 15.9863L65.0442 17.444C64.948 17.5406 64.8517 17.6371 64.7562 17.7671ZM65.3658 35.5753L64.3135 34.8338C63.6219 34.3405 63.2619 33.5071 63.2619 32.5817V22.2765C63.2619 20.8572 63.5631 19.8695 64.0429 19.1917C63.7727 19.8695 63.6522 20.703 63.6522 21.66L63.6818 32.2106C63.6818 33.3525 64.0133 34.0933 64.7951 34.6486L65.7572 35.3288L65.3661 35.5753H65.3658ZM56.8455 35.4813C56.8455 35.4813 56.7464 35.5436 56.6808 35.5753H56.417V18.3491C56.417 17.516 56.3511 17.516 55.8232 17.1445L55.0632 16.5889L55.5597 16.3424C55.9554 16.6502 56.55 17.0833 56.55 17.1146C56.781 17.3301 56.8455 17.453 56.8455 17.9473V35.5116V35.4813ZM44.2433 14.2054C43.9803 14.8928 44.013 15.5496 44.3424 16.0878C44.6404 16.565 45.1669 16.8941 45.795 17.0441C43.8484 17.1926 42.9921 15.7893 44.2433 14.2054ZM48.8257 29.1643C48.9523 28.6732 49.0039 28.1208 49.0039 27.5385V18.6148C49.0039 17.542 48.9523 17.4205 48.6468 17.0833H48.6984C49.1305 16.9906 49.3597 17.0833 49.3597 18.0018V26.9561C49.3597 27.999 49.2078 28.6736 48.8257 29.1647M49.5914 35.5757C49.3365 34.733 48.5662 34.0203 47.2209 33.8255C47.4145 33.7945 47.6059 33.7945 47.7991 33.7945C49.4631 33.8251 49.9443 34.8616 50.0409 35.186L50.0726 35.2822L49.5914 35.5753V35.5757ZM95.3439 35.3566L94.426 34.7964C93.5979 34.2963 93.1688 33.5192 93.1688 32.3349V23.8928C93.1688 23.3948 93.1392 23.4262 92.9538 23.2698C92.9538 23.2698 92.3107 22.7399 91.8816 22.3972L91.4228 22.6483L92.3104 23.3322C92.8016 23.7051 92.7406 23.7364 92.7406 24.4847V32.6768C92.7406 33.7984 93.1998 34.577 93.8428 34.9527L94.9457 35.5753L95.3439 35.3566ZM86.7887 35.5112V22.8624L86.3096 22.3972L85.7193 22.6775L86.2718 23.2054V35.5753H86.5695C86.6422 35.5432 86.7527 35.5112 86.7527 35.5112H86.7887ZM76.8076 35.3563L73.2437 33.1883C72.53 32.7491 72.2527 32.216 72.2527 31.2736V24.178L71.9426 24.3351L71.8171 24.3974V31.619C71.8171 32.4671 72.1885 33.0936 72.8405 33.4722L76.4034 35.5753L76.8076 35.3563ZM78.59 31.3013V24.2653C78.59 23.8949 78.4723 23.7702 78.2036 23.6171L76.8076 22.7534V23.2164L77.6097 23.6783C78.2036 24.0174 78.2036 24.0797 78.2036 24.729L78.175 31.0545L78.59 31.3013ZM106.751 18.5941V18.5033C106.751 17.6542 106.26 16.7759 105.506 16.32C105.217 16.1376 104.959 15.9863 104.959 15.9863L104.612 16.2295L104.813 16.3492C105.796 16.9273 106.348 17.6542 106.348 18.8356L106.751 18.5941ZM118.158 35.3246L115.094 33.2577C114.731 33.0091 114.306 32.5394 114.306 31.6628V24.178L114.002 24.3668L113.88 24.4295V31.7857C113.88 32.6006 114.185 33.1648 114.699 33.5096L117.732 35.5753L118.158 35.3246ZM104.969 35.6797L101.696 33.5402C100.911 33.0387 100.759 32.5657 100.759 31.6518V24.8904L100.516 25.0172L100.334 25.1105V31.8099C100.334 32.8813 100.668 33.3532 101.182 33.6983L104.574 35.9315L104.969 35.6797ZM119.94 24.2667L118.871 23.1096L118.902 23.8806L119.467 24.5342L119.94 24.2667ZM107.464 31.6575V21.6849L106.751 21.9691V31.3733L107.464 31.6575Z" fill="#8F98A9"/>
<path fill-rule="evenodd" clip-rule="evenodd" d="M28.753 32.6159L28.3816 31.8712L27.4205 32.4902C26.7072 31.6208 25.5573 30.5979 22.8257 30.5979C19.9376 30.5673 16.3968 32.8613 14.7823 34.847L15.0622 35.2192C17.2655 33.7607 19.5337 33.1114 21.521 33.1114C23.1358 33.1114 24.4704 33.8864 25.0286 35.0332L28.753 32.6159ZM31.7359 15.6173C31.1763 14.749 29.6862 13.137 26.7361 13.137C23.1975 13.1067 20.0937 15.8663 19.9689 19.2163C19.8748 21.8836 21.1485 25.326 21.0234 27.9933C20.9624 28.8933 20.7746 29.5444 20.4035 30.0395L20.7746 30.475L22.949 28.8937C24.0056 28.1155 24.5948 27.1552 24.5634 25.4816C24.5324 23.403 23.5693 20.2086 23.5693 17.7593C23.5693 15.6493 24.3774 14.0676 26.2093 14.0676C27.4515 14.0676 28.445 15.3391 28.5994 16.0525C28.6628 16.3927 28.5994 16.5483 28.2892 16.7652L27.4205 17.3564V18.3167L31.7363 15.6169L31.7359 15.6173ZM39.735 23.8682L35.5743 19.278L29.0838 23.0608V23.9291L30.4195 23.1861V31.7775C30.4195 32.2726 30.6063 32.5832 30.916 32.8012L34.3631 35.0332L39.2388 32.2099L38.835 31.3416L36.2884 32.7064L33.9913 31.124C33.7115 30.9395 33.6804 30.7529 33.6804 30.3493V27.5581L39.735 23.8682ZM36.4744 24.5506L33.6804 26.2869V21.7583L33.9289 21.6041L36.4744 24.5506ZM50.5788 35.1251C50.2665 34.2511 49.3628 33.3486 47.7399 33.2866C46.2099 33.2553 44.0262 33.8483 42.2182 35.2192L41.8738 34.7821C43.1849 33.3486 46.2423 31.0442 49.4545 31.0118C51.1405 31.0118 52.3254 31.5735 53.1678 32.4767L54.5726 31.6974L54.9783 32.5084L50.5788 35.1251ZM69.8269 16.0258C68.6081 16.7417 68.2025 17.709 68.2025 19.2046V31.1357C68.2025 31.8855 68.2973 32.2263 68.7022 32.4457L69.1083 32.6647L70.2311 32.008L70.6061 32.7581L66.7057 35.0952L65.3654 34.1902C64.7704 33.7856 64.5202 33.2866 64.5202 32.3203V21.6653C64.5202 19.6722 65.1461 18.6112 66.0195 17.9584L66.5189 17.5844L62.8377 15.4335L61.184 16.4297V31.9464C61.184 33.2549 60.9969 33.4422 59.8408 34.0335C59.8408 34.0335 58.9386 34.4705 57.6928 35.1248H57.4422V17.9274C57.4422 17.0868 57.3473 16.8984 56.8793 16.5252L55.5704 15.4663L53.9787 16.3688V25.2807C53.9787 26.8372 53.7292 27.9591 52.4816 28.7373L49.3625 30.7005L49.0488 30.1716C50.017 29.4226 50.2348 28.3623 50.2348 27.1168V18.02C50.2348 16.6801 50.0494 16.1508 48.6438 16.4001C48.1141 16.4927 47.3028 16.6178 46.8038 16.6801C44.7441 16.9611 43.87 15.4962 45.2745 13.6584C45.2745 13.6584 45.6182 13.1907 46.4911 12.0681L47.1791 12.5368L46.6783 13.2531C46.0238 14.1894 46.5539 14.6877 47.6158 14.3123C48.1141 14.125 49.0809 13.7524 49.7671 13.4703C52.7297 12.3189 53.8226 14.2193 53.9787 15.3409L57.6607 13.1291L60.8404 15.5582L64.7704 13.1291L67.7975 14.8433C68.8263 15.4335 69.3257 15.1846 70.0436 14.8102L70.6368 14.4993L71.1041 15.2789L69.8269 16.0258ZM83.8938 31.0684L83.6143 30.3899L82.5296 30.9441V22.5849C82.5296 22.155 82.3756 21.8146 81.9414 21.5663L77.9412 19.1918L71.4606 22.9546V23.85L72.7952 23.0789V31.2533C72.7952 31.9927 72.9791 32.2715 73.4465 32.5486L77.3833 34.863L83.8938 31.0684ZM99.265 32.8268L98.9552 32.117L97.8071 32.7663L97.406 32.5184C96.9718 32.2715 96.8781 31.9617 96.8781 31.2219V22.3695C96.8781 21.6593 96.7234 21.3523 96.2881 21.0431L93.9005 19.2534L90.2111 21.3523L88.2587 19.2534L84.3519 21.6297L84.8794 22.2452L86.2119 21.4452L87.1729 22.524V34.8024H87.421C88.9717 34.1211 89.4675 33.9063 89.4675 33.9063C90.2115 33.5972 90.4293 33.3507 90.4293 32.4881V22.2448L91.7015 21.5054L93.1894 22.6783C93.5911 23.0166 93.6528 23.2944 93.6528 23.818L93.6842 32.2099C93.6842 33.1342 93.9636 33.6592 94.5825 34.0296L95.886 34.8024L99.265 32.8268ZM79.2736 32.3649L79.0886 32.3958L76.5449 30.9142C76.1125 30.6674 76.0173 30.3899 76.0173 29.8336L76.0501 21.7212L76.2347 21.6589L78.6851 23.0789C79.1799 23.3567 79.2736 23.6036 79.2736 24.1271V32.3649ZM107.865 32.6932L107.678 32.7246L105.468 31.2878C105.034 31.0082 104.878 30.7892 104.878 30.2296V22.2761L107.647 20.5897L107.865 20.7151V32.6929V32.6932ZM112.47 31.4143L112.19 30.6966L111.069 31.2878V18.0652C111.069 16.1316 110.199 14.885 108.768 14.011L107.368 13.137L102.979 15.6939L103.85 16.1003L105.283 15.321L106.215 15.8506C107.211 16.4123 107.865 17.5363 107.865 18.6892V19.1871L100.334 23.5533V24.3964L101.61 23.7101V31.6326C101.61 32.3171 101.796 32.5992 102.232 32.8795L105.966 35.2192L112.47 31.4143ZM124.574 23.9911L120.372 19.3752L113.869 23.179V24.0523L115.207 23.3051V31.9449C115.207 32.4429 115.394 32.7552 115.705 32.9743L119.16 35.2192L124.044 32.3798L123.672 31.5069L121.12 32.8795L118.817 31.2875C118.505 31.0702 118.475 30.9146 118.475 30.5092V27.702L124.574 23.9911ZM121.276 24.6774L118.475 26.4237V21.8694L118.756 21.7141L121.276 24.6774Z" fill="#1A171B"/>
</svg>
