<svg width="140" height="48" viewBox="0 0 140 48" fill="none" xmlns="http://www.w3.org/2000/svg">
<g clip-path="url(#clip0_29_935)">
<path d="M48.0073 16.9767H53.605L55.7495 26.4393H55.7973L57.8421 16.9767H63.4654L64.4469 32.2683H60.6128L60.1127 21.0763H60.065L57.3948 32.2683H53.9867L51.2944 21.0763H51.2228L50.7474 32.2683H47.03L48.0073 16.9767Z" fill="#FF3670"/>
<path d="M65.1073 26.3515C65.1073 22.6279 67.7281 20.2625 71.6116 20.2625C75.6382 20.2625 78.1874 22.8033 77.3064 27.4027H68.9644C69.4176 28.7608 70.728 29.3522 72.4431 29.3522C73.7535 29.3522 75.1832 29.0232 76.3028 28.3011V31.6518C75.0639 32.1774 73.5627 32.3967 72.2284 32.3967C67.7255 32.3967 65.1073 29.9874 65.1073 26.3515ZM73.9231 24.8837C73.7527 23.7229 72.7558 23.1096 71.5161 23.1096C70.2296 23.1096 69.3486 23.7887 68.9669 24.8837H73.9231Z" fill="#FF3670"/>
<path d="M78.3878 20.394H81.6255V21.3339H81.6732C82.2449 20.6289 83.1029 20.2827 84.1747 20.2827C84.4956 20.2818 84.8157 20.3118 85.1298 20.372V23.809C84.6781 23.6291 84.1923 23.5325 83.7001 23.5246C82.7706 23.5246 82.0557 23.9844 82.0557 25.1014V32.2682H78.3878V20.394Z" fill="#FF3670"/>
<path d="M86.1785 20.394H89.4161V21.3574H89.4638C90.2502 20.5906 91.2036 20.2609 92.3709 20.2609C93.7529 20.2609 94.8486 20.7206 95.5396 21.5971H95.5873C96.3975 20.6987 97.4932 20.2609 98.8249 20.2609C101.303 20.2609 102.875 21.7279 102.875 24.138V32.2683H99.2296V24.9714C99.2296 24.008 98.7056 23.4386 97.8008 23.4386C96.919 23.4386 96.3711 24.008 96.3711 24.9714V32.2683H92.7015V24.9714C92.7015 24.008 92.1775 23.4386 91.2718 23.4386C90.3661 23.4386 89.843 24.008 89.843 24.9714V32.2683H86.1785V20.394Z" fill="#FF3670"/>
<path d="M103.719 28.4756C103.719 26.0663 105.387 24.5993 107.769 24.5993C108.699 24.5993 109.509 24.8178 110.176 25.2126H110.224V24.8617C110.224 23.679 109.366 22.9999 107.838 22.9999C106.743 22.9999 105.694 23.3508 104.908 23.7447V20.8537C106.079 20.437 107.322 20.2216 108.577 20.2185C111.961 20.2185 113.89 21.8391 113.89 24.8397V32.2682H110.482V31.5633H110.435C109.767 32.0888 108.816 32.3739 107.742 32.3739C105.363 32.3747 103.719 30.8849 103.719 28.4756ZM108.866 29.9184C109.747 29.9184 110.366 29.327 110.366 28.4067C110.366 27.5091 109.747 26.9185 108.866 26.9185C107.985 26.9185 107.317 27.5099 107.317 28.4067C107.317 29.3035 107.984 29.9184 108.866 29.9184Z" fill="#FF3670"/>
<path d="M116.752 15.9912C118.039 15.9912 118.872 16.6703 118.872 17.7653C118.872 18.8603 118.039 19.5394 116.752 19.5394C115.49 19.5394 114.632 18.8603 114.632 17.7653C114.632 16.6703 115.466 15.9912 116.752 15.9912ZM114.917 20.3939H118.587V32.2682H114.917V20.3939Z" fill="#FF3670"/>
<path d="M119.409 26.3295C119.409 22.6482 121.839 20.2624 125.103 20.2624C126.296 20.2624 127.39 20.5687 128.248 21.1381H128.295V16.5168H131.965V32.2682H128.582V31.2139H128.535C127.653 32.0027 126.366 32.3528 125.104 32.3528C121.766 32.3528 119.409 29.9654 119.409 26.3295ZM125.842 29.1328C127.319 29.1328 128.462 28.1036 128.462 26.3076C128.462 24.4897 127.319 23.4605 125.842 23.4605C124.316 23.4605 123.221 24.5335 123.221 26.3076C123.221 28.0817 124.316 29.1352 125.842 29.1352V29.1328Z" fill="#FF3670"/>
<path d="M34.6854 13.0118C31.6933 12.8939 28.7382 13.6565 26.25 15.1887C23.7617 16.7209 21.8699 18.9428 20.8496 21.5313C20.1478 19.7472 19.0263 18.1275 17.5651 16.7879C16.188 15.5192 14.5384 14.5282 12.7216 13.878C10.9048 13.2279 8.96058 12.9329 7.01287 13.0118C6.92705 14.8023 7.24797 16.5897 7.95519 18.2599C8.6624 19.9301 9.74039 21.4465 11.1204 22.7125C11.7441 23.2861 12.4244 23.8053 13.1525 24.2633C14.1675 24.9042 14.9969 25.7631 15.5689 26.7656C16.1408 27.768 16.4379 28.8836 16.4344 30.0156V34H25.2639V30.0156C25.2606 28.8837 25.5578 27.7681 26.1298 26.7657C26.7017 25.7633 27.531 24.9043 28.5458 24.2633C29.2742 23.8057 29.9546 23.2865 30.5779 22.7125C31.9581 21.4466 33.0362 19.9302 33.7434 18.26C34.4506 16.5897 34.7715 14.8023 34.6854 13.0118Z" fill="#FF3670"/>
</g>
<defs>
<clipPath id="clip0_29_935">
<rect width="125" height="21" fill="white" transform="translate(7 13)"/>
</clipPath>
</defs>
</svg>
