<svg width="140" height="48" viewBox="0 0 140 48" fill="none" xmlns="http://www.w3.org/2000/svg">
<g clip-path="url(#clip0_29_934)">
<path d="M24.2108 27.1895C24.2108 28.3393 24.46 29.222 24.7856 29.756C25.2126 30.4555 25.8493 30.7518 26.4985 30.7518C27.3359 30.7518 28.1019 30.5414 29.5781 28.4733C30.7607 26.8157 32.1542 24.489 33.0918 23.0304L34.6797 20.5592C35.7827 18.8429 37.0594 16.9351 38.5232 15.6419C39.7182 14.5864 41.0073 14 42.3047 14C44.4828 14 46.5575 15.2785 48.1454 17.6764C49.8831 20.3026 50.7267 23.6105 50.7267 27.0241C50.7267 29.0534 50.3318 30.5445 49.6598 31.7225C49.0106 32.8618 47.7453 34 45.6168 34V30.7518C47.4393 30.7518 47.8942 29.0555 47.8942 27.1141C47.8942 24.3476 47.2574 21.2775 45.8546 19.0838C44.8591 17.5277 43.5689 16.577 42.1496 16.577C40.6145 16.577 39.3791 17.7497 37.9908 19.8408C37.2527 20.9518 36.495 22.3058 35.6442 23.8335L34.7076 25.5141C32.8262 28.8932 32.3496 29.6628 31.4089 30.933C29.76 33.1571 28.3521 34 26.4985 34C24.2997 34 22.9093 33.0356 22.0482 31.5822C21.3453 30.3979 21 28.844 21 27.0733L24.2108 27.1895Z" fill="#0081FB"/>
<path d="M23.5317 17.9058C25.0037 15.6073 27.1281 14 29.5647 14C30.9757 14 32.3785 14.423 33.8434 15.6346C35.4457 16.9592 37.1535 19.1403 39.284 22.7351L40.048 24.0251C41.8922 27.1372 42.9415 28.7382 43.5555 29.4932C44.3453 30.4628 44.8984 30.7518 45.6168 30.7518C47.4393 30.7518 47.8942 29.0555 47.8942 27.1141L50.7267 27.0241C50.7267 29.0534 50.3318 30.5445 49.6598 31.7225C49.0106 32.8618 47.7453 34 45.6168 34C44.2936 34 43.1213 33.7089 41.825 32.4702C40.8285 31.5194 39.6634 29.8304 38.7672 28.312L36.1011 23.801C34.7634 21.5372 33.5364 19.8492 32.8262 19.0848C32.0622 18.2628 31.0801 17.2702 29.513 17.2702C28.2446 17.2702 27.1674 18.1717 26.2659 19.5508L23.5317 17.9058Z" fill="url(#paint0_linear_29_934)"/>
<path d="M29.513 17.2702C28.2446 17.2702 27.1674 18.1717 26.2659 19.5508C24.9913 21.4995 24.2108 24.4021 24.2108 27.1895C24.2108 28.3393 24.46 29.222 24.7856 29.756L22.0482 31.5822C21.3453 30.3979 21 28.844 21 27.0733C21 23.8534 21.8725 20.4974 23.5317 17.9058C25.0037 15.6073 27.1281 14 29.5647 14L29.513 17.2702Z" fill="url(#paint1_linear_29_934)"/>
<path d="M56.9685 14.6324H60.6828L66.998 26.2052L73.3142 14.6324H76.9479V33.6482H73.9179V19.0743L68.3791 29.1665H65.5362L59.9984 19.0743V33.6482H56.9685V14.6324ZM86.4419 21.7225C84.2689 21.7225 82.9602 23.379 82.647 25.4304H90.0218C89.8698 23.3173 88.6665 21.7225 86.4419 21.7225ZM79.6429 26.5989C79.6429 22.2827 82.3968 19.1413 86.4946 19.1413C90.5252 19.1413 92.9318 22.2429 92.9318 26.8293V27.6722H82.647C83.0119 29.9037 84.4736 31.4073 86.8306 31.4073C88.711 31.4073 89.8863 30.8262 91.0007 29.7633L92.6103 31.7602C91.0938 33.1728 89.1648 33.9874 86.7231 33.9874C82.2872 33.9874 79.6429 30.711 79.6429 26.5989ZM96.6058 21.9947H93.8167V19.4817H96.6058V15.3256H99.5292V19.4817H103.767V21.9947H99.5292V28.3644C99.5292 30.5393 100.216 31.312 101.903 31.312C102.673 31.312 103.114 31.245 103.767 31.1351V33.6209C102.954 33.8534 102.179 33.9602 101.339 33.9602C98.1833 33.9602 96.6058 32.2136 96.6058 28.7173V21.9947ZM116.077 24.4387C115.489 22.9372 114.18 21.8314 112.255 21.8314C109.753 21.8314 108.152 23.6293 108.152 26.5581C108.152 29.4136 109.626 31.2984 112.135 31.2984C114.107 31.2984 115.515 30.1361 116.077 28.69V24.4387ZM119 33.6482H116.13V31.6649C115.328 32.8324 113.868 33.9874 111.504 33.9874C107.702 33.9874 105.161 30.7633 105.161 26.5581C105.161 22.3131 107.763 19.1413 111.665 19.1413C113.594 19.1413 115.108 19.9225 116.13 21.3016V19.4817H119V33.6482Z" fill="#fff"/>
</g>
<defs>
<linearGradient id="paint0_linear_29_934" x1="27.3059" y1="26.2513" x2="47.7756" y2="27.2719" gradientUnits="userSpaceOnUse">
<stop stop-color="#0064E1"/>
<stop offset="0.4" stop-color="#0064E1"/>
<stop offset="0.83" stop-color="#0073EE"/>
<stop offset="1" stop-color="#0082FB"/>
</linearGradient>
<linearGradient id="paint1_linear_29_934" x1="25.6519" y1="28.555" x2="25.6519" y2="20.911" gradientUnits="userSpaceOnUse">
<stop stop-color="#0082FB"/>
<stop offset="1" stop-color="#0064E0"/>
</linearGradient>
<clipPath id="clip0_29_934">
<rect width="98" height="20" fill="white" transform="translate(21 14)"/>
</clipPath>
</defs>
</svg>
