<svg width="140" height="48" viewBox="0 0 140 48" fill="none" xmlns="http://www.w3.org/2000/svg">
<path d="M30.7079 17.9417L21.6282 12.6917C21.5641 12.6549 21.4914 12.6356 21.4174 12.6359C21.3434 12.6361 21.2707 12.6559 21.2069 12.6931C21.143 12.7304 21.0903 12.7838 21.0539 12.848C21.0176 12.9122 20.999 12.9847 21 13.0584V27.6667C21 27.8167 21.0838 27.95 21.2094 28.025L24.6018 30.0084C24.6652 30.0448 24.7372 30.0641 24.8105 30.0642C24.8838 30.0643 24.9559 30.0453 25.0195 30.009C25.0831 29.9727 25.136 29.9205 25.1729 29.8575C25.2098 29.7945 25.2295 29.723 25.23 29.65V20.1167C25.2304 20.0877 25.2385 20.0593 25.2534 20.0343C25.2683 20.0093 25.2895 19.9887 25.3149 19.9744C25.3403 19.9601 25.369 19.9526 25.3981 19.9527C25.4273 19.9528 25.456 19.9605 25.4812 19.975L30.7163 22.9584C30.9717 23.1034 31.2609 23.179 31.555 23.1775C31.8491 23.176 32.1376 23.0976 32.3915 22.95L37.5009 19.975C37.5262 19.9605 37.5548 19.9528 37.584 19.9527C37.6132 19.9526 37.6419 19.9601 37.6673 19.9744C37.6927 19.9887 37.7138 20.0093 37.7287 20.0343C37.7436 20.0593 37.7517 20.0877 37.7522 20.1167V24.7834C37.7516 24.9258 37.7143 25.0657 37.6439 25.1897C37.5735 25.3137 37.4724 25.4177 37.3501 25.4917L32.09 28.7084C32.0282 28.7458 31.9773 28.7984 31.942 28.8612C31.9068 28.924 31.8885 28.9948 31.8889 29.0667V33.7667C31.8889 33.9167 31.9643 34.05 32.0816 34.125L38.9751 38.4584C39.2379 38.6231 39.5416 38.7119 39.8522 38.7149C40.1628 38.7178 40.4681 38.6348 40.7341 38.475L49.4954 33.3084C49.7467 33.1601 49.9547 32.9491 50.0987 32.6962C50.2427 32.4433 50.3177 32.1574 50.3163 31.8667V22.8584C50.3167 22.7842 50.2972 22.7113 50.2599 22.6471C50.2225 22.5829 50.1686 22.5298 50.1037 22.4933C50.0388 22.4568 49.9653 22.4381 49.8908 22.4393C49.8162 22.4405 49.7434 22.4615 49.6797 22.5L46.9072 24.1667C46.6611 24.3138 46.4572 24.5213 46.3149 24.7694C46.1726 25.0175 46.0968 25.2978 46.0947 25.5834V30.1084C46.0943 30.1811 46.0747 30.2524 46.038 30.3153C46.0013 30.3782 45.9486 30.4304 45.8853 30.4667L40.7006 33.5084C40.4412 33.6597 40.1457 33.7387 39.845 33.7373C39.5444 33.7358 39.2497 33.6539 38.9918 33.5L36.2026 31.8334C36.1429 31.797 36.0933 31.7463 36.0584 31.686C36.0234 31.6256 36.0042 31.5575 36.0026 31.4879C36.0009 31.4183 36.0168 31.3494 36.0488 31.2874C36.0808 31.2255 36.128 31.1725 36.1859 31.1334L41.2282 27.825C41.4599 27.6733 41.65 27.4667 41.7816 27.2238C41.9131 26.9809 41.982 26.7093 41.9821 26.4334V13.0584C41.9817 12.9855 41.962 12.9139 41.925 12.8509C41.8881 12.7879 41.8352 12.7357 41.7716 12.6994C41.708 12.6631 41.636 12.6441 41.5627 12.6442C41.4894 12.6443 41.4174 12.6636 41.3539 12.7L32.3915 17.9417C32.1358 18.0895 31.8454 18.1674 31.5497 18.1674C31.254 18.1674 30.9636 18.0895 30.7079 17.9417Z" fill="#007FFF"/>
<path d="M50.3162 13.4667V16.3167C50.3168 16.5999 50.2448 16.8786 50.107 17.1265C49.9693 17.3743 49.7703 17.5832 49.5289 17.7333L46.7648 19.4417C46.7011 19.4802 46.6282 19.5012 46.5537 19.5024C46.4791 19.5036 46.4056 19.4849 46.3407 19.4484C46.2759 19.4119 46.222 19.3588 46.1846 19.2946C46.1472 19.2304 46.1277 19.1575 46.1282 19.0833V16.1C46.1285 15.8077 46.206 15.5207 46.353 15.2676C46.5001 15.0146 46.7114 14.8045 46.9658 14.6583L49.688 13.1083C49.7515 13.0719 49.8235 13.0526 49.8968 13.0525C49.9701 13.0524 50.0421 13.0714 50.1057 13.1077C50.1693 13.144 50.2222 13.1962 50.2592 13.2592C50.2961 13.3222 50.3158 13.3937 50.3162 13.4667Z" fill="#007FFF"/>
<path d="M63.1986 31.0833V15.9166H66.9678L73.3001 24.6666L70.5193 24.65L76.8684 15.9166H80.5873V31.0833H76.4495V26.9C76.4495 25.6583 76.4747 24.5166 76.5333 23.4833C76.5919 22.425 76.7092 21.3583 76.8851 20.2916L77.3207 21.6333L72.5966 27.7H71.1559L66.4485 21.575L66.9343 20.2916C67.1019 21.3333 67.2191 22.375 67.2778 23.4166C67.3364 24.45 67.3615 25.6166 67.3615 26.9V31.0833H63.207H63.1986ZM92.4143 31.2166C90.9318 31.2166 89.6167 30.925 88.4776 30.35C87.3824 29.8085 86.4601 28.9747 85.814 27.9416C85.1838 26.8864 84.8618 25.6772 84.8842 24.45V15.9166H89.2398V24.325C89.2398 24.9583 89.3738 25.5166 89.6502 25.9916C89.9266 26.4666 90.3036 26.8333 90.781 27.1C91.2839 27.3635 91.846 27.4954 92.4143 27.4833C93.0509 27.4833 93.6205 27.3583 94.1147 27.1C94.6172 26.8333 95.0109 26.4666 95.2873 25.9916C95.5805 25.5166 95.7229 24.9583 95.7229 24.325V15.9166H99.9528V24.45C99.9719 25.6711 99.644 26.8727 99.0068 27.9165C98.3696 28.9603 97.449 29.8038 96.3511 30.35C95.2371 30.925 93.922 31.2166 92.4143 31.2166ZM104.484 31.0833V27.4833H107.994V19.5166H104.484V15.9166H115.792V19.5166H112.299V27.4833H115.784V31.0833H104.476H104.484Z" fill="black"/>
</svg>
