<?xml version="1.0" standalone="no"?>
<!DOCTYPE svg PUBLIC "-//W3C//DTD SVG 20010904//EN"
 "http://www.w3.org/TR/2001/REC-SVG-20010904/DTD/svg10.dtd">
<svg version="1.0" xmlns="http://www.w3.org/2000/svg"
 width="900.000000pt" height="400.000000pt" viewBox="0 0 900.000000 400.000000"
 preserveAspectRatio="xMidYMid meet">
<metadata>
Created by potrace 1.16, written by Peter Selinger 2001-2019
</metadata>
<g transform="translate(0.000000,400.000000) scale(0.100000,-0.100000)"
fill="#ffffff" stroke="none">
<circle cx="2050" cy="2050" r="1280"/>
</g>
<g transform="translate(0.000000,400.000000) scale(0.100000,-0.100000)"
fill="#000000" stroke="none">
<path d="M2050 3394 c-483 -61 -880 -336 -1095 -755 -424 -828 64 -1823 982
-2006 122 -24 394 -24 516 0 566 113 1001 548 1114 1114 24 122 24 394 0 516
-113 563 -551 1003 -1109 1112 -81 16 -337 28 -408 19z m330 -109 c187 -28
360 -92 509 -189 54 -34 81 -46 110 -46 53 0 87 -30 105 -91 11 -34 32 -69 67
-107 29 -31 77 -94 106 -140 392 -598 225 -1395 -375 -1789 -596 -392 -1394
-226 -1789 375 -392 595 -225 1394 375 1789 262 173 586 245 892 198z"/>
<path d="M2962 3004 c-13 -9 -47 -67 -76 -129 -41 -85 -61 -117 -84 -130 -48
-29 -65 -70 -60 -145 3 -42 0 -73 -9 -90 -16 -31 -16 -55 -2 -82 9 -17 6 -25
-17 -49 -15 -16 -32 -28 -38 -26 -5 2 -15 28 -23 57 -33 131 -130 285 -225
358 -183 139 -381 158 -579 55 -185 -96 -300 -274 -303 -469 -1 -45 -5 -73
-11 -70 -5 2 -48 20 -95 39 -99 41 -159 52 -235 42 -52 -6 -119 -40 -119 -60
0 -5 20 -20 45 -32 93 -44 102 -112 31 -253 -51 -102 -55 -153 -16 -199 33
-40 54 -51 134 -70 71 -18 67 -11 54 -98 -6 -35 -3 -45 18 -66 13 -13 46 -32
72 -42 47 -18 51 -18 110 -1 34 10 86 18 117 17 31 -1 68 3 83 8 14 6 26 8 26
4 0 -3 -21 -46 -47 -96 -38 -71 -55 -93 -80 -104 -39 -16 -57 -46 -49 -84 5
-26 1 -30 -48 -52 -76 -35 -98 -74 -94 -169 l3 -72 39 -22 c92 -52 303 -52
406 -1 l45 22 3 68 c2 55 -1 76 -18 104 l-21 36 21 22 c24 25 27 77 5 95 -13
11 -8 25 37 109 28 53 66 120 85 149 l33 52 79 0 78 0 45 -48 c70 -74 95 -120
103 -184 5 -44 3 -63 -9 -80 -19 -27 -20 -58 -3 -82 11 -15 10 -25 -10 -64
-15 -29 -23 -63 -23 -94 0 -43 3 -50 31 -67 84 -51 436 -68 509 -25 l35 21 -3
68 c-1 38 -10 84 -19 102 -21 44 -84 81 -155 89 -42 5 -55 10 -51 20 10 25 -7
65 -33 76 -26 12 -27 15 -45 126 -10 69 -15 78 -80 159 l-70 86 55 48 c29 27
68 70 85 97 34 53 71 151 71 188 0 18 11 29 43 45 59 30 122 83 169 143 22 28
53 56 69 63 16 7 37 26 47 42 9 17 29 36 45 42 32 14 67 58 67 86 0 11 9 28
20 38 27 25 40 77 29 118 -8 31 -95 117 -118 117 -20 0 -19 18 5 84 13 37 24
80 24 95 0 58 -64 97 -108 65z m58 -49 c9 -11 7 -27 -10 -79 -31 -95 -59 -132
-96 -128 -16 2 -30 5 -31 6 -2 1 9 27 23 57 15 30 37 78 50 107 23 53 42 64
64 37z m-775 -150 c22 -9 42 -19 44 -20 5 -6 -51 -145 -59 -145 -4 0 -21 7
-39 16 -90 45 -166 17 -215 -80 -26 -49 -31 -72 -34 -149 -4 -95 13 -197 43
-261 15 -31 14 -35 -31 -131 l-46 -100 -25 30 c-77 95 -136 248 -148 380 -19
229 82 413 258 471 55 18 198 12 252 -11z m793 -97 c13 -13 16 -47 6 -72 -9
-22 -34 -20 -34 3 0 10 -9 30 -20 43 -10 14 -16 28 -13 32 11 10 48 7 61 -6z
m-105 -29 c27 -22 37 -38 37 -60 0 -16 -6 -30 -12 -30 -30 -3 -54 4 -78 23
-24 19 -25 19 -29 2 -2 -11 9 -29 28 -46 33 -30 38 -47 19 -66 -16 -16 -4 -25
21 -17 12 3 24 17 27 31 7 29 15 30 38 5 10 -11 31 -23 47 -26 35 -8 36 -16 8
-41 -15 -13 -37 -19 -73 -20 -59 -1 -72 -13 -33 -32 23 -11 26 -16 16 -28 -15
-18 -43 -18 -82 2 -94 48 -137 145 -49 112 38 -15 54 -3 24 18 -53 37 -70 138
-30 181 31 33 75 30 121 -8z m-383 -155 c48 -97 70 -200 70 -329 0 -114 -14
-182 -50 -255 -54 -106 -142 -170 -258 -189 -90 -14 -260 14 -249 43 54 135
61 147 82 141 11 -4 47 -9 80 -12 54 -4 65 -1 107 26 33 21 55 46 75 83 24 47
28 66 30 168 3 106 1 122 -25 199 l-29 85 40 88 41 88 23 -28 c13 -15 41 -64
63 -108z m570 90 c0 -30 -21 -64 -44 -70 -47 -12 -90 17 -46 31 29 9 60 45 60
69 1 21 1 21 15 2 8 -11 15 -25 15 -32z m-1430 -10 c-31 -63 -50 -152 -50
-235 0 -70 -2 -77 -21 -82 -21 -6 -22 -4 -17 91 5 102 19 146 72 231 33 52 43
50 16 -5z m405 -73 c73 -33 73 -34 5 -182 -33 -73 -63 -135 -65 -138 -8 -8
-24 47 -34 118 -9 66 0 188 15 212 8 14 35 10 79 -10z m712 -181 c14 -11 32
-20 39 -20 21 0 17 -18 -13 -56 -25 -34 -127 -114 -145 -114 -4 0 -8 28 -8 63
1 62 1 62 45 95 25 18 45 37 45 42 0 15 9 12 37 -10z m-483 -109 c9 -30 16
-75 16 -101 0 -56 -35 -130 -70 -148 -25 -13 -87 -8 -103 8 -5 4 22 76 59 159
38 83 71 147 75 143 4 -4 14 -31 23 -61z m-639 -46 c44 -43 36 -56 -65 -117
-63 -39 -78 -44 -97 -35 -54 24 -37 -17 36 -88 28 -27 51 -55 51 -61 0 -19
-41 -64 -58 -64 -26 0 -118 85 -148 135 -23 40 -24 47 -12 72 17 36 118 116
192 153 33 17 63 30 68 30 5 0 20 -11 33 -25z m-13 -272 c13 -11 18 -30 18
-65 0 -26 4 -48 8 -48 10 0 32 45 32 65 0 20 16 19 66 -4 54 -25 78 -72 63
-126 l-11 -39 -18 23 c-17 24 -35 16 -25 -11 18 -45 -51 -108 -117 -108 -50 0
-66 8 -84 41 -16 33 -13 35 19 15 21 -14 47 -20 75 -17 24 2 11 19 -27 34 -46
19 -57 33 -41 52 14 17 11 18 -43 15 -37 -2 -67 13 -67 32 0 5 9 7 20 3 51
-16 117 59 107 122 -6 37 -2 40 25 16z m307 -217 c56 -29 56 -34 -16 -160
l-67 -117 -34 6 c-42 8 -84 34 -80 49 2 7 32 62 68 124 69 118 77 124 129 98z
m515 -101 c36 -43 66 -85 66 -92 0 -17 -53 -43 -88 -43 -25 0 -39 12 -88 73
-32 39 -63 75 -68 79 -6 4 -8 9 -6 12 15 14 97 56 106 54 7 -2 42 -39 78 -83z
m79 -212 c7 -69 2 -74 -73 -71 l-55 3 -3 53 c-3 50 -2 52 20 48 13 -3 39 1 58
8 19 8 38 14 41 15 3 0 9 -25 12 -56z m-711 -3 c18 0 18 -2 -2 -40 -19 -36
-24 -40 -60 -40 -50 0 -90 15 -90 35 0 9 10 33 22 53 l21 38 45 -23 c25 -13
54 -23 64 -23z m688 -346 c117 -15 205 -14 288 2 25 5 32 3 32 -9 0 -38 -185
-46 -380 -19 -79 12 -100 20 -100 39 0 9 6 12 18 9 9 -3 73 -13 142 -22z
m-1016 -9 c30 -9 90 -15 156 -15 66 0 126 6 156 15 27 8 50 15 52 15 1 0 2 -7
2 -16 0 -33 -67 -49 -210 -49 -143 0 -210 16 -210 49 0 9 1 16 3 16 1 0 24 -7
51 -15z"/>
<path d="M7683 2666 c-148 -48 -246 -172 -278 -353 -20 -111 -20 -525 0 -629
40 -209 158 -335 345 -365 84 -14 194 -2 266 30 62 28 146 111 177 175 57 116
62 155 62 471 0 313 -4 348 -55 462 -38 83 -98 146 -179 185 -61 30 -75 33
-181 35 -77 2 -129 -2 -157 -11z m235 -212 c40 -29 74 -104 79 -177 l5 -63
-176 -132 -176 -132 0 177 c0 98 5 194 10 214 15 53 51 102 90 122 45 23 130
18 168 -9z m72 -789 c-22 -101 -73 -145 -168 -145 -51 0 -66 4 -92 26 -44 37
-72 98 -78 170 l-5 62 174 129 174 129 3 -161 c1 -88 -2 -182 -8 -210z"/>
<path d="M4455 2327 c-64 -22 -105 -46 -157 -94 l-48 -46 0 35 c0 20 -3 50 -6
67 l-6 31 -114 0 -114 0 0 -495 0 -495 125 0 125 0 0 350 0 350 36 39 c42 47
88 64 166 64 79 -1 127 -26 156 -83 22 -43 22 -52 22 -382 l0 -338 130 0 130
0 0 288 c-1 158 -5 330 -9 383 -15 162 -74 260 -186 310 -61 28 -190 35 -250
16z"/>
<path d="M5441 2324 c-156 -42 -273 -164 -316 -331 -20 -77 -20 -257 1 -336
48 -187 181 -310 367 -339 145 -22 302 21 400 111 90 84 147 236 147 396 0
317 -186 517 -478 514 -37 0 -91 -7 -121 -15z m228 -212 c87 -40 137 -208 112
-372 -26 -165 -121 -248 -251 -219 -62 14 -104 49 -137 116 -26 55 -28 65 -28
188 0 115 3 136 24 183 26 58 77 109 119 118 15 3 32 7 37 9 18 7 89 -7 124
-23z"/>
<path d="M6573 2325 c-170 -46 -293 -185 -323 -367 -26 -154 0 -333 64 -443
139 -237 522 -274 718 -69 46 48 88 137 88 187 l0 37 -120 0 c-118 0 -120 0
-120 -22 0 -69 -86 -131 -181 -131 -63 1 -89 12 -136 56 -50 47 -68 112 -68
247 0 140 14 195 67 254 32 37 48 47 91 55 60 12 117 2 156 -27 38 -28 71 -81
71 -113 l0 -29 121 0 122 0 -6 57 c-8 75 -57 173 -110 218 -107 92 -288 129
-434 90z"/>
</g>
</svg>
