<?xml version="1.0" standalone="no"?>
<!DOCTYPE svg PUBLIC "-//W3C//DTD SVG 20010904//EN"
 "http://www.w3.org/TR/2001/REC-SVG-20010904/DTD/svg10.dtd">
<svg version="1.0" xmlns="http://www.w3.org/2000/svg"
 width="900.000000pt" height="400.000000pt" viewBox="0 0 900.000000 400.000000"
 preserveAspectRatio="xMidYMid meet">
<metadata>
Created by potrace 1.16, written by Peter Selinger 2001-2019
</metadata>
<g transform="translate(0.000000,400.000000) scale(0.100000,-0.100000)"
fill="#ffffff" stroke="none">
<path d="M1991 3334 c-203 -32 -430 -127 -592 -248 -161 -122 -322 -312 -407
-482 -43 -86 -98 -250 -119 -352 -24 -120 -24 -384 0 -504 21 -102 76 -266
119 -352 120 -240 351 -474 589 -595 325 -166 698 -195 1040 -81 206 68 351
155 505 303 165 158 273 322 345 528 58 164 73 257 73 449 0 189 -14 282 -70
442 -69 201 -163 348 -323 509 -169 168 -310 256 -530 329 -201 67 -422 86
-630 54z m1062 -346 c23 -28 22 -65 -7 -144 -24 -66 -25 -84 -5 -84 23 0 110
-86 118 -117 11 -41 -2 -93 -29 -118 -11 -10 -20 -27 -20 -38 0 -28 -35 -72
-67 -86 -16 -6 -36 -25 -45 -42 -10 -16 -31 -35 -47 -42 -16 -7 -47 -35 -69
-63 -47 -60 -110 -113 -169 -143 -32 -16 -43 -27 -43 -45 0 -37 -37 -135 -71
-188 -17 -27 -56 -70 -85 -97 l-55 -48 70 -86 c65 -81 70 -90 80 -159 18 -111
19 -114 45 -126 26 -11 43 -51 33 -76 -4 -10 9 -15 51 -20 71 -8 134 -45 155
-89 9 -18 18 -64 19 -102 l3 -68 -35 -21 c-73 -43 -425 -26 -509 25 -28 17
-31 24 -31 67 0 31 8 65 23 94 20 39 21 49 10 64 -17 24 -16 55 3 82 12 17 14
36 9 80 -8 64 -33 110 -103 184 l-45 48 -78 0 -79 0 -33 -52 c-19 -29 -57 -96
-85 -149 -45 -84 -50 -98 -37 -109 22 -18 19 -70 -5 -95 l-21 -22 21 -36 c17
-28 20 -49 18 -104 l-3 -68 -45 -22 c-103 -51 -314 -51 -406 1 l-39 22 -3 72
c-4 95 18 134 94 169 49 22 53 26 48 52 -8 38 10 68 49 84 25 11 42 33 80 104
26 50 47 93 47 96 0 4 -12 2 -26 -4 -15 -5 -52 -9 -83 -8 -31 1 -83 -7 -117
-17 -59 -17 -63 -17 -110 1 -26 10 -59 29 -72 42 -21 21 -24 31 -18 66 13 87
17 80 -54 98 -80 19 -101 30 -134 70 -39 46 -35 97 16 199 71 141 62 209 -31
253 -25 12 -45 27 -45 32 0 20 67 54 119 60 76 10 136 -1 235 -42 47 -19 90
-37 95 -39 6 -3 10 25 11 70 3 195 118 373 303 469 198 103 396 84 579 -55 95
-73 192 -227 225 -358 8 -29 18 -55 23 -57 6 -2 23 10 38 26 23 24 26 32 17
49 -14 27 -14 51 2 82 9 17 12 48 9 90 -5 75 12 116 60 145 23 13 43 45 84
130 29 62 63 120 76 129 28 20 66 13 91 -16z"/>
<path d="M2956 2918 c-13 -29 -35 -77 -50 -107 -14 -30 -25 -56 -23 -57 1 -1
15 -4 31 -6 37 -4 65 33 96 128 17 52 19 68 10 79 -22 27 -41 16 -64 -37z"/>
<path d="M1993 2816 c-176 -58 -277 -242 -258 -471 12 -132 71 -285 148 -380
l25 -30 46 100 c45 96 46 100 31 131 -30 64 -47 166 -43 261 3 77 8 100 34
149 49 97 125 125 215 80 18 -9 35 -16 39 -16 8 0 64 139 59 145 -39 35 -223
55 -296 31z"/>
<path d="M2977 2714 c-3 -4 3 -18 13 -32 11 -13 20 -33 20 -43 0 -23 25 -25
34 -3 10 25 7 59 -6 72 -13 13 -50 16 -61 6z"/>
<path d="M2812 2687 c-40 -43 -23 -144 30 -181 30 -21 14 -33 -24 -18 -88 33
-45 -64 49 -112 39 -20 67 -20 82 -2 10 12 7 17 -16 28 -39 19 -26 31 33 32
36 1 58 7 73 20 28 25 27 33 -8 41 -16 3 -37 15 -47 26 -23 25 -31 24 -38 -5
-3 -14 -15 -28 -27 -31 -25 -8 -37 1 -21 17 19 19 14 36 -19 66 -19 17 -30 35
-28 46 4 17 5 17 29 -2 24 -19 48 -26 78 -23 6 0 12 14 12 30 0 22 -10 38 -37
60 -46 38 -90 41 -121 8z"/>
<path d="M2423 2572 l-40 -88 29 -85 c26 -77 28 -93 25 -199 -2 -102 -6 -121
-30 -168 -20 -37 -42 -62 -75 -83 -42 -27 -53 -30 -107 -26 -33 3 -69 8 -80
12 -21 6 -28 -6 -82 -141 -11 -29 159 -57 249 -43 150 24 263 137 297 297 15
74 14 226 -4 317 -15 80 -76 217 -118 267 l-23 28 -41 -88z"/>
<path d="M3090 2644 c0 -24 -31 -60 -60 -69 -26 -8 -26 -22 1 -30 63 -20 114
49 74 101 -14 19 -14 19 -15 -2z"/>
<path d="M1674 2609 c-53 -85 -67 -129 -72 -231 -5 -95 -4 -97 17 -91 19 5 21
12 21 82 0 83 19 172 50 235 27 55 17 57 -16 5z"/>
<path d="M2016 2541 c-15 -24 -24 -146 -15 -212 10 -71 26 -126 34 -118 2 3
32 65 65 138 68 148 68 149 -5 182 -44 20 -71 24 -79 10z"/>
<path d="M2770 2360 c0 -5 -20 -24 -45 -42 -44 -33 -44 -33 -45 -95 0 -35 4
-63 8 -63 18 0 120 80 145 114 30 38 34 56 13 56 -7 0 -25 9 -39 20 -28 22
-37 25 -37 10z"/>
<path d="M2226 2159 c-37 -83 -64 -155 -59 -159 16 -16 78 -21 103 -8 35 18
70 92 70 148 0 45 -25 147 -39 162 -4 4 -37 -60 -75 -143z"/>
<path d="M1584 2190 c-74 -37 -175 -117 -192 -153 -12 -25 -11 -32 12 -72 30
-50 122 -135 148 -135 17 0 58 45 58 64 0 6 -23 34 -51 61 -73 71 -90 112 -36
88 19 -9 34 -4 97 35 77 46 90 57 90 80 0 14 -44 62 -58 62 -5 0 -35 -13 -68
-30z"/>
<path d="M1647 1907 c10 -63 -56 -138 -107 -122 -11 4 -20 2 -20 -3 0 -19 30
-34 67 -32 54 3 57 2 43 -15 -16 -19 -5 -33 41 -52 38 -15 51 -32 27 -34 -28
-3 -54 3 -75 17 -32 20 -35 18 -19 -15 18 -33 34 -41 84 -41 66 0 135 63 117
108 -10 27 8 35 25 11 l18 -23 11 39 c15 54 -9 101 -63 126 -50 23 -66 24 -66
4 0 -20 -22 -65 -32 -65 -4 0 -8 22 -8 48 0 35 -5 54 -18 65 -27 24 -31 21
-25 -16z"/>
<path d="M1850 1608 c-36 -62 -66 -117 -68 -124 -4 -15 38 -41 80 -49 l34 -6
67 117 c72 126 72 131 16 160 -52 26 -60 20 -129 -98z"/>
<path d="M2360 1664 c-55 -31 -57 -33 -44 -42 5 -4 36 -40 68 -79 49 -61 63
-73 88 -73 35 0 88 26 88 43 0 16 -128 171 -144 175 -6 1 -31 -10 -56 -24z"/>
<path d="M2520 1434 c-19 -7 -45 -11 -58 -8 -22 4 -23 2 -20 -48 l3 -53 55 -3
c75 -3 80 2 73 71 -3 31 -9 56 -12 56 -3 -1 -22 -7 -41 -15z"/>
<path d="M1732 1398 c-12 -20 -22 -44 -22 -53 0 -20 40 -35 90 -35 36 0 41 4
60 40 20 38 20 40 2 40 -10 0 -39 10 -64 23 l-45 23 -21 -38z"/>
<path d="M2390 1057 c0 -19 21 -27 100 -39 195 -27 380 -19 380 19 0 12 -7 14
-32 9 -83 -16 -171 -17 -288 -2 -69 9 -133 19 -142 22 -12 3 -18 0 -18 -9z"/>
<path d="M1480 1034 c0 -33 67 -49 210 -49 143 0 210 16 210 49 0 9 -1 16 -2
16 -2 0 -25 -7 -52 -15 -30 -9 -90 -15 -156 -15 -66 0 -126 6 -156 15 -27 8
-50 15 -51 15 -2 0 -3 -7 -3 -16z"/>
<path d="M7720 2676 c-164 -35 -276 -158 -316 -346 -20 -94 -19 -569 1 -665
48 -225 201 -355 420 -355 222 0 371 127 420 356 11 50 15 139 15 327 0 283
-10 366 -58 467 -81 173 -277 261 -482 216z m178 -216 c35 -16 47 -29 67 -73
14 -30 28 -80 31 -113 l6 -59 -168 -125 c-92 -69 -171 -127 -176 -129 -6 -2
-9 70 -6 186 3 178 4 191 28 238 19 38 36 56 70 73 54 27 92 28 148 2z m100
-612 c-3 -171 -5 -186 -28 -233 -33 -66 -77 -95 -145 -95 -96 0 -158 71 -171
195 l-6 60 168 127 c93 69 173 127 178 127 4 1 7 -81 4 -181z"/>
<path d="M4423 2319 c-29 -11 -77 -42 -107 -69 -29 -27 -56 -47 -60 -43 -3 3
-6 22 -6 42 0 82 1 81 -126 81 l-114 0 0 -500 0 -500 130 0 130 0 0 358 0 358
28 27 c39 37 93 57 156 57 76 0 130 -24 158 -69 23 -35 23 -42 26 -383 l3
-348 129 0 130 0 0 328 c0 180 -5 356 -10 392 -22 140 -101 242 -212 275 -73
21 -191 19 -255 -6z"/>
<path d="M5409 2318 c-180 -63 -289 -223 -304 -445 -23 -332 169 -563 470
-563 226 0 399 135 450 352 20 84 19 254 -1 332 -36 139 -126 250 -251 309
-61 28 -78 31 -183 34 -100 3 -124 1 -181 -19z m244 -202 c41 -17 91 -73 108
-123 22 -60 19 -286 -4 -345 -22 -57 -83 -115 -132 -124 -106 -20 -180 17
-227 114 -32 64 -33 71 -33 187 0 118 1 122 35 190 27 55 44 75 75 92 47 26
128 31 178 9z"/>
<path d="M6548 2321 c-153 -49 -263 -175 -297 -339 -16 -77 -14 -257 4 -326
57 -219 221 -346 448 -346 215 0 398 139 420 318 l5 42 -124 0 c-120 0 -124
-1 -124 -21 0 -66 -87 -129 -178 -129 -142 0 -203 89 -205 295 -1 219 61 315
203 315 91 0 161 -53 178 -136 l8 -39 119 0 120 0 -4 50 c-10 150 -110 266
-272 316 -81 25 -222 25 -301 0z"/>
</g>
</svg>
