<svg width="140" height="48" viewBox="0 0 140 48" fill="none" xmlns="http://www.w3.org/2000/svg">
<path d="M44.92 12L38.92 18H19V24H32.92L26.92 30H19V36H20.92L26.92 30H46.84V24H32.92L38.92 18H46.84V12H44.92Z" fill="white"/>
<path d="M73.1462 17.9041V30.0001H76.3862V17.9041H73.1462Z" fill="white"/>
<path d="M73.103 16.3487H76.4078V13.0439H73.103V16.3487Z" fill="white"/>
<path fill-rule="evenodd" clip-rule="evenodd" d="M64.984 30.4535C68.4616 30.4535 71.032 27.9047 71.032 24.0383C71.032 20.2151 68.44 17.5367 64.984 17.5367C62.9104 17.5367 61.1824 18.5087 60.0376 20.3879V17.9039H56.7976V34.6439H60.0376V27.8399C61.0312 29.5031 62.8672 30.4535 64.984 30.4535ZM59.9296 24.1463V23.9303C59.9296 21.6407 61.4848 20.1071 63.8176 20.1071C66.172 20.1071 67.7056 21.6623 67.7056 23.9951C67.7056 26.3279 66.172 27.8831 63.8176 27.8831C61.5064 27.8831 59.9296 26.3927 59.9296 24.1463Z" fill="white"/>
<path d="M83.5881 30.0001L78.145 17.9041H81.8385L85.597 27.1489L89.3338 17.9041L92.9409 17.9257L87.4978 30.0001H83.5881Z" fill="white"/>
<path fill-rule="evenodd" clip-rule="evenodd" d="M100.597 30.4535C105.003 30.4535 107.833 27.8615 107.833 24.0167C107.833 20.1071 105.003 17.5367 100.597 17.5367C96.2123 17.5367 93.3611 20.1071 93.3611 24.0167C93.3611 27.8615 96.1907 30.4535 100.597 30.4535ZM96.6875 24.0167C96.6875 21.6407 98.2859 20.1287 100.597 20.1287C102.908 20.1287 104.507 21.6407 104.507 24.0167C104.507 26.3495 102.908 27.8399 100.597 27.8399C98.2859 27.8399 96.6875 26.3495 96.6875 24.0167Z" fill="white"/>
<path d="M116.845 30.4536C113.562 30.4536 111.424 28.6392 111.424 26.2632V20.388H108.81V17.904H111.488V16.0032L114.664 13.8V17.904H120.431V20.388H114.664V25.1832C114.664 26.8896 115.787 27.7752 117.839 27.7752C118.573 27.7752 119.675 27.6672 120.949 27.192L120.517 29.6976C119.329 30.1944 118.098 30.4536 116.845 30.4536Z" fill="white"/>
</svg>
