<svg width="140" height="48" viewBox="0 0 140 48" fill="none" xmlns="http://www.w3.org/2000/svg">
<path d="M83.1997 34.3564C84.1894 34.3564 85.0018 35.2028 85.0018 36.2993C85.0018 37.3959 84.1894 38.2423 83.1997 38.2423C82.6605 38.2423 82.2692 38.0436 82.0033 37.705V38.1392H81.0505V32.9875H82.0033V34.8937C82.2692 34.5551 82.6605 34.3564 83.1997 34.3564ZM83.0225 37.337C83.6133 37.337 84.0491 36.9176 84.0491 36.2993C84.0491 35.6811 83.6133 35.2616 83.0225 35.2616C82.439 35.2616 82.0033 35.6811 82.0033 36.2993C82.0033 36.9176 82.439 37.337 83.0225 37.337Z" fill="#FDFCFD"/>
<path d="M87.9373 34.4592H88.9565L87.6123 38.139C87.2283 39.1989 86.6005 39.6625 85.6626 39.611V38.7278C86.1869 38.7352 86.4527 38.5145 86.63 38.0213L85.116 34.4592H86.1574L87.1175 36.9321L87.9373 34.4592Z" fill="#FDFCFD"/>
<path d="M93.0657 38.2421C92.0096 38.2421 91.3154 37.7343 91.0347 36.9689L91.9061 36.4611C92.0909 36.9394 92.4527 37.2485 93.0953 37.2485C93.7082 37.2485 93.9224 36.991 93.9224 36.7039C93.9224 36.3212 93.5753 36.174 92.8072 35.9533C92.017 35.7251 91.2489 35.394 91.2489 34.4151C91.2489 33.4436 92.0613 32.8843 92.9475 32.8843C93.7969 32.8843 94.4468 33.3185 94.7939 34.0398L93.9372 34.5328C93.7526 34.1428 93.4719 33.8705 92.9475 33.8705C92.5192 33.8705 92.2681 34.0913 92.2681 34.3857C92.2681 34.7022 92.4675 34.8714 93.2503 35.1069C94.0702 35.3645 94.9416 35.6368 94.9416 36.6892C94.9416 37.6533 94.1661 38.2421 93.0657 38.2421Z" fill="#FDFCFD"/>
<path d="M96.5895 37.1678H98.7681V38.1392H95.5703V32.9875H98.7313V33.9589H96.5895V35.0555H98.5466V36.0123H96.5895V37.1678Z" fill="#FDFCFD"/>
<path d="M104.169 38.1392L103.128 36.3509H102.352V38.1392H101.333V32.9875H103.401C104.354 32.9875 105.122 33.7528 105.122 34.695C105.122 35.3425 104.716 35.9239 104.125 36.1963L105.269 38.1392H104.169ZM102.352 33.9369V35.4604H103.401C103.785 35.4604 104.103 35.1218 104.103 34.695C104.103 34.268 103.785 33.9369 103.401 33.9369H102.352Z" fill="#FDFCFD"/>
<path d="M108.444 34.4592H109.397V38.139H108.444V37.7048C108.178 38.036 107.78 38.2421 107.241 38.2421C106.258 38.2421 105.446 37.3957 105.446 36.2991C105.446 35.2026 106.258 34.3562 107.241 34.3562C107.78 34.3562 108.178 34.5623 108.444 34.8935V34.4592ZM107.418 37.3368C108.009 37.3368 108.444 36.9174 108.444 36.2991C108.444 35.6809 108.009 35.2615 107.418 35.2615C106.834 35.2615 106.399 35.6809 106.399 36.2991C106.399 36.9174 106.834 37.3368 107.418 37.3368Z" fill="#FDFCFD"/>
<path d="M112.314 34.3562C113.097 34.3562 113.71 34.9008 113.71 35.8796V38.139H112.757V35.9974C112.757 35.4969 112.455 35.2393 112.026 35.2393C111.561 35.2393 111.214 35.5117 111.214 36.152V38.139H110.261V34.4592H111.214V34.8714C111.435 34.5402 111.819 34.3562 112.314 34.3562Z" fill="#FDFCFD"/>
<path d="M117.928 38.1392H116.821L115.476 36.4686V38.1392H114.524V32.9875H115.476V36.0785L116.747 34.4594H117.884L116.4 36.2773L117.928 38.1392Z" fill="#FDFCFD"/>
<path d="M118.876 34.0178C118.559 34.0178 118.293 33.7528 118.293 33.4363C118.293 33.1199 118.559 32.8477 118.876 32.8477C119.201 32.8477 119.467 33.1199 119.467 33.4363C119.467 33.7528 119.201 34.0178 118.876 34.0178ZM118.404 38.1391V34.4593H119.357V38.1391H118.404Z" fill="#FDFCFD"/>
<path d="M122.282 34.3562C123.065 34.3562 123.678 34.9008 123.678 35.8796V38.139H122.725V35.9974C122.725 35.4969 122.422 35.2393 121.994 35.2393C121.528 35.2393 121.181 35.5117 121.181 36.152V38.139H120.229V34.4592H121.181V34.8714C121.403 34.5402 121.787 34.3562 122.282 34.3562Z" fill="#FDFCFD"/>
<path d="M127.32 34.4592H128.25V37.9624C128.25 39.1694 127.298 39.714 126.323 39.714C125.532 39.714 124.897 39.4122 124.572 38.8162L125.385 38.3525C125.54 38.6396 125.784 38.8677 126.352 38.8677C126.951 38.8677 127.32 38.5438 127.32 37.9624V37.5649C127.061 37.9109 126.662 38.1244 126.138 38.1244C125.089 38.1244 124.299 37.278 124.299 36.2402C124.299 35.21 125.089 34.3562 126.138 34.3562C126.662 34.3562 127.061 34.5697 127.32 34.9155V34.4592ZM126.286 37.2485C126.884 37.2485 127.32 36.829 127.32 36.2402C127.32 35.6588 126.884 35.2393 126.286 35.2393C125.688 35.2393 125.252 35.6588 125.252 36.2402C125.252 36.829 125.688 37.2485 126.286 37.2485Z" fill="#FDFCFD"/>
<path d="M13.687 36.3506C13.9828 35.8418 14.7928 34.4629 15.6011 33.0865C16.3499 31.8112 17.0713 30.5827 17.3066 30.1781C18.1512 28.7253 20.2389 28.7577 21.753 28.7813C21.9882 28.7849 22.2096 28.7883 22.4103 28.786L23.8377 28.7787L20.4041 34.6844C19.8267 35.6774 18.7699 36.2997 17.6155 36.3264L16.5674 36.3506H13.687Z" fill="#FFBC97"/>
<path d="M29.6346 27.1406L31.6158 23.7964L27.8926 23.8145H27.8922H25.1289C20.7063 23.8145 19.2847 26.5116 18.3414 28.3013C18.2142 28.5426 18.0957 28.7674 17.9798 28.9669C17.6039 29.6422 17.3064 30.1781 17.3064 30.1781C18.1511 28.7254 20.2388 28.7577 21.7529 28.7813C21.988 28.7849 22.2094 28.7883 22.4101 28.7859L23.8375 28.7787L26.8034 28.7603C27.9685 28.753 29.0439 28.1379 29.6346 27.1406Z" fill="#FF9052"/>
<path d="M12.4418 10.1089C12.7376 10.6176 13.5351 12.0037 14.3314 13.387C15.0691 14.6687 15.7798 15.9032 16.015 16.3079C16.8597 17.7607 15.7876 19.5399 15.01 20.8302C14.8893 21.0306 14.7756 21.2193 14.6773 21.3931L13.9699 22.6243L10.5363 16.7186C9.95897 15.7255 9.94469 14.5055 10.4986 13.4995L11.0016 12.586L12.4418 10.1089Z" fill="#93E1C1"/>
<path d="M17.1343 18.1366C16.9875 17.9066 16.8507 17.6923 16.7347 17.4928C16.3336 16.8319 16.015 16.3081 16.015 16.3081C16.8597 17.7609 15.7876 19.5401 15.01 20.8305C14.8892 21.0309 14.7756 21.2195 14.6773 21.3933L13.9699 22.6245L12.5028 25.1841C11.9266 26.1897 11.9254 27.422 12.4997 28.4287L14.4257 31.8046L16.2716 28.5937L17.6535 26.2172C19.8648 22.4138 18.2917 19.9496 17.1343 18.1366Z" fill="#21CC99"/>
<path d="M36.1071 22.0698C35.5154 22.0698 33.908 22.0626 32.3035 22.0557C30.8169 22.0494 29.3847 22.0432 28.9142 22.0432C27.2249 22.0432 26.2093 20.2316 25.4728 18.9177C25.3584 18.7137 25.2507 18.5216 25.1483 18.3502L24.4282 17.1262L31.2954 17.1262C32.4501 17.1262 33.5212 17.724 34.1217 18.7034L34.6668 19.5926L36.1071 22.0698Z" fill="#B3B3FE"/>
<path d="M20.1015 12.9601L16.1943 12.9285L18.0717 16.1214L19.4534 18.4981C21.7093 22.3668 24.7435 22.0436 26.7642 22.0568C27.0534 22.0587 27.3 22.0568 27.532 22.0568C28.3089 22.0424 28.9144 22.0436 28.9144 22.0436C27.2251 22.0436 26.2095 20.2319 25.473 18.9181C25.3586 18.714 25.2508 18.5219 25.1485 18.3505L24.4284 17.1266L22.9296 14.5851C22.3407 13.5868 21.2665 12.9695 20.1015 12.9601Z" fill="#8180FD"/>
<path fill-rule="evenodd" clip-rule="evenodd" d="M42.2288 17.2062H45.2747V18.3303C45.7483 17.6967 47.1065 16.9609 48.712 16.9609C52.2935 16.9609 54.3927 19.5975 54.3927 22.8269C54.3927 26.0561 52.2935 28.6926 48.712 28.6926C47.0654 28.6926 45.8513 28.0387 45.2747 27.2825V32.5567H42.2288V17.2062ZM48.2593 19.6589C46.345 19.6589 45.1515 20.8648 45.1515 22.8269C45.1515 24.6868 46.345 26.0153 48.2593 26.0153C50.2145 26.0153 51.3673 24.6664 51.3673 22.8269C51.3673 21.0487 50.1529 19.6589 48.2593 19.6589Z" fill="#FDFCFD"/>
<path d="M55.5842 28.4478H58.6716V13.1216H55.5842V28.4478Z" fill="#FDFCFD"/>
<path fill-rule="evenodd" clip-rule="evenodd" d="M71.9049 28.4474H68.8586V27.3233C68.3851 27.9568 67.0268 28.6926 65.4213 28.6926C61.8401 28.6926 59.741 26.0561 59.741 22.8269C59.741 19.5975 61.8401 16.9609 65.4213 16.9609C67.0679 16.9609 68.2824 17.615 68.8586 18.3712V17.2062H71.9049V28.4474ZM65.8743 25.9946C67.7883 25.9946 68.9822 24.7887 68.9822 22.8266C68.9822 20.9667 67.7883 19.6382 65.8743 19.6382C63.9188 19.6382 62.7663 20.9871 62.7663 22.8266C62.7663 24.6047 63.9808 25.9946 65.8743 25.9946Z" fill="#FDFCFD"/>
<path d="M79.6823 17.0017C78.674 17.0017 77.4183 17.4513 76.6569 18.2076V17.2061H73.5901V28.4473H76.6569V22.4997C76.5952 20.0471 77.974 19.5361 78.8181 19.5361C80.0117 19.5361 80.9997 20.0675 80.9997 21.8048V28.4473H84.1488V21.8048C84.1488 18.8821 82.9549 17.0017 79.6823 17.0017Z" fill="#FDFCFD"/>
<path fill-rule="evenodd" clip-rule="evenodd" d="M97.4489 28.4474H94.4029V27.3233C93.9295 27.9568 92.5711 28.6926 90.9656 28.6926C87.3845 28.6926 85.2849 26.0561 85.2849 22.8269C85.2849 19.5975 87.3845 16.9609 90.9656 16.9609C92.6122 16.9609 93.8267 17.615 94.4029 18.3712V17.2062H97.4489V28.4474ZM91.4186 25.9946C93.3326 25.9946 94.5263 24.7887 94.5263 22.8266C94.5263 20.9667 93.3326 19.6382 91.4186 19.6382C89.4631 19.6382 88.3106 20.9871 88.3106 22.8266C88.3106 24.6047 89.5249 25.9946 91.4186 25.9946Z" fill="#FDFCFD"/>
<path fill-rule="evenodd" clip-rule="evenodd" d="M102.201 27.3232V28.4474H99.155V13.1196H102.201V18.3712C102.778 17.6149 103.992 16.9609 105.639 16.9609C109.22 16.9609 111.319 19.5975 111.319 22.8268C111.319 26.056 109.22 28.6927 105.639 28.6927C104.033 28.6927 102.675 27.9569 102.201 27.3232ZM105.186 19.6381C103.272 19.6381 102.078 20.9667 102.078 22.8265C102.078 24.7886 103.272 25.9945 105.186 25.9945C107.079 25.9945 108.294 24.6048 108.294 22.8265C108.294 20.9871 107.141 19.6381 105.186 19.6381Z" fill="#FDFCFD"/>
<path d="M112.51 28.448H115.598V13.125H112.51V28.448Z" fill="#FDFCFD"/>
<path fill-rule="evenodd" clip-rule="evenodd" d="M128.111 26.1174C127.658 26.7305 126.135 28.7335 122.821 28.7335C120.619 28.7335 116.667 27.4867 116.667 22.8677C116.667 18.2485 120.701 17.0222 122.821 17.0222C125.723 17.0222 128.625 18.9843 128.728 22.6019C128.728 23.4604 128.666 24.0122 128.666 24.0122H119.734C120.104 25.8517 122.204 26.056 122.821 26.056C124.529 26.056 125.373 25.1364 125.723 24.748L128.111 26.1174ZM125.476 21.8455C125.353 20.8236 124.344 19.6994 122.8 19.6994C121.03 19.6994 119.94 20.7009 119.816 21.8455H125.476Z" fill="#FDFCFD"/>
</svg>
