<svg width="140" height="48" viewBox="0 0 140 48" fill="none" xmlns="http://www.w3.org/2000/svg">
<g clip-path="url(#clip0_29_929)">
<path d="M71.666 34.751H75.1259V25.1821C75.1259 22.8374 76.7752 21.0639 78.9744 21.0639C81.1736 21.0639 82.9841 22.8374 82.9841 25.1821V34.7464H86.7047V24.9314C86.7047 20.7807 83.2779 17.6467 79.5242 17.6467C78.1023 17.6467 76.4103 18.0832 75.1259 19.8196V18.0274H71.666V34.751Z" fill="#111111"/>
<path d="M106.748 17.6421C101.734 17.6421 97.8901 21.5374 97.8901 26.4496C97.8901 31.4871 101.739 35.1271 106.748 35.1271C111.891 35.1271 115.739 31.4824 115.739 26.4496C115.739 21.5421 111.891 17.6421 106.748 17.6421ZM106.748 31.6124C103.933 31.6124 101.606 29.3328 101.606 26.4496C101.606 23.4085 103.933 21.1614 106.748 21.1614C109.725 21.1614 112.019 23.4085 112.019 26.4496C112.019 29.3328 109.725 31.6124 106.748 31.6124Z" fill="#111111"/>
<path d="M97.2407 34.751V31.2364C94.6529 32.5039 92.2262 31.4917 92.2262 28.7014V21.4121H96.8521V18.0228H92.2262V13.7142H88.6384V28.0978C88.6431 33.9896 92.7476 36.0185 97.2407 34.751Z" fill="#111111"/>
<path d="M60.7365 17.6421C55.722 17.6421 51.8782 21.5374 51.8782 26.4496C51.8782 31.4871 55.7267 35.1271 60.7365 35.1271C65.8789 35.1271 69.7274 31.4824 69.7274 26.4496C69.7227 21.5421 65.8742 17.6421 60.7365 17.6421ZM60.7365 31.6124C57.8927 31.6124 55.594 29.3328 55.594 26.4496C55.594 23.4085 57.888 21.1614 60.7365 21.1614C63.6797 21.1614 66.0069 23.4085 66.0069 26.4496C66.0069 29.3328 63.675 31.6124 60.7365 31.6124Z" fill="#111111"/>
<path d="M37.7116 10.325C30.6591 10.325 25.2607 15.6178 25.2607 22.8096C25.2607 29.7135 30.6591 35.1317 37.7116 35.1317C44.9205 35.1317 50.3236 29.7135 50.3236 22.8096C50.3236 15.6178 44.9205 10.325 37.7116 10.325ZM37.7116 31.4871C32.8298 31.4871 29.2372 27.8425 29.2372 22.8096C29.2372 17.6467 32.8251 13.8442 37.7116 13.8442C42.726 13.8442 46.3471 17.6467 46.3471 22.8096C46.3423 27.8425 42.7213 31.4871 37.7116 31.4871Z" fill="#111111"/>
<path d="M49.7311 35.675C42.6881 34.9228 38.176 31.3896 35.9484 24.8757L39.4747 23.7196C41.2425 28.8871 44.5318 31.4546 50.1387 32.0535L49.7311 35.675Z" fill="#111111"/>
</g>
<defs>
<clipPath id="clip0_29_929">
<rect width="91" height="26" fill="white" transform="translate(25 10)"/>
</clipPath>
</defs>
</svg>
