<svg width="140" height="48" viewBox="0 0 140 48" fill="none" xmlns="http://www.w3.org/2000/svg">
<g clip-path="url(#clip0_884_1241)">
<path d="M44.4517 31.816C44.4517 31.9754 44.4917 32.0152 44.6318 32.0152H47.3136C47.4737 32.0152 47.5137 31.9754 47.5137 31.816V25.799H50.4557L53.4978 31.8359C53.5579 31.9754 53.6179 32.0152 53.738 32.0152H56.68C56.8201 32.0152 56.9001 31.9156 56.8201 31.7961L53.4778 25.4802C55.4992 24.9622 57.0002 23.3683 57.0002 20.9973C57.0002 18.0486 54.9588 16.116 52.0568 16.116H46.2929C45.0721 16.116 44.4517 16.7535 44.4517 17.949V31.816ZM47.5137 23.428V18.5467H51.6766C53.1976 18.5467 54.0782 19.6027 54.0782 20.9973C54.0782 22.4119 53.1976 23.428 51.5965 23.428H47.5137ZM61.5396 30.0627C60.3188 30.0627 59.7984 29.4849 59.7984 28.6481C59.7984 27.632 60.4789 26.9546 61.8999 26.9546C63.601 26.9546 64.7017 27.8511 64.7017 28.9669V30.0627H61.5396ZM65.7024 32.0152C66.6831 32.0152 67.3235 31.4374 67.3235 30.4612V24.4242C67.3235 21.9138 65.5423 20.4992 62.4202 20.4992C58.0972 20.4992 57.3568 23.4081 57.3568 24.1254C57.3568 24.2648 57.3968 24.3246 57.5369 24.3246H59.7784C59.9185 24.3246 59.9985 24.2648 60.0186 24.1254C60.1987 23.1292 60.9392 22.5315 62.2801 22.5315C63.9813 22.5315 64.6817 23.3483 64.6817 24.5836V26.1775C64.6817 26.1775 63.9813 25.1216 61.4395 25.1216C58.8178 25.1216 57.1566 26.5362 57.1566 28.6879C57.1566 30.9991 58.8578 32.0152 61.2194 32.0152H65.7024ZM71.2225 23.0694H73.5641C75.4053 23.0694 76.4661 24.3645 76.4661 26.4166C76.4661 28.4289 75.5454 29.7837 73.8643 29.7837C72.2232 29.7837 71.2225 28.6879 71.2225 26.576V23.0694ZM68.5407 35.8008C68.5407 35.9602 68.5807 36 68.7208 36H71.0624C71.2025 36 71.2625 35.9602 71.2625 35.8008V30.8397C71.2625 30.8397 72.0631 32.1547 74.3046 32.1547C77.1065 32.1547 79.1879 29.7837 79.1879 26.3369C79.1879 22.8901 76.8864 20.6785 73.6642 20.6785H70.1618C69.1811 20.6785 68.5407 21.2563 68.5407 22.2326V35.8008ZM80.0648 31.816C80.0648 31.9754 80.1048 32.0152 80.2449 32.0152H82.6866C82.8267 32.0152 82.8867 31.9754 82.8867 31.816V20.8778C82.8867 20.7383 82.8267 20.6785 82.6866 20.6785H80.2449C80.1048 20.6785 80.0648 20.7383 80.0648 20.8778V31.816ZM81.4658 16.3152C80.5852 16.3152 79.8447 16.9329 79.8447 17.8494C79.8447 18.7858 80.5852 19.3436 81.4658 19.3436C82.3864 19.3436 83.1069 18.7858 83.1069 17.8494C83.1069 16.9329 82.3864 16.3152 81.4658 16.3152ZM89.3875 29.6244C87.5462 29.6244 86.4655 28.3293 86.4655 26.2771C86.4655 24.2648 87.3861 22.91 89.0873 22.91C90.7084 22.91 91.7491 24.0058 91.7491 26.1377V29.6244H89.3875ZM92.7898 32.0152C93.7904 32.0152 94.4109 31.4374 94.4109 30.4612V16.3152C94.4109 16.1558 94.3709 16.116 94.2308 16.116H91.8892C91.7491 16.116 91.689 16.1558 91.689 16.3152V21.854C91.689 21.854 90.8885 20.5391 88.6269 20.5391C85.845 20.5391 83.7837 22.91 83.7837 26.3568C83.7837 29.8037 86.0652 32.0152 89.2874 32.0152H92.7898ZM99.7508 30.0627C98.53 30.0627 98.0096 29.4849 98.0096 28.6481C98.0096 27.632 98.6901 26.9546 100.111 26.9546C101.812 26.9546 102.913 27.8511 102.913 28.9669V30.0627H99.7508ZM103.914 32.0152C104.894 32.0152 105.535 31.4374 105.535 30.4612V24.4242C105.535 21.9138 103.754 20.4992 100.631 20.4992C96.3085 20.4992 95.568 23.4081 95.568 24.1254C95.568 24.2648 95.608 24.3246 95.7481 24.3246H97.9896C98.1297 24.3246 98.2098 24.2648 98.2298 24.1254C98.4099 23.1292 99.1504 22.5315 100.491 22.5315C102.192 22.5315 102.893 23.3483 102.893 24.5836V26.1775C102.893 26.1775 102.192 25.1216 99.6508 25.1216C97.029 25.1216 95.3678 26.5362 95.3678 28.6879C95.3678 30.9991 97.069 32.0152 99.4306 32.0152H103.914ZM107.372 27.8711C107.372 30.501 108.733 32.0152 111.395 32.0152H113.036C113.176 32.0152 113.216 31.9754 113.216 31.816V29.7837C113.216 29.6244 113.176 29.5845 113.036 29.5845H111.655C110.835 29.5845 110.154 29.0665 110.154 28.0504V23.0893H113.036C113.176 23.0893 113.216 23.0495 113.216 22.8901V20.8778C113.216 20.7184 113.176 20.6785 113.036 20.6785H110.154V17.67C110.154 17.5306 110.114 17.4907 109.954 17.4907H107.572C107.432 17.4907 107.372 17.5306 107.372 17.67V20.6785H105.831C105.691 20.6785 105.651 20.7184 105.651 20.8778V22.8901C105.651 23.0495 105.691 23.0893 105.831 23.0893H107.372V27.8711ZM118.216 30.0627C116.995 30.0627 116.475 29.4849 116.475 28.6481C116.475 27.632 117.155 26.9546 118.576 26.9546C120.277 26.9546 121.378 27.8511 121.378 28.9669V30.0627H118.216ZM122.379 32.0152C123.36 32.0152 124 31.4374 124 30.4612V24.4242C124 21.9138 122.219 20.4992 119.097 20.4992C114.774 20.4992 114.033 23.4081 114.033 24.1254C114.033 24.2648 114.073 24.3246 114.213 24.3246H116.455C116.595 24.3246 116.675 24.2648 116.695 24.1254C116.875 23.1292 117.616 22.5315 118.957 22.5315C120.658 22.5315 121.358 23.3483 121.358 24.5836V26.1775C121.358 26.1775 120.658 25.1216 118.116 25.1216C115.494 25.1216 113.833 26.5362 113.833 28.6879C113.833 30.9991 115.534 32.0152 117.896 32.0152H122.379Z" fill="white"/>
<path fill-rule="evenodd" clip-rule="evenodd" d="M22.8828 10.2364C27.3237 7.68389 33.0551 9.21267 35.6191 13.6338L35.6192 13.634C38.1833 18.055 36.6475 23.7607 32.2065 26.3132L32.2064 26.3132L25.9906 15.5951L16 21.3376V14.1923L22.8828 10.2364ZM26.8233 29.4073L16 35.628V28.4828L23.7154 24.0483L26.8233 29.4073Z" fill="url(#paint0_linear_884_1241)"/>
<path fill-rule="evenodd" clip-rule="evenodd" d="M30.431 35.6281L23.7153 24.0485L25.9905 15.5955L37.6085 35.6281H30.431Z" fill="#0077FF"/>
</g>
<defs>
<linearGradient id="paint0_linear_884_1241" x1="16.2127" y1="33.4864" x2="37.9492" y2="20.8803" gradientUnits="userSpaceOnUse">
<stop stop-color="#0077FF"/>
<stop offset="1" stop-color="#00ECBB"/>
</linearGradient>
<clipPath id="clip0_884_1241">
<rect width="108" height="27" fill="white" transform="translate(16 9)"/>
</clipPath>
</defs>
</svg>
