<svg width="140" height="48" viewBox="0 0 140 48" fill="none" xmlns="http://www.w3.org/2000/svg">
<g clip-path="url(#clip0_29_931)">
<path fill-rule="evenodd" clip-rule="evenodd" d="M29.4386 16.965L32.7945 26.1991L36.3109 16.965H41.3025L32.7668 38.3484H27.8298L30.3545 31.7225L24.2866 16.965H29.4386ZM82.1611 16.6376C86.6683 16.6376 89.955 20.1281 89.955 24.9056C89.955 29.6831 86.6683 33.1744 82.1611 33.1744C80.4977 33.1744 79.0974 32.7348 78.0284 31.8874L77.9592 31.8313L77.8998 31.7826V38.3435H73.0897V16.965H77.3429V18.5632L77.3673 18.5356C78.4151 17.3428 80.0003 16.6831 81.9592 16.64L82.0626 16.6384L82.1611 16.6376ZM50.0637 16.6376C55.0268 16.6376 58.5448 20.0598 58.5448 24.9056C58.5448 29.731 55.0154 33.1744 50.0637 33.1744C45.0843 33.1744 41.5492 29.7359 41.5492 24.9056C41.5492 20.055 45.072 16.6376 50.0637 16.6376ZM66.5585 13.4469V16.965H70.5153V21.1112H66.5585V26.8345C66.5585 28.115 67.1814 28.8194 68.3163 28.8625L68.3717 28.8633L68.4278 28.8641C69.1972 28.8641 69.7801 28.6626 70.302 28.1621L70.3509 28.1142L70.4803 27.9817H70.5161V32.5553L70.3688 32.626C69.5766 33.0038 69.0889 33.1744 67.7391 33.1744C63.9255 33.1744 61.8315 31.1025 61.7501 27.2334L61.7485 27.1156V26.9978L61.7477 21.1112H60.007V16.965H61.8787V13.4469H66.5585ZM100.466 16.6376C105.429 16.6376 108.947 20.0598 108.947 24.9056C108.947 29.731 105.418 33.1744 100.466 33.1744C95.4864 33.1744 91.9513 29.7359 91.9513 24.9056C91.9513 20.055 95.475 16.6376 100.466 16.6376ZM112.868 27.9135C114.324 27.9135 115.503 29.0916 115.503 30.5435C115.503 31.9963 114.323 33.1744 112.868 33.1744C111.412 33.1744 110.232 31.9963 110.232 30.5435C110.232 29.0908 111.413 27.9135 112.868 27.9135ZM81.4405 20.9479C79.2733 20.9479 77.8012 22.5485 77.8012 24.9056C77.8012 27.2635 79.2733 28.8641 81.4405 28.8641C83.6355 28.8641 85.1124 27.2683 85.1124 24.9056C85.1124 22.5436 83.6355 20.9479 81.4405 20.9479ZM50.0628 20.9479C47.889 20.9479 46.3918 22.5567 46.3918 24.9056C46.3918 27.2553 47.889 28.8641 50.0637 28.8641C52.2098 28.8641 53.7029 27.2505 53.7029 24.9056C53.7029 22.5615 52.209 20.9479 50.0628 20.9479ZM100.466 20.9479C98.292 20.9479 96.794 22.5567 96.794 24.9056C96.794 27.2553 98.292 28.8641 100.466 28.8641C102.612 28.8641 104.105 27.2505 104.105 24.9056C104.105 22.5615 102.612 20.9479 100.466 20.9479Z" fill="#0042E4"/>
</g>
<defs>
<clipPath id="clip0_29_931">
<rect width="92" height="26" fill="white" transform="translate(24 13)"/>
</clipPath>
</defs>
</svg>
