<svg width="200" height="200" viewBox="0 0 200 200" fill="none" xmlns="http://www.w3.org/2000/svg">
<rect width="200" height="200" rx="20" fill="#0080FF"/>
<path fill-rule="evenodd" clip-rule="evenodd" d="M173 64.5525V40.0945C172.999 39.7278 172.902 39.3679 172.719 39.0504C172.536 38.733 172.273 38.4692 171.957 38.2853C171.641 38.1014 171.282 38.0038 170.916 38.0023C170.551 38.0007 170.191 38.0952 169.873 38.2764L153.813 47.4764C153.174 47.8439 152.642 48.3742 152.273 49.0138C151.903 49.6533 151.708 50.3794 151.708 51.1186V75.5767C151.708 77.1873 153.442 78.2 154.835 77.3947L170.895 68.1947C171.536 67.8268 172.068 67.2955 172.437 66.6548C172.807 66.014 173.001 65.2928 173 64.5525ZM30.1329 38.2825L76.6278 65.0223C77.2612 65.3862 77.9784 65.5776 78.7083 65.5776C79.4383 65.5776 80.1555 65.3862 80.7888 65.0223L127.284 38.2825C127.602 38.0998 127.962 38.0041 128.329 38.0049C128.695 38.0057 129.055 38.103 129.372 38.2871C129.689 38.4711 129.953 38.7355 130.136 39.0538C130.319 39.3721 130.416 39.733 130.417 40.1006V113.493C130.417 114.927 129.687 116.257 128.476 117.032L100.189 135.047L119.108 146.224C120.446 147.017 122.119 146.999 123.445 146.169L151.489 128.611C151.79 128.422 152.037 128.159 152.209 127.847C152.38 127.535 152.469 127.185 152.469 126.829V101.908C152.469 100.358 153.32 98.9427 154.671 98.2106L169.922 89.9989C170.24 89.8284 170.598 89.7434 170.959 89.7523C171.32 89.7612 171.673 89.8637 171.982 90.0498C172.292 90.2359 172.549 90.4993 172.727 90.8143C172.906 91.1293 173 91.4852 173 91.8475V137.793C173 139.281 172.209 140.66 170.932 141.41L123.275 169.425C122.618 169.811 121.869 170.009 121.108 170C120.347 169.99 119.603 169.772 118.956 169.37L82.7416 146.913C82.438 146.725 82.1875 146.462 82.0139 146.149C81.8404 145.836 81.7495 145.484 81.75 145.126V123.016C81.75 122.315 82.0968 121.662 82.6808 121.272L107.257 104.836C107.831 104.453 108.302 103.935 108.627 103.326C108.953 102.717 109.124 102.037 109.125 101.346V74.5639C109.125 74.4158 109.085 74.2704 109.011 74.1426C108.936 74.0147 108.829 73.9091 108.7 73.8365C108.571 73.7639 108.426 73.7269 108.278 73.7293C108.13 73.7317 107.986 73.7734 107.86 73.8501L80.8497 90.1027C80.2024 90.4925 79.462 90.6994 78.707 90.7015C77.9519 90.7037 77.2104 90.501 76.5609 90.1149L49.1738 73.8379C49.0467 73.7629 48.9021 73.7228 48.7546 73.7216C48.6071 73.7204 48.4619 73.7582 48.3337 73.8312C48.2054 73.9042 48.0985 74.0098 48.0239 74.1373C47.9492 74.2649 47.9094 74.4099 47.9084 74.5578V122.955C47.9078 123.326 47.8094 123.69 47.6232 124.01C47.437 124.33 47.1697 124.595 46.8483 124.777C46.527 124.96 46.1632 125.054 45.7937 125.051C45.4243 125.047 45.0625 124.945 44.7451 124.755L30.0417 115.909C28.1558 114.774 27 112.724 27 110.516V40.1006C27 38.49 28.7398 37.4772 30.1329 38.2825Z" fill="white"/>
</svg>
